/* XPM */
static char *mic_11677270917[] = {
/* columns rows colors chars-per-pixel */
"64 64 78 1 ",
"  c #2D2D2D",
". c #312F30",
"X c #353535",
"o c #383636",
"O c #353836",
"+ c #393936",
"@ c #363639",
"# c #393739",
"$ c #373938",
"% c #3C3C3C",
"& c #403E3F",
"* c #3E413E",
"= c #41413E",
"- c #3E3E41",
"; c #413F42",
": c #3F4241",
"> c #434343",
", c #484645",
"< c #464946",
"1 c #494946",
"2 c #464649",
"3 c #494749",
"4 c #47484A",
"5 c #4C4C4C",
"6 c #514E4F",
"7 c #4F514E",
"8 c #51514E",
"9 c #4E4F51",
"0 c #524F50",
"q c #4F5152",
"w c #545354",
"e c #585756",
"r c #575855",
"t c #595956",
"y c #565659",
"u c #5A575A",
"i c #575959",
"p c #5B5B5B",
"a c #5E605F",
"s c #61605E",
"d c #5E5E60",
"f c #615F61",
"g c #5E6261",
"h c #636363",
"j c #69696A",
"k c #767676",
"l c #7B7B7B",
"z c #F50A3B",
"x c #F80A3B",
"c c #EEF60A",
"v c #ECF80B",
"b c #F1F60B",
"n c #EB2AED",
"m c #E92BF1",
"M c #0AF3F5",
"N c #0AF3F8",
"B c #858585",
"V c #8C8C8C",
"C c #939393",
"Z c #A6A6A6",
"A c #ACACAC",
"S c #B4B4B4",
"D c #BABABA",
"F c #C5C5C5",
"G c #CDCDCD",
"H c #CECFD1",
"J c #D4D4D4",
"K c #D8D6D7",
"L c #D6D8D7",
"P c #D9D8D6",
"I c #DADADA",
"U c #E1DFE0",
"Y c #E2E2E2",
"T c #E5E6E8",
"R c #EBEBEB",
"E c #F2F2F2",
"W c #F7F7F9",
"Q c gray99",
/* pixels */
">>:&=:>>>>*>>>:>>22>>5555eiepew2>w6weew5w1>*>>2>22>44%&%225<%#>>",
"%#-%%%%%%+%%%%#%%*=%&28weyp55pw2%25wppgw555%##%%*&&*:-1e6555:#%#",
"%###X#X+@%#%%%*-=>>%=>5555w528555=2<<555=22>%%>>MNM>%::%%+XXX   ",
">=>>>>>=n>>>2>2>>222<>&=>>2>>%:%%>%##%%#>%#>**>%MNNN++XX ..     ",
">2*=<2>n>n>>>2=,1>%>>>>>>%AZ55ZSAZ55ZA>%=>%%%%%%N%MMM#XX.XX.    ",
"%%>:%%%n-%n*%*>:%*>%#>=>55DS55SDFA55AF55>%>%%%%#M+#MM#$#X$$XX ..",
":=%%%%%n$$n+O#X+#%%>%<2>ASFS%>YQWY>%SFSA<2>>*:>>M->M:%=:%$+@.OO.",
"+%%X+##n@%n+##-%;%%%=2=2ASSZwpRQQRpwZDAA>#%>%>>#M>M%%%>X.XXOOX..",
"@+#X++XnXn+X%$-%#%%%%%*>55%8YEREEEEU7%55225><>%%M>*%%%%*$X%%XXXX",
"#$#%##=nn%;%%>>%*2>>5>>>55=tEQEEEEQEe=5521>===MMN%%>%*##%%#XXXX+",
"XXX@$%n#n#@#%%#%=>22>>*2ZDEWQQEREEQQWEDA5>>51NNMM1>>>252:%%$X+#+",
">>>47n15n9055wq75wwwewepADEQTREEERRRWEDAhpeiiNMNMpt8rwue;#%X@XX.",
"ppeeneynnnyeprpyeeedhppa6555%wTQQTe%5555fghhppNMppwehpyq%##$XXXX",
"ippyn0n5nwnwiw5wyeippptp5555%eRQQTw%5550ppeppppuhp0w5wew2*>%%$X+",
"55wqn5wwninqeyeeghpeppphADRWWEREEEPPILDAhssdhjhpspppeyet522>:>:%",
"w855n0y8nwn555ee5eyeptwpADEWEEEEEEILIIDA54<2,55>>=22>>>=%XXXXXX.",
"65555nnnnn4>,12>%#%%%%%>57w8%wRQQTw%5555=>==>#%&*>;:=>%#+#+$X@X+",
"->>>;=>2n>255552>><>>2>>5522%wTQQTe%54552>22>>=%%;%%%#%#%$XX+XX.",
"55575n95n55,5<5<z,22<>>5SSADTRQQQQJGSSSS5>>>2>,<<>2cccccc>*>%%*#",
"24>>>n4<n222;,11x>2>*>=,ASSDQQRTRRTIDSSS1>>2<>2>25>c2>>=c==&*%%%",
"%%#@o+nn%%%%%%%Xz%<=22>%55+8EWp55pIP6%55255,812>>12cbcccc%;%%%%%",
"#X%X#XXX$##X@XX%x%%%%>>>56>tWE5X#5LIe>751>>2>>2>2,4c=>==c>>*%%*%",
"=%=:*>%:-%%%%*:*z->%%%>2ZDEQQTi=>eJIIIDA5>=>>121212c>>%>c->:;:%%",
"%%%%%%#%%%-:*%*#z%%%%*%>ADEWQTe>2eGYILDA1=22>>2>>>=c=*:>c%*%;%%%",
"1,2>>>2>%%**%:%>z>>>>42<>5>eWE5+#5LIw>55952>>>>>>ccc22ccc52>>,>>",
"55w5wwweww606ezzzwwwpdsp=5#9EWp55aIJ8=55ph72>2>2cccb,vccc2>,4&>&",
"555wwwwewwwwwzzzzyewFHPYDSSDQQJGHHYUSSSSBklk1>15cccv2cccv>>>>%%%",
"9w8595w551578zzzxeyeLJITDSADTRIYYYJGSSDSBkll225>>bv;=>bc==>&%%>%",
"w547q8www68epezzw95eJKee><52%wGYIGw>5555epll>%2%%%%+#%+%%%%%*+%*",
"22>>>;>>>*2>:;>>4wweLUep;58w=wGUYGw>5555e8llew55555856w755w5652,",
"+#+++$XXXX+#X+$X=pdsRWppZDEWEEPJLKIIILSSphklphpphpphppueupiyww0w",
"%#%%%%%%#*#%:%%%>edpEWppZDEWWELLLKIIILDShhklphhhpspdipppgptsieie",
"2=>2>>*:>><<55225pspEQhp&555%wGUUGw=5555hpllhhhpte5wpweewywqeew5",
"22><22<>>25555557ppsEQpp=555>wHUIJw>5552apBliw5iweppgpppepewwp55",
"X+%%+#%%X##%%#=>-%%%RW=2ZDEWRRKLILGGIKDA+#klXX#%@5hppppwwwwwwwq5",
"X#%#%+%###XX+%%%XX%XEEXXZDEQQWKJJLUYIISSXXklXXX  >ewwwwwwwqw55qw",
"%X+XX##XXXX+%#%XX%%XEQXX*52eIRLJJLRIt>52XXllX+XX.>pitewweeew8555",
"XX#$XX+XOXXXXXX+#%#%EQXX>5%5FLLLKLLFw-51XXll+#XX.>piyeewwww8ew59",
"X@#+XX+#%##%%==>22<5EW>>ZASZweJYYJewZSAS2>kl42>>:2w7555552255552",
">*%*>*>**>2<<222=>>>RE5wZSFD%>GYIG>>DFDS55kl5<2552>=%>%>>%*>%%%#",
"2>2>22>=22=>2>>2<212LLGG>2DA55SDDS55AD42BVll255>252>>2>*:>=%>%%%",
"%*->=%>=%%%%>=>>>&>%FGJL=;ZZ=>ZSDZ22ASqwVVlk5qww555551222>252=>>",
">>*%%:%>:>>>=%%%=>:25wJJHG>>>%epwwweweBVlkweew9wweww855555252552",
"ewwwww5eeyiepwwwepepeeFHLIe5wwwppwweqeCVlkwieeiweweew5w555588555",
"wwweeeweeeqepyppppypeyphLJLKILBBVVCCVVllewweyiewwewqepew5ew51552",
"w559www9wee9wpewiwee5eweGJJJILCVVCVCCCkk5wwwwwwwwww7weqqw565555>",
"5525e525wwi55peieiyieweephshKLLGCVCVpe55wwe7ww5w5wwweq55wwww8555",
"7qwew57w5wwewqwwwe5qw5ww6555GHUPCVVVw5ewewwipieeewwq5ww555552>2<",
"55w555555w5580955555555555556pJGCBew555ww656w5weweqw5<55222>1>%#",
"555w55589ewwwwww85w59w525w5755JJCV555555555455wq5555555255515=X#",
"5555wq570w555wwqqwwww555555w8eJHCV59555555www5w5ww55qw55>2<52%+#",
"w5wwiwwwq5wpiweepwepeeyewewptsJJCVpwwwppsphgpppspppieeewww555:*%",
"255555555wwew55w65555555525558JJCB522515555575555552215222>>=#+X",
"+#%%$+$%>>%*>>>%>%%>>>%=>>&*%2HHCV2==>>%>22>=%>>%2>%=%%%#%%%%>%%",
"%#%%%#%#%%%>;>2>>2,<2>2>22>>2>JJCV>>>==222>1222*>>%>>%=*=*>:%%%%",
">%%%%%%%>2>2>>%=>>:%>&>>*>121wJHCB2=%2%*==>%%>%+%%%%#%#%#%%$#+%#",
"$%X%%%2%%%#%%#+XX#%%%%%>&>FGJJYPCVkkkk>%%>>>=2>>>%>=%>%%***%%%%+",
"ypeedpte57ppapeweeieieupphLLHJLHCBllllpp5&*>>=>>>>%-;%%%%%%###+X",
"hhhjjjhhjjhhjjphjjhjjjKJLJPJCCCCllllllllll2>>>;>>;>>2*>%>*%%#%$#",
"pppewppphhppjhgpshhhghLLKJJGVBVBlklllllllk>>%%%#%%%>%=%>#%#%$$X+",
"happppphhhhjjhshjphpphhpshpspphhhhhhpshj7+>%>%>>>>>>=>>>>>%::%X+",
"hpepthhdgpyephphhpppahhhhhhhjjhshhhpppph5>>2>2>2>>>>>:%%#%%%#+X$",
"==>>>>>>>%#+%%%>>->%>>>;%>>22>>>=>>%>%>%>&>=%>>%%%%#>##%+X$XXXX@",
">22%%%%%%>>>>%>>=%>%>>%>>>=>>>2=>2>2%>=22>>>>>>*>>>***%:%##X@XX+"
};
