/* XPM */
static char *mic_41677270917[] = {
/* columns rows colors chars-per-pixel */
"64 64 76 1 ",
"  c #2D2D2D",
". c #312F32",
"X c #353535",
"o c #383636",
"O c #353936",
"+ c #393936",
"@ c #363639",
"# c #393739",
"$ c #363938",
"% c #3C3C3C",
"& c #403E3E",
"* c #3E403E",
"= c #41413E",
"- c #3E3E41",
"; c #413F41",
": c #3E4141",
"> c #434343",
", c #484646",
"< c #464846",
"1 c #494946",
"2 c #464649",
"3 c #494749",
"4 c #474849",
"5 c #4C4C4C",
"6 c #504D4E",
"7 c #4E504F",
"8 c #52514E",
"9 c #4E4E51",
"0 c #524F51",
"q c #4F5150",
"w c #535453",
"e c #585656",
"r c #565956",
"t c #595956",
"y c #565659",
"u c #595758",
"i c #575959",
"p c #5B5B5B",
"a c #5E605E",
"s c #60615C",
"d c #5E5E60",
"f c #615F60",
"g c #636363",
"h c #696969",
"j c #767676",
"k c #7B7B7B",
"l c #F50A3B",
"z c #F80A3B",
"x c #EEF607",
"c c #EFF807",
"v c #EEF60A",
"b c #ECF809",
"n c #F1F50A",
"m c #EB2AED",
"M c #EE2AF0",
"N c #0AF3F5",
"B c #0BF3F8",
"V c #858585",
"C c #8C8C8C",
"Z c #939393",
"A c #A6A6A6",
"S c #ACACAC",
"D c #B4B4B4",
"F c #BABABA",
"G c #C5C5C5",
"H c #CDCDCD",
"J c #D4D4D4",
"K c #D7D7D9",
"L c #D7D8DA",
"P c #DADADA",
"I c #E2E2E2",
"U c #EBEBEB",
"Y c #F0EFED",
"T c #F2F2F2",
"R c #F7F9F8",
"E c gray99",
/* pixels */
":>>%>&>,>::>>>:>,><,>4555yrypyw,,w7wyyw5w3>>>>3><,,2,;%%,<31%O>=",
"%%%=%-#%%#$%%%%#%%>%%,7wytp55p8<%>5wppsw553%$%+*%>:%&;1y7555>%##",
"####O$XXO%#-%&:%:>>:>>3557w52w555:,<1553>>,>%%>>*%-*=%-%%+XXX   ",
">>>>>>*>,>>>=><>>,,,4>:>>=,>>%*>->%##%%%>%%%*%>%%%%#o#$X ..     ",
"><=>>,=>>,>>,,>4,>%:>>:>>%SS35ASSA55SD>%&:%>*%%#NNN##%XX.X..    ",
"%%>::%%>m*=%%%:*>%>%#:>>35FS55SGFD55SF35>:>%%%%#NNNN#OX#O++oX...",
">**%%%#m+m%#X%X+#%=:*,>,DFGD%>IEEI>#DGFS<,>=*>>>B>NNB%==%+OOXOO.",
"%%#O+o#mO#mO$#%*-%%%:,>>SSDS8pUEEUr7SFSS>#%>%>>+N*%NN%>o.XXXXX .",
"O##XO#OmO#mXO#%=%%%%%#%,53%6ITYTTYTI5+5w,3<2,:>%N>*N%%&%OX%#OXXX",
"+#+%+#>m#%m%>>>#%,>,3>,>55>uTETTTTETt>552,,:>:;%N%N>%*%%%%#XXXX#",
"XXXO#%#m%mX%#*%%>=2,>>:<SFTREETUUTEERTFS7>=33142N4>>>,,3>%%+XX#O",
">,>4q33mm975q0895ywwiwrpSFTRUUTTTTUURYFSapippaNNNtywrwty%#%+XXXX",
"pttyptmimtutpytryytpgppp5553%yUEEUy%5555gfgapBNNNpwrgry0%%#$XOXX",
"rppu5mw5mywwyy58tytppprp5555%pIEEIw%3557dpppaBNNNp5w7wrw,%>%%#Xo",
"55wwm50mmmt8tttysgswpppgSFTRTTTUTUPPIKFSgppsahBNdpapiy8y5>,>%>>%",
"ww53mwm0mwm555yy5ytyypypSFYRTTTTTTPPPKFS5233<53,>>3,>>,>%$XXXXXX",
"w155m2<3m5m3441,#$%*%#->55ww%wUEEUy%7553:>:>>#%:%%--==%%$####OoO",
"&;<>m>><m>m3555<>><>>,>,53<,%wUEEUw%3555>,>>>>:%;>%%-#%O++X#XXX.",
"53555mmmmM533153,,,,>>>5SFSFIUEEEEJHFDDS5,<,,>4,<4,,>>>>,>:-;+;%",
",1<,,>31m>,,:35<->>>;>><SFDFEEUIUUIPFDFD4>>>>,<>,4>4,>=>>>%=%%-+",
"#%##Xm%+m%%%%#%$l%,>>2>%55#8TTa35pPPq%55>35474,>><2vvvbvn+*%%*%-",
"#o#OOmXom#XXX$$#l-#%:->>55>yRT5XO3KPw,753<>,>>,>>42n:,*;n>>&%%-%",
">*>&;&mm=-%%%%>=z%&-%%>3SFTREUp=<wHIPPFS3,:>>2<41,3vvvxvv->>:*%%",
"%+-+%%%%#%>=&%%#z%:-%*+<SFTREUr>>wHIPKFS<><<>,,>>>>x:>>;v>%%>%%%",
"43,>,>,>:*%;#>-%l>2>><,,>7>iTTw#%5PPw>5365<>>>,:>%-v,<4,n3,>>>>>",
"55q58wwwww5wwwwwzwqwppap:3#qTRp38pPJw%73pgw>,,>,<4,b2<,3b3,<,:>:",
"55wwwywywwwwwwryzwyyHHPIFDDFEEHHHHIIFDFDVjkj<,454bxv>,vvv>>2>%%*",
"5w5555wq5557w8lllyrwKJPIFDSFIUIIIIJHFSFDVjkk,<3>vvvv>bvvv>>%%::#",
"ww37w7wwwwwyrllll65wJKrt>,3<%wHIIHw=1553ypkk>->%vvvv%vxvv%%*%#>%",
",>>>>=%,>%>,>lzlz8yyJIyp:50w>wJPIHw=5555y5kkyw555xv859vv577356,>",
"$#O#XoXXXX+oXOll=padUTspSFYRTTPJJJPKPKFDpgkkpgspappgpppyypwpww7w",
"%#%%%:%%#%%%*%%%,rpaTRppAFTRTTPJJKKPIJFDggjkpsggpfppuptpappgtwrt",
",:>,>:*>>,<<55,,5pdpTEgp>553>8HIIHw=5553gpkkhggprt7wpwpywtw8ytw5",
"4,><,,,>>43555555ppaYEpp&555=wHIIHw>5555pakkpw5rwwppsppyypywwtq5",
"X#%%##%%O##%%#*>>%:%TT>,AFTRUUPJPJHHPKFS#%jkXX%%O5gppppwwwwwww05",
"X%%%%$%###XO#%%%XX#$TTXXSFTEERPHJJIIPKFDXXjkX.X. =ywwwwwww8w555w",
"$XOXX##XXXXO#%%#X%%OTEXX%5,iPUJJJJUPr>5<XXkkXOXX.>pipywwrty7w555",
"XX###XOXXXXXXXXO###%TEXX%5>5GJKPPJPG8=51XXkk#$XX.>piwyyywwwwyw57",
"+X%OXXX%%##%%::><<<3TR>>ASFAwyJIIJywAFSF>>jk3,>,=,w5551,5,,45533",
">>%%*=>:*>,<4,,,>,>>UT35SDGD=>HPPH>%DGDF57jk53155,>>*=>>>>>=%%%%",
",>,>,,>>,>>>,>>,,,3,KJHH,,FS55SGFS55SF,,VCkk>35>,1>,,,>:%>**>*%%",
"%%:>:%-:*%%%>:>>>*>%GHJK%=AA:>AFFA13SF5wCCkj8wwwq775534,,>53>>>>",
">>=%=>=>=>,,:%%%->=>1wJJJH>>:%ypwwyrwyVCkjywww8wwyww7535334333<,",
"ywwww55ywyyrpwwwypppprHHJJywywwtpwwy8tCZkjyryyp8wwyyq5w85qqww555",
"5w8yyywwyw8ypttppptpyrpgJJJPIJCkCCZZCCkkwwwytyywyww7ypy85ww73<33",
"ww57www8wyr68pyytwyw5wwyHJJJPJZZCZZCZCjj5wwwwwywwwy8wrw8w755775<",
"67,5w5<5wwy50iyttppywywtpgpgJJJHZCZZpy55www8ww5859w8y577wwwww557",
"q6wyw5ww8w8ywwwwww58w5ww55w5HHIKZCCCw8wwrywtptyypwww0qw55355,>>,",
"55w55555ww5q58555555505555555pJHZVww355ww557w5ywww8w5155334,<>#%",
"553w73755w8wywwyw55q5w5,5w5755JJZV755555555355855555533<553<5:O#",
"55758w57w5555ww88wwww855555wwwJJZC77555555www57www59ww73<,,5,%O#",
"w58yrwww5wyppwwypwypywrywwypiaJJZCpwywppgagpgppgsptytyryww755>%%",
"435555555wwyw55w755555355,553wJHZV8,335755559555555,,4<,,4&>>##O",
"O%%%#X%#=>%:>>=%:-%>>>*:>>:%*4JJZC,*%>>%>>>,:%>>>>>%>%%%#%%*%*%%",
"%#%%%%##%;%>:>,,,,<2,,,,,,,>,>JHZV>>:>:,,,,4,,,*;>%>:*%>>%>*%%%%",
">=%%%%*%>,>,>>%:>>%*>%>>:><,,qJJZC,:-,%*->:%=:%#%%%%#%#%#%%#%X%#",
"#%X%%%,#%##%%#XOX#%%%%%;:>GHJJIKZCjjjj>:%>,>:>>>>%>%%:%%*>%%%%#O",
"rpyrpppp7wppapywypyrtypppgKJJJJHZCkkkkpp5%%>>>>>%>>>>%%%%%%%#%+X",
"ggghhhgghhgghhpghgghhhPJJJPJZCZZkkkjkkkkkk,>>>*>>>>>,:>%*%%%#%#%",
"papywpigagppgggpggggsgJJPJJHCVCCkjkkkjkkkj>>%-%#%%%%>%%>%%#%##OX",
"ggppupgpggghhggghpgpaggpsgpdppggggggpgggq#>*::>>>>>>>=>>;>->*%Oo",
"ppttpggpsprygspggpppdgggggghhhgagggpppgg5>>,,,>,>>>>>=*%+%%+#OO#",
";>>>>>>>>%%#%;%>>*>%>>>%->>,,>>::>>%>%:&>**-%>>%%%#%:##%#XOXXXXo",
">>>>%%%%%>>%>%->;%>%>>&*>>>%>>,>>,>>>>%,3>>>>>>&>>>*>%%>%#%X#XXX"
};
