/* XPM */
static char *mic_31677270917[] = {
/* columns rows colors chars-per-pixel */
"64 64 73 1 ",
"  c #2D2D2D",
". c #30302E",
"X c #353535",
"o c #383637",
"O c #363836",
"+ c #3A3A36",
"@ c #373638",
"# c #393738",
"$ c #373939",
"% c #3C3C3C",
"& c #403E3E",
"* c #3E403E",
"= c #41413E",
"- c #3E3E41",
"; c #413F41",
": c #3F4141",
"> c #434343",
", c #494647",
"< c #464846",
"1 c #494946",
"2 c #464649",
"3 c #494649",
"4 c #464949",
"5 c #4C4C4C",
"6 c #504E4F",
"7 c #4E504F",
"8 c #51524E",
"9 c #4F4F51",
"0 c #514F51",
"q c #4E5151",
"w c #545454",
"e c #585656",
"r c #565956",
"t c #595956",
"y c #545759",
"u c #595759",
"i c #565959",
"p c #5B5B5B",
"a c #605E5F",
"s c #5E605D",
"d c #615F60",
"f c #5F6061",
"g c #636363",
"h c #696969",
"j c #767676",
"k c #7B7B7B",
"l c #F60A3C",
"z c #FA093C",
"x c #EEF507",
"c c #EEF60A",
"v c #EDF809",
"b c #F1F50B",
"n c #EB2AED",
"m c #0AF3F6",
"M c #0AF4F8",
"N c #858585",
"B c #8C8C8C",
"V c #939393",
"C c #A6A6A6",
"Z c #ACACAC",
"A c #B4B4B4",
"S c #BABABA",
"D c #C5C5C5",
"F c #CDCDCD",
"G c #D0D0CE",
"H c #D5D5D4",
"J c #D8D8D6",
"K c #DADADA",
"L c #E1E1DF",
"P c #E2E2E2",
"I c #EBEBEB",
"U c #F2F2F2",
"Y c gray99",
/* pixels */
">>%>:>-<>>>:>>>:<<>><3555wpwpww,<w5weww0w,>>>><>2<>,<-%-<<44%#>&",
"%%%%%*%%%o%%%+%%%%>%;<9wwpp55pw<%>5wppgw554%%%%%%>:%*;5w9555>%%%",
"%%%%$oooX%%+%-%%;>>%;>55w5w52w555><>4453>>4>%%>>%%-&%%%+%#ooX   ",
"%>>%>>%>>>>>>><<3><<<>&;%>2>>%=%%>%%%%%%>%%%%%>%%%%%%@$X .      ",
"><%><>>*<,>>>>>4<>%>>>;>>=ZZ45CAZC55ZZ<%=-%>%%%%-&-@o#oXX...    ",
"%%>>>%%%%%=%%->=;%>%%>;>45SA55ASDZ54ZS55>;>%%%%%%%%#$OX%@%$oX . ",
">%%%%%%%##%$@%o#%%>%%<<<AADA%>PYYP>%ADAZ<>>>%>>>mmm>&%>&%@X@Xo@X",
"%%%o@#%on#%@$+%%%%%;;>;<ZZAZ6pIYYIp0ZSZZ:%%>%>%%mmmm%%-#.XXXXX. ",
"o##X@#Xnon$@$#*-%%%%%%%>55%wPUUUUIUPw%46<5<2>-=%M>mMM%%&@@+%oXXX",
"%##%#%=n+%n%:>>%&<>>3><>54>wUYUIUUYUw-554<3&>>>;m%&mm%%%%%$XX.X%",
"XXX##%%n%%n++&%#;><<>>>4ZAIYYYUUUIYYYISZ5<;4533<M3<m>>34:%%oo$$@",
">>>4q11n55n597w65wwwwwwpZSUYIIUUUUIIYUSZdaepppdpmpMwpwww:%%ooX.X",
"peiepuwnwnpwpepywepggppp6545%wIYYIw%9555gaggpadgmtwwgeww%%%%XoX.",
"itep80wnnww0uw5wpwwpppep5555%pPYYPw%4550ppupaemmmpww8wpw<*%%%$$$",
"49qw55nwnppwiiuepgpypppgZSUYUUUIUIKKKJSZgpaafmmMmpptewwe4<>>->:%",
"ww550nwwnw0655yewwptwpwpZSIYUUUUUUKKLJSZ5441<mmmM=43><>;%#XXXXXX",
"w155n,>nnn,3,1,>%@%%%%%>55ww%wIYYPw%5654>>;>;%mm=%=:=>%%o%%#oooo",
"%>,>n;n,n>n44563>><2<><>554,%wIYYIw%5465>>>><>%%*>-%%+-o%o$OXoX.",
"4345n875n4n<1454<,<>,,>5ZAZSPIYYYYHFSAAA5,><<>3,<><<<>>;>>%;%%*%",
"49,,n>32n<n<>,4,&=<>&;>>AAASYYIPIIIKAASZ,<22>>,>,3,<>>>>=>*:%%*+",
"+%%#onnnnn%%%%+o$%><><>%55%wUUp45pKKw&55>45463<><<<::*%-%-%%%-%%",
"$Xo@o@Xon%XOO@$#%-%+;;>>55>wYU5X%4HKw>554>,,>>2>>22>2>:>;:>&+%--",
":*>:&n*:n%%%%%%>l%&=%%>3ZSIYYIu><wHKKKSZ4<>&>3,,33<xxbxxc->::>%+",
"%+%%+n%%n%%>*%%%l%-%*%%>ZSUYYPw><wGPKJSZ4>2<>><>>>>x;*>>x*-&:%%-",
"4,<>><nn=&&-%>%*l>>>>1<<>5>pUU5%%5JKy>5555<>>>>>:&-xcxcbx32><>>>",
"9505w8www0q6w8wwlwwwppgp&4%6UYp56pKH0;52pgw><<<,<22c4544c4><>>>%",
"5qwwwwww0w8wwwpwlwwwFFKPSZZSYYGFFGPLAASANjjj3<34,><x<>>>c>>2>&-%",
"75756ww79550ww8wlwpwJHKPSAASPILPPLHFSAAANjkk>34<><>c>>:%c>>%%-&%",
"085909ww87qwpwwelw8wHJtt>44,%wFPPFw;5554epkk::>%%xbc%%xcc%%&--%-",
"2>>><%:>>=><>>zllwwwJLwi;67w>wHKPFw;5554w7Nkww55xxcc5cccb57555>2",
"#%@$oOXooooXollllpdsUUdpZSUYUUKHHHKJKJSApgkkfgfpccccixvccppwew7w",
"*+%%%-%+%%%%;llllwpdUUppCSUUUUKHHKJKLJSAggjkppgaaccapaxcspufpwie",
">>>>>;::><2<54ll5pppUYfp>455-wFLPF0;5592gpkkhggppu5wpwwwwpwwwiw5",
"3<><<<4>>,455575qppfIYpa;554>yFLPGy;5555apkkpw5ywwppfpppwpwwwp85",
"o%%%%#%%OO$%+%->%%%%UU><CSIYIIJHHHGFKJSZ#%kkX@%%%5gppapwwwwwww05",
"X%%%%o+$o%X$+%%+X#%%UUX.CSUYYYJHHJPPKKAAX.kkX.X  >wwwwwwwwww555w",
"oXoXX$OXX@oo#%%oX%%oUYoX>5<wKIKHHJIKy>54X.kkooXX <pupwwewpwww555",
"XX$$oXooo.XXX#oX%%O%IYoo&5-0DHHKJHJDw-54XXkkO#o# >pupwwwwwwwww5w",
"O@%oooo%%%%%%;>><3<<UY>>CZAZwwHPPHewCAZA<>jk4<>>;<w555,<44<35544",
">*%%>%>%%><><<2<>>>>IU55ZADA%>FPLF>>ADSS55kk4,455<>>%>>>>>>&%%%%",
"<><<>3<;<>>>><><<<4<JHFF<<AZ55ASSA55ZS<<NBkk<45>,3<<<<>;&>>&>%%%",
"%-%>;%:&>%%%;;;>;;>%DFHJ%;ZC;>CSAC<2ZS60BBkj6wwwq50544<<>>4,>>>>",
">>>%%>;>>>><>%%%;>><50HHHF>>;%wpwwwywwNBkkweyw8wwwww05,55445453<",
"wwwwww5wwwutpwwwwpupuwFGHKwqwwwpawwewyVBkjwuwwpwwwew06ww56w6w555",
"wwwwwwwppwwyppppppppyppgHHHKPHBkBBVVBBkkwwwwpwewwewwwpp55ww0,454",
"w056www5www5wpwwpwww5wwwFHHHKHVVBVBVVVjj5wwwwwwwwww5wwwww664555,",
"5548w545wwp55pwpwpetywwupgpgHHHFVBVBpw50wwpwww5w5wwwww86wwwww555",
"w5www5ww5wwwwwwwww5ww5ww55w5FGPHVBBBw5wwwwwwppwywwww76w55455><>,",
"55w554655w576w555555w55555559pHFVBww455ww05w5wwwwwww5455343,,>%%",
"554w645wwwwwwwwww5555w645w5w59HHVNw54555454455w55555554155435=X%",
"5565www555650ww8ww0www5555589wHGVB85565656www8w5www5ww65,<<5<%o$",
"w5wwwwwww5wppwwwpwwpwwwwwwwpudHHVBawwwppdagpdppgpppwwuwwww555%%%",
"<4455545wwwwww556559654554553wHGVN51244555555655554,<44<<4:>>%oX",
"#%%%%#%$%%>;>:%>>%%>>>%;<>;%%<HGVN<>&>>&>><<>%;>;<>>>&%%%%%%%>%%",
"%%%%%%o%%%%>>;<<<<,3<<<<>>,<<>HHVN>>>;><<<<,4<>%>>%%%%;%;%>:%%%%",
">&%%%%%+<<><>>%;>>%%>%>>>>3<3wHGVB<-->%&;:;%%>%%%%%%%%%%%%+o%o%$",
"%%%%%%>%%%%%%%ooo%%%%%%>->DFHHLHVBjjjj>&&><>;>>>>%>%%>%%%&%%%%oo",
"wpwwappi05ppppwqwpwwpippphHHHHHFVBkjkkpp5%%>>>>>>->>>%%%%%%%@%OX",
"ggghhhgghhgghhpghhgghhJHHHJHVVVVkkkkkkkkkj>>>>%>>=>>>>>%>%%%%%%$",
"ppfwwtpsdgpphggppghgdgHHHHHFBNBBkjkkjkkkkk>>%-%%%%%>%%%>%%%%@OXo",
"ggppppadggghhggggggppggpggpappggggggaagh5%;>>&>>>>>>>>>>:>:%%%oX",
"dpwiiggpdppwpgpggpppggggggghhhgdgggppppg5>><><><>>>>>%%%%%%%%oo$",
";><>>>>>>%%@%%%>>>>%>>>-%>>><>>;*>>->%:->->;%>>%%%%%>%%%oo$XXXXO",
">><&%%%%%>>=>%>:%->%=>%>>>>->><>><>>;>&<<>>>>>>->>>%%%%:%O$oOXXo"
};
