/* XPM */
static char *a07b960d16254791fa82d2f6eeae4222pqxO752jmO1x5Mvv[] = {
/* columns rows colors chars-per-pixel */
"64 64 4 1 ",
"  c #002750",
". c #0C2E52",
"X c #67D8D3",
"o c white",
/* pixels */
"                                                                ",
"                                                                ",
"                          XXXXXXXXXXXX                          ",
"                      XXXXooooooooooooXXXX                      ",
"                    XXooooXXXXXXXXXXXXooooXX                    ",
"                 XXXooXXXX............XXXXooXXX                 ",
"                XoooXX....................XXoooX                ",
"              XXoXXX......            ......XXXoXX              ",
"             XooX.....                    .....XooX             ",
"            XoXX....                        ....XXoX            ",
"           XoX...                              ...XoX           ",
"          XoX...                                ...XoX          ",
"         XoX..                                    ..XoX         ",
"        XoX..                                      ..XoX        ",
"       XoX..                                        ..XoX       ",
"      XoX..                                          ..XoX      ",
"      XoX..                                          ..XoX      ",
"     XoX..                                            ..XoX     ",
"    XoX..                                              ..XoX    ",
"    XoX..                                              ..XoX    ",
"   XoX..                                                ..XoX   ",
"   XoX..                                                ..XoX   ",
"   XoX..                                                ..XoX   ",
"  XoX..                                                  ..XoX  ",
"  XoX..                                                  ..XoX  ",
"  XoX..                                                  ..XoX  ",
" XoX..                                                    ..XoX ",
" XoX..                                                    ..XoX ",
" XoX..                                                    ..XoX ",
" XoX..                                                    ..XoX ",
" XoX..                                                    ..XoX ",
" XoX..                                                    ..XoX ",
" XoX..                                                    ..XoX ",
" XoX..                                                    ..XoX ",
" XoX..                                                    ..XoX ",
" XoX..                                                    ..XoX ",
" XoX..                                                    ..XoX ",
" XoX..                                                    ..XoX ",
"  XoX..                                                  ..XoX  ",
"  XoX..                                                  ..XoX  ",
"  XoX..                                                  ..XoX  ",
"   XoX..                                                ..XoX   ",
"   XoX..                                                ..XoX   ",
"   XoX..                                                ..XoX   ",
"    XoX..                                              ..XoX    ",
"    XoX..                                              ..XoX    ",
"     XoX..                                            ..XoX     ",
"      XoX..                                          ..XoX      ",
"      XoX..                                          ..XoX      ",
"       XoX..                                        ..XoX       ",
"        XoX..                                      ..XoX        ",
"         XoX..                                    ..XoX         ",
"          XoX...                                ...XoX          ",
"           XoX...                              ...XoX           ",
"            XoXX....                        ....XXoX            ",
"             XooX.....                    .....XooX             ",
"              XXoXXX......            ......XXXoXX              ",
"                XoooXX....................XXoooX                ",
"                 XXXooXXXX............XXXXooXXX                 ",
"                    XXooooXXXXXXXXXXXXooooXX                    ",
"                      XXXXooooooooooooXXXX                      ",
"                          XXXXXXXXXXXX                          ",
"                                                                ",
"                                                                "
};
