/* XPM */
static char *da208e6a29824d30b73300846668f633LKvH1PGq8Ijz11eH[] = {
/* columns rows colors chars-per-pixel */
"64 64 256 2 ",
"   c black",
".  c #010101",
"X  c #020202",
"o  c gray1",
"O  c #040404",
"+  c gray2",
"@  c #060606",
"#  c #070707",
"$  c gray3",
"%  c #090909",
"&  c gray4",
"*  c #0B0B0B",
"=  c #0C0C0C",
"-  c gray5",
";  c #0E0E0E",
":  c gray6",
">  c #101010",
",  c #111111",
"<  c gray7",
"1  c #131313",
"2  c gray8",
"3  c #151515",
"4  c #161616",
"5  c gray9",
"6  c #181818",
"7  c #191919",
"8  c gray10",
"9  c #1B1B1B",
"0  c gray11",
"q  c #1D1D1D",
"w  c #1E1E1E",
"e  c gray12",
"r  c #202020",
"t  c gray13",
"y  c #222222",
"u  c #232323",
"i  c gray14",
"p  c #252525",
"a  c gray15",
"s  c #272727",
"d  c #282828",
"f  c gray16",
"g  c #2A2A2A",
"h  c gray17",
"j  c #2C2C2C",
"k  c #2D2D2D",
"l  c gray18",
"z  c #2F2F2F",
"x  c gray19",
"c  c #313131",
"v  c #323232",
"b  c gray20",
"n  c #343434",
"m  c #353535",
"M  c gray21",
"N  c #373737",
"B  c gray22",
"V  c #393939",
"C  c #3A3A3A",
"Z  c gray23",
"A  c #3C3C3C",
"S  c gray24",
"D  c #3E3E3E",
"F  c #3F3F3F",
"G  c gray25",
"H  c #414141",
"J  c gray26",
"K  c #434343",
"L  c #444444",
"P  c gray27",
"I  c #464646",
"U  c gray28",
"Y  c #484848",
"T  c #494949",
"R  c gray29",
"E  c #4B4B4B",
"W  c #4C4C4C",
"Q  c gray30",
"!  c #4E4E4E",
"~  c gray31",
"^  c #505050",
"/  c #515151",
"(  c gray32",
")  c #535353",
"_  c gray33",
"`  c #555555",
"'  c #565656",
"]  c gray34",
"[  c #585858",
"{  c gray35",
"}  c #5A5A5A",
"|  c #5B5B5B",
" . c gray36",
".. c #5D5D5D",
"X. c gray37",
"o. c #5F5F5F",
"O. c #606060",
"+. c gray38",
"@. c #626262",
"#. c gray39",
"$. c #646464",
"%. c #656565",
"&. c gray40",
"*. c #676767",
"=. c #686868",
"-. c DimGray",
";. c #6A6A6A",
":. c gray42",
">. c #6C6C6C",
",. c #6D6D6D",
"<. c gray43",
"1. c #6F6F6F",
"2. c gray44",
"3. c #717171",
"4. c #727272",
"5. c gray45",
"6. c #747474",
"7. c gray46",
"8. c #767676",
"9. c #777777",
"0. c gray47",
"q. c #797979",
"w. c gray48",
"e. c #7B7B7B",
"r. c #7C7C7C",
"t. c gray49",
"y. c #7E7E7E",
"u. c gray50",
"i. c #808080",
"p. c #818181",
"a. c gray51",
"s. c #838383",
"d. c #848484",
"f. c gray52",
"g. c #868686",
"h. c gray53",
"j. c #888888",
"k. c #898989",
"l. c gray54",
"z. c #8B8B8B",
"x. c gray55",
"c. c #8D8D8D",
"v. c #8E8E8E",
"b. c gray56",
"n. c #909090",
"m. c gray57",
"M. c #929292",
"N. c #939393",
"B. c gray58",
"V. c #959595",
"C. c gray59",
"Z. c #979797",
"A. c #989898",
"S. c gray60",
"D. c #9A9A9A",
"F. c #9B9B9B",
"G. c gray61",
"H. c #9D9D9D",
"J. c gray62",
"K. c #9F9F9F",
"L. c #A0A0A0",
"P. c gray63",
"I. c #A2A2A2",
"U. c gray64",
"Y. c #A4A4A4",
"T. c #A5A5A5",
"R. c gray65",
"E. c #A7A7A7",
"W. c gray66",
"Q. c #A9A9A9",
"!. c #AAAAAA",
"~. c gray67",
"^. c #ACACAC",
"/. c gray68",
"(. c #AEAEAE",
"). c #AFAFAF",
"_. c gray69",
"`. c #B1B1B1",
"'. c #B2B2B2",
"]. c gray70",
"[. c #B4B4B4",
"{. c gray71",
"}. c #B6B6B6",
"|. c #B7B7B7",
" X c gray72",
".X c #B9B9B9",
"XX c gray73",
"oX c #BBBBBB",
"OX c #BCBCBC",
"+X c gray74",
"@X c gray",
"#X c gray75",
"$X c #C0C0C0",
"%X c #C1C1C1",
"&X c gray76",
"*X c #C3C3C3",
"=X c gray77",
"-X c #C5C5C5",
";X c #C6C6C6",
":X c gray78",
">X c #C8C8C8",
",X c gray79",
"<X c #CACACA",
"1X c #CBCBCB",
"2X c gray80",
"3X c #CDCDCD",
"4X c #CECECE",
"5X c gray81",
"6X c #D0D0D0",
"7X c gray82",
"8X c #D2D2D2",
"9X c LightGray",
"0X c gray83",
"qX c #D5D5D5",
"wX c gray84",
"eX c #D7D7D7",
"rX c #D8D8D8",
"tX c gray85",
"yX c #DADADA",
"uX c gray86",
"iX c gainsboro",
"pX c #DDDDDD",
"aX c gray87",
"sX c #DFDFDF",
"dX c gray88",
"fX c #E1E1E1",
"gX c #E2E2E2",
"hX c gray89",
"jX c #E4E4E4",
"kX c gray90",
"lX c #E6E6E6",
"zX c #E7E7E7",
"xX c gray91",
"cX c #E9E9E9",
"vX c #EAEAEA",
"bX c gray92",
"nX c #ECECEC",
"mX c gray93",
"MX c #EEEEEE",
"NX c #EFEFEF",
"BX c gray94",
"VX c #F1F1F1",
"CX c gray95",
"ZX c #F3F3F3",
"AX c #F4F4F4",
"SX c gray96",
"DX c #F6F6F6",
"FX c gray97",
"GX c #F8F8F8",
"HX c #F9F9F9",
"JX c gray98",
"KX c #FBFBFB",
"LX c gray99",
"PX c #FDFDFD",
"IX c #FEFEFE",
"UX c white",
/* pixels */
"e t y u i p a a f d s d f g f f g h h h j k l l k k l z z z x c c c c b M C D G H D V M C G G A C m z l c n n n x k l v v j g j ",
"e r t y u p a a a p p p a s s a s d d f g h j h j j j j h g g h z l z b C F G F A C M n N S G G B n z l l l l k v b m N M x h d ",
"r t y u p a s s a s s d d f g g h j j j k k k j h g g h j k l z l l z v n N B V C V M v v m N N b c l l k k j j g j h d a p t q ",
"p a s d g h h h a s d f f g h j k k k k k l k j x z z z x x x x v v v x z x c b l z z k j k l k z l k k k j h h g h d i y u y r ",
"a s d g j k j h h j l l l z x c x x x x x v v c c x z x x x z z v x k k l x x z l z x x c c c z l k h h h g f f a s a p i y r w ",
"s d g h j k j h h j k k k k l l l k j j j k k j j h h j k k k k j j j k l z z z z z z l l z l k z l j j j j h h g f f f d p y t ",
"s d f g g h j h g g h h j j j j l k j j j k j g h h g g f d d f g k x c x z z x l l z z c v v v z z z z l k l z l k h f s a p p ",
"e r t t t y u i i i p a s s d d d d d f g h h f d d d d d f g j j j j l z z l k l l x c v v b b z z x z k h j l g g f a p p i y ",
"r r t u i y y i s a a a s d d d d f g f d d f f f d d s d g j j j j k z z z z z v b b v v n m n n v x x l j j z k j h d g p p a ",
"t t y i p p p a g g f d d d s s p s f f f f d a f g g g g h j j k z c v c z z z n m m n n m m m M n b b v x x x z z z h h s s s ",
"t y y y u i i i u u i i p a s s a a a a s d d d h j j j j j k l x v n b c c b m n m m m m M M M M m m m M M n b n m b j h d d d ",
"d g g h k x c x x x c x x c b n n b v x c n M M C V B B B V Z A A D H H G H K P K K L L L P P P L P L P I I K G G F V j d p i y ",
"m N B N B Z A Z Z A A Z C Z S F A S S S S D F F F S Z A D F F G D H L I I U U I T T T T T T T T T T Y Y Y U K F K H C k g d s i ",
"N B V V V Z A A Z Z Z Z C Z D G H H J H G H J J F D D G J H H H J L L L P U Y U U I P I U U Y Y P P P P P L H F S A N k k h g a ",
"b n M B V C A D H H G G F D F G D S S A A A A Z A Z S F G D S D J K H F G K P P R U P U T T T R I I I Y Y P L P J H A b b z k g ",
"B B C C V N N C C Z A A S D F G D F G H J G S V C C Z S A C Z S A F H H H J J G A B m m N M m m N m M N M b v n b v z s s i p i ",
"g g g j k z v n v v c b m M M M m m m M N N N M m m m M M M M M x x z z x v b b n n n b b v c x c v v x z z x x x k h h h g d d ",
"l l z z z x v n m N N M M B N n m n n b b b v v n n m m M M N N v b b v v b b b m n b v v v v v z x z l j j j j h g f d s p i i ",
"x c v v v b n M M C C N M B N b B N M m m m m m M M M M m m m m c c c x x b m N M M M m m n m m n n n b b b b b c c c x l j h j ",
"c v n n n n M N N C Z V N B B N m n v c c c v v v b b v c x x c z x x z z z x c c v b n b v c c z x x x x x c x l l l k j g g g ",
"v n m n n n m m c c x x l k l x x z k h g g g g f g g g g g h j g k x c c x z l z x c c x z z l n n n b b b v v x z l l l k j j ",
"c v b b b m M m v x l l k h j l l k j h h h h h d f f f f f f g f h k l z c v b c c c x x x c c b b b b b b b v x z l l l l k k ",
"z x c c v m M n c z k j j h h h j h h j k k k k k k k j j j j j z z l k k z c c x z l l z x c c x x c c c v c x x z z z l j j j ",
"z x x z x b b c x x z l l z l j j j k k k k k j j j j k k k k k j k z z x c c x z l l z x c c c v b v v v v c z x c v c z k j k ",
"v v v b b c c n b c x c v c c v b b b v b n n b v b b c z z z z z c c n b n N n b b n m N V B M B M c c b x x z c c v b b v x z ",
"V V C A A Z S F F D D F D A A S C C C C C C V B C Z A Z V C Z S A S S F G G K H H H J J K K K J P F n v b v b v b b b b b c x l ",
"C Z S F F D G K F F F F D A A D D D D A Z Z Z C Z S S A C Z S F G H G J L K I L K L P P P P I P U G n v n b v x v c c x x z k j ",
"A S D F D S F H G F D D D D F G G G D A C C C Z A S S A Z A D F F G F H J H K J P I I P L L K K P F m b m v c z z z z z l l j j ",
"C Z A A Z V C Z S A Z A S D S S F F S Z V V V V B V V V C A A A C F F G J G H H D D F F G H H H H S m v c l z z z z x x x z l j ",
"x c v v v c c v c c c v n n v x n m M m n b c x l l l l x c c z m D G G J H H H P P I U T E W W I I H G F Z A S A A S D S A V N ",
"h j k l l l l k k k k l z z l j j j k k k j h f h g f f f g g f b J P P I I P L P P P L L P I I U T U T T P L L G H H J H F A C ",
"j k k k l l k j j j j h j k k k k k j j j k k j j j j h j k l z v K Y U Y U I P L I Y U Y T W Q E R I U Y I I P P P I I P K H F ",
"x x z z z x x z z z z x c c x x z z x x c c x x z z z x v n m M C H Y T Y Y U P Y Y T T T T R R R T E T U P H G J H G H H G S Z ",
"c c c x c v v c v v v b n n b b v b n m n b v c c c x c c b n n B S H J J L L J L L K J J J J J H F S Z C Z J U Y I L J J G D A ",
"f g g g g h h g h j j k k k k k h g f d s s d f g g f f f f g h h k l k l x z l k h f d d d d d f h d g f h C L L J G F D S Z V ",
"p a a a a s a a s s d d d d d d g f s p i p d g g g f d d f h j f g f s s d s a s p u u u p p p i d p d p i M H H G G F F D A C ",
"a s d s s d d s s d f f f d f f d f g f s a a s a a a p p a d f d g g d s s s a p p i i p p a p p f p d p p B L G F F D S A C B ",
"s d f f f g g g f f f f f f f f k k j h f d s s s s s s s d f g f g h g d a a a a s d d s a a a p d s g f f N G H F D S A A Z Z ",
"h j j j j k l l j j j j k k k j l k h f d d f f g f f g h j k k b b b v x z l l j l c c z k k l c b n n v c n B M m n n n n n b ",
"k l l k k l z z z z z z z z z z z z z x z z l k l l l z c v b b c c x x x x c c x n N N m b n M b b M m n n b m x x x x z l k j ",
"k j h h j k k k z x x x x x z l z x x z z z x x c c c x x v v v b b n b v c c c l b N N m n n b b n M B B N m n v c x z z z l k ",
"l l k k l k k j k l l l z z x z z x x z z z x x z z z l z z z k x x x x x x c v c N A S A Z A A A A A A A A Z Z V N M n n b v x ",
"z z z z z l k j k l l l z x c v z x c c c v b b v v v b n n b v n n n n b b v v n C F G D S S S G G F F F D D D C V N N N M m n ",
"b n m m M m m n N N B V Z D G G S D D S A A A A S S S F G G F F H H J J G F S A Z F J J G F F F F F G H H F D S S A Z C C C B N ",
"Z Z A S S S S S A A A A A S S S S S S S A A A A S S D D D S D F J J J K J J H G S S S S S S S S D F H J J H F D G F S A Z C B M ",
"V C C C C C C Z D D S A A A S S A A A Z Z Z A A S S D F F F H K H G D D D D D F J G S A S D D D S D F F F F D S D S A Z Z V N M ",
"n m M M M N N B N B B B C S F G D D A C V B V V A C C A D F G J L K H G G G G G D A V V C Z Z Z S S D D D S S A S A A Z Z C B N ",
"m M B V C C Z A Z C B M M N B V B V V B V Z S D F Z C A D D S D A A A A A A Z C C B B V Z A S D D F G H H F D S Z C V B N m b c ",
"h v B C Z S D D D Z B B N N N N N N B N M M N V N B V Z A A Z Z C C Z Z C V V V N N V C V B B C A Z Z S D D A A V B N M m b l h ",
"f c V A A A A A S Z V V V B B V V V C V V V C Z D S S D D D S S A A A A Z C C Z Z C Z Z C V C A C C C Z A A Z V V B M N M n z g ",
"g v Z F F F F G F D D D D D D F Z Z Z C V V V C S A Z A S S S S S A A A Z C Z A A Z Z C V B V Z A S D S D D S Z A C B B N b k s ",
"j b V A A A D F D D D D D D D F A A A Z C C C Z S A A S F F G G F F F F D S D F J J H G F F G H K P P K K L K G F S Z C B n l g ",
"k z v v v b n n M m m M m m m m n n n b b n M N M m m N V V V V N B B B N M M B n m m n b b b n N V V N M B M n b v v c x k h f ",
"g h j k l z z z x z l l l k k k k j h h g h j j h g h k x x x x x z x x x z z x c v b v v v v v v b b v c c x z z z z z l k j j ",
"g g j l x c c v c x l l l k k k l l k j h h h g h h h l c v c c b v v b b b b b z c v c x x x x v v v v c x z z k k j j h g g f ",
"j j j l z c v n n v x x x z z l l l z z z z l l l k k l x x z l x z l z x x x x z c v x z x x z z l l l l j h j j h g h h h f d ",
"j x x l l l z b b b v v v b v c v c x l l l z z c c c z z c c k l x c c c v b b c b b v v b n b v z c x z x l k l k k j j h f d ",
"N V V V A F H P Y U P L P P L K J H H H L I P K I P L J H L P H J K L K J J J H K K J H H K K H n z x z l z l l k k j h g f d s ",
"A S S D J P U T W E R R W Q Q W W Q Q W E E E E W E R R R Q ! R E W Q Q ! ~ ! Q E R Y U Y T T U B c x x z x z c z l k j h g f d ",
"Z S D F K P L P I P L P U Y Y U T R R Y I I Y T K L I Y Y R E T W E E E E R T U Y U P L L P P P N z l l k l k x k k j h g d s a ",
"m V C A G J K L Y Y T W ~ / / / ^ ! R T R R T I P U R E R E Q W R T Y Y T T T Y R T Y Y U U U Y B x z z z z l x x x x z k h g f ",
"c n m N C S F J G G J I R E E W ~ Q E T Y U L G H J K J G G J K P L K P U Y T T T Y Y U I P P I N c c c c c z x j j j h f s a a ",
"p s s s g k l x c x c b b v v b v b n b c x x x v c v c z z c c v c x c v c c v n b v v c x z x v l z z l z k k k j h f d s s s ",
"u p p a f g g h l k z v b b n M m n b v v b v v z l z c x x c x c z z c v c c v m b v b n b v c v z x z l z l k j h g s a p a s "
};
