/* XPM */
static char *_e01c0e8b93d45eeb0a61b2f513b50e5xov7w7jXukojCI3t[] = {
/* columns rows colors chars-per-pixel */
"64 64 256 2 ",
"   c black",
".  c #010101",
"X  c #020202",
"o  c gray1",
"O  c #040404",
"+  c gray2",
"@  c #060606",
"#  c #070707",
"$  c gray3",
"%  c #090909",
"&  c gray4",
"*  c #0B0B0B",
"=  c #0C0C0C",
"-  c gray5",
";  c #0E0E0E",
":  c gray6",
">  c #101010",
",  c #111111",
"<  c gray7",
"1  c #131313",
"2  c gray8",
"3  c #151515",
"4  c #161616",
"5  c gray9",
"6  c #181818",
"7  c #191919",
"8  c gray10",
"9  c #1B1B1B",
"0  c gray11",
"q  c #1D1D1D",
"w  c #1E1E1E",
"e  c gray12",
"r  c #202020",
"t  c gray13",
"y  c #222222",
"u  c #232323",
"i  c gray14",
"p  c #252525",
"a  c gray15",
"s  c #272727",
"d  c #282828",
"f  c gray16",
"g  c #2A2A2A",
"h  c gray17",
"j  c #2C2C2C",
"k  c #2D2D2D",
"l  c gray18",
"z  c #2F2F2F",
"x  c gray19",
"c  c #313131",
"v  c #323232",
"b  c gray20",
"n  c #343434",
"m  c #353535",
"M  c gray21",
"N  c #373737",
"B  c gray22",
"V  c #393939",
"C  c #3A3A3A",
"Z  c gray23",
"A  c #3C3C3C",
"S  c gray24",
"D  c #3E3E3E",
"F  c #3F3F3F",
"G  c gray25",
"H  c #414141",
"J  c gray26",
"K  c #434343",
"L  c #444444",
"P  c gray27",
"I  c #464646",
"U  c gray28",
"Y  c #484848",
"T  c #494949",
"R  c gray29",
"E  c #4B4B4B",
"W  c #4C4C4C",
"Q  c gray30",
"!  c #4E4E4E",
"~  c gray31",
"^  c #505050",
"/  c #515151",
"(  c gray32",
")  c #535353",
"_  c gray33",
"`  c #555555",
"'  c #565656",
"]  c gray34",
"[  c #585858",
"{  c gray35",
"}  c #5A5A5A",
"|  c #5B5B5B",
" . c gray36",
".. c #5D5D5D",
"X. c gray37",
"o. c #5F5F5F",
"O. c #606060",
"+. c gray38",
"@. c #626262",
"#. c gray39",
"$. c #646464",
"%. c #656565",
"&. c gray40",
"*. c #676767",
"=. c #686868",
"-. c DimGray",
";. c #6A6A6A",
":. c gray42",
">. c #6C6C6C",
",. c #6D6D6D",
"<. c gray43",
"1. c #6F6F6F",
"2. c gray44",
"3. c #717171",
"4. c #727272",
"5. c gray45",
"6. c #747474",
"7. c gray46",
"8. c #767676",
"9. c #777777",
"0. c gray47",
"q. c #797979",
"w. c gray48",
"e. c #7B7B7B",
"r. c #7C7C7C",
"t. c gray49",
"y. c #7E7E7E",
"u. c gray50",
"i. c #808080",
"p. c #818181",
"a. c gray51",
"s. c #838383",
"d. c #848484",
"f. c gray52",
"g. c #868686",
"h. c gray53",
"j. c #888888",
"k. c #898989",
"l. c gray54",
"z. c #8B8B8B",
"x. c gray55",
"c. c #8D8D8D",
"v. c #8E8E8E",
"b. c gray56",
"n. c #909090",
"m. c gray57",
"M. c #929292",
"N. c #939393",
"B. c gray58",
"V. c #959595",
"C. c gray59",
"Z. c #979797",
"A. c #989898",
"S. c gray60",
"D. c #9A9A9A",
"F. c #9B9B9B",
"G. c gray61",
"H. c #9D9D9D",
"J. c gray62",
"K. c #9F9F9F",
"L. c #A0A0A0",
"P. c gray63",
"I. c #A2A2A2",
"U. c gray64",
"Y. c #A4A4A4",
"T. c #A5A5A5",
"R. c gray65",
"E. c #A7A7A7",
"W. c gray66",
"Q. c #A9A9A9",
"!. c #AAAAAA",
"~. c gray67",
"^. c #ACACAC",
"/. c gray68",
"(. c #AEAEAE",
"). c #AFAFAF",
"_. c gray69",
"`. c #B1B1B1",
"'. c #B2B2B2",
"]. c gray70",
"[. c #B4B4B4",
"{. c gray71",
"}. c #B6B6B6",
"|. c #B7B7B7",
" X c gray72",
".X c #B9B9B9",
"XX c gray73",
"oX c #BBBBBB",
"OX c #BCBCBC",
"+X c gray74",
"@X c gray",
"#X c gray75",
"$X c #C0C0C0",
"%X c #C1C1C1",
"&X c gray76",
"*X c #C3C3C3",
"=X c gray77",
"-X c #C5C5C5",
";X c #C6C6C6",
":X c gray78",
">X c #C8C8C8",
",X c gray79",
"<X c #CACACA",
"1X c #CBCBCB",
"2X c gray80",
"3X c #CDCDCD",
"4X c #CECECE",
"5X c gray81",
"6X c #D0D0D0",
"7X c gray82",
"8X c #D2D2D2",
"9X c LightGray",
"0X c gray83",
"qX c #D5D5D5",
"wX c gray84",
"eX c #D7D7D7",
"rX c #D8D8D8",
"tX c gray85",
"yX c #DADADA",
"uX c gray86",
"iX c gainsboro",
"pX c #DDDDDD",
"aX c gray87",
"sX c #DFDFDF",
"dX c gray88",
"fX c #E1E1E1",
"gX c #E2E2E2",
"hX c gray89",
"jX c #E4E4E4",
"kX c gray90",
"lX c #E6E6E6",
"zX c #E7E7E7",
"xX c gray91",
"cX c #E9E9E9",
"vX c #EAEAEA",
"bX c gray92",
"nX c #ECECEC",
"mX c gray93",
"MX c #EEEEEE",
"NX c #EFEFEF",
"BX c gray94",
"VX c #F1F1F1",
"CX c gray95",
"ZX c #F3F3F3",
"AX c #F4F4F4",
"SX c gray96",
"DX c #F6F6F6",
"FX c gray97",
"GX c #F8F8F8",
"HX c #F9F9F9",
"JX c gray98",
"KX c #FBFBFB",
"LX c gray99",
"PX c #FDFDFD",
"IX c #FEFEFE",
"UX c white",
/* pixels */
"e u s f d a i i i p p p i u t r r r r r r r r r q t 0 r q u q H B w s z g g i t y u i p i y r e r r r r r r r r e r r r e e t u ",
"8 w u a s a p p a s s s a p u y t t t t t t t t e u e y w y 8 S C q u f p g f f i p a s a i u t t t t t t t t t w e r r r t i a ",
"t p f j h f s a u u u u y t r e r r r r r r r r 8 e 0 r w u 0 F F t i d u s p p t y u u y t e w r r r r r r r r q w e e e r u p ",
"q r i a a u t r y y t t r e w w e e e e e e e e 0 e 9 w 0 u w K A t s k s d u r r t t t r e w q e e e e e e e e w w w w q w t i ",
"e y a f f d d d a p i u y y y t r r r r r r r r p a e e 0 u r I Z e a j s g a p i i i i u u y y r r r r r r r r w e e e e y a f ",
"t y u t e q 0 0 9 8 7 5 4 4 4 4 6 6 6 6 6 6 6 6 6 8 1 3 2 w q L S 0 0 0 3 7 7 8 8 7 7 6 6 5 5 5 6 6 6 6 6 6 6 6 1 2 3 3 5 9 t p ",
"% % # O         + O o .     . . o o o o o o o o       . . & # k j * % $   o o O + O o o X X X X o o o o o o o o . . . . X + & ; ",
"&.*.*.&.&.=.:.<.&.%.$.@.+.+.@.@.X.X.X.X.X.X.X.X.o.@...o.| X.] q.e.X.#.=.$.-.=.=.&.%.$.#.#.#.#.#.X.X.X.X.X.X.X.X.+.+.o... ...+.$.",
"...... . . . . .X. .` ....X.^ 2.X.' #.#.X.#.O.#.X.X.X.X.X... . ....... . . . . .o.{ } ]  . ._ $.%./ %.@.@.o.%.+.+.+.O.O.O.o.o.o.",
"m m m n n n n n v x h c x v d R N h M M b B n M N N N N N M m n m m m n n n n n b k x j x x j D S a B m M n V m V V V B B N N N ",
"s s s s s a a a p a y s p d t U v u f g f l g h h h h h g f d d s s s s s a a a a u s u p a p Z V w j f k g l f j j j h g g g f ",
"i i i u u u u y u p y s u s i ! V p d g g x g g f f f f d s a p i i i u u u u y i u d u u p s G F r h f l h l f f f d d s a a a ",
"y y y y t t t t q r 0 t q y t W B y i s d j a s d d d d s p i i y y y y t t t t w q u q w r u D F q s a h s g a d d s s a p i i ",
"p p p p i i i i r y w u e i i ! A i s h h l d h j j h h g d s a p p p p i i i i t r p r t u p F J e g g z f j f j j h g f d s s ",
"r r e e e e w w e r 9 r q u r T N r p g d f i f a a a p i y t r r r e e e e w w r w y q e t t V S 9 d f j p d s s s a p i y y t ",
"t t t t r r r r y y 0 t r p t T M r a j f f i g d d s a p i y t t t t t r r r r u r u e y u y B A 9 f h k i d f f f d s p i u u ",
"r r r r r r r r r 0 w e q a 9 Y A q f s h p s u p p a a p i y t r r r r r r r r r w w 8 t w 9 V H q s s h i a u u i p a p u t e ",
"e e e e e e e e q 7 9 q 9 p 9 Y B 7 s s h s g a u u i i u t r e e e e e e e e e e w w 9 u t w S S 8 p a j a f a u i p p i u r e ",
"e e e e e e e e t q e r q s q E A q g d j a d u i i i i u y r r e e e e e e e e e e r 0 u t e D G q d d j p a u i i p p i u t r ",
"w w w w w w w w y e t r 0 i 9 R Z 0 f s g p a t p p i i u y t t w w w w w w w w e e r 9 r w q S G q s s h u p y u u i u u t r e ",
"r r r r r r r r r q e e 9 i q Q Z 0 d s h s g a a p p i u y y y r r r r r r r r e r t q y t t K G 0 a a h p f s i i i u u y t r ",
"9 9 9 9 9 9 9 9 6 5 9 9 6 u w ~ S 0 p r y 0 e 9 w w 0 9 8 8 8 8 9 9 9 9 9 9 9 9 5 7 0 6 w w r K J 0 u r y 9 q 9 e w q q 0 9 9 8 ",
"                    o X   % O M f @ = @ +   o   + O X .       .                     X   X . O s l @ & + @   X   + O o X X . . . ",
"! ! ! ! ! ! ! ! ! W ! W P ! T e.1.Q ` / ` _ | } ` _ ) / ^ ^ / / ! ! ! ! ! ! ! ! ~ ^ / R W T E <.6.Q ) / ` ( { } _ ) ( / ^ ^ ^ ^ ",
"o.5.w.8.9.q.9.q.8.8.7.7.7.6.6.6.7.6.6.6.6.5.5.5.7.6.6.4.q.4.=.i.8.:.y.8.w.9.w.q.7.7.7.7.7.7.7.7.7.6.6.6.6.5.5.5.5.5.4.4.6.9.4.:.",
"8 k n c n M m N M M M m m m n n v v v v c c c c z k k h v k p D m s N x m v n b m m m m m m m m v v v v c c c c z z j g j l g i ",
"q l n c n m b M n n b b v v c c l l l l k k k k k h h d x k s J Z d m l m b n v b b b b v v v v l l l l k k k k k k g d f j h a ",
"6 a g s f s i s a a p i i u u y t r r r r e e e y r r q p i t D B t g i k h h d p p p i i u u u t r r r r e e e r t e q r p a u ",
"q f h f h f p d h g g f d s a a i i i i u u u u u t t w a p i K S u h a x j j g g g f f d s s s i i i i u u u u y u y r y s g d ",
"9 p s s j f a h g g f d s a p p y t t t t r r r e e e 9 y t t H C r d i k d d s g f f d s a a a y t t t t r r r y u y w e u p i ",
"w a s d k h d k f f d s a p i u t t r r r r e e r r t q u y t H V e g s l s s f f d d s a p i i t t r r r r e e t u u r e u i u ",
"e a a s h s u f d d s a p u y y y t t t t r r r r t y w u t r G N w g s k p a f d s s a p i u u y t t t t r r r 0 e t w e u p i ",
"9 t a s d f f a i p a a p u t r r r r r r r r r 0 u w e q a e D V 9 d a f p f a i p a a p u t r r r r r r r r r w r r q w u u r ",
"e p f f d f s u p a s s a i y t r r r r r r r r q u w e q a e G S w g d h p d i p a s s a i y t r r r r r r r r w r r q w u u t ",
"q u s s a a u r y u i i u t e w r r r r r r r r 0 y w e q p e H Z 9 d a f u a t y u i i u t e w r r r r r r r r w e e q w t u y ",
"0 u s d d d s i i i p i i y t r r r r r r r r r w u w t w p r L Z 9 s s h s g p i i p i i y t r r r r r r r r r e r r e e t i p ",
"q u a a p a p u u u u y y t r e 0 0 0 0 0 0 0 0 8 w 8 w 8 r 0 K S 0 a p g a d u u u u y y t r e 0 0 0 0 0 0 0 0 0 0 0 0 9 0 r i ",
"u s d p u i u t i u u y t r r r r r r r r r r r w t q t q y e T P t d i d i a r i u u y t r r r r r r r r r r r e w e e w w u g ",
"* - - $ @ # $ # % $ # @ + + + + @ @ @ @ @ @ @ @ + # O % O $ @ v z % - # * $ & O % $ # @ + + + + @ @ @ @ @ @ @ @ @ + @ # @ + & 1 ",
"b m n x z v m n v v c z z l l l j j j j j j j j g k f l f k j [ [ v m x n v M c v v c z z l l l j j j j j j j j j g h k h g x V ",
"f.f.f.d.d.d.d.d.d.j.p.a.p.h.0.m.f.e.g.h.d.k.s.s.s.s.s.s.s.s.s.s.g.g.g.f.f.f.f.f.a.a.h.p.d.g.i.v.z.9.z.h.g.a.j.d.d.s.s.s.s.a.a.a.",
"B B B B B N N N m V b n v B j Y Z z C Z C F Z A C C C C C C C C V V V B B B B N n b N x v b l S G f Z V Z B D C Z Z Z C C V V V ",
"x x x x z z z z h x j k f z d T V h b m b B n M m m n n n n b b x x z z z z l l z j z f h k g A G p b c m b B b m m m n n b b b ",
"u u u y y y y y e i t y w i t I m u f f s g p s s s s a a a p p y y y t t t t t y e y w t p p Z D w f s h d g p d d s s a p p i ",
"p p p p i i i i t a u p r a p ! C a g j g j s g g g f f d s s s i i i i u u u u y w y w t i a F L t h f l g j s h g g f d s a a ",
"u u u y y y y y e t w y w u t E N t a h g j s h g g f d s s a a u u y y y y t t u w t q e e t A D 9 a s j s g d h g f d s a p p ",
"u u y y y y t t r t 0 t e u r T B t a j k l s h h g g f d s a a u u u u y y y y p r i t y t u F S 9 d g k s g g h h g f d a a p ",
"r r r r e e e e t r 8 t e u e U V y a j j h u s d s a p i u u y t t t t r r r r e 8 e w r e y F F w h j l i d d d d s a i u y y ",
"t t t t t t t t u t y w 0 f e Y Z w h f g p g d f f d d a p u y t t t t t t t t e t y 9 u i y A F w g g j p f f f f d d a p u y ",
"w w w w w w w w e q w 0 7 p 0 I M 7 s p a t p u i i u u t r w w w w w w w w w w 0 w e 7 r t e C Z 7 p p d t p i i i u u t r w w ",
"y y y y y y y y t r y t w f e R Z q g f h a f a s s s a p i y y y y y y y y y y t y u q i i u G F q f g k a f s s s s a p i y y ",
"q q q q q q q q 9 8 q q 7 u 8 U V 8 a p d u a t u u u y t r e w q q q q q q q q 0 q w 7 e w w D S 8 p a g u p y u u u y t r e w ",
"e e e e e e e e w 0 e t q p q Q F w f a f p s u i i i i u y t r e e e e e e e e e e r 0 y r t K K w s s h p s i i i i i u y t r ",
"e e e e e e e e e 0 e t q p w / H w a y p t i r t t t t r r e w e e e e e e e e e w r q y w r P P w p u s t i t t t t t r r e w ",
": : : : : : : : < - > < - 3 , I m , 4 , 2 , 2 > > , , , , > : ; : : : : : : : : > ; > ; < ; , N C , 3 < 4 > 2 , > , , , , > : ; ",
", , , , , , , , 3 > < 2 : 5 2 E A 4 8 1 4 1 5 1 2 2 2 2 2 1 < < , , , , , , , , < > < > 2 > 1 C G 4 7 2 6 1 5 2 2 2 2 2 2 1 < < ",
"#.3.q.6.2.4.6.4.6.6.4.3.3.4.5.6.0.0.0.9.9.9.9.9.8.6.8.2.7.9.<.q.8.:.7.8.5.0.5.5.5.5.5.5.5.5.5.5.q.q.0.0.0.0.9.9.0.8.4.1.3.6.4.>.",
"k Z I L J P U L L K J H H J K K G G G G G F F F D A F V S F V U L B J L J Y L P K K K K J J J J H H H H G G G G H G S Z A S V v ",
"8 d n m b m M b N N M m m m M M b v v v v c c c z z b k z c z J N f c v x M v n N N M M M M m m b b b b v v v v c v c x c v k s ",
"q s x x l l l j a a p p i i i i y y y y t t t t e w u w w r y Z C d k k g l g j a a p p i i i i u u u y y y y t w e e e t p u e ",
"w i f d a a s a k k k j h h g g a a p p p p p i i y s u u i d K N u a s p d u a k k j j h h g g s a a a a p p p u i u t u d g f ",
"y a f g f g j k s s s s a p u u e e e e e w w w e 0 r q w e y D V u s h g k d j d s s a p i i u r r r r e e e e r t e 8 9 e u y ",
"w t a f f d f g f f f f d s p i u u u u u y y y a r u t i u p G M e u f f h p f g g f d s a a p i i i i u u u u y i u r e u a a ",
"e y d j j f d d s s d s a p u y r r r e e e e e i 0 e w t r t Z C y a h h h u s d d s a p i u u t t r r r r e e 8 q e q w y i u "
};
