/* XPM */
static char *result[] = {
/* columns rows colors chars-per-pixel */
"64 64 97 2 ",
"   c gray57",
".  c gray55",
"X  c #818181",
"o  c #7B7B7B",
"O  c gray48",
"+  c #7C7C7C",
"@  c gray49",
"#  c #7E7E7E",
"$  c gray50",
"%  c #807F7F",
"&  c #808080",
"*  c #828181",
"=  c gray51",
"-  c #848383",
";  c #898888",
":  c #8E8E8E",
">  c #8B8B8B",
",  c #6F6F6F",
"<  c gray39",
"1  c #626262",
"2  c #646464",
"3  c #656565",
"4  c gray40",
"5  c #656666",
"6  c #676767",
"7  c #686767",
"8  c #686868",
"9  c #676666",
"0  c #6A6969",
"q  c gray53",
"w  c #8D8D8D",
"e  c gray43",
"r  c #4B4B4B",
"t  c gray21",
"y  c #343434",
"u  c gray20",
"i  c #353535",
"p  c #363535",
"a  c #3F3E3E",
"s  c #565656",
"d  c #797979",
"f  c gray11",
"g  c #191919",
"h  c #181818",
"j  c gray9",
"k  c gray8",
"l  c #202020",
"z  c #3F3F3F",
"x  c gray44",
"c  c gray54",
"v  c #161616",
"b  c #131313",
"n  c gray6",
"m  c #101010",
"M  c #393939",
"N  c #898989",
"B  c #323232",
"V  c #151515",
"C  c #111111",
"Z  c gray5",
"A  c #373737",
"S  c #6D6D6D",
"D  c gray7",
"F  c #0E0E0E",
"G  c #0B0B0B",
"H  c #0C0C0C",
"J  c gray4",
"K  c #888888",
"L  c #6C6C6C",
"P  c #7F7E7E",
"I  c #666565",
"U  c #606060",
"Y  c gray47",
"T  c gray38",
"R  c #090909",
"E  c gray19",
"W  c #070707",
"Q  c #0A090A",
"!  c #0D0C0D",
"~  c #171617",
"^  c #3A393A",
"/  c gray52",
"(  c #3C3C3C",
")  c #1E1E1E",
"_  c #222122",
"`  c #424142",
"'  c gray45",
"]  c #363536",
"[  c #353435",
"{  c #393839",
"}  c #595859",
"|  c gray58",
" . c gray42",
".. c #727272",
"X. c #989898",
"o. c gray59",
"O. c white",
/* pixels */
"  . X o O O O O o o + @ # # $ $ % % $ $ # # # # $ & & & & & $ # @ @ # # $ $ & & X X & & $ $ $ $ $ $ $ $ & & * * = = * - ; . : : ",
"> = , < 1 1 1 1 1 < 2 2 3 3 4 4 4 4 4 5 3 3 3 3 4 6 4 4 4 4 4 3 3 2 3 3 4 4 4 6 6 6 6 4 4 4 4 4 4 4 4 4 4 6 7 7 8 7 9 0 , O q w ",
"& e r t y u y y y y i i i i i i i i i i i i i i i i i i i i i i i i i i i i i i t t i i i i i i i i i i i p t t t i u t a s d > ",
"O < t f g h g g g g g g g g g g g g g g g g g g g g g g g g g g g g g g g g g g g g g g g g g g g g g g g g g g g j k j l z x c ",
"o 1 u h v v v j v v v v v v v v v v v v v v v v v v v v v v v v v v v v v v v v v v v v v v v v v v v v v v v v v b n m h M e N ",
"@ < B j V V V k k k k k k k k k k k k k k k k k k k k k k k k k k k k k k k k k k k k k k k k k k k k k k k k k k C Z Z V A S N ",
"# 3 u j v V D C C C C C C C C C C C C C C C C C C C C C C C C C C C C C C C C C C C C C C C C C C C C C C C C C C F G H V A S N ",
"$ 3 y h v k C m m m m m m m m m m m m m m m m m m m m m m m m m m m m m m m m m m m m m m m m m m m m m m m m m n Z J H V A S N ",
"# 3 u h v k C m n n n n n n n n n n n n n n n n n n n n n n n n n n n n n n n n n n n n n n n n n n n n n n n n n Z J H V A S K ",
"@ 2 u h v k C m n n n n n n n n n n n n n n n n n n n n n n n n n n n n n n n n n n n n n n n n n n n n n n n n n Z J H V A L K ",
"+ < u h v k C m n n n n n n n n n n n n n n n n n n n n n n n n n n n n n n n n n n n n n n n n n n n n n n n n n Z J H V A S K ",
"+ < u h v k C m n n n n n n n n n n n n n n n n n n n n n n n n n n n n n n n n n n n n n n n n n n n n n n n n n Z J H V A S K ",
"@ 2 u h v k C m n n n n n n n n n n n n n n n n n n n n n n n n n n n n n n n n n n n n n n n n n n n n n n n n n Z J H V A S K ",
"P 3 u h v k C m n n n n n n n n n n n n n n n n n n n n n n n n n n n n n n n n n n n n n n n n n n n n n n n n n Z J H V A S K ",
"% I y h v k C m n n n n n n n n n n n n n n n n n n n n n n n n n n n n n n n n n n n n n n n n n n n n n n n n n Z J H V A S K ",
"% I y h v k C m n n n n n n n n n n n n n n n n n n n n n n n n n n n n n n n n n n n n n n n n n n n n n n n n n Z J H V A S K ",
"& 4 y h v k C m n n n n n n n n n n n n n n n n n n n n n n n n n n n n n n n n n n n n n n n n n n n n n n n n n Z J H V A S K ",
"& 4 y h v k C m n n n n n n n n n n n n n n n n n n n n n n n n n n n n n n n n n n n n n n n n n n n n n n n n n Z J H V A S K ",
"& 4 y h v k C m n n n n n n n n n n n n n n n n n n n n n n n n n n n n n n n n n n n n n n n n n n n n n n n n n Z J H V A S K ",
"& 4 y h v k C m n n n n n n n n n n n n n n n n n n n n n n n n n n n n n n n n n n n n n n n n n n n n n n n n n Z J H V A S K ",
"% I y h v k C m n n n n n n n n n n n n n n n n n n n n n n n n n n n n n n n n n n n n n n n n n n n n n n n n n Z J H V A S K ",
"% I y h v k C m n n n n n n n n n n n n n n n n n n n n n n n n n n n n n n n n n n n n n n n n n n n n n n n n n Z J H V A S K ",
"% I y h v k C m n n n n n n n n n n n n n n n n n n n n n n n n n n n n n n n n n n n n n n n n n n n n n n n n n Z J H V A S K ",
"% I y h v k C m n n n n n n n n n n n n n n n n n n n n n n n n n n n n n n n n n n n n n n n n n n n n n n n n n Z J H V A S K ",
"$ 3 y h v k C m n n n n n n n n n n n n n n n n n n n n n n n n n n n n n n n n n n n n n n n n n n n n n n n n n Z J H V A S K ",
"$ 3 y h v k C m n n n n n n n n n n n n n n n n n n n n n n n n n n n n n n n n n n n n n n n n n n n n n n n n n Z J H V A S K ",
"% I y h v k C m n n n n n n n n n n n n n n n n n n n n n n n n n n n n n n n n n n n n n n n n n n n n n n n n n Z J H V A S K ",
"% I y h v k C m n n n n n n n n n n n n n n n n n n n n n n n n n n n n n n n n n n n n n n n n n n n n n n n n n Z J H V A S K ",
"& 4 y h v k C m n n n n n n n n n n n n n n n n n n n n n n n n n n n n n n n n n n n n n n n n n n n n n n n n n Z J H V A S K ",
"& 4 y h v k C m n n n n n n n n n n n n n n n n n n n n n n n n n n n n n n n n n n n n n n n n n n n n n n n n n Z J H V A S K ",
"X 6 y h v k C m n n n n n n n n n n n n n n n n n n n n n n n n n n n n n n n n n n n n n n n n n n n n n n n n n Z J H V A S K ",
"X 6 y h v k C m n n n n n n n n n n n n n n n n n n n n n n n n n n n n n n n n n n n n n n n n n n n n n n n n n Z J H V A S K ",
"X 6 y h v k C m n n n n n n n n n n n n n n n n n n n n n n n n n n n n n n n n n n n n n n n n n n n n n n n n n Z J H V A S K ",
"X 6 y h v k C m n n n n n n n n n n n n n n n n n n n n n n n n n n n n n n n n n n n n n n n n n n n n n n n n n Z J H V A S K ",
"X 6 y h v k C m n n n n n n n n n n n n n n n n n n n n n n n n n n n n n n n n n n n n n n n n n n n n n n n n n Z J H V A S K ",
"X 6 y h v k C m n n n n n n n n n n n n n n n n n n n n n n n n n n n n n n n n n n n n n n n n n n n n n n n n n Z J H V A S K ",
"X 6 y h v k C m n n n n n n n n n n n n n n n n n n n n n n n n n n n n n n n n n n n n n n n n n n n n n n n n n Z J H V A S K ",
"X 6 y h v k C m n n n n n n n n n n n n n n n n n n n n n n n n n n n n n n n n n n n n n n n n n n n n n n n n n Z J H V A S K ",
"X 6 y h v k C m n n n n n n n n n n n n n n n n n n n n n n n n n n n n n n n n n n n n n n n n n n n n n n n n n Z J H V A S K ",
"X 6 y h v k C m n n n n n n n n n n n n n n n n n n n n n n n n n n n n n n n n n n n n n n n n n n n n n n n n n Z J H V A S K ",
"X 6 y h v k C m n n n n n n n n n n n n n n n n n n n n n n n n n n n n n n n n n n n n n n n n n n n n n n n n n Z J H V A S K ",
"& 4 y h v k C m n n n n n n n n n n n n n n n n n n n n n n n n n n n n n n n n n n n n n n n n n n n n n n n n n Z J H V A S K ",
"$ 3 y h v k C m n n n n n n n n n n n n n n n n n n n n n n n n n n n n n n n n n n n n n n n n n n n n n n n n n Z J H V A S K ",
"@ 2 u h v k C m n n n n n n n n n n n n n n n n n n n n n n n n n n n n n n n n n n n n n n n n n n n n n n n n n Z J H V A S K ",
"+ < u h v k C m n n n n n n n n n n n n n n n n n n n n n n n n n n n n n n n n n n n n n n n n n n n n n n n n n Z J H V A L K ",
"+ < u h v k C m n n n n n n n n n n n n n n n n n n n n n n n n n n n n n n n n n n n n n n n n n n n n n n n n n Z J H V A S K ",
"o 1 u h v k C m n n n n n n n n n n n n n n n n n n n n n n n n n n n n n n n n n n n n n n n n n n n n n n n n n Z J H V A S N ",
"O 1 B h v k C m n n n n n n n n n n n n n n n n n n n n n n n n n n n n n n n n n n n n n n n n n n n n n n n n n Z J H V A S c ",
"d U B h v k C m n n n n n n n n n n n n n n n n n n n n n n n n n n n n n n n n n n n n n n n n n n n n n n n n n Z J H V A e c ",
"Y U B h v k C m n n n n n n n n n n n n n n n n n n n n n n n n n n n n n n n n n n n n n n n n n n n n n n n n n Z J H V A e c ",
"Y U B h v k C m n n n n n n n n n n n n n n n n n n n n n n n n n n n n n n n n n n n n n n n n n n n n n n n n n Z J H V A e c ",
"Y U B h v k C m n n n n n n n n n n n n n n n n n n n n n n n n n n n n n n n n n n n n n n n n n n n n n n n n n Z J H V A e c ",
"Y U B h v k C m n n n n n n n n n n n n n n n n n n n n n n n n n n n n n n n n n n n n n n n n n n n n n n n n n Z J H V A e c ",
"Y U B h v k C m n n n n n n n n n n n n n n n n n n n n n n n n n n n n n n n n n n n n n n n n n n n n n n n n n Z J H V A e c ",
"d T B h v k C m n n n n n n n n n n n n n n n n n n n n n n n n n n n n n n n n n n n n n n n n n n n n n n n n n Z J H V A e c ",
"O 1 u h v k C m n n n n n n n n n n n n n n n n n n n n n n n n n n n n n n n n n n n n n n n n n n n n n n n n n Z J H V A e c ",
"o < u h v k C n n n n n n n n n n n n n n n n n n n n n n n n n n n n n n n n n n n n n n n n n n n n n n n n n n Z J H V A e c ",
"+ < B v b C F Z Z Z Z Z Z Z Z Z Z Z Z Z Z Z Z Z Z Z Z Z Z Z Z Z Z Z Z Z Z Z Z Z Z Z Z Z Z Z Z Z Z Z Z Z Z Z Z Z Z H R G k A e c ",
"@ < E b n Z G J J J J J J J J J J J J J J J J J J J J J J J J J J J J J J J J J J J J J J J J J J J J J J J J J J R W Q b t S N ",
"$ 3 u V n Z H H H H H H H H H H H H H H H H H H H H H H H H H H H H H H H H H H H H H H H H H H H H H H H H H H H G R ! ~ ^ , c ",
"/ L ( ) j k k k k k k k k k k k k k k k k k k k k k k k k k k k k k k k k k k k k k k k k k k k k k k k k k k k k b D ~ _ ` ' . ",
". O s z M t t t t t t t t t t t t t t t t t t t t t t t t t t t t t t t t t t t t t t t t t t t t t t t t t t t t ] [ { ` } O > ",
"| . @ ' , S S S S S S S S S S S L L L L L L L L L L L L L L L L L L L L L L L L L L L L L L L L L L L L L L L L L L  .S ..d = q ",
"X.o.  w > N N N N N N N N N N N N K K K K K K K K K K K K K K K K K K K K K K K K K K K K K K K K K K K K K K K K K q K > c q / "
};
