/* XPM */
static char *miku_41677691821[] = {
/* columns rows colors chars-per-pixel */
"64 64 252 2 ",
"   c #180C15",
".  c #1C191E",
"X  c #19151A",
"o  c #0B0D0F",
"O  c #291B1C",
"+  c #381C18",
"@  c #2A0B15",
"#  c #2A2219",
"$  c #36251D",
"%  c #353011",
"&  c #1B1D22",
"*  c #141C21",
"=  c #0D1B26",
"-  c #261E22",
";  c #361F23",
":  c #062729",
">  c #18272A",
",  c #1D2733",
"<  c #0D3D3B",
"1  c #083837",
"2  c #163938",
"3  c #0E312E",
"4  c #2C2C2C",
"5  c #282527",
"6  c #382825",
"7  c #38322A",
"8  c #292C36",
"9  c #342C34",
"0  c #293738",
"q  c #353535",
"w  c #3C3C3C",
"e  c #373738",
"r  c #1D211A",
"t  c #492B1B",
"y  c #522917",
"u  c #542A19",
"i  c #741725",
"p  c #472925",
"a  c #443329",
"s  c #4C342C",
"d  c #443C3C",
"f  c #493933",
"g  c #593A36",
"h  c #573529",
"j  c #6D322E",
"k  c #471B24",
"l  c #0E413E",
"z  c #01403D",
"x  c #16423D",
"c  c #27413C",
"v  c #3D423E",
"b  c #35443A",
"n  c #42413E",
"m  c #4B433D",
"M  c #594436",
"N  c #554B29",
"B  c #764729",
"V  c #674839",
"C  c #744D36",
"Z  c #546B38",
"A  c #1C3646",
"S  c #293549",
"D  c #363642",
"F  c #3E3E41",
"G  c #353B4C",
"H  c #283752",
"J  c #31354F",
"K  c #413E41",
"L  c #7C3640",
"P  c #0E4541",
"I  c #0B4945",
"U  c #114A45",
"Y  c #174846",
"T  c #08534C",
"R  c #16534C",
"E  c #145B54",
"W  c #175955",
"Q  c #0C5754",
"!  c #294846",
"~  c #3D4242",
"^  c #374A48",
"/  c #25524B",
"(  c #375856",
")  c #304C53",
"_  c #15645B",
"`  c #18665B",
"'  c #076259",
"]  c #26655D",
"[  c #38645A",
"{  c #384A6B",
"}  c #186D62",
"|  c #176A61",
" . c #1A7266",
".. c #1A7569",
"X. c #1A786A",
"o. c #0E7468",
"O. c #296A66",
"+. c #227767",
"@. c #337569",
"#. c #367574",
"$. c #434343",
"%. c #4A4343",
"&. c #4C4C4C",
"*. c #464848",
"=. c #544C4B",
"-. c #4D504E",
";. c #51514B",
":. c #4C4D52",
">. c #544E52",
",. c #4A5455",
"<. c #535454",
"1. c #5B5B5B",
"2. c #57575A",
"3. c #7A5446",
"4. c #685552",
"5. c #4D6654",
"6. c #6D6752",
"7. c #485767",
"8. c #565966",
"9. c #525878",
"0. c #494E6A",
"q. c #577367",
"w. c #526D6F",
"e. c #636363",
"r. c #696969",
"t. c #707172",
"y. c #615F60",
"u. c #921F2C",
"i. c #8B292D",
"p. c #B42430",
"a. c #894D38",
"s. c #A15B39",
"d. c #875B49",
"f. c #90564D",
"g. c #966549",
"h. c #986753",
"j. c #8A6951",
"k. c #A87459",
"l. c #AE6E50",
"z. c #937563",
"x. c #A67C67",
"c. c #B57F61",
"v. c #B87D66",
"b. c #AA5C43",
"n. c #CB7456",
"m. c #E27D5F",
"M. c #1D8777",
"N. c #0E8C7A",
"B. c #238A77",
"V. c #238D7A",
"C. c #248473",
"Z. c #358578",
"A. c #24927D",
"S. c #2F816E",
"D. c #528B61",
"F. c #B3913A",
"G. c #C59C3D",
"H. c #B4825C",
"J. c #B9855C",
"K. c #B2934C",
"L. c #B68162",
"P. c #B98666",
"I. c #AE8B73",
"U. c #998772",
"Y. c #C79A4B",
"T. c #CA926B",
"R. c #D9957A",
"E. c #CC8C70",
"W. c #E3967B",
"Q. c #ECC067",
"!. c #37588F",
"~. c #4E5784",
"^. c #59678A",
"/. c #646887",
"(. c #687494",
"). c #747588",
"_. c #5F74A5",
"`. c #EB7990",
"'. c #279A84",
"]. c #289B84",
"[. c #269781",
"{. c #3A9689",
"}. c #16AB91",
"|. c #2BA48B",
" X c #2BA98E",
".X c #26A68C",
"XX c #2EAD91",
"oX c #2FB194",
"OX c #31B396",
"+X c #34BB9B",
"@X c #37B999",
"#X c #37AC91",
"$X c #25AF9D",
"%X c #498D87",
"&X c #728E89",
"*X c #4AAC93",
"=X c #6CB195",
"-X c #5EA0AB",
";X c #3BC19E",
":X c #28C09C",
">X c #3DC8A4",
",X c #3CD1A9",
"<X c #3EDAB0",
"1X c #3FE0B2",
"2X c #43CDA7",
"3X c #44D3AC",
"4X c #48D8AF",
"5X c #4BDDB2",
"6X c #46DEB4",
"7X c #45CAB9",
"8X c #4DE2B6",
"9X c #4DE5B8",
"0X c #52EABC",
"qX c #50E6B8",
"wX c #54F0BF",
"eX c #5CCCAB",
"rX c #44B8C2",
"tX c #56F4C3",
"yX c #32BDC4",
"uX c #8C8D8F",
"iX c #B3968C",
"pX c #90A7B0",
"aX c #A7ABAD",
"sX c #ABAFB4",
"dX c #ACB4B5",
"fX c #B7B6BB",
"gX c #A09EA0",
"hX c #D19A83",
"jX c #D6A991",
"kX c #EEAF97",
"lX c #C8BBBC",
"zX c #E8BCA6",
"xX c #F8BDA7",
"cX c #E39C81",
"vX c #FACAB4",
"bX c #F1C8B3",
"nX c #C5C6BF",
"mX c #B6B5C1",
"MX c #ADBBCD",
"NX c #C3B8C7",
"BX c #B7C3D8",
"VX c #B8C9CA",
"CX c #CAC8D7",
"ZX c #F9D9C5",
"AX c #FDE6D3",
"SX c #FFEDDA",
"DX c #FFE9D8",
"FX c #FFF1DE",
"GX c #FEE2CD",
"HX c #FFF6E3",
"JX c #F4F3F5",
"KX c #DAE8E9",
/* pixels */
"$.$.d ~ $.n $.$.*.K w $.*.$.d $.*.*.$.*.$.*.$.& 8 <.2.<.2.<.<.&.$.-.>.-.<.<.<.-.<.*.F n $.$.*.$.$.*.*.*.*.K w w *.%.&.*.w w F n ",
"w w $.w w w w w w w w w w w w w w w d ~ d w k p.= 0 1.&.-.1.<.*.w $.&.<.1.1.y.<.&.q & 8 w w w v d $.d w w $.&.<.,.&.&.=.$.e w w ",
"w w e e q w q q q w w w w w w w v n $.~ e p p.: R .. . .E < P P l < < l < ! &.&.$.4 p p 4 w $.$.F w w K K w :.e 5 %.q e q 7 5 4 ",
"w $.$.$.$.$.F $.$.$.$.$.$.$.*.*.*.*.~ 3 - s T X. ...` 1 _ +XXX[..._ l l l l l 0 v 8 u.i 8 v $.v w w w w q e F g f.@ K 5 4 8 4 5 ",
"$.*.$.$.*.$.$.n $.*.$.$.*.*.K *.*.~ 1 & T M.OXOXXXoXoX|. ...} C.oXoXOX].Q l l l ! 2 u.i S / _ X.) v w w q w - L `.k &.7 4 7 4 4 ",
"w w ~ $.d w w v d w $.w w d $.K v q > _ ;XoXXX X+X3X@XqX8X4X[.} } B.OXOXOX].E 1 I : u.i I ].5X2XB.! w w q w 4.@ p K $.e e 8 q 8 ",
"$.d w w w w w w e e w e q w q e q , M.>X4X XXX;X4XOX9X5X5X5X2XoXoXoX;X9X2XOX].R < : u.i  .<X5X5X3X! &.*.<.1.y.&.*.F q e q q e q ",
"w w w q e w e e q w w q e w w w ^ M.;X4X|.|.@XqX2X@X8X5X5X>X@XqXqX,X|.;X8XqX,X[.T : u.i ` .X>X5X0X+.0 *.<.&.<.q 8 9 q q q 0 7 4 ",
"q e w q e e q e q e e q w w w e M.;X5X|.[.B.0X2XOXqX5X5X>X].+X5X5X5XqX>X;X5XqX4XX.: i.i : R M.>X0X].( e.r.&.w w e e w e e 7 q q ",
"w q e w e w n w w w v w n $.~ T >X8X2X]. .>X8X>XXXqX5XqX@X.. X@X5X4X5X8X;X;X8X0XOXT 4 p.i I | [.3X,Xq.2.$.d w w w w w q q q e e ",
"q q q q e w w e w e q w e v e A.0X3X|.|.X.0X3XB.C.8X5X8X@X` O.S..X@X5X5X5X8X5X5X,XC.: i.i : E M.2XtX5.:.$.*.&.*.n w w e e e w q ",
"$.*.$.*.;.&.&.&.&.&.&.&.-.:.R +X8X4X|.A.B.0X;X_ @.OXqXqX+X,.m.U.M. X@X5X5X5X5X5X0XXXT 4 6 3 E | OXtXO.^ <.<.1.<.n w w q e q q 8 ",
"1.1.<.1.1.2.<.<.<.<.1.<.2.,.M.OX8X2X]. .>X3XM.6.g.N.8X8XOXq.R.cXI.C..X:X5X5X5X5XqXXXT : t t U } V.8X+.,.e.2.<.-.w w w e q q q q ",
"<.1.1.<.>.-.<.&.-.<.<.<.,.U +XOX4X X|.C.wX>X/ b.g.+.OX0XoXw.cXT.I.6.o..X;X5X5X5X5X3X .* t 6 , W [.6X].( -.<.1.<.$.~ ~ F w e e q ",
"&.&.<.<.&.&.<.<.&.1.1.<.<.U OX X4X X|...0X@X1 b l.h.N.wX+Xw.R.1.1 b ^ @..X;X4X5X8X2XX.: ; ; e ( A.,X4X( <.2.1.<.&.*.$.$.v $.n w ",
"<.>.&.&.>.<.<.<.<.1.1.<.<.U XX..8XXXA.U 8XB.q.b.5.I.S.9X+XD.L.) uXkXW.6.N.XX;XqX8X>XA.x X 9 ( ] ]. X9XO.~ &.&.$.w q q q 7 q q q ",
"<.&.&.&.&.*.*.>.$.6 6 7 7 U OX` 4XXXA.R 6X( m.R.hXE.z.}.1X=XkXvXxXzXkXU.C..X+X4XqX>XA.2 X # b / B.|.8X .0 7 7 %.*.w e e e q e e ",
"d n $.$.d $.4.$ d.l.g.g.g.P A.l oXOXA.R ,X@.R.T.E.R.I.S.:X=XxXzXzXzXzXxXz.N.XX>XqX>XA.x . r j.q._ A.5X|.h.c.v.j.a K e e q e q 7 ",
"*.&.*.&.&.v t E.v.f.f.g.d.l ` U oXXX[.U A.! a.b.R.hXE.z.}.=XxXzXhXf.U.I.6.C..X>X5X2XM.3 X . 3.m E [.4X,X5.g.k.R.cXV m w w w ~ w ",
"*.&.*.*.:.7 x.P.=.; 5 - # x _ U +XoX].1 / q = t b.T.R.I...*XxXcXg = o o s 4.M.XX>X2X_ > . . 8 , E A.2X,XE 0 # d.R.I.$ &.v w w w ",
"w w w e =.g x.V ; 7.(.(.&XJ l l |.OX].: K VXl w.u l.R.cXiX&XkXf.0 ( w.z 3 1 M.|.,X|.P > & X S A E [. X8X+.) 9.8 d.T.3.&.e w w w ",
"q q q q d y c.+ S (.&X/.S ;.c x X.XXV.3 4.KX( KX> E.jXbXxXxXR.iX-X&XdXI / f O.V. XB.2 + ; & - 2 E ]. X5XA.9 9.{ t T.B e w v w K ",
"$.w v $.&.y J.t J _.G K ).lXQ.5.} XXE 3 j.KX1 w.[ zXbXbXbXbXzXZXdXx w.T ^ s.6.N.M.| 2 p.i.C h.F R ].XX4X|.m q G h T.B d v K v w ",
"w w w w $.t c.t G ~., sXJXNXG.G.P ].E 2 h.nX1 : w.GXHXDXDXDXZXDXVX1 1 _ j.n.4.'  .U 6 i.k C g J #.A. X3X6XW q ! f T.B d d K w w ",
"*.*.*.d &.y c.p G ^ 8.KXBXfXG.F.P } | c n.hX*Xq.uXFXAXAXAXAXAXFXJXaXq.gXbXT.M T M.x + > 5 d.- pX%X]. X3XtX+.! H f T.B d *.$.$.$.",
">.&.<.-.,.y c.a > G fXCXBXlXY.F.U X._ c n.ZXHXHXHXAXAXAXAXAXAXAXGXFXHXFXGXR.M T ..b 5 S 6 C 8 pX@.[.XX;X5X|.w G f T.B d %.$.$.v ",
">.&.&.<.&.y c.a , D mXCXBXNXY.F.l ` _ 2 b.bXFXGXAXSXSXAXAXDXFXDXAXAXAXFXvXk.b ' R h.7 S t a.X w.!.A.oX|.2X6Xc S s T.B d $.w d v ",
"&.<.&.-.&.u c.a , D fXCXBXfXY.G.< l X.Y a H.GXSXSXAXvXFXHXDXzXzXSXAXFXSXE.$ 1 U ~ c.e H 6 g.6 > @..XOX X2XtX .H f T.B d w $.w w ",
"-.<.&.&.&.y H.a , D mXCXMXNXY.6.l l _  .x 1.K.zXAXSXbXjXjXjXhXjXJXFXvXI.s & 2 1 f J.q H $ g.d.$ R A.+X X2X0X|.) g T.B d v w w w ",
"*.$.$.$.*.y L.a , 9 MXNXBXNXK.< < < l Q / rXN a.I.bXbXR.E.E.vXGXxXhX3.- J ) A , M J.e S 5 g.a.d.^ A.oX X3X8X8XY s T.B m &.&.*.&.",
"q w q q *.y L.a , D mXCXBXfXK.P R < l < W rXD.Z N B t.iXx.x.x.z.h.p o o 4.4.0 2 h J.e S 6 a.f.V > B.OX X;X4XwX..d T.B %.<.<.&.<.",
"w w w w *.y L.a , D mXCXBXNXY.U  .1 < < e t.D.Z Z 2 ! q h a g e W Q S j v.kXk.d M J.e H $ g.N r x B.OXXX|.2XqXC.d T.B %.1.<.1.<.",
"*.n $.$.&.y c.a , D fXCXBXfX6.l } 1 l N a.j b.t 0 ) / I 7.t.:.Y O.t.j.kXGXJXvXM g H.7 H 6 d.o 7.[ [.oXXXXX2X0X|.c P.B m <.2.<.&.",
"*.*.$.*.*.y L.a , D mXCXVXaXz _ ` l 3 i.b.h C 0 ! Y _ M.P ) | #.L.E.kXHXSXvXI.c f J.q S 7 3., &X) .. XXX|.3X8X5XQ H.B %.<.1.<.&.",
"q w v w *.y L.a , D mXCXMXNXl X.} z 2 j i.u p ( t.%XN.{.&Xw.*X=Xn.v.HXvXiX&XZ.R m J.q H 6 a.r pX) Q '.oX|.3X8X0X..H.B $.<.-.&.>.",
"q w w e *.y L.a , D fXCXBXw.l  .` 1 x b [ ^ w ).gX*X@Xt.VXNX=XD.a.^ &XuX*XN. .5.=.H.q S p f.7 H _.] ].XXXX@X4X0XC.I.B $.&.&.<.-.",
"q q w q *.u L.a , D mXNXMXz E  .` < < 3 R T R gXpXN.eXaXfXaX&Xw.) I T Q ` l j f.=.c.e , $ k.d.p 8 / '.oXXX|.3XqX XP.B m <.&.&.&.",
"q q w q ~ y L.a , D mXNXBXI X.o.} l 1 @ . : 0 t.%X6XeXiXuXuXt.7.z , A .   o p 4.=.H.9 0.4 % % k % / '.oXXX X3X8X8X5.B m <.<.>.-.",
"q w q q $.u v.a 8 G mXNXw.A  ...} < l 3 . . 5 7..X9X*Xt.8.8.e.! : X . & & = i f.=.H.; (.9.D J J S ] '.oXXX X7X5X0XX.B n &.&.&.$.",
"$.d w $.*.y v.p , G MXNXP W  .} U 1 l 2 . & , Z.9X3X%Xt.8.:.,.,.! : . & & X g >.a c.6 ^.(././.-X(.#.].oXXX X3X5XqXB.B f v d w e ",
"*.d $.*.*.y L.a , D mXNXI X. .| 1 l A I #.& > .XtX2X{.z.pX).<.:.,.0 X & & & , , ; x.5 ^./.:.&.8./.{ V.OXXXXXOX4X0XC.B K %.K K w ",
"w ~ d $.*.y P.7 > D sXw.A .. .| < l < W rX#.F 3 @.8X*XuXfXaXgX&X8.:.8 X & = . , L x.5 /.J 2.t.0 /.) B.OXXXXX X2X0XC.B K $.K $.$.",
"$.$.$.w *.y c.a & D dXl '  . .| 1 < < U rXrX,.} 2X>X[ uXdXdXdXdXuXe.0.!.~.{ , , h H.5 /.(.G 8 /.(.) B.OXXXXX X3X0XC.B K *.*.&.*.",
"<.<.<.<.-.y c.a , G mXl X. . .} < l Y |.rXw.8.> @.,XO.aXaXaXaXaXsX).0.~.!.~.J S N v.- /.^.0.0.0.{ A V.oXXXoX X3X0XC.B $.>.&.&.&.",
">.<.<.<.-.y L.7 G ~ 8.A  . .} U < l R rX-Xe.uXT @X#X).fXaXsXaXsXfXgXw.W !.A >.J h J.4 ^.~.K 0.0.0.A B.OXoXB.'.3X0XC.B m &.*.*.&.",
"-.<.-.&.&.y L.a G r.< <  . .` 1 l l R yXrXr.MX=X+X@.uXdXaXsXfXaX&XZ.} < H = /.H h L.5 /.^.0.0.0.7.2 B.OXOXX.[.3XtXC.C $.&.=.&.%.",
"&.-.*.&.-.u c.$ S (.l _  . .| < < < R 7XE w.gXgXT Z.lXfXfXpXZ.Z.| < > & & K _.S h v.O /.^.) 0.0.0.] A.OXoX..@X8X2XW V $.<.&.&.&.",
">.<.<.1.-.u h.+ 9 ^.l .. . .| < < x / X.A.2 Z.O.* W {.Z.Z.@.1 > > & * & & 0._.8 N v.O /._.0.8.9.9.O.].OX@X..;X0X'.P C d *.$.$.*.",
"&.&.-.>.$.t j.C 5 G l  . . .` l 1 x J U 4 X 2 > O > 3 > 3 > > . & & & . & 5 8 6 k.v.Z 4 { 9.9.9.0.O.[.OXV._ >X0XB.j.C q *.$.w w ",
"&.&.&.-.y.# C j.V 2 _  . . .` 1 l x 6 l W :   X & . & & & & & & & & & . X 2 / k.n.l.T.C 5 # - # ; R ].@XX.B.2XtX} j.h 1.-.~ q e ",
"&.&.>.&.;.4 u d.d.l  . .I  . .l x x g.4.R X.A.x   X     X X X         > Y q.U.c.l.k.c.c.c.l.l.k.k.5.].[._ @X9X,XW j.  &.*.w q e ",
"-.&.<.<.<.2.+ j 3.l  . .1  .l l x j.k.k.6.m N.}.B.} #X2X*X+. .@X2X@XM.I 5.H.J.L.J.H.J.J.J.P.T.P.P.q. X` R ;XwX[.6.g 4.&.;.n v w ",
"&.&.:.>.&.&.1.X x ` } l }  .< < x 3.C 3.C l.iXI.3.I ` V.M.' 1 ' M. .( 3.d.d.d.d.d.f.j.d.d.f.d.g.d.[ M.l C.4X,X_ # >.$.~ d w e e ",
"q e w w e q w w l  . .l  .l l < . . O   6 n.W.R.E.M r 5 q k.I.hXc.f 5 # - O O O O O O O O O O O > ` U R ].:XA.,.w w ~ d w F w w ",
"w e w w v w w q 1 X.l }  .1 < m N V g N m / S.#.] 0 V C a.E.vXkXU.[ d.3.3.d.3.3.d.3.d.d.d.3.d.j.^ < U A.+XB./ n ~ w v v w w w w ",
"$.n w w e w v x  .l }  .l x X O @   r # # & > > > O # # 5 O.2X*X/ 5 $ $ $ 6 6 $ 6 $ $ 6 6 #   # > C.+XV.R ^ w w w w w w w q w e ",
"e w e w d w $.< l l l I ~ 4 = {   5 &.*.~ > 3 . & 5 &.*.w > > > & 4 *.*.&.&.&.&.*.&.&.&.&.<.4 : E M.R ( *.n w w w v w w w w e q ",
"2.1.2.<.y.1.1.,.&.&.2.2.e.^ 7.S & r.<.2.&.& > & & 8 <.2.$./ C.  & > w 1.2.<.2.<.*.w ~ w $.$.-.X A ~., &.F F w w w w w w w w w q ",
"e.e.e.r.r.r.r.e.r.r.e.e.e J ~ 8 t.r.e.r.1.> . O & > e r.&.> > & & & w e.e.y.y.r.<.w $.$.$.n n &.9 H S v $.n $.K $.d w w w w w e ",
"1.1.y.<.<.2.1.y.y.e.1.t.*.A o r.1.y.e.1.& , _ X & . 9 y.1.$.. O & & & w y.<.2.1.&.w d $.w ~ w w K o , :.<.v w n w w w e w e q q ",
"e.e.1.1.1.1.1.1.e.r.e.d o *.e.e.r.1.e.<.& & > & & & 9 1.8.%.x W X & & & w y.e.r.,.w w n K $.$.~ K &.*.o o $.$.$.$.$.w v w w e q ",
"1.1.2.1.1.e.e.y.1.1.<.<.. r.y.e.e.1.1.:.& . . & . > ! r.r.>.> . & & & & w 1.1.e.&.d $.*.*.$.*.$.$.*.&.- *.v K w w w w w w q q w ",
"$.n n $.$.~ $.$.$.w w e F K d w ~ $.~ w P  .} _ 1 x ~ $.$.e & & & & & > c w $.w $.~ d K w $.$.d w K w F n w w w q q e q q q q q ",
"$.*.$.n w w d w ~ $.$.w ~ F $.$.d ~ $.v $.$.$.n $.$.$.v *.^ M.OXXX[.} / $.$.K *.*.$.$.$.*.K $.v $.~ $.w v w w d w w w q q q q e "
};
