/* XPM */
static char *miku_51677691821[] = {
/* columns rows colors chars-per-pixel */
"64 64 210 2 ",
"   c #060608",
".  c #19110A",
"X  c #1C1613",
"o  c #181419",
"O  c #110C0A",
"+  c #2C1B14",
"@  c #2B1C1D",
"#  c #241919",
"$  c #351C17",
"%  c #260E13",
"&  c #2D231B",
"*  c #2A2117",
"=  c #34251D",
"-  c #38261C",
";  c #353011",
":  c #1B1D22",
">  c #111822",
",  c #071727",
"<  c #241D22",
"1  c #1D252D",
"2  c #1E2533",
"3  c #1E2E35",
"4  c #0D3F3C",
"5  c #2C2C2C",
"6  c #292527",
"7  c #322423",
"8  c #372927",
"9  c #3B312A",
"0  c #212D35",
"q  c #292D38",
"w  c #322D32",
"e  c #382D39",
"r  c #2E3138",
"t  c #353535",
"y  c #3B3434",
"u  c #363837",
"i  c #393937",
"p  c #35363B",
"a  c #3B353A",
"s  c #3C3C3C",
"d  c #363A39",
"f  c #1A2217",
"g  c #482B1A",
"h  c #522917",
"j  c #532B18",
"k  c #52361C",
"l  c #421F23",
"z  c #452827",
"x  c #443429",
"c  c #4D3729",
"v  c #5B3025",
"b  c #583E2B",
"n  c #413D3E",
"m  c #423137",
"M  c #5D3E33",
"N  c #563D37",
"B  c #633C36",
"V  c #3E413F",
"C  c #41413E",
"Z  c #4C423B",
"A  c #5D4132",
"S  c #584539",
"D  c #5A4324",
"F  c #684A3A",
"G  c #7B4E3A",
"H  c #6C4C34",
"J  c #1E3454",
"K  c #292D41",
"L  c #242D43",
"P  c #2A3448",
"I  c #363642",
"U  c #3E3E41",
"Y  c #333C4B",
"T  c #3A3A46",
"R  c #263553",
"E  c #363D53",
"W  c #2D2E59",
"Q  c #413F41",
"!  c #7C3640",
"~  c #3E4242",
"^  c #39424B",
"/  c #3A4454",
"(  c #3F5259",
")  c #3E4764",
"_  c #197065",
"`  c #434343",
"'  c #494445",
"]  c #444946",
"[  c #484947",
"{  c #45454A",
"}  c #454A49",
"|  c #4C4C4C",
" . c #494749",
".. c #514E4E",
"X. c #4D504E",
"o. c #47504D",
"O. c #51514E",
"+. c #494C55",
"@. c #514F51",
"#. c #5F4B57",
"$. c #4E5151",
"%. c #545454",
"&. c #52555B",
"*. c #5B5B5B",
"=. c #575857",
"-. c #624941",
";. c #7B5243",
":. c #7D544A",
">. c #785646",
",. c #615956",
"<. c #474C68",
"1. c #495569",
"2. c #4A5674",
"3. c #525877",
"4. c #51546D",
"5. c #615F60",
"6. c #5B6267",
"7. c #556576",
"8. c #597279",
"9. c #636363",
"0. c DimGray",
"q. c #777A7E",
"w. c #747374",
"e. c #6B756D",
"r. c #9E3B3E",
"t. c #A73938",
"y. c #CC2435",
"u. c #8B593E",
"i. c #98623D",
"p. c #9D3C40",
"a. c #8A5D4B",
"s. c #83594A",
"d. c #965D44",
"f. c #895C53",
"g. c #904750",
"h. c #89654A",
"j. c #976646",
"k. c #896354",
"l. c #966954",
"z. c #9A7257",
"x. c #AD6348",
"c. c #A66C46",
"v. c #A87559",
"b. c #B37C5B",
"n. c #B67957",
"m. c #AD764C",
"M. c #B57F62",
"N. c #B87E64",
"B. c #C17B61",
"V. c #C07C57",
"C. c #C99D3C",
"Z. c #D19E35",
"A. c #B4825B",
"S. c #B8845B",
"D. c #B68062",
"F. c #BA8567",
"G. c #AE8160",
"H. c #C99C4D",
"J. c #C58865",
"K. c #CD937A",
"L. c #CE9978",
"P. c #C38D73",
"I. c #3F519C",
"U. c #375498",
"Y. c #3F4F9A",
"T. c #3E61B3",
"R. c #3E5EB3",
"E. c #585992",
"W. c #575891",
"Q. c #525882",
"!. c #586585",
"~. c #566B87",
"^. c #646887",
"/. c #697295",
"(. c #747798",
"). c #676C8D",
"_. c #415FB5",
"`. c #4765AE",
"'. c #4567A7",
"]. c #4263B3",
"[. c #747CA6",
"{. c #EB7990",
"}. c #2EAD91",
"|. c #5F8596",
" X c #668795",
".X c #768C95",
"XX c #7582A5",
"oX c #7491AA",
"OX c #4BDDB2",
"+X c #8894B1",
"@X c #89A4B6",
"#X c #98A6B6",
"$X c #A7ADAF",
"%X c #BCB8BB",
"&X c #E5B9A4",
"*X c #D7A282",
"=X c #93AEC4",
"-X c #B4B3C0",
";X c #BEB9C0",
":X c #849AC3",
">X c #9DC1D9",
",X c #B8C3D7",
"<X c #B7C3D6",
"1X c #BCCCED",
"2X c #CAC6D6",
"3X c #CBC8DB",
"4X c #FDE6D3",
"5X c #FBFCFC",
"6X c #E5E7FC",
"7X c #D0D0E8",
/* pixels */
"` ` s ` Q ` ` ` ` ` s ` ` ` Q ` ` [ [ [ ` { | | X.%.=.%.=.=.%. . .O.| %.%.%.%.| %.[ ` n ` ` [ ` `  .[ [ [ U s s  .] [ | s u ` V ",
"s s ` s s n s s s s s s s s s s s s s U s [ | %.=.=.5.| | *.O.[ s [ | %.=.9.9.%.| @.| s u s s ` s ` U s V ~  .%.@.| | | C s s s ",
"s s u i u u t u u s s s s s s s : : ` C ` [  .| ..,.5 5. .%.| | | ` [ ` [ | | | ` ` [ ` s s ` ` U s s Q ` s  .p 6 [ t i u 5 6 5 ",
"U ` ` Q ` ` U ` ` ` ` ` [ `  .: y.: : [ [ ` U ` y ..g.z =.s V n n ` s : : s s s ~ s s n ~ s ` s s s s s u a U B g.% ` 6 5 5 5 5 ",
"` [ ` ` [ ` ` Q ` [ [ ` ` [ : y.: 4 _ _ _ 4 4 4 4 4 4 4 4 4 4 n U s ` : v : s s ` n V ~ s s s s s n U u u p < ! {.$ X.5 5 w 5 5 ",
"s s Q ` U s s n s s U s 4 : v 4 _ _ _ 4 4 _ }.}.}._ _ 4 4 4 4 4 4 ` ` : y.: U 4 _ _ ` s s s s s s s s s u U #.% z N [ u i w t w ",
"` s s s s s s s s i s 4 : 4 _ }.}.OXOXOX}._ _ _ _ }.}.}.}._ 4 4 4 4 [ : y.: 4 }.}.}._ ` Q ` ` ` s C  .` %.=.5.@.+.T t u w u t t ",
"s s s u u s u u t u u : _ }.}.}.OXOXOXOXOXOXOX}._ _ }.OXOXOX}._ 4 4 4 : y.: }.OXOXOX}._ s ` ` s s s n [ %.| %.i t w t u t w t 5 ",
"u a i u a i t i p u _ }.OXOX}.}.OXOX}.OXOXOXOXOXOX}.}.}.OXOXOXOX_ 4 4 : y.: OXOXOXOXOX}.` Q ` s U ` %.9.0.| s s u u s i p t t u ",
"a u i s i s Q s _ }.OXOXOX}._ OXOX}.OXOXOXOXOX}.OXOXOX}.}.OXOXOXOX_ 4 : y.: }.}.}.}.}.OX_ Q Q Q ` | *.=.[ n s s s s i t t w u i ",
"t t t u u s s }.OXOXOXOXOX_ }.OXOX}.OXOXOXOX_ _ }.OXOXOX}.OXOXOXOX}.4 : y.: _ _ _ _ }.}.OX_ ' ' %.%.*.%.` `  . .s s s u u u a u ",
"` ` ` { @. ._ OXOXOXOXOX_ }.OXOX}._ OXOXOXOX_ x._ _ OXOXOX}.OXOXOXOX_ 4 v y.: 4 _ _ _ _ }.OX_ ,.| %.*.%.%.%.=.=.Q s s u u t w t ",
"*.=.=.=.*.=.}.OX}.OXOX}._ OXOX}._ _ OXOXOX}._ K.K.x._ OXOXOXOXOXOXOX}.4 : y.: %.4 4 _ _ _ }.OX_ 9.9.%.=.5.=.=.@.s s s s t u t w ",
"=.*.*.=.@._ OX}.OXOXOX_ }.OXOX_ x._ OXOXOX}.x.K.K.K.x._ OXOXOXOXOXOXOX_ 4 v : {  .&.4 _ _ _ }.OX}.4 %.%.@.%.=.%.` V s s s i u i ",
"| | %.%.| }.OX_ OXOX}._ OXOX}.x.x._ OXOXOX_ K.K.K.K.K.x._ OXOXOXOXOXOX}.4 : v : 7X6X5X4 _ _ _ }.OX}._ =.=.=.=.%.| [ [ ` ` ` Q s ",
"%.@.| | 4 OX}._ OXOX_ }.OXOX_ x.x.x.}.OXOX_ K.K.K.4 4 4 _ OXOXOXOXOXOX}.4 : v : +X#X#X#X4 _ _ _ }.OXOX_ | | | ` s u t w t u t w ",
"@.| | | _ OX_ }.OXOX4 OXOX}.x.4 4 x.}.OX}._ K.K.4 K.&X&X_ }.OXOXOXOXOX}.4 : v : 8 8 7 7 8 4 _ _ _ }.}.OX_ 9 9 [ { p s u u t a u ",
"s ` ` 4 OX_ 4 OXOX}.4 OXOX_ x.x.x.4 _ OX}.x.K.&X&X&X&X&X&X_ OXOXOXOXOX}._ : : : v.v.n.n.b.A.4 _ _ _ }.}.OX_ F.k.9 ' u u t t t w ",
"| | [ 4 OX4 4 OXOX}.4 OX}._ x.K.K.K._ OX_ K.&X&X&X&X&X&X&X_ }.OXOXOXOX_ _ : : n.n.n.n.B.c.j.j.4 _ _ }.}.}.OX_ L.*XF n n s s s s ",
"{ | [ 4 }.4 4 OXOX_ 4 OX}.x.L.K.K.K._ OX_ K.&X&X&X&X&XL.K.K._ OXOXOXOX_ _ : : : F.b.F.F 5 w 8 w 4 _ _ }.}.OXOX_ L.P.-  .V s s s ",
"s a u 4 _ M 4 OX}._ 4 OX_ x.x.x.K.K.K.}.K.&X&X&X&Xx.: : o 1 _ OXOXOX}._ _ o 1 : k.F.F T 1.J P P I J _ }.}.}.OXOX_ J.>.| i U s s ",
"i u u u 4 h 4 OX}._ 4 }.4 x.o 1 v x.K._ K.&X&X&Xx.v 4 4 4 4 o OXOXOX}._ 4 1 f : k A.6 ~.T - 7 w 9 9 _ _ }.}.OXOXOX_ H m s V s n ",
"Q ` ~ Q ' h 4 OX}._ 4 }.4 1 $X4 4 v x.K.K.&X&X&Xv $X4 5X4 _ 1 }.OXOX_ _ 4 o o 1 b D.e L $ c.l.-.& 8 c _ }.}.}.OXOX}.4 n V s s V ",
"s s s s { g 4 }.}.4 4 _ v o 5X4 5X4 x.K.&X&X&X&Xx.5X4 $X4 _ v }.OX}._ _ 1 o 1 o N S.I J z d.B I .X|.r 4 }.}.}.OXOXOX_ n C Q s s ",
" . .` ` | h 4 _ }.4 4 _ v v 5X4 $X4 K.&X4X4X4X4XK.5X4 4 _ 4 x.}.OX}._ _ : y.: P D M.I R w ;.o @X>XoX@X4 _ }.}.OXOXOX}.4 Z  .C ` ",
"| | %.| o.j D.4 }.4 4 _ v v 5X4 4 _ &X4X4X4X4X4X4X5Xx.4 4 $Xx.}.}._ _ 4 v y.1 3 D M.a P 8 G q @X X.X.X8._ }.}.}.OXOXOX_ [ C ` V ",
"| | | %.| j D.4 _ 4 4 4 v x.K._ 4 4 4X4X4X4X4X4X4X4X4X4X4X&Xx.}._ _ _ : v : 0 3 S A.9 P g u.o 8.@X|.=X7.4 }.}.}.OXOXOX}.4 s s C ",
"| %.O.X.| h M.4 4 4 4 4 v x.&X4X4X4X4X4X4X4X4X4X4X4X4X4X4X&X_ }.4 _ 4 : : I.K 0 M S.a R 8 j.7 1 7.oX|.1 4 _ }.}.OXOXOXOX4 ~ C s ",
"%.@.| | | h D.x 4 I 4 4 v x.&X4X4X4X&Xy.y.y.K.4X4X4X4X4X4X&X_ }.4 _ 4 _.].I.K 3 M A.p J 7 i.s.z . 5 ; F z._ }.}.OXOXOXOX_ s s s ",
"[ ` ` n } h D.x 4 p 4 2X,Xv K.4X4X4X4Xy.y.y.y.&X4X4X4X4X4XK._ _ 4 4 W.T.`.I.K 3 M A.y R 7 i.;.s.>.k.z.c.i._ }.}.}.OXOXOX}.| [ [ ",
"u s t u } h M.x 2 I 4 3X,X%Xv K.4X4X4XK.y.y.y.y.4X4X4X4X&Xo _ 4 4 p.W.T.`.I.K 3 M S.9 R 5 i.a.S + & g j.c.4 }.}.}.OXOXOX}.4 @.%.",
"s s s s } h M.x 2 I -X2X,X;XH.v x.&X4X4X&Xy.y.y.4X4X4X1 o 1 _ 4 t.p.W.T.`.I.K 3 M b.i R 7 i.H o (  X6.x j.4 }.}.}.OXOXOXOX4 =.%.",
"` ` ` ` | j b.x 0 I -X2X,X;XH.C.4 v x.K.&X&X&X&X&XK.x.: o 4 4 t.r.r.E.T.`.I.K 3 M A.y R 8 s.O 1.=X@X1X7.g L }.}.}.OXOXOXOX_ o.o.",
"| [ ` [ { j D.x 2 I -X2X,X;XH.C.4 4 4 v v v v v v v =.=.&._ x.K.K.x.W.T.`.I.K 3 M A.y P y >.6  X XXXoX|.& 4 }.}.}.}.OXOXOX_ $.$.",
"u s s s ] h D.x 2 I -X2X,X;XH.C.4 4 4 4 v 4 _ 4 _ 4 (.%.4 x.4X4X&XK.x.].'.'.K 3 A A.y R 8 u.o @XoX X#X/ $ 4 }.}.}.}.OXOXOX_ $.@.",
"w s s s ] j M.x 2 I -X2X,X;XH.C.4 4 4 v v _ q.4 }._ 4 _ 4 L.4X4Xy.K.x._.'.I.K 3 b S.t R l d.9 R oX|.<.: u.4 }.}.}.}.OXOXOX_ %.| ",
"u u u t ] h D.x 2 I -X2X,X;XH.C.4 4 4 v _ q.q._ _ q.q.q.4 K.&X4Xy.K.x.T._.Y.L 2 M A.i 0 - z.k.x u ` 7 s.b.4 }.}.}.}.OXOXOX4 | | ",
"u u u i ] j D.x 2 I -X2X<X;XH.C.Z.4 4 4 _ q.$X}.}.$X$X$X4 _ K.&X&XK.v T.`.W.L 2 M A.w <.5 ; ; g - 8 k v c _ }.}.}.}.OXOX}.4 | X.",
"u u i p ~ j M.x 2 I -X2X<X;XH.C.Z.4 4 x.x.v _ }._ $X$Xq.: : _ _ K.x.E.T.`.I.L 3 M A.6 (.3.K Y P r Y P L W _ }.}.}.}.OXOX_ | | [ ",
"Q U s n [ h M.z 2 I &X&X&Xx.H.C.Z.4 x.&X&X&Xx.4 : q.q.: : : : : 4 4 E._.`.I.L 3 A b.7 3.[.).^.XX[.(.oX+X^._ }.}.}.OXOXOX_ s s i ",
"[ ` ` [ } g N.x 1 I x.v v &X&X4 : : &X4X4X4X&X_ : : : : : : : : : : E._.'.U.q 0 M D.6 ~.!.$.X.4.).(.(.4.*.}.}.}.}.OXOXOX4 ` s s ",
"s Q n ` } h M.x 1 p &X&Xx.&Xx._ : : &X4X4X4X&X}.: : : : : : : : : &.&.4 '.U.K 0 B D.6 ).E =.e.p ^.[.^.Y 4 }.}.}.}.OXOX}.4 n ` ` ",
"` ` ` s { h b.x 1 I x.v v &Xv _ : : x.&X4X4X&X}.: : : : : : : : * q.$X).4 : : 4 b A.6 ^./.^ K ^.(.(.+X^.4 }.}._ OXOXOX_ { |  .[ ",
"%.%.%.%.o.j D.x 2 T &X&Xx.v x._ : : v x.&X&Xx.}.&.&.&.: : : : : q.$X$X$X4 : : : 4 N.6 !.E.1.4.<.) <.2.2.4 }.}._ OXOXOX4 %.| | | ",
"%.%.%.%.X.h D.x E Q v x.v v x._ : : : v x.x._ 4 x.&.x.&.&.: : : $X$X$X$X4 o : : _ N.6 E.Q.{ E <.) <.<.1._ }.}._ OXOX}.4 {  .[ | ",
"%.| @.| X.h N.9 ^ 7.2 v v x.v 4 : : : : v v 4 &.&.y.&.y.&.: : q.$X$X$Xq.4 1 : : }.M.6 ^.E.1.2.1.<.4.1.4 _ }._ }.OXOX_ Z | @.| [ ",
"| | [ | | h M.- P (.) I 6.%X4 : : : : : 4 _ _ : : : : : : &.q.$X$X$Xq._ o : : : _ M.< ).~.( <.<.<.4.4.4 }._ _ OXOX}.4  .O.| [ | ",
"@.O.=.=.@.j z.$ e Q.+X/./ o.Z S Z 4 4 4 _ _ 4 &.&.4 : : 4 q.q.q._ _ 4 1 1 f : 4 4 M.@ !.).1.3.3.3.Q.!._ _ 4 }.OX}.4 F n [ ` [ { ",
"| @.O.| ~ z j.F & / !.~.8.Y L W R 4 4 4 4 4 : 4 4 : : : _ _ _ 4 4 : : : : : 4 }.v.F.H 0 2.2.Q.3.2.3.4 _ 4 _ }.}.4 J.>.w ` ` s s ",
"| | | %.9.+ G k.F 7 < # # 7 7 6 4 4 4 4 4 4 : : : : : : : : : : : : : : : : }._ n.b.F.>.6 & < 7 = @ 4 4 _ }.}.4 J.n.b ,.| Q t i ",
"| | | O.@.7 h a.h.s.G s.l.h.h.h.4 4 4 4 4 4 4 : : : : : : : : : : : : : 4 }.4 b.m.n.n.S.v.m.m.v.v.4 4 _ _ _ S.D.n.v.O | [ s t a ",
"%.| @.%.=.%.$ F >.a.j.v.v.m.m.4 4 4 v.4 4 4 4 _ : : : : : : : : : 4 _ _ 4 4 S.S.S.A.S.S.S.F.S.J.4 _ _ 4 4 J.J.n.z.M ,...| C s s ",
"[ | | | | | *.X - F >.>.>.;.:.>.G >.4 4 4 4 ;.4 _ _ _ 4 4 _ _ 4 OXOXOX}._ a.a.s.a.a.a.a.s.a.a.a.a.a.a.a.h.j.s.A + @.U ` ` s u u ",
"u s s s i u a u *.0 O + # o o X % 4 4 4 4 X # v x.K.K.v 4 4 4 4 K.&X&Xx.@ @ @ @ @ @ @ @ @ @ @ @ @ @ @ # + . p 6.s s ~ n s U s s ",
"s u s s s s a s s C X H H O.F J 4 4 4 A A Z F 4 _ _ _ 4 F >.s.x.4X4X&Xv s.s.s.s.:.s.s.s.s.:.f.k.a.f.k.;...X Q Q ` s V V s s s s ",
"` V s s s s ~ s ` [ %.; + * X X + O * * * * & o : : : : * = 7 _ }.}._ 4 7 7 $ 7 7 - - 7 - * . & & * - $ & Z i s s s s u s t s s ",
"s s s s n Q [ s s s s |  .6 , ) o 1 [ [ [ [ { 1 _ : : : | | | : : : : : | | | | { X.| | | %.0 O <., > [ | C s s s n s s s s s u ",
"=.=.%.=.*.=.=.=.| @.*.=.9.^ 1.Y # 9.=.=.=.%.: : : : : %.%.%.=.: _ : : : =.%.=.=.[ s ~ V ` ~ $.o L Q.0 X.U U s s s s s s s i u t ",
"9.9.9.0.0.0.0.9.0.0.9.9.p / ^ r w.0.9.0.0.: : : : : : 0.0.0.: : : : : : 9.*.5.0.@.s ` ` C C ` [ r R P C ` C ` s ` s s s i s i i ",
"*.*.*.=.%.=.=.*.5.9.*.w.^ K   9.5.5.9.9.: : }.: : : : 9.*.=.: : : : : : 5.=.=.*.| s n ` s Q s s { O 2 +.%.s s ` s s s s a i t p ",
"0.9.*.=.=.9.*.5.9.9.9.s   +.9.9.9.9.6.1 : : : : : : : 6.*.: : OX: : : : 5.5.9.0.| s V ~ ` U ` ` ~ | }   O ~ ` ` ` Q U Q Q s u u ",
"*.*.=.=.=.9.9.*.5.*.=.%.* 0.*.6.9.*.*.o : : : : : : 4 9.: : : : : : : : *.*.*.9.| ` [ ` [ [ ` ` ~ { | 6 [ U ~ s s s s s s u t i ",
"` Q ` ` ` ` ` ` n s s u s Q V C n ` ` 4 _ _ _ _ 4 4 C  .: : : : : : _ 4 ` s ` s U U ` s s U ` ` s ` s s C s s s u u i u t t t p ",
"`  .` ` s s s s ~ ` ` V ` U ` ` C ~ ` s ` ` n ` Q ` C C _ }.}.}.}._ 4 ` n ` Q [ [ ` ` [ ` ` ` s ` ~ ` s n s s Q i i a t t t t u "
};
