/* XPM */
static char *miku_81677691821[] = {
/* columns rows colors chars-per-pixel */
"64 64 213 2 ",
"   c #060608",
".  c #0B0F11",
"X  c #1A1516",
"o  c #15110D",
"O  c #2C1B14",
"+  c #2B1C1D",
"@  c #241919",
"#  c #351B19",
"$  c #260E13",
"%  c #2C231C",
"&  c #2A2218",
"*  c #34251D",
"=  c #35281E",
"-  c #382618",
";  c #3B3012",
":  c #1B1D22",
">  c #111822",
",  c #0D192A",
"<  c #241D22",
"1  c #1E2D35",
"2  c #1C2431",
"3  c #0D3F3C",
"4  c #1E262D",
"5  c #2C2C2C",
"6  c #292527",
"7  c #332D2B",
"8  c #372824",
"9  c #3D322B",
"0  c #37322B",
"q  c #212C35",
"w  c #282D39",
"e  c #322E32",
"r  c #332C3E",
"t  c #2F3433",
"y  c #353535",
"u  c #3B3433",
"i  c #363937",
"p  c #393937",
"a  c #353539",
"s  c #3C3C3C",
"d  c #38373A",
"f  c #462A1A",
"g  c #522917",
"h  c #532B19",
"j  c #57341E",
"k  c #4E391A",
"l  c #492C25",
"z  c #4D332B",
"x  c #47352A",
"c  c #5B3025",
"v  c #56392B",
"b  c #4C3734",
"n  c #443D3D",
"m  c #493833",
"M  c #5D3E33",
"N  c #563B36",
"B  c #633C36",
"V  c #613C2A",
"C  c #3E413F",
"Z  c #594223",
"A  c #42413E",
"S  c #49413F",
"D  c #5D4032",
"F  c #5A453C",
"G  c #764729",
"H  c #78472A",
"J  c #76482B",
"K  c #764827",
"L  c #674A3A",
"P  c #784B36",
"I  c #71533F",
"U  c #644C35",
"Y  c #192A4C",
"T  c #292D41",
"R  c #282C44",
"E  c #2B3448",
"W  c #3E3E41",
"Q  c #343A4C",
"!  c #353446",
"~  c #2B3B53",
"^  c #293656",
"/  c #373C51",
"(  c #332E56",
")  c #2D3661",
"_  c #413F41",
"`  c #7C3640",
"'  c #3E4142",
"]  c #3A414B",
"[  c #3A4854",
"{  c #3B4464",
"}  c #2E466A",
"|  c #197065",
" . c #434343",
".. c #4A4343",
"X. c #454946",
"o. c #484947",
"O. c #45454A",
"+. c #454A49",
"@. c #4C4C4C",
"#. c #494749",
"$. c #524D4E",
"%. c #4D504E",
"&. c #51504E",
"*. c #484C54",
"=. c #514F51",
"-. c #5F4B57",
";. c #4F5151",
":. c #545454",
">. c #52555B",
",. c #5B5B5B",
"<. c #585856",
"1. c #674B43",
"2. c #7E554B",
"3. c #7A5445",
"4. c #625855",
"5. c #485566",
"6. c #4F536D",
"7. c #615F60",
"8. c #536476",
"9. c #5A676A",
"0. c #636363",
"q. c #696969",
"w. c #666867",
"e. c #777A7E",
"r. c #747374",
"t. c #6C6E73",
"y. c #9E3B3E",
"u. c #A93837",
"i. c #CC2435",
"p. c #8C5C36",
"a. c #94633B",
"s. c #9D3A43",
"d. c #81554B",
"f. c #8A5D4B",
"g. c #865C49",
"h. c #885D52",
"j. c #91534A",
"k. c #896348",
"l. c #986848",
"z. c #986A53",
"x. c #8F6B56",
"c. c #AD6348",
"v. c #A56A45",
"b. c #A9774D",
"n. c #AB7556",
"m. c #A97759",
"M. c #B57B5B",
"N. c #B7795A",
"B. c #AD6E4F",
"V. c #B57F62",
"C. c #B87964",
"Z. c #9E605D",
"A. c #C07C57",
"S. c #CA9C3D",
"D. c #D19E35",
"F. c #B5835C",
"G. c #BA865C",
"H. c #AF8163",
"J. c #B58063",
"K. c #BD8961",
"L. c #BB8369",
"P. c #C89C4E",
"I. c #C58864",
"U. c #CA926C",
"Y. c #C69167",
"T. c #CD937A",
"R. c #CA9474",
"E. c #C38D73",
"W. c #3F519B",
"Q. c #375498",
"!. c #364E8D",
"~. c #3F5EB2",
"^. c #3E61B4",
"/. c #585892",
"(. c #4C5586",
"). c #576584",
"_. c #5A6E8D",
"`. c #626787",
"'. c #676F8F",
"]. c #415FB7",
"[. c #575FA0",
"{. c #4765AE",
"}. c #4666A7",
"|. c #466AB1",
" X c #697CA4",
".X c #5079C9",
"XX c #EB7990",
"oX c #2EAD91",
"OX c #5F8596",
"+X c #678696",
"@X c #7B8599",
"#X c #758D93",
"$X c #7987A9",
"%X c #748EAB",
"&X c #4BDDB2",
"*X c #8492B3",
"=X c #8AA4B7",
"-X c #91ABB8",
";X c #A7ADAF",
":X c #B2B1BF",
">X c #89879D",
",X c #D7A282",
"<X c #E5B9A4",
"1X c #8599C2",
"2X c #93AEC4",
"3X c #BAB6C1",
"4X c #9DC1D9",
"5X c #B9C4D5",
"6X c #BCCCED",
"7X c #CBC7D7",
"8X c #C3C6CD",
"9X c #FDE6D3",
"0X c gray99",
/* pixels */
" . .s  . .n ' o. .' s  .o. .W  . .o.o.o. .#.%.@.@.:.<.<.<.<.:.#. .:.@.:.<.<.:.@.:.#. . . . .o. .o.o. .o.#.s s C ..X.#.#.n y '  .",
"s s  .s s ' s s s s s s s s : : s W W s s o.%.:.<.<.,.@.@.,.:.o.s  .@.:.,.,.0.:.@.%.@.s y s s  .s ' s W ' ' @.:.=.@.@.@.A s s s ",
"s d d p y y y y y s s s s : : c s W  .'  .o.#.@.=.,.5 0.#.:.@.@.: : o. .o.@.@.@. . .o. .s s  . .W s n W C s #.d 6  .a d y e 5 6 ",
"C  . . . . . . . . . . . .: i.: o.o.3 | | | | 3 3 3 3 3 3 _ s W : c : s d s s s  .s s s n W ' s s s s s d d ' B j.$ _ 5 5 5 5 5 ",
" .o._  .o. . . . .o.3 3 : i.: : 3 | | | | 3 3 oXoXoXoX| 3 3 3 3 : : i.o. .o.s s  . .s  .s s s s s _ s s y d < ` XX# @.e 5 5 5 5 ",
"s s  . ._ s s s s 3 3 3 : i.3 | oXoXoXoXoXoXoX| | | | oXoXoXoX| 3 : i.:  .3 | | 3 s  .s s s s s s s s s d W -.$ l b X.i d e y y ",
" .s s s s s s s d 3 3 : : 3 oXoXoXoXoX&XoX&X&X&X&XoX| | &X&X&X&XoX| 3 : 3 oX&X&XoX3  . .s  . .o.s A #. .:.<.7.@.*.W u i y y y t ",
"s s s y d p s y 3 3 3 : | oX&XoXoXoX&XoX&X&X&X&X&X&XoXoXoX&X&X&X&X&XoX3 : oX&X&X&XoX3 _  . .s s s s s @.:.@.:.d y e y y y y e 5 ",
"y y s y s y y s 3 3 3 | oX&XoXoXoX&X&XoX&X&X&X&X&X&X&X&XoXoX&X&X&X&X&XoX3 | oXoX&X&X|  .o.W _ s W  .%.0.q.@.W s d a s p y y y y ",
"s y s s y s W s 3 3 | oX&XoXoX| &X&XoX| &X&X&X&XoX&X&X&X&X&XoX&X&X&X&X&X| 3 | oXoX&XoX'  . . .W _ =.,.,. .s s s s s s y y y y y ",
"y y y y y s s 3 3 3 oX&X&XoX| oX&X&X| | &X&X&X&X| oXoX&X&X&X&XoX&X&X&X&XoX3 | | oX&X&X3 @.o.X.X.<.:.,.=.o. .#.#.W s s d y y s y ",
" .o. .@.@.@.#.3 3 | &X&X&XoX| &X&XoXc.| &X&X&X&X| | oXoX&X&X&X&X&X&X&X&X&X| 3 | oXoX&X3 ,.,.0.,.#.:.,.:.:.<.<.<._ s s y y y y y ",
"<.<.<.<.,.<.<.3 3 oX&X&XoXoX| &X&X| c.c.oX&X&X&X| c.| oXoX&X&X&X&X&X&X&X&X| 3 | | oX&X| ,.,.t.0.q.0.<.<.7.<.<.%.s s s s y y y e ",
"<.,.,.<.@.&.3 3 | oX&X&XoX| oX&XoX| c.c.oX&X&X&X| T.T.| oXoX&X&X&XoX&X&X&X| 3 3 | oXoX| d s w.<.,.,.;.:.%.:.<.>.o.s s s s s y i ",
"@.@.:.=.@.@.3 3 oXoX&X&XoX| &X&X| c.c.c.| &X&X&X| T.T.T.| oXoX&X&XoX&X&X&X| 3 3 | oXoX| 8Xt.s 0.7.,.,.,.<.<.<.<.@. .o. .s  . .s ",
":.:.@.@.:.:.3 3 oXoX&X&XoX| &X&X| 3 3 3 c.oX&X&X| T.T.3 3 3 oX&X&X&XoX&X&X| 3 @X| oXoX| 3 5X*.+.@.@.=.%.@.@.@. .s d y y y y y y ",
"=.@.@.@.X.#.3 3 oX| &X&XoX3 &XoX| c.c.c.3 | &X&X| T.3 | T.c.| oX&X&XoX&X&X| 3 8 | | oX| 3 0 y & 0 9 u 9 t 9 9 .. .s s y y d d i ",
"s '  . . . .3 3 oX| &X&XoX3 &X| c.T.T.T.c.| &X&X| T.<X<X<XT.| | &X&X&XoX&X| 3 N.3 | oX| 3 m.F.L.N.N.N.N.C.M.C.x.9  .d y y y y 7 ",
"@.@.+.@.@.3 3 3 oX3 &X&XoX3 &X| T.T.T.T.T.c.&X&XT.<X<X<X<X<XT.| oX&X&XoX&X| 3 F.3 | oX| 3 a.v.v.z.z.z.v.l.v.m.T.,XU ..W s s ' W ",
"O.@.#.#.@.3 3 3 | 3 &X&XoX3 oXc.T.T.T.<XT.T.&XoX<X<X<XT.T.<X<Xc.| &X&XoXoX| 3 : 3 | oXoX3 u e e e y d r t i % g.T.E.- #.s s s s ",
"s s p d $.3 | 3 | 3 oX&XoX3 | : : c <XT.<XT.oX| <X<Xc.: : : : c.| oX&XoXoX3 3 : 3 | oXoX3 R ^ E ! Q ] ~ ~ { 6.r k.U.3.@.p W s s ",
"i y d y n 3 | 3 3 3 oX&XoX3 : ;X3 3 c <X<XT.| <X<Xc.c 3 3 3 3 : | oX&XoX| 3 : : k | oXoX3 8 6 8 9 m m 9 l 8 8.} l U.K u s C C n ",
" .s W _ #.3 | 3 3 3 | oXoX3 : 0X3 0X3 c.<X<XT.<X<Xc ;X3 0X3 | : R.| oXoX| : : : Z | oXoX| v.z.1.% 9 z z.m.a.7 ~ c Y.G n s  .s s ",
"s s s s o.3 | 3 : 3 | oX| 3 c 0X3 ;X3 T.<X<X<X<X<Xc.0X3 ;X3 | c T.3 oX| | : : ^ N | | oX| 3 B d @X_.a f k.a.9 ] m Y.K n A W s s ",
"#.o. . .+.3 oX3 : : 3 oX| 3 c 0X3 3 | <X9X9X9X9X9XT.0X3 3 | 3 c.T.3 | | : i.: ~ Z | | oX| 3 : =X4X%X-X3 l z.d ^ m R.J n  . . . .",
"@.&.=.%.;.3 oX3 : : 3 | | 3 c.T.| 3 3 9X9X9X9X9X9X9X0Xc.3 3 ;XT.T.3 | | c i.X 1 Z | | oXoX3 w =X#X>X#X8.8 z.x Q m Y.J n X... .s ",
"@.@.&.:.@.3 oX3 3 : 3 | | 3 c.9X9X9X9X9X9X9X9X9X9X9X9X9X9X9X9X9Xc.3 | 3 c : T 1 M | | oXoX| 3 8.-XOX2X8.- l.9 ~ z U.J S  .s C A ",
"@.:.;.@.;.3 oX| 3 ! 3 | | 3 c.<X9X9X9X9X9X9X9X9X9X9X9X9X9X9X9X<Xc.3 | 3 : W.E 1 M 3 | oXoX| 3 6 8.+X'.4 I k.9 ~ b U.J n s  .s s ",
":.=.@.@.@.3 oX| 3 ! 3X3 | 3 c T.9X9X9X9X9X9X9X9X9X9X9X9X9X9X9Xc.3 3 | ~.|.W.R 1 M 3 | oXoXoX3 = X ; ; 1.x.p.d ~ b U.H n C s s C ",
"X. .o.A X.3 oXoX3 3 3X3 | | 3 h T.9X9X9X9Xi.i.i.i.i.9X9X9X9XT.c 3 3 3 ^.{.W.w 1 M 3 | oXoXoX| k.3.q.m.v.a.p.d ~ v U.H n @.@. .o.",
"s d y y ' 3 oXoX| 3 :X7X3 | P.3 c c.<X9X9X9Xi.i.i.9X9X9X<Xc.c : : 3 /.~.{.W.R 1 M 3 | oXoX&X| 3 O & - z.v.p.d ^ v U.H ..:.:.;.:.",
"s s s s +.3 oXoX| 3 :X7X5X3 P.P.3 3 c c.T.<X<X<X<X<XT.c.c : : : 3 s./.^.{.W.T 1 U 3 | oXoX&XoX3 [ +X9.l l.p.u ^ b U.G #.,.<.<.<.",
" . .' o.+.3 oXoX| 3 3 7X5X8XP.S.D.3 3 c 3 c c c c c c >.3 : : u.y.y./.^.{.W.w 2 D 3 | oXoX&XoX| 2X*X6X8.f k.d ^ b U.H ..<.<.=.@.",
"@.o. .X.+.3 oXoX| | 3 7X5X:XP.S.c c 3 3 >.e.>.3 e.e.e.3 c c.c.c u.y./.^.{.}.T 1 M F.| oXoX&X&X| +X$X%XOX% x.d ~ N U.H ..:.,.=.&.",
"y s C s +.g | oX| | 3 7X9X9XT.9Xc c.3 e.3 >.3 | 3 >.3 9Xc.9X9X<Xc : /.^.{.W.T 1 M M.| oXoX&X&X| 3 +X-X[ - z.d ~ v U.J ..:.:.=.&.",
"e s d s X.h 3 oXoX| 3 3 <X<Xc.c.9X3 >.e.e.3 | oX| 3 e.<Xc c.c.9Xc.| : ].{.W.R 1 M F.| oXoXoX&XoX3 OX5.X 3.k.a ^ z U.J _ %.#.:.@.",
"s y y y X.h 3 oXoX| 3 3 <X9X9X9XT.c e.;X;X;Xe.| e.;X;Xc.c 9X9X9XT.oX: ~.{.(.R 1 M F.| oXoXoX&X&X| ] = g.M.l.e E z U.J S =.@.@.@.",
"y y y s  .h 3 oXoX| | 3 T.9X<Xc.c c e.;X;X;X| oX| ;X;Xc c c.c.9XT.oX: : {.W.R 1 M F.3 oXoXoX&X&XoX3 j c v ; [ { z U.H S :.:.&.&.",
"y y s y  .h M.| oX| | 3 | <X9X9X<Xc e.e.;X;XoX&X| ;X;Xc c.T.9X<XT.| : <.{.W.R 1 D F.3 oXoXoX&X&X&X| T R ( ( $X6.k U.J S @.@.@. .",
" . .s s o.h F.3 oXoX| 3 3 T.<XT.c.c >.e.e.e.&X&X| e.>.>.c v.T.T.c.| : 5.{.W.R 1 D F.3 | oXoXoX&X&XoX| %X`.>X*X{ l U.J n s n s p ",
"o. .o. .+.g V.3 oXoX| 3 < 3 c.c.c 3 >.>.>.>.&X&XoX<.>.>.>.c c c : 3 : i.~.!.w q U V.6 | oXoXoX&X&X&XoX| 7.,. X5.z U.J n _  ._ s ",
"s ' ' n +.h V.3 | oX| 3 >.: 3 3 3 : >.>.e.| &X&XoXe.e.e.>.>.3 : : 3 : >.}.Q.T q B V.6 3 oXoXoXoX&X&X&XoX| _ `.5.z U.J _ .._  ._ ",
" . .' s +.h J.x 3 oX| | >.>.: : : : >.e.e.| &X&X&X| ;X;X;Xe.: 3 3 : : : }.W.R q v F.6 3 oXoX| oXoX&X&X&X&XoX3 { l E.J _ #.#.@.o.",
"<.:.:.:.%.h M.9 3 | oX| 3 : : : : : e.;Xe.| &X&X&X| ;X;X;X;X>.: : : : ~.}.(.( w Z F.6 /.| oXoX| oXoX&X&X&X&XoX3 x R.J ..:.@.@.@.",
"@.:.;.<.%.g V.9 / 3 oX| | 3 : : : >.;X;Xe.: : &X&X| ;X;X;X;Xe.: : : /.].].Y -.~ Z F.e `.Y oXoXoX| oXoX&X&X&X&XoX3 U.H A #.#.@.@.",
":.:.@.@.@.h V.9 ] 3 | oX| | 3 3 3 e.;X;Xe.| &X&XoX| ;X;X;X;Xe.<.u.s.[..X!.2 `.~ v V.< `.).| oXoX| | oXoXoX&X&X&XoX3 P n @.@.@.o.",
"@.=.o.@.%.h M.8 E '.3 | | | | 3 : | ;X;Xe.: : &X| ;X;X;X;X;X'.3 : Z.6.Y 2 6. X! v F.< '.).3 | oXoX| | | oXoXoX&X&X| L ..:.@.o.@.",
"@.:.<.,.@.f B.# r `.*X3 | 3 3 : : : | ;Xe.3 &X| : | e.;X;Xe.3 : : : < -. X>X[.q V J.+ )._.5.3 | oXoXoX| | | oXoX&XoX3 n o. . .#.",
"@.@.:.@.' l k.L 6 / ).)._.3 oX3 3 | &X3 | 3 | : : : | '.| 3 : : : : : : ).8.~ e m.L.I q 6.8.6.3 | | oXoXoX3 3 | oXoX| u .._ s s ",
"%.@.@.&.0.O P x.L 8 < X O % 3 &X&X&X: : 3 | : : : : % 3 3 : : : : : | 3 % # u m.N.n.G.3.< < 6 6 6 3 | | oXoX| 3 | oX| <.@._ y s ",
"@.@.&.%.&.= h f.k.g.p.g.x.k.3 | | : : : : : : : : : : : : : : : : | 3 n.n.n.V.M.B.N.N.N.m.b.b.n.n.n.n.3 3 3 | | 3 | | 3 X.s y d ",
":.=.=.=.<.<.# B 3.f.j.n.m.b.m.3 | &X: : : : : : : : : : : : oX| | 3 G.I.G.I.G.F.F.F.J.F.K.I.K.I.I.G.G.I.E.I.I.F.3 3 | 3 @.n s s ",
"#.@.%.%.@.@.,.X - D g.I 3.3.2.3.3 3 oXoX| oX&X&XoX| 3 oX&X&X| 3 g.k.f.f.g.f.f.g.f.f.f.f.g.f.f.f.g.f.k.f.k.l.2.D O &.3 3  .s i d ",
"y s s s d y d s 0.e   O @ X X X X c.T.c.Y | | | | 3 3 | | T.c.& + + + + + + + + # + + + + O + + + % + + O X a 7.s s ' 3 s s s s ",
"s y s s s s s s s ' X U L 4.1.N F | T.R.v.c L 1.I L c.<X<X<X| 2.d.d.d.d.2.d.d.2.d.d.d.d.d.d.h.h.h.f.h.3.$.@ s A  .s C A s s s s ",
" .C s s s s s s o.X.:.- O O X @ O : | | | 3 % % & & | oXoX| : 8 = * 8 - = = = = = = = = = - o % * O * O O S p s s s s i s y s s ",
"s s d s s W o.s s s s @.#.6 , { . : : : : : @.#.#.@.: : : : : @.@.o.#.@.@.@.@.+.#.%.@.@.+.>.q . *., > o.@.s s s s _ s s s s s y ",
"<.,.<.<.,.,.<.<.@.@.,.,.0.Q 5.] < : 3 : : : :.:.:.<.: : | : : : :.<.<.,.<.:.<.<.o.s ' W  . .;.X R (.q %._ W s s s s s s s d d y ",
"0.0.0.w.q.q.0.0.q.q.0.0.a / ] q r.: : : : : q.q.w.0.0.: : : : : : 7.,.0.0.,.7.w.&.s  . .A ..C X.w ^ E A o.C A _  .s s s s s p s ",
",.,.,.<.:.,.,.,.0.0.,.r.O.q . w.: : : : : : 0.q.0.,.0.: : : : : : :.:.,.7.<.<.7.@.s A  .s s s s #.. 2 *.:.s s  .s s s s s p y y ",
"0.7.,.<.<.7.,.0.0.0.0.s   *.w.0.: : | : : : 0.,.0.0.,.: : oX: : : : ,.0.7.7.0.w.@.s C W W  . .s ' @.+.  . A  . . . .s  .s s y y ",
"7.,.<.<.,.0.0.,.,.,.<.<.: q.,.: : : : : : : w.0.0.0.0.: : : : : : : 0.,.,.,.7.0.@. . .o.o. .o.o.' O.@.6 o.s  .s s s s s s y y s ",
" .W O. . . . . . .s s y s _ n 3 : : : : : :  .s s  . .: : : : : : 3 W  . .s W W _ W  .s W W _ _ s C s s C s s s y y y y y y y y ",
" .o. .' s s s s _  . .C  ._  .3 | | oXoX| 3 s  . . . .3 | oXoXoX3 o.o. .'  .'  .o. . .o. . .o.s  .'  .W C s s n s s s y d y y y "
};
