/* XPM */
static char *miku_111677691820[] = {
/* columns rows colors chars-per-pixel */
"64 64 253 2 ",
"   c #190C15",
".  c #07151A",
"X  c #1C191F",
"o  c #19151A",
"O  c #0F080A",
"+  c #26191A",
"@  c #301417",
"#  c #2D2319",
"$  c #35251B",
"%  c #3B3012",
"&  c #1B1D22",
"*  c #131C22",
"=  c #0A1D27",
"-  c #2D1E24",
";  c #062728",
":  c #18272A",
">  c #1C2732",
",  c #0D3D3A",
"<  c #083836",
"1  c #133333",
"2  c #183A38",
"3  c #0B302F",
"4  c #2A2828",
"5  c #372927",
"6  c #38342B",
"7  c #292C34",
"8  c #342C33",
"9  c #263836",
"0  c #353535",
"q  c #3C3C3C",
"w  c #383737",
"e  c #2C3128",
"r  c #1F241D",
"t  c #44121D",
"y  c #4A2A1A",
"u  c #522917",
"i  c #542A19",
"p  c #491B24",
"a  c #472B24",
"s  c #473429",
"d  c #56352B",
"f  c #443D3D",
"g  c #4A3634",
"h  c #563B34",
"j  c #572D24",
"k  c #6F352E",
"l  c #60251A",
"z  c #0D413E",
"x  c #04413D",
"c  c #18413E",
"v  c #254535",
"b  c #3C433E",
"n  c #2E482D",
"m  c #42413E",
"M  c #49443B",
"N  c #544438",
"B  c #764729",
"V  c #684839",
"C  c #7A4B37",
"Z  c #6D583F",
"A  c #2B3949",
"S  c #3E3E41",
"D  c #343848",
"F  c #2A3954",
"G  c #363857",
"H  c #332C48",
"J  c #173741",
"K  c #423E41",
"L  c #753A5C",
"P  c #0F4641",
"I  c #0F4944",
"U  c #064B47",
"Y  c #114C46",
"T  c #114E49",
"R  c #1B4646",
"E  c #04544C",
"W  c #13534D",
"Q  c #1B544A",
"!  c #095B55",
"~  c #145C54",
"^  c #185855",
"/  c #294847",
"(  c #3A4646",
")  c #29554A",
"_  c #2A4853",
"`  c #364757",
"'  c #335652",
"]  c #16645B",
"[  c #18665B",
"{  c #0B635A",
"}  c #26665A",
"|  c #2F7057",
" . c #384465",
".. c #1A6D63",
"X. c #166A61",
"o. c #1A7266",
"O. c #1A7569",
"+. c #1C7A6C",
"@. c #177368",
"#. c #177A6C",
"$. c #257968",
"%. c #346F69",
"&. c #434343",
"*. c #4A4343",
"=. c #454A49",
"-. c #4C4C4C",
";. c #464847",
":. c #4C514B",
">. c #53544C",
",. c #474B55",
"<. c #544E52",
"1. c #475654",
"2. c #545454",
"3. c #5B5B5B",
"4. c #575657",
"5. c #534D4C",
"6. c #795545",
"7. c #6C5250",
"8. c #526756",
"9. c #6F6957",
"0. c #4F566B",
"q. c #6B4C6C",
"w. c #5C6463",
"e. c #4E7074",
"r. c #636363",
"t. c DimGray",
"y. c #666369",
"u. c #797B69",
"i. c #6D7272",
"p. c #8A2530",
"a. c #B42332",
"s. c #8E5436",
"d. c #99613A",
"f. c #8A5A46",
"g. c #8F5A4E",
"h. c #966548",
"j. c #886955",
"k. c #976B52",
"l. c #8D6A4E",
"z. c #A77658",
"x. c #B16F52",
"c. c #8C7B6B",
"v. c #B67F61",
"b. c #B97C65",
"n. c #AA7867",
"m. c #A55755",
"M. c #CD785B",
"N. c #D37D62",
"B. c #CE3536",
"V. c #1C8574",
"C. c #128774",
"Z. c #218372",
"A. c #238D7A",
"S. c #258B77",
"D. c #25927E",
"F. c #378878",
"G. c #3EA650",
"H. c #469C48",
"J. c #4D9253",
"K. c #47A24A",
"L. c #41A256",
"P. c #4AA254",
"I. c #44B04A",
"U. c #678B70",
"Y. c #D29D36",
"T. c #D89F2C",
"R. c #B99E5B",
"E. c #AA815C",
"W. c #B6A258",
"Q. c #8F8570",
"!. c #B88265",
"~. c #B28877",
"^. c #B2A060",
"/. c #CB926C",
"(. c #C39765",
"). c #CB9477",
"_. c #D6957B",
"`. c #CC8A6F",
"'. c #E79074",
"]. c #D1AE56",
"[. c #567188",
"{. c #6A778C",
"}. c #6D508A",
"|. c #8B5191",
" X c #974BA5",
".X c #906294",
"XX c #EB7990",
"oX c #1A9A84",
"OX c #279A83",
"+X c #369A84",
"@X c #19A88D",
"#X c #2BA58B",
"$X c #2BA98E",
"%X c #25A48B",
"&X c #2EAD91",
"*X c #2DB395",
"=X c #31B395",
"-X c #35BB9B",
";X c #37B898",
":X c #3AA98C",
">X c #3CBCBA",
",X c #4B9287",
"<X c #6F8D8D",
"1X c #47B095",
"2X c #4DAEB6",
"3X c #4CB5B7",
"4X c #51B3B2",
"5X c #50B6BA",
"6X c #52B3AA",
"7X c #73A29F",
"8X c #39C19F",
"9X c #3CC5A2",
"0X c #3CCAA5",
"qX c #2FCFA9",
"wX c #43CDA7",
"eX c #43D2AB",
"rX c #49D8AE",
"tX c #4BDDB2",
"yX c #4DCDBC",
"uX c #4EE2B5",
"iX c #4CE6B8",
"pX c #51E9BA",
"aX c #7BC5AF",
"sX c #3ABBC7",
"dX c #46BBC5",
"fX c #56F5C3",
"gX c #5FC3C3",
"hX c #909091",
"jX c #B79A88",
"kX c #94AF9A",
"lX c #93ADAE",
"zX c #A8ABAC",
"xX c #ABB2B4",
"cX c #B7B7B9",
"vX c #AFABAF",
"bX c #A6A797",
"nX c #D39A81",
"mX c #D9A890",
"MX c #EFAE94",
"NX c #EABCA7",
"BX c #F5BDA8",
"VX c #D2ADA3",
"CX c #F2C7B2",
"ZX c #9CADC3",
"AX c #ACC1C1",
"SX c #FADAC6",
"DX c #FDE6D3",
"FX c #FFEBD8",
"GX c #FFF2DE",
"HX c #FDE4CF",
"JX c #FFF6E4",
"KX c #FBF5EE",
"LX c #C8BCC1",
/* pixels */
"&.&.m S &.&.&.&.;.f q &.&.&.&.&.&.;.;.;.&.-.-.-.,.4.4.2.3.2.2.;.;.2.:.2.2.2.2.<.0 & 8 K K K ;.&.;.;.&.*.*.S q q *.;.-.;.q w S m ",
"q q &.q q q q q q q q q q q q q q f S q q q & 4 4.4.3.-.-.3.<.=.q &.-.2.3.3.3.' . p.k 7 w S q m q &.f ( m ( -.2.<.-.-.5.&.q q q ",
"q q w q w w w w w q q q q q q q b &.m ( q 4 j 4 2.3.e 1., , , P z z z z W @...O.~ ; p.k 7 S K m S q q f f q ;.0 4 *.0 w 0 7 4 4 ",
"K &.&.q &.&.q &.&.&.&.&.&.&.;.;.;.&.;.&.S p a.: 6 &., , , P P W O.A.=X=X+.3 ~ +.o.+.W 6 $ 1 A q q q S q w w b k g.  K 4 4 0 4 4 ",
"&.;.&.&.;.&.&.&.;.;.;.&.;.;.( *.( +.o.R ( t a.: & , , P W V.=X&X*XA.[ O.o.D.-X=X*X&X=XD.! : 1 9 q q q w 0 D + L XX- -.e e 8 4 4 ",
"q q &.&.q q q q q q f ( q f K ( +.8XuX$X] t a.; P , T A.-X=X&XOX[ o.A.wXpXuX8X9XwX$X&X*X8X+.: e q q q q w q <.@ a g ;.w w 0 0 0 ",
"&.q q q q q q q w w q 0 0 0 w 0 9XiXtXrXD.t a.; z T A.;X9XpXwX$X;X*X9XuXtXtXpX8X9XwX$X$X0XeXD.c 0 f &.&.2.3.3.<.<.K 0 w 0 w 0 0 ",
"q q q w q w q w w w q 0 0 q b W pXtXeX#XV.t a.= T A.0XiXtX0X$X9XuXiX8X;XuXtXuX8X8XpX9X#X#XwXwXA.) S K -.2.-.2.w 8 8 0 0 0 0 7 e ",
"0 w q w 0 0 w 0 0 0 q 0 q q ( Z.iXeXOX~ 3 p a.; ] eXuXtXwX-XiXtXuXtX9X#X-XuXtXpX8X8XpX+XV.#XeXeXA./ -.y.t.-.q q 0 0 q q 0 0 0 0 ",
"q 0 w q q q K q q q q q q &.( -XtXOX] ~ t B.4 U OXpXuXeX;XiXtXtXtX8X%XV.+XpXtXuX;X;XpXeXZ.S.0XuXeX[ 1.4.&.q q q q q q w w 7 w w ",
"0 0 0 w 0 q q q q q w q q ( q pXrXOX] 3 t a.; ~ 0XuXtXtXtXtXtX0X#XS.| ^ #XpXuXiXD.+.8XpXD.S.$X0XpX$X' 2.&.;.-.-.&.q q 0 0 0 w w ",
"&.;.&.;.:.-.-.-.-.-.-.-.-.=.W pX9X] X.1 - s U OXpXtXtXtXtXtX9X%XV.c.'.7.oXpXiX9XF.[ =XpX#XA.#XwXpXwX[ =.2.2.2.3.S q q w 0 0 6 0 ",
"4.3.4.4.3.4.2.2.2.2.3.2.4.2.W iXOXX.~ + j = T OXpXtXtXtXtX8X$XA.Q.'.nXc.%XpXiXoX6.j.Z.0XrXV.A.0XuX8XD.' w.4.2.-.q q q q 0 0 w 0 ",
"4.3.4.3.:.<.2.:.<.2.2.2.4.2.A.uX%X] 2 - j = W 9XuXtXtXtXwX$XC.8.!.~.nXu.oXpX8X+.l.d.;.$XfXD.A.$XeX-X;X[ ( 2.3.2.&.&.q q q q 0 w ",
"-.-.2.2.,.-.>.2.-.4.3.2.2.1.9XeXOX} 3.4 a : ] 9XuXtXtX0X$XS.' v U ' ).c.oXfX@X9.x.M 1 OXfXS.Z.&XrX;X=X~ :.4.4.2.-.;.&.&.m &.( q ",
"2.2.-.-.2.>.2.<.4.3.3.2.2.Y iX$X$X} 3.4 X > A.-XuXtXeX#XoX2.N.MXjX} 9.Q.$XpX+XQ.9.f.j.V.rX$.+.&XrXS.OX[ ( -.-.&.q w 0 0 0 0 0 8 ",
"-.-.-.-.;.*.=.<.K 4 5 s 8 W uX#XOX[ 5 4 & > V.8XuXrX8X%XD.U.MXCXBXCXBXQ.qXqXu.N._._.'.>.-X$.+.&XeXZ.OX[ 7 6 5 *.=.q 0 0 0 w 0 w ",
"f &.&.&.&.&.7.5 f.z.h.h.h.A.uX%X[ ) d.: & : V.-XpXeX&XD.w.MXNXNXNXNXCXkXqX+Xj.nX)./.'.t.*X$.+.-X=XW Z.~ j.v.b.j.s K w w 0 q 0 8 ",
"=.;.-.-.:.b y ).b.f.g.g.6.8XtX#X[ 9 f.& X : +.9XuX8X%XD.9.n.~.g.R.NXBXkX@Xw.N.nX_.x.s.b C.] $.*X-XW ~ W 6.k.z.nXnXN M K q q b q ",
"=.-.*.=.-.5 n.!.V - 4 > z 9X0X%X[ 2 w & X : T -XrX#X%X1.B . . . s ).CX7XC.Q._.).x.d = 7 / , Z.=X-X] W R 9 0 + g._.).$ -.b q q q ",
"q q w w 5.h n.V - 0.[.{.^ iX#X#XX.2 H & * ; 2 S.0X$XD.E ; I } e.2 f.mXbXQ.mXnXM.k 1.' lXt.. Z.=X$X~ < A F  .0.8 f./.6.-.q S q q ",
"w 0 w w &.u x.% H [.7X}.+.tX&X#X] 2 _ 4 - p : V.%X%X} =.9 ! <XAXe.VXb.BXNXCXmX_.n lX<XlXhX. $.=XZ.Y 2 6 a 5 e. .y /.B w q q b f ",
"( f &.&.*.y !.a G {.` A A.tX&X#X[ 8.yX2Xp B.1 { #.D.| B.N E | ' <XJXmXCXCXCXCXCXt.%.) AXjX4 E #XZ.2 s k.E.d.4 A d (.B f q &.q q ",
"f w q q ;.y v.y ` 0.: P 0XtX$X#X| (.6X2X,.p.s , #.X.1.M.z.^ x < lXKXSXFXFXFXGXFXU.; ; lX`.e ! D.~ e.9 y h.d.6 _ g /.B f m K q q ",
";.*.=.&.-.u v.a / ` 3.W pXtX&X$X| ^.wXdXsXR $ 1 V.{ w M.NXxXw.hXDXKXDXDXDXDXDXJXzXr.<XbX`.N ! @.T [.lX> s k.w F g /.B M &.*.&.&.",
"-.-.<.:.:.y !.a > D cXD.tX9X&X#X| W.6X3XsX6Xn v [ { M `.SXGXJXJXFXSXDXDXDXDXDXHXGXJXJXHX/.s ! Z.W e.7X[.5 k.s G g /.B f &.&.&.b ",
"-.2.-.2.-.u v.s > w <X0XtX$X&X$X%.R.4X3XdX2XL.H.[ ] 9 h.BXJXDXDXDXFXGXDXDXDXFXDXDXDXFXSXM.6 ! [ I [.ZXe.$ h.w A g /.B f &.q f b ",
"-.-.2.:.-.u v.s > D W pXyX$X&X#X| R.2XqX3X4XG.K.H.~ < 1 x.HXJXDXDXCXVXDXKXGXSXSXDXGXDXnXj 2 o.T < [.{.: Z d.6 F g /.B f q &.q q ",
"<.<.-.-.-.u v.s 7 H OXtXrX$X&X$X%.R.4X>XdX2XL.H.H.c x A L b.CXFXKXCX`.mXnXVXCXHXFXCX!.d   ^ o.P < 2 # Z Q.s.e F g /.B f &.q q q ",
";.( &.m =.u v.6 7 2 eXtXtX$X&X#X) R.5XsXdX2XL.K.P.H.R L  Xe 7.`.NXSXSX_.!._.NXCXnXf.a o : Y P , < , 7.h.d.s.6 / d /.B M -.-.;.;.",
"w q 0 w =.u v.s > ^ tXtX-X&X&XOXv R.4X0XdX2XL.H.P.J.|.6.g.< 3 s g.z.n.n.n.~.c.C i   . 7 : x z , W I e h.x.s.w F h /.B *.4.2.5.2.",
"q q q q =.u !.s > ..tXtX&X&X&X#Xv W.4X3XdX2XL.K.P.J.n.MXjXp./ { ^ 0 g g g q R c 5 $ g g a , x x ] W 1.j h.s.8 F g /.B *.3.2.4.4.",
"&.&.M &.M u !.6 1 A.uXtX$X&X$X%Xv R.4X>XdX2XL.H.K.J.BXKXFXMXz.9.%.U =.t.0.I R ` / y m.s.k V , < [ T e.%.y l.0 F g /.B *.4.4.5.5.",
"-.;.;.;.=.u !.a , wXtXrX&X&X&XZ.v R.4X>XdX4XL.H.J.) Q.CXFXJXNX`.`.F.{ ' Q #.V.P / c V l d.s.e x ] [ z e.4 j.0 F d /.B *.4.3.2.-.",
"w w b w =.u !.s ~ uXtXtX&X&X$X] , R.4X>XdX4XL.K.J./ ..U.hXCXGXmXd.bX-X{.{.+XC.,Xi. .g l p.p.n < ~ +.T F $ h.8 F g /.B K >.<.<.-.",
"0 q b w =.u !.s o.uXtX8X&X&X$X} l.R.4X>XdX2XL.H.J.1...C.=XQ.<X1.k c.1XLXcXhX+X1XhXhX&.v ' n c < ~ +.I 1 7.h.8 F h /.B K :.-.2.5.",
"w w w 0 &.u !.6 D.tXtX#X&X&X$X| T.W.3X>XdX2XL.H.J.7.p.< } W E E _ w.i.lXcXvXaX@X7XvX_ E W 1 1 < ] O.] P j.k.H F s (.B K 2.,.-.-.",
"0 w w w =.u !.9 eXtXtX$X&X&X$X| T.W.4X>XdX2XL.H.J.7.h o o o 1 2 < } i.hXhXhXaXiX1Xi.D : & o 1 , ~ @.+.T s % K  .s `.s.M 2.2.:.5.",
"0 0 0 w &.i v.] uXtXtX$X&X&X$X| Y.R.4X>XdX2XI.K.J.q.p.= & & & o ; R 3.y.3.y.,XiX-X%.8 o X > , < ] O.O.I 2 A <X .i /.B M -.-.-.;.",
"&.&.q q ;.u v.O.tXtXtX$X&X=X$X$.Y.R.4X>XdX2XG.K.8.g L * & & X * 2 ,.2.,.<.i.,XqXiX+X9 o X 1 z , I X.O.] P {.ZX .a /.B f q q q w ",
"=.&.&.;.=.u !.o.tXtX8X&X&X&X#Xv Y.W.4X>XdX4XL.H.| # 9 X X : & > 1.<.4.i.lXhXe.0XfX8X, o D 9 z z < ] o.o.T ,.<X .d /.B K K K K q ",
"q &.&.f =.u v.o.tXtX#X&X&X&XOXv Y.W.3X>XdX2XH.K.H.b o r X o 4 ,.w.{.hXzXcXhX,X0X+X1 D =.G / z , , ~ o.O.R J [.0.s /.B K ;.K &.K ",
"&.&.&.q =.u v.o.tXtX&X&X&X&X#Xv Y.^.4XsXdX3XL.K.P.J.q.L q.q.L 0.{.zXcXxXxXhX%.-XrX+.` y.{.J , , , ~ O.O.X.P {. .s ).B &.=.-.=.;.",
"2.2.2.2.:.u v.o.tXrX&X*X&X&X#Xv Y.R.6X0XdX4XL.H.P.J. X X X|.7.y.xXxXzXxXxXvX[.@X,X1 ,.y.[. .R , < X.O...O.T [.0.s `.B K <.-.-.-.",
"5.2.2.4.:.y b.o.tXtX$XZ.&X&X%Xv Y.W.6X>XsX3XL.H.K.J..X X}._ e.hXLXxXvXzXzXcXhX,X8X[ e.{.y.G R , J P [ @.O.Y {.,.a ).B M ;.;.;.-.",
"2.<.:.-.-.i !.O.iXrX%X..=X=XD.9 T.W.5XsXdX3XL.K.I.J. X X}.3 ~ F.[.bXcXvXzXxXhX%.@X6XzXhX0.0._ z , < ~ @.O.P ^ ` a /.C *.-.<.-.*.",
"-.<.;.-.:.u v.Y 8XrXwXo.&X&X#X| ].].gXwXgXyXP.K.I.U..X|.8 & : X.#X%.F.7XcXvXcX<X! <XvXU.^ _ / z , < ] O.o.X.Y ` a (.V *.2.-.-.-.",
"-.:.2.3.-.u k.z Z.uXrX..;X&X$X[ N M _ / ( _ v n n e A > X   c Z.1 : , ..,X+X,X} ; ' F.) :  .0.R z , ~ O.o.O.T D j /.V f &.&.;.=.",
"<.-.>.-.( y h.*.O.tXrX[ V.&X#X[ F A G H K G G G G G Q & o & OX1XO & & : 1 : > : r : 1 :   2 0./ , 1 ] @.o.o.I 7 k.!.6.0 ;.&.q q ",
",.-.=.2.w.$ C j.Y pXtXD.o.;X$X[ - 4 - - - t 4 - - / +.* * A.1X: & & & & X * X & X o   * ^ W > 2 z , ~ O.@.o.../ z.v.d 3.-.b 0 w ",
":.=.5.2.5.# u f., -XtXwX..Z.$X} h.h.h.g.j.g.h.m.h.u.OX~ ;X1X+ O     o o       o   1 D.A.W >.z.( P 1 X.+.Y ] O.Y k.z.O :.;.q w w ",
":.<.5.2.4.3.@ V 7.Z.uXrX] Y =X$.z.z.z.z.n.z.z.z.z.z.U.rX;XR ..;XwX;X$.$.:XwX;X$.+.@XC.) 6.!.!.E.( , z X.P X.+.I j.N 7.>.5.m q q ",
"-.-.-.-.-.-.3.o $ P 8XuXOX, V.} C 6.6.C C 6.6.C C C 6.c.9.6.8.[ oX{ x ! V.S...x :.~.~.E.f.f.f.f.( z < [ o.R [ X.z =.K &.&.q w 0 ",
"w q q q w w 0 q r.9 +.-X#X~ P ..3 + + + o   + + + + + + + $ + e x.nXjXz.( 4 4 6 M.'.'.`.k + - # # , , z ..P [ +.I q S b q q q S ",
"q w q q q q q q q m : O.-X#X~ , c N N N h h V 7.7.V V V V 6.f.3.U.MXBXnXh.f.f.*.| Z.F.) >.f.6.g.g.6./ < [ @.P ..I q b m q q q q ",
"( f q q q q S q &.;.4.e Y +.&XOX3 O + # # # # # # # # # # $ 5 # v ,XyX%.e $ 4 # & : : : # # o # # # $ , , X.O.I [ Y q w q 0 q q ",
"q q w q q f ;.q q q q -.&.2 Y $.~ 1 ,.;.;.=.-.-.-.-.-.;.-.-.=.S - > : & 0 -.-.0 & X 1 > 0 4.4 .  .. * ;.;.P P z P z q q q q w w ",
"4.3.4.2.3.3.4.4.-.5.3.3.r.( 0.F 4 r.2.3.4.2.>.2.2.2.2.4.2.2.&.4 & o } $.8 2.4.S & & & & 0 &.<.o H [.7 -.S S q 0 q q q q q q w w ",
"y.r.r.t.t.t.r.r.t.t.r.y.0 G D 7 i.t.r.t.t.t.t.t.t.r.r.t.y.t.-.& & & : : S 3.S & & & & & 0 m &.;.7 F A m ;.q &.&.( q q q q q q 0 ",
"3.3.w.2.2.3.3.3.r.r.3.i.=.J O r.r.3.r.r.r.3.r.y.r.3.r.r.3.=.& & & & X 0 3.4.S & & o Q R & 7 q q D O > ,.2.m q &.q q q q q w w w ",
"r.r.3.4.3.w.3.r.y.r.r.q O -.r.y.t.3.3.r.3.r.r.3.r.r.4.3.-.& & & & R Q w w.w.S & & & : & * 0 &.K S -.=.O O &.&.&.&.f ( &.q q w w ",
"3.3.4.4.4.r.r.3.3.3.4.2.& t.3.r.r.3.3.3.3.r.y.r.y.r.r.t.<.& & & & & & w 3.3.' : & & X X & w &.;.&.=.5.: =.q &.q q q q q q 0 w w ",
"&.m ;.&.;.f &.&.m b q w q K q m f ( &.q &.&.( f f &.&.&./ 1 X & & & * 7 &.q q 9 < W @.O.W 0 &.K q q w S m q q q w w 0 0 0 0 0 w ",
"&.;.&.m q q q q f &.&.f ( S &.&.&.K &.b &.m f f ( &.&.m &.( ..Z.=X=XD.' &.K &.=.=.&.&.&.&.( &.q ;.S &.K b q q f q w 0 0 w 0 0 0 "
};
