/* XPM */
static char *miku_21677691822[] = {
/* columns rows colors chars-per-pixel */
"64 64 216 2 ",
"   c #060608",
".  c #1D1514",
"X  c #1A1319",
"o  c #140D0A",
"O  c #2B1C1C",
"+  c #261A17",
"@  c #331B19",
"#  c #290A10",
"$  c #2D231B",
"%  c #2A2116",
"&  c #35261B",
"*  c #1B1D22",
"=  c #111822",
"-  c #071727",
";  c #261D22",
":  c #371E27",
">  c #1E2533",
",  c #0D3F3C",
"<  c #1A252D",
"1  c #2E2323",
"2  c #2C2C2C",
"3  c #272627",
"4  c #372D2A",
"5  c #352726",
"6  c #32342A",
"7  c #292C37",
"8  c #342D38",
"9  c #353535",
"0  c #3A3436",
"q  c #35353A",
"w  c #3C343A",
"e  c #3C3C3C",
"r  c #373937",
"t  c #2F3030",
"y  c #4B2C1B",
"u  c #512917",
"i  c #532C19",
"p  c #481E27",
"a  c #442A25",
"s  c #463328",
"d  c #5B3025",
"f  c #54392F",
"g  c #443D3D",
"h  c #4F3631",
"j  c #563C35",
"k  c #522624",
"l  c #633C34",
"z  c #3E413F",
"x  c #29442B",
"c  c #42413E",
"v  c #484339",
"b  c #574539",
"n  c #5B462B",
"m  c #684939",
"M  c #7A4B38",
"N  c #74472C",
"B  c #524A1C",
"V  c #262C47",
"C  c #353543",
"Z  c #3E3E41",
"A  c #34374A",
"S  c #293456",
"D  c #353855",
"F  c #332F4B",
"G  c #413F41",
"H  c #502E44",
"J  c #7C3640",
"K  c #3A4246",
"L  c #2B4753",
"P  c #384254",
"I  c #29544E",
"U  c #3C4A61",
"Y  c #197065",
"T  c #434343",
"R  c #4A4343",
"E  c #484846",
"W  c #464649",
"Q  c #454A49",
"!  c #4C4C4C",
"~  c #484847",
"^  c #524D4E",
"/  c #4C504E",
"(  c #51504E",
")  c #484C55",
"_  c #514F51",
"`  c #4F5151",
"'  c #545454",
"]  c #52555B",
"[  c #5B5B5B",
"{  c #595756",
"}  c #664842",
"|  c #7A5243",
" . c #795448",
".. c #615956",
"X. c #454D65",
"o. c #4A5568",
"O. c #535979",
"+. c #52576B",
"@. c #5B6166",
"#. c #586374",
"$. c #636363",
"%. c #696969",
"&. c #777A7E",
"*. c #747374",
"=. c #9E3B3E",
"-. c #A63832",
";. c #A6393C",
":. c #A73733",
">. c #A63A2E",
",. c #CC2435",
"<. c #81523E",
"1. c #9D3B40",
"2. c #A13C42",
"3. c #A33A4C",
"4. c #A03851",
"5. c #885B4A",
"6. c #895C53",
"7. c #94574B",
"8. c #8A644A",
"9. c #946543",
"0. c #996443",
"q. c #976748",
"w. c #8B6955",
"e. c #966C55",
"r. c #AD6348",
"t. c #A87657",
"y. c #AD7953",
"u. c #A87B62",
"i. c #B67F61",
"p. c #BA7F64",
"a. c #3EA650",
"s. c #469E47",
"d. c #489F47",
"f. c #499A55",
"g. c #459F54",
"h. c #559556",
"j. c #48A24B",
"k. c #41A256",
"l. c #4CA151",
"z. c #44B04A",
"x. c #64946C",
"c. c #CA9B3B",
"v. c #CB9B3D",
"b. c #D29D35",
"n. c #D49A37",
"m. c #D89F2C",
"M. c #DEA930",
"N. c #BE865D",
"B. c #B99F5C",
"V. c #BE9F4F",
"C. c #B7A157",
"Z. c #BB8564",
"A. c #B2A060",
"S. c #C79C4B",
"D. c #D99645",
"F. c #DAAF4A",
"G. c #C58564",
"H. c #CA936B",
"J. c #CD937A",
"K. c #C89172",
"L. c #CF8D75",
"P. c #C7B563",
"I. c #E2AD5E",
"U. c #ECC067",
"Y. c #3E61B3",
"T. c #575D83",
"R. c #585992",
"E. c #4E5A85",
"W. c #5B6986",
"Q. c #687595",
"!. c #6E718B",
"~. c #954C96",
"^. c #944B9A",
"/. c #895594",
"(. c #895696",
"). c #955198",
"_. c #8A578B",
"`. c #914EAD",
"'. c #9B49A4",
"]. c #944BB0",
"[. c #A146A3",
"{. c #B24CB9",
"}. c #965A9C",
"|. c #EB7990",
" X c #2EAD91",
".X c #3BBCBA",
"XX c #7585A6",
"oX c #4EAFB5",
"OX c #4EAFB8",
"+X c #4CB5B6",
"@X c #51B3B2",
"#X c #50B6BA",
"$X c #52B5A8",
"%X c #5ABAAA",
"&X c #4BDDB2",
"*X c #4DCDBC",
"=X c #39BBC7",
"-X c #46BBC4",
";X c #44BDCE",
":X c #48B7D6",
">X c #58CCCD",
",X c #8388AC",
"<X c #A7ADAF",
"1X c #B9B7BB",
"2X c #AFB1B0",
"3X c #CCBBBA",
"4X c #E5B9A4",
"5X c #F8849B",
"6X c #BAB7C2",
"7X c #BABFD7",
"8X c #C3B9C7",
"9X c #B8C2DA",
"0X c #CAC9D8",
"qX c #FDE6D3",
"wX c gray99",
"eX c #E6EBF9",
/* pixels */
"T T e T G G T ~ T G e T T T T g T T E ~ T ~ ! ~ ! { { ' { ' ' E ~ ' ! ' ' { ' ! ' W T T T T ~ T ~ ~ T ~ E G e z T E ! ~ e e K c ",
"e e T e e G e e e e e e e e e e e g c e Z ~ ' ' { ] [ ! _ [ ' E e T ! ' [ [ $.' ~ ' ~ e e e e T e T g Z c K E ' _ ! ! ! T q e e ",
"e e r r r r r r r e e e e e Z e e K T e T ~ ~ ! _ [ 2 $.~ _ ^ ! ! T ~ T ~ ! ! ~ T T W T e e T T z e * * c e W r 3 W 9 w r t 3 3 ",
"G G T T T T e T T T T T T T ~ ~ ~ ~ ~ ~ ~ T e T w l 6.a { Z Z * * T e r e e e e T e e e e e T e e * * ,.* q T j 7.# G 3 2 4 2 2 ",
"T ~ T T ~ T T G T ~ T T T ~ T ~ ~ K g T T T T T X k 5Xk _ W * d * G T T T , , , , , , , , , , Y Y Y , * ,.* O J |.: ! 4 2 8 3 2 ",
"e e G T e e e Z Z e G G z e T e T e c e e T e T [ ; a H ] G * ,.* T T , , , , , , Y Y  X X XY , , Y Y Y , d * , a H T r r t 9 9 ",
"T e e e e e e e r r e r 9 r r r e e e c e ~ T T G ' ! ' { W * ,.* ~ , , , , Y  X X X XY Y Y Y  X&X&X X X XY , * , e r r 9 9 9 t ",
"e e e r e r r r 0 r r r r e e Z T e e e Z ~ T e G T G Y Y , * ,.* , , , Y  X&X&X&X XY  X&X&X&X&X&X&X&X X X X X, X 9 9 r t 9 9 2 ",
"9 r w r r r r e r r r r r e Z e e e e e e e e ~ z z Y  X XY * ,.* , , Y &X&X&X&X X X&X&X&X&X&X&X&X X&X&X X X&X XY * e r r t 9 r ",
"e r e e r e g e e e Z e G G G e T T T ~ ~ T T T e Y  X&X&X X* ,.* , Y &X&X&X&X X&X&X&X&X&X&X&X&X&X X&X&X X X X&X XY e r 9 9 r r ",
"t 9 9 r r e e r r w r e e g e e c T E E ~ ~ e T T  X&X&X&XY * ,.* ,  X&X&X&X X&X&X&X&X XY Y &X&X&X&X X&X&XY  X&X&X XY e r r r r ",
"T W T ~ ! ~ ! ! ! ^ ! ! ! ! ' ` ! ' ' ` ' ' ' [ , &X&X&X X* ,.d , Y &X&X&X X&X&X&X XY Y r.Y &X&X&X&X X&X&X XY  X&X&X X, 9 r 8 t ",
"[ { { { [ { ' ' ' { ] { [ ] [ { ' { [ $.$.[ [ $.Y &X&X XY * ,.* ,  X&X&X&X&X&X&X XY r.J.J.Y &X&X&X&XY  X&X&XY  X&X&X&XY 9 r r t ",
"{ [ ] { ` ` ' ! ( ' ' ' { ' ! ' { { ] [ [ [ { [ Y &X&X X, * d , Y &X&X&X&X&X&X XY r.J.J.J.Y &X&X&X XY Y &X&XY  X X&X&X X, w r r ",
"! ! ' ' ! ! ' ' ! [ [ ` { [ { { [ $.[ { [ [ [ [  X&X&XY * d * ,  X&X&X&X&X&X XY r.J.J.J.J.Y &X&X&XY r.Y  X&X XY  X&X&X XY T G e ",
"' ' ! ! ' ` ' ` ' [ [ ' { ] [ [ { [ $.[ $.@.[ ,  X&X X, * d * ,  X&X&X&X&X X XY , , , J.J.Y &X&X XY r.r.Y &X&XY  X&X&X X X, 9 t ",
"! ! ! ! E ~ W ` T 5 4 4 4 4 4 4 4 4 4 4 4 4 4 , &X&X X, * d * ,  X&X&X&X&X XY J.4X4XJ., J. X&X&XY r.r., , &X&XY  X&X&X X X, w r ",
"T T T T T T { a 7.e.q.0.0.q.0.q.q.0.q.0.0.q.q.Y &X X X, * * * Y  X&X&X&X X XY 4X4X4X4X4X4X X&X Xr.J., r.Y  X&X,  X&X&XY  X, q t ",
"W ! ~ ! ! z y L.p.5.q.0.0.9.9.9.9.0.0.0.0.0.0.Y &X XY q.q.* * Y  X&X&X&X XY J.4X4X4X4X4X4X X&XY J.J.J.J.r.Y &X,  X&X&XY  X, G e ",
"W ! ~ W ! 4 u.Z.} : 3 ; 1 g 0 0 r r w g w w , Y  X X, t 3 * * Y  X&X&X X XY J.J.J.4X4X4X4X X Xr.J.J.J.J.J.Y &X,  X&X&X,  X, e e ",
"e e e r ^ j u.m 1 o.Q.Q.XXD V S S S A A A D , Y  X X, S * * * Y  X&X&X X Xr.* * * * r.4X4X XY J.J.J.J.r.r.Y  X,  X&X&X, Y , e g ",
"r 9 r 9 g u y.@ V Q.XX#.9 ( b v B n I I I L Y Y  X XH H * * * ,  X&X&X XY * , , , , d r.4XY J.J.J.J.r.d * * Y ,  X&X&X, Y , e e ",
"Z e z T ~ y Z.k S Q.P Z &.3XU.F.M.P.*X>X>X, Y  X XY }.{.* * * , Y &X&X XY * Y , wX, <Xd 4X4X4XJ.J.r.d , , <X* ,  X&X X, , G K g ",
"e e e e T y N.y D T.< 2XeX8XS.b.D.H.$X:X:XY Y  X X, ).].* * * * Y  X&XY Y d Y , <X, wXr.4X4X4X4XJ.r., wX, wX* ,  X&X X, , e e e ",
"~ ~ ~ G W y N.a A P @.0X9X1Xc.c.F.A.$X=X, Y  X X Xh._.'.).* ,.* Y  X XY r.r., Y , , wXJ.qXqXqXqX4XJ., <X, wXd ,  X&XY , E T T T ",
"! _ ' ! ` u i.s < A 9X0X9X8XS.c.m.C.$X, Y  X X XY h._.[.].* ,.d , Y  XY r.J.<X, , r.wXqXqXqXqXqXqX4XY , , wXd ,  X X, g T T T g ",
"( ! ! ' ! u Z.s > q 1X0X9X6XS.c.b.B., Y  X&X X X, f./.'.`.^.* d * Y Y , r.4XqXqXqXqXqXqXqXqXqXqXqXqX, , Y J.r.,  XY , g T z e c ",
"! ' ! ( ! u i.s > Z 2X0X9X6XS.c., Y  X&X&X X XY f.f./.[.`.).1.* * Y Y , r.4XqXqXqXqXqXqXqXqXqXqXqXqXqXqXqX4Xr.,  XY , g e g K e ",
"` ` ~ ! ! i i.4 > C 1X0X7X6X, Y  X&X&X&X X X X, l.f.(.[.`.).2.-.;., Y , r.4XqXqXqXqXqXqXqXqXqXqXqXqXqXqXqX4Xr., Y Y , g e e e z ",
"~ T T T Q u N.0 > q 6X0X, Y  X&X&X&X&X X X XY s.l.f./.[.`.~.1.-.;.=.Y , , r.qXqXqXqXqX,.,.,.,.,.,.qXqXqXqXJ.d , Y , N v ! ! ~ ~ ",
"r e 9 r Q u i.s > A , Y  X&X&X&X&X&X X X XY a.s.l.f./.[.`.~.2.-.;.1., , , d J.qXqXqXqX,.,.,.,.,.J.qXqXqXJ.d ; Y Y , N v { ' ! ' ",
"e e e e Q u i.s , Y  X&X&X&X&X&X&X X X XY oXa.s.d.h.(.[.`.~.2.-.;.1.R., , , d r.4XqXqXJ.,.,.,.J.qXqX4Xr.d * * Y , H.N R [ ' ] { ",
"T T T T ~ u , Y  X&X&X&X&X&X&X X X X XY -XOXk.s.l.f./.[.`.~.;.-.;.=.R.Y., , , ] d r.J.4X4X4X4X4XJ.r.d * * * e , h H.N j ' [ ' ! ",
"~ ~ T ~ W , Y  X&X&X&X&X&X X X X X XY .X-XOXk.s.d.f./.[.`.~.1.-.;.=.R.r.J.J.r., ] ] d d d d d ] , d , * * w.q S f H.N R ' [ ! ! ",
"r e e e , Y &X&X&X&X&X X X X X X X, @X.X-XOXa.g.l.f./.[.`.^.2.-.;.=.r.4X,.qX4X, , &.] , Y , Y d r.r., P & e.q D f H.N R ' ' ' ! ",
"9 e e e Y &X&X&X&X XY  X X X XY , B.@X.X-XOXg.s.l.f./.[.`.~.2.:.;.=.J.4X,.qXqXY &.Y , Y  X, r.4X4X4Xr.X M 8.9 r.4X4X4XR ! ! ' ! ",
"r 9 r ,  X&X&X&X XY  X X X XY , n.B.@X.X-XOXk.s.l.f.(.[.`.~.2.:.;.=.J.J.4X4XJ.Y &.<X&.] * , 4XqXqXqX4X .* , 4X4Xd d r.G ' ! ! ! ",
"r r r Y &X&X&X XY  X X X XY , v.b.B.@X.X-XOXa.s.l.f./.[.`.~.2.:.;.=.r.J.J.J.Y , * &.* * * Y 4XqXqXqX4X* * Y r.4Xr.4X4Xv ' ' ! ` ",
"9 r ,  X&X&X&XY  X X X XY , S.c.n.B.@X.X-XOXk.s.d.f./.[.`.~.2.-.;.=.R.r.Y Y * * * * * * *  X4XqXqX4Xr.* * Y d 4Xd d r.v ! ! ~ E ",
"G Z , &X&X&X XY  X X XY , 8XS.v.b.B.@X.X-XOXk.s.l.f./.[.`.~.2.-.;.=.R., * * * * * * * * *  Xr.4X4Xr.d * * Y r.d r.4X4Xg e e e e ",
"~ T Y &X&X&XY Y  X XY Y 9X8XS.S.b.B.@X.X-X+Xa.s.l.f./.'.`.~.3.-.;.1.R.* * * * * * * * ] ]  XY r.r.d * * * Y r.d d r.d j T Z g e ",
"e g Y &X&X XY  X X XY 0X7X6XS.v.b.C.@X.X+X+Xg.s.j.h.(.'.'.~.4.-.-.1.] ] * * * * ] ] r.] r.,  Xd d * * * * , d r.d d N G W G T T ",
"T T Y &X&XY Y  X XY 6X0X7X8XV.v.n.C.+X.X-X+Xk.s.j.h./.'.`.~.1.-.-.] &.&.* * * * ] ,.] ,.] * Y , * * * * * , , , d K.N G W Q W ~ ",
"' ' Y &X&X, Y  X X, 6X8X9X8XV.v.n.C.@X.X-XOXk.s.j.h.).'.^.).Y Y , &.<X<X<X* * * * ] ] * * * , , * * * * * * , X.h K.N G ' ^ ! ! ",
"` ' Y &X X, Y  XY G +.eX9X6XS.v.b.C.@X.X-X+Xa.s.l.h.(.'. X X, * , ] <X<X<X<X&.* * * * * , * * , U * * * X.X.XXU a K.N v W ~ ~ ~ ",
"' ( , &X X, Y  X, %.> 2XeX8XS.n.m.C.#X=X;X+Xk.s.z.h.). X, , * * * , &.<X<X<X<X<X&.&.] , Y Y , , o.o.+.O.O.O.XXP s H.M g ! _ ! ~ ",
"! ! ,  XY , ,  X, !.U w %.1XU.D.F.P.%X*X>X-Xl.z.z.x.(.&X, , * * * * , Y &.<X<X<X<X<X] , Y * * * X.o.o.o.o.X.Q.o.y H.m E ' ! ! ! ",
"! ' ,  XY y , Y F W.,XQ.L Q b b v v L I T L x x x 6 q w &X* * * * Y  X X, Y <X<X<X<X] , Y Y Y * * T.W.T.T.W.,XG i H.m g ~ T ~ ~ ",
"! _ `  X, y , , % P W.W.#.K V S S S D F H F D D D D D S , &X&X&X X X* * * * , Y Y &., * * Y , * * , O.E.E.T.D t e.H.| 9 ~ K e e ",
"! ! ! Y $.@ , w.m 1 * + + 3 1 3 : 1 : 3 3 : 1 : : 3 6 6 Y * * * * * * * * * * * , Y Y * * * * * Y , @ O : @ & w.G.y.f { ! g 9 e ",
"( ! _ , _ $ u 5.8.5.M 6.w.8.9.8.8.q.q.8.w.7.0.7.8.8.q.y., , * * * * * * * * * * * * * * * * , Y , y.t.t.u.y.N.Z.N.t.o ^ ~ e 9 0 ",
"( ! _ ' ' { @ m  .5.0.t.t.y.t.t.t.t.t.t.t.u.t.u.t.t.N.N.Z.Y  XY * * * * * * * * * * * * , Y Y , N.Z.N.G.Z.G.G.y.e.j ..^ / c e e ",
"~ ~ ! _ ! ! [ . & n  .M |  . . .| | | | | | | M M M M 8.6.8.Y &X&X XY &X XY , , Y  X X XY r.5.8.8.5.8.7.8.8. .m @ ` G T c e r r ",
"r e e e r r w e $.7 o % + X X . X + X # X X O O + + + O O : ; % , , Y Y &X&X XY , d r.J.J.r.O O ; $ O + + . 9 @.r e Z e e e e e ",
"e r e e e e e r z z . m m } b b b b f n f v m } } m m m m  . .5.5.d 4XqX4Xr. .5.5., Y Y Y , 6.w.6.6.6.| m . z c T e z T e e e e ",
"T K e e e e e e T ~ { & % + + ; @ o % $ % $ $ $ $ $ $ $ @ & 5 & ; , Y  X XY 5 & 1 * * * * * o 1 & % & @ $ T r e e e e r e 9 e e ",
"e e r e z e ~ e e e r / ~ 3 - X.X * ! ~ Q Q E ! ~ ! ~ W ! ~ ~ ! ~ * * * * * ! ~ ~ * * * Y * 2   o.- X ! ~ g e e e c e e e e e r ",
"' [ ' [ [ [ { [ ! ( [ [ $.A o.A ; $.] { { { ' ' { { ' { ' ' [ [ { * * * Y * { { E e * * * * * X V E.> / K Z e e e e e e e r r 9 ",
"$.$.$.%.%.%.$.$.%.%.$.$.q L K 7 *.%.$.$.%.%.%.%.%.%.%.%.%.%.$.$.$.* * * * * * %.' e * * * * * * 7 S V c T c T e T e e e e e r r ",
"[ [ [ ' ' [ { [ $.$.[ *.W V   %.[ $.%.$.[ @.$.$.$.[ [ $.[ [ [ [ _ * * * * * * [ ~ e * * * *  X* <   > ) ' c e T e e e e w r 0 r ",
"%.$.[ [ { $.[ $.$.$.$.e   Q %.$.$.$.[ $.[ $.$.[ [ @.[ [ $.{ $.$.$.* * * * &X* * _ r * * * * * * * * Q   o T T T G T Z g Z e r r ",
"[ [ { { { $.$.[ [ [ { ' 3 $.[ @.$.[ [ [ [ $.%.$.%.$.%.$.%.%.$.[ $.* * * * * * * * Z , * * * * * * * / $ T K T e e e e e e 9 9 r ",
"T G T T T K T T T e e e e Z g c T T T e T ~ T e g K T T E T T T Z , Y * * * * * * z T , , Y Y Y Y , e K g e e e r r r q 9 9 9 r ",
"T E T K g e e e Z T T e T Z T T e T T g c K e c T T T g T T ~ T T T , Y  X X X XY T T T T T T g c c K z c e e G r r r 9 r 9 9 q "
};
