/* XPM */
static char *miku_121677691820[] = {
/* columns rows colors chars-per-pixel */
"64 64 209 2 ",
"   c #060608",
".  c #1D1514",
"X  c #1A1319",
"o  c #140D0A",
"O  c #2B1C1C",
"+  c #271A17",
"@  c #341C17",
"#  c #2A0B15",
"$  c #2D231B",
"%  c #2C2114",
"&  c #34241C",
"*  c #39281D",
"=  c #3B3012",
"-  c #1B1D22",
";  c #111822",
":  c #071727",
">  c #371E27",
",  c #201E21",
"<  c #0D3F3C",
"1  c #1C2431",
"2  c #2C2C2C",
"3  c #292526",
"4  c #362A28",
"5  c #292C37",
"6  c #312F31",
"7  c #353535",
"8  c #363837",
"9  c #353539",
"0  c #3C353A",
"q  c #3C3C3C",
"w  c #3A3636",
"e  c #303230",
"r  c #4A2C1B",
"t  c #53301B",
"y  c #421F27",
"u  c #472A25",
"i  c #4B3428",
"p  c #5B3025",
"a  c #53382F",
"s  c #443D3D",
"d  c #4E3734",
"f  c #563C35",
"g  c #522624",
"h  c #633C34",
"j  c #3E413F",
"k  c #304131",
"l  c #27452B",
"z  c #42413E",
"x  c #484339",
"c  c #564439",
"v  c #5B462B",
"b  c #764729",
"n  c #77482B",
"m  c #774729",
"M  c #69493A",
"N  c #794B38",
"B  c #694937",
"V  c #524A1C",
"C  c #2B3547",
"Z  c #3E3E41",
"A  c #34354B",
"S  c #2A3855",
"D  c #373655",
"F  c #302C4D",
"G  c #413F41",
"H  c #7C3640",
"J  c #3E4343",
"K  c #3A414B",
"L  c #2D4C51",
"P  c #3C4663",
"I  c #197065",
"U  c #434343",
"Y  c #4A4343",
"T  c #484846",
"R  c #464649",
"E  c #4C4C4C",
"W  c #474847",
"Q  c #524D4E",
"!  c #4D504E",
"~  c #51504E",
"^  c #474C55",
"/  c #514F51",
"(  c #5F4B57",
")  c #4F5151",
"_  c #545453",
"`  c #52555B",
"'  c #5B5B5B",
"]  c #595756",
"[  c #664842",
"{  c #7A5243",
"}  c #795447",
"|  c #615956",
" . c #454C68",
".. c #485367",
"X. c #525979",
"o. c #545A6C",
"O. c #615F60",
"+. c #546274",
"@. c #5D6160",
"#. c #636363",
"$. c #696969",
"%. c #777A7E",
"&. c #747374",
"*. c #9E3B3E",
"=. c #A63835",
"-. c #CC2435",
";. c #875939",
":. c #905B33",
">. c #A13C42",
",. c #A33A48",
"<. c #875A49",
"1. c #90584F",
"2. c #89634C",
"3. c #92654A",
"4. c #986646",
"5. c #8B6955",
"6. c #986C50",
"7. c #9B7159",
"8. c #AD6348",
"9. c #A87558",
"0. c #B57C59",
"q. c #A87B62",
"w. c #BF7E68",
"e. c #38AA3B",
"r. c #3EA453",
"t. c #469E47",
"y. c #499F48",
"u. c #499A54",
"i. c #479E55",
"p. c #569556",
"a. c #47A14A",
"s. c #41A256",
"d. c #4CA151",
"f. c #43A159",
"g. c #4FB258",
"h. c #4DB463",
"j. c #CA9C3B",
"k. c #CC9C3A",
"l. c #D29D35",
"z. c #D49A37",
"x. c #D89F2C",
"c. c #DEA930",
"v. c #BA9E5B",
"b. c #B79F5B",
"n. c #BE8E58",
"m. c #B7A157",
"M. c #BB8667",
"N. c #B2A060",
"B. c #C59E4E",
"V. c #CA9B4D",
"C. c #C99B43",
"Z. c #D99645",
"A. c #DAAF4A",
"S. c #C48664",
"D. c #CB926C",
"F. c #C09D63",
"G. c #CD937A",
"H. c #C89172",
"J. c #CF8D75",
"K. c #C7B563",
"L. c #E2AD5E",
"P. c #ECC067",
"I. c #575D83",
"U. c #4E5A85",
"Y. c #5D6186",
"T. c #6D79A3",
"R. c #954C96",
"E. c #895594",
"W. c #8A5698",
"Q. c #A1479F",
"!. c #914EAD",
"~. c #9E47A3",
"^. c #8F4FAF",
"/. c #A146A3",
"(. c #EB7990",
"). c #2EAD91",
"_. c #3CBCBA",
"`. c #3ABBB7",
"'. c #5F8596",
"]. c #4EB79F",
"[. c #7684A7",
"{. c #4EAFB5",
"}. c #4EAFB8",
"|. c #4CB4B6",
" X c #51B3B2",
".X c #50B6BA",
"XX c #4FB4AB",
"oX c #60BDB5",
"OX c #4BDDB2",
"+X c #4DCDBC",
"@X c #3BBCC6",
"#X c #3ABFD2",
"$X c #46BBC4",
"%X c #47BBC7",
"&X c #48B7D6",
"*X c #58C8C6",
"=X c #57D5D4",
"-X c #818FAF",
";X c #A7ADAF",
":X c #BEB9BF",
">X c #91ABB8",
",X c #E5B9A4",
"<X c #DE9EAD",
"1X c #BEB9C0",
"2X c #C1B8C2",
"3X c #B8C3D7",
"4X c #B8C2D8",
"5X c #FDE6D3",
"6X c gray99",
/* pixels */
"U U q U G U G W U U q U U U U G U W W U U E E E E _ ] _ ] _ _ W U _ E _ _ ] _ ) _ W U U U U W U W W U T W G q s W W W R q 8 U G ",
"q q U q q G q q q q q q q q q q q q s Z q W _ _ ] ] ' E ) ' _ T G U E _ ' ' O._ E ~ E q 8 q q J q U s Z j J T _ ) E Q E U q q q ",
"q 8 8 8 8 8 8 8 7 q q q q q q q G U U q U W E E ( O.2 #.W ) E ) E G T U W E E E U U R U q q U - - q q Z Z q E 9 3 U 7 8 7 6 3 2 ",
"G U U U U U q U U U U U U U W W U W W W W U q q w G 1.u - - Z G G U q q 8 q q q U q q G q s - - -.- q q 8 0 G h 1.# G 3 2 2 2 2 ",
"U W G U W U U G U W U U W W Z W W U q U U U Z W . g (., p , G G q G < < < < < < < < < < I I I < - -.- q w 9 , H (.> E 2 2 6 2 2 ",
"q q U G s q q Z q Z G s q s G J U q U q q j U I I < y - -., R G < < < < < < I I ).).).I < < I I I < p - < Z ( # y d W 8 9 6 7 6 ",
"U G q q q q q q 8 8 q 8 8 q 8 w q q J s q W I ).).).< - -.- G < < < < I ).).).).I I I I ).OXOXOX).).I < - < O.) E G 7 8 7 8 8 7 ",
"q q q 8 8 q 8 8 8 0 8 8 8 q q q q q q q U I ).OXOXOX).- -.- < < < I ).OXOXOX).I I ).OXOXOXOXOXOXOX).).).I - _ 8 7 6 7 7 7 7 6 2 ",
"9 8 8 8 w 8 8 8 8 8 8 8 8 q q Z q q q q q ).OXOXOXOXOX- -.- < < I OXOXOXOX).).).OXOXOXOXOXOX).OXOX).).OXOX).I q 8 8 q 0 8 7 7 8 ",
"q 8 0 q 8 q G q q q Z q G U q q s W U U I OX).).).).).- -.- < I OXOXOXOX).).OXOXOX).OXOXOXOXOX).OXOXI ).OXOXOX).I q 8 w 8 6 8 8 ",
"7 6 7 8 8 Z q 8 0 q 7 q q q q q z U T I OX).).I I I I - -.- < ).OXOXOXOX).OXOXOX).I I OXOXOXOX).OXOX).I OXOXOXOXOX).q 8 8 8 0 8 ",
"U T G W / W E E E E E E E E _ _ E _ I OX).I I I I < - -.p < I OXOXOXOX).OXOXOXI I 8.I OXOXOXOXI ).OXOX).I OXOXOXOXOXI 9 8 7 6 7 ",
"' ] ] ] ' _ _ _ _ _ ' _ ' ] ' ] ] I OX).I I I < < @.- -.- < ).OXOXOXOXOXOXOXI 8.G.G.I ).OXOXOXI I ).OXOXI ).OXOX).OX).8 9 9 w 6 ",
"] ' ' ` E _ _ _ _ _ _ _ ] _ ) < ).OX).I I I < ' @.' - p < I OXOXOXOXOXOXOXI 8.G.G.G.8.).OXOXOXI 8.I OXOX).I OXOXOX).OXI q 8 8 8 ",
"E E _ _ E E _ _ E ' ' _ ] ] I ).OX).I I I < ' ' @.- p - < ).OXOXOXOXOXOXI 8.G.G.G.G.G.I OXOXOXI 8.8.).OXOXI ).OXOXI OX).G U G q ",
"_ _ E E _ / _ ) _ ' ' _ ` I OXOX).I I I < #.' O.$.- p - < ).OXOXOXOXOXOXI < < < G.G.G.I OXOX).8.8.8.I OXOX).I OXOXI ).OX< 7 7 7 ",
") E Q E W E W E W 3 4 4 I OX).).I I I < 4 4 4 4 4 - p - < ).OXOXOXOXOX).I ,X,XG.< G.G.I ).OX).8.< < 8.).OXOX< OXOX).I OXI w 8 8 ",
"q U U U U G | 4 ;.9.4.I OX).).I I I < 4.4.4.4.9.4.- - - I ).OXOXOXOXOXI ,X,X,X,X,X,XG.8.).OXI < 8.8.8.I OXOX< ).OXOX< I OX< 9 6 ",
"E E E E E j r J.w.<.I OX).).).I I < 4.4.4.4.4.3.3.3.- - I I OXOXOXOX).I ,X,X,X,X,X,X,XG.I OXI G.G.G.8.I ).OX< ).OXOX< < OX< G q ",
"R W W U E 4 q.M.M I OXOX).).I I < 0 s 0 w 0 0 w q - - - I I OXOXOXOXI G.G.G.,X,X,X,X,XG.I OXI G.G.G.G.8.).OX< I OXOX< < ).< q q ",
"q q q 8 Q a q.B I OXOX).).).I < S A A C A F A D A - - - I I ).OXOXOXI - - - - 8.,X,X,X,XG.).G.G.G.8.8.8.I OX< I ).OX< E I < q s ",
"8 7 w 8 s t 0.I OXOXOX).).I I x V v L L L L l l k - - - < I ).OXOXOX- < < < < p 8.,X,X,XG.I G.8.p - - 8.< ).< I ).OX< w < q q Z ",
"G q z G Y r < ).OXOX).).).I P.A.c.K.+X=X=X*Xg.g.h.- - - < I I OXOX).- I < 6X< ;Xp ,X,X,XG.G.8.p < < ;X- < ).< I ).OX< s j Z q q ",
"q q q q U t I OXOXOX).).).< j.k.Z.F.].&X&X].s.r.e.- - - - I I ).OX).p I < ;X< 6X8.,X,X,X,XG.8.< 6X< 6X- p I < < ).).< s s U q q ",
"W R W G W < ).OXOXOX).).I < j.j.Z.m.].#X#X].u.u.a.p.X -.- I I ).OX).8.< I < < 6XG.5X5X5X5X,XG.< ;X< 6Xp p I < < ).I < s T W s U ",
"Q E _ E ) I OXOXOX).).).I 2XV.k.l.m.XX_.@XXXs.e.d.p.- -.p < I I ).).8.;X< < 8.6X5X5X5X5X5X5X,XI < < 6Xp p I < < ).< m s U U W q ",
") E E _ < ).OXOXOX).).).< 2XV.j.l.b. X+X$X}.r.a.d.u.W.- p - I I I ).8.,X5X5X5X5X5X5X5X5X5X5X5X< < I G.8.p < < < I < m s U q q q ",
"E ) ~ ~ < OXOXOXOX).).I < 1XB.j.l.b.{.`.$X{.r.y.d.d.W./.- - < I < ).I ,X5X5X5X5X5X5X5X5X5X5X5X5X5X5X,X8.p < < < < < m s q j U q ",
"_ / E E I OXOXOXOX).).I 4X2XV.j.l.b. X_.$X{.s.a.d.u.W./.!.R.< I < ).I ,X5X5X5X5X5X5XG.-.-.-.,X5X5X5X,X8.p < < S < D.m s j q q q ",
"W U U j ).OXOXOX).).).I 4X1XB.j.l.b.|.|.$X{.s.t.d.u.W.Q.^.R.=.< < I I G.5X5X5X5X5X,X-.-.-.-.5X5X5X5XG.p X ;.< L < D.m s E E U E ",
"8 q 7 < ).OXOXOX).).).< 4X:XB.j.l.v.XX_.$X{.s.y.y.u.E./.!.R.>.=.< < I G.,X5X5X5X5X-.-.-.-.G.5X5X5XG.p - - ;.< S a D.b Y ] _ _ _ ",
"q q q < OXOXOXOX).).).< 4X1XV.j.l.b. X_.$X{.r.y.d.u.W./.!.R.>.=.=.< I p 8.,X5X5X5X-.-.-.,X5X5X,X8.p - - 4.:.d S d D.b T ' _ ] _ ",
"U U U I OXOXOXOX).).).< 3X1XV.j.z.v. X_.%X}.r.t.u.u.E./.^.R.=.=.=.>.< < p p 8.G.,X,X,X,X,XG.8.p - - - +.r 3.8 S d D.m G ] ] _ Q ",
"E W U I OXOXOX).).).).< 3X1XV.j.k.v. X_.$X}.r.t.d.u.E./.^.R.>.8.G.G.8.I ` ` ` p p p p p ` < p < - - [.'.3 5.9 S d D.b Y ] ] / E ",
"8 q q I OXOXOX).).).).< 3X1XV.j.l.m. X_.$X}.r.u.d.u.E./.!.R.8.G.,X5X5X8.< @.Y.< I < I < p < < < < < >XL * 6.8 S a D.m Y _ ) ) / ",
"7 q q I OXOXOX).).).).< 3X1XB.j.l.v. X_.$X{.f.t.d.u.E./.!.R.8.G.-.5X5XG.< I < I ).< %.I p p < < < T...- N 3.9 S d D.m x / E _ E ",
"8 7 8 < OXOXOX).).).).< 4X:XV.j.l.v. X@X%X{.r.t.d.u.E./.!.R.8.G.-.5X,X<X< p.W.-XI I %.%.I p < < < j * <.0.6.2 S d D.n x ) E E E ",
"7 8 8 < ).OXOX).).).).I 4X:XV.j.l.m. X_.$X{.r.t.d.u.E./.!.R.p G.,X,XS.I < ;X;X;X).).;X%.I < < < % * t t t = ^ P i D.m Y _ _ E ~ ",
"7 8 8 7 I OXOX).).).).I 4X2XV.j.l.v. X_.$X{.f.t.y.u.E./.!.R.>.8.J.I I - > p.;X;XI ).I p 8.8.< < C C 9 C D F [. .t D.m x E E E T ",
"U G q G I OXOXOX).).).I 4X2XV.j.l.v. X_.$X{.f.t.d.u.E.~.!.R.>.< < X - - 1 % &.&.- < 8.,X,X,X8.< T.[.-X8.,X,X,XP i D.m s q q q w ",
"U U W W < OXOXOX).).).).1X1XB.C.l.m.|._.$X{.r.t.d.u.E.Q.!.R.,.- - - - - - - - - - I ,X5X5X5X,X- - < ,X,Xp p 8. .i D.n f G Z G Z ",
"q U U G < ).OXOX).).).).< 1XB.k.z.m. X`.+X{.i.t.s.p.E.~.!.< ` _ - - - - - - - - - ).,X5X5X5X,X- - I 8.,X8.,X,X..u H.n G R G U Z ",
"U U U q U I OXOXOXI ).).< 1Xm.k.z.m..X_.$X|.s.t.d.< I I < %.;X%.- - - - - - - - - ).,X5X5X,X8.- - I p ,Xp p 8.P i H.n G W E E W ",
"_ _ _ _ ! < OXOXOXI ).).< 1XF.j.z.m. X`.$X{.s.t.< ).- - < ;X;X;X%.- - - - - ` ` ` ).8.,X,X8.p - - I 8.p 8.,X,X .i H.n G E E E E ",
"E _ _ _ E < ).OXOXI ).).I 1XB.k.k.m.|.`.$X{.i.t.).- - - < ;X;X;X;X- - - ` ` 8.` 8.< I 8.8.p - - - I 8.p p 8.p ^ u H.n x E R E E ",
"_ _ E E E t I OXOX).I ).I < C.z.x.m.|.`.%X@Xs.t.).- - - < %.;X;X;X%.- - ` -.` -.` ` < p p - - - - < p 8.p p [.P i D.N U E E E U ",
"E ~ T Q Q r < ).OXOXI I ).< L.A.A.K.oX+X*X*Xd.).I - - - - I %.;X;X;X%.` - - - - - - I I < - - - - , < ......[...r D.B Y ~ E E E ",
"E _ _ ] Q r 6.< ).OX).< I I c c x x L L J L l ).< < - - - ).< I I %.%.%.< - - < ` ` < I I < < < X.X.Y.I.+.o.-XD g D.M s T U W W ",
"E E Q E U r 3.M < ).).I < I < S S S F F G F D D OXI < - OX< - - < < I I I - - - < < X < < < < < X.X.X.X.U.I.D e 6.S.{ e W U q q ",
") E E _ @.@ N 5.M < ).).I < < > > 3 > 6 > y 3 > OXI I OX< - - - - - - - - - - - - - - < < < < < < O O 3 > @ 4 5.S.0.a ( ! j 8 w ",
"E E E _ Q 3 t <.2.<.N I I I < < 3.3.4.2.1.1.4.1.1.OXOXI < - - - - - - - - - - - - - < < < < < < < 9.9.9.q.9.0.M.n.9.o Q W q 8 w ",
"~ E / _ ] ] @ h } 2.4.9.< < I I < 9.9.9.q.9.9.q.9.9.0.< < I I < - - - - - - - - - I < < < < S.< < < S.S.M.S.S.0.7.f | Q E j q q ",
"T E Q E Q ^ O.. * v } N [ } } } { } { N { { { N { N N 3.I ).OXOXOX< I I < < I I I < 2.< < < < 2.2.2.3.<.2.3.2.v @ ~ U U U q w 8 ",
"8 q q q 8 7 9 8 #.5 o % O + X X X + + . X X O O + + + O , 8.,X,XG.< < < < p G.G.8.p O $ < < < < @ + O + + . 9 @.q q Z q q q q Z ",
"q 8 q q w q q q q j . B B | c f c c a c a x M [ [ M M M M p ,X5X5X8.<.<.} < I I I < <.} <.} < < < < 2.{ c . J z J q j j q q q q ",
"U J q q q q j q W W ] % @ O . O @ o % % % $ $ O $ O $ $ @ < I ).).I 4 & 4 - - - - - * 4 * & o 3 $ % & @ $ Y w q w q q q 9 7 q q ",
"q q q q q q U q q q q E W 3 : P X 3 R W W W T E E E E E E - - - X - R E E - - - I - ! E E _ 2   P : ; T E q q q j j q q q q q 8 ",
"_ ' _ _ @.' ' ] E E ' ' O.K +.A , #.` ] ' _ _ _ _ _ _ ] _ - - - I - ] ' _ _ - - - - - J U J ) X C U.5 ~ G Z q q q q q q q w 8 7 ",
"#.#.#.$.$.$.#.#.$.$.#.#.9 S C e &.$.#.#.$.$.$.$.$.#.#.$.$.- - - - - - #.#.O.- - - - - - z U z W 5 S C z U z z Z U q q q q q 8 q ",
"' ' O._ _ ' ' ' #.#.' &.R C   $.' #.$.#.@.@.@.$.#.' #.O.' - - - - - - ' O.] - - - - ).- - q q q R   1 ^ _ j q U q q q q 8 8 7 7 ",
"#.#.' ' ' O.' #.#.#.#.q   ^ #.#.#.#.#.' ' #.#.' O.#.' ' O.- - - - OX- - O.@.- - - - - - - - U J U E W   o J U U U G s G G 0 q 8 ",
"@.' _ ] ] #.#.' O.' ] _ $ $.' @.#.' ' ' ' #.$.#.#.#.#.$.$.- - - - - - - - ] < - - X - - - - W U U R E 3 W J Z q q q q q 8 8 9 8 ",
"G U W U U U U U G q q 8 q G q J U U U q U U U q q U U U U < I - - - - - - q J < < I I I I < U s q U q q z q 0 G 8 8 8 9 7 7 7 8 ",
"U U W G q q q q J U U j U Z U U q J U s U U q U U U U J W U < I ).).).).I J U U W U J W U U U q U J U q z q q G 8 8 8 7 9 7 w 8 "
};
