/* XPM */
static char *miku_71677691821[] = {
/* columns rows colors chars-per-pixel */
"64 64 221 2 ",
"   c #060608",
".  c #1A1516",
"X  c #140D0A",
"o  c #2B1C1D",
"O  c #291A17",
"+  c #341C18",
"@  c #2A0B15",
"#  c #2C221B",
"$  c #2A2218",
"%  c #34251D",
"&  c #36291E",
"*  c #382418",
"=  c #353011",
"-  c #1B1D22",
";  c #111822",
":  c #0D1A2A",
">  c #241D22",
",  c #331E25",
"<  c #1E2D35",
"1  c #1E2533",
"2  c #0D3F3C",
"3  c #1D272F",
"4  c #2D2223",
"5  c #2C2C2C",
"6  c #272628",
"7  c #322422",
"8  c #382A27",
"9  c #3D322B",
"0  c #37322B",
"q  c #242C3C",
"w  c #262D35",
"e  c #342D34",
"r  c #2E3336",
"t  c #353535",
"y  c #3B3433",
"u  c #363937",
"i  c #393937",
"p  c #353539",
"a  c #3C3C3C",
"s  c #383739",
"d  c #472A18",
"f  c #522917",
"g  c #532B19",
"h  c #4B1F26",
"j  c #432728",
"k  c #44342A",
"l  c #4E372C",
"z  c #5B3025",
"x  c #56392B",
"c  c #433D3D",
"v  c #4A3734",
"b  c #5D3E33",
"n  c #583C3C",
"m  c #633C36",
"M  c #613C2A",
"N  c #3E413F",
"B  c #41413F",
"V  c #4A413F",
"C  c #5B4437",
"Z  c #594123",
"A  c #764729",
"S  c #764829",
"D  c #684A3A",
"F  c #72523E",
"G  c #6F4E36",
"H  c #1A2B4D",
"J  c #292D41",
"K  c #272C44",
"L  c #2B3548",
"P  c #363642",
"I  c #3E3E41",
"U  c #333B4C",
"Y  c #383E49",
"T  c #293853",
"R  c #373D52",
"E  c #261E47",
"W  c #413F41",
"Q  c #7C3640",
"!  c #3E4242",
"~  c #39424B",
"^  c #3B4356",
"/  c #3C4765",
"(  c #2E466A",
")  c #197065",
"_  c #434343",
"`  c #4A4344",
"'  c #454946",
"]  c #484947",
"[  c #454649",
"{  c #454A49",
"}  c #4C4C4C",
"|  c #494748",
" . c #514E4E",
".. c #4C504E",
"X. c #51504E",
"o. c #4A4D56",
"O. c #544E52",
"+. c #4E5151",
"@. c #545454",
"#. c #52555B",
"$. c #5B5B5B",
"%. c #575857",
"&. c #664942",
"*. c #7E544A",
"=. c #795444",
"-. c #615956",
";. c #464C67",
":. c #495469",
">. c #575867",
",. c #4A5674",
"<. c #525977",
"1. c #514E6D",
"2. c #615F60",
"3. c #566477",
"4. c #5C676D",
"5. c #636363",
"6. c #696969",
"7. c #666867",
"8. c #686A74",
"9. c #777A7E",
"0. c #757477",
"q. c #6B756D",
"w. c #9E3B3E",
"e. c #A63832",
"r. c #A6393C",
"t. c #A73733",
"y. c #A63A2E",
"u. c #CC2435",
"i. c #8A5D39",
"p. c #94633B",
"a. c #9D3B40",
"s. c #A13C42",
"d. c #A33A48",
"f. c #A03851",
"g. c #81554B",
"h. c #8A5D4B",
"j. c #875C49",
"k. c #965E45",
"l. c #895C53",
"z. c #904750",
"x. c #896448",
"c. c #996848",
"v. c #9A6B54",
"b. c #926F58",
"n. c #AD6348",
"m. c #A76A49",
"M. c #A9774D",
"N. c #AA7556",
"B. c #A8765A",
"V. c #B57B5A",
"C. c #B67757",
"Z. c #AD6E4F",
"A. c #B57F62",
"S. c #B87A64",
"D. c #A97A60",
"F. c #9A7660",
"G. c #C17C5C",
"H. c #D49935",
"J. c #B5825C",
"K. c #BB865C",
"L. c #B58063",
"P. c #BD8961",
"I. c #BA8369",
"U. c #AF8163",
"Y. c #C48864",
"T. c #CA926C",
"R. c #C69167",
"E. c #CD937A",
"W. c #CE9978",
"Q. c #C38D73",
"!. c #D8A755",
"~. c #3F519B",
"^. c #375498",
"/. c #364E8D",
"(. c #3F5EB2",
"). c #3E61B4",
"_. c #3565B1",
"`. c #4C5686",
"'. c #575D82",
"]. c #585992",
"[. c #585893",
"{. c #42518F",
"}. c #4B6485",
"|. c #586585",
" X c #5C708E",
".X c #656987",
"XX c #697295",
"oX c #6F7390",
"OX c #485FAF",
"+X c #4764AE",
"@X c #4766AA",
"#X c #4365B2",
"$X c #707CA5",
"%X c #5079C9",
"&X c #954C96",
"*X c #914EAD",
"=X c #EB7990",
"-X c #2EAD91",
";X c #748896",
":X c #7684A7",
">X c #708CAA",
",X c #4BDDB2",
"<X c #878EAE",
"1X c #8AA4B7",
"2X c #9CA4B5",
"3X c #A7ADAF",
"4X c #B4B3B2",
"5X c #858B89",
"6X c #E5B9A4",
"7X c #D7A282",
"8X c #B3B2C0",
"9X c #AFB7C2",
"0X c #92B2C7",
"qX c #C3BDC7",
"wX c #B9C4D6",
"eX c #9DC1D9",
"rX c #C9C7D4",
"tX c #FDE6D3",
"yX c #FBFCFD",
"uX c #E6E9F8",
"iX c #D0D0E8",
/* pixels */
"_ _ a _ _ a _ [ _ B a _ _ _ _ B [ _ ] _ [ ] } } } @.%.@.%.%.@.] ] @.X.O.@.@.@.@.@.] _ _ _ _ [ _ _ ] [ [ [ W a B [ _ ] ] a u ! B ",
"a a _ a a a a a a a a a a a a a a a B c a [ X.@.%.%.2.} X.$.@._ a _ } X.$.$.$.@.} } ] a a a a _ c B B a N ! ] @.@.} X.} B a a a ",
"a i s u i a t s s a a a - - c a B B _ ! _ [ ] } } 2.5 5.| +.} } } W ] [ ] } } ] _ [ ] _ a a _ _ W a a W B a [ r 6 ' y i t 5 5 5 ",
"W _ _ _ _ _ a _ _ _ _ - u.- - [ [ [ _ [ ] _ N _ y n l.h $.I a - - _ a a a a a a _ a a a a I _ a a a a a s s ! n z.@ _ 6 5 5 5 5 ",
"_ [ N _ [ _ _ W _ [ - u.- 2 ) ) ) 2 2 2 2 2 2 2 2 2 2 h O.[ W > z - _ _ [ | _ a _ a c ! a a a a a a I s u s > a.=X+ } 5 5 5 5 5 ",
"a a _ N B a a a 2 - z 2 ) ) ) 2 2 ) -X-X-X) ) 2 2 2 2 2 2 W W - u.- _ B _ a a [ _ N _ a a a a a a a a a p I O.@ j n ' s s e t t ",
"_ c a a a a a 2 - 2 ) -X-X-X,X,X-X) ) ) ) -X-X-X-X) 2 2 2 2 [ - u.- _ B _ _ ] _ _ _ _ _ _ W _ _ a a ] _ @.$.5.} o.a t s t s t 5 ",
"a a a s s i a - 2 -X-X-X-X,X,X,X,X,X,X,X-X) -X,X,X,X-X) 2 2 2 - u.- 2 ) ) [ [ _ a a a ! c _ N i a _ c ] @.] @.s t e t t t t t 5 ",
"t s u s s i - ) -X,X-X-X,X,X-X,X,X,X,X,X,X,X-X-X,X,X,X,X) 2 2 - u.- ) -X-X) } ] [ ] [ [ [ B _ a a _ O.5.6.] a I s t a i s t t s ",
"a s i a i a ) -X,X-X-X-X,X,X-X,X,X,X,X,X,X,X,X,X-X,X,X,X,X) 2 - u.- -X,X,X-X) [ | | [ N _ _ _ W _ ..$.%.[ c a a a a i t s 5 s i ",
"r r t s s ) -X,X,X-X) ,X,X-X,X,X,X,X) ) -X,X,X,X,X-X,X,X,X-X2 - u.- ) ,X,X,X-X] ] [ _ ] } ] ] ' @.@.$.@.[ _ ] ] a a a s t s i s ",
"B ` _ ] 2 -X,X,X-X) -X,X,X-X,X,X,X,X) n.) ) -X,X,X,X-X,X,X,X) 2 z u.- -X,X,X,X2 $.$.%.%.%.$.2.2.] @.$.%.@.@.@.%.! a a s s s t 5 ",
"$.%.%.%.) ,X,X,X-X) ,X,X-X) ,X,X,X,X) E.E.n.) -X,X,X,X,X,X,X-X2 - u.- ) -X,X,X) %.@.#.O.$.$.q.5.6.7.@.%.5.@.#.X.a a a a t s t 5 ",
"%.$.$.2 -X,X,X-X-X) ,X,X) ) -X,X,X,X) E.E.E.n.) -X,X,X,X,X,X,X) 2 z - 2 -X,X,X) } @.5.0.s s 7.%.>.$.X.@.@.@.%.%._ c a a a u u i ",
"} } @.) -X,X,X-X) -X,X-X) n.) ,X,X,X) E.E.E.E.n.) -X,X,X,X,X,X-X2 - z - ) ,X,X-XiXuXyXyXrX8.N 5.2.$.$.$.@.%.@.%.} [ _ _ N _ _ a ",
"@.@.2 -X-X,X,X-X) ,X,X) n.n.) -X,X,X) E.E.2 2 2 ) -X-X,X,X,X,X-X2 - z - 2 -X,X-X2 2X2X<X9XwXo.~ } } X.X.X.} } _ a u t t t t t t ",
"@.] 2 -X-X,X,X-X) ,X,X2 2 n.n.) ,X,X-XE.2 E.6X6XE.) -X,X,X,X,X-X2 - z - 2 -X,X,X2 5 7 8 8 5 0 $ 0 9 y 9 0 9 y W ` I a s s t s t ",
"c _ 2 -X) ,X,X-X2 ,X-X) n.2 E.n.-X,X-X6X6X6X6X6X6X) -X-X,X,X,X-X) - - - 2 -X-X,X) B.C.C.C.J.J.I.C.V.V.V.V.V.S.b.k W s s t t t r ",
"{ | 2 -X) ,X,X-X2 ,X) n.E.E.E.E.) ,X-X6X6X6X6X6X6XE.) -X,X,X,X-X) - - c.c.) -X,X) C.C.G.m.c.c.m.v.v.m.v.c.c.N.W.7XD c W a a c a ",
"{ } 2 -X2 ,X,X-X2 ,X) E.E.E.E.E.n.-X-X6X6X6X6XE.E.E.) -X-X,X,X-X) - - - 6 2 -X-X) 2 I.D 4 r e e e t s e r u # j.E.Q.* [ N a a a ",
"a a 2 ) 2 ,X,X-X2 -X) n.n.E.E.E.E.) -X6X6Xn.- - - - n.-X-X,X,X-X) - - - oX2 -X-X) 2 D a :.H L L P R R R T / <.e x.T.=.} i a a a ",
"u t 2 ) 2 ,X,X-X2 ) - - z n.E.E.E.E.) 6Xn.z 2 2 2 2 - ) -X,X,X-X2 - - - .X>X-X-X) ) 6 }.Y & 7 0 8 v v 9 j 7 3.( j T.S k a N a c ",
"_ c ! 2 2 -X,X-X2 - 3X2 2 z n.E.E.6X6X6Xz 3X2 yX2 ) - ) -X,X,X) 2 - - - E ;.) -X-X) 2 K 7 n.v.&.# 0 l v.J.p.5 U l R.A c a _ N a ",
"a a a 2 2 -X,X-X2 - yX2 yX2 n.E.6X6X6X6Xn.yX2 3X2 ) z ) ) ,X-X) - - - - /.: 2 -X-X) ) T 7 k.m P ;XXXr d i.p.i T v R.S c B a a a ",
"[ ] [ _ 2 ) ,X-X2 z yX2 2X2 E.6XtXtXtXtXE.yX2 2 ) 2 n.n.) -X-X) - u.- _.@XH :.-X-X-X) 2 8 F - 1XeX>X1X2 k v.s T v T.S c ` [ c _ ",
"} } X.} +.2 -X-X2 z yX2 2 ) 6XtXtXtXtXtXtXyXn.2 2 3XE.n.) -X) 2 z u.- +X+X{.J ) -X-X-X) 2 F r 1X;X5X;X3.& v.9 U v T.S c ] _ _ N ",
"} } X.@.} 2 ) -X2 n.E.) 2 2 tXtXtXtXtXtXtXtXtXtXtXtX6Xn.2 ) ) - z - ].(.+X~.J 2 -X-X,X-X) 2 . 4.1X>X0X3.* c.y T l T.S c _ _ c ! ",
"} @.X...} 2 ) -X2 n.6XtXtXtXtXtXtXtXtXtXtXtXtXtXtXtX6Xn.2 ) ) - - w.].).#X~.J w ) -X-X,X,X-X) 2 4.>X X3 =.p.0 T v T.S c a a N a ",
"@.@.] } ..2 ) ) 2 n.6XtXtXtXtXtXtXtXtXtXtXtXtXtXtXtX6Xn.2 ) 2 t.r.w.[.(.#XOXq 1 2 -X-X-X,X,X,X-X) 2 $ G b.i.i T v T.A c a a a N ",
"[ _ _ B { f 2 ) 2 z E.tXtXtXtXu.u.u.u.u.u.tXtXtXtXtXn.2 2 ) a.e.r.w.].(.+X{.J < C ) -X-X-X,X,X,X,X-X) 2 p.i.u ~ x T.A V } } _ [ ",
"s i t s { f 2 ) ) 2 z 7XtXtXtXE.u.u.u.u.u.tXtXtXtXE.- - 2 2 s.t.r.a.].(.+X~.J < C U.) -X-X-X,X,X,X,X,X-X) H p T x T.S ` %.@.X.@.",
"a a a a { f A.2 ) P 4Xz n.6XtXtXE.u.u.u.E.tXtX6X- - - 2 2 &Xr.e.r.a.].).+X~.J < Z J.N ) -X-X-X,X,X,X,X,X,X-X) 2 v T.S ` $.@.@.$.",
"[ ! _ _ { f L.k H P 8XrX2 z n.E.6X6X6X6X6XE.n.z - - 2 2 *X&Xs.e.r.w.].).+X~.J < C J.0 T ) -X-X-X-X,X,X,X,X,X,X-X) 2 S B %.%.+...",
"] ] _ ] { f L.k 3 R 8XrXwX2 z 2 #.z z z z z #.#.2 n.E.E.n.&Xs.e.r.w.].).+X~.J < b J.y L e ) -X-X-X-X-X,X,X,X,X,X-X) H ` %.%.+...",
"s a N a ] f J.k 1 P 8XrX9X2 n.n.z ) 2 ) 2 #.9.2 2 6XtXu.6Xn.s.e.r.w.].).#X{.J < C V.0 T 8 F H -X-X-X-X-X-X,X,X,X,X,X) 2 @.@.+...",
"t a s a ' 6X6X6Xn.P 8XrXwXZ.6X6X6Xn.2 -X) 2 ) 9.) tXtXu.6XE.s.e.r.w.].).#X^.J < b V.t T h k.k 2 ) -X-X-X-X) -X,X,X,X,X) X.] @...",
"u t s t { n.z z 6X6X2 - wX6XtXtXtX6X2 - #.9.3X9.) E.6X6XE.E.s.e.r.w.].).#XOXq w C V.s < * F.l.k 2 ) -X-X-X-X) -X,X,X,X-X2 } } } ",
"t s s u { 6X6Xn.6Xn.) - - 6XtXtXtX6X) - - - 9.- 2 ) E.E.E.n.s.e.r.w.].).+X{.J < M J.e :.5 = = d + 2 ) -X-X-X-X) -X,X,X,X) @...X.",
"s s i s ! n.z z 6Xz ) - - n.6XtXtX6X-X- - - - - - - ) ) n.&Xs.e.s.w.].).#X~.J < b V.4 oX<.J U L r L 2 ) -X-X-X-X) ,X,X,X-X2 ] ] ",
"B B a a { 6X6Xn.z n.) - - z n.6X6Xn.-X- - - - - - - - - 2 &Xs.e.r.w.[.(.+X~.J < C J.7 '.$X.X.X:X$X;X<X2 ) -X-X-X) -X,X,X,X2 a a ",
"[ B _ ] { z n.z z n.) - - - z n.n.) -X#.#.- - - - - - - - &Xd.t.r.a.].).@X^.q w b A.6 |.3.+.X.>.oXoXoX<.) ) -X-X) ) ,X,X,X) c a ",
"a B c _ { f z z n.z 2 - - - - z z -X2 n.#.n.#.#.- - - - #.#.f.y.e.r.[.).@X~.q w m A.# oX^ #.q.L .X$X.XY 5X) -X-X-X) -X,X,X) _ ! ",
"_ _ _ a { f L.9 2 2 2 - - - - - 2 ) - #.u.#.u.#.- - - - 9.9.#.y.t.a.[.).@X{.K w M J.6 |.XXR q .XoX$X<X.Xw 4.) -X-X) ) ,X,X) ] [ ",
"@.@.@.@...g J.k 1 2 - . - - - - 2 2 - - - #.#.- - - - 3X3X3X9.2 r.a.[.(.+X{.K K Z J.5 ].|.;.1.;.;.;.,.,.<.,.2 -X-X) 2 ,X,X) } } ",
"O.@.@.@.} f L.9 R Y >.uX- - 6 H.2 - - 2 - - - - - 9.3X3X3X3X#.2 - w.[.#X#XH #.T Z A.6 .X'.R ;.;./ ;.;.;.;.;.:X) -X) 2 -X,X) ] } ",
"@.....} } g A.k R 4.3 4XuX9X!.H.2 2 ) ) 2 #.9.9.3X3X3X3X3X9.2 - - - [.%X/.1 .XT x L.> .X].;.1.:.;.1.>.<.,.<.>X2 -X) 2 -X,X2 ] [ ",
"} ..| O.} g A.& T oX/ P 4.4X!.!.- - - ) 2 #.3X3X3X3X3X9.) 2 - - - - <.H q >.$XK x L.> XX|.^ :.:.;.1.,.:.:.;.>XH -X2 2 ) -X2 } X.",
"} @.@.%.X.g v.+ e .X<XXX^ +.C - - ) ) ) 2 #.3X3X3X3X) 2 - - - - - - - 1.oX<X X1 M L.o |. X:.<.<.<.<.|.'.3.4.:XW ) 2 D ) -X2 _ ] ",
"} } @.} ! j x.F 4 ^ |.|. XL 2 - - 2 ) - - 2 oX) ) 2 - - - - - - - - . 2 }.3.~ e B.I.F w / ,.`.<.,.<.<.`.`.'.^ 5 2 2 =.2 -X_ a a ",
" .} ] X.2.+ F x.D 7 > O O # 2 ) - - - - - ) ) 2 . - - - - - - - - - - ) % + y F.V.B.K.=.6 $ , 7 7 % + # , + 8 b.Y.2 x %.) W t a ",
"..} O.+.X.7 g j.j.g.F h.b.i.p.2 ) 2 - - - - - - - - - - - - - - - - 2 2 N.N.A.V.C.Z.C.V.A.M.M.B.N.N.N.B.D.N.J.J.V.Z.X } 2 a t s ",
"@.} O.@.%.@.+ D =.c.p.B.B.J.B.B.2 ) ) 2 - - - - - - - - - - - - ) -X) Y.K.Y.K.J.K.J.J.J.P.P.Y.P.P.P.K.P.Y.Y.Y.C.F.m -.} } N a a ",
"[ ] }  .} } $.. = D =.F F =.*.=.=.*.n.) -X-X-X) 2 2 ) -X,X) -X,X,X) j.h.h.h.j.j.x.h.h.h.j.j.h.h.h.x.h.x.x.v.x.C + X._ ! _ a i p ",
"u a a a u t s s $.w X O O . . . . O n.E.E.n.z 2 ) -X,X,X) ) 2 2 o # o > o o o o o O + o # o o o + o # O O X p >.a a ! c a a a a ",
"a s a a a a a a a B . D D &.` D C C 2 ) ) ) 2 &.&.D n.6XtX6Xz *.g.g.g.g.*.*.g.g.g.g.g.*.j.*.l.l.l.l.l.=.&.. a B I a N N a a c a ",
"_ _ a a a a a a [ [ %.# + O . o + X - - - - - 4 % # ) -X-X) 2 & % & & & & & & % & & & 8 & % X # # $ * + # _ a a a a a u a s a u ",
"a a i a a a [ a a a a } [ 6 : / . 6 - ) - - - ] { } - - - - - } | | [ ] } } } } | } } } { @.w   ^ : ; ] ] B a a a N a a a a s s ",
"@.$.@.@.2.$.%.$.X.} $.$.5.~ :.U - - - - - - @.@.@.@.- ) - - - $.%.#.$.$.%.@.%.%.[ a ! _ _ _ +.. K '.w ..W I a a a a a i a a s t ",
"7.5.5.6.6.6.5.5.6.6.5.5.p R ~ w - - - - - - 5.6.6.- - - - - - 5.2.2.$.5.5.2.2.7.@.a _ _ _ _ B ] J T L N [ B _ a _ a a a a a i a ",
"$.$.5.@.@.%.$.$.2.5.$.0.{ q   - - -X- - - - 5.5.5.- - - - - - %.@.@.@.$.2.@.$.$.] a B _ a c a a {   1 o.@.a a _ a a a a a u t t ",
"5.5.$.$.$.$.$.5.5.5.5.a   [ - - - - - - - - 5.$.- - ,X- - - - 5.2.7.2.5.$.5.5.6...a N N ! _ _ _ _ } {   X ! _ _ B _ a N a a s s ",
"$.$.@.$.$.5.5.$.2.$.%.@.6 7.- - - - - - - 2 5.- - - - - - - - 5.2.5.2.$.$.$.$.5.} c _ [ [ [ _ _ _ [ } 6 [ N ! a a a a a i s t s ",
"B _ [ _ _ _ _ _ B a a s a I 2 ) ) ) ) 2 2 [ ! - - - - - . ) 2 _ ! N c _ _ a _ a _ B ! c a _ _ c a a a I B a a a s s u t t t t t ",
"_ [ _ c a a a a I _ _ N _ I _ _ N c _ B _ _ _ ) -X-X-X-X) 2 [ _ _ [ _ [ B _ B [ [ _ _ _ [ B _ ! _ _ _ a N a i c a i a t t t t s "
};
