/* XPM */
static char *miku_101677691820[] = {
/* columns rows colors chars-per-pixel */
"64 64 215 2 ",
"   c #030407",
".  c #0B0F11",
"X  c #191416",
"o  c #13100D",
"O  c #2B1D1D",
"+  c #271B18",
"@  c #341A18",
"#  c #260E13",
"$  c #2C231B",
"%  c #2A2115",
"&  c #34251D",
"*  c #37271A",
"=  c #3B3012",
"-  c #1B1D22",
";  c #111822",
":  c #071727",
">  c #271E21",
",  c #361E2C",
"<  c #1D2B34",
"1  c #0D3F3C",
"2  c #1E262D",
"3  c #2C2C2C",
"4  c #282527",
"5  c #302423",
"6  c #332D2B",
"7  c #3A2925",
"8  c #3C322B",
"9  c #36332C",
"0  c #262C37",
"q  c #322D33",
"w  c #2F3336",
"e  c #353535",
"r  c #3B3433",
"t  c #363937",
"y  c #393937",
"u  c #353539",
"i  c #39353A",
"p  c #3C3C3C",
"a  c #363A39",
"s  c #472A1B",
"d  c #57341E",
"f  c #502F1B",
"g  c #492C25",
"h  c #4D332B",
"j  c #483528",
"k  c #5B3025",
"l  c #56382B",
"z  c #4C3734",
"x  c #443D3D",
"c  c #493833",
"v  c #593D35",
"b  c #633C36",
"n  c #613C2A",
"m  c #3E413F",
"M  c #42413E",
"N  c #49423A",
"B  c #594133",
"V  c #594123",
"C  c #764729",
"Z  c #78472A",
"A  c #76482B",
"S  c #764827",
"D  c #684A3A",
"F  c #784936",
"G  c #6C573D",
"H  c #292C44",
"J  c #2A3549",
"K  c #3E3E41",
"L  c #343A4C",
"P  c #32324C",
"I  c #2B3B53",
"U  c #283555",
"Y  c #363953",
"T  c #332E56",
"R  c #1B2549",
"E  c #413F41",
"W  c #7C3640",
"Q  c #3E4141",
"!  c #3A414B",
"~  c #354C52",
"^  c #3A4663",
"/  c #2E466A",
"(  c #197065",
")  c #434343",
"_  c #4A4343",
"`  c #484947",
"'  c #454549",
"]  c #4C4C4C",
"[  c #474848",
"{  c #514D4E",
"}  c #4E504E",
"|  c #51504E",
" . c #4C4D51",
".. c #434C59",
"X. c #514F51",
"o. c #5F4B57",
"O. c #4F5151",
"+. c #535353",
"@. c #52555B",
"#. c #5B5B5B",
"$. c #585756",
"%. c #674B43",
"&. c #7A5446",
"*. c #605C5D",
"=. c #454C6A",
"-. c #475467",
";. c #475674",
":. c #54526B",
">. c #615F60",
",. c #526576",
"<. c #5A676A",
"1. c #636363",
"2. c #696969",
"3. c #686974",
"4. c #777A7E",
"5. c #747374",
"6. c #CC2435",
"7. c #8C5C36",
"8. c #94633B",
"9. c #81554C",
"0. c #8A5D4A",
"q. c #865C49",
"w. c #885D52",
"e. c #904750",
"r. c #896443",
"t. c #986748",
"y. c #996B53",
"u. c #8F6B56",
"i. c #AD6348",
"p. c #A36A47",
"a. c #A97557",
"s. c #B57B5B",
"d. c #B7775B",
"f. c #AA724D",
"g. c #B67A64",
"h. c #C07C57",
"j. c #3EA355",
"k. c #469F47",
"l. c #439F54",
"z. c #44A256",
"x. c #CA9C3C",
"c. c #CC9C3A",
"v. c #D29D35",
"b. c #D49A37",
"n. c #D89F2C",
"m. c #B5825C",
"M. c #B8855B",
"N. c #BA9E5B",
"B. c #B79F5B",
"V. c #BE9F4F",
"C. c #B8A158",
"Z. c #B98464",
"A. c #AE8160",
"S. c #C59E4E",
"D. c #CA9B4D",
"F. c #C59B45",
"G. c #E0A24B",
"H. c #C68C66",
"J. c #CB926C",
"K. c #C69167",
"L. c #CD937A",
"P. c #CA9474",
"I. c #C38D73",
"U. c #C4B260",
"Y. c #DEA94B",
"T. c #3F519B",
"R. c #4F5685",
"E. c #576586",
"W. c #58698B",
"Q. c #63688B",
"!. c #636692",
"~. c #677294",
"^. c #71758B",
"/. c #697CA4",
"(. c #EB7990",
"). c #2EAD91",
"_. c #3CBCBA",
"`. c #668698",
"'. c #768A96",
"]. c #7684A6",
"[. c #748EAB",
"{. c #51B3B2",
"}. c #50B6BA",
"|. c #4AB4B8",
" X c #60BDB5",
".X c #5E8894",
"XX c #4BDDB2",
"oX c #45CAB9",
"OX c #32BDC4",
"+X c #46BCC6",
"@X c #5FC3C3",
"#X c #878993",
"$X c #8697B6",
"%X c #8AA4B7",
"&X c #91ABB8",
"*X c #A7ADAF",
"=X c #BEB9BF",
"-X c #BFBCB7",
";X c #D7A282",
":X c #CCBBBA",
">X c #E5B9A4",
",X c #8599C2",
"<X c #BEB9C0",
"1X c #92B2C7",
"2X c #C3B8C7",
"3X c #9DC1D9",
"4X c #B7C3D7",
"5X c #B8C3D7",
"6X c #B6C2DA",
"7X c #BCCCED",
"8X c #C9C7D7",
"9X c #D4DCDF",
"0X c #FDE6D3",
"qX c gray99",
"wX c #E5EDFF",
/* pixels */
") ) x Q ) ) ) [ ) p p ) ) ) ) E ) [ [ [ ) ' ] ] ] +.#.+.$.$.+.[ _ +.| - - +.+.] +.[ ) ) ) ) [ ) [ [ ) [ [ E p M [ [ [ [ p y K ) ",
"p p Q p p p p p p p p p p p p p - - p E p [ | +.+.$.#.] | #.+.[ p ) - - 6.- 1.+.] ] ] p y p p ) p ) x K m Q [ +. .] | ] M p p p ",
"p p p e p e e e e p p p p p p - k - ) p ) [ 1 1 1 1 1 1 1 1 1 ( ( ( ( 1 - 6.- ] ) [ [ ) p p ) ) K p p K M p ] u 4 ` e y t 3 4 4 ",
"p ) ) ) ) ) p ) [ ) ) ) [ ) [ - 6.- ) [ 1 1 1 1 1 1 ( ( ).).).1 1 ( ( ( ( 1 k - 1 p p p p x Q p p p p p u i Q b e.# ) 4 3 q 3 3 ",
") [ ) ) [ ) ) ) [ [ ) 1 ( ( E - 6.- K 1 1 1 1 ( ).).).).( ( ( ( ).).).).).).( 1 - 1 p ) p p p p p K p p e u > W (.@  .9 3 3 3 3 ",
"p p ) ) p p p E p p 1 ).XX).( - 6.- 1 1 1 ( ).).).).( ( ( ).XXXXXX).XX).).).).).1 - ) p p p p p p p p p u K o.# g E ) t y e e q ",
") p p p p p p p y u ( XXXXXX).- 6.- 1 1 ( ).).XXXX).).).).XXXXXXXXXX).XX).).).XX).( - ) ) E ) ) p m [ ) +.#.>.]  .E e t e e e w ",
"p p p e p y y u e 1 ).XXXX).( - 6.- 1 ( ).XXXXXX).).XXXXXX).XXXXXXXX).XXXX).).).XX).( ) p ) ) y p x p ] +.] +.e q q e u 9 e e 3 ",
"e y p e y e e y y 1 XXXX).( 1 - 6.- 1 ).XXXXXX).XXXXXXXXXX).).XXXXXXXX).XXXX( ).).XX).( [ m ) p K ) +.1.2.] p p i i p p e e e e ",
"p e y p p p E p p ( XX).( ( - 6.k 1 ( XXXXXX).XXXXXXXXXX).).( XXXXXXXX).XXXX).( ).XXXX).1 M E Q ) ] #.#.) p p p p p p e e e e e ",
"e q e e e p p p p ( ).).( 1 - 6.- 1 ).XXXXXXXXXXXXXX).).( ( ( XXXXXXXX( ).XXXX( ).).XXXX( ` ` ` +.+.#. .) [ ' ] E p p u e e p e ",
") [ ) ]  .[ ] ] 1 ).).).( 1 - k 1 ( XXXXXXXXXXXXXX).).( L.i.( XXXXXX).( ( XXXX( ).).XXXX).1 >.>.] +.#.+.$.+.$.$.x p p e y e w e ",
"#.$.$.$.#.$.+.+.1 ).).( ( - k - 1 ( XXXXXXXXXXXX).).( L.L.L.( XXXXXX( i.( ).XX).( ).XXXX).( 3.1.2.1.+.#.1.$.+.+.p p p y e e e 6 ",
"$.#.#.@.] | +. .( ).).( 1 - k - 1 ).XXXXXXXXXX).).( L.L.L.L.( XXXX).( i.i.( XXXX( ).).XX).).1 $.#.#.| +.+.+.$.+.) ) p p p p u a ",
"] ] +.+.] ] X.+.( ).).( 1 - k - 1 ).XXXXXXXX).).( 1 1 1 L.L.( XXXX( i.i.1 1 XXXX( ).).XX).).1 1.1.#.#.#.$.+.$.+.] [ [ ) p ) ) p ",
"+.+.] ] +.+.+.1 ).).).( +.- - - ( ).XXXXXX).).( i.L.L.( 1 L.( XXXX( L.1 i.( ).XX1 ).).XX( ).1 ) ] ] ] O. .] ] ) p e e e e e e e ",
" .] ] ] ` [ [ 1 XX).).( g 6 - - ( ).XXXXXX).).( L.>X>X>X>XL.).XX).i.L.L.L.i.( XX1 ).).XX( ).1 5 9 8 r 8 9 9 8 E [ K p e a e y u ",
"M ) ) ) ) ) $.( XX).).( t.- - - ( ).XXXX).).( L.>X>X>X>X>X>X).XX( L.L.L.L.L.( XX1 ).).).1 ).1 g.d.d.d.d.g.g.g.u.g E e y e e e q ",
"[ [ ] ] | m s ( XX).( ( 8.- - - ( ).XXXX).).( L.>XL.L.>X>X>X).).i.L.L.L.i.i.( ).1 ).).).1 ( 1 p.a.y.p.y.8.p.a.L.;XD ) E p p M p ",
"[ ] [ ' ] 7 1 ).XX).( 1 5 > - - 1 ).XX).).( i.- - - - L.>X>X).( L.L.L.i.k - - ( 1 ).).).1 ( 1 q q q y e t w & 0.L.I.& [ m p p p ",
"p p p y { v 1 XXXX).( 1 /.- - - 1 ( XX).).( - 1 1 1 1 k L.>X( L.L.L.i.k 1 1 *X- 1 ).).).1 1 J J H Y L ! I ^ ;.r r.J.%.] y K p p ",
"e e e e x f ( XXXX).( 1 u - - - - ( ).).( ( - ( 1 qX1 *Xi.>X>X>X>XL.i.1 qX1 qX- 1 ).).( 1 1 5 6 8 h c 8 7 7 ,./ g J.A c p p p E ",
"E ) m E E f ( XX).).( 1 ^.:X- 6.- ( ( ).( i.k ( 1 *X1 qXL.>X>X>X>X>XL.1 *X1 qXk 1 ( ).( 1 1 y.%.$ 9 j y.s.8.6 L l K.S x p E m p ",
"p p p x _ 1 ).XX).).( 1 wX2X- 6.k 1 ( ( ( i.i.1 ( 1 1 qX>X0X0X0X0X0X>X( 1 1 qXk 1 ( ).1 1 1 b u ].~.w s r.8.r I c J.S x M E p p ",
"[ [ ) ) ] 1 XXXX).).( 9X3X8Xx.X k - ( ( 1 i.L.*X1 1 *XqX0X0X0X0X0X0X0X1 1 ( L.i.1 ( ( 1 1 ( 1 %X3X[.&X1 g y.e I c P.A x _ [ m ) ",
"] ] X.X.O.( XXXX).).( 8X<X:XD.x.- - ( ( 1 i.>X0X0X0X0X0X0X0X0X0X0X0X0X0X0X0X>Xi.1 ( ( 1 1 ( 1 %X'.'.'.,.7 t.c P h J.A x ` M ) p ",
"] ] | +.] ( XXXX).).( 8X6X2XD.x.v.B.1 ( 1 i.>X0X0X0X0X0X0X0X0X0X0X0X0X0X0X0X>Xi.1 ( ( 1 1 ( 1 ,.&X.X1X,.* t.r I z J.S x ) p x Q ",
"} +.O.] ] ).XXXX).).( 8X6X=XD.x.v.B.{.( 1 1 i.0X0X0X0X0X0X0X0X0X0X0X0X0X0X0XL.k 1 ( 1 1 1 ( 1 4 ,.`.^.0 %.r.8 I z J.A x p Q m p ",
"+.] ] ] 1 XXXX).).).( 8X6X<XD.x.v.N.{.1 1 1 k L.0X0X0X0Xi.>X0X0X0X>X0X0X0XL.k - ( ( 1 1 1 ( ( 1 X 6 % G y.7.y I v J.Z x p p p m ",
"[ [ ) M 1 XXXX).).).( 8X6X<XS.x.v.B.{._.1 1 1 k i.>X0X0X0XL.i.i.L.0X0X>Xi.k - - ( 1 r 1 1 ( ( 1 &.u.y.p.8.7.y I h J.Z N } ] [ [ ",
"e p e e ( XXXX).).).( 8X4X=XS.x.v.N.{._.+X1 l.1 1 k i.L.>X>X>X>X>XL.i.k - - - < 1 m.8 1 ( ( ).1 + $ s t.p.7.u U l J.Z E $.+.] +.",
"p p p p ( XXXX).).).( 8X5X=XD.x.v.N.{._.+X{.l.k.1 1 @.@.k k k k @.1 k - - - H < B m.p 1 ( ( ).( ..`.<.g t.7.i U z J.C [ #.+.$.$.",
") ) ) ) ).XXXX).).).( 8X6X<XD.x.v.N.{._.i.i.k k.( ).).( @.@.@.1 @.k k k k R.H < v M.8 1 ( ( ).( 1 $X7X,.s u.u U h J.S E $.$.X.X.",
"] [ ) 1 ).XXXX).).).( 1 5X<XD.x.v.N.{.i.0X0XL.i.k L.i.).1 4.1 ( 1 @.1 k i.k l < v m.r 1 ( ( ).).1 ].$X.X$ u.u I z J.S _ $.$.| { ",
"e p m 1 XXXXXX).).).).1 5X<XD.x.v.C.{.L.0X0X0X>X6.L.L.).*X1 ( ).( 1 @.1 i.k i.k B M.r 1 ( ( ( ).( `.&X~ @ u.e I l J.A _ +. .X.| ",
"e p p ( XXXXXX).).).).1 6X<XS.x.v.N.1 1 L.>X0X0X>Xi.L.).*X*X*X( ).*X^.1 k k i.k v m.e 1 1 ( ( ).).1 =.X 7.0.i U z J.C _ +.] X.| ",
"y e p ( XXXXXX).).).).( 6X<XS.x.v.N.@.( ).( L.>X0Xk i.( *X*X*X( XX( *X4.k k k k b m.t 1 1 ( ( ).).1 * q.g.t.q U h J.Z x | ] ] ] ",
"e e e ( XXXXXX).).).).( 6X<XD.x.v.N.@.@.1 ).).( 1 1 ( 4.*X*X*X4.XX).*X4.1 ( ( 1 l M.q =.1 ( ( ).).( f k d = ' =.h J.Z _ +.+.] | ",
"e y p ( XXXXXX).).).).( <X<XD.x.c.N.@.6.- - - 1 ( 1 1 @.4.*X*X4.XXXX( ^.1 1 - - B M.5 ~.1 ( ( ( ).).1 H T P ].=.f J.C N ] ] ] [ ",
") p p ( XXXXXX).).).).( 1 2XD.x.v.N.@.@.- - - - - - 1 @.@.4.4.( XXXX( @.- - - - B m.5 R.1 ( ( ( ).).( [.!.#X,X/ j J.S x x p p y ",
"[ M [ ( ).XXXX).).).).).1 =XS.F.v.C.@.6.- - - - - - @.@.@.@.@.( XXXX).@.- - - 0 v g.4 E.1 1 ( ( ).).).1 #.$.'.=.h J.F x x ) x p ",
"p E Q 1 ).XXXX).).).).).1 =XV.b.c.C.- @.- - - - - @.@.@.@.4.4.).XXXXXX@.- - - 0 b g.4 ^.1 1 ( ( ( ).).( #XE Q.=.g J.Z E ) M ) Q ",
") ) ) 1 ( XXXXXX).).).).( <XV.c.b.B.2 - - - - - - @.@.4.*X*X*X).XXXXXX4.- - H < l m.4 E.~.1 ( ( ( ).).).1 ,.$X=.h I.A E ' [ ] [ ",
"+.+.+.+.( XXXXXX).).).).( =XV.x.b.C.{.- - - - - @.@.4.*X*X*X*X).XX- - *X=.R.H H V m.> !.E.1 1 ( ( ).).).( :.].-.j P.A _ +.] ] ] ",
"+.+.+.+.1 XXXXXX).( ).).).1 S.x.v.C.{._.+X{.l.k.@.4.*X*X*X*X*X( XXXX).*X@.R o.U V Z.4 Q.R.1 1 ( ( ( ).).).1 ]...g P.Z N [ [ [ ] ",
"+.|  .] 1 ).XXXX).( ).).).( F.n.n.C.{._.@XOXl.1 ( 4.4.*X*X*X*X( ).- - *X*X@.^.J l Z.5 Q.E.=.1 ( ( ( ).).).).1 ^ j J.F x ] | ] ) ",
"] ] [ X.] ( XXXXXX).( ).).).1 G.Y.U.oXoX@X1 ; - - 1 ( 4.*X*X*X4.( XX( 4.*X1 `.J l Z.> !.E.^ 1 1 ( ( ( ).).).).( s J.D [ +.] ] ] ",
"| +.+.$.] 1 ).XXXX).( ).).).( B N N ~ ~ ( - - - - ).1 1 ( ( *X*X4.).1 ( *X- - < n A.O E.~.-.1 1 ( ( ( ).).).).).( J.D x _ ) [ [ ",
"] ] +.] Q g ( XXXX).).( ).).( 1 U U T ).- - - - XX1 - - - - 1 ( ( ( - 1 ( - - - a.Z.G 0 ;.;.R.1 ( ( ( ( ).).).).).( &.9 [ Q p p ",
"] ] ] | >.@ 1 ).XXXX).( ( ).).( 5 4 , ).( - XXXX1 - - - - - - - - - - - - - - ( d.a.M.&.4 % 5 1 1 ( ( 1 ( ).).).).).1 #.] K e p ",
"] ] |  .| 5 d ( ).XX).).( ( ).( 1 r.t.( XXXX).1 - - - - - - - - - - - - - ).( s.f.d.s.g.s.p.f.a.1 1 ( ( 1 ( ).).).).( 1 ` K e y ",
"| | X.+.+.$.@ b ( ).XX).).1 ( ).( 1 a.a.a.1 1 ).XX).( 1 ( ( ( 1 1 ( ( XX).( 1 M.M.M.M.M.M.H.M.H.Z.1 ( ( ( 1 1 ( ).).).1 ] p p p ",
"[ ] ]  .] ] #.X = ( ).).).).1 ( ).( 1 &.&.&.&.1 ( ( ( ).XXXXXX).( ).XX( 1 k q.q.0.0.0.0.q.0.0.0.r.0.1 ( ( ( ( 1 1 ( ( ( 1 p t a ",
"e p K p y e p a >.3 1 1 ( ).).1 ( ( ( 1 X X + + + i.L.L.L.i.> $ O k i.L.L.i.O O O @ O O O O O O 5 O O 1 1 ( ( ( 1 1 1 1 1 1 p p ",
"p e p p p p p p p Q X D 1 1 ( ( 1 B B B z l D %.%.( L.>X>Xi.9.&.&.1 ( ( ( 1 9.&.9.9.9.&.q.9.w.w.w.0.w.&.B 1 1 1 1 p m Q p p p p ",
") ) p p p p p p ) ' $.% % + 1 1 1 1 % $ $ $ $ $ $ - ( ).).1 7 & 7 - - - - - 7 7 & & * 7 * % o $ $ @ & @ 5 ) p p p p p y p y p y ",
"p p y p p p ) p p p p ] [ 4 : -.X > ] [ [ [ [ ] ] - - - - - ` ] ] X - - 1 - ] ] ' ] ] ] ] +.0 . ..: ; ` ] p p p p E p p p p e e ",
"$.#.+.+.>.#.#.#.] | #.#.1.L -.J - 2.@.$.@.+.+.+.- - - - ).- $.#.@.- - - - - $.$.[ p Q M ) Q O.X H R.0 } K K p p p p p p p p p e ",
"1.1.1.2.2.2.1.1.2.2.1.1.u Y ! w 5.2.1.2.2.2.2.- - - - - - 2.1.1.1.- - - - - - 1.X.p ) ) ) ) M ` w U J M [ m ) x ) p p p p p p p ",
"#.#.>.$.+.@.#.#.1.1.#.5.! 0 . 1.#.1.1.1.>.>.>.- - - - - - @.>.@.- - - - ( - - >.] p M ) K p p p ' . 2 ..+.p p ) p p p p p e e e ",
"1.>.>.@.$.>.#.1.1.1.1.p   ] 1.2.1.1.1.#.#.1.- - - - - ( - #.1.1.- - - - - - - - | p p Q E E ) ) ) ] '   . M ) ) ) ) p E p p e e ",
">.#.$.$.#.1.1.#.>.#.$.+.4 2.#.>.1.#.#.#.>.1.- - - - - - - - 1.>.1 - - - - - - - ] ) [ ) [ [ ) [ Q ' ] 4 [ m E p p p p p p e e p ",
") m ` ) ) ) ) ) ) p p y p K p Q Q Q ) p M ) 1 - - - - - X - ) ) Q 1 1 ( ( ( ( 1 ) p ) p p ) ) p p ) p p m p p p e e u e e e e e ",
") [ ) m p p p p K ) ) Q Q K ) ) x Q ) m ) M m 1 ( ).).).( 1 [ ) ) [ ) ) ) ) Q ) [ ) ) [ ) K ) m ) p ) ) m p p x p p p e y e e e "
};
