/* XPM */
static char *miku_31677154609[] = {
/* columns rows colors chars-per-pixel */
"64 64 100 2 ",
"   c #1B1D1F",
".  c #171E24",
"X  c #1B1D22",
"o  c #0C3F36",
"O  c #0D3F3C",
"+  c #103E3C",
"@  c #2D2D2D",
"#  c #2E302D",
"$  c #31312F",
"%  c #353535",
"&  c #383637",
"*  c #353836",
"=  c #3A3937",
"-  c #363638",
";  c #39363A",
":  c #373939",
">  c #3C3C3C",
",  c #5B2F25",
"<  c #5D2F29",
"1  c #5B3025",
"2  c #593029",
"3  c #403E3E",
"4  c #0D4037",
"5  c #0C403C",
"6  c #3E403E",
"7  c #41413E",
"8  c #0D3F40",
"9  c #3E3E41",
"0  c #413F41",
"q  c #3F4141",
"w  c #176F63",
"e  c #1A6F65",
"r  c #1B6F68",
"t  c #177165",
"y  c #197165",
"u  c #177268",
"i  c #197068",
"p  c #434343",
"a  c #484647",
"s  c #464846",
"d  c #484846",
"f  c #464649",
"g  c #494749",
"h  c #464949",
"j  c #4C4C4C",
"k  c #514F4E",
"l  c #4E514E",
"z  c #52514D",
"x  c #4E4E51",
"c  c #514F51",
"v  c #4F5151",
"b  c #545454",
"n  c #585657",
"m  c #565856",
"M  c #595957",
"N  c #53555A",
"B  c #595759",
"V  c #575959",
"C  c #5B5B5B",
"Z  c #605E5F",
"A  c #5E615F",
"S  c #61615F",
"D  c #5E5E60",
"F  c #615E61",
"G  c #5F6064",
"H  c #636363",
"J  c #696967",
"K  c #676668",
"L  c #676968",
"P  c #696969",
"I  c #777A7E",
"U  c #797A7E",
"Y  c #CC2435",
"T  c #AD6346",
"R  c #AD6349",
"E  c #CD9477",
"W  c #CD937A",
"Q  c #D0947A",
"!  c #777A81",
"~  c #787880",
"^  c #2DAD8F",
"/  c #30AD8F",
"(  c #2DAD91",
")  c #30AC91",
"_  c #4BDDAE",
"`  c #47DEB0",
"'  c #4BDDB2",
"]  c #4DDAB8",
"[  c #A6ADAE",
"{  c #A8ADAE",
"}  c #A6ACB0",
"|  c #A8ADB0",
" . c #A4B0B0",
".. c #E6B7A3",
"X. c #E5B9A4",
"o. c #E8B9A4",
"O. c #E6B9A9",
"+. c #FDE6D3",
"@. c #FEE8D2",
"#. c gray99",
/* pixels */
"p p > p p p 6 a p p > p p p p 9 p f p a p s j j j N n N M n b f f b j z m b b l b h 0 p 7 a a p a h a a a q > 6 a s h g > & p q ",
"> > p > > > > > > > > > > > > > > > p > q h z b b M C j z C b h > p j b B Z H b h v j > > > > 3 > 7 3 6 0 7 h b l j j j p > > > ",
"> > & * & * & & % > > > > > > > 6 p 7 p p p h j j z z j d c j j j p p p s j j d p p h p > > 0 X . > > 9 > 3 > > > > % & % @ @ @ ",
"> p p p p p 6 p p p p p a p s a s f s p a p 3 3 p p s s . . 0 0 q p 6 > > > > : p > > > 3 3 . X Y X > 9 > : * % @ $ @ @ @ @ @ @ ",
"p a p p a p p q a a p a p a q h h p > 0 p p p p p 3 0 X < X q 0 3 0 5 O 5 O O O o O + O i e y 5 X Y X > & > ; & $ $ $ # @ @ @ @ ",
"> > q p 6 > > > > > q > > 6 3 p 3 9 7 7 > q 0 i y o 0 X Y   p 9 o 5 5 O 5 o e i ( ) ( t 5 4 y y y o < X o & % : : > : & % @ % @ ",
"p > > > > > > > : * > * % > & : > > 3 3 9 p i ) ( ^ O X Y   3 O O O 5 y ( ( ( ) y t i e ^ ' ' ' ) / r o X O q 0 > : & & % % % @ ",
"> > > & : > & & % > : & & > > > q > > 9 p i ) ' ' ' ( X Y   8 o O y ( ' ' ' ( y y ( ' ' ' ' ' ' ' ( ( ( t X q > # % % % % % % @ ",
"% & > & & & & ; & & : $ > > 6 > > > > > 9 ( ' ' _ ' ' X Y X O 5 t ' ' ' ' ( ^ ( ' ' ' ' ' ' ( ' ' ( ) ' ' ( y 9 ; - > : & % % % ",
"> & > > : > 7 > > > > > 7 p 7 > p p p p y ' ( ( ( ( ) . Y X O e ] ' ' ' ( ( ' ' ' ( ' ` ' ' ' ) ' ' e ( ' ' ' ( e > > % * # * : ",
"$ % % & * > > > : * % > > p > > p p h y ' ( ( e r e w X Y   O ( ' ` ' ' ^ ' ' ' ( y i ' ' ' ' ( ' ' ( e ' ' ' ' ' ^ 9 - & & * ; ",
"p p p h k h h j j j l j j j z c z b y ' ( y y e t O X Y , + y ' ' ' ] ( ' ' ' i y R i ' ' ' ' y ) ' _ ( y ' ' ' ' ' e ; % % % $ ",
"M M V V C M b b N n M N B n m m b y ' ( i y y 5 O H X Y . o ( ' _ ' ' ' ' ' t R W Q t ^ ' ' ' y y ^ ' ' w ( ' ' ( ' ( > % % % $ ",
"V C M n j x b v l b b b n N l 5 ( ' ) i y y 5 B H n X 1 O t ] ' ' _ ' ' ' e R W W W T ( ' ' ' e R t ' ' ( t ' ' ' ( _ t > > & * ",
"j j b b j j b b j M M b C M e ( ' ^ y y y 8 C C C X , X O ( ' ' ' ' ' ' y R W W W W W y ' ' ' y R R ) ' ' t ( ' ' e ' ( q p q 9 ",
"b v j j b c b b b b c j j y ' ' / y y y 5 B b M Z . ,   O ( ' ' ' ' ' ' y o 5 O W W W y ' ' ) R T R e ' ' ( e ' ' e ( ' 5 % % $ ",
"v j j h d a a d h j g g e ' ( ( r t t 5 > > > 7 p X < X o ) ' ' ' ' ' ( w X.X.W o E W e ( ' ( T o O R ( ' ' O ' ' ^ i ' y & & - ",
"0 p s p p p p g 6 p d y ' / ( y t y O p f p p f p X X X r ^ ' ` ' ' ' e X.X.X...O.X.W T ( ' y 8 R R R y ' ' O ^ ' ' O y ' + & # ",
"g h j j j j j j j x e ' / ^ ^ y y o a f p p p f j j X X e r ' ' ' ' ^ e X.X.X.X.X...X.W w ' t W W W R e ( ' O ( ' ' o O ' O q > ",
"h h a a a a d s a y ' ' ^ ) e e O 7 f p p 6 p 0 7 X X . y y ' ' ' ' y W W W ..o.X.X.O.W y _ e W E W W R ( ' 5 y ' ' 5 + ) 5 > > ",
"> > > & % > : > y ' ' ( ( ( e o * 0 p p p a p > > X X X i y ) _ ' ' i X X X . T X.X.O.X.W ( W W E R T R e ' O r ( ' o > i o > > ",
"* & ; & - % ; w ` ' ' ( ( t u > > > > > 3 6 7 p a X X X 5 y ( ' ` ' . 5 5 5 O 1 R X.X.X.W t W R < X . R o ^ 5 r ( ' O p 8 > > > ",
"6 6 7 3 q 0 o ( ' ' / ( ( e 3 p 3 > q 7 > 6 p p p X X . + e y ' ' ^ X e 8 #.5 } 1 X.X.X.W W R , O O [ X 5 ( O e ( ' O q p 0 6 > ",
"> > > > : > r ' _ ] ( ( ( 5 > > > > > > 3 9 > > 0     . X y y ( ' ( 1 y 5 | o #.T X.X.o.X.W R O #.O #.X < e o O ( ( 4 7 > > > > ",
"a a a p p O ( ' ' ' ( ( e o > q a p p p a a f a p s X Y X i i ) ' ^ R 5 y 8 O #.W +.+.+.+.o.W 8 } O #.1 , e O O ( t 5 a p p p p ",
"j k j l b y ' ' ' ^ ( ( w b N b v b b b b b b V V C . Y 1 5 y y ( ) R } o O T #.+.+.+.+.+.+...y + O #., 2 e O O ) O p s a q p 6 ",
"j j v v 5 ( ' ] ' ( ( ( O b n b b b b b V C C M C C F X 1 X i t t ) T X.+.+.+.+.+.+.+.+.+.+.@.o o i W R , 8 O O e 8 f f q p > 3 ",
"c b l l O ' ' ' ' / ^ y o b b b b m n b C C M b C M n C X X 5 y O ) r X.@.+.+.+.+.+.+.+.+.+.+.+.+.+.X.T 1 O 8 o o O 9 > > > q > ",
"v b j x r ] _ ' ' ( ( r C b N m b b z b M b b b b N b b b b 5 y o ^ t X.+.+.+.+.+.+.W Y Y Y X.+.+.+.X.R < o 5 > o > > > > > 6 9 ",
"h 7 p p ( ` ' ' ^ ( ) e 7 p p q a b b b b v N M C M b b M n b 5 5 y t W +.+.@.+.+...Y Y Y Y +.+.+.+.W , X x 5 b 5 j b j j j a a ",
": > % O ^ ' ' ' ( ( ^ O & : > & q C H G b M D C V n C C C C H C O 8 y W X.+.+.+.+.Y Y Y Y W +.+.+.Q < . X M O m n M M N b b v b ",
"> > > o ' ' ' _ ^ ( ( o > > > > p b C C H C C M C C A V M C G C D O t 1 R X.+.+.+.Y Y Y o.+.+.X.T , X . V C C M H D C H C b n b ",
"p p p t ' ' ' ' ( ^ ) O j j h a j H C C G J C A H M b m M H C G J H O 5 , 2 R W X.o.X.X.X.W T 1 X X X b n b n b b M b b b M b j ",
"a a p y _ ' ` ( ^ ( ^ 5 h k j h j M C C C C C G G Z H H H H H T W W R t N N N , , 1 1 2 N 5 1 O X X M C G C A m M M b b b M b j ",
"* > 3 i ' ' ' ( ( ( ( O > > > a > > > > > 7 q a a a p p a 6 R W X.+.+.T O N U O y + y O 1 5 O + o O H D C F M N b N b N b b j v ",
"% : > y ' ' ' / ( ) ( o ; > > > % : > & > * % $ $ @ % % @ # R W Y +.+.W o e O t ( + ! w , 2 O 5 O p n b b b b b b b z b b h j b ",
"> & : 5 ' ' ' ( ( ( ( O > > : * & > > & & % % % * & & % # % R W Y +.X.W O I I U y y U U y , O O O f D m m b n b V M b c k j j j ",
"$ % : 5 ( ' ' ( ^ ( ) w & % & & > > > : > * % & * & * # % % , W O...W e O } | [ ( /  .I y O O O @ p C M m n b n b b b b b b j b ",
"& & = & y ' ' ( ( ( ( y > p q p p a p s p q q p q > 9 > > > f R W y w X X I [ [ w ) r 1 R R o + p a b v j j h h h h a h j j h g ",
"7 p > 7 t ' ' ' / ( ( y h a s a p a p p a p a a p a f p p p j 5 O . X X X X U I . O R X...X.R O j a p R O.X.X.p p p p 7 > > > > ",
"a 7 a p O ' ' ' ^ ( ^ ( p a p a f a f f a p a a p a p 6 p > p X X X X X X X X X X r ..+.+.+.O.. X o X.X., , R p 3 p p > p 3 > > ",
"> 7 9 p O ( ' ' ( ( ^ ( O 3 3 p p 6 p 9 > q q > 9 p a h a O N N X X X X X . X X X ( X.+.+.+.X.X . y R X.T X.X.h a p a j p p p p ",
"p p 7 > 9 u ' ' ' y ( ) O q > > 7 p p a p p q > p O y e o I } U X X X X X X . . X ^ X.+.+.o.R X . y 2 ..1 , T j h h h h h j a a ",
"N b b b b O ' ' ' e ( ( + b b b m M m M M V m n + ( . X O } | } U X X X X X x D N ^ T X.X.T 1 X X y T , R X.X.j j k c b b j j j ",
"b b b b b o ( ' ' e ( ( r C M C C S M C n V M N ^ X X X O | { } { X X X N N T N R O e R R < X X X e T 1 < T , x b b b b d h h j ",
"b k j j b N e ' ' ( w ( u + N b V N b b b c b b ) X X X O I | { | ! X . D Y N Y N N O , , X X X X 8 1 T , < z b c j j h j j j a ",
"j x a c b j o ( ' ' e t ( O m M m n V b n b n ^ t X   X . e U | { | I N . X X   . X e e o X . X X X 5 l b k j b b b b b b j h k ",
"j l b b b x x O ( ' ( O t e b b b n j b b j b ( 5 O X X X ^ o y y U I U O . X 8 N N O i i O 5 o b b b b x b b j h h j h a p a a ",
"j j b j j h j j 5 ( ( y O y O j j j j j k x j j ' y 5 X ' 8 . X + o e r y X X X O + . 8 o O O O b b z N j a j j a h h a h p > > ",
"j j h b c h c z b 5 ( ( e O 8 b x l k j l k k a ' u i ' 5 X X X X   X X X X X X . X X O 8 O 5 O 8 j j j j j g h h j h h k 3 % > ",
"j j c k z b k k x c j e y y O + b b b b b b j j j ' ' y O X X X X X   X X   X X X X O O 5 O O O O c z j b v l j h a a j a > & - ",
"b j b b m b b b c j b C o O e y o N b n b b b b b m b 5 5 e i o X X   X X . X . X w 5 O 8 5 D O o 5 M m m m b b b b j j j 7 > > ",
"a h j j j j j j j N b b b c x c v j j v l j h j j p x j e ( ' _ ] 5 y y O O e w y + j 5 O O O j x j x a a a s a a a p p q > > & ",
"& > > > > & : : 6 p q > q p > p 9 p > p q a > 6 p 7 0 > 3 R X.X.W 8 5 5 O , W W T 1 p p O o O O > a a > p > > > > > > > > > > > ",
"> : > > > > : > > 3 6 p p p a p p s a h s a a a a p s p p , X.+.+.T a p p o i y y o a h a a 8 o 5 O 9 7 9 > q p q > q 6 > > > > ",
"p q > > > > > > p a a p p q q q p 0 7 6 q > p p q q q p 6 O e ( ( i 7 > > . X X X   p 3 p 7 > > > > > > > > ; > > > > & > % > > ",
"> > > > > 9 a > > > > > > > - & : > > > > > > p 9 p 3 > 0 X X X X . 3 3 p . X X e . a 0 7 p p 7 p > p > > 7 > > > p > > > > : & ",
"N M b b G M V V j z M M D M N b b M b M M b b b b M n m b X X X y X M B b n X X X X X 3 p p p 7 6 p p q p 9 > > > > > > > & & & ",
"H H H J J J K H P P H H P P C H P H H H P K P P P H H P P X X X X X X S S C X X X X X X p p p 7 p p p a p p p 3 p > > > > > : > ",
"M S Z N b M M C H H C A J H S C H H K H G H H H H G G S B X X X X X X Z H n X X X X ) X . 3 > > > > > > p > > p > > > > : * & % ",
"H H C M M H C H H H H P P H F H H H H D C H H C S S C D F X X X X ' X X A H   X X .   X   X p q p p p p 6 p p p p p 6 6 > > * & ",
"D C V M b H H C H C M b H A C H H C M M H H H H K H H P P X X X . X . X X n o . X . X X X . a a p p p p p > > > > > > > > & & * ",
"p q a p p p p p p > > : > p 6 p p p p > p p p 9 q p 7 7 f O y X X X X . X > 3 + O e y y e O p > > > > > p > > > & % * & % % & & ",
"p a p 9 9 > > > > p p > p > 3 p > p p > 6 p > p p 7 p p p g o e ) / ( ^ i 3 p a a a p p p p p 0 p p p > 0 > > 6 > : : % & % & * "
};
