/* XPM */
static char *miku_91677691820[] = {
/* columns rows colors chars-per-pixel */
"64 64 206 2 ",
"   c #030407",
".  c #0B0F11",
"X  c #1E131A",
"o  c #1A1415",
"O  c #170C07",
"+  c #2C1B13",
"@  c #2B1C1D",
"#  c #241919",
"$  c #361C18",
"%  c #260E13",
"&  c #1A2217",
"*  c #2D231B",
"=  c #2B2114",
"-  c #36261B",
";  c #1B1D22",
":  c #111822",
">  c #071727",
",  c #2C1E23",
"<  c #1C242C",
"1  c #1E292F",
"2  c #1E2533",
"3  c #0D3F3C",
"4  c #2E2225",
"5  c #2C2C2C",
"6  c #272628",
"7  c #322322",
"8  c #362D29",
"9  c #3A2925",
"0  c #39322B",
"q  c #292D38",
"w  c #312D31",
"e  c #2F3335",
"r  c #353535",
"t  c #3B3535",
"y  c #363837",
"u  c #393A37",
"i  c #36363B",
"p  c #3B3439",
"a  c #3C3C3C",
"s  c #363A39",
"d  c #482A1A",
"f  c #522917",
"g  c #522A18",
"h  c #57341E",
"j  c #4C361F",
"k  c #462B25",
"l  c #443329",
"z  c #463227",
"x  c #5B3025",
"c  c #413D3E",
"v  c #573C35",
"b  c #603836",
"n  c #3E423E",
"m  c #29442B",
"M  c #41413E",
"N  c #584538",
"B  c #5B462B",
"V  c #684A3A",
"C  c #7C4C3C",
"Z  c #6A4D37",
"A  c #524A1C",
"S  c #282C45",
"D  c #2D3545",
"F  c #363642",
"G  c #3E3E41",
"H  c #36394A",
"J  c #2A3556",
"K  c #363755",
"L  c #3A2C4F",
"P  c #413F41",
"I  c #7C3640",
"U  c #3E4243",
"Y  c #39424B",
"T  c #384455",
"R  c #315052",
"E  c #3F4966",
"W  c #197065",
"Q  c #434343",
"!  c #494545",
"~  c #454946",
"^  c #484846",
"/  c #464649",
"(  c #454A49",
")  c #4C4C4C",
"_  c #494749",
"`  c #524D4E",
"'  c #4D504E",
"]  c #51504E",
"[  c #4C4D51",
"{  c #444C5C",
"}  c #514F51",
"|  c #4F5151",
" . c #545454",
".. c #52555B",
"X. c #5B5B5B",
"o. c #595756",
"O. c #7B5142",
"+. c #7B5448",
"@. c #67504B",
"#. c #464B67",
"$. c #495569",
"%. c #565867",
"&. c #4A4E72",
"*. c #4B5877",
"=. c #535978",
"-. c #546674",
";. c #58666B",
":. c #636363",
">. c DimGray",
",. c #777A7E",
"<. c #747374",
"1. c #CC2435",
"2. c #885A39",
"3. c #925B39",
"4. c #98633B",
"5. c #81554B",
"6. c #875C48",
"7. c #8F594D",
"8. c #956542",
"9. c #976748",
"0. c #8A6351",
"q. c #9C6D53",
"w. c #936C4C",
"e. c #AD6348",
"r. c #A26D43",
"t. c #A87657",
"y. c #B07A57",
"u. c #A77B63",
"i. c #B67F61",
"p. c #B97D63",
"a. c #3EA650",
"s. c #469E47",
"d. c #489F47",
"f. c #489C54",
"g. c #559554",
"h. c #47A24B",
"j. c #41A256",
"k. c #4CA151",
"l. c #44B04A",
"z. c #64946C",
"x. c #C99C3B",
"c. c #CB9F3A",
"v. c #D19E35",
"b. c #DEA930",
"n. c #B6905B",
"m. c #B78062",
"M. c #BA8365",
"N. c #B2A060",
"B. c #B2A254",
"V. c #CA9B4D",
"C. c #C89C4A",
"Z. c #D99645",
"A. c #CD937A",
"S. c #C59067",
"D. c #D0B658",
"F. c #ECC067",
"G. c #525882",
"H. c #566585",
"J. c #5C6890",
"K. c #646A87",
"L. c #667395",
"P. c #717593",
"I. c #747CA6",
"U. c #8A5595",
"Y. c #954F98",
"T. c #9A4AA7",
"R. c #A246A2",
"E. c #886190",
"W. c #EB7990",
"Q. c #2EAD91",
"!. c #5F8596",
"~. c #668795",
"^. c #7A9298",
"/. c #7583A5",
"(. c #748EA9",
"). c #4EAFB5",
"_. c #4CB5B7",
"`. c #53B3A9",
"'. c #4BDDB2",
"]. c #4DCDBC",
"[. c #32BDC4",
"{. c #45BDC6",
"}. c #5FC3C3",
"|. c #8294B3",
" X c #89A5B4",
".X c #91ABB8",
"XX c #A7ADAF",
"oX c #B8B6BC",
"OX c #CCBBBA",
"+X c #E5B9A4",
"@X c #849AC3",
"#X c #93AEC4",
"$X c #B4B3C1",
"%X c #BEBAC1",
"&X c #B9B7C5",
"*X c #BABEDB",
"=X c #C3B8C7",
"-X c #B7C3D7",
";X c #B8C3D7",
":X c #B7C2DA",
">X c #BCCCED",
",X c #CAC6D6",
"<X c #C9C7D9",
"1X c #D4DCDF",
"2X c #FDE6D3",
"3X c #F4F7FD",
/* pixels */
"Q Q a Q Q P Q Q Q Q a Q Q Q Q P Q Q ^ Q Q _ ) ) ) o.o. .; ;  .^ Q  .)  .o.o. .) o.~ Q Q Q Q Q Q Q _ Q ^ Q P a n Q ~ _ _ a y Q M ",
"a a Q a a a a a a a a a a a a a a a Q a Q _  . .o.o.X.; 1.; ; ^ M Q )  .X.X.:. ._ [ _ a a a a ; < M c U n Q _ o.} ) } ) M a a a ",
"a y y y y y r y y a a a a a P a Q Q Q Q Q Q ) ) [ X.; 1.; 3 W W W W 3 3 3 3 3 3 3 3 3 Q a a Q ; x ; a c c c _ y 6 P p p r r 6 6 ",
"P Q Q Q Q Q c Q Q Q Q Q Q Q _ Q _ Q Q Q Q Q Q n 3 ; x 3 W W W W 3 3 Q.Q.Q.W W 3 3 3 3 3 3 a Q ; 1.; a a y i U b 7.% P 5 6 5 5 5 ",
"Q _ Q Q Q Q Q P Q _ ! Q Q Q Q _ _ Q n Q Q Q Q 3 ; 3 W Q.Q.Q.Q.Q.Q.W W W W Q.Q.Q.Q.W 3 3 3 3 a ; 1.; a W W 3 , I W.$ ) w 5 8 6 5 ",
"a a P Q Q a a c a a P P Q a Q Q a a Q a a c Q ; 3 Q.Q.Q.Q.Q.'.Q.'.'.'.Q.W W W Q.Q.Q.Q.W 3 3 3 ; 1.; W Q.'.Q.3 % k v Q y y r r w ",
"Q c a a a a a a y y a y y u y y a a a M a Q ; W Q.'.Q.Q.Q.'.Q.'.'.'.'.'.Q.Q.Q.Q.'.'.Q.Q.W 3 3 ; 1.; Q.'.'.'.W [ { P y y e r y w ",
"a a a y y a y y y p y y y a a a Q a a G Q ^ W Q.'.Q.Q.Q.'.'.Q.'.'.'.'.Q.'.'.'.Q.Q.'.'.'.Q.W 3 ; 1.; W Q.'.'.Q.3 w w r y r r r 5 ",
"y y y y y y y a y y y r a a a a a a a a a W Q.'.Q.Q.W '.'.Q.'.'.'.'.Q.Q.'.'.'.'.'.Q.'.'.'.Q.3 ; 1.; 3 W Q.'.'.3 y y a y y r r p ",
"a u p a y a G a a a P c P P P a Q Q Q Q 3 Q.'.'.Q.W Q.'.'.Q.'.'.'.'.W Q.Q.'.'.'.'.'.Q.'.'.'.W 3 x 1.; W W Q.'.W a a y p y w y a ",
"r w r y y a a s a y y y a a a a M Q ~ ~ W '.'.Q.Q.W '.'.Q.W '.'.'.'.W W W Q.Q.'.'.'.'.'.'.'.Q.3 ; 1.; 3 W Q.Q.W P a a y y y y y ",
"Q _ Q _ } _ _ _ ) ) ` ) ) )  . .)  . .3 Q.'.'.Q.Q.W '.'.W W Q.'.'.'.W e.A.W Q.Q.'.'.'.'.'.'.'.W 3 x ; 3 W Q.Q.Q.3 a a y r r r w ",
"X.o.o.o.X.o.o.o. . .o.o.X.o.o.o. .o.o.W Q.'.'.Q.W Q.'.Q.W e.W '.'.'.W A.A.A.W Q.Q.'.'.'.'.'.'.W 3 ; x ; W W Q.Q.3 a a a r y p w ",
"o.X.X.o.)  . .) ] .. . .o.o.[ | ....3 Q.Q.'.Q.Q.W '.'.W e.e.W Q.'.'.W A.A.A.A.W Q.Q.'.'.'.'.'.Q.3 ; x ; 3 W Q.Q.W Q a a a y y y ",
"_ )  .| ) )  . .) X.X. .o.o.o.o.:.:.3 Q.Q.'.Q.Q.W '.'.3 3 e.e.W '.'.W A.A.3 3 3 W Q.Q.'.'.'.'.Q.3 ; x ; 3 W Q.Q.W Q Q Q P Q Q a ",
"o. .) ) '  . .' o.X.X. .....X.:.o.X.3 Q.W '.Q.Q.3 '.Q.W e.3 A.W '.'.W A.3 W A.A.e.W Q.Q.'.'.'.Q.W ; ; ; ) W Q.Q.Q.3 r r r y r w ",
"| _ } _ ^ ^ / ] ! 7 8 8 w 8 9 8 8 9 3 Q.W '.Q.Q.3 '.W e.A.A.A.e.Q.'.Q.A.+X+X+X+XA.W Q.Q.'.'.'.Q.W ; ; 0 0 W Q.Q.'.3 a y y r y y ",
"U Q Q Q Q Q o.k 2.q.9.r.9.9.9.9.9.9.3 Q.3 Q.Q.Q.3 '.W A.A.A.A.A.W '.Q.+X+X+X+X+X+XA.W Q.Q.'.'.Q.W ; ; ; p.W Q.Q.'.W y y r y r 8 ",
"( _ _ ) ) n d A.p.7.6.8.8.8.8.8.9.8.3 W 3 Q.Q.Q.3 Q.W A.A.A.A.A.e.Q.Q.+X+X+X+X+X+XA.W Q.Q.'.'.Q.W ; ; ; 9.W W Q.'.W Q P a a G G ",
"( ) _ ( ) 9 u.M.@.4 6 , $ c p p y p 3 W 3 Q.Q.Q.3 W A.A.A.A.A.A.A.W Q.+X+X+XA.A.A.A.e.W Q.Q.'.Q.3 ; ; ; m 3 W Q.'.Q.3 ) a a a a ",
"a a u y ` v u.Z 4 $.L.P.I.J S J J L H 3 3 Q.Q.Q.3 e.A.A.e.e.A.A.A.A.W +XA.e.e.A.A.A.A.W Q.Q.'.W 3 ; ; ; K 3 W Q.'.'.3 [ u G a a ",
"y y y y c f y.$ D J.~.K.e [ N B A B R 3 3 W Q.Q.3 e.A.A.A.+X+XA.+X+X+X+Xe.+XA.A.A.A.A.W W Q.Q.W ; ; ; ; 9 3 W Q.'.'.W l a n a a ",
"P c U Q ^ g m.k J L.T H P.+XF.D.b.D.].3 3 W Q.W 3 ; ; ; ; ; e.+X+X+X+X+XA.; & < X < e.e.W Q.W W ; 1.; q.m.3 W Q.Q.'.W c a Q P a ",
"a a a a Q g m.d T G.< XX3X=Xx.c.Z.S.`.3 3 3 Q.W 3 x XX3 Q.W +X2X2X2X2X+Xe.XX3 3XW 3 x e.W W W 3 x 1.; d 2.3 W Q.Q.'.Q.3 M P a a ",
"_ Q _ Q _ g m.z D T X.1X*XoXx.x.V.N.3 W 3 3 W W 3 e.A.3 3 3 2X2X2X2X2X2X2X3X3 3 3 XXA.e.3 W W X h <  Xq l q.W Q.Q.'.'.3 Q Q Q ~ ",
") } ] ) | g m.z 1 H -X<X*XOXC.x.b.B.3 W 3 3 W W 3 e.+X2X2X2X2X2X2X2X2X2X2X2X2X2X2X2X+Xe.3 W W < & ^.^.H.9 w.W Q.Q.'.'.W Q Q Q a ",
"} ) }  .) d m.l 2 i oX,X:X=XV.x.v.N.3 W 3 3 W W 3 e.+X2X2X2X2X2X2X2X2X2X2X2X2X2X2X2X+Xe.3 W 3 -..X!.#X-.- 9.W Q.Q.'.'.W Q a U a ",
"' ] ' ' ) f m.l 2 i oX,X:X%XV.x.v.N.3 W 3 3 3 W 3 x A.2X2X2X2X2X2X2X2X2X2X2X2X2X2X2Xe.3 3 W 9 6 -.(.!.1 Z 4.W Q.Q.'.'.Q.a n Q a ",
"' ] _ ' ) f m.l 2 D $X,X:X%XC.v.v.3 W W 3 3 3 W W 3 x A.2X2X2X+X2X2X2X+Xe.2X2X2X2XA.x ; 3 3 7.- o e - Z q.2.W Q.Q.Q.'.'.3 a a a ",
"_ Q Q c ( f m.l 2 i $X<X:X%XB.x.v.3 W W 3 3 j.3 W 3 U.x e.+X2X2XA.e.e.A.2X2X2X+Xe.; ; 3 3 8.O.6.+.+.t.9.4.2.W Q.Q.Q.'.'.3 ) Q ( ",
"u a r y ( f m.l 2 F $X<X-XOXV.x.v.3 Q.W W 3 j.h.3 3 U.R.x x e.A.+X+X+X+X+XA.e.< ; ; t 3 7 3.7.N + * d w.r.2.W Q.Q.Q.'.'.W  . . .",
"a a a a ( f i.l 2 F $X,X;XoXV.C.v.W Q.W W 3 a.h.h.f.U.R.T.Y.x 3 ..x x x x ....X ; m.y J 7 4.V # R ~.;.k 8.3.W Q.Q.Q.'.'.W o.o.o.",
"Q Q Q Q ( g m.l 2 F $X,X;X%XV.x.3 W Q.W W 3 j.s.f.f.U.R.x x x x ..3 %.....W Q.Q.W m.x e.e.6.O ;..X(.>X-.d 0.W Q.Q.Q.'.'.Q.o. .) ",
") ( Q ~ ( g m.l 2 F $X,X;X=XV.x.3 Q.Q.W W 3 j.s.k.f.x x e.x 3 ..3 W 3 z.3 Q.e.A.x e.A.2X2Xe.1 !.~./.(.~.* 3 W Q.Q.Q.'.'.Q.3 } ) ",
"y a a a ( f m.l 2 F $X,X;X%XV.x.W Q.W W W 3 j.s.k.x e.x e.3 ..3 W Q.W 3 XXQ.A.A.1.+X2X2X2XA.&  X(.~.#XR - 3 Q.Q.Q.Q.'.'.'.3 } } ",
"r a a a ~ g m.l 2 F oX,X;X%XV.3 Q.Q.W W 3 3 a.s.k.x e.x x 3 ,.XXQ.W XXXXXXQ.A.e.+X2X2X+XA.3 3 J  X!.#.# 2.3 Q.Q.Q.Q.'.'.'.W } } ",
"y r y r U g m.l 2 F $X,X;XoXV.3 Q.Q.W W 3 3 f.s.k.h x x x ,.XXW '.W XXXXXXW e.x 2X+XA.W Q.W ..l q U - 6.m.W Q.Q.Q.Q.'.'.'.W ) ) ",
"r p y y ~ g m.l 2 F $X,X-X%XV.W Q.Q.W W 3 ).a.f.k.3 W W 3 ,.XXQ.'.,.XXXXXX,.W 3 3 W Q.Q.3 ....d $ - z x z W Q.Q.Q.Q.'.'.'.W ) ` ",
"y y y y U g m.z 2 F $X,X;X%X3 Q.Q.W W W 3 ).f.d.k.; ; 3 3 ,.W '.'.,.XXXX,...3 3 W 3 ; ; ; 1...D F D e L K W Q.Q.Q.Q.'.'.'.W ^ ^ ",
"P c c P ( f m.l 2 F $X,X;X=XW Q.Q.W W W 3 ).a.d.k.; ; ; ; ..W '.'.W ,.,...%.3 X ; ; ; ; ; ..../.I.I.(.(.3 W Q.Q.Q.Q.'.'.'.W a u ",
"Q Q Q ~ ( g m.l < F $X<X*X3 Q.Q.Q.W W 3 3 _.j.s.k.f.; ; ; ..Q.'.'.W ..........; ; ; ; ; ; 1...%.P.P.P.*.3 Q.Q.Q.Q.Q.'.'.Q.W c a ",
"a Q c c ( g p.0 < i $X<X*XW Q.Q.W W W 3 3 ).f.f.s.g.; ; ; ..'.'.'.Q.,.,.........; ; ; ; ; ..; D K.I.K.H 3 Q.Q.Q.Q.Q.'.'.Q.3 Q Q ",
"Q Q Q a ~ f m.l < F &X,X3 Q.Q.Q.W W W 3 {._.a.s.k.g.U.; ; ,.'.'.'.Q.XXXXXX,.....; ; ; ; ; ; X K.P.P.|.<.W Q.Q.Q.Q.'.'.'.W 3 ^ Q ",
"o. . . .' g i.l 2 H $X,XW Q.Q.Q.W W 3 3 {.).a.s.h.g.U.R...XX; ; '.Q.XXXXXXXX,.....; ; ; ; ; &.#.E &.&.*.W Q.Q.Q.Q.'.'.'.W [ ) ) ",
"} .. .o.' f m.z K Y X.3 Q.Q.Q.W W W 3 3 {.).j.s.h.g.E.T...XXQ.'.'.W XXXXXXXXXX,...p.4 K.G.K #.#.E { #.3 Q.Q.Q.W Q.'.'.'.3 _ ^ ) ",
"] ' ) ) ) d m.0 D ;.3 Q.Q.Q.Q.W W W 3 [.{._.f.a.h.g.Y...XXXX; ; Q.W XXXXXXXX,.,.W 3 4 K.H.&.&.$.#.&.=.W Q.Q.Q.W Q.'.'.Q.3 } ) Q ",
") ] / [ [ g i.9 D W Q.Q.Q.Q.W W W 3 3 ].}.{.k.l.l.z.E.3 XXP.W '.W ,.XXXXXX,.W 3 ; ; ; J.H.T $.#.#.$.3 Q.Q.Q.W Q.'.'.'.W ] } ) ' ",
"} ] o.o.} d r.$ W Q.Q.Q.Q.Q.W W W 3 3 R U R m m m W < X XXW 3 Q.,.XXXXW W 3 ; ; ; ; ; ; L.$.=.=.=.=.W Q.Q.Q.W Q.'.'.Q.3 _ Q Q ^ ",
") )  .) U k 0.W Q.Q.Q.Q.Q.W W W W 3 L L L L K K P Q.}.Q.W 3 ; W W W 3 ; ; ; ; ; ; ; ; ; ; *.=.*.&.3 W Q.Q.W Q.Q.'.'.W 0 ^ M a a ",
") ) ) ] :.$ 3 Q.Q.Q.Q.Q.W 3 W W 3 3 9 4 5 $ 4 7 q W ; : ; ; ; ; ; ; ; ; ; ; ; & ; ; ; ; W 3 , - 7 W Q.Q.W W Q.'.'.Q.3 o.) Q y u ",
") ) } ' ) 3 W Q.Q.Q.Q.W 3 W W 3 3 8.9.0.0.9.9.7.9.7.W Q.; ; ; ; ; ; ; ; ; ; X < ; 3 Q.W 3 3 t.t.3 W Q.W W Q.Q.'.Q.W O ] ~ a p y ",
"] } }  .o.3 Q.Q.Q.W 3 3 W W W 3 t.t.t.t.t.t.t.u.t.t.3 W Q.'.W W 3 3 W W W 3 W Q.'.Q.3 3 M.S.M.3 W Q.W 3 Q.Q.'.Q.W b X.` } c a a ",
"~ ) [ [ 3 W W W 3 3 W W W W 3 O.+.+.O.O.O.O.O.C O.C 2.x 3 W '.Q.W Q.'.'.'.Q.W W W 3 6.6.6.7.3 W Q.W 3 Q.Q.Q.Q.W $ ] P U c a y y ",
"y a a 3 3 3 3 3 3 W W W 3 3 # o X # o X o % # # # # # e.A.A.e.x @ @ @ e.A.A.A.e.@ @ @ @ , 3 W W W 3 Q.Q.W 3 3 %.a a G c a n a a ",
"a y a a a a a a 3 3 3 3 Z @.N N N N l N v N V @.V V V 3 W W W 3 5.+.5.e.+X+XA.W 5.5.5.5.+.+.0.0.3 W W 3 3 o a c U a n M a a a a ",
"Q M a a a a a a Q ~  .- + + o @ + O = * = = * * @ * * ; : ; ; ; 7 - - 3 Q.Q.W < 7 - - 9 9 * O 3 3 3 3 $ * Q a a a a a y a r a a ",
"a a y a n M Q M a a a _ _ 6 > E o 6 _ / ( ( ) ^ ^ ) _ ; 3 ; ; ; ) ^ ~ < X o < o _ ' ) ) ) ..6 . E > : ^ _ c a a a a a a a a y y ",
"o.o.o.o.X.X.o.o.) ] X.X.:.Y $.H ; :.o.o.o.o. .] o...o.; ; ; ; ; o.o.X.X Q.< < < ; a U c Q M | o S G.q ' U c a a a a a a a y y r ",
":.:.:.>.>.>.:.:.>.>.:.:.s K Y q <.>.:.>.>.>.>.>.>.:.; ; ; ; ; ; :.:.X.:.o < o < ; ; Q Q M M Q ^ e J D M Q M Q M Q M a a a a p a ",
"X.%.X.o.o.o.X.X.:.:.X.<.Y q . :.X.:.:.:.%.:.:.:.:.X.; ; W ; ; ; ; | ..X.< o < o ; ; M Q a n a a Q . < {  .M a Q a a a a y y y y ",
":.:.X.o.X.X.%.:.:.:.:.a   ( :.>.:.:.:.X.X.:.:.X.:.; ; ; < X < ; ; :.:.:.< W o < ; ; ; U Q Q Q Q U ( _   . Q Q Q P Q c c P a y p ",
":.X.o.o.o.:.:.X.X.X.o. .6 >.X.:.:.X.X.X.X.:.>.:.:.; ; ; X < & ; 3 :.:.; o < < o ; ; ; Q Q Q Q Q Q / ) 6 Q a Q a a a a a y y y y ",
"Q Q Q Q Q Q Q Q Q a a y a Q a n c Q Q a Q Q P a M 3 W W W W 3 3 n n U ; ; ; ; ; ; ; 3 Q G Q Q c a c a a M a a a y y y r r r p y ",
"Q Q Q n a a P a P Q Q n Q a Q Q M U Q c Q Q n P Q Q M U Q Q _ Q Q Q U 3 W Q.Q.Q.W 3 Q Q Q Q Q n Q U Q M c a a P a y y y p r r y "
};
