/* XPM */
static char *miku_61677691821[] = {
/* columns rows colors chars-per-pixel */
"64 64 219 2 ",
"   c #060608",
".  c #19110A",
"X  c #1B1516",
"o  c #0E0D0D",
"O  c #2B1C1D",
"+  c #271A17",
"@  c #341C18",
"#  c #2A0B15",
"$  c #2D231B",
"%  c #292117",
"&  c #34251D",
"*  c #36281E",
"=  c #3B251C",
"-  c #353011",
";  c #1B1D22",
":  c #111822",
">  c #0D1A2A",
",  c #241D22",
"<  c #351E29",
"1  c #1E2533",
"2  c #1E2D35",
"3  c #0D3F3C",
"4  c #1B252E",
"5  c #2D2223",
"6  c #2C2C2C",
"7  c #262628",
"8  c #322522",
"9  c #372928",
"0  c #3D322B",
"q  c #37322B",
"w  c #212C35",
"e  c #252C3C",
"r  c #2C2E35",
"t  c #322D32",
"y  c #382D39",
"u  c #2E3336",
"i  c #353535",
"p  c #3B3433",
"a  c #363937",
"s  c #393937",
"d  c #35363A",
"f  c #3C3C3C",
"g  c #383739",
"h  c #1A2217",
"j  c #472A18",
"k  c #522917",
"l  c #532B18",
"z  c #53341E",
"x  c #432728",
"c  c #45342A",
"v  c #4E372C",
"b  c #5B3025",
"n  c #593A28",
"m  c #443D3D",
"M  c #4A3733",
"N  c #5D3E33",
"B  c #573C3D",
"V  c #633C37",
"C  c #613C2A",
"Z  c #421F23",
"A  c #3E413F",
"S  c #594223",
"D  c #41413F",
"F  c #4B423C",
"G  c #5B4337",
"H  c #674A3A",
"J  c #734A2E",
"K  c #1D3253",
"L  c #1B2549",
"P  c #292D41",
"I  c #272C45",
"U  c #2A3549",
"Y  c #363642",
"T  c #3E3E41",
"R  c #333B4C",
"E  c #383A49",
"W  c #283653",
"Q  c #373D52",
"!  c #2D2E59",
"~  c #2D3661",
"^  c #413F41",
"/  c #7C3640",
"(  c #3F4142",
")  c #39424B",
"_  c #3A4355",
"`  c #3F5259",
"'  c #3B4864",
"]  c #2E466A",
"[  c #197065",
"{  c #434343",
"}  c #494344",
"|  c #454946",
" . c #484946",
".. c #454549",
"X. c #454A49",
"o. c #4C4C4C",
"O. c #494748",
"+. c #514E4E",
"@. c #4C504E",
"#. c #51504E",
"$. c #484C57",
"%. c #544E52",
"&. c #4E5151",
"*. c #545454",
"=. c #52555B",
"-. c #5B5B5B",
";. c #575857",
":. c #644941",
">. c #7B5243",
",. c #7E544A",
"<. c #775444",
"1. c #625855",
"2. c #464C67",
"3. c #495469",
"4. c #575968",
"5. c #4A5674",
"6. c #525977",
"7. c #4E4D6C",
"8. c #615F60",
"9. c #586377",
"0. c #5D6268",
"q. c #636363",
"w. c #696969",
"e. c #666867",
"r. c #686A74",
"t. c #777A7E",
"y. c #747375",
"u. c #6E7273",
"i. c #9E3B3E",
"p. c #A63831",
"a. c #A6393C",
"s. c #A73733",
"d. c #A63A2E",
"f. c #CC2435",
"g. c #96623C",
"h. c #945B3E",
"j. c #9D3B40",
"k. c #A13C43",
"l. c #81554B",
"z. c #8A5D4B",
"x. c #865C48",
"c. c #945D45",
"v. c #895C53",
"b. c #904750",
"n. c #896448",
"m. c #996849",
"M. c #8B6857",
"N. c #996B53",
"B. c #9B7159",
"V. c #AD6348",
"C. c #A56A4D",
"Z. c #A9774D",
"A. c #AA7556",
"S. c #A77658",
"D. c #B57B5A",
"F. c #B6795A",
"G. c #AD6E4F",
"H. c #B57F61",
"J. c #B87B64",
"K. c #A97A60",
"L. c #9A7660",
"P. c #C17C5C",
"I. c #C99D3C",
"U. c #B4825B",
"Y. c #BB865C",
"T. c #B58063",
"R. c #BD8961",
"E. c #BB8369",
"W. c #AF8163",
"Q. c #C99B4D",
"!. c #C48864",
"~. c #C9926B",
"^. c #CD937A",
"/. c #CE9978",
"(. c #C38D73",
"). c #E0AB57",
"_. c #3F519B",
"`. c #375498",
"'. c #3F4F9A",
"]. c #3F5EB2",
"[. c #3E61B4",
"{. c #4C5686",
"}. c #575D82",
"|. c #585992",
" X c #585893",
".X c #435597",
"XX c #596486",
"oX c #596D8B",
"OX c #656887",
"+X c #687295",
"@X c #707191",
"#X c #415FB7",
"$X c #4765AE",
"%X c #4766AA",
"&X c #4365B2",
"*X c #707CA5",
"=X c #944C96",
"-X c #EB7990",
";X c #2EAD91",
":X c #6C8795",
">X c #7684A7",
",X c #748EAE",
"<X c #5F8298",
"1X c #4BDDB2",
"2X c #878993",
"3X c #8692B1",
"4X c #8FA6B4",
"5X c #A7ADAF",
"6X c #B3B2B6",
"7X c #E5B9A4",
"8X c #D7A282",
"9X c #BEB9C0",
"0X c #B4B2C0",
"qX c #AFB7C2",
"wX c #8CA2C2",
"eX c #B9C4D6",
"rX c #CAC7D5",
"tX c #FDE6D3",
"yX c #FBFCFD",
/* pixels */
"{ { f { { D {  .{ T f { { { { {  . .{  .{ O.o.o.o.*.;.*.;.;.*. .{ *.o.*.*.;.*.o.*.O.{ { { {  .{  . .{  .O.T f A {  . .O.f s { A ",
"f f { f f T f f f f f f f f f f f f T T f  .+.*.;.;.8.o.o.-.*. .m { o.*.-.-.8.*.O.o.o.f a f f { f { f T A A  .*.%.o.o.o.D f f f ",
"f f g a i i i i i f f f f ; ; f f T ( { {  .O.o.#.4.6 q.O.*.o.o.o.{ O.{ O.o.o.O.{  .O.{ f f { { m f f ^ ^ T O.d 7 | i s g 6 7 7 ",
"f { { { { { { { { { { { ; f.; ;  . . .|  .{ T ( p V v.Z ;.f ( f ; ; f f f f f f { f f f T f { f f f T f g g T V b.# { 6 6 t 6 6 ",
"{  .^ {  .{ { { {  .{ ; f.; 3 [ [ [ 3 3 3 3 3 3 3 3 3 3 o.O.{ { ; b ;  .{  .T f { { f { f f f f f T T f i d , / -XZ o.q 6 r 7 6 ",
"f f D { ^ f f f f 3 ; b 3 [ [ [ 3 3 [ ;X;X;X[ [ 3 3 3 3 3 3 { ^ ; f.; f { ( T  .f { { f f f f f f f f f g T 1.# Z ^ { a g q i q ",
"{ f f f f f f f 3 ; 3 [ ;X;X;X1X1X;X[ [ [ [ ;X;X;X;X[ 3 3 3 3 { ; f.; 3 [ [ 3 { { { { ^ f { { { f D } { *.;.q.o.o.T i i i i a u ",
"f f f g f i f i ; 3 ;X;X;X;X1X1X1X1X1X1X1X;X[ ;X1X1X1X;X[ 3 3 3 ; f.; ;X1X1X;X3 f f f D { { { s f f (  .*.O.*.i i t i i i i i 6 ",
"i i f i i g g ; [ ;X1X;X;X1X1X;X1X1X1X1X1X1X1X;X;X1X1X1X1X[ 3 3 ; f.; 1X1X1X1X[ O.O.{ |  .T { f T { *.q.w.o.f T g i f s i i i i ",
"f i f f f f D [ ;X1X;X;X;X1X1X;X1X1X1X1X1X1X1X1X1X;X1X1X1X1X[ 3 ; f.; [ 1X1X1X;X3 O.| ( { D { T { o.-.-.{ f f f f f f i i i i i ",
"i i i a i f [ ;X1X1X;X[ 1X1X;X1X1X1X1X[ [ ;X1X1X1X1X;X1X1X1X;X3 ; f.; 3 ;X1X1X1X[  .{ O.@.| F  .*.*.-.o. .{ O.O.^ f f g i i f i ",
"{  .{ O.+.3 ;X1X1X1X[ ;X1X1X;X1X1X1X1X[ V.[ [ ;X1X1X1X;X1X1X1X[ 3 b f.; [ ;X1X1X[ -.;.;.-.-.q.-.O.*.-.*.*.;.;.-.T f f i i i i i ",
";.;.;.;.3 ;X1X1X1X;X[ 1X1X;X[ 1X1X1X1X[ ^.^.V.[ ;X1X1X1X1X1X1X;X3 ; f.; 3 ;X;X1X;X*.%.%.4.-.u.q.w.q.*.;.q.;.;.o.f f f f i i i u ",
";.-.;.;.[ ;X1X1X1X[ ;X1X1X[ [ ;X1X1X1X[ ^.^.^.V.[ ;X1X1X1X1X1X1X[ 3 b ; 3 [ ;X1X1X3 8.y.g g e.;.4.-.#.*.o.*.;.*. .D f f f f i g ",
"o.o.*.3 ;X;X1X1X;X[ 1X1X;X[ V.;X1X1X1X[ ^.^.^.^.V.[ ;X1X1X1X1X1X;X3 ; b ; [ ;X;X1X3 yXyXrXr.( e.8.-.8.-.;.;.*.;.O. .{ { m { D f ",
"*.%.o.[ ;X[ 1X1X[ [ 1X1X[ V.V.[ 1X1X1X[ ^.^.3 3 3 [ ;X1X1X1X1X1X;X3 ; b ; 3 ;X;X1X[ 4X4X6XeX$.)  .o.#.#.+.o.o.{ f i i u i i i i ",
"&.o.3 ;X;X[ 1X1X3 [ 1X;X3 3 V.V.;X1X1X[ ^.3 ^.7X7X^.[ ;X1X1X1X1X;X3 ; b ; 3 [ ;X1X[ 3 8 8 6 q $ q 0 i c q q 0 } ..f f i a g g a ",
"f { 3 ;X[ ;X1X1X3 [ 1X[ V.V.3 ^.[ 1X1X[ 7X7X7X7X7X7X[ ;X1X1X1X1X;X[ ; ; ; J.[ ;X1X;X3 F.D.U.U.U.F.F.F.F.J.F.J.M.c ^ i i i i i t ",
"o.o.3 ;X3 1X1X1X3 [ 1X[ ^.^.^.^.V.;X1X[ 7X7X7X7X7X7X[ ;X;X1X1X1X;X[ ; ; m.N.3 ;X;X1X[ P.G.g.C.C.N.C.C.N.m.m.S./.8XH F T f f A f ",
"..o.3 [ 3 1X1X;X3 [ ;X[ ^.^.^.^.^.[ 1X^.7X7X7X7X^.^.^.;X;X1X1X1X;X[ ; ; ; , 3 [ ;X1X[ 3 6 i t t y t d i u a & x.^.(.& O.A f f f ",
"f f 3 [ 3 1X1X;X3 [ ;XV.V.V.^.^.^.V.;X7X7X7XV.; ; ; ; [ ;X;X1X1X;X[ ; ; ; +X2.[ ;X;X[ [ 3.K U U U R E R R ] 5.t n.~.<.X.s T f f ",
"a i i 3 3 ;X1X;X3 [ [ ; X b V.^.^.^.[ 7X7XV.b 3 3 3 3 ; ;X;X1X1X;X3 ; ; : ,XOX3 [ ;X;X[ 3 9 8 9 0 M F 0 x = 9.] x ~.J M f f A m ",
"{ ^ T 3 3 ;X1X[ 3 [ ; 5X3 3 n V.^.^.7X7X7Xb 5X3 yX3 [ ; ;X;X1X1X[ 3 ; ; ; 3.@XW [ ;X;X;X[ 3 N.:.$ 0 v N.U.g.6 R z ~.J M f ( f f ",
"f f f f 3 [ 1X[ 3 3 ; yX3 yX3 V.^.7X7X7X7XV.yX3 5X3 [ b [ ;X1X1X[ ; ; ; ; > y.~ 3 [ ;X1X;X[ 3 y >XoXu j n.g.q R v ~.J m D ^ f f ",
" .O. .^ 3 [ ;X[ 3 3 b yX3 5X3 (.7XtXtXtXtX^.yX3 3 [ 3 V.[ ;X1X;X[ ; f.; $XK $.W S 3 [ ;X1X1X;X[ 3 ,X4Xe x N.g W M ~.J m } { { { ",
"o.o.*.o.3 [ ;X3 3 3 b yX3 3 [ 7XtXtXtXtXtXtXyXV.3 3 5X^.V.;X1X[ 3 b f.; $X.Xe w S H.3 [ ;X;X1X1X1X;X[ 3 9 N.c R M ~.J B { F { A ",
"o.o.o.*.3 [ ;X3 3 3 V.^.[ 3 K tXtXtXtXtXtXtXtXtXtXtXtX7XV.[ ;X[ ; b ; ].$X_.P w G U.i 3 [ ;X;X;X1X1X1X;X[ 3 x R v ~.J ^ { f A f ",
"&.*.o.@.o.3 [ 3 3 3 V.7XtXtXtXtXtXtXtXtXtXtXtXtXtXtXtX7XV.[ ;X3 ; ; |.].&X.XP w N U.g W 3 [ ;X;X;X1X1X1X1X;X[ 3 M ~.J M f A { f ",
"*.+.O.o.@.3 [ 3 3 3 V.7XtXtXtX^.f.f.f.f.f.^.tXtXtXtXtX7XV.[ [ 3 a.i. X].&X.XI 2 H A.g K 8 m.[ ;X;X;X;X1X1X1X1X;X[ ~.J m A f f f ",
"O.{ { { X.k 3 3 w 3 b ^.tXtXtXtXf.f.f.f.f.f.tXtXtXtXtXV.3 [ 3 p.a.i. X].$X.XI 2 V U.q W 9 c.J 3 [ ;X;X;X;X1X1X1X1X[ J F o.o. .O.",
"a f i i X.k H.3 1 3 6Xb ^.tXtXtX^.f.f.f.f.f.tXtXtXtX^.; 3 3 k.p.a.j. X].$X'.P 2 N U.p U 8 c.M.H 3 [ ;X;X;X;X1X1X1X1X[ } ;.*.&.*.",
"f f f f X.k H.c 1 Y 0XrXb V.7XtXtX^.f.f.f.^.tXtX7X; ; ; 3 =Xk.p.a.j. X[.$X'.I w G D.p W 8 g.S h ` 3 [ ;X;X;X;X1X1X1X1X[ -.*.;.*.",
" .{ {  .X.l U.c 1 Y 0XrXeX9Xb V.^.7X7X7X7X7X^.V.b ; ; 3 3 =Xk.p.a.i.|.[.%X_.P 2 N U.0 W 9 x.. 3.wXwX3 [ ;X;X;X;X1X1X1X1X[ ;.%.+.",
" . .{ | X.l T.c 1 E 0XrXeX9XQ.3 b b b b b b b =.=.3 V.^.^.V.k.p.a.i. X[.$X_.P 2 N U.i U p >.7 <X:X>X,X3 ;X;X;X;X;X1X1X1X;X3 +.o.",
"i f f f X.k T.c 1 Y 0XrXeX9XQ.I.3 b [ 3 [ 3 t.t.3 3 7XtXf.7XV.p.a.i. X[.$X_.P 2 N U.q W 9 J 7 4X,X<X4X` [ ;X;X[ ;X1X1X1X1X[ +.+.",
"t f s f | l T.c 1 Y 0XrXeX9XQ.V.V.b t.3 ;X[ 3 [ t.[ tXtXf.7X^.d.a.i. X[.$X_.P 2 G U.i W Z c.x W 4X<X3.X 3 ;X;X;X[ ;X1X1X1X;X%.&.",
"a i a i X.l 7X7X7XV.0XrXeX9XV.7X7X7XV.[ [ t.t.5X5X[ ^.7X7X^.^.p.a.i. X[.$X.XP 2 N U.i e = L.n.c 6 ( 8 x.J.[ ;X;X[ [ 1X1X1X;X3 o.",
"i g i f ( l V.b b 7X7XK ; 9X7XtXtXtX7X3 ; t.5X5X5X3 [ ^.^.^.V.s.a.i. X[.$X_.P 2 V U.t 2.6 - - j @ * z n z 3 ;X;X;X[ ;X1X1X1X3 +.",
"i i f i ( l 7X7XV.7XV.3 ; ; 7XtXtXtX7X[ ; ; ; t.; ; ; [ [ V.k.s.a.i. X[.&X_.P 2 N U.5 @X6.P W U u U u I ! ! [ ;X;X[ ;X1X1X1X[ O.",
"{ { f f | k V.b b 7Xz [ ; ; V.7XtXtX7X;X; ; ; ; ; ; ; ; ; 3 k.s.a.i. X&X$X_.I 2 G U.5 6.*X@XOX>X*X>X,X3XOX2X3 ;X;X[ [ 1X1X1X[ f ",
" .{  . .X.k 7X7XV.b V.[ ; ; b V.7X7XV.;X; ; ; ; ; ; ; ; ; ; k.s.a.b.|.$X%X`.e w H T.7 XXXX&.@.4.@X@X@X4.-.-.3 [ ;X;X[ 1X1X1X[ f ",
"f ^ f { X.k b V.b b V.[ ; ; ; b V.V.[ ;X=.=.=.; ; ; ; ; ; =.=.d.p.i. X$X.X'.P w V D.6 OX_ =.u.u OX*XOXR :X..oX[ ;X;X3 1X1X1X[ ( ",
"{ { { f X.k H.b b V.b [ ; ; ; ; b b ;X3 V.=.V.=.=.; ; ; ; t.t.=.3 i. X].%X.XI w n U.7 OX@XR e OX@X*X3XOXu r.3X3 ;X;X3 1X1X1X[  .",
"*.*.*.*.@.k H.c 1 T 3 3 ; ; ; ; ; 3 [ ; ; f.=.f.;.; ; + 5X5X5Xt.3 ;  X].%X.XI P S Y.7 |.XX2.7.2.' 7.5.5.6.5.>X3 [ ;X3 1X1X;X3 o.",
"+.*.*.*.@.k T.0 Q E 3 ; ; ; ; ; ; 3 3 ; ; ; ; ; h X ; :X5X5X5X=.3 ; ; #X&XL %.W S T.6 OX}.Q 2.2.' 2.2.3.2.2.>X' [ [ 3 1X1X[ 3 O.",
"*.+.@.o.o.k T.0 ) 9.4 6X; ; ; 7 ; ; ; [ 3 =.t.t.t.t.5X5X5X5X@X[ ; ; ; ; 3 1 @XU n T., OX|.2.7.3.3.7.3.6.5.6.>X` [ 3 [ 1X;X[ o. .",
"o.&.O.&.@.l H.= I @X' T 9.6X).).).3 [ [ 3 3 =.t.5X5X5X5X5X[ [ ; ; ; ; ; [ 4.*XU n T., +XXX` 7.2.2.7.4.3.2.2.>X2.[ 3 [ ;X;X3  .@.",
"o.*.*.;.+.l N.@ y OX3X+XR @.F G M 3 [ 3 3 ; 3 t.t.5X5X5X[ 3 ; ; ; ; ; ; [ >XoXL n T.O XXoX3.6.6.6.}.XX}.9.4.3XQ 3 3 [ ;X[ 3 { O.",
"o.o.*.o.( j M.H 5 ..XXXXr.) K ! W W 3 3 ; ; 3 t.t.t.[ [ ; ; ; ; ; ; ; ; [ 9._ t S.E.H w ' 5.{.6.5.6.6.{.{.}._ u N.3 [ ;X[ { f f ",
"o.o.O.*.q.$ J M.:.8 ; + X 5 5 5 < 3 ; ; ; ; ; 3 [ [ ; ; ; ; ; ; ; ; ; 3 3 @ 0 L.F.D.Y.<.7 % < 8 8 @ O $ < @ * M.!.3 [ ;X3 T i f ",
"@.o.+.&.#.5 l c.n.x.l.z.M.n.n.n.n.3 [ 3 ; ; ; ; ; ; ; ; ; ; ; ; ; [ ;X[ G.A.H.D.G.F.F.Y.W.Z.Z.A.A.A.A.A.K.A.D.U.Y.G.[ 3 | f i s ",
"o.+.+.*.;.*.@ V >.n.h.S.A.U.A.Z.Z.S.[ [ [ 3 ; ; ; ; ; 3 [ [ [ 3 1X1X[ !.Y.R.Y.U.Y.U.U.U.Y.!.R.!.Y.R.Y.!.!.!.!.F.B.N 3 o.o.T f f ",
"O.o.o.o.o.o.-.X = G n.J H <.,.<.>.,.<.V.^.V.3 [ ;X;X3 1X1X1X;X[ 3 3 z.z.z.z.x.z.x.z.z.z.x.z.z.z.n.n.n.z.n.m.n.G @ +.{ ( { f i a ",
"a f f f i f d f q.r o + @ + X X X X + V.^.^.^.b 3 3 3 V.^.7X7XV.O % O , O O O O @ O O O O O O O 5 O O O + . g 4.a T T m f ^ f f ",
"T i f f f f f f A A . H H :.+.N G G B 3 [ [ [ 3 :.H H V.tXtX7Xb l.,.l.l.,.,.l.l.,.x.l.l.l.l.n.v.v.z.v.>.+.X f D { f A A f f f f ",
"{ ( f f f f f f { | *.& & + X O # . % ; ; ; ; ; $ O & [ ;X;X[ 3 * * * = * & * * * * * 8 8 @ . $ & % @ @ & F g f a f f s f i f f ",
"f f f f A { F f f f f o.} 7 > ' o 7 o.; [ ; ; ; O.o.O.; ; ; ; ; O. . . .o.o.o.o.X.o.@.o.o.*.w o ` > :  .O.f f f ( f f f f f g i ",
";.;.*.*.-.;.;.;.+.@.-.;.q.) 3.R , e.; ; ; ; ; *.;.*.*.; [ ; ; ; *.;.;.-.;.*.;.;.O.f ( T { { &.X I }.w &.{ T f f f f f f g f s i ",
"e.q.e.e.w.w.e.q.w.w.q.e.Y Q R r y.; ; ; ; ; ; w.w.e.; ; ; ; ; ; 8.4.8.q.e.-.8.e.+.f {  .( { D | e ! P A  .A { D { D f f f f f f ",
"-.-.-.;.*.;.;.8.q.q.;.y.) 2 o e.; ; ;X; ; ; ; e.q.-.; ; ; ; ; ; *.*.*.-.8.;.;.-.o.f f { T f f f ..o 1 $.*.f f { f f f f f i i i ",
"q.q.-.;.;.q.-.8.q.q.q.f   $.q.; ; ; ; ; ; ; ; -.8.; ; 1X; ; ; ; q.q.-.e.8.q.q.e.o.f f f { ^ { f ( o.O.  o { { { { { f { f f i i ",
"-.-.;.;.;.q.q.4.8.-.;.*.$ e.-.; ; ; ; ; ; ; 3 q.; ; ; ; ; ; ; ; 8.e.q.-.-.;.8.q.o.{  . . .{  . .( ..o.7  .f ^ f f f f f f i i f ",
"{ ^ { { { { { { m A f g f ^ f 3 [ [ [ [ 3 3 f { ; ; ; ; ; ; [ 3 f { { ( { f f D { T T T f T { { f D f f A f f f i i i i i i i i ",
"{ O.{ { f f f f f { { A ( ^ { { f { { f { { ( { [ ;X;X;X;X[ 3 { {  .{ { m { T  .{  .{  .{ { { f { A { A D f f f f f f i g i i i "
};
