/* XPM */
static char *miku_31677691822[] = {
/* columns rows colors chars-per-pixel */
"64 64 212 2 ",
"   c #060608",
".  c #0B0F11",
"X  c #1D1514",
"o  c #1C1318",
"O  c #1A0B04",
"+  c #2A1C1C",
"@  c #271A17",
"#  c #341B19",
"$  c #290A10",
"%  c #2D231B",
"&  c #2A2113",
"*  c #34251D",
"=  c #37271B",
"-  c #1B1D22",
";  c #111822",
":  c #071727",
">  c #271D22",
",  c #371E27",
"<  c #1C242C",
"1  c #1E2533",
"2  c #0D3F3C",
"3  c #2C2C2C",
"4  c #292526",
"5  c #372D2A",
"6  c #362826",
"7  c #363329",
"8  c #292C37",
"9  c #312F31",
"0  c #2F3138",
"q  c #353535",
"w  c #3A3435",
"e  c #363837",
"r  c #393937",
"t  c #35363B",
"y  c #3B343A",
"u  c #3C3C3C",
"i  c #353938",
"p  c #2F3020",
"a  c #4C2D1B",
"s  c #4A2B1A",
"d  c #522917",
"f  c #522A18",
"g  c #4B1F26",
"h  c #442A25",
"j  c #433329",
"k  c #473324",
"l  c #5B3025",
"z  c #563C2F",
"x  c #433D3D",
"c  c #573C35",
"v  c #522624",
"b  c #603836",
"n  c #3E413F",
"m  c #304131",
"M  c #29442B",
"N  c #42413E",
"B  c #48403E",
"V  c #574538",
"C  c #5B462B",
"Z  c #76482B",
"A  c #77472C",
"S  c #684939",
"D  c #794A37",
"F  c #694937",
"G  c #524A1C",
"H  c #272B47",
"J  c #3E2C41",
"K  c #363542",
"L  c #3E3E41",
"P  c #34374B",
"I  c #2A3556",
"U  c #363756",
"Y  c #332F4E",
"T  c #413F41",
"R  c #7C3640",
"E  c #3E4343",
"W  c #3A414B",
"Q  c #384256",
"!  c #2A4D4F",
"~  c #197065",
"^  c #434343",
"/  c #4A4344",
"(  c #454946",
")  c #484846",
"_  c #464649",
"`  c #454A49",
"'  c #4C4C4C",
"]  c #494749",
"[  c #524D4E",
"{  c #4D504E",
"}  c #51504E",
"|  c #494C54",
" . c #514F51",
".. c #4F5151",
"X. c #545454",
"o. c #52555B",
"O. c #5B5B5B",
"+. c #595757",
"@. c #664842",
"#. c #7A5243",
"$. c #7A5448",
"%. c #625853",
"&. c #4E576B",
"*. c #5A6163",
"=. c #516371",
"-. c #636363",
";. c #696969",
":. c #777A7E",
">. c #747374",
",. c #9E3B3E",
"<. c #A73835",
"1. c #B23531",
"2. c #CC2435",
"3. c #895837",
"4. c #9D3C40",
"5. c #A13C44",
"6. c #A03851",
"7. c #8C5E4A",
"8. c #835649",
"9. c #8A5B54",
"0. c #94574B",
"q. c #8B6449",
"w. c #956542",
"e. c #996443",
"r. c #966749",
"t. c #8B6955",
"y. c #976E53",
"u. c #AD6348",
"i. c #A7764E",
"p. c #A77455",
"a. c #A97758",
"s. c #B37C56",
"d. c #A87B62",
"f. c #B67F61",
"g. c #BA7F64",
"h. c #34AD39",
"j. c #3EA94B",
"k. c #469E47",
"l. c #499F48",
"z. c #499A55",
"x. c #459F54",
"c. c #559556",
"v. c #48A24B",
"b. c #43A155",
"n. c #4CA151",
"m. c #4CB154",
"M. c #64946C",
"N. c #C99C3B",
"B. c #CB9F3A",
"V. c #D19E35",
"C. c #DEA930",
"Z. c #B99D5B",
"A. c #BE855D",
"S. c #B78062",
"D. c #BB8765",
"F. c #B2A060",
"G. c #B2A254",
"H. c #CA9B4D",
"J. c #C89C4A",
"K. c #D99645",
"L. c #C58564",
"P. c #C9946A",
"I. c #CD937A",
"U. c #C89172",
"Y. c #CF8D75",
"T. c #D0B658",
"R. c #ECC067",
"E. c #545B88",
"W. c #677595",
"Q. c #71738B",
"!. c #5C6890",
"~. c #954C96",
"^. c #9E489F",
"/. c #895594",
"(. c #895696",
"). c #975396",
"_. c #A1479F",
"`. c #914EAD",
"'. c #9A49A4",
"]. c #914FAE",
"[. c #A146A3",
"{. c #A057A8",
"}. c #886190",
"|. c #EB7990",
" X c #2EAD91",
".X c #7485A4",
"XX c #4BB7BB",
"oX c #51B4A8",
"OX c #599F9A",
"+X c #4BDDB2",
"@X c #55D0BE",
"#X c #44BDCE",
"$X c #59C8C9",
"%X c #818FAC",
"&X c #A7ADAF",
"*X c #B8B6BC",
"=X c #CCBBBA",
"-X c #E5B9A4",
";X c #F8849B",
":X c #B4B3C1",
">X c #BEBAC1",
",X c #849AC3",
"<X c #C3B8C7",
"1X c #B7C3D7",
"2X c #B8C3D7",
"3X c #B7C2DA",
"4X c #BCCCED",
"5X c #CAC6D6",
"6X c #C9C7D9",
"7X c #D4DCDF",
"8X c #FDE6D3",
"9X c #E5EDFF",
/* pixels */
"^ ^ u ^ T ^ ^ ^ ^ ^ u ^ ^ ^ T ^ ^ ( ( ( ^ ] ' ' ' X.+.X.+.X.X.] ( X... .X.+.X...X.] ^ ^ ^ ^ ( ^ ( ( ^ ] ( T u x ( ( ] ] u e E T ",
"u u ^ u u u u u u u u u u u u u u x T x L ( X.X.+.X.O.'  .O.X.) u ^ ' X.O.O.O.X.] X.] u u u u n x - - L n E ] X. .' '  .^ u u u ",
"u e e e e e e e e u u u u u x u u ^ ^ T T ( ] ' ..o.3 -.]  .' - - ^ ( / ] '  .] ^ ^ ( ^ u u ^ ^ L l - - x u ] e 4 ^ t e e 9 4 3 ",
"T ^ ^ ^ ^ ^ x ^ ^ ^ ^ ^ ^ ^ _ ( ] ( ^ ( ] ^ x E e R 9.h +.u - l - ^ u e 2 2 2 2 2 2 ~ ~ ~ ~ 2 u u - 2.- e u E b 0.$ T 4 3 9 3 4 ",
"^ ] ^ ^ ( ^ ^ T ( ] ( ^ ( ( T ] ( ^ u L ^ ^ ^ ^ X g ;Xv  .^ 2.- - 2 2 2 2 ~  X X X X2 2 ~ ~ ~ ~ 2 - - 2.- 2 2 R |., ' 9 3 9 4 3 ",
"u u L ^ x u u L u u T u x u ^ T ^ u ^ x u ^ T ^ 2 ~ ~ 2 o.- 2.- 2 ~  X X X X~ ~ ~ ~  X X X X X X X~ 2 2.- 2 2 2 g c ( i q q q 9 ",
"^ x u u u u u u e e u u q e e e u u T u u ( ^ 2  X+X+X X2 - 2 ~  X+X+X+X+X~ ~  X+X+X+X+X X+X X X X X X2 - - 2 2 _ L q r 9 e i q ",
"u u u e e u e e e y y e e u u u T u u T ^ ^ 2  X+X+X+X X- 2  X+X+X+X+X+X X X X+X+X+X+X+X+X X+X X X X+X X~ - 2 2 2 9 q i q 9 q 3 ",
"q e u q e e e e q e e e u u u u u u u x u u ~ +X+X X X~ 2  X+X+X+X+X+X X X+X+X+X+X+X+X+X+X X+X+X X X X+X X~ 2 2 2 e u u e q q e ",
"e e u u e u T u u u x u L T ^ u T ( ^ ^ ] ^  X+X X X~ 2 ~ +X+X+X+X+X X+X+X+X+X+X X+X+X+X+X~  X+X+X~  X X+X X~ 2 2 u t e q 9 e e ",
"q 9 q q e u u u y u e u u u u u T ^ ( ( ( 2 +X+X X~ ~ 2  X+X+X+X+X X+X+X+X+X X X~ +X+X+X+X~ ~ +X+X X~  X+X+X X2 2 2 u e y e e e ",
"^ ] ^ ]  .] ] ' ' ' ' ' ' ' X.} ' X.X.X.+.2 +X X X~ 2 ~ +X+X+X+X+X+X+X+X+X X X~ ~ +X+X+X+X~ u. X+X+X~  X+X+X+X~ 2 2 u e e q q 9 ",
"O.+.+.O.O.+.X.X.X.X.O.+.O.O.O.X.X.+.+.*.-.~ +X X~ ~ 2 ~ +X+X+X+X+X+X+X+X X X~ u.~ +X+X+X Xu.u.~ +X+X~  X X+X+X X2 2 u u q e w 9 ",
"+.O.+.+.' X.X... .X.X.X.+.X.' X.+.X.O.O.O.~  X X~ 2 2 ~ +X+X+X X+X+X+X X X~ I.I.~ +X+X+X Xu.u.~  X+X X~  X+X+X X~ 2 2 u u e e e ",
"' ' X.X.' ' X.X.' O.O.X.+.O.+.+.O.-.O.O.+.~  X X~ 2 2 ~ +X+X+X X+X+X X X~ I.I.I.~ +X+X+X~ u.u.u.~ +X+X~  X+X+X X X2 2 ^ x ^ T L ",
"X.X.' '  ...X.X.X.O.O.X.X.X.O.*.O.O.-.O.2 ~  X X~ -.2 ~ +X+X X+X+X+X X2 2 2 I.I.~ +X+X Xu.2 2 2 ~ +X+X~  X+X+X X X2 2 9 q q q q ",
"..' ' ' ) ) _ } ( 4 5 5 5 5 5 5 5 5 5 5 2 ~  X~ ~ 5 2 ~ +X+X X+X+X X~ u.I.~ 2 I.~ +X+X~ 2 u.u.u.~  X+X2  X+X+X~  X2 2 e e q e q ",
"u E ^ ^ ^ ^ +.h 8.p.r.u.e.r.e.r.r.w.r.e.2 ~  X~ 2 r.2 ~ +X X+X+X+X~ ~ I.-X-X-XI.~ +X+X~ u.I.I.I.u.~ +X2  X+X+X~  X2 2 e q q q 9 ",
"' ' ] ' ' n s Y.g.0.q.w.w.w.w.r.r.e.e.e.2 ~  X~ 2 q.2 ~ +X X+X+X X~ I.-X-X-X-X-XI.+X+Xu.I.I.I.I.I.~ +X2  X+X+X2  X2 2 2 u u T L ",
"_ ] _ _ ' 6 d.D.S > 4 + * y e w w e u x 2  X X~ 2 - 2 ~  X X+X+X~ u.-X-XI.I.-X-X-X X+XI.I.I.I.-X-XI. X2  X+X+X2 ~ 2 2 2 u u u u ",
"u u u e [ c d.F 4 &.W.Q.W.U H I I I P K 2  X X~ 2 - 2 2  X X+X X~ -X-X-X-Xu.I.-X-X~  XI.I.u.-X-X-X-Xu.2  X+X X2 ~ 2 ~ 2 r L u u ",
"e e w e N d s.= K !..X!.K ' V C G C ! ! 2  X X~ i - - 2 ~  X+X X~ I.u.u.-X-Xu.-X-X-X~ I.u.-X-Xu.u.-Xu.2  X+X X2 2 2 ~ 2 u n u x ",
"L x E T ] a g.h I W.Q W Q.-XR.T.C.T.@X$X~  X X~ m.> - - ~  X X~ I.u.- - - - -X-X-X-XI.-X-X- o < - u.u.2  X X~ 2 2 2 ~ 2 u T n u ",
"u u u u ] f s.s I =.< *X9X<XJ.B.K.P.oX2 ~  X~ ~ h.l.- - ~ ~  X2 I.- -X-Xu.l - -X8X8X8X-X- l u.-X-X- u.2 ~  X~ 2 - 2 ~ 2 N T u u ",
"] ( ( T ] a f.k P Q *.7X3X*XN.B.H.F.oX2 ~  X~ ~ v.c.< 2.- ~ ~ 2 I.-X8X8X8X8X8X8X8X8X8X8X8X8X8X8X8X-Xu.2 ~  X2 < - 2  X2 ( ( T ^ ",
"' '  . ...d S.k < P 1X6X3X>XH.B.C.G.oX2  X X~ ~ v.c.o 2.l ~ ~ 2 I.8X8X8X8X8X8X8X8X8X8X8X8X8X8X8X8X8Xu.2 ~ ~ 2 o - 2  X2 ( x ( u ",
"' ' } X.' d S.j 1 u *X5X3X>XH.N.V.F.2 ~  X X~ ~ n.z.(.< l 2 ~ 2 u.8X8X8X8X8X8X8X8X8X8X8X8X8X8X8X8X8Xu.2 ~ ~ 2 < 2 2  X2 ^ u u T ",
"{ X.{ ' ' a S.j 1 K &X5X1X>XH.N.V.G.2 ~  X X~ 2 n.z./._.- 2 ~ 2 u.-X8X8X8X8X8X8X8X8X8X8X8X8X8X8X8X-Xu.2 ~ ~ 2 P 2 ~  X2 u T n u ",
"X.} ] ' ' f f.j 1 K :X5X3X<XJ.N.V.Z.2  X X X~ 2 n.z.(.[.`.~.~ 2 2 u.8X8X8X8X8X8X8X8X8X8X8X8X8X8X8XI.l 2 ~ 2 w I 2 ~  X2 N u u n ",
"( ^ ^ ^ ` f S.j 1 t :X6X2X*XJ.N.V.Z.~  X X X~ 2 l.z./._.].~.2 2 2 l I.8X8X8X8X2.2.2.2.2.8X8X8X8XU.l o ~ ~ 2 e 2 2  X X2 ' ' ( ( ",
"e u q w ` d f.j 1 K :X6X2X>XH.N.V.2 ~ +X X X~ 2 n.z./._.].~.5.2 2 0.l u.-X8X8X8X2.2.2.8X8X8X-Xu.l o < ~ 2 3.t 2 ~  X X2 +.X. . .",
"u u u u ` d f.j 1 K :X6X2X=XJ.J.V.2  X+X X X~ 2 n.z./.[.].~.5.<.2 ,.E.2 l u.I.-X-X-X-X-XI.u.l o < < *.2 e.3.w 2 ~  X X2 O.X.+.+.",
"( ^ ^ ( ] f f.j 1 K *X5X1X>XH.N.V.~  X+X X X~ 2 z.z./.[.].~.<.<.<.,.l ~ 2 o.l l l l l l 2 l - - - ,X4X=.s t.2 2 ~  X X2 X.+.X.' ",
"] ( ^ ] ` f S.j 1 K :X5X1X>XH.N.V.~ +X+X X X~ k.z.z./.[.].~.4.<.<.l u.u.l 2 :.Q.:.2 o.:.o.2 2 l l .X.X.X% t.2 ~ ~  X X2 +.O.X.' ",
"e u u u ` d S.j 8 K :X6X1X>XH.B.2 ~ +X+X X X~ k.n.z./.[.].~.0.o l -X8X8Xu.8X2 o.2 ~ 2 o.2 :.2 u.l 8XI.8X8Xr.2 ~ ~  X~ / X...' } ",
"9 u u i ( f S.j 1 K :X6X1X>XH.B.2  X+X X X X~ k.n.z./.[.].~.o ~ u.8Xu.u.l -X:.2 ~  X~ 2 :.:.o.2 8Xu.i.-X-X2 2 ~  X X2 ^ X.] X...",
"u q q e ` f S.j 1 K :X5X1X>XJ.B.~ +X+X X X X~ k.n.z./._.`.~.o  XI.8X8X8Xl u.&X&X:.~ :.&X&X&X:.l I.8X8X8X-X2 2 ~  X X2 B ' ' ' ' ",
"q e e e E f f.j 1 K *X5X1X*XH.2  X+X+X X X X2 k.n.z./.[.`.< <  XI.8Xu.u.l l &X&X~  X~ &X&X&X:.l l u.-X8XI.2 ~ ~  X X2 B X.X.{ } ",
"e e y q ( f s.j 1 K :X5X1X>XH.~ +X+X+X X X X2 k.z.z./._.].X.- ~ I.-X8XI.u.l &X&X~ +X X&X&X:.:.l -X8X8X-X~ 2 ~ ~  X~ Z B ' ' ] ) ",
"T ^ u T ] f S.5 1 K :X5X1X1X~  X+X+X X X X~ 2 k.v.z./.[.].X.- ~ u.I.Y.u.l o.o.:.~ +X+X:.:.:.o.l u.I.-XI.2 2 ~  X X2 Z x u x u r ",
"( ^ ( ( ( d f.j < K :X6X>X~  X+X+X+X X X X~ b.v.n.z./.[.`.2.- 2 - l l l o.o.o.o. X+X+Xo.o.o.o.2 l u.u.2 o 2 ~  X X2 Z x N T T u ",
"u x ^ T ] d f.j < t :X6X~  X+X+X+X X X X X2 b.k.k.c./.'.`.o.- 2 - - 2 o.o.:.:.:. X+X+X~ :.o.o.- 2 2 2 - o.2 ~  X~ 2 Z B ( T ^ T ",
"( ^ T u ] d f.7 < e 2  X$X+X+X+X X X~  X X2 b.k.b.c.).'.'.o < - 2 2 - :.&X&X&X~ +X+X+X~ :.:.o.- - - - o.o.~ ~  X2 U.Z B ] ] ] ( ",
"X.X.X.X.{ f g.j < 2  X+X+X+X+X X X~  X X~ XXb.l.v.c./.'.`.~.o < - - o.&X&X&X&X~ +X+X+X~ :.&X:.- - - - - 2 ~  X~ 2 U.Z / }  .' ' ",
"X.X.X.X.{ d S.7 2  X+X+X+X+X X X~  X X X2 oXb.k.v.z./.'.'.~.4.- - - :.&X&X&X&X~ +X+X- - :.&X&Xo.- - - 2 ~ ~  X2 k U.A B ' ] ] ' ",
"X.' ..' ' f g.2  X+X+X+X X X X~ ~  X X~ #XXXx.k.j.c.).[.].[.0.<.1.o.:.&X&X&X&X~  X+X+X~ :.&X&X:.2 2 2 ~ ~  X~ 2 k P.D B ' ' ' ( ",
"' ' ( } ' d f.~ +X+X X X X~ ~ ~  X X~ 2 $X$Xb.v.m.M.(.).{.~ 2 2 - 2 :.&X&X&X&X&X~ +X- - :.&X&X~ - 2 ~ ~ ~ ~ 2 &.s P.F / X.' ] { ",
"' X.+.+.' s 2  X+X X X~ ~ ~  X X X~ 2 ! W ! M M M 7 t J ~ 2 - - - - 2 :.&X&X:.~ - ~ +X2 :.&X~ - - - ~ ~ ~ 2 %XU f Y.S x ( ( ^ ] ",
"' '  .' E s ~  X X~ 2 2  X X X~ ~ 2 U J J U U U T U U I  X- - - - - - 2 ~ :.~ - - - ~ 2 ~ 2 - - - - 2 2 E.E.Q 3 y.D.#.q ( ^ u u ",
"..' ] X.-.+ ~  X~ 2 ~  X X~ ~ 2 , 6 , 8 1 g 4 6 1 , p 5 % +X+X2 - -  X- 2 2 - - - - - ~ 2 - - - - 2 2 > , # * t.L.S.z O.' L q r ",
"' ' } X.X.2 ~ ~ 2 ~ ~ 2 2 2 w.q.r.q.e.t.9.0.e.0.q.r.y.s.i.A.2 +X+X X- - - - - - - - - - - - - -  X~ 2 a.d.s.s.S.A.p.O ' ( u q q ",
"} '  .X.+.2 ~ 2 2 7.e.p.a.i.p.p.p.p.a.p.p.a.a.d.a.p.s.D.D.D.A.2 ~ ~  X- - - - - - - - - - - - +X~ 2 A.L.L.L.L.s.y.c %.} } ^ u u ",
") ] ' ..' 2 2 X = F $.D #.$.$.$.$.$.#.#.#.#.$.D D D D q.q.9.7.7.7.2 ~ +X+X X2 ~  X+X+X X~  X X2 2 q.7.7.q.r.q.z # [ T E T u q u ",
"e u L u e 2 t e *.3 . & @ o o X o @ $ X o o + + + @ @ + + , 4 % + + u.I.~ ~ 2 2 ~ ~ ~ ~ 2 u.I.u.+ + + + @ X t *.r L L x u u u u ",
"u e u u u u t u u N X F F %.V V V V C B z z S @.@.@.S S F #.8.$.8.$.~ -X-X-Xu.8.$.8.8.l u.I.I.~ 9.9.q.#.[ X T x ^ u n n u u u u ",
"^ ^ u u u u N u ^ ( X.= & @ X > & O X % % % % % % % % % + = 6 * 6 * - ~  X X~ = 6 6 * 2 ~ ~ ~ - % & * # & B u u u u u e u q u u ",
"u u r u u x ^ u u u u ' ^ 4 : &.. 4 ' _ ] ] ) ] ] ' ] ( ' ] ] ] ] ] - - - - - ` ] ' ' - - - - - Q : ; ' ] x u u n u u u u u u e ",
"+.O.X.+.*.O.O.+.{ } O.O.-.W &.H 4 -.o.+.+.X.X.X.+.+.X.+.X.X.O.O.X.- - - ~ - - +.] u E - - - 2 - H E.8 { E L u u u u u u u r e q ",
"-.-.-.;.;.;.-.-.;.;.-.-.i U W 8 >.-.-.-.;.;.;.;.;.-.-.;.;.;.-.-.< o < - - - *.;. .u ^ - - - - - 0 I H N ( N ^ x ^ u u u u y e u ",
"O.O.O.+.X.+.X.-.-.-.O.>.W 8 . *.-.-.-.-.*.-.-.-.-.O.-.-.O.O.O.+.o < o < - - +.O.' u u - - - - - < . 1 | X.u u ^ u u u u u e e q ",
"-.-.O.O.+.*.-.O.-.-.-.u   ` -.;.-.-.-.O.O.-.-.O.-.-.+.*.-.+.-.- - - -  X- - -.;.} u u - - - ~ - o ` `   . N ^ ^ ^ ^ u ^ u u e e ",
"*.O.+.+.O.-.-.O.-.O.+.X.4 ;.O.*.-.O.O.O.-.-.-.-.;.*.-.-.;.;.-.- - - - - - - O.-.' E ( - - - - - < - { % ( n T u u u u y u e w e ",
"^ x ^ ^ ^ ^ ^ ^ x u u q u T N n ^ ^ ^ u ^ ^ ^ u n ^ ^ / ( ^ ^ 2 - - - - - - N n ^ x E - - - - - - 2 u n N u u u e e q e q q q e ",
"^ ( ^ ^ u u u u L ^ ^ n ^ L ^ ^ u ^ ^ u ^ ^ u ^ N ^ ^ N ^ ( ( ^ 2  X X X~ 2 N ^ ( ^ ^ 2 ~  X X~ ~ 2 E u N u u T y e u q q q t e "
};
