/* XPM */
static char *miku_11677154610[] = {
/* columns rows colors chars-per-pixel */
"64 64 98 2 ",
"   c #1B1D1F",
".  c #171F21",
"X  c #1B1D22",
"o  c #0B3F37",
"O  c #0D3F3C",
"+  c #103E3C",
"@  c #2D2D2D",
"#  c #353535",
"$  c #383637",
"%  c #363836",
"&  c #393936",
"*  c #363639",
"=  c #393738",
"-  c #363938",
";  c #3C3C3C",
":  c #5C2F25",
">  c #5C2E28",
",  c #5A3025",
"<  c #403E3E",
"1  c #0B4036",
"2  c #0C403C",
"3  c #3E403E",
"4  c #41413E",
"5  c #0D3E40",
"6  c #3E3F41",
"7  c #413F41",
"8  c #3E4141",
"9  c #176F63",
"0  c #1A6F65",
"q  c #1A6F69",
"w  c #167165",
"e  c #197065",
"r  c #197168",
"t  c #434343",
"y  c #484646",
"u  c #464846",
"i  c #4B4947",
"p  c #464648",
"a  c #494749",
"s  c #474949",
"d  c #4C4C4C",
"f  c #504E4E",
"g  c #4E504F",
"h  c #51524E",
"j  c #4E4E51",
"k  c #514F51",
"l  c #4F5150",
"z  c #4F575A",
"x  c #535353",
"c  c #595656",
"v  c #565857",
"b  c #595956",
"n  c #53555A",
"m  c #595758",
"M  c #57595A",
"N  c #5B5B5B",
"B  c #605E5F",
"V  c #5F605B",
"C  c #62615F",
"Z  c #5F5F61",
"A  c #615F61",
"S  c #5F6161",
"D  c #626262",
"F  c #686667",
"G  c #696A65",
"H  c #676769",
"J  c #686669",
"K  c #676968",
"L  c #696969",
"P  c #767A7E",
"I  c #79797D",
"U  c #CC2435",
"Y  c #AD6346",
"T  c #AD6349",
"R  c #B06347",
"E  c #CD9477",
"W  c #CC937A",
"Q  c #777A81",
"!  c #797880",
"~  c #2DAD8F",
"^  c #30AD8F",
"/  c #2DAD91",
"(  c #30AC91",
")  c #2DB091",
"_  c #4BDEAE",
"`  c #4BDDB2",
"'  c #48E0B1",
"]  c #A6ADAE",
"[  c #A8ADAE",
"{  c #A6ADB0",
"}  c #A8ADB1",
"|  c #E6B7A4",
" . c #E5B9A4",
".. c #E8B9A7",
"X. c #E5B8A8",
"o. c #FDE6CF",
"O. c #FDE6D3",
"+. c #FDFCFC",
/* pixels */
"t t ; t t t 4 u t 7 ; t u 7 7 4 t u p u t s d d f x m x b c x i u h j X X n x d x s 4 8 t t p t u u t a s < ; t u u a a ; $ t 7 ",
"; ; t ; ; ; ; ; ; ; ; ; ; ; ; ; X X ; 7 ; a j x x m N j f N x u 6 t X X U X D x d d d 6 = ; ; 4 ; t 7 ; ; 7 s x k d d d t ; ; ; ",
"; ; % = = * % % * ; & ; ; 6 < X : X 4 8 4 u O O + O 2 2 O O 2 e 0 r 9 2 X U X s t u p t ; ; t 7 ; ; ; 8 ; 7 ; ; ; ; % % # @ @ @ ",
"; t t t t t 7 t t t t t t t u X U X u u O O O O 2 5 e r / / / + O 0 9 0 e 2 , X 2 ; ; 4 6 ; t ; ; ; ; ; = % % # @ @ @ @ @ @ @ @ ",
"t u t t u t t ; t t u O 9 0 7 X U X 7 O O O O 9 / / / / w e 0 9 ~ ~ ~ / ( ~ q O X O 6 ; < ; ; ; ; t ; - % & % # @ # # @ @ @ @ @ ",
"; ; t 7 ; ; < ; ; 6 O / ` ~ e X U X O O 5 e / ^ / ( r 0 e / ` ` ` / ` ~ ( / ~ ^ O X 7 3 ; ; ; ; ; ; ; ; $ = % ; = = % * # @ # @ ",
"t ; ; ; ; ; ; ; ; $ e ` ` _ / X U X O 2 0 / / ` ` ^ / / ~ ` ` ` ` ` ( ` ~ ~ / ` ~ e X t 4 8 t t ; t t p t ; ; ; ; ; % % # % # @ ",
"; ; ; % = ; * % = O / ` ` / e X U X O e / ` ` ` / / ` ` ` / ` ` ` ` / ` ` ~ / / ` / 9 t 8 t ; ; ; ; 7 ; ; ; t ; @ # # # # # # @ ",
"* * ; % % ; $ & % O ` ` / 0 O X U X O / ` ` ` / ` ` ` ` ` / / ` ` ` ` / ` ` r ~ / ` / e u 6 t ; ; t ; ; ; ; ; ; = % ; $ % * # % ",
"$ % % ; ; ; < ; ; e ` ( 0 9 X U , O e ` ` ` / ` ` ` ` ` / / 0 ` ` ` ` / ` ` / 0 ( ` ` ) O 8 t ; t ; 7 t ; ; ; ; ; ; ; % * @ % = ",
"# @ * $ % ; ; - ; 0 / ~ r O X U X O / ` ` ` ` ` ` ` / / 0 9 q ` ` ` ` q / _ ` w ~ / ` ` 0 i s a s a u t u u s d 7 ; ; % $ $ ; % ",
"u i t a d u i d o / / / 0 2 X : O w ` ` ` ` ` ` ` ( / 0 W T r ` ` ` ~ 0 r ` ` 0 / / _ ` / O D N m m c x c x n x t ; = % % # # @ ",
"m m M m N c c x O / / e 9 X , X + 0 ` ` ` ` ` ` / / 0 W W W 0 ` ` ` r Y e / ` / e / ` ` / e D D V N x M D m x x ; ; ; ; % % * @ ",
"m N M m f x h f w / / 0 O X : X O / ` ` ` ` ` / / q W W W W 0 ` ` / 0 Y Y e ` ` e ^ ( ` ~ / 2 m S m x x x x m x p 7 ; ; ; = $ = ",
"d d x x d d x x 0 ( / r O X , X O ( ` ` ` ` ~ / e O + O W W 0 ` ` e T T 2 O ` ` e / ~ ' / / O m D N N m x x x m s u t t < t t ; ",
"x x d d x k n o ~ / / 0 d X X X 0 ~ ` ` ` ^ / 9 T E W e 5 E 9 ` ` 9 W O T r / ` 2 ~ / ` r ~ O p t t u s u u t < ; % # # # # # # ",
"g d f d i u i O ` / / e i p X X 9 / _ ` ` / / 0 E X. . . .E / ` ~ Y | W E Y 0 ` O ( / ` 0 ( 2 6 ; 7 ; t 6 t ; ; % ; ; % % * # $ ",
"; t t u < 4 y 9 ` ( / e d X X X 0 / ` ` / ( 9 W  . . . . . ./ ` 9 E E W W E 0 ` + / / / O / O ; ; t ; ; ; ; ; % = $ $ % * * # @ ",
"s s d f d j j 0 ` ( 9 e s X X X q / ` ` / ~ 0 W  .E E  .X. ./ / Y E W W T T r / O / / / O w 2 i u u u p t t t t t t ; t ; ; 4 ; ",
"s d y t t t O ~ _ ~ e O t X X   O ~ ` ~ ( e T X X X X E  . ./ 9 T E W T > X   e O / ( / O 0 2 t t a u s u t t t t t t ; ; ; ; ; ",
"; ; ; & % & O ` ' / r O ; X X X O r ` ~ / r X O O O 5 , W | w E | W Y : O 2 } X O / / / O O p t t a p t 7 6 ; ; ; ; ; ; ; ; ; ; ",
"* * % * # # w ` ` ( w O *   X X X e / ( e e X q O +.2 ] T  . . .| W T O +.O +.X O / ~ 0 2 O i 7 u s u t u t t t t t t t ; ; ; < ",
"8 3 8 6 7 7 9 ` / ~ 0 O ; ; X U X e e / e T , 9 O ] O +.W  . . .| | W O [ 2 +.> + 0 / e O O i t i p i t t t ; ; ; ; t t ; t ; 7 ",
"; ; ; ; ; O / ` / / e 2 6 6 X U : 2 0 e e T Y O 0 O O +. .O.O.O.O.O.| 9 O 2 +., O e / O O O p t t t 7 t ; 7 t t t t ; ; t ; ; ; ",
"u p u t t 2 ` _ / ~ 9 < ; t ;   , X e e O T W ] O 2 ] +.O.O.o.O.O.O.O.o O w W T O w 0 O O e O 7 t 7 ; t u u s i u s u t t u 7 t ",
"d d d j h 0 ` ` ^ / 9 x h x x x X X 0 w 2 T  .O.O.O.O.O.O.O.O.O.O.O.O.O.O.O.X.T O e 9 O 2 e O u u a a t a s u s a s t u p 7 t 7 ",
"k d x h x 9 ` ` ~ ( 9 x x x m x h x O e + T  .O.O.O.O.O.O.O.O.O.O.O.O.O.O.O.X.Y O e 9 O O e O a u t t u t t t t u 4 t u t 7 ; ; ",
"d x d f j / ` ` / ( e f x x x x n n M e O O T O.O.o.o.O.O.O.O.O.O.O.O.O.O.o.W , O 0 O O 2 e 2 u t t t t t t t ; 7 t t ; ; ; t ; ",
"x k s f O ` ` / / / e x N x x m x h f O 2 2 , W O.O.O.O.R  .O.O.O. .O.O.O.W , . w e O 2 + 0 r 2 ; ; ; ; ; ; ; ; ; ; ; ; ; ; ; ; ",
"s 8 t t O _ ` ( ^ / 0 t t t t < i h x n 2 + 2 , T X.O.O.O.W Y T E O.O. .T , X X 0 2 x O O r 0 2 d d j k d g x g d d x d d d u s ",
"; & * & e ` ` / ~ / 0 ; % $ ; % 4 N D N n O N 2 2 , T W  . . . .| E Y , X   X n O D N + 0 q ) 2 D N N D N M N m m N N v x x k x ",
"; - ; ; e ` ` / / / 0 ; < ; ; ; p x N V D Z N m 2 O z n , > , , z O > X X X Z Z D D V O e 0 ( e N A N N N N m m D N m D m x M m ",
"u t 8 u ( ` ` / ~ / 0 p d d p p d D A Z T T : B 0 ( / 0 n z n O n > : , > D D H F m A O e r / e 2 v d x M x m v x m x x x m x d ",
"a t u O ^ ' ` ) / / 0 + d d j d d x N T O.O.W Y > W T / O P O 0 O z O : Y , , S N N N O e 0 / / O n b N V N N m M N x x v m l d ",
"% ; ; O ` ` ' ( / ~ / O ; ; ; t ; ; ; E O.o.O. .U W W / { O 9 / 0 O n + Y > T , ; ; ; o e e 0 ~ e d J N N V N x x x x x x x x g ",
"# = ; w ` _ ` ~ / / ( o ; & ; ; # ; 2 2 W X.O.O.| T W / { } [ 0 / ] P O , : Y > @ # # O O e e ~ ( O x x x x x x x x x x d s x g ",
"% * % 9 ` ` ` ( / ( / e ; = ; % # = n 9 / w E | O.: Y 9 [ [ [ 0 ` e ] P : , , , # # # O O e w ( / 2 Z x m x v x m m x x x d d d ",
"# % & 0 ` ` ` ( ~ / ) e # ; * % ; ; n n O ~ / 0 O O e I ] ] { P ` ~ ] I O w e O # % # * O e r / ^ r Z m m m x x x x x x x x d x ",
"$ * $ e ` ` ` / / ( ~ e ; 4 7 t p p n U X X X O 0 O O n P } { ! ` ` w I 5 2 X   t p 7 u O e r e ( / 2 f d d i s d u u s d d s s ",
"t t ; w ` ` ` / ) ( / e O u u p t p n n X X X X   X O n z Q P 0 ` ` e n X X X   u d i d O e e e / / e t ; t 7 t t 7 < t ; ; ; ; ",
"u t p e ~ ` ` / ( ~ / / O t t u i u n U X X X X X X Z n n n n 9 ` ` ^ n X X @ t t u i u O O e 9 / / ~ O p t t t 7 t 4 ; t 3 ; ; ",
"; 6 6 O / ` ` ( ^ ~ ~ / O t t 7 t ; X n X X X X X z z z z ! ! / ` ` ` n X X   d d j j d O 2 e e e / / e d a u i p t i d t t t t ",
"t 4 4 O e ` ' ` / / / / e t 6 ; 8 t X X X X . X X n n I { { ] / ` ` ` P X X x x c x x x x 5 e e 0 ( / / O d s d s d i d u d a u ",
"c x x x e ` ` ` ( / / / 0 x l x x N m X X X X X n n ! } { { ] / ` X X { n x x n c N x x v O O e e ~ / ( q d x k d l k d k d d d ",
"j x x x 2 ` ' ` / e / ( / 2 b m A N b N N b M x n P ] [ ] [ } w ` ` / ] z x x m f x x x b 2 O e e r / ~ / O c j k x x j i u d s ",
"h f k d O ~ ` ` ( e / ~ ( e M x m x x m k x x 2 e Q P ] { { } e / X   ] ] n x f k h x x x x O w r 0 / / / / O k h h k d j d d i ",
"g h i d x e ` ` ` / e ~ ( / 2 N c b c x n O X X X O e P ] [ } I 0 ` e P } O s d x x c h x x 2 O e e e / ( / / 9 x k h x k f i d ",
"f k x m x O / ` _ / e / / ( e x x x d x e X X X X / O O e e { ] I / O 0 } X X x x x x M N b 2 O e e e ~ ~ / / / 0 j d d a t u s ",
"d d x d d d e ` ` ~ ) e ~ / e O d j d / X X X X ` O   X X X O 0 e r X O e X X X x f d x x h x O e e e w ~ / / / / 9 s u a 7 ; ; ",
"d d s k d d O / ` ` / r w ~ / e j x d ( e X ` ` 2 X X . X X X X X X X X X X X r d d s s d d g 2 O e e O e / / / ~ / O a d 6 # ; ",
"g d x f x j k e / ` ~ / e 9 / e + x x e ` ` / O   X X X X X X X X X X X X / r d j d x x x d x j O O e e O e / / / / 0 O p ; # ; ",
"h d k x b c h x e / ` ~ ( O 9 / r 2 x M x 2 O ~ ` / e 2 e e e O 2 e e ` ~ w 2 N A N D N A N N D S O e 0 e O O e / / ( 5 d 6 ; ; ",
"a d d d g d s d d 0 / ~ / ~ O e / e O j j g a O 0 q r ( ` ` ` ~ e ( ` w O , d d d f d d d j d d s d O 0 e r 0 O + w 0 w 2 & ; % ",
"% ; & ; $ % = ; < t O O 0 ( ( O e e 0 O 4 8 ; t t T W W W T 7 u t , T W W T t 6 t t u u < 6 8 t 4 p t 2 2 w w e O O O O 2 + ; ; ",
"; $ ; ; ; ; ; = ; ; 6 t O O e e 2 p u a p i p u u e E X. .Y s u u 2 0 e r 2 7 p u u t a s u t ; t p < 3 7 O O O O ; 4 6 ; ; ; ; ",
"t ; 6 ; ; ; ; ; t i t u t t O 2 O O 7 ; t ; t t 7 X 0 / ( 2 4 6 t X X X X X ; 7 6 t 7 6 < 4 ; ; ; ; ; & ; ; $ ; ; ; ; * ; # ; = ",
"; ; ; ; 3 3 p ; ; ; ; ; ; ; % % - ; ; ; ; ; 6 ; 3 X X X X X < 7 <   X X + X t 7 ; u t t 7 p t t t ; t ; ; t ; ; 6 ; ; ; ; ; ; % ",
"x m x n N m M x d h m m V N x x x x x m m x x x X X X X / X m N m X X X X X c n i ; 6 t 4 t t t 6 t t 7 t ; ; ; ; ; ; ; & - % * ",
"G D D K L L K F L L D D K L Z D L J D G L H G X X X X X X L H Z B X X X X X   J f ; t t t t t t t t t u t t t 3 t 6 ; ; ; ; = ; ",
"N N V m x m m N D D N C F F Z N Z V F D D A D X X X X X X m N m X X X X 0 X X N s ; 6 t ; ; ; ; ; ; ; ; t ; ; 7 ; ; ; ; = $ % # ",
"F S N m m D N Z F D D G L D D F F Z D B N D X X X X X 0 X m D D X X X X X X X X j ; ; 7 7 7 t t t t t t t ; t t 4 t < < ; ; % % ",
"N N m m m D D V N N M x N D N V D N N m N D X X X X X . X X D A O X . X X X X X d 7 u u u u t u t t t t t ; t ; ; ; ; ; ; % % = ",
"4 t p t t t t t t ; ; ; ; 7 6 t 7 t t 6 4 t o X X X X X X X t t 8 O O e 0 9 e O t t 6 7 ; t t ; ; ; ; ; t ; ; ; % % $ # * # * * ",
"t t p 8 ; ; ; ; 6 t t ; t ; 8 t ; 7 t 3 t t t + 0 / / ~ 0 O p t t u y t 7 t 7 u u t t t t t t 4 t t t ; 6 ; ; < ; = ; # # # # # "
};
