/* XPM */
static char *miku_51677154609[] = {
/* columns rows colors chars-per-pixel */
"64 64 104 2 ",
"   c #1B1D1F",
".  c #171E22",
"X  c #1B1D22",
"o  c #0D3F3C",
"O  c #103E3C",
"+  c #2D2D2D",
"@  c #302E2F",
"#  c #2E302F",
"$  c #2F2F31",
"%  c #2F3130",
"&  c #353535",
"*  c #393637",
"=  c #373937",
"-  c #393A36",
";  c #363739",
":  c #3A3639",
">  c #373938",
",  c #3C3C3C",
"<  c #5C2F24",
"1  c #5D2F29",
"2  c #5A3125",
"3  c #5C3129",
"4  c #403E3E",
"5  c #0E4137",
"6  c #0C403B",
"7  c #3E403E",
"8  c #41413F",
"9  c #0E3E40",
"0  c #363E40",
"q  c #3E3E41",
"w  c #413F41",
"e  c #3F4141",
"r  c #1A6F65",
"t  c #1B6F68",
"y  c #177165",
"u  c #197065",
"i  c #177168",
"p  c #1A7168",
"a  c #434343",
"s  c #494646",
"d  c #464945",
"f  c #494946",
"g  c #454549",
"h  c #494649",
"j  c #464948",
"k  c #4C4C4C",
"l  c #504E4E",
"z  c #4E504E",
"x  c #51514E",
"c  c #4E4E51",
"v  c #514F51",
"b  c #4F5151",
"n  c #545453",
"m  c #595657",
"M  c #565857",
"N  c #595957",
"B  c #53555A",
"V  c #595759",
"C  c #5B5B5B",
"Z  c #605C5B",
"A  c #5E605F",
"S  c #61605E",
"D  c #5E5D60",
"F  c #615F60",
"G  c #5F6160",
"H  c #636363",
"J  c #686667",
"K  c #666668",
"L  c #696768",
"P  c DimGray",
"I  c #767B7D",
"U  c #787A7E",
"Y  c #CC2435",
"T  c #CD2439",
"R  c #AD6345",
"E  c #AD6349",
"W  c #B06349",
"Q  c #CD9477",
"!  c #CD937A",
"~  c #D0937E",
"^  c #797981",
"/  c #2DAD8F",
"(  c #30AD8F",
")  c #2EAD91",
"_  c #30AC91",
"`  c #2DB091",
"'  c #47DDAF",
"]  c #4ADDAE",
"[  c #47DEB2",
"{  c #4BDDB2",
"}  c #47E0B4",
"|  c #4AE0B3",
" . c #A6ADAE",
".. c #A8ADAE",
"X. c #A6ADB1",
"o. c #A8ADB0",
"O. c #E6B7A4",
"+. c #E5B9A4",
"@. c #E8BAA4",
"#. c #E4B9A8",
"$. c #FFE7CF",
"%. c #FDE6D3",
"&. c #FDE8D3",
"*. c #FCFCFC",
/* pixels */
"a a , a w w a s a e , a a a a , a s s s a j k k k M m n C M n d s b k n n M n c n s a e a a a a a j s s a a , , s s h d , = 4 a ",
", , , , , , , , , , , , , , , , , e 7 , e s n n n M C k c C l h 0 s k n C C Z n k v k , , : , a 8 8 7 , 4 , h n z k k k a , : , ",
", , , = = = & = = , : , , , q , e e e 7 e a k k k k M k d n j c k w s s j k k k e a k 4 , , a 8 w , . X q , , , , , & = & + + + ",
", w a a a a w a a a a a a a s s a s s s s a e e a w s g 8 , a X X a , - q , : , a , > w , , a , , X X Y X = , & # # + + + + + + ",
"a s a a s a a q a s a s a s e j h a , a a a 4 a a , q , a a X 2 . a a 8 a o 6 o o o o o o 6 9 u r y 6   Y X & = $ @ & + + + + + ",
", , q a , , , , , , e , 7 , a a 7 , a , , , a a a w 4 q 7 w X Y   a a o o o o o o u r ) / / u 6 o y r t o < X o : , = = & + & $ ",
"a , , , , , , , , = , : = ; & = , , a , , s a a a a w s 8 , X Y X a 6 o o o t ) _ ) / u u p p / ] { / / ) u 9 X 5 : = : $ & & $ ",
", , , = > , = = = ; : = = , , , , , , e e s a , a 8 q u p o X Y   9 o o r / { { { / u / { { { { { { { ) ) ) ) o . & & = & & & $ ",
"= = : & = : = : = = : = , , , , , , , , , , w a 4 q u ) _ u X Y X O o t { { { { ) / { { { { { ] [ ) { { ) ) { ) r X , = = # & = ",
", = ; , , , , , : , , , , a e , , s a s j a a a , u ) { { / X T X o u { { { { ) { { { { | { { { [ ) ] { ) ` ) { ) r : = & & = : ",
"$ & & = = , , = , : = , , w , , a a s h s a e e 8 ) { { | p X Y X 6 ) { { { ) { { { | / u u { { { { ) { ] u ) { { / r , = = : ; ",
"a s a k k h h k k k k k k k n k c n n n M n M m o { { { ) X T 2 6 r { { { ) { { { ) u t R u ] { { ] ) { { ) u ) { [ _ o & & $ & ",
"C m m M C M M M n M m M C M V M M M M C H C C D t { { / u X Y X o / { { { { { { ) y R ! ! r { { { { r ) { { p ) { { { u & & & $ ",
"m C C M k n n k c n n n M M v v V M V C N Z M C r { { / O X 2 6 u { { { | { { ) u R ! ! ! p { { { ) r r { { u ) _ { { ) o , = - ",
"k k n n k k n n k C C n V V M m F F C M N C C D / { { u X 2 X o / { { { { ] ) p R ! ! ! Q r { { { r E r ) { _ u ) { { ) u a w , ",
"n c k k v n n v n n n k k k n M k M m m C N M o ) { ) o . 2 X 6 ) ] { { { ) ` u o o o ! Q u { { / r E R u { { r _ { { ) ) o & $ ",
"v k k k j s s h k k s h d j s a , = , , , , , o { { ) o X 2 X O _ { ' ] ' / y Q +.+.! o Q ) ' { r E R o o { { u / { ] ( ) o = = ",
", a a a a a a d , a a k k k k j s a d a d a g y { ) ) o   X   u _ { { ' / / y O.#.+.+.+.#./ { ) E ! o E r _ { o / { { u ) o = $ ",
"k k k k k k b k k k k h h k k s a s a h a a a t [ ) y k k X . r _ { ' ' / r O.O.+.O.#.#.#.) { u ! ! ! ! R r { 9 ) { { p ) 6 , , ",
"s j s a a a j s s s a a e j k a q a a a a 7 6 y ) / o a X X X t _ { ' / / r Q Q Q +.+.+.@.) ) R ! ! ! ! ! y { o _ { { o ) 6 , , ",
", , , : > , , , , , , , , , , = = w d a a j o t ) / o , . X X r / { { _ ) E . X   X R @.O./ u ! ! ! Q E R r ) o ( { { o u o , , ",
"= = = = ; = & & , , = = = & = , , , , , w , r u / / k s X X X o / [ { _ u X o o o o 3 E +.u Q Q ! ! E < X . t o ) { { o r 6 w 4 ",
", w a , a , , q , , , , , , w 4 , , 8 q , 6 u _ ) u a s X X . 6 r { { _ t X r o *.o o.2 O.O.#.! ! R < o o o.X o _ { ) 6 6 q , , ",
", , , , , , , , , , w w , , , , , , 4 , 4 u u ) ) o a w X X X X t ) [ t p 2 u 6  .o *.E +.+.O.#.! R o *.o *.. o ) { _ o o , , , ",
"s h s e a s a a q , 4 a , a , 4 a a s a o u ) ) ) a s s s X Y X r / ) y E E o y o o *.Q %.%.%.%.+.! 6 X.o *.2 o ) { y o a a a a ",
"k k b k n v n M n n n k x n n n x n n 6 u ) _ ) u C G C M   Y 2 9 r ) y E ! o.o o E *.%.%.$.%.%.%.+.y o o *.2 o _ _ o h a a a 7 ",
"k k n n n M n M x n n n n n M M c M 9 r ) { ) ) 6 D C C C C X 2 X r r o R O.%.%.%.%.%.%.%.%.%.%.%.%.o o t ! R o ) u 6 s a a q , ",
"k n k k v k n k k k k k n v n n o y ) { ] ) / y C M C C C C C X X r t o R #.%.%.%.&.%.%.%.%.%.%.%.%.$.%.%.+.E o / y 6 q , , 7 , ",
"n n k k k n n n M k n M N n o y ) { { { ) ) ) o n M n k n n b n n 6 t o E O.%.%.%.%.%.%.%.%.%.%.%.%.%.%.%.+.R o r r O 0 , , , 4 ",
"s a a a s , q a w a a a o r ) { { { { ) ) ) r V M m n M C C M D D Z u o o W %.%.%.%.%.Y T Y Y Y Y %.%.%.%.! 2 6 t o v k k k a d ",
"= > = ; = : = & ; * o t ) { { { { { / ) _ t C C M C N Z D C S C C C 6 6 o < ! %.%.&.&.Y Y Y Y Y ! %.%.%.~ < X p u 6 M C n n n n ",
", , , , , , , , o y / { { { ] { { _ ) ) y C C C C D C M M C G C C C C o 6 o 1 R +.&.&.! Y Y T ! %.%.+.E 2 X   t o C C Z C n M M ",
"a a a a a a O u / { { { { { { _ _ ) ) u H H H C H C M C C H C F L H H K 6 6 o B < E ! +.#.+.#.#.! E 2 X X X N 6 M M n n n M x k ",
"d h a h s o r ) { { { { { _ ) ` ) ) u C D C C D D S D G H H H C C C C W Q ! E o B B 3 3 2 2 2 n o 2 o   X Z D V M N M n M C v k ",
"> , , : 6 y { { { { { ) ) ) / ) / 6 , , , e e h a s s s a q , , q * E @.Y &.#.6 o ^ m 6 y o y 2 E R o C C C C n M n n n n n v l ",
"& > , , y { { { { ) u ) / ) ) u 6 = , > : = & $ & % $ = + @ + + % + ! +.Y %.%.u ^ y 6 u ) o E +.+.#.R b n n n R O.O.#.b c k k n ",
", & = o ) { { { ) u ) ) ) / u o & , , = & & & & & & = & % = = & & & ! ! +.#.! p U X.U B X o +.%.&.%.+.V X o @.+.2 < R c z k k k ",
"& & > y { { { ) y ) / ) ) t o ; , , : , , > ; = & = = $ & & $ = & & E Q ! ! r o X U   . X r +.%.&.%.O.. X t E #.R +.+.n n n b x ",
"; = o ) { { { u ) _ ) / y o e a h s a d a e 7 a q , , , , , s a , 4 q E t u X X X X X X X / +.%.%.+.E X . u < +.2 < R k c k j k ",
"a 7 o { { { ) u ) / ) u o s s s a a a a h a s a s s s a 7 s k j k k k o   X . X X X X X X / E +.#.R < X X t R < R #.O.q , , , - ",
"s a u { { { u u ) ) y r a s a s s s h a s s a a a s a a 7 q a k k h s X X X   . X X X B B ) r E R 2 X X X u E 2 < E < , a q , , ",
"q , r { { ) r ) ) ) y q 4 7 a e a , a e , e e e q a a h s s x n k n B B X X   X B B E B E 9 _ < 1 X X X X o 2 E 2 2 k h a e a a ",
"a a y { { y u / ) i a a a a , e e a a a a a e 7 q a w a 0 , m C n B I I X X X X n T B T B X u o X X X X X o 6 o k d k k k j d s ",
"n n r { { o y ) ) 6 m m M n n b M C m C m n M C m V n k n n u u o I X.X. .X X X X B B . . X 6 o X . X X X X o v c k k b n k k k ",
"z n p { ) o u ) i M v m F V C M C C V C m M C m n k M M ) _ o X o B o. . . .U X X X . . o X X 9 M X   X M C B x k n x k s k k d ",
"n c o { _ o u ) 6 m m c x C V n C n M n k n n n M n n ) o 9 X X . o I o. . ...X.I I B o t r O O n B n l n M n l n l z k k k k h ",
"k b o ) u 6 o ) o n M k b M M m V m C M M M n n V C C ] o o . X X . O t U  ... . .o.B o r X . X l v n v n n k k n n n n v c j c ",
"z x 6 ) u k 6 u v n v M n n n n n M k c n c n n k k v l ] X . X . t ) ) o r o. . . .B o t r u . X n n n k n n k k k z j s a s d ",
"k k k ) 6 k o o k n k l k v k k k k k k k n k k k j v k o { { { ) )     X X o r u U o X . y o X X o n n k s k k h j h a j a , , ",
"c k k u k k o v k M n n M n n M n k k k k v k h c z k z r   X X X X   X X X X X o r r X X X X X u 6 k k k k g j k k k d k e & , ",
"c k x o n b k c l k z k k n n k v n n n M l k k k l k x 6 o . X X X X X X X X . X X X X X X O u o b k k n n z k s h d k s , & > ",
"x k l n M n n n n k n C V n M M C n M C M n M n n n n C C p ( u X X X X   X X X X X X X o r u o F C C m M m M b b n c k c , , , ",
"d k k j k k k k k n n M n v k v k c k k k j k k k h k k k j u | { ) u { / p 6 o u / ) / r R k k k k k s s j h s s s e a a , = = ",
"= , , , * = - * q a , e a a , a a e , a a a , e a a w 4 , 4 e a o o u t { { ) u o 2 E ! ! R , a e g a , 7 7 4 , , , , w , , , , ",
", = , , , , , , , q , a a e s s a d h s s s s s a a d a a s k h s 1 +.%.+.E e s s o u r t o g 7 e a 4 , a , , e e , w , , , , , ",
"w 8 , , , , , , a s a s a a , 7 a e 7 , a 7 a a 8 a a 7 8 a 7 , 7 o u ) / y 7 e 7 X X X X X , - , , , , , , : , , , , = , = , : ",
", , = , , q s , , , , , , , = = & , , , , , , w , w w , , q , a e X X X X X w w q X X X u X a a a , a a w 7 , , , , , , , , = = ",
"m V n M C C M C k z C C C C M v M C n m M M n M M M M M M n C C M X X X r . M V d , X X X X X a a a , a , 4 , , , , , , > , ; & ",
"H H H L P P H H P P H H P P C H P P H H J P P P L H H P L P H H S X X X X X X J l , X X X X X X a e a a s a a , a , , , , , , : ",
"C D C M M C C C H H C C J H D F C H P H F D H H H C H H C C C M b X X X X X X C k * X X X X _ X X , , , 7 q , a , , , , : = & = ",
"H H C C M C F F H H H K P H H H L A H C C H H C H H C C A M H H S X X   X { X X c ,   X X X X X X X a a a 8 a a 4 a q w , , = & ",
"C C M C C H H C F C C n H Z C H H C C C H H H H J H H H P P H H H X   X X X X . X q o   X X X X . X a s 8 , q , , , , : , = = : ",
"a q a a a a a a a , , = , , e a a q a , a q a a a a a s s a a a w O u X X X X X   a , o o u y r i O , , q , , , = = = = & & & = ",
"a s a w , , , , , a a a a , a e , a a , 8 a , a , q a a a a s a a s 6 p _ ) _ ( u a a s a a a 4 a , a 4 a , , , , : : = : & & & "
};
