/* XPM */
static char *miku_61677154609[] = {
/* columns rows colors chars-per-pixel */
"64 64 98 2 ",
"   c #1B1D1F",
".  c #171E23",
"X  c #1B1D22",
"o  c #0D3F3C",
"O  c #103E3C",
"+  c #2C2C2C",
"@  c #312E2F",
"#  c #2F312E",
"$  c #32312E",
"%  c #2E2F31",
"&  c #2F3131",
"*  c #353535",
"=  c #383636",
"-  c #363836",
";  c #393936",
":  c #373639",
">  c #39373A",
",  c #373939",
"<  c #3C3C3C",
"1  c #5C2F25",
"2  c #5C2F28",
"3  c #573126",
"4  c #5A3025",
"5  c #403E3E",
"6  c #0D4136",
"7  c #0D403B",
"8  c #3E403E",
"9  c #41413E",
"0  c #0D3F40",
"q  c #3E3E41",
"w  c #413F41",
"e  c #3E4141",
"r  c #1A6F65",
"t  c #1A6F68",
"y  c #177164",
"u  c #197065",
"i  c #1A7168",
"p  c #434343",
"a  c #484646",
"s  c #464846",
"d  c #494846",
"f  c #464649",
"g  c #494649",
"h  c #474949",
"j  c #4C4C4C",
"k  c #504D4E",
"l  c #4E504E",
"z  c #51514E",
"x  c #4E4E51",
"c  c #514F51",
"v  c #4F5151",
"b  c #4E555B",
"n  c #535353",
"m  c #595657",
"M  c #565956",
"N  c #595957",
"B  c #53555A",
"V  c #59575A",
"C  c #575959",
"Z  c #5B5B5B",
"A  c #5E605F",
"S  c #60615D",
"D  c #5D5D60",
"F  c #605E61",
"G  c #636363",
"H  c #686465",
"J  c #696768",
"K  c #676968",
"L  c #696969",
"P  c #767A7E",
"I  c #79797E",
"U  c #CC2435",
"Y  c #AD6346",
"T  c #AD6349",
"R  c #CD9376",
"E  c #CD937A",
"W  c #D1937A",
"Q  c #777A81",
"!  c #797981",
"~  c #2DAD8F",
"^  c #30AD8F",
"/  c #2DAD91",
"(  c #30AC92",
")  c #2DB091",
"_  c #4CDEAF",
"`  c #47DEB1",
"'  c #4BDDB2",
"]  c #49E0B2",
"[  c #A6ADAE",
"{  c #A8ADAE",
"}  c #A7ADB0",
"|  c #A9ACB0",
" . c #E6B6A3",
".. c #E5B9A4",
"X. c #E6B8A8",
"o. c #FDE5CF",
"O. c #FDE6D3",
"+. c #FEE8D1",
/* pixels */
"p p < p p < p p p p < p p p p w p p g p p d j j j M m n M M n p g n j n n M n j n s p w p 9 p p a f p s p 9 < < p g d h q , p 8 ",
"< < p < < < < < < < < < < < < < < w p e p p c n M V N j x D n f < p j n N F F n j c j < ; < < w p X X 5 w p d M k k j j w < < < ",
"< = - : : < - - - < < < < < < < w p p < w p j j n j n j d v j X X p f p s j j d p p s p q < 8 p < 4 X X 5 < 5 < < , - - * + + + ",
"p p p p w p w p p p p p p p d p h s p g a p p 8 w p a p e 8   2 X p < < o o o O o o u u r i 7 q < X U X : - = * @ @ & + + + + + ",
"p p w p p p p < f p p p p p p d h p 5 < p e 5 p p < w q 8 p U X X o 7 o o u ~ ~ / / o o u r r y 7 X X U X 7 o - * $ * + + + + + ",
"< < p p w 8 w < < < p < p < p p 5 < p 5 < w p p o r y o < X U X 7 u ( ^ / / u u u y / / ~ / ( / / r 7 U X o 0 o = : = - * + * % ",
"p < < < < < < < < : < - - : - : < < e 9 < f f o ~ ' ' / 7 X 0 u ~ ] ' ' ' u r ^ _ ' ' ' / ' ( / ~ ~ / 7   X 7 7 < : * - * * - @ ",
"< < < - , < - - - ; < = : < < < p < < < p p 7 / ` ' ' / X 7 ( ' ' ' ' ' / / / ' ' ' ' ' ' / ' / ~ / ' / u X 7 o o * * * * * * + ",
"* - : - - < - : - : : = < < < q < < < q < < r ` ' ~ / r o / ' ' ' ' ' / / ' ' ' ' ' ' ' ' / ' ' / / / _ / y o o o = < : * * * * ",
"< - < < : < < < < < < < w w p < 9 p p p j p / ' ~ ~ r o r ' ' ' ' ' ~ ' ' ' ' ' / ' ' ' ' u / ' ' t / / ' ( u o o < < - - * * < ",
"* @ * : - < < < < < - < < 9 < < p p a p p o ' ' ( y r o ^ ' ' ' ' / ' ' ' ' / ( u ' ' ' ' r u ' ' ~ u / ' ' ~ o o o < : - = , - ",
"p f p d c g g j d j j j j j n j j n n n V 7 ' / / t o r ' ' ' ' ' ' ' ' ' ( / u u _ ' ' ' u T ( ' ' u ( ] ' ' u o o < * * * * @ ",
"Z M m C Z Z M n n m m M Z M V M n C Z F G u ' / u y o u ' ' ' ' ' ' ' ' ~ ~ u T u ' _ ' ( T T u ' ' r ~ ~ ' ' / o o < < * - * @ ",
"V Z Z m j n n j x n n n M M k c V M M Z Z u / ~ i 0 7 u ' ' ' / ' ' ' / / u E E u ' ' ' ) T T u / ' / u / ' ' / y o o < > < * < ",
"d j n n d j n n j C Z n C C m m Z G D m m u ( ~ r o 7 u ' ' ' ~ ' ' / / u E W E u ' ' ' u T T Y r ' ' u ( ' ' ~ ~ o o e 9 p p < ",
"m n j d n n n x n M n j j j n m c n M M o u / ~ r Z o u ' ' / ' ' ' / o 7 7 E E u ' ' / T 7 7 O u ' ` u ~ ' ' ~ ~ o o * * * * @ ",
"v j j j d p f d d j d f h g f p < , q < 7 r / u r p o r ' _ / ' ' / u T E y o E u ' ' u o T T T r / ' O / ' ' t / 7 o ; - * = = ",
"q e f p p p p h w p f j j j x d p p d p O u ( u o p o r ' ~ ' ' ' y u E ......E u ] ' r T E E R Y r ' 7 / ' ' r ( o o : - - * & ",
"d j j j j j n j j j j g d d j d p p p p o u / u o j 7 u ' / ' ' ( i E ..........E ' ' T E E E E E u ' o / ' _ o ( 7 o o < < 5 < ",
"h d f p p f d p d p p p p f j p p e a g o / / r 7 X o t / / ' _ u Y ....E E ....../ ' E E E E ..X.E / 7 / ' ' o r o o o < < < < ",
"< < < : < : < < q < < < < < < - : 8 p p 7 ~ / u o X 7 7 ~ ) ' ~ u X.......Y E ....y / E E T ........T o / ' ~ o u o y o < < < q ",
"= * - - - * * - - < - - * - * < < < < q o ^ / u p X X 7 u / ' / u R T Y ....T ......y E Y .. .Y Y X.Y 7 / ' / 7 o o y o < < 5 < ",
"w < p p < w < p 8 < < < < < 5 p < < 8 w u ~ / r 8 X X X u / / u E T X X X   ........E  ...X X X X Y T o / / u 7 7 O r 7 < p < < ",
"< < < < < < < < < < w w q < < < < q q o y / r u w e X X r r / o R X ....Y 1 X ..O.O.O...X 3 T ..X.  T 7 u / r o X 7 u o p < < < ",
"d p f p p p p p w < w q < p < q p p s 7 u ~ u u p h X U X u u o R ..O.O.O.O.O.O.O.O.O.O.O.O.O.O.O...T o u / O X   O / 7 p f p s ",
"j x x z n n M M n c j n c n n n v z n 7 / ( u u M Z X U 1 u u o E O.O.O.O.o.O.O.O.O.O.O.O.O.O.O.O.O.T o u t 0 X X o / o p 9 p < ",
"j j n n n n n M n n n n n n m M c M o y / / u u Z Z Z X 1 7 u o T O.O.O.O.O.O.O.O.O.O.O.O.O.O.O.O.O.T 7 u u o X o o / o p 9 < 8 ",
"z n j j k x n j j j j k n c n n M m o r / / u o N C Z Z X 6 u o T  .O.O.O.o.O.O.o.O.O.O.O.O.O.O.O...Y o r y o 5 7 y / o < 8 9 < ",
"n j d x n j n n n j n M V M M M n k o / ~ / r o Z M M n n n u o o Y O.O.O.O.o.O.O.O.o.O.O.O.o.O.O.E 2 7 y o : < o u ~ o 5 < < < ",
"d p p p p p w p p p p p p w w w p n u ^ / / u O Z V n n V C o o o 3 R O.O.o.O.U U U U U O.O.O.O.R 3 X y r o n 0 o ( ( o j j p a ",
"< : - : - - - * * - - - - : < - p o y ' / ~ u 7 M M D N Z Z A 7 o Z 1 T ..O.O.O.U U U O.+.O...T 1   X r o Z V o y / ~ o n n n n ",
"< < < < < w < < < < < < w < < < f o / ' / ~ u 7 M Z F V Z Z A Z 7 N S o 3 Y E  .........W T 4 X X   F o Z Z Z o r / ~ o Z M m M ",
"p p p p p p w w p p h d j j h p j y / ' ~ / u o G M M M C F S Z L H 3 u 7 n 4 2 2 4 3 2 7 3 X X   C n l Z n 7 o u ~ / o M Z n j ",
"d p p p p p a p p p j d j j k j j t ' ' / ~ r G S F F G F G G D N 1 T T 4 7 P P P 0 m P B o o 1 1 n C Z S Z o u u / ~ o n N c j ",
"< < < < < < < < : < : < < < < p o r ' ' ^ / y p p a p p g q < X 2 ..O.O.T O.7 B 7 u o B o ! o Y 3 O.E O.O.Z o r u ^ u n n n k v ",
"* < < < < < < : : < - * < ; < < O / ' / / / y * + * * - + % X r Y O.T Y 2 ..P 7 u ( u o P P B o O.T T X.X.7 o u / / 7 n v j j v ",
": - - * - : : * * * = : ; < < = r ' ' / / ~ u * - * : * + : X / E O.O.O.3 T { | P r ! } } } P 3 E O.o.O...7 o u / / o x n j j j ",
"* * : : - * = - * $ * * : - * o / ' ' ( ~ ( o : = - - @ * X X / E O.Y T 4 4 { { y ~ y } } } P 1 3 T ..O.E o r r ( ^ 7 n M n j c ",
"- = < - - - , < < < < < q q e r ' ' ' / / / o 9 p q < < < B X r E ..O.E T 1 } { r ' ~ [ [ Q ! 1 ..O.O...r o u r / r g j j d j f ",
"p w < < p < p < w p f g d d r / ' ' ~ / / u 7 f p p g p < B X y T E E T 3 B b I r ' ' P P P B 3 Y E  .E o o u / / o e e < < < < ",
"p p p s p f p p p p p p f u / ' ' ' / / / r p p p p p p w U X o   2 3 1 B B B B / ' ' B B B b o 1 T T 0 X o r / ( o q e w p < < ",
"< p < p p w < 8 q q 5 < r / ' ' ' / / / / O w 9 8 9 f d a B . o X X o B b P P Q / ' ' t P B B X o o o X B o y / u o j d p e p 9 ",
"p p 5 q 8 9 p p e p 7 / ] _ ' ' / ~ r ~ ~ o 5 q p p < p e   X X o o   I { { } u ' ' ' r P P B X X . X m m y u / 7 d d d h j g p ",
"n n n n n k c n m o / ' ' ' ' / ( u / ^ r B M Z m M n k M n X X X X B { } [ { t ` ' ' r P } I . X X . X 0 r ( y o c x n n k j j ",
"c n n M n M n m o / ' ' ' ' ~ ( u ~ / / o V M M n j n n Z C j   X X P [ [ } } r ' ' X X P } { B X X X o u i / o c n n l p d j h ",
"n x c j n n n o / ' ' ' / ( / r y ~ ~ r x n n n Z j n V m V n z n B P [ { [ [ r / ' ' r I } { I o o o u y ~ r o z x x j k j j p ",
"j k f x M j f y ' ' ) / / u r u / ( r o n n V M Z C Z C n y o o X o P { [ } [ { t ' X X P { [ y X o u u u i o j n n n n n j j x ",
"j z n m n j 7 / ' ( / u r u / ~ / y o c M j n n j v j x u o X X X X o Q [ } I r X y ' o P { i X X X u u i 7 z x j d j j f p p d ",
"k l n j j j u ( / u o o ( ~ ( u r o x k j j j j l j j d ^ X X X X X X o y P u X X X r o r 7 X X X X o o j a j j p d d f h e < < ",
"j j g l x d i / r o u / / y i 7 c j j j n n j p j n j x j ' ' 7 X X / X o O X X X X X u o X . X X 7 0 j j j j f j j d d j p * < ",
"j j v j n o y y o y r o o o n z n n k n n c j j j x x v z j o ' ' / X X     X X X   X X   X X X ~ u 7 k n n j j d f s j p < - : ",
"n j c n V o u o 7 n c M V n n M D n M Z n n V M n n m Z M Z N 7 r r / X X X X X X X X   X X X ' u o Z M M m M n n n x j n w < < ",
"d j j j x o o x x n n M n c j v n d j k j j d j j s l d j d j h a 0 r ' ' / 7 u / ' ' / r ~ / 7 o j d s f d f s a p p p < < - * ",
"- < < < : o : < p p < < p p w w 5 9 e p e p 9 p p p < < q e p f p p T E u u 7 o u y u u O T E T p p p < p 5 < < < < < 5 < p < < ",
"< - < < < < < : < q p p e p p s p f f d s p f p f p p p p f g d g p y .. ...Y p p f h 1 T E W u w p < p < < 9 q p < p 5 < < < < ",
"e p < < < < w < p p p a p p < w p 8 p < p p p p p 9 p p e p p < p < X u ) ( i < p p q 7 r u t X < < < < < < < < < < < : < - : < ",
"< < = < < 5 p < < < < < < < - - * < < < < < < e < w e < w w e < 9 < X X X   X 5 p p p X X X X X p 8 p p 9 5 < < < e < < < < < - ",
"M V M M A Z Z M j n Z Z Z Z M c M C n V M M n n m M M M n n Z Z M X X X y X X V p < p X X . o X < p w w 9 q q < < < < < < = - * ",
"G G G J L L G G L L G G L L Z G L L G H H H K L K K G L K K J G X X X X X X F K v < p X X X X X p p p p a w 9 < p < < < < < : < ",
"Z Z Z M n Z Z Z G G Z Z H H F Z A A K H F G G H G Z G G Z V Z C X X X X X   M Z j = p X X X X X X < < 5 < p < p < < < < : : * - ",
"H G Z Z V F Z G G G G J L G A H L Z G Z Z G H Z F G Z Z A C G X X X X / X X G L l ; w X X X r X X p p p p p 9 p w p w w 5 < - - ",
"Z Z M m M G G Z D Z Z n A G Z G G Z Z Z A G G G H G G H L L G X X X X X X X A G j p p X X X X . X X 9 p w 5 8 < < < < > < - = : ",
"p p p p p p p p p < < - < < 8 e < p p q p p p 9 e p e p g p p 6 X X X X   X 8 8 p 9 w X X X X X X 7 < < p < < < - - - * * * * = ",
"p p p q 9 < < < < p p p p < p p p < p < 8 p < p q p p p p p f w o ( / ~ y o p f f p p o r ~ ( y u o p w e < < w < : < * * * - : "
};
