/* XPM */
static char *miku_81677154609[] = {
/* columns rows colors chars-per-pixel */
"64 64 244 2 ",
"   c #180C16",
".  c #04161A",
"X  c #1B141B",
"o  c #1B191E",
"O  c #13161B",
"+  c #010812",
"@  c #32191D",
"#  c #1B1C22",
"$  c #131D21",
"%  c #2D1D24",
"&  c #062729",
"*  c #182729",
"=  c #15322D",
"-  c #1B2C31",
";  c #0C3D3B",
":  c #093836",
">  c #123C3B",
",  c #1B3C3B",
"<  c #183735",
"1  c #00322D",
"2  c #2D2C2D",
"3  c #25282C",
"4  c #3A2622",
"5  c #2D2D31",
"6  c #233D3D",
"7  c #283A38",
"8  c #353535",
"9  c #353936",
"0  c #343539",
"q  c #353A3A",
"w  c #3C3C3C",
"e  c #393737",
"r  c #30312F",
"t  c #3D2B1F",
"y  c #50291E",
"u  c #751725",
"i  c #691E25",
"p  c #4A2626",
"a  c #543428",
"s  c #403E3F",
"d  c #493B30",
"f  c #503330",
"g  c #6F2D2C",
"h  c #71111D",
"j  c #0D413D",
"k  c #02403D",
"l  c #16423D",
"z  c #26413D",
"x  c #3D403E",
"c  c #34433D",
"v  c #41413E",
"b  c #574339",
"n  c #6D4737",
"m  c #3E3E41",
"M  c #353F41",
"N  c #233F41",
"B  c #113D40",
"V  c #413F41",
"C  c #0E4441",
"Z  c #0D4943",
"A  c #084A48",
"S  c #124442",
"D  c #1A4342",
"F  c #124A45",
"G  c #154E4B",
"H  c #0D534D",
"J  c #05554B",
"K  c #15534C",
"L  c #0A5954",
"P  c #135B54",
"I  c #165A54",
"U  c #1E4D53",
"Y  c #274846",
"T  c #354342",
"R  c #3D4242",
"E  c #384B4A",
"W  c #28524C",
"Q  c #36534C",
"!  c #265C55",
"~  c #365856",
"^  c #2A4F51",
"/  c #15645B",
"(  c #17655A",
")  c #086258",
"_  c #2A635C",
"`  c #356659",
"'  c #176C62",
"]  c #196C63",
"[  c #186761",
"{  c #1A7265",
"}  c #1A7469",
"|  c #1B796B",
" . c #167367",
".. c #0E756A",
"X. c #276A64",
"o. c #227465",
"O. c #257A6C",
"+. c #347668",
"@. c #31756C",
"#. c #434343",
"$. c #464649",
"%. c #444B4A",
"&. c #4C4C4C",
"*. c #474846",
"=. c #4D504F",
"-. c #47524E",
";. c #51514E",
":. c #5B504C",
">. c #4D4D50",
",. c #474B56",
"<. c #514F51",
"1. c #4D5253",
"2. c #485657",
"3. c #535353",
"4. c #56595B",
"5. c #5B5B5B",
"6. c #575757",
"7. c #564946",
"8. c #6C5650",
"9. c #5D615D",
"0. c #496153",
"q. c #61645C",
"w. c #736654",
"e. c #5D5E61",
"r. c #455F61",
"t. c #615F62",
"y. c #5F6161",
"u. c #556C66",
"i. c #567469",
"p. c #4E7471",
"a. c #636363",
"s. c #686968",
"d. c #707171",
"f. c #921E2C",
"g. c #8B2A2D",
"h. c #B3242F",
"j. c #974933",
"k. c #8E544C",
"l. c #A95D47",
"z. c #926B56",
"x. c #A9624B",
"c. c #B06F56",
"v. c #8F6E61",
"b. c #AD7B68",
"n. c #CD7357",
"m. c #D67F63",
"M. c #E57D5A",
"N. c #1B8876",
"B. c #0E8D7B",
"V. c #238473",
"C. c #238A76",
"Z. c #238D7A",
"A. c #298574",
"S. c #36867B",
"D. c #25937D",
"F. c #32826E",
"G. c #4F8475",
"H. c #B08974",
"J. c #9A8673",
"K. c #D2866B",
"L. c #D7957A",
"P. c #CB8E74",
"I. c #E2977B",
"U. c #E78C6F",
"Y. c #7A7D81",
"T. c #8B7E87",
"R. c #1F9580",
"E. c #269A84",
"W. c #299B84",
"Q. c #279984",
"!. c #3D9484",
"~. c #0FAC93",
"^. c #2BA58B",
"/. c #2BAA8E",
"(. c #26A68B",
"). c #2DAD91",
"_. c #2DA790",
"`. c #33AE92",
"'. c #2EB294",
"]. c #2CBB9A",
"[. c #31B395",
"{. c #34BC9B",
"}. c #39BC9A",
"|. c #37B696",
" X c #34AC8E",
".X c #38BFA1",
"XX c #449588",
"oX c #748F89",
"OX c #4BAB93",
"+X c #6CB294",
"@X c #71ABA3",
"#X c #3AC29E",
"$X c #3DCAA5",
"%X c #3BC6A3",
"&X c #3DD1AC",
"*X c #3DD9B1",
"=X c #42CDA9",
"-X c #44CBA5",
";X c #45D3AB",
":X c #45D5AA",
">X c #4BDDB2",
",X c #45DAB2",
"<X c #4DE2B5",
"1X c #4BE5B8",
"2X c #51E5B9",
"3X c #52EABC",
"4X c #51E4B7",
"5X c #53F1BE",
"6X c #5CCCAD",
"7X c #55F4C3",
"8X c #51ECC0",
"9X c #8C8F8F",
"0X c #B39589",
"qX c #A89BA2",
"wX c #97ACAD",
"eX c #A8AAAC",
"rX c #A9AEB1",
"tX c #ACB3B6",
"yX c #B6B8BA",
"uX c #98A19F",
"iX c #CE9A83",
"pX c #D5AA92",
"aX c #E6B59E",
"sX c #F1AD95",
"dX c #E9BDA7",
"fX c #F9BDA8",
"gX c #D1ACA0",
"hX c #F6C3AD",
"jX c #EDC9B6",
"kX c #FAC9B3",
"lX c #F3CEB8",
"zX c #BDBCC1",
"xX c #B7C9CA",
"cX c #F9DAC5",
"vX c #FEE3CE",
"bX c #FDE6D3",
"nX c #FEECDB",
"mX c #FEEAD8",
"MX c #FFF1DD",
"NX c #DBE8EA",
"BX c #FEF4E2",
"VX c #FFFAE5",
"CX c #FBF6F0",
"ZX c #C7C3C0",
/* pixels */
"#.#.w #.#.#.#.#.#.#.w #.#.#.#.#.#.*.*.$.#.*.m # 3 4.4.<.4.6.3.*.*.3.&.3.3.6.3.;.3.$.R v #.#.*.v $.$.*.#.*.x w w *.*.&.*.w e m #.",
"w w #.w w w w w w w w w w w w w w V w v R w p h.. M 5.&.;.4.;.*.w #.&.3.4.5.5.3.&.0 # 5 e w w #.w #.w V s R &.3.<.&.&.&.#.w w w ",
"w w e e 0 e e e e w w w w w w w V #.v w e p h.& H } ]  ./ : j j j j ; ; ; Y &.&.R 5 p p 5 w V v w w s V w x w w w w e e 8 2 3 2 ",
"s #.#.R #.#.w #.#.#.#.#.#.#.*.*.*.*.R : % f J | } } [ : / {.).Q. .I S C ; > j , #.3 g.u 7 w #.R w m w w e e 8 8 2 r 2 3 2 2 2 2 ",
"#.*.m #.*.#.#.R *.*.#.#.*.*.#.$.*.R : * H V.[.[.`.[.[.^.] } ' C.'.'.[.W.P ; j ; Y < f.u T W / } ^ #.w w e e 8 e 8 5 8 2 2 2 2 2 ",
"w w #.#.V w w R w w R R w w #.V m 0 * P .X'.).).}.;X|.4X2X:XQ.( ] C.[.[.{.Q.I ; j & f.u A W.,X;XV.Y w w e e e w e e e e 8 r r r ",
"#.w w w w w w w w e w e 8 e e e q - N.%X:X^.).}.:X'.2X>X>X>X-X[.[.'.}.4X$X[.Q.P j 1 f.h ' *X>X2X:XE R #.R w R w w e 8 e 8 8 e r ",
"w w w e e e e e e 0 e 0 e w w w T N.%X:X/.^.{.4X=X}.2X,X<X%X}.1X4X=X^.%X>X<X&XQ.L & f.h / (.%X>X5Xo.c w w w #.e 5 r 8 8 8 8 8 2 ",
"8 e 0 e 0 e e e e 0 e e e w w M V.#X>X^.W.V.3X=X[.4X>X<X$XD.#X<X>X>X4X$X#X>X1X:X| & g.u & H Z.%X3XW.Q w w w w w w e w e 8 8 8 8 ",
"w e e w w w m w w w x w R #.x G #X4X&XW. .$X<X-X'.4X>X<X|. .(.'.>X,X>X<X#X#X<X4X|.H = h.u A [ Z.:X-X~ #.w w w w w w e e e 5 8 w ",
"r 8 8 e e w w e e w 8 e w R 7 D.3X:X/.^.O.3X:XN.V.<X>X4X#X( ` F.(.}.>X4X<X>X<X>X;X| & g.i & H R.=X7XQ #.#.*.*.&.R w w e e e e e ",
"#.$.#.&.&.*.*.&.&.&.&.&.&.&.K {.<X>X(.D.N.3X}./ +.'.4X<X|.0.U.J.| ^.}.>X>X>X>X>X3X XH r 4 - P [ |.7X] %.6.3.6.6.R w w e 9 9 8 5 ",
"4.6.6.6.5.4.6.6.3.6.6.6.4.2.V.{.>X:XD.{ $X:XC.w.l.B.<X<X].u.I.I.H.N.(.#X<X<X,X<X1X`.H & p @ F ' Z.<Xo.-.a.6.6.=.w w w w 8 0 8 5 ",
"4.5.4.6.&.;.3.&.&.6.6.3.3.Z {.[.>X(.(.V.5X#XW l.z.{ '.5X].u.I.P.H.s...(.#X,X>X>X1X&X .$ y p = P Q.,X(.2.1.3.6.3.#.#.w w w e e w ",
"&.;.3.3.&.&.3.3.=.4.4.;.3.F ).^.>X/.D.V.5X#Xk c l.z.B.5X'.i.U.9.: z Q F.(.#X,X<X4X=X{ & p @ 4.~ E.$X;X~ 3.4.6.6.&.*.*.#.x #.R w ",
"3.;.&.&.3.<.3.;.6.3.3.&.%.F _.| <X'.D.l >XC.q.x.0.H.A.1X}.G.b.! J.sXU.w.B.(.#X1X4X%XR., O o %._ Q./.<Xo.q #.#.m w e 8 r 8 8 8 8 ",
";.&.&.&.*.$.*.$.&.&.*.*.R F ).] ;X/.D.K ,X~ M.iXL.P.v.~.*X+XsXkXfXdXaXJ.V.(.#X,X1X$XZ.> X 2 w _ Z._.1X} T x x w e w w 0 e 8 e e ",
"w #.*.#.V #.*.*.x v *.&.$.F Q.j '.'.D.K &X+.U.P.L.L.H.F.&X+XhXaXdXaXdXfXv.B./.%X2X$XZ., o X T ^ P D.,X^.T w w e w e e e e 8 8 5 ",
"&.*.&.&.&.&.&.&.&.&.&.*.E j ( Z '.'.E.F D.Y j.l.P.L.K.z.~.+XfXhXiXk.b.H.w.A.(.#X>X=XN.< # o M N P Q.:X;XY #.R #.#.#.w v w w x w ",
"*.&.*.#.#.*.*.*.*.#.*.#.v Y / Z |.'.W.: I 8 . p x.P.L.H.{ OXhXL.b . . . f 8.B.).-X$XP * o o M N P D.=X=X/ q #.#.#.R #.x w w w w ",
"w w w e 0 e w w m w w w w w : F ^.).W.& V xXC p.y c.L.pXH.oXaXx.0 ! +.B = : N.^.$X^.F $ # X m N H E.^.<XO.T w w w w w w w w w w ",
"e 8 e e e e e 0 e w 8 e e e , C | `.C.: 8.NX^ NX= K.pXhXhXhXP.iX@XoXyXA l d ` R._.N.B @ 4 * m N P W./.>XD.E #.#.#.#.#.x w w w #.",
"m w #.#.w m w #.s w w w w w R l ' ).P = z.NX< p.` sXlXjXjXjXgXcXtXD p.J c l.w.B.N./ > h.u M #.c I Q.).,X^.Y w m v w #.#.#.w w w ",
"w w w w w w w w w w m v R w w w Z Q.P - z.ZX1 1 p.vXnXnXmXMXcXmXxX: 1 P z.n.q.) | J p f.p q *.#.W W./.;X,XI q #.#.#.w s m #.w w ",
"$.*.*.#.*.*.#.#.m w s s w m m w C  .( z n.0X+Xi.9XVXbXbXbXbXbXBXCXeXu.uXjXK.b J | D @ 3 w #.*.#.! Q./.;X7Xo.E *.*.*.*.#.#.#.V *.",
"=.&.1.&.&.3.3.6.3.3.=.<.3.3.3.1.S | ( z m.lXBXBXMXvXvXbXbXbXbXbXbXnXVXBXvXL.b J  .N 5 w $.*.*.#.! Q.).}.<X^.E $.*.&.#.*.$.#.#.V ",
"&.&.;.3.3.6.3.6.<.;.3.3.3.3.6.1.j / ( , l.hXMXbXbXbXmXbXbXbXMXMXbXbXbXMXkXb.9 L ! 3.1.#.*.*.*.&._ E.[.^.;X,XW #.#.#.#.#.#.#.w w ",
"&.3.<.&.<.&.3.&.&.&.;.&.3.3.3.1.j j | l d b.cXBXbXcXcXMXMXmXhXaXnXbXMXnXP.4 1 G ~ 5.<.*.#.*.&.*.! E.[./.-X5Xo.c V #.#.s w w V w ",
"3.<.$.&.3.=.3.3.3.3.3.6.6.6.1.E j j (  .< a c.jXnXmXjXaXiXpXL.gXVXMXkXH.a O < l %.5.3.w v s #.m I W.[.^.=X3X^.R w s s w w w x w ",
"*.#.#.#.*.s R #.#.V *.#.V #.x ; : ; j L Y 6.d j.H.hXhXL.P.P.kXvXfXP.w.@ 8 %.C 2.3.;.3.3.6.3.&.&.W D.'.^.;X4X,X^ $.&.<.&.&.&.*.*.",
"w w 8 e e e e 8 e 8 0 e 8 e 0 C K j ; : l :.5.7.f j.d.0Xb.b.v.v.z.p + + n k.;.4.5.a.9.4.5.a.5.5.6 C.[.).}.,X8Xo.2.4.6.6.3.3.>.3.",
"w w w w w w w w e w w w m w w F { ; ; j e 8.k.7.b < D q f d f s U L c g H.aXb.w.a.9.t.q.5.t.a.5.Y C.'.`.(.;X3XZ.9.5.5.q.4.6.6.6.",
"*.#.#.#.#.#.#.R #.*.*.*.-.*.Y C ( = j d j.g x.p 7 ^ ^ F 2.d.,.A X.d.v.sXvXVXkXw.a.4.q.a.a.a.a.5.N C.|.'.^.;X2X^.W 3.3.3.6.6.3.&.",
"$.*.#.*.*.#.*.*.#.*.*.&.&.&.: P ' j l g.x.a n 7 Y B [ N.A ~ ( F.H.K.sXMXMXkXH.Q 2.5.5.6.6.3.&.6.N ] ^.'._.;X<X>XP -.6.;.3.4.3.&.",
"e w w w w 0 q w e e e w w w C | ( j = g g.y p ^ d.oXR.Q.oXp.OX@Xn.b.MXcXiXG.F.G T w m e e 8 w w , I E.[./.:X<X3X{ 2.;.3.3.3.<.&.",
"8 w w w w e w e e q 8 e e , j { ( j l c ` Q M Y.9XOX|.d.zXzX@Xp.j.Q oXG.OXB.] r.$.8 r r 8 8 8 2 3 K W.)._.}.:X3XA.2.;.3.<.&.&.3.",
"e 8 e 8 8 e e 8 8 8 8 e 0 j / { ( j j = G J U qXwX~.6XqXtXrXY.p.^ A L U _ j i k.R 8 0 e 8 0 e 8 r ! E.'.).^.;X1X(.4.3.3.&.>.&.&.",
"8 8 e 0 e 8 0 8 8 8 8 8 e S { { ( k = X # * 7 s.XX*X6X9X9X9XY.r.k - B # o O f 8.R 8 0 e e e 8 8 r ! W.'././.;X<X<XW 3.3.6.3.<.&.",
"e e e e e 8 e w q e w w 6 ; |  .' : j = # X 3 r.(.>XOXd.e.e.e.E & X X # # X i k.1.#.V $.&.*.#.#.x ! E.'.)./.;X>X3X} *.&.&.&.&.*.",
"R R w m #.w #.v R #.$.$.j ( ] { j j j : # # 3 S.,X=XXXT.e.V 4.,.N & # # # X V 7.e &.&.&.&.*.*.&.&._ W.'.)._.:X<X4XC.R V w w w e ",
"*.#.*.#.*.*.#.#.#.*.V R j | { ( j j j < 8 o * (.7X;X!.T.uXoXe.,.4.7   # # # 3 - 2 *.$.*.*.*.&.#.*.Y D.'.). X{.:X3XV.s w #.V w w ",
"w w m #.V w R V m s m , ; } { [ ; j j , w r M = @.>XXX9XyXrXuXY.e.,.5 $ # # # 2 #.>.>.<.&.3.3.3.&., Z.'.`./.(.;X3XV.&.$.#.v #.#.",
"*.#.#.w #.#.s #.#.R #.j /  . .[ ; j ; j R #.2.] -X-X@.9XtXrXtXrX9Xt.,.>.V V V >.6.3.3.3.6.3.;.3.3.N C.|./.)._.;X3XC.*.&.*.&.$.*.",
"3.3.3.3.3.&.&.6.6.6.3.C { ] { ] ; j l =.4.e.e.* +.%XX.eXrXrXeXrXrXY.3.<.<.6.3.5.3.6.3.6.6.3.6.3.3., C.'.).'.^.;X2XV.<.=.3.&.&.&.",
"<.3.3.3.3.6.3.6.4.3.3.C }  .] Z ; ; l 5.6.s.oXH |.|.Y.yXeXrXrXrXyXqXu.I E 4.3.3.<.3.3.6.6.6.6.6.6.6 C.[.[.V.Q.;X3XV.;.=.&.*.$.&.",
"3.<.&.&.3.3.3.&.3.3.Y : { { ( ; j j D 6.>.d.yX@X%X@.T.tXrXtXyXqXY.!.X.: M <.3.<.&.<.3.3.3.3.3.3.3.6 C.[.[.| Q.&X8XC.;.&.&.&.&.*.",
"&.3.*.;.3.&.*.&.3.<.j ( { { ] : j ; F 6.> p.qXwXJ @.yXyXyXuXA.!./ k - # # m $.&.3.3.6.&.3.3.&.3.;.! D.[.[.} |.<X;X/ ;.3.=.&.&.&.",
"&.&.3.6.3.&.3.3.3.3.j } ]  .] ; ; l ,.O.Z.< S.X.$ U XXS.!.O.: - & # # # # M <.3.6.6.3.6.5.6.3.6.6._ W.).|. .-X3XD.S &.&.*.#.#.*.",
">.&.3.&.&.&.&.&.<.;.j  .' } ] ; ; l &.F 3 # - * # * = * = * # # # # # # # # w 3.3.&.&.&.>.<.3.6.3.X.W.|.Z./ #X3XD.T *.*.$.#.w w ",
"&.&.&.3.&.&.;.>.3.D ( } | ] [ ; ; l &.C I &   X * o # # # X # # o # # o X < ~ &.&.&.&.&.&.&.;.&.&.! Q.{.| N.-X7X[ %.*.*.&.s 8 w ",
"&.&.&.&.;.3.1.&.-.; } ] Z } ] ; ; S 3.E K V.D.C   o       X X       X * G _ 1.&.&.&.3.3.3.&.1.;.<.! W.D.( }.<X;XK R *.;.*.w e e ",
"3.&.;.3.6.3.3.3.<.; } ] j ] C ; D -.3.4.E v B.(.C.]  X-X}.O.} [.-X|.V.F W 2.4.5.e.q.a.5.a.5.5.a.t.X. X( H %X3XW.E 3.;.&.&.V w w ",
"&.&.&.&.&.;.&.&.D ( ] Z ]  .: ; l >.&.&.7.l.0XH.8.A ( C.N.' ; ) Z.{ ! E *.$.*.&.&.;.&.&.<.&.&.&.&.! N.C O.,X:XP R *.#.V #.w e 8 ",
"e w w w e e 0 w ;  . .; ] C j > c v x #.7.n.sXL.K.n R T Q x.0XiXb.b v v #.x #.#.#.#.*.#.w w #.#.7 ( F H Q..XZ.z w w w s w R m w ",
"e e w w w w w q ; } j ]  .: j *.#.*.*.*.x W @.F._ z *.*.8.K.hXsXJ._ *.#.#.#.#.#.$.*.*.*.*.*.*.w Y : H Q.{.N.Q R m w V V w w w w ",
"R #.q w w w m > ' F ' } j j w m #.v x x 9 * * * * 3 x x q _ -XOXW 3 v w w v R s m V V w #.m w w < O.|.Z.H E e w w w w w w 8 q e ",
"w w 8 w w s *.j C j j j m e e e e e w w 8 * > X o 3 m w 8 * * - * 3 w w #.v R s v #.#.#.R *.#.6 P | H E R R w w w R w w w w w e ",
"6.4.6.6.9.6.4.6.&.%.4.4.5.6.6.2.3.6.6.4.&.# # # # 5 3.3.w W A.  o o w 5.6.6.6.6.$.w #.s #.#.#.R R R x m x w w w w w w w w e e 8 ",
"a.a.a.s.s.s.a.a.s.s.a.a.s.d.5.a.s.s.s.a.e.# # # # # 0 s.&.* 3 X # o w a.q.t.t.a.<.w #.#.#.#.#.v #.#.#.*.*.V #.V #.s w w w q e e ",
"5.9.t.6.3.6.5.5.a.a.5.e.a.a.5.t.t.q.a.4.# - ( X # # 0 a.5.V # o o * # w t.6.4.e.&.e s #.s w w w x x x w s s w R w w w w w e e 0 ",
"a.t.5.6.6.q.t.t.a.a.a.s.s.a.a.a.s.y.e.3.# # # # # # 5 t.5.$.l I X # o o w t.a.s.1.w w #.s V #.R x v #.#.R #.s #.#.#.w R w w 0 e ",
"9.5.6.6.4.a.t.5.9.5.4.3.a.q.5.a.q.5.5.&.o # # # # * Y s.s.1.# * # * o * w 4.t.q.&.w *.#.*.*.#.#.#.*.#.#.#.V v w w w w w w e 8 e ",
"v s *.#.#.x #.#.v w w e w w w v #.#.v q F  .] / : , #.#.*.0 # o o # # * z w s m V #.s s w #.#.V R w w w #.w w w e e e 0 8 8 8 e ",
"#.*.#.s s w w w w #.#.#.#.x v #.x x #.#.R #.#.#.R #.#.x #.Q V.[.`.D.] ^ #.V #.#.*.*.#.#.#.#.#.V V #.#.w R w w R e e e 8 9 8 e 0 "
};
