/* XPM */
static char *miku_41677154609[] = {
/* columns rows colors chars-per-pixel */
"64 64 110 2 ",
"   c #1B1D1F",
".  c #171F22",
"X  c #1B1D22",
"o  c #0D3F3C",
"O  c #103E3C",
"+  c #2D2D2D",
"@  c #302E2F",
"#  c #2E302F",
"$  c #2F2F31",
"%  c #2F3131",
"&  c #353535",
"*  c #383736",
"=  c #363836",
"-  c #393936",
";  c #373638",
":  c #3A363A",
">  c #37393A",
",  c #3C3C3C",
"<  c #5C2F26",
"1  c #573124",
"2  c #5B3025",
"3  c #5D3028",
"4  c #403E3E",
"5  c #0E4236",
"6  c #0C403C",
"7  c #3E403E",
"8  c #41413F",
"9  c #0E3E40",
"0  c #363E40",
"q  c #3E3E41",
"w  c #413E41",
"e  c #0E4041",
"r  c #3F4141",
"t  c #176E65",
"y  c #1A6F65",
"u  c #1B6F68",
"i  c #177164",
"p  c #197065",
"a  c #177168",
"s  c #1A7168",
"d  c #434343",
"f  c #494645",
"g  c #464946",
"h  c #484A46",
"j  c #464649",
"k  c #49474A",
"l  c #464949",
"z  c #4C4C4C",
"x  c #514E4E",
"c  c #4E504F",
"v  c #51514E",
"b  c #4E4E51",
"n  c #514F51",
"m  c #4F5152",
"M  c #545454",
"N  c #595657",
"B  c #565957",
"V  c #595856",
"C  c #54555A",
"Z  c #595659",
"A  c #565959",
"S  c #5B5B5B",
"D  c #615E5F",
"F  c #5F615E",
"G  c #61605E",
"H  c #5D5D61",
"J  c #605E61",
"K  c #5C6063",
"L  c #636363",
"P  c #686667",
"I  c #666668",
"U  c #696768",
"Y  c DimGray",
"T  c #767A7E",
"R  c #797A7E",
"E  c #CC2435",
"W  c #CE2238",
"Q  c #D02337",
"!  c #AD6346",
"~  c #AD6349",
"^  c #B06349",
"/  c #CC9477",
"(  c #CD937A",
")  c #D0927C",
"_  c #767980",
"`  c #797981",
"'  c #2DAD8F",
"]  c #30AD8F",
"[  c #2EB08E",
"{  c #2DAD91",
"}  c #30AC91",
"|  c #47DDAF",
" . c #4ADDAE",
".. c #47DDB1",
"X. c #4BDDB2",
"o. c #4BDDB8",
"O. c #A6ADAE",
"+. c #A8AEAE",
"@. c #A6AEB0",
"#. c #A9ACB1",
"$. c #E6B7A3",
"%. c #E8B7A6",
"&. c #E5B9A4",
"*. c #E8B8A4",
"=. c #E6B9A8",
"-. c #FDE6CF",
";. c #FDE6D3",
":. c #FDE8D4",
">. c #FDE6D8",
",. c #FCFCFD",
/* pixels */
"d d , d r w d d d d , d g d 4 d d g g g d k z z z B B M S B M g d M n n B B M b M g w d d d f d g g g f f q , 4 g g k f , = d w ",
", , , , , , , , , , , , , , , , , w 4 , , g M M M Z S z z S n g , g z M N H D M z x l , : , - d , d , , 4 , l M x z z z 8 , , , ",
", , , = * , & = = , , , , , , , q w d , d g k z b n M z h M z z z d g d j z z k d d l w , , d 8 w , X X q , , , , : = = & + + + ",
", w d d w d w d d d d , d d d g f g d g k d 4 w 8 w j g 4 , w X X w , * , , , , d , , 4 4 , d , , X X E . * , & + % + + + + + + ",
"d g d d g d d q d g g d g d d k g d , d d d , g d 4 , 7 8 d X 2 X r d 8 g o o o 6 o o o o 6 6 s y i o   Q X & = & @ & + + + + + ",
", , d w , , , , , , w , , q d w d , d , , 8 d d d r r , r 7 X E X d d o o o o o o y y { } ' i 6 o i i u o 2 X o ; , = = $ @ & $ ",
"d , , , , , , , : , , * = : = = , , q w , g d r d d 6 s p o X E X f 6 o o o y { } } ' i s s p ] X.X.' ' { i 9 X o = = : $ & * & ",
", , , = : , = = & = : = = , , , , , , , d d d r 7 o ] X.X.{ X E   o o o y ' X.X.X.] i ' X.X.X.X.X...X.{ } { { o X $ & = & & $ $ ",
"& & : = ; = & , = & : = : , , , , , , , , , , d w p  .o.| X.X E X o o i X.X. .X.[ ' X.X.X.X.X.X.X.{ X.X.{ ' X.' s X , = & & & & ",
", = , , , , , , , , , , q d d , w d d g k d d d o } X.X.X.y X W . o y X.X.X.X.} X.X.X.X.X. .X.X.X.' X.X.{ { { X.' y , = = $ ; : ",
"& $ & = = , , : : , = , , q , , r d g g d d r d i  .X.X.' 6   E X 6 { X.X.o.{ X.X.X.X.' i i X.X.X.X.' X.X.y ' X. .{ s : = & , = ",
"d g d k x g l z z z z z z z M z z M M M B M Z M y X.X.' s X E 2 o y X. .X.} X...X.{ s y ! s  .X.X.X.{ ..X.{ y X.X...] o = & & $ ",
"S Z B B Z Z B B B B Z Z S B N B M N N D L J S H ' X.{ ] o X E X 9 { X.X.X.X.X.X.{ i ! ( ( y X.X.X.X.i { X.X.s { X.X.X.' o & & % ",
"N S S N z M M z z M M M B B n n B B A S S S N o X.X.' y 6 X 3 6 s X.X.X. .X.X.{ i ! ( ) ( s X.X.X.' i i X.X.{ i X.X.X.} t = = , ",
"z z M n z z M M z N Z M N N B B S L J B N S S o X.{ { i X 2 X o { X.X.X.X.X.' y ! ( ( ( / y X. . .} ~ i { X.X.i { X.X.} { o d - ",
"B M l z n M M b M B M z z z M B n M N B S N B s X.{ } o X < X o } X. .o.X. .{ s 6 o o ( ( s X.X.X.s ! ^ s X.X.y s X.X.y { y % & ",
"z z z z k f g l l z k f j k k g , & , q , , o i X.{ i o X 2   6 ' X.X. .X.{ y / &.&./ 6 / s X.X.{ ! ! O o { X.s o X.X.s { [ o = ",
"w w d d d 4 g f , d g z l z z f g d f w f d o ' X.{ y g   X X s ] o.X.X.X.{ s %.&.=.%.&.*.y X.X.u / o ~ ~ t X.u 6 X.X.' s ' o % ",
"l l z z z z z z z z z k l l z l d d g g j d s  .{ { o l z X X s {  .X.o.] { y *.=.$.=.&.&.i X.{ ! ) / ( / y X.p o ..X.X.o { 6 , ",
"l z f g d g k k f g d d d f z f 4 d d j , 6 s X.' y o f X X   i { o. .X.{ { ( / / =.&.&.&.( X.u ) ( ( ( ( p ] i o { X.X.o y o q ",
", , , : = : , , , , , , , , , = - , g d f s i ' { s , , X X   s } X.o.' { i X X .   ! &.&.&.{ ~ / ( ( ~ ~ ^ } i o { X. .o y o , ",
"= = = = = & & = = , = = & = & , , , , , 6 i { { s o l h X X X o ' X.X.{ '   6 o o o 3 ! &.&.s / ( ( ~ 2 X X i s 6 { X.] o 9 , 4 ",
"q , w 7 d , 4 w d , , , , , 4 r , , 4 o i { ' } y g d d X X . o s X.X.{ ' X y o ,.o @.< &.&.&./ ( ~ 2 o 6 +.X u o s o.} o 6 , q ",
", , , , , , , , , , , w w , , , , 7 o y { X.' s o r 4 d X X X X s X.X.' y 2 t o @.o ,.~ &.&.&.&./ ^ 6 ,.o ,.X 9 o s  .p o , , , ",
"k k g w d d g d 4 , , r , 8 , 8 o s { X.X.{ s o d g d j d X E X i { X.] s ! 6 y o 6 ,.( ;.;.;.;.&.( 6 #.o ,.< o o y { s 6 f 7 d ",
"z z x n m n M C M M n m M o u } X.X.X.' ' u o B N S L S N X E < o t X.{ ~ ( +.o o ~ ,.-.;.-.;.;.;.$.s o 6 ,.< 6 o 6 { y o d d 7 ",
"c z v M M B M S M c M o y ' X.o.X.' ' { u o S B S S S S S S . < X p ' p ! %.;.;.;.:.;.;.;.>.;.;.-.:.6 6 s ( ~ 6 o o ' y 6 , q q ",
"b n z n m z M z b o y [ X.o.X.X.{ { { t 6 Z B B B B H S D S S X X 6 ' s ! &.;.;.-.;.;.;.;.;.;.;.;.;.:.;.;.&.~ o o o i o q q 7 , ",
"m m z z c z M n y { X.X.o.X.' { ' { u N M M n C Z B B z M v M M v o i t ~ &.;.;.;.;.;.( E E E E E ( ;.;.;.&.~ 6 6 o s o , , , , ",
"k d 8 d g d 4 y X.X.X.X.' { ] { s 6 M B M v B S S Z M M Z S V S F D o s o ~ ;.;.;.;.;.W E E E E E ;.;.:.;./ 2 o z 6 o z z z g h ",
"* , & & = = u X. .X.X.{ { ' } s 6 H J D B S S S B S V S S S G S N S S o 6 < ( ;.;.;.;.E E E E E ( ;.:.;.) 3 X o V o V Z M M z M ",
"4 , , , , y X.X.X. .{ { { { y 6 d B S S G S S S V H S S Z F K S F S J H o o < ~ &.;.;.( E E W ( ;.;.$.^ 2 X X V K S V D S M S N ",
"g w d g s X.X. .X.{ ' ' { y o d z J J S L U S D L S B N S L J S U L L P 6 o o C < ! ( =.&.&.&.=./ ~ 2 . X X S B M N M M M V M b ",
"f g d o '  .o.X.{ { { { ' O z z z N S S S S S J L S L J L L L S S S S ^ / ( ~ o C C < < < 2 2 C o 2 N   X S S S Z Z V M N Z v z ",
"; , , s X. .X.X.{ s ' { y , w d , , , , , d w g d g g d g , , , , = ! &.E :.=.6 o R T o i 6 t 2 6 z P S Z S N B B M m v B M M z ",
"& ; , { X.X.o.] s ' } { o , , , & , , = = = & & $ $ & & @ + + + % # ) &.E ;.:.i _ i o t ' o R 2 ! ~ M M B M M M M M x M z l x v ",
"= & o { X.X.X.i i ' { s : , , ; & , , = = & & $ = & * & $ = & & & & ( ( &.=.( s +.O.R R i i ! =.&.=.! Z B C M ! &.&.&.x M b z z ",
"& = o X.X.X.' s } { ' 6 ; & = & , = : , , * & = & = * $ & & & & & = ~ ( ( ( y o +.O.+.T   o &.;.;.;.=.Z X o &.&.< 3 ! N m M z m ",
"= = t X. .X.' s { ' i 4 , d 8 d k g g g d w w d w , , , , , g d , 4 q ~ u i X X X T X X . y &.;.;.-.=.. X 6 ! &.~ *.&.l x l l g ",
"8 q i X.X.X.s i ' } o g g k g d d d d w g d g d g g k d w d z z z l h o   X X X X X   X . ] &.;.:.&.! X   i 3 &.2 < ~ w , , , , ",
"f d y  .o.X.i ] { y 6 d f d d f g g k g d g d d g g d w , , g g l k f X X X X X X X X X X ' ~ &.$.^ 3 X . s ! < ! &.&.q d w , , ",
"4 , s | X.X.o ' ' i w , 8 7 d q d , d , , w d w w w g g h s y M v M C C X X X X X X C C Z { t ! ! 3 X X . y ~ < 3 ~ 2 h d 7 d d ",
"d d t X.X.X.6 { { 9 d g r w , d w d d g d w w , 4 d q d { 6 o y o C T R X   X X C C ^ C ! o ' 2 < .     X y 3 ~ 2 2 g z k k g g ",
"B M o { X.X.o { y o M B S M v M N S B Z N B B S M Z M { o M M X o T +.@.#.  X X C E C W X X p o X X X .   o o m z x x x v z x z ",
"M M o y o.X.o p s B x M S Z B S H Z S Z B Z B B M m M X.o V X X o C +.+.+.T . . X X X . X . o 6 X X   X . X o n z M M c l k l l ",
"v z x y ] X.p O y N B c M N B B S B M B z B M M N v B  .o X X X X y T +.O.+.#.T T _ _ C o u X X . X X X X N M x M x x l n z z f ",
"b v g O { { i O i M Z z M N N N B B N Z N B M M V S B B X.o X X X X s i @.@.@.O.O.R C o o y u o n n n n B m x x M M M M n x z z ",
"v z B 6 i } i 6 o M v C B n M M M M z n M z M M z z c z s X.X.' { i o o t O.+.#.T T o X o o y o N N x n b n M b l l z z g d g l ",
"z x n b i { s 6 z M z z z n z z z z z z z z z z z z z l s   X X X X   X   u i T T ` O X . o 6 M M M n M z k z z k h k g f d , , ",
"z z l v o ' y o z B M M B M M B n z M z z M z k z M x z o o X X X X X X X   X y y 5 X X X X X o x z z z z z l f l z z l z , & , ",
"c z M z n o i m z M z z n M M z M M m M M b z z x b c c x t ' s . X   X X X X X X X X X X o s 6 M M z x n n n l k f g z g , = : ",
"M z n M B Z o M M z M S N M M B N M B S B B B M n M B S S S y X.X.O y y u o X X X X X o y i u G S S N B B B B B M M z z n , , , ",
"g z z z z z z z z M M B B b z M z z z z z z k z z g z z h l z o o y { X.X.X.o } { s o ! ( ~ z z z z z g k h l f g g d d w , = = ",
"& , , , - * ; * w d , w w d , , w w d d d d , d d w 7 r 7 r 8 g d ! &.&.( ~ o 6 6 < ( / ( ! r d w g d , d , , , , , , , , , , , ",
", : , 0 4 - , , , , , d q d g g d g g k g g g d f d j d f d k g j < *.;.;.~ d g j o i a s 6 f , d d , q w , , , w , w w , , , , ",
"4 q , , , , 4 , g g d g d d 4 w d d 4 , d , d d 8 d 4 w 7 d d , d 6 p { { y q r r X X X X X , , , , , , , , , , , , , = , & , , ",
", , = , , , d , , , , , , - = = = , , , , , , d w w , , 8 , , d , X X   X X d q , X X X p X d d d , d d , d , , , , , , , , , = ",
"Z N M B S S S B x z S S S S M M B V M B N M M M B B B B B M S S S X X X y X B N g , X X X X X d r d , d 8 , , , , , , : , = = & ",
"P L P I Y Y P L Y Y J L Y Y S L Y P L P I Y Y Y U P L Y P Y P H D X X X X X X P v , X X X X X X d d d d g w d , d , , , , : : , ",
"S Z S M B S S S L L S J P P D H F K P P L S L P L Z L L S S S S m X X X X X X S z - X X X X } X X , , , 8 q , d , , , , , = = & ",
"P K S S S S F L L P L P Y G L P U S L S S L L S L K S S D S L L G X X X X X.X X b :   X X X   X X X d d d 8 d d w d , q , , ; = ",
"S S B V V L L S K Z N B F K S G L S S S S L P L P L L P U U L S L X   X X X X . X 4 o X X X X X X X d d 8 7 , q , , , , : = = : ",
"w d g d d d d d d , , = , d , d d 7 d , d d , d d d d f d g d 4 w O i   X X X X X d 4 o o i i y i O 0 4 d : , , = = * = & & = = ",
"d d g , , , , , , d d , d , r d , d d , r d d d , 7 d 7 d g g d d g o u } { { ] y d d g d d d 4 d 4 w 4 q , , 4 , : : = ; & & & "
};
