/* XPM */
static char *miku_111677154608[] = {
/* columns rows colors chars-per-pixel */
"64 64 102 2 ",
"   c #1B1D1F",
".  c #171E23",
"X  c #1B1D22",
"o  c #0D3F3C",
"O  c #103E3C",
"+  c #2D2D2D",
"@  c #2D2E30",
"#  c #353535",
"$  c #383636",
"%  c #363837",
"&  c #393936",
"*  c #363638",
"=  c #393739",
"-  c #373939",
";  c #3C3C3C",
":  c #5C2F25",
">  c #5B2E28",
",  c #5A3125",
"<  c #5C3128",
"1  c #413E3F",
"2  c #0E4137",
"3  c #0D403B",
"4  c #3E413E",
"5  c #41413F",
"6  c #0E3E40",
"7  c #3D3E41",
"8  c #413F41",
"9  c #0E4041",
"0  c #3F4141",
"q  c #176F63",
"w  c #196F65",
"e  c #1B6F68",
"r  c #177165",
"t  c #197065",
"y  c #177168",
"u  c #1A7168",
"i  c #434343",
"p  c #484646",
"a  c #464846",
"s  c #4A4947",
"d  c #464648",
"f  c #494749",
"g  c #474949",
"h  c #4C4C4C",
"j  c #504E4F",
"k  c #4E514E",
"l  c #50514E",
"z  c #4E4E51",
"x  c #514F51",
"c  c #4F5152",
"v  c #535354",
"b  c #585656",
"n  c #565856",
"m  c #595957",
"M  c #53555A",
"N  c #595758",
"B  c #575959",
"V  c #5B5B5B",
"C  c #605E5E",
"Z  c #5E605E",
"A  c #61605E",
"S  c #5E5E61",
"D  c #615F60",
"F  c #5F6160",
"G  c #636363",
"H  c #6A6967",
"J  c #696768",
"K  c #676968",
"L  c #696969",
"P  c #767B7C",
"I  c #787A7E",
"U  c #CC2435",
"Y  c #CC2439",
"T  c #AD6345",
"R  c #AD6349",
"E  c #CC9477",
"W  c #CD937A",
"Q  c #777A81",
"!  c #2DAD8F",
"~  c #30AD8F",
"^  c #2EAD91",
"/  c #30AC91",
"(  c #2DB091",
")  c #49DDAE",
"_  c #47DEB2",
"`  c #4BDDB2",
"'  c #4CDCB8",
"]  c #50DCB5",
"[  c #47E0B4",
"{  c #A6ADAE",
"}  c #A8ACAE",
"|  c #A5AEB0",
" . c #A8ACB1",
".. c #E3BA9E",
"X. c #E6B7A4",
"o. c #E5B9A4",
"O. c #E8B9A4",
"+. c #E4BAA8",
"@. c #FDE7CF",
"#. c #FDE6D3",
"$. c #FDE8D3",
"%. c #FCFDFC",
/* pixels */
"i 8 i ; 8 1 i i i i 7 5 i p 7 i i p p p i d c h h M N n m B M s p v j v v b v h v a i i i i p i p d p a p ; ; 0 p d h d ; % i 5 ",
"; ; i ; ; ; ; ; ; = - ; ; ; ; ; ; 0 0 7 4 a h v v m B h h V l f ; i h v B C G v h l s ; ; ; ; 7 ; 0 0 ; i i s v c h h h i ; ; ; ",
"; ; % % % ; # # # ; ; 7 X . ; ; 4 4 5 4 4 d h h h x v z f j h h z 4 d i f f h s i i d i ; ; i i ; ; ; i ; ; ; ; ; ; # # # + + + ",
"1 i i i i 5 7 i i p i X U X X p d p p p s i ; i i 8 p p i ; 7 X X i ; ; 7 ; ; 7 i ; ; ; ; ; i ; ; ; ; ; # ; = # + + + + + + + + ",
"i p i i d i 8 i s 5 X U   o u q u o O o 6 o o 2 o o 3 4 4 i i X , X i i i p 4 ; i ; 5 8 ; ; ; ; ; ; ; - # ; # # + # @ # + + + + ",
"; ; 8 8 4 ; 7 8 2 X , o u q t o 2 t ^ ^ / w u o o o o o o 1 i X U X i 5 i 7 1 s 0 0 i ; ; ; ; ; ; ; ; ; ; # # ; % ; % # # + + + ",
"i 1 ; ; ; ; ; 2 X 6 u ( ^ / ` ` / t u u u ^ / / ^ w o o 2 o ; X U X i 4 i d p 7 ; p i i 8 i i i ; ; p i ; ; i 4 ; ; # ; @ # # # ",
"; ; ; # - % - X o ^ ^ ^ ^ ` ) ` ) ` ) _ ~ u ( ) ` ` ! w o o 3 X U   o w u h i 0 ; ; ; i ; i 4 = ; 0 i ; ; ; i # # @ # # # # # + ",
"% % % & % % X u ^ ` ^ ^ ` ` ! ` ` ` ` ` ` ` ~ ^ ) ' ) ` w 3 O X U X w ^ ^ w h f p f s p i i 5 ; 0 i ; ; ; ; 7 ; % % ; % % # $ # ",
"; % ; & ; % r / ' / ( ! ` ` ^ _ ` ` ) ` ` ` ` ) ~ ` ` ` ` u o X U X ! _ ` ^ u i s s p 7 8 1 4 i i ; 0 i ; ; ; ; ; ; ; # $ @ # ; ",
"# @ # # % e ! ` ` ^ t ) ` ^ ` ` ` ` t u ~ ` ` ` ] / ) [ ` ! o X U   e _ ` ` ^ p d p 0 s h h p p p p p i p p s s 1 ; ; % % % ; # ",
"p f i s o / ` ` / t ! ` ` ! ) ) ` ) t T e u ^ ` ) [ ! ' ` ` e 2 > Y X ^ ) ] ` 2 V V B B B V G V B B v v B v B v 1 ; ; # % # # + ",
"B b b N u ' ) ` ^ u [ ` / w _ ' ` ` w W W T u ^ [ ` ` ` ` ` ( o X U X r ^ ` [ u G Z G A V V G G V B b B G v v v ; ; ; ; $ % $ @ ",
"b V B o ^ ` ` ~ ! t ` ` w w ! ` ` ) u W W W T t / ` ] [ ` ` ) u o , X 2 / _ ' t V V V B Z V B m G B v v v v B v p ; ; ; ; = % = ",
"h z v w ^ ` ' ! t ! ] ! t R u ` ` ` u E W W W T t ( ) ` ) ) ' ^ o X , X q ' ) ! G S S A G L G V S V V B v B v b h i p i 1 p i 1 ",
"v c 3 ! ~ ) ` ! w ` ' t T R w ! ` ` t W W 2 O 3 t / / [ ] [ ) ^ 3 X , X o ^ ` ^ 2 f f d p h h i i i p s i p i 0 ; - # # # # # + ",
"v h o ^ ^ ` ` ! u ) ` o o R R u ) ` ^ W o W o.o.W u ! ` ) ` _ / 3 X , X 3 ^ ` ` 3 i 7 i 4 ; ; 0 ; 4 ; i 0 0 ; ; = ; ; # # # # * ",
"7 0 o ( q ` ` ! o ` ^ w R o W R ^ ` ^ X.o.o.o.o.+.w ^ ! ' ` ` ^ u X X   o ! ^ ` r i p i i 0 0 4 1 i ; ; ; ; ; # ; % # ; # ; # # ",
"s h o ^ q ` ` ^ o ` w T W W W W t ` ^ +.o.o.X.o.X.W w ( ) ) ` ^ u X X h h u ! ` u p p i a p d d a p p d p i i i i i ; ; ; ; ; ; ",
"d s 3 ^ o ` ` ^ o ` w W W W W W T ! ^ O.o.O.o.W E W u ^ / ] ) ^ t X X   i o ^ ^ r 3 a d i i i p p d p a p i i ; i i ; i ; ; ; ; ",
"; 7 o w o ` ` ~ o ^ w R R E W E W w ^ o.o.T X X X X R ^ / [ ' ^ u X   X 7 3 ^ ^ w 2 s s h d a i i d a 0 i ; ; ; ; ; ; ; ; ; ; ; ",
"# = 2 w o ` ` ^ o e . X > R W W E E u o.T < o o o o X u / ` ` ! o   . X p p ! ^ t u d d p i d i a d p i i p i i i i i 0 ; ; 5 ; ",
"7 ; i o o ^ ` ~ o . { o o , T E W X.X.O., | 3 %.o u X u ^ ` ` t 3 X X X 5 5 u ^ ^ q o 0 i d p s d d a a i i ; ; ; ; i i ; i ; ; ",
"; ; ; o o / ` ^ o . %.o %.o T W o.o.o.o.R %.o { 2 q , u w ) ^ u X X X X 8 i o ^ ! r t p d i i i i i i i 4 0 i i i i ; ; i ; ; ; ",
"s p p 5 o y _ ^ o : %.o | o W o.#.#.#.#.E %.o o u 2 R T u ! ^ u X U X j h h p ^ ~ ^ u o i p p i i 0 4 i p p s d p s p i i p 0 i ",
"h j c h v 2 ^ ^ o > %.o o w +.#.#.#.#.#.#.%.R o o } W R r / u 2 , U X B C V v u ^ / ^ t o p s a p f p 0 d s d s s d i p d 0 i 0 ",
"h z h v l 3 u ^ o T W w o o #.#.#.#.#.#.@.#.#.#.#.#.o.R o t t X , X B B V V V 3 ( / [ ^ r o d g a i d p a i i i p 0 i p i i ; ; ",
"k x k z z o q ^ o T o.#.#.#.$.#.#.#.#.#.$.#.#.#.#.#.o.R 3 u u X X B V m V B V b u ^ / ) ` ! u 3 d i i 0 i i 1 i 0 i i ; ; ; 0 ; ",
"v x s h c 3 e w o R X.#.#.#.#.#.#.#.$.#.#.#.$.#.#.#.o.T o q 9 v v h B B B n v B o ! ^ ! ' _ ` ! t 2 ; & ; ; % ; ; ; ; ; ; ; ; ; ",
"p p i i p 8 o u o , W #.#.#.#.U U U U Y Y #.@.#.#.#.R o 2 u v V V C B V V A V V b e ^ / ! _ ` ` [ ! e 3 s k v x h h v h h h p a ",
"% - # % # # 2 w r o : W @.#.#.W U U U U Y #.$.#.#.W X X o o A V B A m B V m V V V Z u / ^ / ` ` ` ` ` / u o V v B V V b b v c v ",
"; ; ; ; ; 0 7 2 u 7 ; , T X.#.#.W U U U W #.#.+.X X X o o S Z V S V V Z G G G A G A Z t ^ ^ / ` ` ` ` ` ` ~ u o G V B G B v B v ",
"i i 0 p i i 4 i o p s s o < R W o.o.o.+.o.W R : X X 3 3 B F S A K G G J G G G K G V A K u ^ ^ ^ ^ ` _ ' ` ` ` ! u o v v v B v h ",
"a d i a p i p i i d s s h o , 3 v , : , , < M M 3 R W W T G G V V V V V G G V G S V V B n w ^ ^ ! ^ ~ ` ) ` ] ` ^ t o v M B v j ",
"= ; ; ; % % ; ; * ; # ; ; o R T , r o e o v P 3 o O.#.Y o.T ; ; ; # # # ; ; ; ; ; ; ; % # # o ! ^ / ! ^ ! [ ` ` [ ` t 2 v l h z ",
"# % ; ; ; +.o.O.R = # # ; T o.+.o.R o ^ y 3 u I u #.#.U o.W @ + # + # + + + + # @ # # # # # # o w ! ^ ^ ! u ! ` ) ` ` e v h z v ",
"; # % # % T , , o.+.o X = o.#.#.#.o.6 . M I { I u W o.X.W W % # # # # # # # # # # # # * # * # # o q ~ ! ^ ^ u ! ` ` ` ~ o h h h ",
"# # ; % % o.o.T O.R w X X X.#.#.#.X.q X X X I X o w W W W R # # % # @ # # # + # # * # # ; * # # @ o e ^ ! ^ ^ u / ` ` ` q v k l ",
"# ; ; = * T , > o., r X X T o.#.#.o.^ X X X X X X X q u R 7 p i ; i i ; ; ; ; i i i 7 i s p i p 5 p 6 r ~ ^ ^ ^ w _ _ ] ! o s f ",
"i 1 ; ; 5 o.+.T > T r X X : R X.o.T ^   X X X X   X X X 2 i z h h s d d p h s p p h h z h s s h h p i o u ! ^ ^ w / _ ) _ o ; ; ",
"p 0 p p i , R , , R w X . X : T T u ^ M M X X X X X X X X 1 d s s d p i s p i i i d s d p s s d a s i s u r ! / w w _ ` _ u ; ; ",
"; 4 4 5 i 7 , , R , o X X . X > > ~ o R M R M M X X X X M M k v v v c h v h z v h k v h h v v v c h k h h u ! ^ / w ! ` ` w i i ",
"p 5 i ; i 5 4 i o o o   . X X X o r X M Y S U M X X X X I Q M V v v v B v v v v v v v v b v j v v v n v l h u ! ! w u ` ) u s p ",
"v v v v v h j M x o   + X X X X o o X X . v M X X X X { { { I o Z v v B v N v N B B v v B v b v v v v B h x o ! ~ u o ` ` u h h ",
"l v v v v n l m n v x v X X X V o X X o . . . X X Q { | {  .M o   v v v v v v v l v v v B b m B v v b x M V m u ! w o ! [ u s s ",
"v h x z v v v h v n M x x V N v o o q e o M P P } | { | { I 3 X X X z v v v v v h v v v v v v v v M v l v B v o ! t 3 ~ ' 3 h p ",
"x c d j v h s h v v N h x N N N X X X q o M  . . . .{ I t o X X X X h v v v s h v v b v v v h v h v v l v l k o ^ o 3 t / o h h ",
"k h v b v z v v z v v N v v v X . w q q o M  .| { } r o X X X X X X X v v h v v v v v B V B v B B v v v h v v h u o h u ( 3 i a ",
"h h v h h s h h h v h v h v o X X o r X   3 I w w 3 X X X X X X X X X 9 s h j v v z z z v k v v n v l v h s h h 3 3 f 3 ^ 8 ; ; ",
"h h s v z s c x c n x v v v 3 w X X X X X w w o X X X X X X X X X X X w s s k h s h s s s h v x h h h h h s s d h o h a y 7 # ; ",
"h h v h v v v h z l z x h v v o r O X X X X X X X X . X X X X X X X 2 6 z h z h h z v v v h v h v v h x v v h h d p p s 2 ; * - ",
"v h v v v v v v k z v B B v n v 2 u u o X X X X X X X X X X X X r ! y v v b B V G V G V G V V G V C B v B v B v v v z h x 4 ; ; ",
"s s s h h h h h l v v v v v h h j h R t ! / ! e o o q ^ ` q ^ _ ` w d s s s h h h h h h h c h h h h h p d d s p p s i ; 4 ; % # ",
"* ; ; ; ; * # ; 0 i 0 ; i i 7 i 7 7 T W W R , o q ^ ` ` u t o o i i i 7 i 8 i ; i p i p 0 ; i 5 0 p p ; 0 4 ; ; ; % 4 8 ; ; 4 ; ",
"; ; ; ; ; ; # ; ; ; 0 i ; 5 p i p d 2 r e t o i p p R X.@.O.: p a i i p 4 i i i p p p d p i p ; i i ; 4 i ; ; ; 5 ; i ; ; ; ; ; ",
"i 7 ; ; ; ; ; ; i s i p p i 7 0 i i X X X   X i 1 i w ^ ^ q o 8 5 ; 0 ; ; 8 0 0 0 0 0 4 i i ; # ; ; ; ; ; ; ; ; ; ; ; = ; # % ; ",
"; ; ; ; ; 5 p ; ; ; ; ; ; ; # % # ; X t X X X 8 7 i X X X X X i ; ; ; i i i i 7 ; p i i 0 p i i i ; i 8 1 0 ; ; ; i ; ; ; ; ; # ",
"b B v b S V B B z v m B C B v v n X X X X X v v b N X t   X X B m B B B b v v m p ; 0 0 i i i i i i ; 0 ; ; ; ; ; ; ; ; % % = # ",
"G G G K K K G G K H G G K L D G X X X X X X J K J X X X X X X A G V C G G C G G c ; i i 0 i i i i 4 i i p i i 8 0 ; ; ; ; ; ; ; ",
"V V V b v V B V G G V S J G V X X ^   X   X C J G X X X X X X B v v v V G B B V s ; 0 i ; ; ; ; ; ; ; i ; 4 ; 4 ; ; ; ; = % # # ",
"G G V B B A V D G J G K K G X X X X X X X X G D X X ` X X X   G G G G G C G G J h ; ; i i 0 i 0 i i i 7 i ; i i i i ; i 1 ; # # ",
"C V N B B G G C D V B v A G X X X X X X X O G . X X X X X   X S G G G V V B V G h i p i i i p p i p i i i ; i ; ; ; ; ; ; # # ; ",
"0 i p i i 5 i i i ; ; # ; 0 O e u u t o 3 5 i X X X X X X t o i i ; i ; i ; i ; i i ; 0 ; i i ; ; ; ; ; i ; ; ; # # # # # # # # ",
"i i p ; ; ; 1 ; ; i i 7 i ; 5 1 ; ; i i i i 5 q / ^ ^ ! w 3 p i i p i i i 0 i p d i i p i i i 4 p i i ; 1 ; ; ; ; ; ; # = # % % "
};
