/* XPM */
static char *miku_101677154608[] = {
/* columns rows colors chars-per-pixel */
"64 64 99 2 ",
"   c #1B1D1F",
".  c #1B1D22",
"X  c #1B2022",
"o  c #0C3F36",
"O  c #0D3F3C",
"+  c #103F3B",
"@  c #2D2D2D",
"#  c #353535",
"$  c #383636",
"%  c #363937",
"&  c #393936",
"*  c #363739",
"=  c #393739",
"-  c #373938",
";  c #3C3C3C",
":  c #5B2F24",
">  c #5B2F28",
",  c #573222",
"<  c #5B3024",
"1  c #5B3029",
"2  c #403E3E",
"3  c #0D4135",
"4  c #0C403C",
"5  c #3E403E",
"6  c #41413F",
"7  c #0D3F40",
"8  c #103D40",
"9  c #3E3E41",
"0  c #413F42",
"q  c #3F4141",
"w  c #196F65",
"e  c #1B6F68",
"r  c #177165",
"t  c #1A7065",
"y  c #197068",
"u  c #434343",
"i  c #484647",
"p  c #464846",
"a  c #494947",
"s  c #464649",
"d  c #49474A",
"f  c #474949",
"g  c #4C4C4C",
"h  c #514C4E",
"j  c #4F504D",
"k  c #50504E",
"l  c #4F4E51",
"z  c #514F51",
"x  c #4E5150",
"c  c #4F5759",
"v  c #535354",
"b  c #585656",
"n  c #565856",
"m  c #595956",
"M  c #54555A",
"N  c #595759",
"B  c #575959",
"V  c #5B5B5B",
"C  c #615E5E",
"Z  c #5D605E",
"A  c #64605F",
"S  c #5E5F61",
"D  c #615F61",
"F  c #5F6161",
"G  c #636363",
"H  c #666865",
"J  c #666969",
"K  c #696A6A",
"L  c #767A7E",
"P  c #797A7E",
"I  c #CC2435",
"U  c #CB2438",
"Y  c #AD6346",
"T  c #AD6349",
"R  c #CC9677",
"E  c #CC937A",
"W  c #D0947C",
"Q  c #767980",
"!  c #787880",
"~  c #2DAD8F",
"^  c #30AD8F",
"/  c #2DAD91",
"(  c #30AC92",
")  c #2DB091",
"_  c #47DEB1",
"`  c #4BDDB2",
"'  c #A6ADAE",
"]  c #A8ADAE",
"[  c #A7ADB0",
"{  c #A8ACB0",
"}  c #E6B7A3",
"|  c #E5B9A4",
" . c #E8B9A7",
".. c #E5B9A8",
"X. c #FCE6CF",
"o. c #FDE6D3",
"O. c #FCE8D3",
"+. c #FDE6D8",
"@. c #FCFCFC",
/* pixels */
"u u ; u u ; u s u u ; u u u u 6 u p u s u p g g g b B v B b v i s v z v n n v l v p u u u u s u u s s s d ; ; 0 s s f f 2 $ u ; ",
"; ; u ; ; 9 ; ; ; ; ; ; - ; ; ; ; 5 6 0 ; s v v n b V g g S k a 9 u f v m V C v g h f ; ; ; ; u 2 6 6 ; ; u f n k g g g u ; ; ; ",
"; * $ - $ - $ % # ; ; - 9 . . ; 2 u u u u 6 g g g l v l d x g g g u i u p g g f u u f u ; ; u u 6 ; ; 6 ; ; ; ; ; & $ % # @ @ @ ",
"6 u u u u u q u 6 u u u . U . . a u u u i s 5 5 u u i u u ; 0 2 . . ; ; ; ; ; ; u ; ; ; ; ; u ; ; ; - ; ; % * # @ @ @ @ @ @ @ @ ",
"u s u u s u u ; i i u . I . O w t t 4 O 4 O O O O O 4 4 ; u 6 u . , . u u d 0 ; u ; ; q ; ; ; & ; ; ; & $ ; # # # @ # @ @ @ @ @ ",
"; ; q u ; ; ; 9 ; O   : O w t t O 4 w ( ~ / w t O O O O 4 4 u ; . U   u 0 0 5 s u 6 u 2 ; ; ; ; ; ; ; ; * $ $ ; * ; - $ # @ # @ ",
"u ; ; ; ; ; ; ; 4 . O t / ~ / ` ` ~ w t t w / / / / w O 4 7 4 s . I . O r t 4 6 ; s u u u u s u 0 u u s ; ; u ; ; - * - @ $ # @ ",
"; ; ; $ & ; $ $ . 4 / / / ~ ` ` _ ` ` ` ` / t ( ` ` ` ~ t + 4 4   I . / ` ` / O ; ; ; u ; u ; & ; ; 5 ; ; ; q ; @ # # $ $ # # @ ",
"$ % & # * $ * . t / ` / ( ` ` ( ` ` ` ` ` ` ` / ~ ` ` ` ` t O O . I . ` ` ` ` t i a f s u u u ; ; u 2 ; ; ; ; ; ; $ ; - $ @ * $ ",
"; % = ; ; ; 0 t ~ ` / / / ` ` ) ` ` ` ` ` ` ` ` ` / ` ` ` ` t O   I . w ` ` ` / O f s 2 u u 2 u u ; u u ; ; ; ; ; ; ; # # # * - ",
"# # # $ $ - w / ` ` ~ t ` ` / ` ` ` ` w w ( ` ` ` ` / ` ` ` / + . I . O ~ ` ` ` t s 6 a g f s s s s u u s s d d ; ; ; $ * - ; $ ",
"u s s f g 4 ( ` ` _ t / ` ` ( ` ` ` ` w T t t / ` ` ` / ` ` ` w O : I . w ^ _ ` t V B m B V G V B m n v b v n n q ; ; $ $ # # @ ",
"m N B m O / ` ` ` / t ` ` / t ` ` ` ` w E E Y e / ` ` ` ` ` ` / O . I . O / / ` / S J Z C V D G V V n b V B b z ; ; ; ; $ $ # @ ",
"n B N B w / ` ` ` t / ` ` e t / ` ` ` w E E R Y w / ` ` ` ` ` ` r O : . O r / ` ` 4 N m C V V B G B h v v v B n u q ; ; ; - - - ",
"f g v O / / ` ` / w ` ` ~ t T / ` ` _ e E R E R Y w ( ` ` ` ` ` / O . : . w ~ / ` 8 V G C K G V A V V V n v n N g s u u q u u ; ",
"n k g w / t ` ` w w ` ` t T T t ` ` ` w E E O O O w ~ ` ` ` ` ` ~ O   : . O ( ~ ` w f f s g g u u u s p s u u q ; $ # # # # # # ",
"k g + / / t ` ` O w ` ( O O Y T / ` ` t E + R  .| E w / ` ` ` ` / O . : . 4 e / ` w O u 6 - ; ; ; u ; u 6 u ; ; $ ; - - * # * - ",
"2 u O ~ t / ` ` 4 w ` w T Y 8 E t ` ` w | | | | | | w / ` ` ` ` ~ t . . . 6 w ~ ` / 4 6 s u u ; 5 q ; ; ; ; ; $ ; - $ $ $ $ $ @ ",
"a f 4 / O ` _ ` O w ` t E E E E T / ` w | } | | } | t / / ` ` ` / r   . g s 4 / ~ ` t p s s s f s s s s u u u u u u ; u ; ; q ; ",
"d f 4 t 4 ` _ ~ O w / t R E E E E t ` R | } ....E E E / ~ ` ` ` / t . . . 6 O w / ` t 4 u u s u u a u s s u u 2 q u u ; ; ; ; ; ",
"- 9 O t + ` ` / 4 t / T Y T W E W T / | | | T . . . . t ~ ) ` ` / w . . . 0 u w / ^ t t g g u u p a s 6 6 u ; ; ; ; ; ; ; ; ; ; ",
"; $ & + O ( ` / O t w . . : Y E E E t | } Y , 4 O O 4 . / ( ` ` / O   . . i u + t ~ / t O u s u u a s u u u u u u u u u ; ; ; 9 ",
"5 9 0 O 4 ( ` w 4 t . ' + O < T E E | } | : { O @.O t . / ( ` ` w O . . . 5 5 u r / / / w O s i s a p u u u ; ; ; ; u u ; u ; ; ",
"; & ; ; 4 t ` w 4 4 . @.O @.4 Y E | | | | Y @.7 ] 4 w , r / ` ` r . . . . u s u 4 t / ` / t O u u u u u ; u u u u u ; ; u 5 ; ; ",
"a s s u O t ( w 4 O < @.O { 4 E | o.o.o.o.E @.O 4 t 4 T t ( ` / w . I . h g s p g 4 t / ` ` ~ w O u ; u u s g a s f s u u s 2 u ",
"g l j g O t / 4 O O < @.O 4 t } o.O.o.o.+.o.@.Y 7 O { E Y ~ ` t O : I . C B n m V D 4 t / / ` ` ` ^ t O d d s f a s u s a q u 6 ",
"x g v j 4 w / O O O T E w O O o.O.o.o.o.o.o.o.+.o.o.o.| T t / t . : . B V V V G G V v 4 t / ) ( ` _ ` ~ r + u u s u u s 6 u ; ; ",
"g k l l l O r O O O T | o.o.o.o.o.O.X.o.o.o.o.o.O.o.o.| Y t / 4 . . B N V m N n V G g p 4 y ( / ( ` ` ` ` ~ t 4 q u q ; ; 5 9 ; ",
"v j g g v O t O O O T | o.o.O.W I I I I I R o.o.o.o.o...Y t y 4 v z n n n v v n n V h - 0 9 y / ~ / / ` ` ` ` ~ t ; ; ; ; ; 5 ; ",
"f u u u u 0 O 4 u 4 < E o.o.O.O.I I I I I I o.o.o.o.o.Y 4 w 4 V S V N V V G G V v k v v n v h 4 w ^ ( / / ` ` ` ` t h g g g u f ",
"; = $ ; * ; $ O # O = < E o.o.o.E U U I I I o.X.o.o.E . O 4 G V m V B B D V B B V G S V V G C V O y / / / ( ` ` ` ` t n M v v v ",
"; & - ; ; ; ; ; ; ; - ; 1 Y } o.o.E I I I E o.o.| . . . 4 V V V S V A V G G D G G G V G V V G G V O w ( ~ / ~ ` ` ` ` w N n b n ",
"u u 6 s u 6 2 0 6 u s s g g 1 T E  .| | | | E T : . . O O G S S J G G G J G G G G B G G G G G V B N O t ~ / ( / ` ` ` ` w N v g ",
"f s u s s s i u u s g p l g l O : , : < < : < M M O T E E T G V V V V V G G C G V V V n B n g n v v B O / / / ( / ` ` ` ^ + g g ",
"$ & ; ; - & ; ; $ ; ; ; - ; 9 q O , w O e O L L O O | o.I | T ; ; $ $ ; ; ; ; ; ; ; ; $ $ # ; ; - g G S r / ~ t / ` ` ` ` t k v ",
"$ - ; ; ; & & ; $ ; # $ % ; ; Y Y > L O ~ t 4 t ! w o.X.I | E @ # @ @ @ @ @ @ # @ # # # # # # @ @ 5 n v O / ) / w / ` ` ` / x h ",
"; # % # * = | | | Y $ ; ; ; T | } } T w t L L [ ' w E | | E E # # # # # $ # # # # # # $ $ $ # # @ i V b B y ~ / t t ` ` _ / O g ",
"$ * - - * # Y , > | | O . $  .o.o.o.| O . L [ ' [ O r E E E T $ $ $ @ $ $ # # @ # # # $ ; $ # # @ u V B m O / / / t / ` ` ` O z ",
"% & ; # * $ | | Y  .Y 7 .   } o.o.X.} t . . . L . . . t t T s u ; 9 u ; ; ; ; ; s u u i f s u s u f v l g g y ( ~ t / ` ` ` w d ",
"u 6 ; ; u ; T < :  ., w . . Y | o.o.| (   . . . . . . .   4 g g g f a f s f g f a f f g f a d g g i 6 u ; q 4 / / r t ` ` ` w ; ",
"i q u p s p | | T : Y t . . < Y | | T ~ . . . . . . . . . . s a g s p s f d u s u s a p u d f u p g u i s s 4 t ~ ~ w ` ` ` t ; ",
"; q 5 u 6 ; < Y : : T t . . . : Y T t ~ M M M . . . . . . M M x v v k f l g j k g h k g l v n v l g k g g f d w / ~ O ` ` ` t u ",
"s 6 u ; 0 u q : , T : w . . . . < < ( 4 T M T B M . . . . L Q M O n n b v v k v v v v v n v g v v v v v h g f 4 / / + ` ` ` t s ",
"v v v v v g l n v N + O . . . . . 4 t . . U c U M . . . { ' ' ! O   b v v n m v n B n n n n N v b k n v v g v O w / O ` ` / 4 g ",
"z n v k n n v n B v 4 .     . . . O O . . . . . . . . L [ ] [ M O . . v x B v n z v v n N n n N n B v l v B N l t t 4 ` ` t O a ",
"v g j g v v z l v B b z . . . . . . . w O M L L L P ' { ' ' L t . . . . O v v j z g v v v v v v v v v v v n v k t 4 w ` ~ r g s ",
"g v p v v g d g v v N g l n n V B O r r O O c P { [ [ ' ' t t . . . . . r v s g v v n z z v g v g v v k n l x l t O t ~ / + g g ",
"g z v v v h z v g v v B v z v v z O w O O . O L L ' ' ' t O . . . .   . w h v v n v v N V B n N B v v k z v k l O 4 y / t 4 u i ",
"g g v g g g g f g v h j g z g g g g 4 4 . . O ! ! ! t r . . . . . . . . t g l h v z j h g v v n n v z v g s g g d O t ( t u ; ; ",
"g g f v z g g v z n v v n v v n h O . . . . . O r t   . . . . . . .   O O f l g f g f f g g z k g g g f g g a i a O t ~ O 5 # * ",
"g g k g v g z g g v g g g v v l v O t 4 X . . . .   . . . . . . . t ~ t g h z l g h v v v g v g z v v g z v j g f s t 4 f - * ; ",
"v g z n m v v v v g v B N v n n B n t t t + . . . . . O r w w O ` ` t v v n V V G Z G V G V V G C V B n n n n v v v O g l 2 ; ; ",
"f g g g g g f g l v v n v z g g g g l Y E Y O w ~ ( O ` ` ` / w 4 O a a f f g g f g h g g g g g g g g f i f s s i d 9 u 6 - ; $ ",
"$ ; ; ; - $ ; * 2 u ; 6 u u ; u 6 6 ; T E E E 1 O 4 4 T E | | T u s 0 0 u u 6 q u s u u 6 ; u u 6 s u ; u 2 ; ; - ; 9 ; ; ; ; ; ",
"; ; ; ; ; ; ; ; ; 5 ; u 2 u s s u s a O t t t O s u s Y o.+.| < p u s u 6 u u u s s a f s u s ; u u ; 2 ; ; u ; u ; 0 5 ; ; ; ; ",
"u ; ; ; ; ; ; ; u s u s u u 5 6 s 0 ; . .   . . 5 u 2 w / / e O 6 ; 6 ; - u q 2 5 6 u ; u u - ; ; ; ; ; ; ; ; ; ; 9 9 = = # ; ; ",
"; ; = ; 2 6 s 2 ; ; ; ; ; ; ; $ $ ; ; . w . . . ; u q . . . . . ; ; ; u u u 0 0 ; s u u u u u u u ; u 5 u ; ; - ; ; ; ; ; ; * $ ",
"n N n b V B B B v g V V V B v v N m . .   . . v n n v . r . . . b B B V n v n m s ; 2 6 u u u u 5 u 0 u ; u ; ; ; ; ; ; = ; $ $ ",
"G G G J K K G G K K F G J K C G K . .   . . . K J G . . . .   . G C V G G S V K v ; u u u u u 2 u u u u s 6 u 9 u ; ; ; ; ; - ; ",
"V V V n n B B V D G V V G G S V .   / . . . . G G S . . . . .   v v n B D b B V f & u u ; 5 ; ; ; ; ; 0 ; 6 ; 6 ; ; ; ; - - $ # ",
"G G V B B G V A G G G J K G F . . . . . . . . V C . . ` . X . . G G G G C G G G g ; 9 6 6 6 u u u u u u u ; u u u u ; 9 9 ; * $ ",
"D V b N B G G V A V B v G F V . . . . . . . + G . . . . . . . . G G G V V V G G g 6 u s s s u s u u u u u ; u ; ; ; ; ; - $ $ - ",
"6 u s u u 0 u u q ; - ; ; u 9 3 r w w r 4 O u 0 . . . . . . t 4 0 ; u 6 u - ; u 6 u 5 ; ; 6 u ; ; ; ; ; u ; ; ; $ # - $ # # # * ",
"u u s ; ; ; 2 ; ; u u q q 9 q u 2 6 u 0 u u 5 u t ( / ( / w O u u s u u u u u u s s u s u u u 0 u u u ; 9 ; ; q ; - - $ * # $ % "
};
