/* XPM */
static char *miku_71677154609[] = {
/* columns rows colors chars-per-pixel */
"64 64 102 2 ",
"   c #1C1D1F",
".  c #171F22",
"X  c #1B1D22",
"o  c #0D3F36",
"O  c #0D3E3C",
"+  c #103E3C",
"@  c #2D2D2C",
"#  c #302E2F",
"$  c #2E302F",
"%  c #2F3232",
"&  c #353535",
"*  c #383736",
"=  c #363836",
"-  c #393A37",
";  c #363638",
":  c #393739",
">  c #373A38",
",  c #3C3C3C",
"<  c #5B2F25",
"1  c #5C2F29",
"2  c #5B3024",
"3  c #413E3E",
"4  c #0D4037",
"5  c #0D403B",
"6  c #11403A",
"7  c #3E403D",
"8  c #41413E",
"9  c #0D3F40",
"0  c #3E3E41",
"q  c #413F41",
"w  c #3E4141",
"e  c #176F61",
"r  c #1A6F65",
"t  c #1A6F68",
"y  c #177165",
"u  c #197065",
"i  c #177168",
"p  c #1A7168",
"a  c #434343",
"s  c #484647",
"d  c #464847",
"f  c #494946",
"g  c #464649",
"h  c #4A464A",
"j  c #474949",
"k  c #4C4C4C",
"l  c #514E4E",
"z  c #4E504E",
"x  c #51514E",
"c  c #4E4E50",
"v  c #514E51",
"b  c #4F5151",
"n  c #4F565B",
"m  c #535454",
"M  c #585656",
"N  c #565956",
"B  c #595956",
"V  c #53555B",
"C  c #59565B",
"Z  c #575959",
"A  c #5B5B5B",
"S  c #615D5C",
"D  c #5C615D",
"F  c #60605E",
"G  c #5E5E61",
"H  c #615F60",
"J  c #5F6061",
"K  c #636363",
"L  c #666863",
"P  c #65666B",
"I  c #696468",
"U  c #696969",
"Y  c #767A7E",
"T  c #797A7E",
"R  c #CC2435",
"E  c #AD6346",
"W  c #AD6349",
"Q  c #B0624C",
"!  c #CC9477",
"~  c #CD937A",
"^  c #D09279",
"/  c #797981",
"(  c #2DAD8F",
")  c #30AD8F",
"_  c #2EAD91",
"`  c #30AC91",
"'  c #2DB090",
"]  c #47DDAF",
"[  c #4BDDAF",
"{  c #47DEB3",
"}  c #4BDDB2",
"|  c #A6ADAE",
" . c #A8ACAE",
".. c #A7B0AF",
"X. c #A6AEB0",
"o. c #A8ACB0",
"O. c #E6B7A4",
"+. c #E5B9A3",
"@. c #E4B9A8",
"#. c #FDE6D3",
"$. c #FAE8D4",
"%. c #FCFBFC",
/* pixels */
"a a , a a w a d a q , a a a a w a g d g d g l k k Z M m X X m s a m m m m M m k m g a 8 a a d a d s a j d 3 , , d g j j , * a a ",
", , a , , , , , , , , , , , , , , 0 3 , 3 d z m M N A X R X X d , s k x A A J m k b k , ; , , X X 8 q 3 0 w h M m k k k a , , , ",
", , * ; * ; * * * , , , , , , , 8 a a 7 8 a j k k b X R X O u r u u O 5 5 O 5 O 5 5 9 a , 0 w . < X , w 7 0 , , , - * ; & @ @ @ ",
", a a a a a w a a a a a d a s d g g a g g d 3 8 O X 1 5 y i u u 5 O ( ( ) u r 5 5 5 5 5 O , a X R X , , = * , & @ # @ @ @ @ @ @ ",
"a d a a d a a 0 d d a a a d a d s a w 3 a a a 5 X O r _ ) ( ( _ _ r t r i _ _ ( ` u 6 5 9 5 , X R X , r u O * & @ & % $ @ @ @ @ ",
", , a w , , , , , , a , , 3 q q , 7 a 3 , a , X O _ _ _ _ _ } _ } } } ` u r i _ _ ` _ p O O + X R X u _ } _ O - : , ; * & @ & @ ",
"a 3 , , , , , , ; , , , & , * * , , a , , d X r _ } _ ` ` } ` } } } } } _ ( ( _ } [ ( _ u 5 + X R X _ } } } p 8 , , & * & & & # ",
", , , * , ; , * & * ; * ; , , , , 0 , 0 8 d r _ } ' _ _ { } ` } } } { ( } [ } _ _ } } } _ u O X R X r _ { } ( O @ & & & & & & @ ",
"* * , * * ; * , * * ; = , , , , , , , , , r _ } ) ( t } } ' } } } } ) ' } } } } } _ } [ } ) O X R X O u ` { [ O * ; , , & & & & ",
", * ; , ; , 7 , , , , , w a a , , d a d O _ } } ( r ` } { _ } } } } u ` ` { } } [ } ( } } } r O 1 R X y u ` } u , , , & & $ & - ",
"% & & * ; 7 , ; ; , * , , , , , w a d d r } } _ _ u } } _ t } } } } u u r ( _ { } } } } } } ) O X R X 5 u _ _ i w , , & = ; ; ; ",
"a d d j k j j k k k k k k b m k c m m O ) } } _ ( u [ } u u ( } } } u W ! u _ ` } } } } { } } r O 2 X O u ` _ ( 5 , , * = * % & ",
"A M Z Z A M M M m M M M A M A M m M Z u _ } } _ u _ } _ i E u } } } u ~ ~ ~ r _ ( } } } } } { r O X 2 X i y ( ` 9 , ; , & ; = & ",
"Z A C M k m m k b m m m A m k b M M O ( _ } ( _ u } } i E E u ) } } r ^ ~ ~ ~ r ' ` } } [ } } ` O X 2 X 5 u ( _ u 8 0 , , ; = ; ",
"j k m m k k m m k A C m Z Z Z M G K + _ ( } ( ( u } } 5 5 W W y } } u ~ ~ O O O p ) ` { } } } ( 9 X 2 X 5 u _ ( u g a d , a a , ",
"M m k j b m m k M m m k k k M Z m m O _ u } ( ( O } ` u E 5 ~ y } } p ~ 5 y ~ ~ W u ) _ { } } ) u X X X a u _ ` _ O & & & & & & ",
"v j k k k d s s j k j s s j s d , * O _ r } _ _ O } r E ! ~ ~ W ` { ` ~ +.+.O.+.~ u _ _ } } { ` u X X q 8 u _ ( { O = ; ; ; * * ",
"3 a a a 3 a a d , a s k k k k s d a O _ O ( ` _ O } u ~ ~ ~ ~ ~ u } _ +.+.+.+.+.O.~ u _ ` } } ' u X X X , u _ _ } p * * - * & % ",
"j j k k k k l k k k k j j j k s a d O y 5 _ _ _ 5 ( t ~ ~ ~ ~ ~ W ( _ +.+.+.O.O.+.~ i ( ` } } ( r X   X a u u ) } u , a , , , , ",
"j k s d a d j s g a d a a s k d , 8 5 u O _ _ _ O u ^ ~ ! ~ ~ ~ ! u ' +.+.+.~ ~ ^ ~ W u _ _ } ( O X X X s O t _ } ` 5 q , , 0 , ",
", , , ; * ; , , , , , , , , , * * q g O 9 _ _ _ O W ! ~ E E ^ ~ ~ ! u @.~ E W ~ ~ ! ~ r _ ( } t 5 X X X a O i _ } { 5 , , , , , ",
"; * = * * * * ; , , * * & * * , , , , O O r ( _ O E ~ ~ ~ +.+.~ @.O.+.+.E +.~ ~ ~ ~ ~ u i _ _ u X X X X 8 O u _ } } u , , , 7 0 ",
"a , w 3 a 0 , a , , , , , , a 0 , , 8 O 5 t ( u 5 . X X X   Q +.+.+.+.+.~ X X X X   W W r _ u r X R X d a O r ( _ } p a 0 q , , ",
", , , , , , , , , , a w w , , , , , 7 O O O _ r O 2 | O ` e +.#.#.#.#.+.W X.O %.u O < E u r u 6 1 R X a 7 O u ` ` } ` O 7 0 , , ",
"j d d a a d a a q , , a , a , , d q O t O 5 u u O W ~ O + 4 #.#.#.#.$.#.#.%.5 5 5  .! E O r e   2 X 0 a g s r _ _ } { O d d 8 d ",
"k k k l b m m M m m v z b m m m m m O r 5 O u r 5 W +.#.#.#.$.#.#.#.#.#.#.#.#.$.#.#.@.W O u u X X j a a j j r _ ) } } u a a a 3 ",
"v k m m m M m M m m m m m m Z M x m 5 r 5 + r r O W +.#.#.#.#.#.#.#.#.#.#.#.#.#.#.#.+.E 5 t O k g s g d a d u _ ( } } u a , , , ",
"k m k k b k m k k k k k m b m m M M O u 5 O O u 5 < ~ #.#.#.#.#.#.#.#.#.#.#.#.#.#.#.W O O u k a f a q a a a r _ _ } } ` 0 q 0 , ",
"m z j v m k m m m k m Z Z M M M M O u i O 5 O i u 5 2 ^ #.#.#.+.#.#.$.+.E #.#.#.#.~ 1 X 5 5 w , , , - , , , r ( ( _ } } 5 , , , ",
"d d a a a a w a a a a a w a a w d O u r O O Z O u O x 2 E +.#.#.^ W W ^ #.#.#.+.E X X O O m k k f k m v l k r ( _ ` } { O k d s ",
"* : * ; * , & & * * & * * ; , * 7 O ( u r 5 S G 9 O A A 1 2 W ! +.+.+.+.+.~ E X X X A 5 K K G S K A A G A A u _ ` _ } } r m l m ",
", , , , , , , , , , , , 0 , , , g y ` r r 9 A Z A A A Z A A 2 5 V < < < 1 V V X X K J S G A P D A G S D A A u _ _ ` } { e M Z Z ",
"d q a a a a w w a a g d k k g d O u ( r p O D A J Z Z N 2 2 1 1 V O V V V u ( _ u A < W W K K G Z Z k m N m u _ _ _ } [ _ A m k ",
"g d a d d d d a a a k k l k c k O _ ( u t 5 A K A K 2 1 W 2 O V O r O Y O _ W ~ 2 W ~ #.#.E k m m m A A A O u _ ( _ } { ( O m k ",
"* , , , , * , , : , : , , : 0 w u _ r i i O , g a 2 W 2 E O n O i _ e O X._ ! ~ R O.#.$.$.~ , 0 * k K A A 9 _ _ _ _ } } } O k l ",
"& , , , , * , ; , * & & - , , o ` _ u u O + & & & 2 W 2 2 5 T ..( u | X.| _ ~ E O.$.#.+.~ O O $ @ a M m M + _ _ ( _ } } } i b b ",
": * * & ; , * & & * * & , , , O _ _ u r O + & & & < 2 1 2 Y  .u } t  .X.X.r W < $.O.~ e _ r V & # d A Z M u _ _ _ _ } [ } u k l ",
"& & , ; ; & * & & # & & & * & r _ _ u u O ; = * * O i y 5 / X._ } Y o.X.X.Y e O O r _ _ O V V & @ a A A N u _ _ ( ` } [ } t k l ",
"= = * * * * * , , , ; , 7 a O ` _ u i r + 8 q a 3 X   O 6 / u } } T | o.Y V O O t O X X X R n a 3 d m l k u _ _ _ _ } } } r k d ",
"a 0 , 0 , a 0 a , a d j j a r ( _ u r u O a g a d X X X X V u } [ r Y Y n V O X X X X X X V V k k d a q 5 u _ ( ` _ } } } r , , ",
"d a d d a s d q d d 3 a a O _ _ ( u u 5 O d a a a a X X X V ) { } y V V V n V X X X X X X R V a s d a d 5 _ _ _ _ _ } } _ t , , ",
", 0 7 a q , q 7 q , 0 , w u _ _ u u u O 5 , a 8 3 3 X X . V } } } ( Y T V V V V X X X X X Z X m m k v k 5 _ _ _ ( ( } } _ O a a ",
"a a q , a a a a w a d a 5 _ _ ( u u y O a a w 8 3 a , X X Y } } } _  .| | T V V X X X X X X X m m m M m i ) ` _ _ } } } u + s d ",
"M m m m m k k m m M M m u _ _ ( u u 5 O Z Z M N Z N M b V X.. X } ( o.|  .| / V V X X X X X Z b m m m Z r _ _ _ _ } } } r k k k ",
"b m m M M m m M N M x O _ ` _ u u r O 5 M Z Z M m x M m V  ._ } } r X.o.| X.| Y V b m Z M Z M Z M M m O _ _ ( u ( } } } O d j j ",
"m z k c m m m k m Z O ( ` ( ( y r r O M v m m m Z k m m | X.X . ` r | X.X.| T Y u O m m m m m m m m m y _ _ _ u ) } } ( 5 c k s ",
"k c d k m k j k m r ( _ _ ( r u u 5 O C m m M M A A C 5 X.T r } u Y X.| | T t 5 X X X m m m k v k x 5 ( _ _ p _ } } } u m k k v ",
"k x m M m k m m u _ _ _ ) _ u t r O O c m k m M k u X X | u O _ T X. .u r O X X X X X X A M M Z A M r _ _ _ u ( } } _ O g a a g ",
"z k v k k j k u _ _ _ _ _ u y u r O k k k k k z k _ } ` r O X r u u O X X X X X X X X X X x m M m O u _ ( u _ _ } } u a d 8 , , ",
"k k j m z k 5 _ _ _ ` ( u O u r O O v k k m k d k u X X X X X X X X   X X X X X X X X X u 5 b k k u _ _ u t _ } } _ O j k 8 * , ",
"k k z v v O u ( ) _ _ i O u u 5 O m m m m m j k k k u _ X X X X X X X     X X X X O ' p 5 9 x x O u ( u r _ ( [ ( y a k d , * ; ",
"c k m m A 6 ( ( _ r O + u p r 5 Z m M N N m M M M M 5 u ( } u r O O r r u + i _ } ` 5 5 S A A 9 u ( u O ` ` } _ u m z z l a , , ",
"j k k k O u r u 5 5 u u u u 5 v b k k m l k g k k j l 2 O u { _ u ` } } { _ r r r O k k v k 5 u ( u O ( _ ( ( u a d a 0 7 , = = ",
"* , , 5 O O O O O r u r O 5 , w 3 8 3 , a a , a a a , E ~ ! W 2 a a a W ~ ~ ! W a a a d , O u u u O _ _ i 9 O , - , 0 7 , w , , ",
"0 ; , , , , , , O 5 O O 0 7 j g a a j j d a g d a d d O r r u O a d a W +.O.! r g a d g j d d , O p u O 5 8 , a a , 7 w , > , , ",
"q q 0 , , , , , a d a d g a 3 a a a a , a 8 a a w 8 q X X . X X a , , O _ _ r X a a 3 , 8 a , 5 + O + , ; , , , , , , : , * , , ",
", , * , , , d , , , , , , , * * * , , , , , , w , w w X O X X X q , , X X   X X , a s a 8 a a 8 a , a , , a , , , q , , , , : * ",
"Z Z m M H Z A M l x A A A A m b m M m Z Z M m M M M M X   X X X M N A X _ X X . X , 0 3 a a a a a 7 a a , , , , , , , , , - ; * ",
"K K K U U U K K U U K K U U G K U U K K P U U U L P X X X X X X A K A K   X X X X X 3 g 8 a 7 a a q a a d a a a a , , , , , , ; ",
"A A A M m A A A K K A A K K J A K K K K F F K K K A X X r X . X X m M A X X X X X X a a a 0 , , , , , a , q , a , , , , ; ; * * ",
"K K A A Z F S K K K K L U K F K K K K A A K K A K X X .   X   X   K H K   r X X X X X 8 3 a q a a a a a a q a a a a 7 w w , = * ",
"G A M N Z K K A J A A M K K A K K A A A K K K K I X X X X X X X O P K   X X X X X X . d g a a d a a a a a , , , , , , , , * = ; ",
"q a d a a a a a a , , ; , a a 7 a a a , a a a , 8 O r u u u 5 O q , a X X X X X X X O q , 8 a 0 7 , , , 7 , , , * * ; = & & * ; ",
"a a d , 0 , , , , a a , a , q a , a a , 7 a 8 a w a a 8 a d s a a j a 5 t ( _ ( u O a d a a a 3 a a a , a , , w , ; ; & ; & * * "
};
