/* XPM */
static char *miku_91677154609[] = {
/* columns rows colors chars-per-pixel */
"64 64 100 2 ",
"   c #1A1E1F",
".  c #171F22",
"X  c #1B1D22",
"o  c #0D3E3C",
"O  c #103E3C",
"+  c #2D2D2D",
"@  c #2C302F",
"#  c #31302E",
"$  c #312F30",
"%  c #353535",
"&  c #393637",
"*  c #363836",
"=  c #393936",
"-  c #363639",
";  c #39373A",
":  c #373A39",
">  c #3C3C3C",
",  c #5B2F24",
"<  c #5C2F29",
"1  c #5A3025",
"2  c #413E3E",
"3  c #0C4137",
"4  c #0C403B",
"5  c #3E403E",
"6  c #41413E",
"7  c #0D3F40",
"8  c #3E3E41",
"9  c #413F41",
"0  c #3F4141",
"q  c #176E65",
"w  c #196F65",
"e  c #1B6F68",
"r  c #177165",
"t  c #197065",
"y  c #177168",
"u  c #1A7168",
"i  c #434343",
"p  c #494546",
"a  c #464846",
"s  c #494846",
"d  c #464649",
"f  c #484649",
"g  c #474A4A",
"h  c #4C4C4C",
"j  c #504F4E",
"k  c #4E504F",
"l  c #51514E",
"z  c #4E4E51",
"x  c #514F50",
"c  c #4F5151",
"v  c #4F575A",
"b  c #535353",
"n  c #585657",
"m  c #565856",
"M  c #595956",
"N  c #54555A",
"B  c #595659",
"V  c #565959",
"C  c #5C5C5C",
"Z  c #605E5E",
"A  c #5E605E",
"S  c #62615F",
"D  c #5E5E60",
"F  c #625F62",
"G  c #5E6160",
"H  c #626363",
"J  c #686665",
"K  c #686866",
"L  c #6A666A",
"P  c #69696A",
"I  c #767A7E",
"U  c #797A7D",
"Y  c #CC2435",
"T  c #AD6346",
"R  c #AD6349",
"E  c #B1614A",
"W  c #CC9476",
"Q  c #CD937A",
"!  c #D09279",
"~  c #767980",
"^  c #787B81",
"/  c #2DAD8F",
"(  c #30AC8F",
")  c #2DAD91",
"_  c #30AC91",
"`  c #4BDDAF",
"'  c #47DEB0",
"]  c #4BDDB2",
"[  c #4AE0B3",
"{  c #A6ADAE",
"}  c #A8ADAE",
"|  c #A6ADB0",
" . c #A8ADB1",
".. c #E6B7A4",
"X. c #E5B9A4",
"o. c #E6B8A8",
"O. c #FBE7CF",
"+. c #FDE6D3",
"@. c #FBE8D2",
"#. c #FCFCFD",
/* pixels */
"i i > i i i i i i 5 > i i i 2 i i d d a i a h h h b B M b C b g d l z x b b b h b s i 2 i i d i d a d d a i > 2 d d g s > = i 2 ",
"> > i > > > > > > = > 8 > > > > > > > i 2 d j N m b C h h C b i > a h b C Z H b h k g 8 = > > 6 > 6 6 > > i g b l h h h 9 > > > ",
"> - - = - = - - - > = > > > 8 > X X i 9 i i g h l h b h d b h h h i d a a h h s 5 d d i > > i i > > > 5 > 2 > > > = - - % + + + ",
"6 i i i 6 i 6 i d i i i a i a X Y X X a d i 5 i i i f i i > i 2 5 i > X X > = > 0 > > 5 2 > i > > > > > = - = % + @ # + + + + + ",
"i d i i d i i > i s d i i d X Y X 3 w t t o o o o o 4 o o o 3 9 6 > i X 1 X 9 8 i 6 > 2 > > > ; > i > > - = - % + % % # + + + + ",
"> > 6 i > > 6 > > > 5 > o X , O t q u O o w / ) ) w t o 4 o o o o i 6 . Y X 9 4 t t i 8 > > > > > > > > > - - * - = - - % + % + ",
"i > > > > > > > > - > o X 3 w ) ) ] ] ] / r w w r ) / / ) w 7 o o o d X Y X 4 ) ) / q i i i i i > i i i > > i i > > - - % % % % ",
"> > > - > - = - - = > X w / ) / ] ] ] ] ] ] ] ) w r / ] ] ] ) w o o o X Y X _ ] ] ] ( q 8 i i * > > 6 > > > 2 - + % % % % % @ + ",
"- & * - - = % > - % t / ] ] ) ) ] ] ) ] ] ] ] ] ] ) ) ) ] ] ] ] t o o X Y X ] ] ] ] ] _ i 6 i > > i i 2 > > > > & - > - % % % % ",
"= - > > * > 8 > t ( ] ] ] ) t ] ] ) ] ] ] ] ] ) ] ] ] ) _ ] ] ] ] t o X Y   / _ ) ) ) ] q i i 6 i > 2 i > 9 > > > > > % - # % > ",
"% # % - - > > ) ] ] ] ] ] w ) ] ] _ ] ] ' ] e q ) ] ] [ _ ] ] ] ] ) o X Y X r w w u ) / ] t s d d d 6 i i d d g 6 > > - % - = * ",
"i s i s k g w ] ] ] ] ] r ) ] ] _ q ] ] ] ] e R e u ] ] ] _ ] ] ] ` t o , Y X o r w t w ) ] t C m C M b n b C B 6 > > - - % % % ",
"C C b m C B ) ] ) ] ] _ q ] ] ( q q ] ] ] / q W Q T t ] ` ] ] ] ] ] ) o X Y X H o o t t t ) ] q C C n n H m m l > > > > % - % # ",
"B C M m x w ] _ [ ] ] t ) ] ] r R q ' ] ' / E W Q Q R t ] ] ] ] ] ] ] w o < X C Z C O t t t ) ` ) 4 l b l N m b d > > > > = - - ",
"h h b b h ) ] t ] ] ) t ] ] / R T q ] ] ] q W W W ..W R r ` ] ] ] ] ] ) o X 1 X H C C o r t t / ] / q C n b b M h d i i 6 i 6 > ",
"b l h h o ] ) u ] ] t ) ] ] t R E E / ` ` q W W W 4 o o w ] ] ] ] ] ] ) o X , X d d g s o w t t / ` ] r s i d > > - % % % % % % ",
"l h h z w ] t ) ] ] o ] ' _ R 4 o R ) ] / u Q Q 4 Q X.X.t _ ] ] ] ] ] ) o X < X 5 i 5 6 0 o q w t / / ` r 6 > > - > > * - % * & ",
"2 6 i o ] w o ] ] ) o ] ] q T T R o r ` ) R Q X...X.o.X.X.r ] ' ] ] ] ) t X X X d s i i i 9 o w t t ) ) ] t > > - - % - % - % # ",
"f h g 3 ] o 4 ] ] ( 7 ] _ t R ! Q Q w ] w Q X.X.X.X.X...X.u ) ] ] ] ` q t X X g s i s d d 6 p o w t ) / ) ] w i i i > 5 2 > 2 > ",
"f g s o ) o 3 ] ] t o ] ) R Q Q Q Q t ` t Q X.X.X.X.X.Q Q Q u ] ] ] [ t r X X X i i i i s a s d 4 q t ) ) ] ] w i i i 5 > > > > ",
"> > = o e > o ] ) w o ] t T R R Q Q Q ) Q X...X.X.R X X X X t ] ] ] ) w q X X X i g h s h s i 6 i 4 t ) ) _ ] ] t 2 > 8 = > > > ",
"- - - % 4 - o ] _ e 4 / 3 T X X 1 R Q q Q X...X.R 1 o o 4 3 X ] ] ] ) w o X X X s i i d d i d i s g t w ( ) ] ] ] t i > 5 > i > ",
"6 > i i i > 3 ] ) t o ) o X { o o < R Q Q X.X.X.1 { O #.o y X ) ] ` w w o X X X d i 6 i i s i d s d d q ) ) / ] ] / o 6 5 i > > ",
"> > > = > > o ) ) o o u 1 X #.o #.4 R Q X.X.X...T #.4 | o t 1 ) ] / t w X X X   i i g a i s s i i i i o / ) / ] ] ] q i > > > > ",
"f d d i d i o w _ 4 o y 1 1 #.o { o Q X.+.+.+.+.Q #.4 3 t O T ) ] ) t r X Y X a c h d i i i d i i 8 8 o w ) / ] ] [ ( o d d 5 i ",
"j h l h b l b 4 ) 4 o t 1 , #.o o t o.+.@.O.+.+.+.#.R o 4 | R ) ) t e o 1 Y X C C C j i d d i a d g i i r ) ) ) ] ] ] r i 9 i 8 ",
"h h j b b N b o t o 4 O 1 R Q t o o +.+.+.+.+.+.+.+.+.+.+.X.E ) t t t X 1 X V H S C b i d i s h s d a i o ) ) ) ] ` ] ) o 6 > 9 ",
"c b h k x z b 3 o 4 7 3 < R X.O.+.+.+.+.+.+.+.@.+.+.+.@.+.X.w ) 4 u 3 X X B V n C H h d i s h i i 6 i 6 4 r ) ) ] ] ] ] 3 6 5 > ",
"l b g j j j l b o b 3 o 1 R X.+.+.+.X.Y Y Y Q @.+.+.+.+.+.o.t / o t 4 b b b b m b C b > i > i > > > > > > t ) ) ] ] ] ] t > > > ",
"d 0 i i i 6 i i o 9 o d i , Q @.+.+.+.Y Y Y Y X.+.+.+.+.+.Q w r 4 o C C F D Z C b b b b b b h h h h l h h t ) ) ) ] ] ] ) z i d ",
"- > - * - - - & % & 4 - & & 1 Q +.+.+.Q Y Y Y Y +.+.+.+.X.X t o o D C n S B V C C C C C G H A C H C C H C o ) / ) ] ` ] _ 3 x b ",
"> > > > > 9 = > > > > > 2 > > 1 R X.+.+.X.Y Y Y +.+.@.X X X u o C C D A H H H S H H H H C C J C C S Z C B 4 / ) ) ] ] ] ] o n C ",
"d 6 i i i 6 > i i d i d h g s d 4 , R Q X.X.X.X.X.Q T X X o o D K H H J J H H J H C Z J H H H C C m k b C o / ) ) ] ] ] ] t N h ",
"s d i d d d d i i d h h h h h h o o o , 1 1 , 1 , , N N v u R Q Q R D C G G G D Z C C b M N h b b b m C Z 3 ) / ) / ] ] ] t b h ",
"- > > > > = > > % = > = > = 5 i o o 4 7 1 o u o w o U N o R +.+.X.W R % > > - > - > > > - % > > > h H C C 4 ) ( / ) ] ] ] t k x ",
"% = > > > = > = > > % % > > > > 4 o o , , w ^ o ) e o r o Q +.+.Y Q R % + + $ % # % % # % % % + + i b b b 4 _ ) _ ) ] ] ` t h b ",
"> % - % % = = % % % - & > > > % o o o 1 t I I t r I ~ I o W X.+.Y W T % - % - % % % % - - - % % + d C b V o ) ) ) ) ' ] ] o j g ",
"% % = = - % * - % $ # % % % % - > o o o t ~ } ) ) { {  .O w Q X...Q , % - % $ # % - % % = & % % + i Z M b t _ / / ) ] ] / 3 h b ",
"- > - - - - - > - > 8 5 > 6 6 d a o o R R , t ) t { | ~ X   q q Q T 6 2 > > > 5 i i 6 d g s i d 2 d b k k t ) ) ) _ ` ] e h f g ",
"i > > 6 2 5 6 6 5 a X...X.R f i 5 o R X.X.X.R 3 X ^ I X X   X X o o g f d g h g s h g h h s s h h s i i > t _ / ) ] ] ] w > > > ",
"i i i d d a i i d i T , 1 ..X.o . X X.+.+.+.X.r X X X X X X X X X . d d h f d i i d s g s a g d f a d f s / ( ) ) ] ] ] o > 8 > ",
"> 6 i i > 2 > 6 9 > X.X.R X.R t X X X.+.+.+.X.) X X   X X X X X X N N o b h h b h l j j h N b b k h l g 4 _ ) _ _ ] ] ) o i i i ",
"i i i > > i i i 6 i R 1 1 X.1 w   X E X.+.+.X.) . X X X X X X X X U { I 3 X X o b b b l V b k b b b b n 3 ) / t ] ] ] u s g s d ",
"b b b b b b h b b m X.X.R 1 T w X X , R X.X.T ) N N N X X X X X U | | | o X X X 3 C b n b b C b b b m b 4 ) ) q ] ] ] o b h j h ",
"j b b b b C b b M b 1 R 1 , R t   X X 1 R R q o R N R N N X X X | | } } o X X X w b b C b C m n b V b b t ) ) w ` ] / O g d s g ",
"b c x h b b N j N b M 1 < R , o X X X X < 1 4 N N Y v Y v X X U | { { U o X X X ) x b b b b b b b b b o w / t / ] ` t h h j h s ",
"h b s l N h s h b b M h j C o X   X X X o t t X X X X X X v ^  .{ | U q X . X X w b b h b b h b k j b o ) w q ] ] ) o b l h h h ",
"z h b b b h l b j b b b N x b b b o o o r e o N N o X X o ~ I I w r o X X X X o 7 b m C M C b V C b b t q o ( ] ) o j h g i i d ",
"h h b h h h h g j b h l h k l k j o o o o o X o o X X X w t e o 7 X X X X X o _ b h h b h b b b b b o t 4 t ) ) 3 f s d s i > = ",
"h h g b l g h b l b b N b b b b 4 o o o o o X X X   X X X . X X X X X X X X ) u h h h g h h b h g h o o t _ ) o g z h s j > - > ",
"h h l j h b l h j b h z j n b h 7 o o 7 o O o   X X X X X X X X X   X X O ) o h h h b b b j h b b 3 o u u t z h f d s s a > & = ",
"b h b b C b b b x h b B C b b 3 4 4 b 4 o o o t X X X   X X X X X o t t o 3 C C Z Z H C G C C H o w q o 4 b n b b b j h b > > > ",
"d g g h h h h h x b b b b b h h h h 4 o o o g 7 q w u 4 o t t 4 ] ] ] ) w g g z h h h h j h h h h h h d a g a d s f 5 i 2 > - - ",
"& > > > > & - > 2 0 > 2 i 9 > 6 i o 4 o o 6 9 1 R W Q , o 4 O o Q X.X.R 6 i 6 > i d d i 6 > i i 6 i 9 9 0 2 8 > > > > > > 2 > > ",
"> > > > > > - > > 9 2 a i > d o o o o d d a d 3 w w w o a d a R +.+.X., 0 5 i i a d i s d i d > i i 2 > 6 > 9 9 9 > 0 5 > > > > ",
"i 6 > > > > > > i d d d i i > 6 i i > 6 9 6 d X X X X X 8 0 6 w ) ) u o > i 5 9 6 6 i > i 5 > > > > > > > > - > > > > > > % > = ",
"= > - > > > d > > > > > > > - - - > 2 > > > > X t X X X 9 9 8 X X X X X i 6 6 i 2 i d i i i i i i > i > > i > > > 2 > > > > = - ",
"m C b N H V C b b h C C C V b l b V b M M b X X X   X V b b C X t X X X n b B n d > > 6 i i i i > i i 6 i > > > > > > > > - * - ",
"J H J P J P J H K K H H K K C H P L H J K X X X X X X P L P X X X X X X H A C K b > i i i i 9 0 a 9 i d i i i 8 i > > > > = > = ",
"C C C b b C C C H H B H L J G Z C H H H X X / X X X X H C M X X X X X X D n V D g > > i > 6 > > > > > > i > > 6 > > > > > - - - ",
"H H C C C C C H J H J K P H H J K G H . X X X X X X X Z G X X ] X X X   H H H K h > 2 i i 6 i 6 i i i i i > i i 6 i > 6 > > & * ",
"C C V b M H H C D C V b G G C D H C D X X X X X X X o J X X X X X X X X B V S H h i a i i d i d i i i i i > i > > > > > > % % > ",
"i 6 d i i i i i 0 > > & > 8 > i 9 0 9 3 q t t t o o 0 i X X X X X X q o i > 9 9 i 6 6 > > i i 8 > > > > i > > > - - = - % % % - ",
"i d i 2 > > 0 > > i i 5 i > i i 2 9 i 2 i i 8 i 6 i i 9 t / ) ) ) q o i i 5 i i d i i d i i i > a i i > 8 > > 6 > = = % - % % - "
};
