/* XPM */
static char *miku_121677154608[] = {
/* columns rows colors chars-per-pixel */
"64 64 101 2 ",
"   c #1B1D1F",
".  c #161E20",
"X  c #1B1D22",
"o  c #0D3F3C",
"O  c #103F37",
"+  c #103E3C",
"@  c #2D2D2D",
"#  c #302E2F",
"$  c #353535",
"%  c #383636",
"&  c #353836",
"*  c #393936",
"=  c #363639",
"-  c #393739",
";  c #363939",
":  c #3C3C3C",
">  c #5C2F26",
",  c #5B2E28",
"<  c #5A3025",
"1  c #593128",
"2  c #413E3E",
"3  c #0C4037",
"4  c #0D403B",
"5  c #11403A",
"6  c #3E403E",
"7  c #41413E",
"8  c #0E3E40",
"9  c #3E3E41",
"0  c #413F41",
"q  c #3F4141",
"w  c #176F64",
"e  c #1A6F65",
"r  c #1A6F68",
"t  c #177165",
"y  c #197065",
"u  c #197168",
"i  c #434343",
"p  c #484646",
"a  c #464946",
"s  c #484947",
"d  c #464649",
"f  c #494748",
"g  c #474948",
"h  c #4C4C4C",
"j  c #514E4E",
"k  c #4E504F",
"l  c #51524F",
"z  c #4E4E51",
"x  c #514F51",
"c  c #4F5150",
"v  c #535353",
"b  c #585657",
"n  c #565856",
"m  c #595856",
"M  c #53555A",
"N  c #595759",
"B  c #575959",
"V  c #5B5B5B",
"C  c #605E5E",
"Z  c #5E615E",
"A  c #61625E",
"S  c #5F5E60",
"D  c #615F62",
"F  c #5F6161",
"G  c #636363",
"H  c #686667",
"J  c #666668",
"K  c #6A676A",
"L  c #6A696A",
"P  c #767A7E",
"I  c #797A7E",
"U  c #CC2535",
"Y  c #AD6346",
"T  c #AD6349",
"R  c #B06047",
"E  c #CC9476",
"W  c #CD937A",
"Q  c #D0947C",
"!  c #757B81",
"~  c #787880",
"^  c #2DAD8F",
"/  c #30AD8F",
"(  c #2AB08F",
")  c #2DAD91",
"_  c #30AC91",
"`  c #2DB091",
"'  c #4ADEAE",
"]  c #47DCB2",
"[  c #4BDDB2",
"{  c #A6ADAE",
"}  c #A9ADAF",
"|  c #A6ADB0",
" . c #A8ADB1",
".. c #E6B7A4",
"X. c #E5B9A4",
"o. c #E8B9A7",
"O. c #E5B9A9",
"+. c #FCE6CF",
"@. c #FDE6D3",
"#. c #FBE8D3",
"$. c #FCFCFC",
/* pixels */
"i i i 6 i q i a i i q i i i i i i i p a a d v h h n n n N B v a d v z v n M l z v g 7 i i i a i a a i f g : : i a a f g : - i q ",
": - i : : : - : : - : * : : . . : 6 0 : : p k v v m V h c V v f : i h v V V A v f x h 2 - - : q : i 0 : : i f n h h h h q : : - ",
"- - % ; % ; % % % : : : 2 X X 1 0 9 i 7 i i f h h k v h f c h h X X a p g h h s 0 a a 7 : : i i : : : 0 9 : 6 : : % = % $ @ @ @ ",
"i i i i i i 6 i i i i i i X U X a a o w u e u 4 4 o 8 o 4 : 0 i X > . - 9 : : : i : - 0 6 : i : : : : : ; & % $ # # # @ @ @ @ @ ",
"i a 6 i a i i 6 a p o o X U X X o e e u e o o ^ ) _ ^ y 4 + 5 o . X U i i i i 9 q 6 2 9 : : : : : i : - - : % $ # $ # # @ @ @ @ ",
": : i i 0 : : 9 : o o o . U + u ) ) _ ) ) _ ^ w y e y ) ) ) ) y 8 X U X i o u e o i i 0 : : : : : - - - * ; % - ; : ; & $ # $ # ",
"i i : : : : : : % o o X X o ) ) ) ) ) [ ) [ [ [ [ ^ y y [ [ [ [ / y o X o ) [ [ _ 4 i 7 9 i i i 6 i i a q 6 i 6 : ; $ & $ $ $ # ",
"- : - & ; - * % o o + . e ) [ _ _ ) [ ) ' [ [ [ [ [ _ ) ) [ [ [ [ [ ) + . ^ [ [ [ _ o 9 i i 6 - : : q : - : i % # $ $ $ $ $ $ # ",
"% ; % % & - % - 4 o o r ^ [ _ ) ^ [ [ ) [ [ [ [ [ [ [ [ ^ ) [ [ [ [ [ ) 4 y _ ^ [ [ e d a : i : : i 0 : : : : : ; % : : $ $ $ $ ",
": ; - : ; : : 9 o o y _ [ ) ) y [ [ ) e [ [ [ [ ) [ [ [ [ [ ` [ [ [ [ [ y o y ) ) ' ) i 6 i i 0 i : 0 i : : : : : : - % & $ % ; ",
"$ $ $ ; = : : 4 o o ) ' [ ^ u ^ [ [ t u [ [ [ ] r ^ ^ [ [ [ [ ^ [ [ [ [ ^ + y y ) [ [ o j f a a s f i 0 a a f f q : : - % & ; % ",
"i a i a k f f o o y ' [ [ ) y [ [ ) Y y [ [ [ [ r y _ ) [ [ [ [ [ [ [ [ [ y o y ) ) [ + N V D V B B n n M v n n 6 - : & = $ # $ ",
"N B M B V B M o 4 ) [ [ ) ) y [ ' y Y T ) [ [ [ u Y e ^ ) [ [ [ [ [ [ [ [ r o y e ) [ y S V G J V N b m A b n x : - : - % % $ # ",
"N V B N h v O 4 w ) [ [ ) e ) [ ) y T Y ) [ [ [ y E Q w ) _ [ [ [ ) [ [ [ u 4 8 y / _ y S V B B G B v v v v N v a 7 7 : : ; & ; ",
"f h n v h h o o ) ) [ [ ) y [ [ e T T Y u [ [ [ u E W E y ) ) [ [ ) [ [ [ e 4 5 y ) ) u F L J V G V V B M b n n h a i i 9 i i : ",
"n v h h c v o o ) ) [ [ ) y [ [ y o o o T ) [ [ e W W o 4 o ) [ [ [ ) [ ' y 4 i y ) ) w 4 h f a i i a f i i i 0 : = $ $ $ $ $ $ ",
"x h h f f a o o _ u [ [ ) 4 [ ) y R T T o e [ [ y W 4 u E T u ) [ [ ^ [ [ y o 9 y y ) e o : : 6 : 9 2 i 0 0 : : & : - ; ; % & = ",
": i a i i i o o ^ e [ [ _ o [ y T W W W Y u [ ] y W X.X.X.E w r [ [ [ ) [ e o h o y ) y o 7 0 : : i : : : : - - - * % % % % $ # ",
"f f h h h o o o ^ + [ [ ^ 4 [ e W E W W E T [ [ W X.X.o.o.o.E e ) [ [ ) [ y o f o e ) w 4 i i d d a a a i i i i a i : i : : q : ",
"f h a d 7 o o o e o [ [ ^ o _ T E W Q O.E E [ ) X...o.W E X.o.T y [ [ ) ^ y + X o y ) _ o d a i i f i a a i i i i i q : : : : : ",
": : : & & 8 w 4 y + ( [ _ + y X . > ..E X.W _ t X.X.Y X X . X R e _ [ ) ^ O o . o u ) ) o f i a p f d 0 i : : : : : : : : : : : ",
"% % & % & o y 4 o o ) [ _ o . | o 4 < X.O.W t X.X.Y < 4 5 o 8 . y ) [ ) e o X X f y ( _ 5 i a i a f a 0 i a i i i i i 2 : : : 6 ",
"i 9 i 2 i o e o 4 o u ) ) 4   $.o $.4 T X.o.W X.X.< | 4 $.8 w X W y ) ) t X X   i y ) ) y d d i a d p a i i : : q : i i : i : : ",
": - * : : 4 y 4 . o y ) y 8 > $.o } 4 W X.X.X.X.X.T $.o } 4 y < W o _ u e X X i i r y ) e o a i i i 0 i : 0 i i i i : : i q : : ",
"f a i i a o ^ o X . o _ t 4 < $.o o y o.@.@.@.@.@.E $.o o y 4 Y W o t y   U . p h y y ) y o d i i 2 : i a d f a a f i i f i i i ",
"k k z z j o _ o X X + r y o T E e o o @.@.@.@.@.@.@.$.T o 8 | W E 4 e e < U X N V e y ) ) o a d a f d i f f a f a f i a a 0 i 0 ",
"c h v v v o ) o o X 8 r y o T @.@.@.@.@.@.@.#.#.@.#.@.@.@.@.@.@.T o y o < X V G F y u ) _ u 4 f f a a i a i i i a 9 i a i i : : ",
"h v h h x o ) w o h O r y 4 T X.@.@.#.#.#.@.@.@.@.@.@.#.@.@.#.o.T o y o X V N B B o y ) ) y o d i i i 0 i i 7 6 0 i i : : : 0 : ",
"v z f c c o ) t o j l 4 y 4 > W @.@.@.@.@.@.#.@.@.@.@.@.@.@.@.R o o u B M v v b n o e _ ^ / 4 : : : : - : : - : 2 : : : : : : : ",
"p i i i a 4 ) ) o o i o y y o < Q #.@.@.@.U U U U U @.@.@.@.Q > o O o V V G A V b o w ) ^ ^ y h f h c v h l v v h h v h h h a s ",
"- - & ; % o ) ) y o % % o y * o > Y X.@.@.@.U U U +.@.@...T > . X o m m F B N V V 4 y ) ^ [ y 4 G V V F V B N B B B B N v v x v ",
": : : : : o ^ ) t o : : 0 o : : o 4 < T W X.X.X.O...W R < . . X o N D V G G G G G o y ) ) [ ) o V G V V V V N N G V B D B n N n ",
"a 0 i i a 4 ) ) y o 4 a z f a a h o o > o > < < 1 < < M o X X C J J G K J J G G J o w ^ _ [ ) y n B x v m v N n v B v v v N v h ",
"p d a a a 4 ) ) y e 4 h h z h h < > o o M I M o I ~ I 4 < Y T 1 V V V V Z G V G V C y _ ^ [ [ y v v m V A N V V M V n v n N x h ",
"% - : : - - y ) y u o - @.@.E @.> Y o P 4 M o y o M 4 @.T @.#.X.< . : = - * * * - : e ) ) [ [ y 4 h J V V A b n n v v v v v c h ",
"$ : : - : - 4 ) ) t o o X.o.T Y @.4 M P P 4 y ) y o ~ ..< T Y @.R y X # @ @ $ $ $ $ y ^ ) ^ [ _ 4 i b v v l v n v v x v h f v v ",
"- $ ; $ = - 4 ) ) w o 4 ..@.@.@.W < P { { { P y P | | T > @.@.@.E ^ X $ ; $ $ % $ $ w ) ^ ) [ [ y a C n N n M v M N n v v h h h ",
"% $ - ; = % 4 ) ^ y y 4 E @...T < > P { | { y ) u { { > < T T @...^ X X & $ @ $ $ $ o ) ^ ) [ [ ) o V M N n n v v v v v v v h v ",
"% ; * & & % % y ( y r o u O.@.@.X.> P P | } _ [ e { { > Y Q #.X.E w X M : : q : i i o ) _ ) [ [ [ e v z h h f g h p a f h h f g ",
"i 2 : q 0 7 i 4 ) _ y 4 o W o.E T > M P I P [ [ e P M M > T Q Q R w . M a f h a p f o e ) ) _ [ [ ) y i : 2 i i i 7 6 i 6 : : - ",
"a i a d d i p o ) ) y 4 X o T T < 4 M M M M [ [ ^ M M M M < < > . 8 . U f g i i 7 g f y ) ) ) [ [ [ ) y a i i i 0 0 i 9 0 0 : 9 ",
": 9 : i 0 2 6 4 y ^ y o M X + 8 o . M M ! w [ [ ) ~ ! I M M 8 .   . . M j h c v h x v 4 _ ^ ) ^ [ [ [ ) e s d p a i f p i i i 0 ",
"i i 0 9 9 0 7 i o ^ y w M M X X X . N ~ I e [ ] [ w { { | P . + o X . . v v v v n n v o _ / e ^ ) ' [ [ [ ) 4 h a h f h f h a a ",
"v v v v v x h n 4 y ^ y o X X . . X ! | I r [ [ [ e | } { | M . X X X M x v n n n n v v e ) ^ w ) ) [ [ [ [ / 8 h h c v v h h h ",
"z n v v n M v n M o ) u e 4 X X X M { { I X X [ [ y | }  .{ ~ X X X v v v v n v h v v n o / ) ) e ) ) [ [ [ [ ) o v v h a f g s ",
"v h h x v v v h v o e ) y r + 4 4 P { { ~ y [ [ _ y } { | } I M v j x v v v v j h v v v v w ) ) e w ) ) ) [ [ [ ) 5 h h z h h a ",
"h k i x v h f h v v 5 y y e y o X y { | I . X [ y |  .} } { ~ o . z f z v v p h x v n x x o e / ) e y e ^ ) ) [ [ y v v x h f h ",
"c v n m v h x v k v v o y 4 8 X X X e { P o [ u . y P | { I 4 X X X X v v l b v n n v N V V o w ) / ) y u e ) / [ ) o h d i a a ",
"h h v h h h h h z l h v h o ) 4 o r [ o e o r X X X y I e o X X X . X X s h l v l v k j c v v 3 y u ^ ) _ o o y ) ^ y a f i : : ",
"h h f v h h z l z n v v v l o [ [ [ X X 4 w X X X X   o +   X . X X y 4 f h h h h f h f h h x z h 4 u y ) ) w o r ^ y a h 9 % - ",
"h h l h v k k k c v h j z v 4 y w X X X . X X . X X   X X X . .   r + h h h h h h h v v l j k v v v h 4 o o e r o y u o g : & - ",
"v h z n n v v v x h v V N v n o e ] X X X X X X X . X X X X ) u r o B l M n V V G V G V A V V G C V B n b v n v o 5 y o x i - : ",
"f h h h h h h h j M v n v v h h o O ) ^ y ) [ [ _ r + / ' ' r o p h f s a p f h h h h h x h h j h h h d a a a a d d o o q ; % ; ",
"- - : : - & : - 2 0 : q i 0 : i i T W T o e u e e o o t r E R a a 2 i q i i i 6 q a p i 0 : i q i i i 7 9 0 q : * : : o 0 9 : : ",
": - : : : : - - : 9 9 i 0 0 a a a e E E Y < a i i d T X...X.e f i p i a i 2 i i a f i f a a a : 7 i 6 q 0 q : i i : i i : : : : ",
"i q : 6 : : 6 : i a i a i i : 2 i X r w u o a i i 2 y ) ) e . 7 i : : : : i 6 0 0 : i : 0 0 : * : : : : - : : - - : : & : & - ; ",
"- : % : : i i : : : : : 2 * ; & ; X X X X X 7 2 2 i X X X X . i 7 : : i i i i 7 2 a i i i a i i i : i : i : : : 6 q 6 : : : ; & ",
"B N n n C N B n h j B N V V v v n   8 X X X v v b N X X r X X X b M N N M v b N a : : 0 0 i i i : i i i : i : - : : : - - : ; % ",
"J G J H L H H J L L G G L L V G L X X X X X K L K H G . X X X X   A C J G A V H x : i i i i i i a 0 i i a i i 6 i 7 : : - : - : ",
"B V V n n B B V A G V Z J G C G X X X X X X C H G V D X X X X X . v v V V b B C h & 0 i : 9 - : : : : q 2 : : i - : - : : & % % ",
"H G V B B A C C J G G K K J G J X X y X X X G S A G N X X _ X X X . G G A G G K j - q i i 0 i 0 i i i i q i i i i q 6 q 6 : ; % ",
"V V m B M G G V V V b n D V V   . X X X X X J A G G J X X X X X X . G N C B D G h q a i i a i a i i i i i 7 : : - : : : ; % % - ",
"i 0 a i i i i i i : : & : 2 : 4 X X X X X X 2 0 7 i i X X X X X X o i i i : : 7 i i : 2 : i 7 9 : : : : i - - : ; % ; % $ $ $ & ",
"i a i 2 : : 7 : : i 0 i i : i + y y _ _ w o 0 6 i i i 4 w ) / ) + f i i 7 i i i f i i a i i i i i i i : q 6 : q : - - $ % $ % ; "
};
