/* XPM */
static char *miku_21677154610[] = {
/* columns rows colors chars-per-pixel */
"64 64 243 2 ",
"   c #180C15",
".  c #08151A",
"X  c #1B141B",
"o  c #1B1A1F",
"O  c #14191D",
"+  c #0F0610",
"@  c #27231E",
"#  c #1B1C22",
"$  c #151D23",
"%  c #0A1F27",
"&  c #281E22",
"*  c #072627",
"=  c #1C2226",
"-  c #152B2C",
";  c #192B2D",
":  c #152427",
">  c #0C3D3A",
",  c #093736",
"<  c #133433",
"1  c #143C3B",
"2  c #1A3938",
"3  c #132F2F",
"4  c #2D2D2D",
"5  c #252628",
"6  c #352526",
"7  c #2B2D32",
"8  c #273938",
"9  c #353535",
"0  c #363936",
"q  c #353639",
"w  c #393738",
"e  c #353B3C",
"r  c #3C3C3C",
"t  c #3A3735",
"y  c #35322D",
"u  c #26141B",
"i  c #46141E",
"p  c #52261C",
"a  c #4A1C25",
"s  c #5A3227",
"d  c #403E3E",
"f  c #4C3633",
"g  c #52312A",
"h  c #75322A",
"j  c #0D423D",
"k  c #04413D",
"l  c #1A423D",
"z  c #29423E",
"x  c #3E413E",
"c  c #33433E",
"v  c #41413E",
"b  c #4B4539",
"n  c #5D4133",
"m  c #734A37",
"M  c #3E3E41",
"N  c #353D41",
"B  c #413F41",
"V  c #4F3840",
"C  c #6F3A44",
"Z  c #0E4642",
"A  c #0A4A46",
"S  c #124B45",
"D  c #124E4A",
"F  c #184644",
"G  c #08534C",
"H  c #13534B",
"J  c #18554C",
"K  c #0B5B54",
"L  c #145C54",
"P  c #175954",
"I  c #284644",
"U  c #334342",
"Y  c #3D4242",
"T  c #3B4949",
"R  c #265855",
"E  c #375755",
"W  c #32534D",
"Q  c #0A655D",
"!  c #156256",
"~  c #15645B",
"^  c #1A655C",
"/  c #18695C",
"(  c #1E715F",
")  c #24645B",
"_  c #34675E",
"`  c #1A6C63",
"'  c #186C62",
"]  c #1A7366",
"[  c #1B756A",
"{  c #1C7A6C",
"}  c #177466",
"|  c #1D7E72",
" . c #0D7367",
".. c #236A61",
"X. c #237968",
"o. c #347E72",
"O. c #3C6B6A",
"+. c #434343",
"@. c #484546",
"#. c #464946",
"$. c #454649",
"%. c #434B4C",
"&. c #4C4C4C",
"*. c #494747",
"=. c #514E4F",
"-. c #4E504F",
";. c #48564B",
":. c #4D4E51",
">. c #514F51",
",. c #4D5353",
"<. c #455656",
"1. c #545454",
"2. c #595956",
"3. c #545559",
"4. c #5B5B5B",
"5. c #575858",
"6. c #54544D",
"7. c #645B5B",
"8. c #72544C",
"9. c #50645C",
"0. c #63625C",
"q. c #726B59",
"w. c #5C5D61",
"e. c #4F5A60",
"r. c #625E62",
"t. c #446C67",
"y. c #5C6463",
"u. c #517971",
"i. c #626363",
"p. c #6A696A",
"a. c #686768",
"s. c #797A6A",
"d. c #6E7572",
"f. c #89262F",
"g. c #B72233",
"h. c #A92432",
"j. c #D62635",
"k. c #8D4936",
"l. c #A9553B",
"z. c #C25439",
"x. c #8C5647",
"c. c #916A57",
"v. c #B16E54",
"b. c #8C7A6A",
"n. c #AE7B68",
"m. c #BC5D41",
"M. c #C9795D",
"N. c #D47658",
"B. c #D17D62",
"V. c #1C8675",
"C. c #168874",
"Z. c #228473",
"A. c #238D7A",
"S. c #268B77",
"D. c #23927C",
"F. c #2B967F",
"G. c #318776",
"H. c #4A897B",
"J. c #75806F",
"K. c #908471",
"L. c #B68771",
"P. c #CE937A",
"I. c #D9967B",
"U. c #CD8970",
"Y. c #E78B70",
"T. c #757E82",
"R. c #867F86",
"E. c #1C9A84",
"W. c #0C9782",
"Q. c #279984",
"!. c #349B84",
"~. c #3E8E83",
"^. c #18AB8E",
"/. c #2BA58B",
"(. c #2CAA8E",
"). c #27A489",
"_. c #2DAD91",
"`. c #2BA691",
"'. c #30AD92",
"]. c #2EB293",
"[. c #2CB898",
"{. c #31B395",
"}. c #34BB9B",
"|. c #38B999",
" X c #35A88C",
".X c #4E958A",
"XX c #718E8A",
"oX c #45AC92",
"OX c #7BA387",
"+X c #6ABCA5",
"@X c #3BC29E",
"#X c #36C29E",
"$X c #3DC5A2",
"%X c #3BC9A5",
"&X c #35D0A9",
"*X c #3FE7B6",
"=X c #44CDA7",
"-X c #43D2AB",
";X c #49DBAF",
":X c #49D6AE",
">X c #4BDDB2",
",X c #49DDB5",
"<X c #4DE2B5",
"1X c #4EE5BA",
"2X c #4CE8B9",
"3X c #51E8BA",
"4X c #54F2BF",
"5X c #79C4AD",
"6X c #55F2C3",
"7X c #959499",
"8X c #8E8F8E",
"9X c #B79687",
"0X c #96B199",
"qX c #97ACAB",
"wX c #A8ABAD",
"eX c #A8AEB0",
"rX c #ABB2B4",
"tX c #B6B2B5",
"yX c #ABA49B",
"uX c #CC9982",
"iX c #E39C82",
"pX c #DCAC98",
"aX c #D6A38A",
"sX c #E9B399",
"dX c #F2AB90",
"fX c #EABCA7",
"gX c #F6BDA8",
"hX c #C8B6B3",
"jX c #A2C0BE",
"kX c #EBC6B2",
"lX c #F8C8B2",
"zX c #F3C9B3",
"xX c #BDBCC1",
"cX c #C8BBC4",
"vX c #B5C0C2",
"bX c #FADBC5",
"nX c #FEE5D4",
"mX c #FEEAD4",
"MX c #FFEDDB",
"NX c #FEF2DE",
"BX c #FEE5CF",
"VX c #FEF7E5",
"CX c #FBF3EC",
/* pixels */
"+.+.d Y +.+.+.+.+.+.v +.+.+.+.B +.@.@.+.@.#.&.&.:.1.3.2.4.2.1.$.@.,.&.1.2.5.1.&.q # 7 B B B +.+.$.$.@.#.@.r r r @.$.&.@.r r x +.",
"r r v r r r r r r w t r r r r r r r x x M r # 5 2.2.4.&.,.4.:.@.r @.&.1.3.4.w.W . f.h 7 w B r +.r +.r Y x +.&.2.=.&.&.&.x r r r ",
"r r r w w 0 w w w r r d r r r r M +.+.r r 5 s 5 &.:.:.T > 1 j j k j Z j H ] ` { L * f.h 7 r d +.d r d +.r r x r r w 9 r w 4 5 4 ",
"r +.+.B +.+.x +.+.+.+.+.+.+.#.@.#.@.#.@.M a g.: +.U > > j j j H [ A.{.{.X., L { [ { G t 6 - N r r r r r 0 w w 9 4 9 4 5 4 4 4 5 ",
"+.@.v +.@.+.+.r #.$.+.+.#.+.v *.%.{ ` S Y i g.- U j > k H D.[._.'.D./ } ] F.{.{.{.'.{.D.K : 3 e r x r r 0 r 9 9 9 4 4 4 4 4 4 4 ",
"r r Y +.+.r x r r r +.r M r +.Y | }.<X(.! i g.* j > D A.}.{.'.Q./ ] V.=X1X3X#X$X%X_.'._.#X{ - 7 r r 0 r w w w r 0 r r w w 4 9 y ",
"+.x r r r r r r r w r w 9 0 w e #X<X>X:XD.i g.* j H A.}.}.1X$X_.[.{.@X>X>X;X1X#X$X=X(.(.%X=XD.l q M +.@.Y r d +.r r 9 w 9 w 9 9 ",
"r r r w w 0 w w 9 w r q 0 r c H 4X<X%X).V.i g.* S V.%X3X<X=X(.$X1X1X=X|.<X>X<X@X@X2X$X/.).=X%XA.W N Y r r r v q 4 9 9 9 9 9 4 4 ",
"w w 0 w w w w t 0 0 t w 0 r Y Z.1X%XQ.L 3 a h.* / %X1X>X$X|.2X<X>X,X$XQ.}.2X:X<X@X@X4X!.V./.=X-XD.I x r r r r r 0 w r w 9 9 9 w ",
"r w 0 r 0 r Y r r r d r +.B T }.,XQ.~ L i j.4 A Q.2X<X=X}.1X;X;X;X=X).V.!.3X;X1X|.}.<X-XZ.S.%X1X-X^ U +.r d r r r r r 9 w 4 w 0 ",
"4 9 9 w w r r w r 0 q r t Y e 4X:XQ.~ 3 a h.* ! =X<X>X>X<X>X<X$X).S._ ! /.3X<X2XQ.{ $X4XF.D._.%X3X/.I @.@.+.*.*.Y r r w 9 w 0 0 ",
"+.#.+.&.&.#.$.&.&.&.:.&.-.&.D 1X%X~ / 3 & y A D.3X>X>X>X>X>X%X).C.b.Y.8.).1X3X#XZ.R /.4X/.V.).=X1X%X/ T 3.2.5.1.d r r w w 9 9 9 ",
"4.2.2.3.4.5.2.2.1.2.3.2.5.3.L <XQ.` P & s * A Q.2X>X;X<X>X%X(.D.K.I.iXJ.E.2X<XE.8.c.C.&X;XZ.S.%X3X@XD.E w.4.3.=.r r r r 9 w 9 4 ",
"4.4.4.3.&.1.1.&.>.1.1.1.5.1.V.<X/.! 2 & s $ H %X1X;X>X<X%X(.C.<.U.L.I.s.Q.4X#XX.q.m.b (.6XF.D.(.=X#X|.! T 1.4.1.+.+.r r 0 r w 0 ",
"&.&.1.1.&.&.1.1.&.5.4.1.2.<.@X-X).) 7.5 a : L $X<X>X>X$X).G.E I k W P.K.E.6X^.q.m.b 1 F.6XD.S.(.:X|.{.L %.3.2.5.&.@.#.+.+.+.+.r ",
"1.=.&.&.=.1.1.=.1.1.1.&.#.S 2X(./.) 1.5 O - A.}.<X<X=X(.E.;.Y.dX9X) q.K.^.3XF.K.q.8.c.V.;X( } ].:XD.Q.! U +.B Y r 0 w 4 9 9 w 4 ",
"=.&.&.&.&.@.#.#.#.&.$.@.$.H <X(.Q.^ r q o ; V.}.<X;X$X(.A.J.sXfXkXlXsX8X&X#Xs.N.I.aXY.6.#XX.{ ].-XZ.Q.! N M r r w r 0 0 w 9 w 9 ",
"r +.+.+.x +.@.@.+.+.@.&.&.D.>X).~ R B # # ; V.}.2X-X(.D.9.dXfXfXsXfXgX0X[.F.b.I.P.U.Y.p.[.X.] [.{.H Z.! e r r 0 r 0 w w w w 9 4 ",
"&.$.&.&.&.&.&.&.&.&.&.*.U }.<X).~ < $.# # ; { $X<X@X(.G.q.n.L.x.L.fXfX0X^.H.U.I.P.v.k.v C.L { |.|.! ! S U +.+.+.+.+.r +.r r x r ",
"@.&.@.@.+.+.&.$.@.@.@.Y Z $X=X/.~ < +.# o $ G |.;X).).E m . . . y I.sX0XC.K.I.U.v.s . 7 W k Z.{.}.! J F Y Y +.+.+.+.B M r r r r ",
"r r r 0 0 0 r r r r r r L 2X(./.~ 2 +.# # $ 1 A.;X(.D.A * A ) t.l x.aX0XK.dXP.U.s 9.J 0Xs.. Z.{.(.L , r +.Y r r r r r r r x r r ",
"w w w w w w 9 w w r 0 0 [ <X_./.~ 1 r 5 & a - V.).).^ ;.8 Q XXvXt.pXM.lXkXkXpXU.b qXXXqX8X. [ {.S.S 1 x +.+.+.v +.+.+.v r r r +.",
"r x +.r +.x r +.+.r x 8 A.>X(./.^ 2 B r a j.- Q ( D.9.z.b G _ E XXCXaXzXkXkXzXlXy.O.R rX9X= G /.V.F T @.+.+.r x B r @.Y r +.r r ",
"r r r r r r r r r r Y Z %X:X_./.P r +.r 6 f.g > { Q E N.c.P k , qXCXzXNXmXmXmXmXXX, * qXU.4 K F.P e v +.v x +.+.+.+.r r +.d r r ",
"#.@.@.Y @.+.@.+.r r Y J 3X;X'./...+.$.r +.; a < V.K 0 M.kXrXy.8XMXCXmXnXnXnXnXVXyXp..XyXY.b K } H c r +.@.#.@.@.@.&.@.+.+.@.Y +.",
"&.>.1.&.>.,.1.2.1.1.,.A.<X$X(.(...1.1.3.1.2.4 8 / ~ f U.bXNXVXNXnXnXnXnXnXnXnXBXNXVXVXBXU.f G C.H U $.+.@.$.@.&.#.@.+.@.@.Y +.v ",
"-.=.&.1.1.2.1.2.1.-.T %X:X(._./.` 1.2.1.4.2.4.1.J ' 8 c.gXNXBXnXnXmXNXmXnXnXmXnXnXnXMXbXv.y K / j U @.+.+.@.+.+.+.Y +.@.+.+.r r ",
"&.&.1.&.=.&.1.&.&.&.P 1X:X_._.(...3.2.2.5.4.5.5.,.L , 3 v.mXNXmXmXkXpXnXVXNXbXbXmXNXmXP.s 8 ( H > U +.+.+.Y +.r +.+.+.r r r +.r ",
"1.=.&.&.&.1.1.1.1.1.F.<X:X_._./...:.-.1.5.1.-.2.-.I k 8 s L.lXMXCXkXU.aX9XpXkXBXMXzXU.s   P ' Z > 2 x r r r r r M r r r r r r r ",
"@.@.+.+.@.r x +.Y 8 %X>X>X(._./.J >.1.3.1.,.5.5.2.3.F #.2.y 8.L.sXbXbXuXU.P.kXkXuXk.6 X $ D Z > > > T &.&.-.1.-.&.&.&.&.&.&.@.&.",
"0 0 q r 0 w w 9 9 P 2X;X$X_._./.< w.r.7.2.2.4.7.2.4.2.m 8., * g c.b.n.n.n.L.b.m p O . 9 z k > > D A <.0.4.5.5.5.4.4.4.2.1.1.&.1.",
"r r r r r M r r r } <X;X/.'._.Q.< 3.w.4.w.4.4.4.4.0.c.sXU.k.I Q R w f f f t F z @ 6 g 8.f 1 > > ` H <.w.4.4.4.4.7.4.4.w.4.2.2.5.",
"+.+.+.@.+.v M +.8 D.>X>X(.(.(./.< y.0.r.i.a.r.4.0.7.sXCXmXsXn.a.t.A T p.y.D I E N 6 l.x.h n l k ! j z ;.4.1.5.5.2.2.1.1.1.2.1.&.",
"$.$.+.$.@.@.$.+.j =X,X:X(.{.(.V.1 3.4.4.4.4.4.i.2.W K.bXmXNXfXB.n.H.' R D  .{ F N 2 n h x.k.@ k ! / j ;.i.4.4.3.5.3.2.1.2.3.:.&.",
"t r r r r w r r L 1X>X<X].(./.! 1 r r r r +.B @.#.J / J.8XlXmXpXl.0X[.d.T..XW..XT.E f p f.h z k L C.H <.5.4.5.1.2.1.>.1.1.1.=.&.",
"9 r r t r w 0 0 ] <X>X}._.]. X^ 8 w e 0 w w 9 9 r 3.} C.].K.XXe.h K.oXcXxXT.!.oX8X8X$.I _ c l 3 L { D z ,.,.2.1.1.1.>.1.&.&.=.1.",
"r 9 0 w w t r 9 D.,X;X(.'.]./.^ 9 r r q w q 9 4 N 8.f., ) G G G I u.T.qXrXwX+X^.XXtXE G D < , > ! ] ^ Z %.5.2.1.3.5.2.&.1.&.&.&.",
"9 w 0 w 0 9 w 2 =X>X:X_.(.]./.^ 0 r r r w q w 9 d 7.C +   # < 2 , R p.8X7X7X+X6X Xd.T % # X - , ! ] { D <.2.1.2.2.1.1.1.1.1.&.=.",
"0 w q w w 9 0 L <X<X:X_.'.(./.` $.@.+.&.$.M B %.V 7.h % # # # X % I w.w.w.a..X<X[.O.9 X # ; > > ! [ [ S 2 %.&.&.&.@.@.&.&.*.&.#.",
"+.M r d +.Y +.} ;X;X<X_.(.'./...+.@.B B $.$.$.V B V C O # # # $ 1 e.3.$.3.p..X&X1X!.7 X # < Z > S ~ } / Z N r +.+.r +.+.r r r r ",
"@.+.+.@.*.@.+.] >X>X}._._.'./.S @.#.@.+.@.@.+.@.r = 7 # # # O ; <.:.3.T.7X8XT.&X6X}.> X 4 8 j 1 , L ] { S Y +.+.Y +.d r +.+.r r ",
"x r +.+.r Y B ] >X>X(.'._._.).< +.r +.M r Y Y x r 7 O # # O 5 :.e.T.7XwXxX7XQ.&X!.; N q =.I j j , L [ } S l T @.+.+.&.$.@.x +.+.",
"@.B +.r +.+.r [ >X:X_.'.(._./.1 +.+.+.+.+.+.+.r B B 9 9 9 0 ,.w.T.eXrXwXxX8XO.[.=XX.E :.1.F > k > ~ ] [ ~ Z T &.*.&.@.&.$.&.@.@.",
"1.1.1.,.=.&.=.[ >X>X_.[.'.].Q.1 2.4.2.4.3.1.2.4.2.3.1.=.1.-.3.p.rXeXwXeXqXqXT.`..X; <.r.3.1.F > , ! } ] { S %.:.&.1.&.1.1.&.&.&.",
">.2.>.2.1.5.1.] >X:X_.Z.].]./.1 4.4.3.4.5.5.5.5.1.>.1.3.,.J t.8XxXeXwXwXwXxXXX.X$X~ u.R.w.3.I > j S / ` } S ,.1.-.1.1.-.#.&.&.@.",
">.&.&.>.1.1.1.] <X>X).` '._.!.1 4.1.2.2.=.1.1.1.3.>.1.3.%.< ) G.T.wXxXxXwXqX7XO.^.+XrXR.&.3.I > 1 , L [ } Z l %.1.=.&.&.&.&.&.@.",
"=.-.+.&.6.&.*.D #X>X=X] '.]./.P 3.4.2.2.5.1.1.1.3.7.3.>.& # - Q E.o.o.XXxXxXxXT.G XXtXu.J %.I Z > > ~ [ ] ' j $.1.1.,.1.1.&.&.&.",
"=.:.2.2.1.&.-.j | >X:X] [._.(.) >.2.&.=.1.=.1.1.&.:.<.2 # X z S.; ; , ` ~.o.~...* R ~.J # %.,.I > > L [ ' { D T &.&.&.&.@.+.+.@.",
"&.&.1.&.&.&.&.T ] <X:X/ Z._.).` =.&.&.&.&.=.&.&.&.<.J X X # Q. X  o = : - ; - : # = < = X < %.I > > L [ ' [ A %.$.*.@.@.#.+.r r ",
"&.&.*.1.&.&.-.-.S 1X;XD.] [.`.) >.&.&.,.&.=.&.@.&.t.| $ o D.oX; X # $ # # # # o # X   $ J J T I Z > L [ [ ' ` F $.&.&.@.&.x w t ",
"&.&.-.-.=.1.=.:.j $X>X=X` Z._.` 1.1.1.1.1.>.&.&.*.t.F.L |.oXo +     X u       X   < Z.Z.H I :.I > , ' [ D ' [ S U @.*.&.@.r 9 r ",
"1.&.1.1.5.1.1.1.#.V.2X:X~ D [.) 4.1.1.4.2.1.3.2.1.,.H.;X|.F ( {.=X|.X.X. X=X|.[ { ).W.W %.4.y.5.I > Z ' Z L | Z ,.,.=.&.&.Y r r ",
"@.&.&.&.&.&.&.&.-.S #X<XQ.> V.^ 1.&.&.&.-.*.*.&.&.@.,.9.<.$.E ~ V.Q k K C.A.] Z ;.L.9Xv.8.#.*.-.I > > ~ ` S ' ` S Y M d +.r 0 w ",
"w r r r w w 0 t r Y { }.(.L Z ` 2 r Y B +.+.+.B +.+.d d r x Y +.n.uX9Xv.;.T Y b M.I.I.U.8.Y d x Y l > > ` Z ~ [ S e d +.r x r r ",
"r r r r r r r r r v T { {./.P > j &.@.@.@.+.$.+.@.@.@.#.+.@.#.W s.dXlXI.x.x v c ) G.G.W U @.@.r M Y l > ` [ Z ` Z N +.x r r r r ",
"x x r r r r r r +.@.@.T D | {.D.< +.r Y v v @.+.x Y x r Y +.+.q I !.=XG.8 +.r 4 = : : = q +.r w r r N 1 > ~ [ Z ' l r r r q r 0 ",
"r r w r r r @.r r r t r r U H { / 1 r r 0 v r Y r +.x r +.r d q # ; ; # 7 +.d 4 # o < - 9 +.+.+.v d +.Y N l j > j j B r r r w q ",
"5.3.1.2.y.4.5.2.&.1.2.5.4.4.,.,.,.6.5.2.3.2.1.1.1.5.2.5.2.1.@.# # X ) X.9 5.3.M # # # # q +.+.v +.+.B r B e Y r r e r 0 r 0 w 0 ",
"a.0.a.a.a.a.a.i.p.p.i.a.p.p.w.0.p.a.i.a.p.a.p.p.p.a.i.p.a.a.:.# o # = = N 7.+.# # # # # 9 +.+.Y +.B +.@.@.+.+.+.+.v r r r r r r ",
"4.4.4.1.2.4.4.4.w.0.4.y.a.i.i.4.w.w.a.i.w.i.0.a.i.4.r.i.4.$.5 # # # # 0 7.3.r # o X J F # 4 r r r r r +.r B r B r r r r w w w 9 ",
"a.r.4.4.2.w.4.w.i.i.i.a.p.i.y.a.p.r.i.7.4.i.i.7.i.i.2.4.&.# # # # F J r w.y.M # # # # # # 9 Y +.+.+.+.+.Y +.v +.+.Y d x r r w w ",
"4.4.2.4.4.i.i.0.r.4.2.2.0.4.4.0.0.4.4.3.4.i.a.i.a.y.i.a.>.# # # # # # w 0.2.W - # # # # o w +.+.+.+.+.+.B M M r r r r t r 9 w 0 ",
"+.Y +.+.+.+.+.+.+.r r w r Y M +.Y +.+.r +.+.d x v +.+.@.U , # # # # o 4 +.r r 8 , L ] ] D z B +.d r r r +.r r r w w w 9 9 9 w w ",
"+.@.+.M r r r r x +.+.B +.r +.B d r +.+.Y +.Y v v +.v d +.T ` Z.{.'.D.R +.Y +.@.#.+.Y @.+.+.+.x +.M +.+.+.r r M r 0 r 9 0 9 9 9 "
};
