/* XPM */
static char * exit_with_miku_xpm[] = {
"64 64 659 2",
"  	c #24282F",
". 	c #22252C",
"+ 	c #262B33",
"@ 	c #2C323C",
"# 	c #282D36",
"$ 	c #292F39",
"% 	c #24323C",
"& 	c #2E1214",
"* 	c #271815",
"= 	c #252326",
"- 	c #1C2F35",
"; 	c #252631",
"> 	c #172026",
", 	c #271C1D",
"' 	c #2D1517",
") 	c #231F28",
"! 	c #262937",
"~ 	c #242630",
"{ 	c #252832",
"] 	c #1E2229",
"^ 	c #2E3541",
"/ 	c #40282B",
"( 	c #A56770",
"_ 	c #A54C55",
": 	c #1E2126",
"< 	c #29262E",
"[ 	c #35363D",
"} 	c #1A1A1D",
"| 	c #262938",
"1 	c #2A1E1A",
"2 	c #2E1315",
"3 	c #A14B54",
"4 	c #C56770",
"5 	c #2E1215",
"6 	c #C86972",
"7 	c #481319",
"8 	c #1F232A",
"9 	c #3B2620",
"0 	c #522E30",
"a 	c #504F55",
"b 	c #1C1E23",
"c 	c #37404E",
"d 	c #3A4456",
"e 	c #14191D",
"f 	c #3F4044",
"g 	c #532E30",
"h 	c #352926",
"i 	c #131B23",
"j 	c #14161B",
"k 	c #373B46",
"l 	c #7A6A74",
"m 	c #353C4C",
"n 	c #697789",
"o 	c #252731",
"p 	c #778B9A",
"q 	c #BD8C68",
"r 	c #43455C",
"s 	c #252A32",
"t 	c #282D35",
"u 	c #3A323C",
"v 	c #303642",
"w 	c #262A32",
"x 	c #272A32",
"y 	c #161416",
"z 	c #2B211B",
"A 	c #828289",
"B 	c #252930",
"C 	c #34333B",
"D 	c #493843",
"E 	c #573947",
"F 	c #262A33",
"G 	c #23262D",
"H 	c #181A20",
"I 	c #4F4E54",
"J 	c #6C8497",
"K 	c #23272F",
"L 	c #352D37",
"M 	c #744556",
"N 	c #83495C",
"O 	c #44323D",
"P 	c #2B262D",
"Q 	c #1D1F24",
"R 	c #181B22",
"S 	c #231C1B",
"T 	c #3C3E42",
"U 	c #191E23",
"V 	c #28262D",
"W 	c #202329",
"X 	c #21252C",
"Y 	c #63404E",
"Z 	c #23252E",
"` 	c #272D36",
" .	c #4B4B53",
"..	c #6F8290",
"+.	c #202429",
"@.	c #191E24",
"#.	c #23272D",
"$.	c #292F37",
"%.	c #292E37",
"&.	c #2A2F39",
"*.	c #272D34",
"=.	c #272C35",
"-.	c #768A99",
";.	c #393B3F",
">.	c #21242B",
",.	c #332C34",
"'.	c #452E3B",
").	c #2F2A32",
"!.	c #282C35",
"~.	c #24282E",
"{.	c #643D4D",
"].	c #17181C",
"^.	c #313743",
"/.	c #394754",
"(.	c #4A5D62",
"_.	c #4C6165",
":.	c #53656A",
"<.	c #44545B",
"[.	c #3D4B52",
"}.	c #3D3A45",
"|.	c #2B313B",
"1.	c #242930",
"2.	c #808087",
"3.	c #2A2F33",
"4.	c #303036",
"5.	c #2D3440",
"6.	c #242830",
"7.	c #1F282B",
"8.	c #30242E",
"9.	c #323A45",
"0.	c #4A5B5E",
"a.	c #5B7475",
"b.	c #66817E",
"c.	c #698886",
"d.	c #73918E",
"e.	c #749592",
"f.	c #5E7B7A",
"g.	c #536A6C",
"h.	c #465A5D",
"i.	c #3B3943",
"j.	c #6D6E74",
"k.	c #2F3138",
"l.	c #39323B",
"m.	c #2E3440",
"n.	c #354049",
"o.	c #39434E",
"p.	c #425256",
"q.	c #64797A",
"r.	c #89AAA5",
"s.	c #8AB3AD",
"t.	c #8BB7B0",
"u.	c #91BCB5",
"v.	c #94C3BB",
"w.	c #83ABA5",
"x.	c #799B97",
"y.	c #384346",
"z.	c #2E353B",
"A.	c #56565C",
"B.	c #574B54",
"C.	c #638382",
"D.	c #7BA9A3",
"E.	c #96BAB5",
"F.	c #97C8C1",
"G.	c #9BCAC2",
"H.	c #A4CBC5",
"I.	c #586D71",
"J.	c #6A4755",
"K.	c #33323B",
"L.	c #2E3540",
"M.	c #171C21",
"N.	c #3C4A4D",
"O.	c #748988",
"P.	c #7B8E8D",
"Q.	c #76666D",
"R.	c #6F535C",
"S.	c #79767A",
"T.	c #888C91",
"U.	c #99C5BE",
"V.	c #7C928E",
"W.	c #746B72",
"X.	c #333A48",
"Y.	c #3D261E",
"Z.	c #432B1C",
"`.	c #48311F",
" +	c #422B1D",
".+	c #333435",
"++	c #94CCC4",
"@+	c #8F7B84",
"#+	c #8C7078",
"$+	c #98B2AD",
"%+	c #97C8BF",
"&+	c #696367",
"*+	c #292D36",
"=+	c #272D37",
"-+	c #4B3322",
";+	c #8F674B",
">+	c #B47D53",
",+	c #AC754D",
"'+	c #A9744C",
")+	c #A9734C",
"!+	c #4B454B",
"~+	c #83B8AF",
"{+	c #7BA29D",
"]+	c #8DC2B9",
"^+	c #ABC3BD",
"/+	c #425A60",
"(+	c #252327",
"_+	c #151314",
":+	c #6F4935",
"<+	c #C5926C",
"[+	c #BC8359",
"}+	c #8C5B43",
"|+	c #91623E",
"1+	c #9E6A44",
"2+	c #A67047",
"3+	c #A26D46",
"4+	c #8E603E",
"5+	c #75BDB4",
"6+	c #6DB4A9",
"7+	c #57938D",
"8+	c #526F6F",
"9+	c #545B61",
"0+	c #959899",
"a+	c #98A9A6",
"b+	c #88C1B7",
"c+	c #B1D2CD",
"d+	c #6E564A",
"e+	c #754D39",
"f+	c #1B1719",
"g+	c #21262C",
"h+	c #AE7A55",
"i+	c #855742",
"j+	c #353029",
"k+	c #362519",
"l+	c #2C2524",
"m+	c #5AB3A8",
"n+	c #579C95",
"o+	c #488A84",
"p+	c #6F5A65",
"q+	c #9C9B9A",
"r+	c #646D71",
"s+	c #715C55",
"t+	c #C3916B",
"u+	c #7C513B",
"v+	c #462D22",
"w+	c #6D7194",
"x+	c #5E6483",
"y+	c #6E7399",
"z+	c #646888",
"A+	c #4C506B",
"B+	c #48516B",
"C+	c #64B1A6",
"D+	c #56ADA2",
"E+	c #588783",
"F+	c #8BBCB4",
"G+	c #685951",
"H+	c #BB8B67",
"I+	c #231E27",
"J+	c #120E0E",
"K+	c #85563A",
"L+	c #575B77",
"M+	c #7E82A6",
"N+	c #4A4B5A",
"O+	c #333437",
"P+	c #434E54",
"Q+	c #75B7AC",
"R+	c #55817E",
"S+	c #73847F",
"T+	c #879897",
"U+	c #7CB5AC",
"V+	c #C2885B",
"W+	c #14110F",
"X+	c #0E0F14",
"Y+	c #7C4F3A",
"Z+	c #AF7750",
"`+	c #593A21",
" @	c #262B42",
".@	c #676D91",
"+@	c #55576A",
"@@	c #767883",
"#@	c #B2A284",
"$@	c #6E8F90",
"%@	c #74B4AA",
"&@	c #5CADA2",
"*@	c #7CB9AF",
"=@	c #7EBBB1",
"-@	c #83B4AC",
";@	c #84BBB2",
">@	c #958789",
",@	c #4F5E61",
"'@	c #C0875B",
")@	c #656A8B",
"!@	c #65676C",
"~@	c #D0D2E2",
"{@	c #CED4EC",
"]@	c #B19E80",
"^@	c #658D8A",
"/@	c #7BABA4",
"(@	c #87A49E",
"_@	c #5B5B59",
":@	c #C2885C",
"<@	c #2D333E",
"[@	c #583A22",
"}@	c #6A6F93",
"|@	c #161415",
"1@	c #ABAFC1",
"2@	c #C6C9DB",
"3@	c #C4C9E1",
"4@	c #BBA785",
"5@	c #749A96",
"6@	c #74A39C",
"7@	c #5D5750",
"8@	c #C3895C",
"9@	c #AE7750",
"0@	c #573A24",
"a@	c #2E3449",
"b@	c #777984",
"c@	c #C4C5D2",
"d@	c #C2C3D0",
"e@	c #C3C8E0",
"f@	c #BCA887",
"g@	c #73ABA3",
"h@	c #6BB1A7",
"i@	c #5F5349",
"j@	c #C4895C",
"k@	c #313442",
"l@	c #3B4255",
"m@	c #AD7650",
"n@	c #573A25",
"o@	c #9596A4",
"p@	c #CCCEDE",
"q@	c #C1C2CF",
"r@	c #C5CAE2",
"s@	c #B8A484",
"t@	c #6CACA3",
"u@	c #98A19E",
"v@	c #A4A4A3",
"w@	c #5F4B3E",
"x@	c #191413",
"y@	c #363A51",
"z@	c #AB7550",
"A@	c #583A24",
"B@	c #93949D",
"C@	c #C3C4D1",
"D@	c #C1C6DE",
"E@	c #65ADA3",
"F@	c #B2B1AF",
"G@	c #B7A9A6",
"H@	c #C6C2BE",
"I@	c #5C4E45",
"J@	c #C3885C",
"K@	c #8F613E",
"L@	c #AC7550",
"M@	c #593A22",
"N@	c #D1D3E3",
"O@	c #B5A283",
"P@	c #6C9A95",
"Q@	c #59A79D",
"R@	c #64A59C",
"S@	c #A39A98",
"T@	c #57534F",
"U@	c #BB835A",
"V@	c #7B513B",
"W@	c #AA744D",
"X@	c #B09E80",
"Y@	c #87807E",
"Z@	c #A3908F",
"`@	c #A8B1AD",
" #	c #C5BBB9",
".#	c #A47657",
"+#	c #151415",
"@#	c #7B4F3A",
"##	c #B37C53",
"$#	c #CFD1E1",
"%#	c #BFC4DC",
"&#	c #9A8E76",
"*#	c #46948B",
"=#	c #4B7978",
"-#	c #587575",
";#	c #65938D",
">#	c #68A59C",
",#	c #ACA09E",
"'#	c #9E765C",
")#	c #8C5F3E",
"!#	c #1B181A",
"~#	c #92939C",
"{#	c #A9AEC4",
"]#	c #5E6362",
"^#	c #499D94",
"/#	c #47837E",
"(#	c #6D928E",
"_#	c #878989",
":#	c #BBC1BE",
"<#	c #7F756C",
"[#	c #735544",
"}#	c #151315",
"|#	c #C0C1CE",
"1#	c #868B9D",
"2#	c #6EBEB1",
"3#	c #49696B",
"4#	c #414D53",
"5#	c #4B4B54",
"6#	c #A7A9A7",
"7#	c #E6DAD6",
"8#	c #D5D2CF",
"9#	c #6BA59D",
"0#	c #4E5454",
"a#	c #B3B5C1",
"b#	c #555F6E",
"c#	c #64B6AB",
"d#	c #649B94",
"e#	c #C9D3CE",
"f#	c #F1EBE6",
"g#	c #F1EFEA",
"h#	c #D3D4D3",
"i#	c #B7B7B6",
"j#	c #56A49B",
"k#	c #A1A2AE",
"l#	c #4C434B",
"m#	c #DBDAD6",
"n#	c #F4F3ED",
"o#	c #FAF4ED",
"p#	c #EDEBE5",
"q#	c #DBDCDC",
"r#	c #B6CBC7",
"s#	c #745F55",
"t#	c #735B4E",
"u#	c #AA744F",
"v#	c #C1C3D2",
"w#	c #525864",
"x#	c #DCE2DD",
"y#	c #E6E8E4",
"z#	c #9B6E4F",
"A#	c #8B5F3E",
"B#	c #171618",
"C#	c #764C3B",
"D#	c #AE7650",
"E#	c #91929B",
"F#	c #838591",
"G#	c #3C5659",
"H#	c #343D4B",
"I#	c #48444A",
"J#	c #566568",
"K#	c #EDEDE9",
"L#	c #2B3136",
"M#	c #AB7752",
"N#	c #16191F",
"O#	c #262732",
"P#	c #74767E",
"Q#	c #3B4551",
"R#	c #C9DAD7",
"S#	c #E3E5E4",
"T#	c #D5D9D9",
"U#	c #CDD3D1",
"V#	c #553B2A",
"W#	c #363F4D",
"X#	c #15171C",
"Y#	c #2E3448",
"Z#	c #2E333F",
"`#	c #2F3946",
" $	c #E8E3DE",
".$	c #DAD6D3",
"+$	c #47A599",
"@$	c #41575E",
"#$	c #38404E",
"$$	c #634226",
"%$	c #C1865A",
"&$	c #976446",
"*$	c #363A45",
"=$	c #4D362B",
"-$	c #272C36",
";$	c #504247",
">$	c #514449",
",$	c #EBE6E1",
"'$	c #4BAEA3",
")$	c #4C5E65",
"!$	c #353C4B",
"~$	c #654329",
"{$	c #7A4E3A",
"]$	c #98694B",
"^$	c #2E393D",
"/$	c #DDC0BD",
"($	c #D9BBB7",
"_$	c #E0C2BE",
":$	c #E3C9C5",
"<$	c #FAF9F2",
"[$	c #475C65",
"}$	c #2B3C4A",
"|$	c #131010",
"1$	c #644437",
"2$	c #483F42",
"3$	c #699692",
"4$	c #3D7E84",
"5$	c #3E7F86",
"6$	c #3F7E85",
"7$	c #CAA29E",
"8$	c #CD8A8B",
"9$	c #D09B99",
"0$	c #D4A5A2",
"a$	c #19191D",
"b$	c #39454B",
"c$	c #4E4D47",
"d$	c #4CAEB4",
"e$	c #4EB4BA",
"f$	c #4DB2B8",
"g$	c #408D93",
"h$	c #36AA9C",
"i$	c #343B4B",
"j$	c #191A1D",
"k$	c #252831",
"l$	c #8E7F4F",
"m$	c #4EB5BB",
"n$	c #469EA3",
"o$	c #CBC6C3",
"p$	c #37424B",
"q$	c #363A50",
"r$	c #323B3E",
"s$	c #AF9A50",
"t$	c #D0CFD1",
"u$	c #364245",
"v$	c #B6A051",
"w$	c #377176",
"x$	c #3F9C91",
"y$	c #444D57",
"z$	c #5C544F",
"A$	c #BAA352",
"B$	c #4BACB2",
"C$	c #404656",
"D$	c #6B4627",
"E$	c #917243",
"F$	c #BBA452",
"G$	c #3B737A",
"H$	c #9B9EA1",
"I$	c #B3B3B3",
"J$	c #C7AAA7",
"K$	c #396765",
"L$	c #404752",
"M$	c #644226",
"N$	c #997B49",
"O$	c #C7A84F",
"P$	c #4FB9C0",
"Q$	c #51B8BF",
"R$	c #C4C4C4",
"S$	c #CCCCCB",
"T$	c #D4CCC9",
"U$	c #433D31",
"V$	c #503A2E",
"W$	c #234B4E",
"X$	c #27494D",
"Y$	c #BDC5C4",
"Z$	c #C5BFC1",
"`$	c #CCCFD0",
" %	c #E0DEE0",
".%	c #BCBCBC",
"+%	c #3D4651",
"@%	c #323742",
"#%	c #444862",
"$%	c #494B59",
"%%	c #434655",
"&%	c #ACACAC",
"*%	c #384048",
"=%	c #B97F53",
"-%	c #2A2D33",
";%	c #2A2932",
">%	c #252732",
",%	c #2C2D37",
"'%	c #C7C9C8",
")%	c #303436",
"!%	c #664434",
"~%	c #734A34",
"{%	c #66463C",
"]%	c #A7B8B5",
"^%	c #825B43",
"/%	c #6E544C",
"(%	c #6A493D",
"_%	c #68463A",
":%	c #966644",
"<%	c #A16D46",
"[%	c #A06C46",
"}%	c #7A5949",
"|%	c #A1714E",
"1%	c #434143",
"2%	c #654332",
"3%	c #915F48",
"4%	c #8A5C41",
"5%	c #9B6B4A",
"6%	c #A77350",
"7%	c #6D5248",
"8%	c #B37E57",
"9%	c #2E373B",
"0%	c #12171B",
"a%	c #4D3728",
"b%	c #392D2A",
"c%	c #473427",
"d%	c #49342A",
"e%	c #463630",
"f%	c #32353F",
"g%	c #445053",
"h%	c #573A22",
"i%	c #0D1115",
"j%	c #374346",
"k%	c #12171E",
"l%	c #22292C",
"m%	c #222329",
"n%	c #2A2120",
"o%	c #36251A",
"p%	c #2A1E1B",
"q%	c #352D2E",
"r%	c #DDE2E3",
"s%	c #3B464B",
"t%	c #0F151C",
"u%	c #1F2228",
"v%	c #353E4B",
"w%	c #38434E",
"x%	c #4F3C38",
"y%	c #684533",
"z%	c #694532",
"A%	c #5A4135",
"B%	c #E5EAEA",
"C%	c #CDE1DF",
"D%	c #313B3E",
"E%	c #364144",
"F%	c #222B2F",
"G%	c #1B1B1E",
"H%	c #384350",
"I%	c #292E39",
"J%	c #171518",
"K%	c #141113",
"L%	c #252D30",
"M%	c #47B1A5",
"N%	c #2C3338",
"O%	c #37404C",
"P%	c #20262D",
"Q%	c #4D516C",
"R%	c #252538",
"S%	c #171A20",
"T%	c #2D3438",
"U%	c #292F38",
"V%	c #303845",
"W%	c #23272E",
"X%	c #2B323C",
"Y%	c #252931",
"Z%	c #252A30",
"`%	c #2D333D",
" &	c #2D353D",
".&	c #384E52",
"+&	c #161D26",
"@&	c #5D617D",
"#&	c #1B1C1F",
"$&	c #272B34",
"%&	c #24262F",
"&&	c #40424F",
"*&	c #15171D",
"=&	c #232630",
"-&	c #262833",
";&	c #0D0F12",
">&	c #181719",
",&	c #1A191C",
"'&	c #0B0D0F",
"  . . . + @ # @ # # # @ @ @ @ @ $ $ $ $ # % # #   & * = -     # @ # @ # # # # # ; + + + + . > . @ # @ # # # # # + , ' ) ! ; ~ { ",
". . . ] # ^ @ @ @ @ @ @ @ # # # # # # + #   $ > / ( _ & : < . # ^ [ ^ @ @ @ @ @ @ @ # # # . }   # # # # + | # > / ( _ 1 > ; .   ",
". . . : # ^ ^ @ @ @ @ @ $ @ % # # # # # # + # > 2 3 4 5 > - . + #   +               ^ ^ ^   } . # # # # + + % > & _ 6 7 >     ] ",
". . . : # ^ @ @ @ @ @ @ @ $ $ $ # # # # + + # 8 ) 9 0 a b .   ] : : : > : b b > } : c c d @ e   % # # + | $ . > f & g h :       ",
". ] . : # ^ @ ^ @ @ @ @ $ $ $ $ $ # # # + # + + = i j k l ] . . ] : : = : : b b > : m c c @ e ] # # # # #   > n @ e e ] + . . . ",
". . . : # @ ^ @ @ @ @ $ $ $ $ $ # # # # # + + + o # + b a p } b . : : : : b : b } : k c c # }   @ # + #   . q r : # #   .   ]   ",
". = ] : # ^ @ ^ @ @ @ @ $ @ $ $ # # # + # - s t u v w x y a l z : : : : : b b b } : c c d # } . # # # .   A k > #   ] +   .   . ",
". . ] . # @ @ @ @ @ @ @ $ $ $ $ # # # # # B C D E E u F G H I J b : . b : : : b > : k c c # e   # @ - < A f : + + + + +   .     ",
"% # $ # % # # # # # + + +     #       B K L E M N M O P b Q R I l + + S . $ # + + + # + + +       : < A T U F V W + ^ @ @ @ @ @ ",
"@ @ @ $ # # # # + # # + + -           X u D Y M N M O P b b Z `  ...+.@.#.$ $.%.&.*.=.+ +     + ] z -.;.>.,.O '.).!.^ @ ^ @ @ @ ",
"@ $ $ $ # # # # # # + + +         ~.G w E Y E O {.{.'.P ].].. ^./.(.(.(._._.:.:.(.<.[.}.|.F 1.= < 2.3.F L E M {.O 4.5.@ @ @ @ @ ",
"@ $ $ @ # @ # # + + + + + #   + 6.  7.4.{.Y u L E E '.8.b : 9.0.a.b.c.d.e.e.e.e.d.c.f.g.h.[.i.w j.k.4.O O Y N N E l.m.@ ^ @ @ @ ",
"@ $ $ $ $ # # # # + +   +     + n.o.9.}.E E L L E {.'.,.^.p.q.e.r.s.t.u.u.u.v.u.u.t.s.w.x.d.b.:.y.C E E D E M M E v ^ ^ @ @ @ @ ",
"$ @ $ $ # # $ @ $ $ $ + # # # z.(.a.g.A.{.E 8.8.E {.B.A.g.C.D.t.E.F.G.G.G.G.G.G.G.H.H.F.v.t.r.d.I.A.J.Y O O Y M E K.L.@ ^ @ @ @ ",
"@ $ @ $ # @ - i > > > > i > M.N.O.w.D.P.Q.{.8.8.E R.S.T.w.t.u.v.U.v.F.F.F.F.F.F.G.F.G.U.v.v.v.u.w.V.W.Y 8.P {.{.D L X.@ @ @ @ @ ",
"$ $ $ $ # e z Y.Z.Y.Y.`.Y. +.+(.D.F.++s.@+A.}.L E #+T.$+F.++F.U.U.u.u.U.u.u.u.v.%+F.G.U.v.v.F.G.G.$+T.&+*+8.E {.D L =+@ ^ @ @ @ ",
"      ] S -+;+>+,+,+,+'+'+)+!+a.s.G.++~+{+b.<.D R.@+T.$+U.F.U.U.%+%+U.v.u.]+v.v.%+%+H.^+v.]+v.v.%+U.$+e./+D {.{.D C F (++     G ",
". ] ] _+:+<+[+}+|+1+2+3+2+4+(.c.u.G.F.5+6+7+8+9+Q.@+0+a+U.F.v.v.H.^+U.v.t.b+b+v.%+%+c+%+v.v.s.]+U.F.G.s.b.9+J.M A.D d+e+f+  . g+",
". . : z q h+i+j+f+z * * k+l+I.x.F.H.++6+m+n+o+I.p+#+q+E.G.G.v.v.%+H.v.]+b+t.b+b+%+%+U.U.v.$+b+b+]+U.G.E.w.P.#+#+S.r+s+t+S ]   . ",
": ] _+u+h+i+v+r w+x+y+z+A+B+C.r.H.G.5+C+m+D+E+r+r+@+a+U.G.F.u.F+v.v.v.b+~+~+b+~+v.%+v.v.]+]+b+b+]+U.U.U.u.0+@+@+0+O.G+H+}+_+. . ",
"] I+J+K+'+-+^ L+n M+L+N+O+P+c.s.F.++Q+m+m+D+R+a.S+T+u.%+U.]+b+~+b+b+b+~+b+U+b+b+]+]+]+v.]+s.~+b+F+v.u.v.v.r.@+@+0+P.0.V+|+W+. : ",
"+ ; X+Y+Z+`+ @.@+@r [ @@#@/+$@t.F.F.%@&@m+n+R+C.{+s.v.v.]+F+~+U+*@*@*@U+U+=@-@b+b+b+]+]+]+b+%@U+;@F+F+F+]+$+>@@+0+V.,@'@|+_+# # ",
"^ ^ _+Y+Z+`+^ )@c !@~@{@]@(.$@F+u.;@6+D+D+n+^@$@s.]+v.]+F+~+%@%@*@=@Q+Q+U+U+U+=@b+~+t.]+]+s./@%@*@;@;@F+]+t.T+T+(@P._@:@|+e ^ @ ",
"<@^ _+K+Z+[@ @}@|@1@2@3@4@(.e.F+F+5+&@D+n+n+5@{+F+v.]+]+;@~+%@6+*@U+%@6@/@U+U+U+U+b+b+s.b+s.w./@U+*@;@;@b+t.r.r.r.x.7@8@|+f+^ @ ",
"m m _+u+9@0@a@m b@c@d@e@f@(.e.t.F+Q+&@D+&@g@/@t.F+F.F+F+*@%@6+h@6+/@(@(@/@g@%@%@Q+=@b+b+w.(@(@(@/@%@U+~+t.;@s.s.u.x.i@j@}+_+$ k@",
"c l@_+u+m@n@a@I+o@p@q@r@s@(.5@t.;@*@&@D+t@%@~+u.F+u.F.F+*@6+h@t@t@(@u@u@(@g@/@/@Q+Q+U+*@-@$+v@v@U+h@h@Q+;@F+F+F+u.x.w@j@|+x@# k@",
"y@c _+u+z@A@a@; B@~@C@D@s@(.e.F+~+%@E@E@6+%@D./@;@]+F+F+U+h@C+C+/@u@F@G@a+(@-@U+6+6+U+*@b+v.H@H@r.t@C+6+~+;@F+F+F+x.I@J@K@_+$ ^ ",
"c c _+u+L@M@a@; B@N@C@3@O@_.5@F+U+%@E@E@t@t@P@6@-@]+]+F+U+6+Q@R@(@S@G@G@u@(@r./@h@C+6+*@s.^+H@H@$+{+E@C+*@s.t.F+F+x.T@U@K@_+@ ^ ",
"c c j V@W@`+a@; B@~@c@3@X@I.{+F+U+6+&@n+n+7+^@5@~+u.u.;@Q+C+R@P@Y@Y@Z@S@q+u@u@w.t@E@6+U+w.`@ # #`@w.C+m+%@*@~+;@;@{+g..#|+_+$ [ ",
"c c +#@###`+a@; B@$#c@%#&#r+w.b+*@C+D+*#=#-#C.5@;@]+u.~+%@t@;#d.S@Z@Z@Z@S@v@`@`@/@>#h@g@a+,#G@G@,#u@>#E@t@%@s.s.t.D.f.'#)#_+$ ^ ",
"c c !#Y+,+`+a@; ~#N@d@{#]#q.w.]+5+&@^#/#/+(.q.e.-@]+F+-@6@(#S+_#F@:#,#S@v@F@H@H@(@6@t@/@$+G@,#Z@>@_#5@>#>#h@U+s.s./@e.<#[#_+$ ^ ",
"m c }#u+Z+`+a@; B@N@|#1#:.c.-@b+2#D+o+3#4#5#r+x.~+F+F+U+D.T+_#Z@G@F@u@(@6#H@7#8#:#s./@s.`@6#u@_##+Y@V.9#Q@E@U+s.w.{+$@a.0#_+% ^ ",
"@ ^ _+u+>+`+a@; B@N@a#b#a.5@~+b+c#n+/#(.5#5#q.d./@b+Q+-@s.6#G@6#6#(@b.d#^+e#f#g#h#:#^+E.i#$+d.b.Y@Y@_#>#j#&@*@s.{+S+I._.(.+#^ ^ ",
"^ ^ _+Y+Z+[@a@; B@~@k#<.c.w.;@=@c#n+=#/+l#B.r+(#U+b+Q+U+$+^+H@H@a+P@R+d#^+m#n#o#p#q#e#r#:#$+;#^@0+q+V.;#n+&@*@-@x.R+<.s#t#|@^ ^ ",
"@ ^ }#@#u#M@a@; B@v#w#(.e.-@F+;@c#7+3#/.l#A.r+d.~+=@h@t@]+:#x#m#^+-@6@s.e#y#n#n#p#p#p#x#r#$+6@(@:#:#V.7+j#&@Q+/@(#8+y.z#A#_+k@@ ",
"k@k B#C#D#`+a@; E#F#<.f.{+F+;@*@&@/#G#H#I#B.J#O.~+=@>#d#-@^+x#y#H@%+v.^+x#g#g#g#n#n#o#K#e#^+E.^+8#H@V.R+n+&@Q+t@b.h.L#M#K@_++ k ",
"c c N#@#Z+`+^ O#P#Q#I.e.w.F+F+%@7+3#/.^ I#5#9+S+-@=@d#R+d.u@R#p#x#m#e#R#y#n#n#n#o#n#n#g#S#T#U#h#8#:#(#/#n+D+C+d#8+y.V#V+|+J+> W#",
"c c X#Y+Z+M@Y#Z#H#(.^@/@-@~+=@t@=#/+`#^.}.I#A.q.-@U+d#R+b.u@e# $n#f# $ $p#g#p#p#f#f#n#K#K#p#p# $.$i#^@/#+$D+m+7+@$#$$$%$&$J+> *$",
"m m f+Y+D#=$-$9.0.f.g@U+U+-@U+P@3#/.`#`#I#;$>$r+(@*@R@b.S+S@H@ $p#p#f#g#f#,$7#7#7#7# $ $p#n#n#p#7#i#;#/#^#'$Q@7+)$!$~$j@K@W+# *$",
"@ @ _+{$]$$ ^$N.I.$@g@*@-@U+g@E+/+H#`#H#u D ;$&+{+U+R@d#V.u@H@ $p#n#o#o#f#7#/$($($_$:$7# $n#<$n#8#`@d#*#+$'$n+R+[$m ~$j@K@f+}$@ ",
": : |$1$2$[.<.:.b.3$t@%@~+/@$@-#/.4$5$6$^.u D A.V./@6@d#3$(@r# $f#o#<$o#f#:$7$8$8$9$0$/$7#o#<$f#H@r.n+*#+$Q@n+R+[.m ~$j@|+W+: : ",
": > a$*+b$h.J#f.^@P@9#%@=@/@E+(.c$d$e$f$g$P *+I#b.6@6@d#7+P@^+e#7#7#m#m#_$/$9$8$8$8$0$/$,$n#g#h#`@5@^#h$'$Q@3$-#b$i$~$j@&$J+: b ",
"j$: k$y.<.:.:.f.;#>#g@Q+U+6@-#<.l$m$m$m$n$. b 4.g.(#{+P@R+R+d#(@^+F@u@q+F@H@0$0$9$0$_$7#n#p#o$v@d./#^#'$m+>#3$-#p$q$~$%$K@W+: : ",
":   r$N.(.g.a.C.j#t@%@U+%@P@g./.s$m$m$m$n$. . @ h.b.e.(#R+8+=#b.Y@Y@Q.W.,#H@:$:$_$_$7# $,$t$S@O.R+/#+$'$c#6@5@a.p$a@~$%$K@W+: b ",
"y.y.u$N.<.I.7+R@R@t@*@U+5@E+(./.v$m$m$m$w$F ^.[._.f.(#O.I.9+9+9+&+&+R.#+,#_$ $f#,$ $ $x#:#u@q.g.*#^#x$'$6+/@5@a.y$m ~$j@K@W+: : ",
"N.b$y.4#(.C.d#h@h@g@/@6@^@a./+z$A$m$m$B$F L#p.g.f.C.d.O.S+W.W.W.S.W.#+#+G@/$7#p#f#,$8#H@6#P.g.3#/#*#^#D+%@-@5@a.C$}$D$[+|+W+: > ",
"L#L#}.(.^@9#&@E@*@U+P@C.-#(.[.E$F$m$f$G$  r$_.b.e.T+T+T+H$H$6#I$ # #J$7$7$0$/$_$7#8#`@u@u@T+c.=#K$K$*#R@*@-@(#J#L$!$M$j@K@W+: : ",
"L#y./+a.R@c#C+C+*@6@a.(.(.<.p$N$O$P$Q$9.r$p.b.(@a+a+0+a+I$R$S$t$m#m#.$/$0$7$G@H@8#T$6#0+0+(@V.f.K$K$/#E@*@{+c._.L#m D$j@K@W+: : ",
"h._.^@>#&@C+Q+U+6@b.p.^$N.p.r$U$V$W$X$/./+C.a+:#Y$i#v@v@Z$`$`$S$`$`$ %T# #J$G@Z$q#T#.%v@q+0+T+S.p.G#7+h@g@5@b.p.+%a@~$%$}+W+  . ",
"b.^@t@Q+C+h@*@6@R+p.L#  y.y.L#@%#%$%%%D :.e.Y$q#q#R$&%6#R$h#T#t$Y$Z$q#t$I$H$H$I$h#q#R$F@q+0+q+_#J#8+d#t@P@S+g.p.*%j+1+=%|+_+  . ",
"6@9#t@6+*@*@6@b.y.L#L#^$u$r$L#-%;%>%,%H#:.T+`$K#K#.$I$F@'%T#q#T#t$`$t$Y$a+5@5@r.Y$t$ #&%0+0+6#v@V.(#t@t@b.R+_.p.)%1+=%>+K@_+  . ",
"5+Q+6+6+U+6@b.p.7.].4.u$u$^$F !%~%~%{%/.I.0+T#<$n# %.%F@'%.$S#q#t$Z$Z$]%{+n+n+g@]%Z$.%&%0+S@I$i#a+r.U+9#b.J#0.p.^%>+>+>+z :   . ",
"%@*@=@U+x.R+/%(%_%: u$N.L#7.L#:%<%[%}%/.q.6#x#<$g#q#i#I$'%h#.$h#'%.%I$a+9#j#+$j#a+I$I$G@H$v@i# #^+v.b+d#8+h.A.p.|%[+[+K+f+    . ",
"U+U+~+x.-#1%2%3%4%  N.N.7.7.  5%D#6%7%/.O.i# $<$n#q#H@i#H@U#T#`$Y$I$I$&%D.D++$j#$+I$i#I$&%F@Z$S$:#^+b+d#_.4#p.4#8%&$D$z ]   . . ",
"b+-@P@a.9%0%S Z.a%r$N.N.  ].b%c%d%e%f%4#T.Z$p#<$o#y#8#R$'%8#T#h#.%.%Z$Y$H.%@^#n+$+Z$Z$Z$.%R$T$h#R#^+b+b.p.y.p.g%h%h i%-       ] ",
"6@P@8+j%#.  b k%l%N.G#y.  m%n%o%p%q%^ 9+H$t$K#<$o#K#8#'%'%8#r%q#Y$Z$h#T#c+b+D+j#^+S$S$S$R$'%8#8#e#^+w.R+N.r$p.s%t%] # .     . . ",
"-#0.  u%k m v%w%_._.p.p$^$x%y%z%z%A%H#J#I$S#n#<$o#,$Z$Z$`$t$r% %r%r%B%r%C%++'$'$F.`$t$S$r#r#S$S$H@`@{+-#u$L#N.D%+ . ] : : : : : ",
"E%F%G%> c W#H%/+8+_./.9.I%J%_+W+K%L%p$S.R$g#n#n#o#K#Z$Z$t$T#r%B%B%B%B%B%r%c+m+M%b+c+T#T#c+c+`$o$i#u@d.8+^$. }.N%: : : = : : : : ",
"w       5.O%_.g._.[.9.@ P%r Q%R%S%@ 5#O.o$,$y#,$n#,$Z$Z$t$T#r% %B%B%B%B%B%c+c#M%c#++R# %R#C%T#t$:#v@O.3#L#. T%w .   + + + +     ",
"U%@ @ @ V%[.g.3#p.u$L#W%X%L+$ X#Y%@ B.#+6# #i# #Z$Z$i#Z$t$T#T# %r%B%B%r%B%R#5+M%'$5+R#r%r%r%r%T#H@6#c.h.  . Z%G : + ^ ^ @ @ @ @ ",
"|.`% &.&_._.h.[.r$$ K +&@&$ j ; *+u l#A.&+W.W.W.@+T.,#.%t$t$t$t$r%r%r%B%B%C%++M%h$m+c+r%B%B%B% %U#]%S+p.F #&  : . + ^ @ @ ^ @ @ ",
"b$N.<.0._.h.N.^$$&%&G N+@ x@# o 4.r$I#l#l#D l#l#{.r+0+.%`$`$Y$Y$`$t$`$t$ %R#++c#h$M%++R#r%S#q#R#Y$a+q.N.&&: . . = # ^ ^ @ @ @ @ ",
"_._.(.0./.9.@ $ =.. *&@ e + ; >%C }.l#>$>$>$>$>$>$&+q+Z$`$Y$I$I$.%.%.%Y$Y$Y$E.m+h$h$;@H.U#t$'%I$u@S.A.r$%.j > . : + ^ @ @ @ @ @ ",
"g.g.:.<.}.F . =&=.-&;&>&+ ; W%*+r$D E >$>$>$>$l#E p+H$.%Z$.%]%&%&%]%&%&%.%.%E.c#h$h$5+H.'%R$i#v@>@&+I#L#,&'&.   : + ^ @ k@@ @ @ "};
