/* XPM */
static char *floor1677153726[] = {
/* columns rows colors chars-per-pixel */
"64 64 65 1 ",
"  c #2A2A2A",
". c gray17",
"X c #2D2D2D",
"o c gray18",
"O c #2F2F2F",
"+ c gray19",
"@ c #313131",
"# c #323232",
"$ c gray20",
"% c #343434",
"& c #353535",
"* c gray21",
"= c #373737",
"- c gray22",
"; c #393939",
": c #3A3A3A",
"> c gray23",
", c #3C3C3C",
"< c gray24",
"1 c #3E3E3E",
"2 c #3F3F3F",
"3 c gray25",
"4 c #414141",
"5 c gray26",
"6 c #434343",
"7 c #444444",
"8 c gray27",
"9 c #464646",
"0 c gray28",
"q c #484848",
"w c #494949",
"e c gray29",
"r c #4B4B4B",
"t c #4C4C4C",
"y c gray30",
"u c #4E4E4E",
"i c gray31",
"p c #505050",
"a c #515151",
"s c gray32",
"d c #535353",
"f c gray33",
"g c #555555",
"h c #565656",
"j c gray34",
"k c #585858",
"l c gray35",
"z c #5A5A5A",
"x c #5B5B5B",
"c c gray36",
"v c #5D5D5D",
"b c gray37",
"n c #5F5F5F",
"m c #606060",
"M c gray38",
"N c #626262",
"B c gray39",
"V c #646464",
"C c #656565",
"Z c gray40",
"A c #676767",
"S c #686868",
"D c DimGray",
"F c #6A6A6A",
"G c gray42",
/* pixels */
"3333333773<3733377777wpttgggzggw7pppzgptg73377777w7w73<377ww<><3",
"<>33<<<<<>><<<<3<33337tggzbttbpw<7tpzbMgtpt3>><3333<33wgpttt<<<>",
"<<>=>>=>=<><<<<<333337ttppptwpttt7w7wwtw37w3<<37<<<<<<<3<>===o  ",
"333333<3377373w7w77ww73333w73<3333<><<><3<<3<<3<><<<==>##oo  oo ",
"3w37w3337773773w733337373333<73333373w33733<<<<><<>>=>=#o##ooo o",
"<<3333<<3<3<<3333<33<33773333373337333373333<><<><<<===>>>>==o#o",
"3<<><>><>=>>===><><3377337773<37777377733773<373<3733<3<>===#=>#",
"<<>==>===>>==><<3<<377333333<<337333www3><<3373><<3<>>3>###==##o",
"==>====>==>=>><3<<><<>37333337777ww77wtwwww7737<37<<<<<<==>>=#==",
">==<>><<>><<<3<<3777t373<333wtwww7377w77w7w333333<37><>>><>=##=>",
"##===<<=>>=>>3<>377w773337777773337w77w7w33wwww7w73777ww3><==>==",
"3w3wp7wtwttwtppptggpzpgzgbbzzzgzMbzbzbbzbbzzzbMbgbggzgzg3>>==###",
"bgzgbzggggzzzgzgggzbMbbbMMzbbVVMMVMbMMbbMbVMbbbMbzggMzgp<<<>==##",
"gbzzpppppgpgzgppzgzzzbgzbzbMMbbzzbbzbbbzbbzzzzzzMzpgppzg73<<>===",
"ttppttpgtzzpzgzgMMbgzzzbbbbMMMzzbbMbVDGDMbbbMGVbbbbzzggzt777373<",
"ggttppgtggptttgzppzzgzgzbzgggttwwwww777777ww7tw733w7773<>>#=#=##",
"ptttww7wwtww7ww7>><<<<<37777w77777773<3<37333<<<333333<>=>>==#==",
"3377377w377ttttw73w77777737w77w7777w777w7777733<<3<<><>>>==>===o",
"wwwtttptttt7wwtw7w77777wwtttttwtwttttwwww77w77ww777w77733733<><<",
"www777w7w7773ww73377333<3773w77w7777737377777w77ww7ww3733333<><<",
"><>=>>>><<><<>>=>373777<<<<><333w733333<7wtwtw777ww333<<<<3<<<><",
"======#==>=====<><<<33777www77733337w77ww77777w3777777733333><<<",
"<3333<<33<<>><33<<33<<73377777773333333777337w7www77333333333<<<",
"<<<<<><<<<<3<<<>><<<<<<33333<<><333<33w337ww77777737337373<<3<<<",
"777777773333<3<<73w337w7777w7773wwwttw7wwt7777733<<7w7ww7w777w37",
"tpppgpzgpppppgggpppggzzgzzbbggbzgbbgMbgzbbp3w77wwww3ww7www7w7373",
"ptpppgggpppgpgzgpgzggzzzbbbzzzbbbbzzbzbMMbp7w7www77w7737737733<<",
"tppppppppttpgppggzggzbgzggzbbbbbgzzzzzzgbMp73wt777737333377<<<3<",
"ppttppgpgppgzggzgptgzptggggtggtggtgggggggbt<333<<<<><>><<<<<<<3<",
"w73373333377373<wpgpgpgzzzpggzgzbbzbbbbbgpgpggttwtptttpptptttt77",
">>==>>#=======>=3zMbggbzzgbbbzMbzbzgbzzzbMbbMMbbMbbMzzzgzzzgggpg",
"<>>><<<<<<>>3<><7zbbMMbzzbbgzbbbbzbMMVMbMbbbbbVbbbbbzbzzMzzMzggz",
"7777733377w7ttwwtMbbMVbbMzgzzMMbVVMVVVVVVzMVVVVbggppggzggzppggpt",
"w77777w377wwtttttgzbbzbMMMMVMMMzbbzbMVbMbbzgzptgggzbbbzzgzzgzzpp",
">><><>>>>=>><><3<<<><<3w777773><>===>>>>>>>>==><>tMbzbzgggpggppp",
"#>>>>=>>>>#=>>>>#=>==>######o#oooo#o o######=##o 3zpggpgpgppptpp",
">====>=##===>>>==>>===##===##==#==##===###====#=#7zgzggggzgppptt",
"#=>==#==##=#====>>>>>>=====##=#=##===###=====>==#3bzzgzgpggggptp",
"====>==<>>><3337ww7w73373<><<<w3<<3<><<<3737w7773wgpwtwwtwwwtwww",
"33<<3333<7w77ww73733w77777w337ttttww7wtwwtttwwwwt737<3333333<<<>",
"777w77737773777wwww7w7777777337www77ww777ww77ww77w77w773333333<<",
"<33333333<3<33333<3<<333337w77pppgptpttptpptppggppptwww777ww7373",
"73333337337733<33337733333333<gbpggzgggpgpgpggtgpgggptwttwwtwtw7",
"gggpgppggzggbgppzbzzzggzgzgtgggzbgggpgggzzgzzgzpggggppgptppppttt",
"pgggggggzgpzbzzzbbzbzzzgppggzzptggggpgggtpgzgzzgzggpzzgptgppwwww",
"ppttpggppzztpzggzpggtppgzpgggggppgpppggpppgpgpggpggppzgtpppwtttw",
"pp7pgt7tgpztpzzzgzzgggggzbzzgtpgtpwpgpwtgpgtpptpppppgpppgpggpttt",
"tpgzptpgpppggppgpgtpgtggttttttpwtttggpggzggzbzgzzggppppttttt777w",
"ptpttttttpptppptpttttpttttttwtwtgpppwttgptppppggpgpgtwttwww7w3<<",
"ttwppttppzpggpggptptpptwtptpttttttttwtptttwwttppttttttwwtwwwt3=>",
"ttppppptptpttgpppgppgptwttppttppptwttttttppgppppptptpppww7wt7<=>",
"ptpgzgpgppgzzgggbpzzggzggggzzzzzzzzgggzbbMbbMbbMMbbgzgggpgttp<>>",
"ttttttwttggggppppptptttttwtwwtttwtw7wwtttptttptttttwww7w7w333<==",
"=<<>>==>333333<3333337<37333<3373773373337773<33373<3<<<><<<<3<<",
">>>>>>>><<37337w77www7w777w77ww777773337w7www77337333<333<33>><>",
"33<<>><<7777733373<33373333333333<3<<33333<<33<><<>>>>>>><<=>=>>",
"><=><<7><<>>>>===>>>><33333<33333<<<333337733773337333<<<3<<>>>=",
"gzgzbzzzppzzbzgpgggzggpggzgggpzzgzzzzgzz7<33777733333<<<<<>>>>==",
"VVVVDDVMDDMVDGbMDDVVDVDDDVVDDDVMMMbVVbbVp<3733333337733333>>>>>>",
"zbbggzzbMMbbVMMbMVVMMMMDMbbMbzzzpggzMgzbt>3733<<<3<333<3<>>>>==#",
"VMbzzMbMVMVVGMMVDMMbbMVbMMbbMzMVMVMVbbMDp>3337733373373733<<<>==",
"bzzgzVMbMbzgMMbMMbzzbVVVVVVVDDMMMVMbbzbVp37777777777333<<<<>>===",
"333733333<<><3<3333<33333337777333333<3<33333333<3<<3>><=====#==",
"7773<<3<3333333333733733773377w777777337w73777337333<<<<>>>==#=="
};
