/* XPM */
static char *_ab227cf53914d5db157c2efd2fdca6f87hyUhONJ40STamo[] = {
/* columns rows colors chars-per-pixel */
"64 64 256 2 ",
"   c #10080F",
".  c #30241A",
"X  c #1D1E24",
"o  c #2A192A",
"O  c #1E2126",
"+  c #1E242A",
"@  c #1F282D",
"#  c #00202D",
"$  c #22252C",
"%  c #23282E",
"&  c #232226",
"*  c #3A2828",
"=  c #232731",
"-  c #252A33",
";  c #292D36",
":  c #2A2E3A",
">  c #282B38",
",  c #382935",
"<  c #2B323C",
"1  c #283238",
"2  c #37353D",
"3  c #311B19",
"4  c #532F1E",
"5  c #442B34",
"6  c #463538",
"7  c #553A39",
"8  c #4C2C26",
"9  c #6B3638",
"0  c #5A4839",
"q  c #4D4234",
"w  c #6F523A",
"e  c #73673D",
"r  c #2E3541",
"t  c #2F3945",
"y  c #303642",
"u  c #323A45",
"i  c #343D4A",
"p  c #3B3C49",
"a  c #373B4C",
"s  c #003652",
"d  c #483A46",
"f  c #4F3844",
"g  c #6C3C44",
"h  c #37414B",
"j  c #3A4350",
"k  c #195D6D",
"l  c #47454B",
"z  c #574546",
"x  c #494B57",
"c  c #574D58",
"v  c #58555A",
"b  c #684845",
"n  c #6A5949",
"m  c #775849",
"M  c #675659",
"N  c #775858",
"B  c #74494F",
"V  c #79664C",
"C  c #776658",
"Z  c #726C51",
"A  c #5A5A63",
"S  c #4E5861",
"D  c #705B64",
"F  c #516870",
"G  c #77676A",
"H  c #776A75",
"J  c #6D6C74",
"K  c #334132",
"L  c #885859",
"P  c #8C5254",
"I  c #897555",
"U  c #967959",
"Y  c #8C6850",
"T  c #AE7159",
"R  c #995C66",
"E  c #8B5864",
"W  c #A75C69",
"Q  c #87696B",
"!  c #9A696B",
"~  c #956A78",
"^  c #88747B",
"/  c #997679",
"(  c #8E756B",
")  c #A86769",
"_  c #A96874",
"`  c #A97A7B",
"'  c #B6747A",
"]  c #AE726E",
"[  c #C3757D",
"{  c #805D3D",
"}  c #96835D",
"|  c #A9885E",
" . c #9A8768",
".. c #8C8E7C",
"X. c #A68765",
"o. c #B48867",
"O. c #A79367",
"+. c #B6966D",
"@. c #B88877",
"#. c #AA9676",
"$. c #B59876",
"%. c #A98874",
"&. c #B9A479",
"*. c #C79074",
"=. c #C4A579",
"-. c #D5AE7B",
";. c #D6A16F",
":. c #837984",
">. c #987B84",
",. c #A87B84",
"<. c #B77987",
"1. c #B87589",
"2. c #C87B87",
"3. c #CF7B91",
"4. c #348B9D",
"5. c #6A8F90",
"6. c #639CA7",
"7. c #60E4E3",
"8. c #978586",
"9. c #8E8B90",
"0. c #A9878B",
"q. c #B78689",
"w. c #B98A94",
"e. c #A99498",
"r. c #B59B9C",
"t. c #B89599",
"y. c #AF918F",
"u. c #B9A29E",
"i. c #BDAB84",
"p. c #B999A3",
"a. c #8EA4A7",
"s. c #BBA5A5",
"d. c #B5AFB2",
"f. c #9494A0",
"g. c #CA858B",
"h. c #C78896",
"j. c #D68998",
"k. c #CB929C",
"l. c #C6969A",
"z. c #D6939D",
"x. c #CB9187",
"c. c #E28D9D",
"v. c #C5A988",
"b. c #D4A888",
"n. c #CCB485",
"m. c #D5B787",
"M. c #D4B895",
"N. c #C9AD97",
"B. c #EBB48A",
"V. c #D68DA2",
"C. c #C999A4",
"Z. c #DD94A3",
"A. c #D79AA7",
"S. c #DB9BB2",
"D. c #E49CAB",
"F. c #E697A8",
"G. c #EA9EB3",
"H. c #C2A5A4",
"J. c #C5ACAA",
"K. c #C9A6A8",
"L. c #D5A3AD",
"P. c #DBA4AC",
"I. c #D5A8A9",
"U. c #C8B2AD",
"Y. c #CBA9B4",
"T. c #DBA5B2",
"R. c #DDAAB5",
"E. c #D7AAB5",
"W. c #C9B5B6",
"Q. c #D8B6B8",
"!. c #D1B8A8",
"~. c #E4A3AC",
"^. c #E4A3B2",
"/. c #EDA5B4",
"(. c #E3ACB5",
"). c #E4ACBA",
"_. c #EBACBB",
"`. c #E8A8B7",
"'. c #F4ACBB",
"]. c #F3A9B7",
"[. c #E4B3BC",
"{. c #EBB3BD",
"}. c #E6B8BA",
"|. c #F4B0BD",
" X c #DBC699",
".X c #D5C990",
"XX c #EACB97",
"oX c #E9D49A",
"OX c #F5D79B",
"+X c #F1C88B",
"@X c #D3CAB5",
"#X c #EAD9AA",
"$X c #F9DBA2",
"%X c #EFCFB5",
"&X c #FBE5A8",
"*X c #FEF8B9",
"=X c #F7EAB4",
"-X c #EAE5A8",
";X c #D8B8C4",
":X c #DBABC1",
">X c #ECB4C3",
",X c #ECBBC5",
"<X c #E6BAC6",
"1X c #F2B4C4",
"2X c #F4BAC6",
"3X c #F4BDCB",
"4X c #F7B8CA",
"5X c #F3B7CE",
"6X c #ADFBF5",
"7X c #9DE6E5",
"8X c #DBC7C5",
"9X c #D3CDCE",
"0X c #EEC3CC",
"qX c #E7C7C8",
"wX c #F3C2CD",
"eX c #F8C4CC",
"rX c #EAC9D2",
"tX c #F5C4D1",
"yX c #FBC5D3",
"uX c #F4CAD4",
"iX c #FBCAD5",
"pX c #FDCCDA",
"aX c #FAC7DA",
"sX c #EAD6D6",
"dX c #F4D4DB",
"fX c #FDD3DD",
"gX c #F8DAD8",
"hX c #F1D4CF",
"jX c #FEFDC8",
"kX c #F9E2DE",
"lX c #FDFBD9",
"zX c #EFE6D5",
"xX c #FED4E3",
"cX c #FDDBE4",
"vX c #FEDCEA",
"bX c #F7D8E5",
"nX c #F8D1E2",
"mX c #D5FCFC",
"MX c #CAFCF1",
"NX c #FDE4E4",
"BX c #FEEAE6",
"VX c #FEE3EB",
"CX c #FEEBEB",
"ZX c #F5E7E5",
"AX c #FEF2EE",
"SX c #FEFEE6",
"DX c #FEE4F2",
"FX c #FFECF3",
"GX c #FCE9F9",
"HX c #FFF4F2",
"JX c #FFF2FD",
"KX c #FEFDFC",
"LX c #FDF9F5",
"PX c #EAE9EB",
"IX c #CFE5DB",
"UX c #93BDBF",
/* pixels */
"$ $ $ % - 1 : > 1 r > 1 r r r > > : < ; ; ; d G U ] *.$.b.=.q.n.#.n.&.&.%.v 2 ; 1 - > > % = $ % - ; : ; ; = ; ; - - - = = = % % ",
"% $ $ % > : r > > r 1 > > 1 > > ; : > ; v H @.[ V.`.S.h.@.b.OXOXV oXXXB @.o.I x > > < ; ; - $ & - ; ; ; ; ; ; = - = = ; - = $ - ",
"$ $ $ $ > : : r r r > > < < 1 > > < v ^ ` k.wXxXvXcXvXxX>XS.g.*.+.*X XE ` ;.v.w.>.v < 2 < > $ $ - ; ; ; - - ; - - - - = = $ = = ",
"$ $ $ % - : r : > 1 1 r < < > v J 0.q.h.~.j.~.fXxXfXfXfXVXJXnXS.~.*X#XR ! R b.%X5XW.>.p < < + % - ; ; - - - - = = - = = = - = $ ",
"O O $ % - : r < < r < < < A ~ ! R.1XF.wXiX2Xj.Z.FXFXVXcXxXCXFXGX>XR.*XM.L P M.&Xl.E.GXH.h 1 @ & - ; ; ; - ; - - - = - = = = $ + ",
"$ $ $ % ; : : r r 1 1 < 9.' ' xXvX4XpXpXfXcXiXZ.[.VXCXDXpXxXVXFXxXR.<X=XM.!  XXXx.R.vXJXr.2 % % - ; ; - ; - - - - - - = - $ $ = ",
"$ $ $ % ; : < : : : < 8.<.<.dXxXiXCXdXuXCXfX2X2X~.2XCXBXvXfXcXCXDXtX5X}.&X#XzX#X%.).vXVXcXe.$ % % - ; ; - - - = = = - - = = = = ",
"% % $ - ; : : r r 1 0.j.,.<XvXxXVXVXVX,XdXFXdX(.uX2XeXDXVXvXfXVXFXbX,XtXb.+Xb.!. X] aXcXDX0XJ % - - - - - - = % = - - - - - = = ",
": ; ; : ; : ; : > 9.Z.<.(.vXfXCXNXvXCXpX,XFXFX2X(.xX_.gXDXCXxXxXCXJXdXrX(.OX] P b.M.V.DXaXGXs.u - - = - % - % = % - : < > > > 1 ",
": ; < : : ; : : v <.w.<XvXyXgXvXvXvXvXCX).sXJXvXz.eX{.'.CXFXVXfXvXCXFXdXwX%Xi.B ) b.) ).DXvXsXH - $ % $ $ $ & O - - : < < < : < ",
": 2 : : : : - ; 0.h.C.iXxXyXvXNXNXVXCXFX,X<XFXVXz.A.}.2.3XDXvXdXcXVXCXvXvXQ.M.o.!.zX@Xu.qXvXKX;X< - $ % $ $ $ $ $ ; > < r : < < ",
": : < : : : ; J T._.A.gXpXiXcXVXvXcXcXfXpX).dXcXh.w.wXg.2.yXfXtXfXfXfXvXGXR.-.*XlXjXjX XL.DXZXbXJ - % $ $ $ O $ $ - : < r r : 1 ",
": : : : < : ; Y.pXP.P.rX2XiXdXcXpXeXpXpXgX>XrXVXK.~ {.{.2.~.cXeXfXvXfXfXcXdX;.#X*X$XOXo.F.cXxXVXd.% $ % $ $ $ + @ - > r : r : : ",
": < : : < > v 1X2Xz.wX[.).tX,XtXaXwXpXfXxX3XeXDXL.,.[.wXz.2.eXiXpXNXfXfXpXDXz.o.OXOXOX/ j.yXvXfXdXl % $ $ & $ O @ - : r r : r 1 ",
": : : : : > 8.yX~.P.gX}.R.2X[.iXfX3XiXxXxXaXiXVXP.p.I.,XE.g./.iXiXvXxXiXpXDXD.T o.U o.Y V.1XGXDXqX9.- $ $ % $ + = - 1 1 r r > 1 ",
"> ; : : : y ).iXz.wXrXQ.A.).wXfXfXwXtXxXcXfXpXVXA.s.w.[.rXz.].eXtXNXfXyXyXxX2Xo.O.#.v.v.I.Z.R.rXtXe.% - % - $ % - - > > > > > > ",
"- % = > > H 5X5XA.cXC.R.k.k.0XxXiXtX3XvXxXxXvXiXk.9Xh.0XKX|.c.^.tXvXcXiXyXpX4Xo..X-X#X*X#X#X.Xx.xX;X> - - = - = - - - - - - - - ",
"= $ = = - e.aX).T.pXl.<XA.,.>XVXyXtX0XvXuXdXxX[.P.KXl.H.9.b 3.Z.wXcXZXVXuXyXaX@.-.IXIX| ! $X;.=.gXrXA > - % - - @ % = = - % = $ ",
"$ + + $ = C.3XP.A.fXR.E.>X<.h.tXVXyX<XxXtX,XVX(.A.8.7 o     R '.wXcXxXcXtX>XxX] @XMXIX*.B  X*.) %XaX9.@ - - - = = % % % $ $ $ $ ",
"& $ & + x p.C.V.>XpXwXL.yX<.) A.KXxXL.rXtX>XJXT.g # s F BXf.w /.eXfXpXiX).`.pXy.6XmXMX=.B  Xi.T N.uXf.- @ > @ @ - % % % % $ $ $ ",
"$ = = + J >.0.z.tXfXiXL.}.A.R ' dXJX;XQ.<XR.JX_ l 4.4.6.LXPX<.A.pXiXiXiXj.).aXt.mXMXMXv.g n.i.T N.5Xd.; > > > > - - - - - - $ = ",
"- - = = ^ D >.C.tXdXyX3XL.P.g.W V.DXvXC.t.<XaX0.6.UXPX9XIXLXI.k.iXpXpX3Xh.<XpXs.IXmX6X-.g v.M.L v.tX;Xi 1 < < 1 > > : > ; - - > ",
": : > : :.A ,.>.uXxX3XyX2X_ z.eX3._.DX:X/ R.R.AXPXd.d.9XGXHXI.t.3XyXfX1X3.,XpXu.7XmX6Xm.B $. XB v.0X;XJ r r r r < < < < : : : : ",
"r r r r :.d >.>.<XcXtX>XyXw.g.hX].j.).nXC.C.Q.AXKXsXd.gXCXVXQ.E.pXiXxX^.j.yXpX*.7.7X6X.Xb %. Xm y.!.<X:.u u r r u u y r y r < y ",
"a a i t :.x :.>.1.xX5X>X5X).q.7 c N 1.j.C.<.dXLXZXNXHXCXBXZX<X<XxXxXyXV.A.xX5Xx.OX7X6X.Xn C oXm ( L.;Xp.r r r r < < < < 1 < < < ",
"i a i i :.x A >.,.vX5X>XvX>.  G F k C.h.h.<.Y.ZXCXCXCXBXAXBX<X0XcXvX4Xj.(.xXaXb.-.OXIX-Xv.$.#X#.O.Y.<X9Xt 1 r r < < < < < < < < ",
"i j j i J x a >.k.iXaX).aXh.3 s.5.6.9XGXsXrXqXgXFXFXCXBXLXrXR.yXGXfXD.j.{.GX5X) ;.;.+XXX$X$XXXOXv.:XY.8XA r r > < < < < < 1 ; 1 ",
"j i i i S A x ~ h.1X{.5X1X1XP t.bXW.qXFXHXAXHXFXCXCXCXHXdXE.3XDX5X1.V.A.xXGX}.' j.*.*.*.*.T T ) L.dXw.sX9.r > r < < 1 < < < < < ",
"a j j i h J x ^ A.Q.C.xX>X0.<.>XFX@X%XsXDXZXCXCXCXBXCXHX8X<XxX:X<.<.j.rXdXtX>X3.V.Z.F.S.V.A.A.j.>XbXh.rX;Xr > r < < < < 1 1 < < ",
"j a i h h x x :.S.3XE.aXaX! w.E.}.cXfXhXZXBXCXBXBXCXCXCXdX5XR.A.rXk.S.DXR.K.h.Z.>XtXaXxX5X3XbXG.V.>XC.R.PXS r 1 1 < < 1 < > < < ",
"i i i i t i t F L.5XJ.<XDXw.E R C.CXgXCXBXCXCXBXCXBXBXBXcXdXsXKX9X' DX5Xq.h._.aXpXyX3XpX>X`.uXA.j.h.S.k.vXs.< < < < < < 1 1 < < ",
"i i i t t i t t c T.s.C.5XxXC.E / SXfXBXVXBXHXKXCXBXCXBXBXHXKXKXC._.vXl.1./.yXpXtX3XwXpX1XS.iXG.z.3.C.A.rXsXi r < r < < < < < < ",
"u r r r y < r < r ,.L.Y.`.<X3X<X/ N.kXgXNXCXsXQ.ZXAXCXCXBXKXPXJ.A.R.q.R >X3XG.tXyXyX3XiX2XA.0XP.Z.2.<.R.{.vXJ t t t r r < 1 r r ",
"< r < r < < < < > f.T.Y.<XE.k.V.<.J.AX0XdXCXsXW.gXAXBXBXHXsXr.C.<.,.g <.GX`.g.eXiXtXyXtXyXD.T.A.G.2._ _.).cXW.t y t < 2 r r r < ",
"r r r r r : : : : c 1Xk.L.nX5X3.A.KXkXZXqXgXAXLXHXCXBXCXHXsX}.R.<.B z 5XvXj.Z.pXyXtXeXtXpX^.k.{.1Xj.W ^.3X2XxXA < < : < < < < < ",
"i u u u u r u r r r :.R.,.>XxX4XrXBX_.@XhXqXhXLXVXBXCXFXKXdXI.,.b f N aXaXj.^.pXtXyXeXyXiX`.k.0X4Xc.<.j.pX(.cXf.> > ; - - > > 2 ",
"h u i h i u i u t t u 9.Y.k.aXaXuX@X0XZX(.s.a.8XHXLXLXKX!.` P d N 3 N GX1Xj.G.iXtXtXeXtXiX2Xh.}.iXF.g.g.4X^.[.Q.> $ @ + $ $ > ; ",
"u h u u u u < y r r r e.:XV.h.tXqXQ.ZXKXLXy.5.5.8.8XqXt.E N J f.o   S.DXS.2.'.pXiXtX3XyXiX4X2.{.fXG.j.g.D./.(.).J + + + O $ > ; ",
"u u t r < < < > : < p p.:XA.2.h.I.BXLX%XZXLXG G ! ~ ! 9 7 ; 6.F k 9.vX4XW ' 2XpXiXeXtXfXyXZ.3.{.vX|.j.j.c.|.iX,XY.: - % - ; 1 ; ",
"< 1 < < < < > < ; < A C.:Xw.3.R W.KXdXl.I.KXrX` h.1.H 4.4.l q k 6.uXpXj.1.j.3XpXiX2XuXvX4Xg.[ 4XcX4Xj.j.F.'.2XgXyXe.> 1 - > > 1 ",
"$ % @ - < u r t r u :.L.5X<.<.!.KX@XH.ZXqXl.KXQ.,._ F 7.7XY 8.Z ] cXP.' _ c.yXiXyX0XdXpX].g.' pXxXeXc.j.F.1XD.qXGXwX:.% $ % % % ",
"O + O % < u u i i i H E.:X1.hXKXsXQ.bXJXKXr.Q.sX~ h.E & w UX6X8.'.|.' B R G.aXyXpXbXCX/.].g.2.yXfXeXF.j.F.].2XZ.dXVXnXd.l O & $ ",
"O X O % r i a a j i J >X_.h.NXBXZXKXCX%XsXzXt.}.<.<.1.  2 mXmXQ.A.1.7 B ' G.pXfXbXbXcXF.'.' 3.eXfXyXD.z.D.].eX~.).JXdXxX8Xx X O ",
"X O O % r h a j i j <.;X5XY.sXAXkX8XW.Q.K.U.U.U.,.~ F.5 1 mXmX4.9 g 5 g ) 2XfXiX0XdX1X].4XP 3.tXfXwXF.].`./.{.eX1XVXxXuXvX<XA X ",
"X X O $ r i a j a d.5X,.>X}.kXkXsXsXgXKXHX,.:.6.~ ! G.g s 6X6X7.m 8 5 P k.aXtX^.0XgXc.yX^.9 2.xXxX{.c.D././.].eX>X{.JXdXuXDXrXJ ",
"X X O = r i j x 9.:X:XH L.}.kXkXLXKXAX8XqXq.v f.0.1.h.Y w 7.7.6.9 8 =.(.>XxX).k.fX^.G.xXR P `.pXxX^.j.c.c./.].].0XD.xXDXW.s.DXdX",
"X & X > r u :.9.e.:.i u :.L.AXBXqXe.( ,.l.a.9./.T.1.* V | 5.6.8 Y -.b.>X5XpXA.Q.{.F.pX3.9 ! 4XcXeXF.F.j.g./.].~.eX].'.DX<Xv A yX",
"O & O + > t h j r r 2 < H E.KXAXH.` l.P.e.5.r.A.N , , * | | 4 V o.0 _ 5XxXT.l.S.F.aXz.9 o.F.eXvX0.0.'.].3.j.'.~.].0X_.fXuXQ.2 p ",
"$ O + $ - > = - $ % - ; w.rXLXLX@Xz.R.T.t.e.(.6   , y o , e o.m   ^ xXxX>Xw.S.1X5XV.g 8 @.^.DXyXC G l.}.z.j.|././.{.qXdXtXyXdXx ",
"O O $ $ $ $ % & O & @ v <.<XLXAXhXI.I.l.I.`.y.Z 0 0 m N w V w * Q aXxXL.,.,.S.G._ 9 4 9 Z.nXaXt.e.r.y.C.l.' ~.~./.|.<XrXfXcXVXiX",
"$ $ X $ O O X O O X X ,.k.Q.KXAXgXl.I.l.(.~ U *X#X&.e U +.} X.(.nXaXT.N L <.,.E E v.-.o.5XgX%.>.H.u.u.U.I.@.) j.].]./.qXdXvXvXdX",
"O $ $ $ O & & X O X G >XV.K.KXBXhXt.I.P.q.q U m.=XjX8X$.U O. XiXnXA.x.h.h.` Y +.*.%X%XeXhXB.U 8.H.u.H.u.s.Q.@.R ~.'.].2X0XvXVXrX",
"$ + + + $ X X $ d H k.vX~ s.LXHXQ.0.(.w.0 | V * Y ;.&XlXs.w 4 i.y.7 Y x.@.Y Y o.Y L T XX-.+.O./ J.s.H.U.r.U.qX! ) |./.|.2XcXDX8X",
"$ $ $ $ + X A e.0.<.aX>XN 8XHXAXQ.q.R.( O.+X0 q V 7 Y -.lXSX .&.$.| +.w 0 X.| Y L o 6 =X*.} =.^ J.s.s.J.!.d.Q.%XY q.].(.'.3XGX0X",
"$ $ + $ A t.5XC.p.:XxXR 0.LXCXNXQ.l.L.$.n.} | *X .q I { | #XKXlXO.&.&XU m.-. .o d 5 N.*XU V M.^ J.H.J.J.J.U.U.qXq.` z.z./.].fXbX",
"X O O ^ S.xXC.l.R.cXw.b sXLXBXNXI.T.C.+.0 } *X&.* -.n.&.X.4 X.lXlX&.w i.&X( z f o  .lXOX .n U / J.J.J.U.U.U.U.@Xq.I.~.j./.G.uXbX",
"O < >.>XDXC.w.2XyX>XP ,.HXBXBXCXE.L.l.8 I *Xi.. I O.&.=Xn Y Y w  XlX#.I V 6 d 5 C jX=Xm.P 0 b 0.u.J.U.U.U.W.U.!.r.@.D.z./.D.4XgX",
"l w.,XGXL.` vXpX1Xh.E W.KXVXAXdXL.T.7 e jXn.8 Z O.Y *Xm * &XoXY w  .*X&XZ X o ( jX*Xm.Y w } V ~ r.s.J.U.J.J.U.U.W./ ` z.|.^.z.dX",
"C.yXvX<X` dXxX_.F.1.0.HXCXNXHXrXI.%.* } #.w 0  .Z *X.X   .jXm.OX#.. U n.*X&.} &X&X-.I n I O.&.G y.p.H.J.J.J.J.J.@X( L P.|.^.' iX",
"4X5XvXy.8X5X`.^.j.1.gXHXkXBXLX}.C.V n f , *  .&.oXoX6 o 2 I O.=.V n.} 3 O.XXB.+.U m * V +.| =.G y.r.s.H.s.J.H.J.Q.8.B ~.'.A._ wX",
"P.JXd.W.vXV.A.G._ @XKXNXkXAXkX(.` U &X&Xn . XX&X$X| +.oX%.z ( n &.*Xn o 6 d 6 , 6 p   n =.} O.M y.r.r.u.s.s.s.H.U.u.b V.4Xj.' ^.",
"sXLXe.dXG.`.G.W l.KXNXNXBXAXI.(.D z Q V q &.oXOX+.n =.n.XX X-XjX*X=.& d 5 d c c c c d 2 o.C I N 0.p.y.r.u.u.u.s.H.s.7 h.iXg.z.^.",
"JXd.L.4X^.G.) / JXHXVXCXAX}.D.C.f c > X } oXXXOXC o , , , 7 z  .&.w , d f l c v c D d & +.I q E >.r.e.e.r.r.u.u.H.r.7 h.pXg.,XQ.",
"IXt.4Xk.V._ / PXFXbXZXPX%Xl.}.Q y c c v n -.#X#.d c c c z d 2 , , 2 z d D H M c c M l X X.O.p G Q 0.e.y.y.y.y.y.r.e.0 w.>X,.W.J."
};
