/* XPM */
static char *mic1677153726[] = {
/* columns rows colors chars-per-pixel */
"64 64 184 2 ",
"   c #2A2A2A",
".  c gray17",
"X  c #2C2C2C",
"o  c #2D2D2D",
"O  c gray18",
"+  c #2F2F2F",
"@  c gray19",
"#  c #313131",
"$  c #323232",
"%  c gray20",
"&  c #343434",
"*  c #353535",
"=  c gray21",
"-  c #373737",
";  c gray22",
":  c #393939",
">  c #3A3A3A",
",  c gray23",
"<  c #3C3C3C",
"1  c gray24",
"2  c #3E3E3E",
"3  c #3F3F3F",
"4  c gray25",
"5  c #414141",
"6  c gray26",
"7  c #434343",
"8  c #444444",
"9  c gray27",
"0  c #464646",
"q  c gray28",
"w  c #484848",
"e  c #494949",
"r  c gray29",
"t  c #4B4B4B",
"y  c #4C4C4C",
"u  c gray30",
"i  c #4E4E4E",
"p  c gray31",
"a  c #505050",
"s  c #515151",
"d  c gray32",
"f  c #535353",
"g  c gray33",
"h  c #555555",
"j  c #565656",
"k  c gray34",
"l  c #585858",
"z  c gray35",
"x  c #5A5A5A",
"c  c #5B5B5B",
"v  c gray36",
"b  c #5D5D5D",
"n  c gray37",
"m  c #5F5F5F",
"M  c #606060",
"N  c gray38",
"B  c #626262",
"V  c gray39",
"C  c #646464",
"Z  c #656565",
"A  c gray40",
"S  c #676767",
"D  c #686868",
"F  c DimGray",
"G  c #6A6A6A",
"H  c gray42",
"J  c gray43",
"K  c gray45",
"L  c #747474",
"P  c gray46",
"I  c #767676",
"U  c #777777",
"Y  c gray47",
"T  c #797979",
"R  c gray48",
"E  c #7B7B7B",
"W  c #7C7C7C",
"Q  c gray49",
"!  c #7E7E7E",
"~  c gray50",
"^  c #848484",
"/  c gray52",
"(  c gray53",
")  c #888888",
"_  c #898989",
"`  c gray54",
"'  c #8B8B8B",
"]  c gray55",
"[  c #8D8D8D",
"{  c #8E8E8E",
"}  c gray56",
"|  c #909090",
" . c gray57",
".. c #929292",
"X. c #939393",
"o. c gray58",
"O. c #959595",
"+. c gray59",
"@. c #979797",
"#. c gray64",
"$. c #A5A5A5",
"%. c #A7A7A7",
"&. c gray66",
"*. c #A9A9A9",
"=. c #AAAAAA",
"-. c gray67",
";. c #ACACAC",
":. c gray68",
">. c #AEAEAE",
",. c #AFAFAF",
"<. c gray69",
"1. c #B1B1B1",
"2. c #B2B2B2",
"3. c gray70",
"4. c #B4B4B4",
"5. c gray71",
"6. c #B6B6B6",
"7. c #B7B7B7",
"8. c gray72",
"9. c #B9B9B9",
"0. c gray73",
"q. c #BBBBBB",
"w. c #BCBCBC",
"e. c gray74",
"r. c gray",
"t. c #C3C3C3",
"y. c gray77",
"u. c #C5C5C5",
"i. c #C6C6C6",
"p. c #C8C8C8",
"a. c gray79",
"s. c #CACACA",
"d. c #CBCBCB",
"f. c gray80",
"g. c #CDCDCD",
"h. c #CECECE",
"j. c gray81",
"k. c #D0D0D0",
"l. c gray82",
"z. c #D2D2D2",
"x. c LightGray",
"c. c gray83",
"v. c #D5D5D5",
"b. c gray84",
"n. c #D7D7D7",
"m. c #D8D8D8",
"M. c gray85",
"N. c #DADADA",
"B. c gray86",
"V. c gainsboro",
"C. c #DDDDDD",
"Z. c gray87",
"A. c #DFDFDF",
"S. c gray88",
"D. c #E1E1E1",
"F. c #E2E2E2",
"G. c gray89",
"H. c #E4E4E4",
"J. c gray90",
"K. c #E6E6E6",
"L. c #E7E7E7",
"P. c gray91",
"I. c #E9E9E9",
"U. c gray92",
"Y. c #ECECEC",
"T. c gray93",
"R. c #EEEEEE",
"E. c #EFEFEF",
"W. c gray94",
"Q. c #F1F1F1",
"!. c gray95",
"~. c #F3F3F3",
"^. c #F4F4F4",
"/. c gray96",
"(. c #F6F6F6",
"). c gray97",
"_. c #F8F8F8",
"`. c #F9F9F9",
"'. c gray98",
"]. c #FBFBFB",
"[. c gray99",
"{. c #FDFDFD",
"}. c #FEFEFE",
"|. c white",
/* pixels */
"4 4 4 4 4 4 4 9 4 4 1 4 9 9 4 4 9 9 9 9 9 e i e i k k k z k f e 9 f i f k k f i f e 4 4 4 9 9 4 e e 9 9 e 1 1 1 9 e e 9 1 , 1 4 ",
"1 , 4 4 1 1 1 1 1 1 , , 1 1 1 1 1 4 4 4 1 9 f f k k z e i v f 9 1 9 i f z v v f e f i 1 , , 1 4 1 4 4 1 4 4 e k i i i i 4 , 1 , ",
"1 1 , - , , - , - 1 , 1 1 1 1 1 4 4 4 4 4 9 i i i f k i e f e i i 4 e 9 e e i e 4 9 e 4 1 1 4 9 1 1 1 4 1 1 1 1 , , - - - O     ",
"4 4 4 4 4 4 1 4 9 4 9 4 4 9 9 9 9 e 9 9 e 4 1 4 4 4 9 4 4 1 4 1 1 4 1 , , 1 , 1 4 1 , 4 1 1 4 1 1 1 , 1 - - - % O O O     O   O ",
"4 e 4 4 e 9 4 4 9 e 4 9 9 9 4 e e 4 1 4 4 4 4 9 4 4 ,.%.e e %.,.<.#.e e -.,.4 1 4 4 4 4 1 1 , , , 1 , , - , - - O % % % O O   O ",
"1 1 4 4 4 1 1 1 1 1 4 1 1 4 4 4 4 1 4 4 1 4 4 9 e i 8.,.i i <.r.r.<.i i ,.8.e i 4 4 4 4 1 , 1 1 , 1 1 1 - - - , - , - - - O % O ",
"4 1 1 1 1 , , , , - , - - - - , , , 4 4 4 9 9 9 ,.7.t.7., 4 J.{.`.J.4 1 7.y.7.,.e 9 4 9 1 4 9 4 1 4 9 4 4 1 4 1 1 - - - % - - % ",
"1 1 , - , - , - - - , - - , 1 1 1 1 1 1 9 9 4 9 ,.,.7.%.i z Y.{.{.Y.z i -.<.,.,.4 1 1 4 4 4 1 , 1 1 4 1 , , 4 , % % % - % % % O ",
"- - , - - - - , - - , % , , 4 1 1 1 , 1 1 , 4 9 e i , i S.(.W.W.W.W.(.S.i 1 e i 9 e 9 9 9 4 4 1 4 4 4 1 1 1 1 1 - - , , - % % - ",
", - - 1 , , 1 1 , , 1 1 1 4 4 1 4 9 9 9 e 4 9 4 i i 4 z (.{.W.W.W.W.{.(.z 4 i i e 9 e 4 4 4 9 4 4 1 4 4 1 1 , , , , , - % % - , ",
"% % - - - 1 , - , , - , , 4 1 , 4 4 9 9 9 4 4 e -.7.W.{.{.{.W.W.Y.W.{.{.{.W.7.-.i 9 4 e i e e 9 e e 4 4 4 9 9 e 4 , 1 - - - , - ",
"9 9 4 9 f 9 e e e i i e i i f i i f k k z f k v -.8.W.`.J.I.W.W.W.W.I.I.`.W.8.-.M v z z z v M v z z k k z k k k 4 , , - - % % O ",
"z z k z z z k k f k z k z k z k k k z v C v v v i e e i 1 f J.{.{.I.k 1 i i i i M M C M v v M C v v k k v z k f 1 1 , , - - % % ",
"z z z k i f f i i k f f k k i f z k z z z v z v i i i e 1 k I.{.{.I.f 1 e e e i v v z z v z z z M z i f f f z f 9 1 1 1 , , - - ",
"e i f f e i f f i z z f k z k k v M v k z z z M ,.8.W.`.(.W.W.W.W.W.M.M.A.b.8.,.C v v M M F C z M v v z k k k z e 9 9 9 4 9 4 1 ",
"k f i e f f f i k f f e i e k k i k z z z z k v -.8.W.`.(.(.W.Y.W.W.A.b.A.b.8.,.i 9 e e e i e 9 4 4 e e 9 9 4 1 , , - % % % % % ",
"i e i e e e 9 e e i e e 9 e 9 9 , - 1 1 1 , 1 4 e i f f 1 f I.{.{.I.k 1 i i i i 4 9 4 4 4 1 1 4 4 4 4 4 4 4 1 , - , , - - % - - ",
"4 4 9 9 4 4 9 e 4 4 9 e e i i e 9 9 9 9 9 9 9 9 i e 9 9 1 f I.{.{.J.k 1 e e e e 9 9 9 9 9 4 4 1 1 4 4 1 , , , , , - - , - - - O ",
"e e e i i i i i e i i 9 e e i e 4 e 9 9 9 9 9 i <.7.<.7.J.Y.{.{.{.{.z.a.8.7.7.,.i 9 9 9 9 9 e 9 9 9 9 9 9 9 9 4 4 9 4 4 1 , 1 1 ",
"e e e 9 4 9 e 9 9 9 9 9 4 e e 9 4 4 9 9 4 4 4 9 ,.7.<.8.`.{.I.J.J.I.J.A.8.<.7.,.e 4 4 9 9 9 9 9 9 e 9 e e 4 9 4 4 4 4 4 1 1 1 , ",
", , , , - , , , 1 1 1 1 1 , , - - 4 9 4 9 9 9 1 i i - f W.(.v e i v M.M.i 4 i i 9 e i 9 i e 9 9 9 e e 4 4 4 1 1 1 1 1 1 , 1 1 , ",
"- - - - - - % - - , - - - - - , 1 1 1 1 4 1 4 9 i i 4 z `.W.i - , e M.M.k 9 i e e 9 9 9 9 9 9 4 9 e 9 9 9 9 4 4 4 4 9 4 1 , 1 1 ",
"1 4 4 4 4 1 1 4 1 1 , 1 , 1 4 4 1 1 4 4 1 1 9 9 -.8.W.`.{.J.z 4 4 k z.A.M.M.7.,.i 4 4 4 4 e e 9 9 e e 9 4 4 1 4 4 1 4 4 4 1 1 1 ",
"1 , 1 1 1 , 1 1 1 1 4 4 1 1 1 , , 1 1 1 1 1 1 9 ,.8.W.`.{.I.k 4 9 k j.S.A.b.7.,.9 9 e e 9 9 9 9 9 4 4 4 4 4 4 9 9 4 1 4 4 1 1 1 ",
"9 9 9 4 4 9 9 4 4 1 1 4 1 4 1 1 9 1 9 4 9 9 9 e 9 i 4 z (.W.i , , i M.M.k 4 i e i i 9 9 4 9 9 4 4 4 1 9 9 9 e e 9 e 9 9 9 9 4 9 ",
"i i i f f f k k f f i f i k k f f f f k v v M v 1 e , f (.(.v e i v M.M.f 1 i e v v f 4 9 e 9 9 e e 9 4 e e 9 e e e 9 9 9 4 4 4 ",
"f i f f f f f k f f f f f f k k f f k f a.j.M.J.r.<.<.8.{.{.z.a.j.z.S.S.7.7.8.7.^ U E U e 9 e e e 9 9 e 9 9 4 9 9 4 9 9 4 4 4 1 ",
"i i i i f i f i i e i i f i f k k k k k b.b.M.J.r.<.<.8.J.Y.S.S.S.S.b.a.7.<.8.<.^ U E E 9 9 i 9 9 4 4 4 9 4 4 4 4 4 4 4 1 1 4 1 ",
"i i e i f i f f f i f k z k k k f i i k z.b.k k 4 e 9 e 1 f j.S.A.j.f 4 e e i e k v W W 4 1 4 1 1 1 , , 1 , , 1 1 1 , 1 1 , 1 1 ",
"9 9 9 4 9 4 4 4 4 4 4 9 4 4 4 4 9 f k k b.S.k z 1 i f f 4 f j.A.S.j.f 9 i i e e k f W W k k i i e i f i e f f i i i i i i i 9 9 ",
", , - - - , - - - - - - , , - - 4 v v v W.(.v v -.8.W.`.(.(.b.b.b.b.M.M.A.b.8.7.v M U W v C v v M v z M z z z z k z z z k f f f ",
"1 , , , , 1 , , 1 1 , 1 1 1 , 1 9 k v M W.`.v z -.8.W.`.(.W.M.z.b.b.M.M.M.b.7.7.M M U E v M C M M M v v z v z z M v z v z k k k ",
"9 9 4 9 9 4 4 4 4 9 9 e i e e 9 i v M v W.{.M v 4 i e i 1 f j.S.S.z.f 4 e i e e C z W E M C C v z k i f z k k k k k f f f k f i ",
"e 9 9 9 9 9 e 4 9 e e e i i i i i k v v W.{.v M 4 e i e 4 f j.S.A.j.k 4 i e e i v v ^ E z f e k f k z z v v v z k k k f k k i i ",
"- , 1 1 , , , , - , - , , , 1 4 1 1 1 , W.(.4 e %.8.W.`.Y.I.b.b.M.b.j.j.A.M.8.<., , U E - - 1 1 , i C v z v z f k k f f k f i f ",
"% , , , , - , , - , - % , , , , % - , - W.(.% % -.8.(.`.{.`.M.z.z.M.A.S.M.M.8.<.% % U W % % % O   4 f k k f f f f f i f i e i i ",
", - - % - - - % % - % - , , , - - , , - W.{.% % 1 i 9 k M.Y.M.b.z.M.I.M.k 4 f 9 % % W E - - % - O 9 v k z k k k k k k f i i e i ",
"% - - , - - - - - % % % - - - - , , , , W.{.- - 4 i 1 i y.b.b.M.M.b.M.y.f 1 i e - - W W - , - - O 9 v k k k k k f f f k k f i f ",
"- - - - - - - 1 , , 1 1 1 4 4 9 e e 9 e (.(.4 4 %.,.7.%.f k z.S.S.z.k f -.7.,.<.9 4 U E 9 9 4 9 4 9 k f e i e e e e 9 e i e 9 e ",
"4 4 1 1 4 4 4 4 1 9 9 9 e 9 e 9 4 9 4 4 Y.W.i i -.<.t.7.4 4 j.A.A.j.9 4 <.t.7.7.e i U E i e e i i 9 4 4 1 4 4 4 4 4 4 4 1 1 , , ",
"e 4 9 e 9 e 9 4 9 9 9 4 9 9 9 9 e 9 e 9 M.b.j.a.9 9 8.,.e e <.r.8.,.e i -.r.9 9 / ] W E 9 e e 4 e 9 9 9 9 9 9 4 4 4 4 1 4 4 1 1 ",
"1 4 4 4 4 1 4 4 4 1 1 1 4 4 4 4 4 4 4 4 y.j.b.M.4 1 -.%.4 4 %.8.7.-.9 9 ,.7.i i ] ..E K i f k f i i f e i e 9 9 9 9 e e 9 4 9 4 ",
"9 4 4 1 4 4 4 4 4 4 9 4 4 4 1 1 4 4 4 9 e f b.b.z.j.4 4 4 1 k v f f k z f k / ] W E k f k f i f f k f f i i e i i e 9 i 9 e e 9 ",
"k f f f k i i k f k k k v k f f z v z v z k y.j.b.M.z i k k f k v f k k i k ..] U K k k k k z i f f k k f i f i i i f i f i i i ",
"i f f k k k f k k k f k v z z z v z z z z k v C b.b.M.M.S.b./ ^ _ _ ..o.] ] W E k f f k z k k k k f f i k z k i i f k i e 9 e e ",
"f i i i f f f i f k k i f z k k z f k k i f f k a.z.b.b.M.z.@.] ....] ......U K i f f f f f k f f k f f f k f f f i i e i i i 9 ",
"i i 9 i f e 9 i f f k e i z k z k z k k k k k k v M M M b.b.b.j...] ....v k e i f f k i f f i f i f f f k i i i f f f f f i i i ",
"f i k k f i f f i f f k k f f f f k i i f e f f i e f f y.z.A.b.o._ ] _ k i f k k f f k z z k k k f f i i f f i e e i i 9 4 9 9 ",
"i i f i e e i e i f i i i i i i i i e e i i i i i e i i f z z.z.o./ k k e i i f f i f i f i f k k k i f e e e i 9 e e 9 e 4 1 1 ",
"i e e i f e i f i k f f k f f f i i f i i f i 9 e f i i e i z.b.o./ i e e e i i e e e e e i i i e i i e i e e e e i e 9 i 1 - , ",
"e i i i i f i i i i i i i f f f f f f f f i i e e i i i f f b.z.o._ f i e i i i i i k f f i f i f f i i f f i e 9 9 9 i 9 1 - , ",
"f i f f k k f f f i f z z f f k z f k z k f k k k k k z z v b.z.o._ z f k k z v M v M v M v v M v v z k k k k k f k f e i 1 , , ",
"e e e i i i e i i k k k f f i i f i e f i i e i e 9 i e e f z.z.o./ i 9 e e e i i i i i i i i f i e i e 9 e e 9 9 9 4 4 4 1 - - ",
"- , 1 , - - - , 1 4 1 4 4 4 4 4 4 4 1 4 4 4 1 4 9 4 4 1 1 e z.z.o._ 9 4 9 4 4 4 4 9 4 9 4 1 1 4 4 9 4 4 4 1 1 1 1 1 4 1 1 1 1 1 ",
"1 , , , , , , , 1 1 4 4 4 4 9 9 9 9 e 9 9 e e 9 9 9 9 9 9 9 z.z.o._ 9 9 4 4 4 9 e 9 e e e 9 9 1 4 9 1 1 4 1 4 1 4 1 4 4 , , 1 , ",
"4 4 1 1 , , 1 1 9 9 9 9 9 4 4 4 9 4 4 4 4 1 9 4 4 9 e e 9 f b.z.o./ e 4 1 9 4 4 4 4 1 1 4 4 1 , 1 1 1 , , 1 , , , 1 1 - , - , , ",
", , - , 1 1 9 1 1 , 1 1 1 , - - - , , , , 1 1 4 4 4 y.j.b.z.S.b.@._ U U U U 1 1 4 9 4 9 4 9 9 4 4 4 4 4 4 1 1 1 1 4 1 1 , , , - ",
"k z k k M z z k i i z z v z k f k k k k k k z z v C b.b.z.b.b.z.o._ E U E E v v e 1 4 4 9 4 9 4 4 4 4 4 4 1 1 , 1 1 , , , , - - ",
"C M M F F F C C F F M C F H v M H F C F C K b.b.b.M.M.z.o.] o.o.W E E E E E E E E U 9 9 4 4 4 4 9 4 4 9 9 4 9 4 4 1 1 , , , , - ",
"v v v k k z z M M C v M C C M v M M C C M C z.b.b.b.b.j.] / _ / E U E E E E E E E E 9 9 4 4 1 1 1 4 1 4 1 4 1 4 1 , , , , - - - ",
"C M v z z M M M C C C C H M M F F M M v v C C v v C v v v z C C M C M C v M M F f - 4 4 4 4 9 4 4 4 9 4 4 4 9 4 4 4 1 1 1 , - - ",
"v v z z z C M v v v z k M M v M M M v z v C C C F M C C F F C M C C C v v z v C i 9 4 9 9 9 9 9 9 9 4 9 4 4 4 1 1 1 1 , , - - - ",
"4 4 9 4 4 4 4 4 4 4 1 , 1 4 4 4 4 4 4 1 4 9 4 4 4 9 4 e 9 9 4 4 4 4 4 4 4 1 4 4 4 4 4 1 1 4 4 4 1 4 1 1 4 1 , 1 , - - - - % % - ",
"9 9 9 4 1 1 4 1 4 4 4 4 4 4 4 4 1 4 9 1 9 4 4 4 4 4 4 4 9 9 e 4 9 e 9 9 4 4 4 9 e 9 4 9 9 9 9 4 4 4 4 4 1 1 1 1 , - - - - - - - "
};
