/* XPM */
static char *result[] = {
/* columns rows colors chars-per-pixel */
"64 64 220 2 ",
"   c #070809",
".  c #120E0E",
"X  c #14110F",
"o  c #0D1115",
"O  c #0E141B",
"+  c #151314",
"@  c #191413",
"#  c #14161B",
"$  c #14191D",
"%  c #1A1A1D",
"&  c #1B1719",
"*  c #0E0F14",
"=  c #231C1B",
"-  c #2A1E1A",
";  c #271815",
":  c #2E1214",
">  c #193218",
",  c #2B211B",
"<  c #3D261E",
"1  c #362519",
"2  c #131B23",
"3  c #1C1E23",
"4  c #1C1F2D",
"5  c #0F1821",
"6  c #231E27",
"7  c #311630",
"8  c #1E2126",
"9  c #1E2229",
"0  c #172026",
"q  c #1C2F35",
"w  c #22252C",
"e  c #29262E",
"r  c #24282F",
"t  c #252326",
"y  c #352926",
"u  c #252631",
"i  c #262B33",
"p  c #282D36",
"a  c #262938",
"s  c #292F39",
"d  c #252538",
"f  c #2C323C",
"g  c #24323C",
"h  c #35363D",
"j  c #353029",
"k  c #432B1C",
"l  c #4B2C1E",
"z  c #48311F",
"x  c #502F1A",
"c  c #462D22",
"v  c #40282B",
"b  c #4B3322",
"n  c #4C3629",
"m  c #543A27",
"M  c #593A21",
"N  c #583926",
"B  c #532E30",
"V  c #481319",
"C  c #1A421A",
"Z  c #5B4412",
"A  c #57472E",
"S  c #644226",
"D  c #654329",
"F  c #6B4627",
"G  c #714A2C",
"H  c #694532",
"J  c #6F4935",
"K  c #754A33",
"L  c #7C4F3A",
"P  c #744B38",
"I  c #7C513B",
"U  c #7F5234",
"Y  c #1F2446",
"T  c #152040",
"R  c #262B42",
"E  c #2E3541",
"W  c #2E3449",
"Q  c #2B3C4A",
"!  c #313442",
"~  c #353C4C",
"^  c #393C4B",
"/  c #373B46",
"(  c #363A51",
")  c #3D3F51",
"_  c #282F5C",
"`  c #273362",
"'  c #4C1446",
"]  c #1F4D4E",
"[  c #37404E",
"{  c #3F4044",
"}  c #3B4255",
"|  c #3A4456",
" . c #3F4B63",
".. c #43455C",
"X. c #4A4B5A",
"o. c #504F55",
"O. c #4B4C64",
"+. c #474A67",
"@. c #4D516C",
"#. c #495467",
"$. c #55576A",
"%. c #4D5673",
"&. c #525572",
"*. c #575B77",
"=. c #5D617D",
"-. c #586376",
";. c #58636D",
":. c #7A6A74",
">. c #67696E",
",. c #7F5340",
"<. c #A93434",
"1. c #A63334",
"2. c #B6393A",
"3. c #8D5E3B",
"4. c #85563A",
"5. c #905F3D",
"6. c #8F613E",
"7. c #91623E",
"8. c #8C5B43",
"9. c #8D5D49",
"0. c #855742",
"q. c #915F48",
"w. c #A54C55",
"e. c #9E6A44",
"r. c #976446",
"t. c #8F674B",
"y. c #A26D46",
"u. c #A26F49",
"i. c #A67047",
"p. c #AC754D",
"a. c #A9744C",
"s. c #AF7750",
"d. c #AE7A55",
"f. c #B47D53",
"g. c #B97F53",
"h. c #A56770",
"j. c #C86972",
"k. c #3D9F39",
"l. c #3FA239",
"z. c #45973A",
"x. c #469A3A",
"c. c #43AC3E",
"v. c #479743",
"b. c #489A43",
"n. c #479E59",
"m. c #4BA34C",
"M. c #4EAB61",
"N. c #D5A032",
"B. c #D9A238",
"V. c #D7A12F",
"C. c #E0A837",
"Z. c #BC8359",
"A. c #BDA652",
"S. c #BD8C68",
"D. c #C1865A",
"F. c #C4895C",
"G. c #D3A441",
"H. c #C9AA4F",
"J. c #C5926C",
"K. c #E3B147",
"L. c #5B508A",
"P. c #4A549B",
"I. c #44539A",
"U. c #524E8A",
"Y. c #5E6483",
"T. c #656A8B",
"R. c #646888",
"E. c #697789",
"W. c #787A85",
"Q. c #6A6F93",
"!. c #676D91",
"~. c #6D7194",
"^. c #6E7399",
"/. c #74799C",
"(. c #4657A2",
"). c #4D5AA5",
"_. c #505DAB",
"`. c #5060B0",
"'. c #797EA2",
"]. c #605490",
"[. c #AF3993",
"{. c #B83D9B",
"}. c #AE3CA5",
"|. c #AE39AA",
" X c #B03AAD",
".X c #B733AE",
"XX c #B833B0",
"oX c #BA3DB6",
"OX c #C638BE",
"+X c #BC41B3",
"@X c #778B9A",
"#X c #6C8497",
"$X c #7E82A6",
"%X c #7B96AB",
"&X c #4EB5BB",
"*X c #4EB6BB",
"=X c #4FBAC1",
"-X c #55C3CA",
";X c #828289",
":X c #93949D",
">X c #888E9A",
",X c #8387AB",
"<X c #9596A4",
"1X c #8895A8",
"2X c #90A5B5",
"3X c #AEAFB9",
"4X c #CCB690",
"5X c #C9B38D",
"6X c #DDC79E",
"7X c #96AFC4",
"8X c #AFB3C5",
"9X c #C4C5D2",
"0X c #C7CADC",
"qX c #C1C1CE",
"wX c #C5CAE2",
"eX c #D1D3E3",
"rX c #D9DAE7",
"tX c #CED4EC",
"yX c #E6E7F3",
"uX c #AEC6D8",
/* pixels */
"r w w w i f p f p p p f f f f f s s s s p g p p r : ; t q r r p f p f p p p p p u i i i i w 0 w f p f p p p p p i ; : 6 a u u u ",
"w w w 9 p E f f f f f f f p p p p p p i p r s 0 v h.w.: 8 e w p E h E f f f f f f f p p p w % r p p p p i a p 0 v h.w.- 0 u w r ",
"w w w 8 p E E f f f f f s f g p p p p p p i p 0 : w.j.: 0 q w i p r i r r r r r r r E E E r % w p p p p i i g 0 : w.j.V 0 r r 9 ",
"w w w 8 p E f f f f f f f s s s p p p p i i p 9 6 < B o.3 w r 9 8 8 8 0 8 3 3 0 % 8 [ [ | f $ r g p p i a s w 0 { : B y 8 r r r ",
"w 9 w 8 p E f E f f f f s s s s s p p p i p i i t 2 # / :.9 w w 9 8 8 t 8 8 3 3 0 8 ~ [ [ f $ 9 p p p p p r 0 E.f $ $ 9 i w w w ",
"w w w 8 p f E f f f f s s s s s p p p p p i i i u p i 3 o.@X% 3 w 8 8 8 8 3 8 3 % 8 / [ [ p % r f p i p r w S...8 p p r w r 9 r ",
"w t 9 8 p E f E f f f f s f s s p p p i p q i i u i r i + o.:., 8 8 8 8 8 3 3 3 % 8 [ [ | p % w p p p w r ;X/ 0 p r 9 i r w r w ",
"w w 9 w p f f f f f f f s s s s p p p p p r i i u r r r r # o.#X3 8 w 3 8 8 8 3 0 8 / [ [ p $ r p f q e ;X{ 8 i i i i i r w r r ",
"g p s p g p p p p p i i i r r p r r r r 9 9 t 8 8 8 8 8 8 8 o o.:.i i = w s p i i i p i i i r r r 8 e ;X{ $ r w 8 i E f f f f f ",
"f f f s p p p p i p p i i q r r r r r 9 w w 8 8 3 8 8 8 0 % t i o.@X8 $ w s p p p i i i i r r i 9 , @X{ $ r w 9 8 p E f E f f f ",
"f s s s p p p p p p i i i r r r r r r r w 8 w 8 8 8 8 % 3 % 3 } q | M.7 w s p s s p p p i i i t e ;X{ $ r w w w 8 i E f f f f f ",
"f s s f p f p p i i i i i p r i r r w w 9 8 8 8 8 8 3 8 3 8 8 ~ | q o.[.3 s 6 * o + o o o 8 r w ;Xh $ i w w 9 t 9 p E f E f f f ",
"f s s s s p p p p i i r i r r r r r r w w 8 8 8 3 0 8 3 3 3 3 ~ { | 9 { $.  $.>XW.:X<X3X3Xo.* $.h 3 r w w 9 w w 8 i E E f f f f ",
"s f s s p p s f s s s i p p p p i i i i r w w 9 t t 8 t 8 3 w [ | | h + ;.8X3X3X8XtXyXyXyXrXqXo.t p i r u i r r w p E f E f f f ",
"f s f s p f q 2 0 0 0 0 2 0 $ 2 $ 5 0 O O O O $ O O o o o o o q q g O O @X:.;.E.>X>X>X>X>X>X:X:.o O $ $ O O O O O i ~ f f f f f ",
"s s s s p $ , < k < < z < k < k k k < < z k < z < k k b b b z z Z j z z k k k k k k 1 k k k k k b b z z b b b b z , 5 f E f f f ",
"r r r 9 = b t.f.p.p.p.a.a.p.a.a.a.p.a.p.a.a.p.p.p.a.g.D.D.D.Z.Z.F.Z.Z.Z.F.D.D.D.D.D.D.D.D.D.D.D.Z.Z.Z.Z.D.D.D.Z.F.t.A t i r r w ",
"w 9 9 + J J.Z.8.7.e.i.y.i.7.e.e.y.e.y.e.y.e.y.e.e.e.y.y.i.y.i.i.i.i.i.i.a.i.p.f.f.s.f.s.f.p.u.a.i.i.a.i.i.i.y.a.Z.J.J.I & r w w ",
"w w 8 , S.d.0.j & , ; ; 1 , , , , , , - , - - - , , - , , , , , , , , = ; ; ; P f.f.f.f.D = ; ; , = , , , , , = n p.J.J.= 9 r w ",
"8 9 + I d.0.c ..~.Y.^.R.@.%.%.%.%.@.$.&.&.&.&.&.&.%.%.%.$.%.%.%.%.%.$.Q.Q.Y.T.h J f.f.D ~ %. .+. . .+.%.%.%.@.-...b a.S.8.+ w w ",
"9 6 . 4.a.b E *.E.$X*.X.j < 1 < 1 q q q q > > > > t 7 7 7 7 : : - : e $.R.,X*.*.3 u.5.4 R.h ; ; = , y y , , ; j !.E F F.7.X w 8 ",
"i u * L s.M R !.$...h W.6XV.B.B.A.=X=X&X*Xn.z.v.l.:.XX XoX{.<.<.<.<.U.4 d O.*.R.% u.3.p ( k 8.0.0.l z Z 6.r.i.F f | S F.7.+ p p ",
"E E + L s.M E T.[ >.eXtX5XN.G.B.A.*X&X&X&Xn.z.v.k.:..X}.|.[.1.1.1.<.L.`.I.d O.R.3 u.3.a ( k 9.4.c | $.g , 7.i.F ! } S F.7.$ E f ",
"f E + 4.s.M R Q.+ 8X0XwX5XN.G.B.A.*X&X&X&Xn.z.v.k.:.XX}. X[.<.<.1.<.L.(.`._ u Q.# u.3.a ( k 9.y -.uX2X1X#.; 7.G ! } S F.7.& E f ",
"~ ~ + I s.M W ~ W.9X9XwX4XN.G.B.A.*X*X*X*Xn.z.v.k.:.XX}. X[.<.1.<.<.L.(.).I.R ..4 y.3.a ( l 8.& 7X1X#X@X#X8 4.G ! } D F.8.+ s ! ",
"[ } + I s.M W 6 <XeX9XwX4XN.G.B.A.*X*X*X*Xn.z.v.k.:.XX}. X[.<.<.<.<.L.(.P._.R / 6 y.3.a ( k 8.& @X#X>XY.2X9 3.G ! } D F.7.@ p ! ",
"( [ + I s.M W u :XeX9XwX4XN.G.B.A.*X*X*X*Xn.z.v.k.:.XX}. X[.<.<.<.<.L.(.P._.Y ( w y.3.a ( k 9.; o.2X#X7X#X9 6.F ! ) D F.6.+ s E ",
"[ [ + I s.M W u :XeX9XwX4XN.G.B.A.&X&X&X*Xn.z.v.k.:.XX}. X[.<.<.<.<.L.(.P._.Y ( w y.8.a ( k 9.K ; ] E.-.p P u.F W ) D F.6.+ f E ",
"[ [ # I p.M W u :XeX9XwX4XV.G.B.A.&X&X&X&Xn.z.v.k.:.XX}. X[.<.<.<.<.L.(.P._.R ( 6 y.3.a ( k 9.,.G , 1 1 K e.e.F ! | S F.7.+ s h ",
"[ [ + L f.M W u :XeX9XwX4XV.G.B.A.*X&X&X&Xn.z.v.k.:.XX}. X[.<.<.<.<.L.(.P.).Y / 4 u.3.a ( k 9.,.6.t.e.i.e.r.e.F ! | S F.6.+ s E ",
"[ [ & L p.M W u :XeX9XwX4XN.G.B.A.*X&X&X*Xn.z.v.k.:.XX}. X[.1.<.<.<.L.(.P._.Y ( 6 u.5.a ( k 8.0.J ; ; ; K e.e.F ! } S F.7.+ s E ",
"~ [ + I s.M W u :XeX9XwX4XN.G.B.A.&X&X&X*Xn.z.v.k.:.XX}. X[.<.<.<.<.L.(.P._.Y ^ w y.3.a ( k t.P = X.@X@Xh K u.F ! } F F.7.+ g E ",
"f E + I f.M W u :XeX9XwX4XN.G.B.A.&X&X&X&Xn.z.v.k.:.XX}. X[.<.1.<.<.L.(.P._.Y ^ w y.3.a ( k 9.@ #.2X#X8X2Xr 3.G h } D D.7.+ E E ",
"E E + L s.M W u :XeX9XwX4XN.G.B.A.&X&X&X=Xn.z.v.k.:.XX}. X[.<.<.<.<.L.(.P._.Y ^ 6 y.3.a ( k 8.& #X#X:XE.7Xj 4.G E } D F.7.+ E E ",
"f E + L s.M W u :XeX9XwX4XN.G.B.A.&X&X&X&Xn.z.v.k.:.XX}. X[.<.<.<.<.L.(.P._.Y ^ 4 y.3.a ( l 8.+ %X%XE.>X@X3 4.G E | D F.6.+ ! f ",
"! / + L s.M W u :XeX9XwX4XN.G.B.A.&X&X&X=Xn.z.v.k.:.XX}. X[.1.<.<.<.L.(.P._.Y ^ w y.6.a ( k 9.c  .7X%X@X} - e.F ! ) D D.6.+ i / ",
"[ [ # L s.M E u :XeX9XwX4XN.G.B.A.&X&X&X=Xn.z.v.k.:.XX}. X[.<.<.<.<.L.(.P._.Y ^ 6 e.8.a ( c 9.4.j g ^ 9 1 8.a.F ! } D F.7.. 0 [ ",
"[ [ # L s.M W u :XeX9XwX4XN.G.B.A.&X&X&X&Xn.z.v.k.:.XX}. X[.1.<.<.<.L.(.P.).Y ^ 6 y.6.a ( k 0.L U M M S 3.7.7.S ! } S D.r.. 0 / ",
"~ ~ & L s.M Q r :XeX9XwX4XN.G.B.A.&X&X&X&Xn.k.v.l.:.XX|. X[.<.1.<.<.L.(.P._.Y ^ e y.8.4 Q.! X & & % , t & & & e /.~ D F.6.X p / ",
"f f + L s.m E q :XeX9XwX4XN.G.B.A.&X&X&X*Xn.z.v.l.:.XX|. X[.<.<.<.<.L.P.P._.Y ^ 6 y.8.6 ~.Y.T.!.Y.Y.Y.Y.Y.~.~.~.,X~ D F.6.& Q f ",
"8 8 . I p.M W u :XeX9XwX4XV.G.B.A.&X&X&X&Xn.z.z.k.:.XX}. X[.<.<.<.<.L.(.P._.Y ^ 6 u.8.6 Q.~.+./ Q.!.#X#X,XO.X./.,X~ D F.7.X 8 8 ",
"8 0 . I s.M W u :XeX9XwX4XV.G.B.A.&X&X&X&Xn.z.z.k.:.XX}. X[.1.<.<.<.L.(.P._.Y ^ 6 u.r.4 ^.O.$.>.| Y.E.%XO.;.>.X.,X~ D F.r.. 8 3 ",
"% 8 . I s.M W u :XeX9XwX4XN.H.B.A.&X&X&X&Xn.z.v.k.:. X}. X[.<.<.<.<.L.(.P._.Y ^ w e.3.4 ^.) o.;.~ Y.~.}.O.$.;.X.,X( D D.6.X 8 8 ",
"8 8 . U s.M W u :XeX9X0X4XV.B.N.A.&X&X&X&Xn.z.v.k.:.XX|. X[.1.<.<.<.L.(.P._.Y ^ 6 e.r.4 ~.T...( Y.T.~./.@XO.O./.,XW D D.6.X 8 3 ",
"3 3 X I s.M E p @XeX9X0X4XN.G.B.A.&X&X&X&Xn.z.v.k.:. X|.}.[.1.1.<.<.L.(.(.).R ) 9 y.3.4 ^.@...O.......+...$.O.@.,X~ D F.6.X 8 8 ",
"3 3 . I s.M R R.> uX0X0X4XN.G.B.A.&X&X&X=Xn.z.v.c.:.XX|.}.[.1.1.<.<.L.I._.` d R.3 y.r.4 ~.*.&.&.%.&.*.=.=.=.=.=.,XQ F Z.7.X 8 0 ",
"3 8 . L s.M R Q.a [.rXtX5XN.B.N.A.&X&X&X&Xn.z.v.k.>.XX}.}.[.1.1.<.<.L.`.).Y ) R.2 u.5.4 ^.&...+.O...O.O.O.O.O.&.,X~ S F.6.X 8 8 ",
"3 3 X L s.N s T.&./ >.<X6XC.K.K.H.=X-X-X-XM.m.b.c.h.OX+X+X{.2.2.2.2.]._ R ) Y.Y.% u.3.4 Q.*.@.@.@.@.&.*.*.*.*.*.,X~ F F.6.X 8 8 ",
"r w X L e.v E R.=./.( } o.Z Z Z m ] ] ] ] > > C C j ' ' ' ' V V V V d ! $./.&.R.2 u.3.4 '.&.O.O.O.+.@.&.&.&.@.*.,XW D D.8.X r w ",
"w w X L 9.P 6 O.}./.1XE.X.+.+.+.+.X.X.O.O.@.O.O.O.X.O.#.X.O.#. .X.+.$.,X,X/./.( N s.p.n ( ^.Q.Q.Q.Q.^./././.^./.$.j e.g.7.+ r w ",
"w w + H 8.9.J y > > 0 9 e e r e e u e e u e e r e e e e e e e t r r e % % 6 3 N p.f.f.a.n 2 % % % % % % & % % $ y e.g.f.6.+ r w ",
"w w 8 & L 0.8.L J J P P K K K K K K K K K K K U G U 3.3.3.3.3.4.3.3.3.3.3.3.7.d.f.f.f.f.p.r.3.7.5.3.5.5.3.5.5.7.p.f.f.f., 8 r w ",
"9 w 9 & A 4.8.8.9.8.y.y.y.y.y.y.y.y.y.y.u.u.y.y.y.y.p.Z.f.f.f.Z.f.f.f.f.f.f.f.f.s.s.f.s.f.f.f.f.f.f.Z.s.Z.s.f.f.f.Z.Z.4.& r r w ",
"w w w 9 = c H q.r.p.p.p.p.p.p.p.s.s.p.p.p.p.s.a.p.a.g.D.Z.Z.D.D.D.D.D.D.D.D.D.D.F.D.D.D.D.F.D.D.D.D.D.D.Z.Z.D.Z.Z.r.F , 9 r w w ",
"w w 8 9 9 o = k m b c b b b b b b b b c b c b b b c m N m m m N m N M m m m N N m N m m m m m m N N N m m m m m M y o q r r r 9 ",
"w 9 w t w r 3 O   1 k c 1 1 - 1 - 1 1 1 1 < k < < c < < k c c c c c c z n c c c c c c c c c c c c c c c z k 1   O 9 p w r r w w ",
"8 8 % 8 / ~ [ | # H L L P H H H H D H H H P I L L L L L L 8.8.8.8.8.8.3.8.8.8.8.8.8.3.8.8.8.3.8.8.8.8.8.8.4.H + i w 9 8 8 8 8 8 ",
"% 0 % 0 [ [ [ [ W = @ + . . + X . + + + X + X X . X X + X @ X X @ X @ @ @ + @ @ @ X @ @ X X @ . @ & X X X . @ w 8 8 8 t 8 8 8 8 ",
"r r r r E E E f ! f E 3 $ ..@.d o s a s r 8 9 9 w 3 8 8 3 8 3 3 % $ 8 9 q p u i i q i r u w i o e @...2 $ e 8 w w r i i i i r r ",
"f f f f p p i g u p i 3 f *.s # i r r w w r w w w w 9 t 8 8 8 8 8 8 8 % t p p p i p i i u i u i # f *.s % w w w 8 i E E f f f f ",
"f f p p s s p p p s 9 2 =.s # u i 9 i r r w w w w 9 9 8 8 8 8 8 8 % 0 % w p p i p i i i i r r r e + p L.2 % r 8 w i E f f E f f ",
"f p f f s p p p p u w X.f @ p u r r w 9 r w 9 9 9 t w 8 t 8 8 3 8 8 3 3 w f p p p i i i i i i r u u + f X.8 w w t p E E f f f f ",
"f f p f s p p p p w # f $ i u u r r r 9 w w w t 9 w 8 8 8 8 8 8 8 % 3 % q s p p g i i i r i r i r r r + f # 0 w 8 i E f f f f f ",
"f p f p s p s p p u   + i u r u r r r r w w 9 w w 9 9 t 8 8 3 8 8 8 3 % w s p i i i i i i r r r r r r r X   w r 8 i E f ! f f f "
};
