/* XPM */
static char *result[] = {
/* columns rows colors chars-per-pixel */
"64 64 236 2 ",
"   c #17181C",
".  c #1C1E23",
"X  c #1C1E26",
"o  c #1E2126",
"O  c #1F232A",
"+  c #1F282B",
"@  c #22252C",
"#  c #24282F",
"$  c #2B262D",
"%  c #232630",
"&  c #262A33",
"*  c #292D36",
"=  c #292F39",
"-  c #272E39",
";  c #332C34",
":  c #352D37",
">  c #2B3136",
",  c #2C323C",
"<  c #2E393D",
"1  c #34333B",
"2  c #3A323C",
"3  c #323B3E",
"4  c #303036",
"5  c #30242E",
"6  c #44323D",
"7  c #452E3B",
"8  c #2E3541",
"9  c #2F3946",
"0  c #313743",
"q  c #323A45",
"w  c #343D4B",
"e  c #3D3A45",
"r  c #493843",
"t  c #573947",
"y  c #643D4D",
"u  c #364245",
"i  c #37424B",
"p  c #39454B",
"a  c #3C4A4D",
"s  c #384346",
"d  c #3B4551",
"f  c #3D4B52",
"g  c #394754",
"h  c #3C5659",
"j  c #396765",
"k  c #4C434B",
"l  c #48444A",
"z  c #514449",
"x  c #504247",
"c  c #414D53",
"v  c #4B4B54",
"b  c #574B54",
"n  c #425256",
"m  c #44545B",
"M  c #4A5B5E",
"N  c #465A5D",
"B  c #56565C",
"V  c #63404E",
"C  c #6A4755",
"Z  c #744556",
"A  c #6F535C",
"S  c #4A5D62",
"D  c #425A60",
"F  c #545B61",
"G  c #6F5A65",
"H  c #4C6165",
"J  c #49696B",
"K  c #53656A",
"L  c #536A6C",
"P  c #566568",
"I  c #586D71",
"U  c #4B7978",
"Y  c #5B7475",
"T  c #5E7B7A",
"R  c #587575",
"E  c #526F6F",
"W  c #696367",
"Q  c #76666D",
"!  c #646D71",
"~  c #746B72",
"^  c #64797A",
"/  c #79767A",
"(  c #83495C",
")  c #8C7078",
"_  c #47837E",
"`  c #55817E",
"'  c #66817E",
"]  c #73847F",
"[  c #87807E",
"{  c #8F7B84",
"}  c #36AA9C",
"|  c #3F9C91",
" . c #488A84",
".. c #588783",
"X. c #57938D",
"o. c #499D94",
"O. c #579C95",
"+. c #46948B",
"@. c #638382",
"#. c #658D8A",
"$. c #698886",
"%. c #7B8E8D",
"&. c #748988",
"*. c #6D928E",
"=. c #65938D",
"-. c #73918E",
";. c #7C928E",
":. c #649B94",
">. c #6C9A95",
",. c #699692",
"<. c #749592",
"1. c #749A96",
"2. c #799B97",
"3. c #6E8F90",
"4. c #47A599",
"5. c #56A49B",
"6. c #59A79D",
"7. c #64A59C",
"8. c #6BA59D",
"9. c #68A59C",
"0. c #74A39C",
"q. c #7BA29D",
"w. c #4BAEA3",
"e. c #5CADA2",
"r. c #56ADA2",
"t. c #5AB3A8",
"y. c #47B1A5",
"u. c #65ADA3",
"i. c #6CACA3",
"p. c #73ABA3",
"a. c #7BABA4",
"s. c #7BA9A3",
"d. c #64B1A6",
"f. c #6BB1A7",
"g. c #6DB4A9",
"h. c #64B6AB",
"j. c #74B4AA",
"k. c #7CB5AC",
"l. c #7CB9AF",
"z. c #75B7AC",
"x. c #7EBBB1",
"c. c #75BDB4",
"v. c #6EBEB1",
"b. c #878989",
"n. c #958789",
"m. c #879897",
"M. c #9C9B9A",
"N. c #959899",
"B. c #888C91",
"V. c #A39A98",
"C. c #A3908F",
"Z. c #87A49E",
"A. c #98A19E",
"S. c #9B9EA1",
"D. c #83ABA5",
"F. c #89AAA5",
"G. c #98A9A6",
"H. c #83B4AC",
"J. c #8AB3AD",
"K. c #83B8AF",
"L. c #84BBB2",
"P. c #8BBCB4",
"I. c #8BB7B0",
"U. c #91BCB5",
"Y. c #96BAB5",
"T. c #98B2AD",
"R. c #A4A4A3",
"E. c #ACACAC",
"W. c #A7A9A7",
"Q. c #B7A9A6",
"!. c #A8B1AD",
"~. c #A7B8B5",
"^. c #B3B3B3",
"/. c #BCBCBC",
"(. c #B7B7B6",
"). c #B2B1AF",
"_. c #ACA09E",
"`. c #CD8A8B",
"'. c #D09B99",
"]. c #CAA29E",
"[. c #D4A5A2",
"{. c #C5BBB9",
"}. c #D9BBB7",
"|. c #C7AAA7",
" X c #8DC2B9",
".X c #88C1B7",
"XX c #94C3BB",
"oX c #99C5BE",
"OX c #97C8BF",
"+X c #ABC3BD",
"@X c #BBC1BE",
"#X c #C6C2BE",
"$X c #DDC0BD",
"%X c #E0C2BE",
"&X c #C5BFC1",
"*X c #9BCAC2",
"=X c #97C8C1",
"-X c #94CCC4",
";X c #A4CBC5",
":X c #BDC5C4",
">X c #B6CBC7",
",X c #B1D2CD",
"<X c #C4C4C4",
"1X c #CBC6C3",
"2X c #CCCCCB",
"3X c #C7C9C8",
"4X c #D4CCC9",
"5X c #C9D3CE",
"6X c #D5D2CF",
"7X c #D0CFD1",
"8X c #CDD3D1",
"9X c #C9DAD7",
"0X c #D3D4D3",
"qX c #DAD6D3",
"wX c #DBDAD6",
"eX c #DBDCDC",
"rX c #D5D9D9",
"tX c #CCCFD0",
"yX c #E6DAD6",
"uX c #E3C9C5",
"iX c #DCE2DD",
"pX c #CDE1DF",
"aX c #E8E3DE",
"sX c #DDE2E3",
"dX c #E3E5E4",
"fX c #EBE6E1",
"gX c #EDEBE5",
"hX c #E5EAEA",
"jX c #EDEDE9",
"kX c #E6E8E4",
"lX c #F1EFEA",
"zX c #F1EBE6",
"xX c #F4F3ED",
"cX c #FAF4ED",
"vX c #FAF9F2",
"bX c #E0DEE0",
/* pixels */
"@ @ @ @ & = , , , = - , , , = = > - * * * * & & & % # # @ & & & , 1 8 , , = = = = = & & # @ @ @ & = = = * & - * & & & & @ & @ & ",
"@ @ @ % * = , , , = , = , = = = - - * * * & * & & % & # # & & & = = = = - * = = = & = = = @ . @ & * = = & * * & & & & # % @ @ @ ",
"@ o @ @ & , , 8 , , , , , = = = = - & = & & & & & & @ & # @ @ % & & & % % @ @ @ @ & < 8 > & @ @ & = & = & & & & & & % & # @ @ @ ",
"@ @ @ @ * , 8 , 8 , - , = , = = - = = & & & & & % # & @ % # @ @ @ @ @ O @ o @ O @ % 8 w 0 = @ @ & = = & & & & & & + # @ # # @ # ",
"@ @ @ @ * , , 8 , , = , , , - = = * & = = & & & + + % # @ & @ @ @ o o o . o . . . % q w q > @ @ & = = & & & & & # # @ # @ # @ @ ",
"@ o O @ & , , 8 , , , , = = = = * - = & & & & & & & & @ # @ @ O o o o o o . o   . @ q w q > @ O & = = & * & & & & & & # # @ # @ ",
"@ @ O # * , , , , , , = , = = = * & * * # & # * 2 0 * $ @ @ @ + @ @ @ . . @ @ . . & w w q = @ @ & = * * & & & & & @ # & # # @ @ ",
"# # @ # * , , , , = , = - * * * * * * & # & 1 r t t 2 & @ @ # & # @ o @ . o o o O @ , 0 8 = @ O # = & # & & @ % % & & & & & & & ",
"= = & * = = = = - = * & * & & & & & # & & : t Z ( Z 6 $ . . & = < = @   . . . X X @ % & & & & # & & # @ + O & $ & & - , = = - = ",
"= > = = = = = & & & * & & & & & # # O # 2 r V Z ( Z 6 $ . . % = w w > = > , 3 , 0 > = & # # # # # # @ @ @ ; 6 7 : & , , 8 , , , ",
", > = = = = = = = = & & & & & @ @ o o & t V t 6 y y 7 $     @ 0 g S S S H H K K S m f e , & @ o O O + & : t Z y 6 4 , 8 8 , , , ",
", , = = = = & * & & & & & # & # & # + 4 y V 2 : t t 7 5 . o q M Y ' $.-.<.<.<.<.-.$.T L N f e , # # 4 6 6 V ( ( t 2 , , , , , , ",
"= = = , = * & * & & & = & & @ = i d q e t t : : t y 7 ; 0 n ^ <.F.J.I.U.U.U.XXU.U.I.J.D.2.-.' K s 1 t t r t Z Z t 0 8 - 8 , , , ",
", , = = = = = * = = & & & @ @ 3 S Y L B y t 5 5 t y b B L @.s.I.Y.=X*X*X*X*X*X*X*X;X;X=XXXI.F.-.I B C V 6 6 V Z t 1 , , , , , , ",
", = = = = * = = & & & & & & @ a &.D.s.%.Q y 5 5 t A / B.D.I.U.XXoXXX=X=X=X=X=X=X*X=X*XoXXXXXXXU.D.;.~ V 5 $ y y r : , = , , , , ",
"* = & = = = = = = = = & % & < S s.=X-XJ.{ B e : t ) B.T.=X-X=XoXoXU.U.oXU.U.U.XXOX=X*XoXXXXX=X*X*XT.B.W * 5 t y r : , - = , = - ",
"# # @ # = , > , = 8 = - % - w Y J.*X-XK.q.' m r A { B.T.oX=XoXoXOXOXoXXXU. XXXXXOXOX;X+XXX XXXXXOXoXT.<.D r y y r 1 & % & * & & ",
"@ @ @ @ & , 8 , 8 8 8 5 % 8 S $.U.*X=Xc.g.X.E F Q { N.G.oX=XXXXX;X+XoXXXI..X.XXXOXOX,XOXXXXXJ. XoX=X*XJ.' F C Z B r - @ % @ @ + ",
"o @ o @ & & & & % = 8 8 - w I 2.=X;X-Xg.t.O. .I G ) M.Y.*X*XXXXXOX;XXX X.XI..X.XOXOXoXoXXXT..X.X XoX*XY.D.%.) ) / ! w @ O @ O @ ",
"O o o o @ @ & @ X X 8 8 8 w @.F.;X*Xc.d.t.r...! ! { G.oX*X=XU.P.XXXXXX.XK.K..XK.XXOXXXXX X X.X.X XoXoXoXU.N.{ { N.&.c & @ O @ @ ",
"@ @ @ @ O @ @ . X % 8 8 9 m $.J.=X-Xz.t.t.r.` Y ] m.U.OXoX X.XK..X.X.XK..Xk..X.X X X XXX XJ.K..XP.XXU.XXXXF.{ { N.%.M < @ @ @ @ ",
"& % % & @ @ @ @ % % 8 8 w D 3.I.=X=Xj.e.t.O.` @.q.J.XXXX XP.K.k.l.l.l.k.k.x.H..X.X.X X X X.Xj.k.L.P.P.P. XT.n.{ N.;.H w & % & = ",
", = = = = = = = - - 8 w w S 3.P.U.L.g.r.r.O.#.3.J. XXX XP.K.j.j.l.x.z.z.k.k.k.x..XK.I. X XJ.a.j.l.L.L.P. XI.m.m.Z.%.P d 8 - , , ",
"q 0 0 < 0 0 8 , 8 8 8 w w S <.P.P.c.e.r.O.O.1.q.P.XX X XL.K.j.g.l.k.j.0.a.k.k.k.k..X.XJ..XJ.D.a.k.l.L.L..XI.F.F.F.2.L d 0 = 8 0 ",
"w w w w w 0 0 0 0 0 0 9 w S <.I.P.z.e.r.e.p.a.I.P.=XP.P.l.j.g.f.g.a.Z.Z.a.p.j.j.z.x..X.XD.Z.Z.Z.a.j.k.K.I.L.J.J.U.2.L w 1 - = 0 ",
"w w w w w w w w w w 9 0 w S 1.I.L.l.e.r.i.j.K.U.P.U.=XP.l.g.f.i.i.Z.A.A.Z.p.a.a.z.z.k.l.H.T.R.R.k.f.f.z.L.P.P.P.U.2.S w = - = 8 ",
"w d w w w w w 9 w 9 w 0 w S <.P.K.j.u.u.g.j.s.a.L. XP.P.k.f.d.d.a.A.).Q.G.Z.H.k.g.g.k.l..XXX#X#XF.i.d.g.K.L.P.P.P.2.S 8 = = = 8 ",
"w w w w w w w w w w 0 0 w H 1.P.k.j.u.u.i.i.>.0.H. X XP.k.g.6.7.Z.V.Q.Q.A.Z.F.a.f.d.g.l.J.+X#X#XT.q.u.d.l.J.I.P.P.2.S 9 = & , , ",
"d w w w w w w w w 0 0 9 w I q.P.k.g.e.O.O.X.#.1.K.U.U.L.z.d.7.>.[ [ C.V.M.A.A.D.i.u.g.k.D.!.{.{.!.D.d.t.j.l.K.L.L.q.L w = & = 0 ",
"w w w w w w w w w w 0 9 c ! D..Xl.d.r.+.U R @.1.L. XU.K.j.i.=.-.V.C.C.C.V.R.!.!.a.9.f.p.G._.Q.Q._.A.9.u.i.j.J.J.I.s.T m , & = 0 ",
"g w w w w w w w w 0 8 w m ^ D. Xc.e.o._ D S ^ <.H. XP.H.0.*.] b.).@X_.V.R.).#X#XZ.0.i.a.T.Q._.C.n.b.1.9.9.f.k.J.J.a.<.I i - = = ",
"w w w w w w 9 9 0 0 8 w K $.H..Xv.r. .J c v ! 2.K.P.P.k.s.m.b.C.Q.).A.Z.W.#XyX6X@XJ.a.J.!.W.A.b.) [ ;.8.6.u.k.J.D.q.3.Y n q = 8 ",
"8 8 8 8 8 8 8 , = 8 8 g Y 1.K..Xh.O._ S v v ^ -.a..Xz.H.J.W.Q.W.W.Z.' :.+X5XzXlX0X@X+XY.(.T.-.' [ [ b.9.5.e.l.J.q.] I H S n q = ",
"8 8 < , , = , = = = 0 m $.D.L.x.h.O.U D k b ! *.k..Xz.k.T.+X#X#XG.>.` :.+XwXxXcXgXeX5X>X@XT.=.#.N.M.;.=.O.e.l.H.2.` m f m n w 0 ",
"8 8 8 , , 8 , , = 8 w S <.H.P.L.h.X.J g k B ! -.K.x.f.i. X@XiXwX+XH.0.J.5XkXxXxXgXgXgXiX>XT.0.Z.@X@X;.X.5.e.z.a.*.E s > q e 0 0 ",
"q 0 0 0 0 8 8 8 - 0 m T q.P.L.l.e._ h w l b P &.K.x.9.:.H.+XiXkX#XOXXX+XiXlXlXlXxXxXcXjX5X+XY.+X6X#X;.` O.e.z.i.' N > @ & = , 1 ",
"w w w w w w w 0 8 d I <.D.P.P.j.X.J g 8 l v F ] H.x.:.` -.A.9XgXiXwX5X9XkXxXxXxXcXxXxXlXdXrX8X0X6X@X*._ O.r.d.:.E s @   . O & , ",
"w w w w w 0 8 0 w S #.a.H.K.x.i.U D 9 0 e l B ^ H.k.:.` ' A.5XaXxXzXaXaXgXlXgXgXzXzXxXjXjXgXgXaXqX(.#._ 4.r.t.X.D 3 O . . O & * ",
"9 w w q 8 - & q M T p.k.k.H.k.>.J g 9 9 l x z ! Z.l.7.' ] V.#XaXgXgXzXlXzXfXyXyXyXyXaXaXgXxXxXgXyX(.=._ o.w.6.X.N 3 * & & * , , ",
", , = , , = < a I 3.p.l.H.k.p...D w 9 w 2 r x W q.k.7.:.;.A.#XaXgXxXcXcXzXyX$X}.}.%XuXyXaXxXvXxX6X!.:.+.4.w.O.` h 0 - * * = = = ",
"@ O o # 8 f m K ' ,.i.j.K.a.3.R g 8 9 0 0 2 r B ;.a.0.:.,.Z.>XaXzXcXvXcXzXuX].`.`.'.[.$XyXcXvXzX#XF.O.+.4.6.O.` f , & @ % @ @ @ ",
". . o * p N P T #.>.8.j.x.a...S 9 8 9 0 = $ * l ' 0.0.:.X.>.+X5XyXyXwXwX%X$X'.`.`.`.[.$XfXxXlX0X!.1.o.} w.6.,.R p & @ o @ @ @ o ",
"  o & s m K K T =.9.p.z.k.0.R m w 8 9 0 > @ . 4 L *.q.>.` ` :.Z.+X).A.M.).#X[.[.'.[.%XyXxXgX1XR.-._ o.w.t.9.,.R i & @ o o . . . ",
"o # 3 a S L Y @.5.i.j.k.j.>.L g 9 8 9 8 = @ @ , N ' <.*.` E U ' [ [ Q ~ _.#XuXuX%X%XyXaXfX7XV.&.` _ 4.w.h.0.1.Y i @ O o o @ . . ",
"s s u a m I X.7.7.i.l.k.1...S g q 8 0 0 & & 0 f H T *.&.I F F F W W A ) _.%XaXzXfXaXaXiX@XA.^ L +.o.| w.g.a.1.Y s @ . @ o o . o ",
"a p s c S @.:.f.f.p.a.0.#.Y D d w 8 w < & > n L T @.-.&.] ~ ~ ~ / ~ ) ) Q.$XyXgXzXfX6X#XW.%.L J _ +.o.r.j.H.1.Y q @ @ . o o o o ",
"> > e S #.8.e.u.l.k.>.@.R S f i 0 8 q 8 # 3 H ' <.m.m.m.S.S.W.^.{.{.|.].].[.$X%XyX6X!.A.A.m.$.U j j +.7.l.H.*.P 3 . . @ @     @ ",
"> s D Y 7.h.d.d.l.0.Y S S m i w w w q q 3 n ' Z.G.G.N.G.^.<X2X7XwXwXqX$X[.].Q.#X6X4XW.N.N.Z.;.T j j _ u.l.q.$.H > o @ @ @ @ . @ ",
"N H #.9.e.d.z.k.0.' n < a n 3 < w w w g D @.G.@X:X(.R.R.&XtXtX2XtXtXbXrX{.|.Q.&XeXrX/.R.M.N.m./ n h X.f.p.1.' n < o # # @ @ @ @ ",
"' #.i.z.d.f.l.0.` n > # s s > > w g w r K <.:XeXeX<XE.W.<X0XrX7X:X&XeX7X^.S.S.^.0XeX<X).M.N.M.b.P E :.i.>.] L n < + # # @ @ @ @ ",
"0.8.i.g.l.l.0.' s > > < u 3 > > w w w w K m.tXjXjXqX^.).3XrXeXrX7XtX7X:XG.1.1.F.:X7X{.E.N.N.W.R.;.*.i.i.' ` H n < # # # @ # @ @ ",
"c.z.g.g.k.0.' n +   4 u u < & > w w w g I N.rXvXxXbX/.).3XqXdXeX7X&X&X~.q.O.O.p.~.&X/.E.N.V.^.(.G.F.k.8.' P M n 4 + # # # # @ @ ",
"j.l.x.k.2.` c > . o u a > + > > w w w g ^ W.iXvXlXeX(.^.3X0XqX0X3X/.^.G.8.5.4.5.G.^.^.Q.S.R.(.{.+XXX.X:.E N B n , # # # # # @ @ ",
"k.k.K.2.R c #   . # a a + + # < w w 9 g &.(.aXvXxXeX#X(.#X8XrXtX:X^.^.E.s.r.4.5.T.^.(.^.E.).&X2X@X+X.X:.H c n c 3 # # # # @ # @ ",
".XH.>.Y s + o o + 3 a a #   # < w w 8 c B.&XgXvXcXkX6X<X3X6XrX0X/./.&X:X;Xj.o.O.T.&X&X&X/.<X4X0X9X+X.X' n s n n > # @ # # @ @ @ ",
"0.>.E a > o @ # s a h s # O - 9 w w 8 F S.7XjXvXcXjX6X3X3X6XsXeX:X&X0XrX,X.Xr.5.+X2X2X2X<X3X6X6X5X+XD.` a 3 n c > @ @ @ @ @ @ @ ",
"R M q & = 8 = i H H n i < , 8 w 9 w w P ^.dXxXvXcXfX&X&XtX7XsXbXsXsXhXsXpX-Xw.w.=XtX7X2X>X>X2X2X#X!.q.R u > a a > @ o o @ o . o ",
"s 3 @ X = w g D E H g q 8 0 0 8 , < i / <XlXxXxXcXjX&X&X7XrXsXhXhXhXhXhXsX,Xt.y..X,XrXrX,X,XtX1X(.A.-.E < @ e s * @ @ @ o @ @ @ ",
"* # @ @ = d H L H f q , = 8 8 = & , v &.1XfXkXfXxXfX&X&X7XrXsXbXhXhXhXhXhX,Xh.y.h.-X9XbX9XpXrX7X@XR.&.J > @ 3 q * @ * & & & @ # ",
"# & = , w f L J n u > & - & = & # , b ) W.{.(.{.&X&X(.&X7XrXrXbXsXhXhXsXhX9Xc.y.w.c.9XsXsXsXsXrX#XW.$.N # @ 3 3 > & > , , = = = ",
"= 8 p h H H N f 3 = & & & & & % * 2 k B W ~ ~ ~ { B._./.7X7X7X7XsXsXsXhXhXpX-Xy.} t.,XsXhXhXhXbX8X~.] n & o > 3 = - = 8 > , , , ",
"p a m M H N a < & @ & & & % @ & 4 3 l k k r k k y ! N./.tXtX:X:XtX7XtX7XbX9X-Xh.} y.-X9XsXdXeX9X:XG.^ a # @ > 1 > = , , 8 , , , ",
"H H S M g q , = & & & & & & # & 1 e k z z z z z z W M.&XtX:X^.^./././.:X:X:XY.t.} } L.;X8X7X3X^.A./ B 3 @ @ , 4 > = , 8 8 , 8 = ",
"L L K m e & @ % & = * & & & @ * 3 r t z z z z k t G S./.&X/.~.E.E.~.E.E././.Y.h.} } c.;X3X<X(.R.n.W l > @ @ * > 4 4 , , , 8 = , "
};
