/* XPM */
static char * miku_left_xpm[] = {
"64 64 236 2",
"  	c #262A33",
". 	c #22252C",
"+ 	c #292D36",
"@ 	c #272E39",
"# 	c #292F39",
"$ 	c #24282F",
"% 	c #2C323C",
"& 	c #2E3541",
"* 	c #34333B",
"= 	c #232630",
"- 	c #2B3136",
"; 	c #1C1E23",
"> 	c #2E393D",
", 	c #1E2126",
"' 	c #1F282B",
") 	c #313743",
"! 	c #343D4B",
"~ 	c #1F232A",
"{ 	c #323A45",
"] 	c #17181C",
"^ 	c #2B262D",
"/ 	c #3A323C",
"( 	c #573947",
"_ 	c #493843",
": 	c #1C1E26",
"< 	c #44323D",
"[ 	c #744556",
"} 	c #83495C",
"| 	c #352D37",
"1 	c #452E3B",
"2 	c #332C34",
"3 	c #323B3E",
"4 	c #63404E",
"5 	c #303036",
"6 	c #643D4D",
"7 	c #3D3A45",
"8 	c #3D4B52",
"9 	c #44545B",
"0 	c #4A5D62",
"a 	c #53656A",
"b 	c #4C6165",
"c 	c #394754",
"d 	c #465A5D",
"e 	c #536A6C",
"f 	c #5E7B7A",
"g 	c #698886",
"h 	c #73918E",
"i 	c #749592",
"j 	c #66817E",
"k 	c #5B7475",
"l 	c #4A5B5E",
"m 	c #30242E",
"n 	c #384346",
"o 	c #799B97",
"p 	c #83ABA5",
"q 	c #8AB3AD",
"r 	c #8BB7B0",
"s 	c #91BCB5",
"t 	c #94C3BB",
"u 	c #89AAA5",
"v 	c #64797A",
"w 	c #425256",
"x 	c #3B4551",
"y 	c #37424B",
"z 	c #6A4755",
"A 	c #56565C",
"B 	c #586D71",
"C 	c #97C8C1",
"D 	c #A4CBC5",
"E 	c #9BCAC2",
"F 	c #96BAB5",
"G 	c #7BA9A3",
"H 	c #638382",
"I 	c #574B54",
"J 	c #746B72",
"K 	c #7C928E",
"L 	c #99C5BE",
"M 	c #888C91",
"N 	c #79767A",
"O 	c #6F535C",
"P 	c #76666D",
"Q 	c #7B8E8D",
"R 	c #748988",
"S 	c #3C4A4D",
"T 	c #696367",
"U 	c #98B2AD",
"V 	c #97C8BF",
"W 	c #94CCC4",
"X 	c #8C7078",
"Y 	c #8F7B84",
"Z 	c #425A60",
"` 	c #8DC2B9",
" .	c #ABC3BD",
"..	c #7BA29D",
"+.	c #83B8AF",
"@.	c #545B61",
"#.	c #B1D2CD",
"$.	c #88C1B7",
"%.	c #98A9A6",
"&.	c #959899",
"*.	c #526F6F",
"=.	c #57938D",
"-.	c #6DB4A9",
";.	c #75BDB4",
">.	c #646D71",
",.	c #9C9B9A",
"'.	c #6F5A65",
").	c #488A84",
"!.	c #579C95",
"~.	c #5AB3A8",
"{.	c #414D53",
"].	c #8BBCB4",
"^.	c #588783",
"/.	c #56ADA2",
"(.	c #64B1A6",
"_.	c #7CB5AC",
":.	c #879897",
"<.	c #73847F",
"[.	c #55817E",
"}.	c #75B7AC",
"|.	c #2F3946",
"1.	c #958789",
"2.	c #84BBB2",
"3.	c #74B4AA",
"4.	c #83B4AC",
"5.	c #7EBBB1",
"6.	c #7CB9AF",
"7.	c #5CADA2",
"8.	c #6E8F90",
"9.	c #566568",
"0.	c #87A49E",
"a.	c #7BABA4",
"b.	c #658D8A",
"c.	c #74A39C",
"d.	c #749A96",
"e.	c #73ABA3",
"f.	c #6BB1A7",
"g.	c #A4A4A3",
"h.	c #98A19E",
"i.	c #6CACA3",
"j.	c #C6C2BE",
"k.	c #B7A9A6",
"l.	c #B2B1AF",
"m.	c #65ADA3",
"n.	c #A39A98",
"o.	c #64A59C",
"p.	c #59A79D",
"q.	c #6C9A95",
"r.	c #A8B1AD",
"s.	c #C5BBB9",
"t.	c #A3908F",
"u.	c #87807E",
"v.	c #68A59C",
"w.	c #ACA09E",
"x.	c #65938D",
"y.	c #587575",
"z.	c #4B7978",
"A.	c #46948B",
"B.	c #878989",
"C.	c #BBC1BE",
"D.	c #6D928E",
"E.	c #47837E",
"F.	c #499D94",
"G.	c #6BA59D",
"H.	c #A7A9A7",
"I.	c #D5D2CF",
"J.	c #E6DAD6",
"K.	c #4B4B54",
"L.	c #49696B",
"M.	c #6EBEB1",
"N.	c #56A49B",
"O.	c #B7B7B6",
"P.	c #D3D4D3",
"Q.	c #F1EFEA",
"R.	c #F1EBE6",
"S.	c #C9D3CE",
"T.	c #649B94",
"U.	c #64B6AB",
"V.	c #B6CBC7",
"W.	c #DBDCDC",
"X.	c #EDEBE5",
"Y.	c #FAF4ED",
"Z.	c #F4F3ED",
"`.	c #DBDAD6",
" +	c #4C434B",
".+	c #DCE2DD",
"++	c #E6E8E4",
"@+	c #EDEDE9",
"#+	c #48444A",
"$+	c #3C5659",
"%+	c #CDD3D1",
"&+	c #D5D9D9",
"*+	c #E3E5E4",
"=+	c #C9DAD7",
"-+	c #47A599",
";+	c #DAD6D3",
">+	c #E8E3DE",
",+	c #4BAEA3",
"'+	c #EBE6E1",
")+	c #514449",
"!+	c #504247",
"~+	c #FAF9F2",
"{+	c #E3C9C5",
"]+	c #E0C2BE",
"^+	c #D9BBB7",
"/+	c #DDC0BD",
"(+	c #D4A5A2",
"_+	c #D09B99",
":+	c #CD8A8B",
"<+	c #CAA29E",
"[+	c #699692",
"}+	c #39454B",
"|+	c #36AA9C",
"1+	c #CBC6C3",
"2+	c #D0CFD1",
"3+	c #3F9C91",
"4+	c #364245",
"5+	c #396765",
"6+	c #C7AAA7",
"7+	c #B3B3B3",
"8+	c #9B9EA1",
"9+	c #D4CCC9",
"0+	c #CCCCCB",
"a+	c #C4C4C4",
"b+	c #BCBCBC",
"c+	c #C5BFC1",
"d+	c #E0DEE0",
"e+	c #CCCFD0",
"f+	c #BDC5C4",
"g+	c #ACACAC",
"h+	c #C7C9C8",
"i+	c #A7B8B5",
"j+	c #DDE2E3",
"k+	c #CDE1DF",
"l+	c #E5EAEA",
"m+	c #47B1A5",
"  .   .         + @   + # # #   . . . $     # # # # # % % & * %       . $ $ =       + + + + @ - # # % % % @ # % % % #   . . . . ",
". . . = $         + +   # # +   . ; . # # #   # # # + @ # # # #       $ $   =     +   + + + @ @ # # # % # % # % % % # + = . . . ",
". . . $   =             #   #   . .   - & >   . . . . = =       = . . $   .             #   @ # # # # % % % % % & % %   . . , . ",
"$ . $ $ . $ '             # #   . . # ) ! & = . ~ . , . ~ . . . . . $ = .   $ =           # # @ # # % # % @ % & % & % + . . . . ",
". . $ . $ . $ $           # #   . . - { ! { = ; ; ; , ; , , , . . .   . $ = ' '       # #   + # # @ % % % # % % & % % + . . . . ",
". $ . $ $             +   # #   ~ . - { ! { . ; ] , ; , , , , , ~ . . $ .                 # @ + # # # # % % % % & % %   . ~ , . ",
". . $ $   $ .           + + #   . . # { ! !   ; ; . . ; ; . . . ' . . . ^ + ) / + $   $ + +   + # # # % # % % % % % % + $ ~ . . ",
"              = = .     $   # $ ~ . # & ) % . ~ , , , ; . , . $   $ . .   / ( ( _ *   $   + + + + + + @ # % # % % % % + $ . $ $ ",
"# @ # # % @     ^   ~ ' . $     $         = . : : ; ; ; ] . # > #   ; ; ^ < [ } [ ( |     $           +   + # @ # # # # +   # # ",
"% % % & % %   | 1 < 2 . . . $ $ $ $ $ $   # - ) % 3 % - # - ! ! # = ; ; ^ < [ } [ 4 _ / $ ~ $ $           +       # # # # # - # ",
"% % % & & % 5 < 6 [ ( |   ' ~ ~ , .   % 7 8 9 0 a a b b 0 0 0 c ) . ] ] ^ 1 6 6 < ( 4 (   , , . .           # # # # # # # # - % ",
"% % % % % % / ( } } 4 < < 5 $ $ % 7 8 d e f g h i i i i h g j k l { , ; m 1 ( ( | / 4 6 5 ' $   $   $           +   # # # # % % ",
"% % % & @ & ) ( [ [ ( _ ( ( * n a j h o p q r s s t s s s r q u i v w ) 2 1 6 ( | | ( ( 7 { x y # .     #       +   + # % # # # ",
"% % % % % % * ( [ 4 < < 4 z A B h u r t C D D E E E E E E E C F r G H e A I 6 ( m m ( 6 A e k 0 3 . .       # # + # # # # # % % ",
"% % % % # % | _ 6 6 ^ m 4 J K p s t t t L E C E C C C C C C t L t s r p M N O ( m m 6 P Q G p R S .             # # + # # # # % ",
"@ # % # @ % | _ 6 ( m + T M U E E C t t L E C V t s s s L s s L L C W C U M X ( | 7 A Y q W C G 0 >   =   # # # # # # # #   # + ",
"    +   =   * _ 6 6 _ Z i U L V t t ` t  .D V V t t ` s t L V V L L C L U M Y O _ 9 j ..+.W E q k ! @ = @ # & # % - % # $ . $ $ ",
"' . . = . @ _ A [ z @.j q E C L ` q t t V #.V V t $.$.r t L  .D t t C L %.&.Y P @.*.=.-.;.C E s g 0 & = m & & & % & %   . . . . ",
". ~ . ~ . ! >.N X X Q p F E L ` $.$.U t L L V V $.$.r $.` t D V t t E E F ,.X '.B ).!.~.-.W D C o B ! @ & & # =         . , . , ",
". . ~ .   {.R &.Y Y &.s L L L ` $.$.` ` t t V t +.$.+.+.$.t t t ].s C E L %.Y >.>.^./.~.(.;.E D u H ! & & & : : .   . . , , , ~ ",
". . . . > l Q &.Y Y u t t s t ].$.+.q ` t ` ` ` $.$._.$.+.$.$.$.+.$.` L V s :.<.k [./.~.~.}.W C q g 9 |.& & = : ; . . ~ . . . . ",
"#   =   ! b K &.Y 1.U ` ].].].2._.3.$.` ` ` $.$.$.4.5._._.6.6.6._.+.].` t t q ..H [.!.~.7.3.C C r 8.Z ! & & = = . . . .   = =   ",
"% % @ & x 9.Q 0.:.:.r ` ].2.2.6.3.a.q ` ` r +.$.5._._._.}.}.5.6.3.3.+.].` t ` q 8.b.!././.-.2.s ].8.0 ! ! & @ @ # # # # # # # % ",
") & # ) x e o u u u r $.2.2.6._.a.p q $.q $.$._._._._.a.c.3._.6.-.3.+.2.` ` t ]...d.!.!./.7.;.].].i 0 ! ! & & & % & ) ) > ) ) { ",
") # @ * ! e o s q q 2.r +._.3.a.0.0.0.p $.$.5.}.3.3.e.a.0.0.a.-.f.-.3.6.].].C ].r a.e.7./.7.}.].r i 0 ! |.) ) ) ) ) ) ! ! ! ! ! ",
"& # @ # ! 0 o s ].].].2.}.f.f._.g.g.U 4.6._.}.}.a.a.e.0.h.h.0.i.i.f.-.6.].C s ].s +.3.i./.7.6.2.r d.0 ! ) |.! ! ! ! ! ! ! ! ! ! ",
"& # # # & 0 o ].].].2.+.-.(.i.u j.j.t $.6._.-.-._.4.0.%.k.l.h.a.(.(.f._.].].` 2.a.G 3.-.m.m.3.+.].i 0 ! ) ! |.! |.! ! ! ! ! x ! ",
"% %   # |.0 o ].].r q 6.(.m...U j.j. .q 6.-.(.f.a.u 0.h.k.k.n.0.o.p.-._.].` ` 4.c.q.i.i.m.m.3._.].d.b ! ) ) ! ! ! ! ! ! ! ! ! ! ",
") #   # ! e ..2.2.+.6.3.~.(.p r.s.s.r.p _.-.m.i.p h.h.,.n.t.u.u.q.o.(.}.2.s s +.d.b.=.!.!.7.-._.]...B ! |.) ) ! ! ! ! ! ! ! ! x ",
") #   % 9 f G r q q 3.i.m.v.h.w.k.k.w.%.e.f.v.a.r.r.g.n.t.t.t.n.h x.i.3.+.s ` 2.d.H y.z.A./.(.6.$.p >.{.|.) ! ! ! ! ! ! ! ! ! ! ",
"# # @ y B i a.q q _.f.v.v.d.B.1.t.w.k.U a.i.c.0.j.j.l.g.n.w.C.l.B.<.D.c.4.].` 4.i v 0 Z E.F.7.;.` p v 9 ! & ) ! ! ! ! ! ! ! ! c ",
"& # { w k 8...p q _.m.p.G.K u.X B.h.H.r.q a.q C.I.J.j.H.0.h.l.k.t.B.:.G _.].].+.o >.K.{.L.)./.M.$.4.g a ! & ) ) |.|.! ! ! ! ! ! ",
"# { w 0 b B <...q 6.7.N.v.B.u.u.j h U O.F  .C.P.Q.R.S. .T.j 0.H.H.k.H.q 4.}.$.a.h v K.K.0 E.!.U.$.+.d.k c & & # % & & & & & & & ",
") ! w 9 8 9 [.o 4.6.7.!.x.K ,.&.b.x.U C.V.S.W.X.Y.Z.`. .T.[.q.%.j.j. .U _.}.$._.D.>.I  +Z z.!.U.5.2.p g 9 ) # # # % # % % > & & ",
") ) 7 { - n *.D.a.}.7.N.=.K C.C.0.c.U V..+X.X.X.Z.Z.++S.q c.4. .`..+C.` i.f.5.+.h >.A  +c L.=.U.2.].4.i 0 ! & # % % & % % & & & ",
"* % #   . - d j i.}.7.!.[.K j.I. .F  .S.@+Y.Z.Z.Q.Q.Q..+ .t V j.++.+ .4.T.v.5.+.R 9.I #+! $+E.7.6.2.]...f 9 ) @ & & & ) ) ) ) { ",
"%   ~ ; ] . n *.T.(./.!.E.D.C.I.P.%+&+*+Q.Z.Z.Y.Z.Z.Z.++=+S.`..+X.=+h.h [.T.5.4.<.@.K.#+& c L.=.3.].].p i B x & ) ! ! ! ! ! ! ! ",
"+   ~ ; ; ~ 3 Z =.~./.-+E.b.O.;+>+X.X.@+@+Z.R.R.X.X.Q.X.>+>+R.Z.>+S.h.j [.T._.4.v A #+7 ) |.Z z.i.5.+.4.a.b.0 ! ) & ) ! ! ! ! ! ",
"% % +     + 3 d =.p.,+F.E.x.O.J.X.Z.Z.X.>+>+J.J.J.J.'+R.Q.R.X.X.>+j.n.<.j o.6.0.>.)+!+#+|.|.c L.q._.4._._.e.f l {   @ & { ! ! |.",
"# # # + + @ ) $+[.!.,+-+A.T.r.I.Z.~+Z.>+J.{+]+^+^+/+J.R.Y.Y.Z.X.>+j.h.K T.o._...T !+_ / ! |.! Z ^.e._.4.6.e.8.B S > # % % # % % ",
". . . = .   % 8 [.!.p.-+A.!.u j.R.~+Y.J./+(+_+:+:+<+{+R.Y.~+Y.R.>+V.0.[+T.c.a.K A _ / ) ) |.& c y.8.a.+.3.i.[+j a 9 8 & $ , ~ . ",
", . . . , .   }+y.[+p.,+|+F.d.r.P.Q.Z.'+/+(+:+:+:+_+/+]+`.`.J.J.S. .q.=.T.c.c.j #++ ^ # ) |.& |.0 ^.a.5.3.G.q.b.f 9.d }++ , ; ; ",
"; ; ; , , .   y y.[+v.~.,+F.E.h g.1+X.Z.J.]+(+_+(+(+j.l.,.h.l. .0.T.[.[.q...D.e 5 ; . - ) |.& ! 9 y.c._.}.e.v.x.f a a 9 n   , ] ",
"; ; . , , ~ . y k d.c.U.,+-+E.[.R n.2+'+>+J.]+]+{+{+j.w.J P u.u.j z.*.[.D.i j d % . . # & |.& |.c e q.3._.3.i.N.H k e 0 S 3 $ , ",
", ; , , . ; . n k d.a.-.,+3+F.A.e v h.C..+>+>+'+R.>+]+w.X O T T @.@.@.B R D.f b 8 )     ) ) & { c 0 ^.d._.6.i.o.o.=.B 9 S 4+n n ",
", , , , ; . . { k d.4.3./.F.A.E.L.e Q H.j.I.'+R.X.J./+k.X X J N J J J <.R h H f e w -   > ! & ! x Z k b.c.a.e.f.f.T.H 0 {.n }+S ",
". ] ] . . ; ; 3 9.D.4.6.o.A.5+5+z.g :.h.h.r.I.J.]+/+(+<+<+6+s.s.7+H.8+8+:.:.:.i j b 3 $ & { & ) y 8 0 y.H q._.6.m.7.G.b.0 7 - - ",
". ; . . . . , - b g ..6.m.E.5+5+f K 0.&.&.H.9+I.j.k.<+(+/+;+`.`.2+0+a+7+%.&.%.%.0.j w 3 { { ! ! ! y 9 0 0 k c.6.(.(.U.o.k Z n - ",
". . . . $ $ , > w j d.e.f.=.$+w N :.&.,.g.b+&+W.c+k.6+s.&+d+e+e+0+e+e+c+g.g.O.f+C.%.H Z c ! ! ! > 3 w S > w j c._.}.(.7.v.b.b d ",
". . . . $ $ ' > w e <.q.i.T.*.9.B.,.&.,.l.a+W.P.7+8+8+7+2+W.c+f+2+&+P.a+H.g+a+W.W.f+i a _ ! c ! - - n n $ - w [.c.6.f.(.}.i.b.j ",
". . $ . $ $ $ > w b [.j i.i.D.K g.H.&.&.g+s.2+f+u d.d.%.f+2+e+2+&+W.&+h+l.7+;+@+@+e+:.a ! ! ! ! - - 3 4+> - - n j c.6.6.-.i.G.c.",
". . $ $ $ $ ' 5 w l 9.j G._.u %.O.7+n.&.g+b+c+i+e.!.!...i+c+c+2+W.*+;+h+l.b+d+Z.~+&+&.B c ! ! ! -   > 4+4+5 ] ' w j c._.-.-.}.;.",
". . $ $ $ $ $ % w A d *.T.$.t  .s.O.g.8+k.7+7+%.N.-+N.G.%.7+b+h+P.;+P.h+7+O.W.Q.~+.+H.v c ! ! ! - - ' - S 4+, ; - {.[.o _.5.6.3.",
". $ . $ $ $ $ 3 {.w {.b T.$. .C.0+c+l.g+7+O.7+U N.-+/.G g+7+7+f+e+&+%+j.O.j.W.Z.~+>+O.R c |.! ! > $ ' ' S S $ ; ] $ {.y.o +._._.",
". . . $ $ . $ - w w n w j $. .=+P.9+a+b+c+c+c+U !.F.3.D f+c+b+b+P.&+I.h+a+I.++Y.~+X.c+M {.& ! ! > $ ] $ S S 3 ' , , ' n k q.4.$.",
". . . . . . . - {.w 3 S [.p  .S.I.I.h+a+0+0+0+ .N./.$.#.&+P.c+f+W.j+I.h+h+I.@+Y.~+@+2+8+@.& ! ! |.@ ~ $ n $+S n $ . , - S *.q.c.",
", ; , . , , . - S S - 4+y...r.j.0+0+V.V.0+2+e+C ,+,+W k+j+l+j+j+d+j+2+e+c+c+'+Y.~+Z.*+7+9.! ! |.! & % > y w b b y # & #   { l y.",
". . . , . . . + n 7 . > *.h h.O.1+e+#.#.&+&+#.$.m+~.#.j+l+l+l+l+l+j+&+2+c+c+@+Y.Z.Z.Q.a+N y > % & ) ) & { c b *.Z c ! # : . 3 n ",
"$ .       + . + { 3 . - L.R g.C.2+&+k+=+d+=+W U.m+U.#.l+l+l+l+l+d+j+&+2+c+c+'+Z.'+++'+1+R K.%   # & & # % { 8 b e b x # . . $ + ",
"# # # % % -   - 3 3 . $ d g H.j.&+j+j+j+j+=+;.,+m+;.=+l+j+l+l+j+d+&+&+2+c+O.c+c+s.O.s.H.X I % $   #   @   - 4+w L.e 8 ! % #   $ ",
"% % % - & # @ # 3 - ,   w <.i+%+d+l+l+l+j+#.~.|+m+W k+l+l+j+j+j+2+2+2+2+b+w.M Y J J J T A  +/ + =           # 3 8 d b b $+}+& # ",
"% % % & % % # - * - . $ S v %.f+=+W.*+j+=+W m+|+U.W =+d+2+e+2+e+f+f+e+e+b+&.>.6  + +_  + +#+3 5   . =       .   > S d b l 9 S }+",
"# & % & & % # - 5 % . . 3 A N h.7+h+2+%+D 2.|+|+~.F f+f+f+b+b+b+7+7+f+e+c+,.T )+)+)+)+)+)+ +7 *   $             # % { c l 0 b b ",
"% # & % % % 5 5 - + . . - #+T 1.g.O.a+h+D ;.|+|+U.F b+b+g+g+i+g+g+i+b+c+b+8+'.(  +)+)+)+)+( _ 3 + .       + #   = .   7 9 a e e "};
