/* XPM */
static char * mikua_xpm[] = {
"64 64 571 2",
"  	c #22262D",
". 	c #22252C",
"+ 	c #24272F",
"@ 	c #272C34",
"# 	c #2A2F38",
"$ 	c #2B303B",
"% 	c #2B313C",
"& 	c #2A303A",
"* 	c #2B313B",
"= 	c #2A2F39",
"- 	c #292E38",
"; 	c #282D37",
"> 	c #282D36",
", 	c #272C35",
"' 	c #262B34",
") 	c #252B33",
"! 	c #242931",
"~ 	c #242930",
"{ 	c #24282F",
"] 	c #242830",
"^ 	c #242831",
"/ 	c #252932",
"( 	c #2B323C",
"_ 	c #2B303A",
": 	c #252931",
"< 	c #23262E",
"[ 	c #21242A",
"} 	c #22262C",
"| 	c #272B34",
"1 	c #292E37",
"2 	c #282E37",
"3 	c #272D36",
"4 	c #262A33",
"5 	c #262A32",
"6 	c #23272E",
"7 	c #24272E",
"8 	c #2A303B",
"9 	c #282D35",
"0 	c #292F39",
"a 	c #292F38",
"b 	c #282C36",
"c 	c #282C35",
"d 	c #21242B",
"e 	c #272B33",
"f 	c #262B33",
"g 	c #262A31",
"h 	c #252930",
"i 	c #23272F",
"j 	c #21252C",
"k 	c #21252B",
"l 	c #2C323D",
"m 	c #2C333E",
"n 	c #272D35",
"o 	c #262A34",
"p 	c #252A32",
"q 	c #22272E",
"r 	c #2C323C",
"s 	c #2E343F",
"t 	c #252A33",
"u 	c #22262E",
"v 	c #23272D",
"w 	c #2D343F",
"x 	c #2A3039",
"y 	c #20242A",
"z 	c #202329",
"A 	c #1F2228",
"B 	c #1F2328",
"C 	c #2E3440",
"D 	c #313845",
"E 	c #2F3540",
"F 	c #2C323E",
"G 	c #2D333F",
"H 	c #202228",
"I 	c #1F2128",
"J 	c #1F2127",
"K 	c #1E2126",
"L 	c #1D2025",
"M 	c #1D1F24",
"N 	c #1D2024",
"O 	c #252830",
"P 	c #2F3541",
"Q 	c #333A48",
"R 	c #303743",
"S 	c #2D333E",
"T 	c #202229",
"U 	c #1E2026",
"V 	c #1C1E23",
"W 	c #1D1F23",
"X 	c #1E2025",
"Y 	c #2F3642",
"Z 	c #333B49",
"` 	c #313744",
" .	c #272C36",
"..	c #2C333D",
"+.	c #219899",
"@.	c #1CBFC0",
"#.	c #24A2A3",
"$.	c #323536",
"%.	c #483635",
"&.	c #B13F37",
"*.	c #B13F36",
"=.	c #493534",
"-.	c #313334",
";.	c #313333",
">.	c #21A0A0",
",.	c #17BEBF",
"'.	c #16BEBF",
").	c #15BEBF",
"!.	c #15BEBE",
"~.	c #14BEBE",
"{.	c #13BEBE",
"].	c #12BEBE",
"^.	c #297474",
"/.	c #303333",
"(.	c #34383B",
"_.	c #823F3F",
":.	c #B2433E",
"<.	c #B14039",
"[.	c #973A33",
"}.	c #2F3131",
"|.	c #304645",
"1.	c #1ABFBF",
"2.	c #19BEBF",
"3.	c #245C60",
"4.	c #13CACA",
"5.	c #00FFFF",
"6.	c #1FD8D8",
"7.	c #3A3B35",
"8.	c #5C3D35",
"9.	c #ED4C38",
"0.	c #5E3D35",
"a.	c #1CD6D5",
"b.	c #309B9A",
"c.	c #AC4436",
"d.	c #CB4837",
"e.	c #375752",
"f.	c #20797B",
"g.	c #12CACA",
"h.	c #1F787A",
"i.	c #2A2F3A",
"j.	c #1E8789",
"k.	c #1C9596",
"l.	c #19BEBE",
"m.	c #1DD5D4",
"n.	c #52B5B4",
"o.	c #864036",
"p.	c #8C4036",
"q.	c #C64737",
"r.	c #4F8886",
"s.	c #32908E",
"t.	c #18E1E1",
"u.	c #29BAB9",
"v.	c #8F726E",
"w.	c #B34537",
"x.	c #80514A",
"y.	c #18A4A5",
"z.	c #189495",
"A.	c #1F6567",
"B.	c #09E7E8",
"C.	c #28B6B5",
"D.	c #954136",
"E.	c #E24B38",
"F.	c #0CEFEF",
"G.	c #26BFBE",
"H.	c #874036",
"I.	c #E34B38",
"J.	c #393B35",
"K.	c #11EEEE",
"L.	c #19AAAB",
"M.	c #255E61",
"N.	c #245E61",
"O.	c #10DADA",
"P.	c #0EEDED",
"Q.	c #49AAA8",
"R.	c #643E35",
"S.	c #984236",
"T.	c #DD4A38",
"U.	c #D34A39",
"V.	c #394944",
"W.	c #0BEFEF",
"X.	c #25C1C0",
"Y.	c #7F4941",
"Z.	c #D44937",
"`.	c #633E35",
" +	c #27DDDD",
".+	c #19A8A9",
"++	c #225D60",
"@+	c #265F63",
"#+	c #2A5157",
"$+	c #308F8D",
"%+	c #B44537",
"&+	c #C94737",
"*+	c #37625F",
"=+	c #1ADADA",
"-+	c #523C35",
";+	c #6C3E35",
">+	c #23CCCC",
",+	c #14CECE",
"'+	c #14CDCD",
")+	c #12CDCD",
"!+	c #483C35",
"~+	c #533C35",
"{+	c #459492",
"]+	c #11EBEB",
"^+	c #0FEDED",
"/+	c #05F9F9",
"(+	c #19E1E0",
"_+	c #3E3B35",
":+	c #11CCCD",
"<+	c #2FA09E",
"[+	c #07F4F4",
"}+	c #3A3A34",
"|+	c #0FCCCD",
"1+	c #0ECCCD",
"2+	c #21242C",
"3+	c #20232A",
"4+	c #19DEDE",
"5+	c #1FD2D1",
"6+	c #2F9796",
"7+	c #24C4C4",
"8+	c #23262D",
"9+	c #22252D",
"0+	c #10CCCD",
"a+	c #11CDCD",
"b+	c #295D62",
"c+	c #1EB7B8",
"d+	c #1DB6B8",
"e+	c #1DD9D8",
"f+	c #2AB2B2",
"g+	c #22CFCF",
"h+	c #A0F5F0",
"i+	c #B5F2EB",
"j+	c #83F8F5",
"k+	c #ADF3ED",
"l+	c #6DFAF8",
"m+	c #04F9F9",
"n+	c #2AB2B1",
"o+	c #0AF5F5",
"p+	c #0AE5E6",
"q+	c #1AB7B8",
"r+	c #1CA7A8",
"s+	c #2A7F84",
"t+	c #E1EADF",
"u+	c #FEE3D4",
"v+	c #BAF1EA",
"w+	c #F3E5D8",
"x+	c #9BF5F1",
"y+	c #0CE9E9",
"z+	c #333C49",
"A+	c #2D8186",
"B+	c #0CE8E9",
"C+	c #353F4D",
"D+	c #2F8287",
"E+	c #86F7F3",
"F+	c #88F7F3",
"G+	c #E9E8DC",
"H+	c #BBF0E9",
"I+	c #68FBF8",
"J+	c #0BE8E9",
"K+	c #363F4E",
"L+	c #308287",
"M+	c #FBE4D5",
"N+	c #C5EFE7",
"O+	c #308288",
"P+	c #05F8F7",
"Q+	c #09F1F1",
"R+	c #06F6F6",
"S+	c #F9E2D4",
"T+	c #FDE2D3",
"U+	c #BFF0E8",
"V+	c #42FCFB",
"W+	c #39FDFC",
"X+	c #C4EFE7",
"Y+	c #01FEFE",
"Z+	c #01FDFD",
"`+	c #222E2F",
" @	c #222324",
".@	c #E2CABD",
"+@	c #DFEAE0",
"@@	c #9F8E85",
"#@	c #18ADAD",
"$@	c #353E4D",
"%@	c #253030",
"&@	c #262626",
"*@	c #9F8F85",
"=@	c #1BAEAE",
"-@	c #298084",
";@	c #FAE4D5",
">@	c #EFE6D9",
",@	c #EAE7DB",
"'@	c #0EE8E8",
")@	c #2E3540",
"!@	c #287F83",
"~@	c #F9E4D6",
"{@	c #2E3642",
"]@	c #313946",
"^@	c #2B8084",
"/@	c #92B8B5",
"(@	c #C74737",
"_@	c #A87069",
":@	c #2EA3A2",
"<@	c #2CADAC",
"[@	c #D9C2B5",
"}@	c #FCE3D5",
"|@	c #D3EDE4",
"1@	c #14E8E7",
"2@	c #439D9C",
"3@	c #4DEEEE",
"4@	c #353D4B",
"5@	c #2E8286",
"6@	c #AFB9B5",
"7@	c #D3BDB1",
"8@	c #5DEFEE",
"9@	c #09E8E9",
"0@	c #313945",
"a@	c #8AB6B4",
"b@	c #BD4036",
"c@	c #BD4136",
"d@	c #A03E38",
"e@	c #353839",
"f@	c #36393B",
"g@	c #326969",
"h@	c #A7879B",
"i@	c #A98499",
"j@	c #E6CAC3",
"k@	c #CBACB0",
"l@	c #82C3CB",
"m@	c #15E0DF",
"n@	c #473A3B",
"o@	c #BD453D",
"p@	c #BD433C",
"q@	c #BD423A",
"r@	c #48EEED",
"s@	c #0AE8E9",
"t@	c #267E81",
"u@	c #1DB2B3",
"v@	c #323A47",
"w@	c #2E757A",
"x@	c #FBC6E6",
"y@	c #FEC5E5",
"z@	c #FEDAD9",
"A@	c #FED0DF",
"B@	c #C5E0F0",
"C@	c #0EE6E7",
"D@	c #333A47",
"E@	c #343C49",
"F@	c #333B48",
"G@	c #303844",
"H@	c #0CEDED",
"I@	c #282E38",
"J@	c #1E7C7D",
"K@	c #22B2B4",
"L@	c #2D7479",
"M@	c #0FE6E7",
"N@	c #323945",
"O@	c #08E8E8",
"P@	c #1A6F70",
"Q@	c #04E7E7",
"R@	c #05E7E7",
"S@	c #06E7E7",
"T@	c #25B3B5",
"U@	c #2C7378",
"V@	c #E3B6D3",
"W@	c #E6B2D0",
"X@	c #E6C6C5",
"Y@	c #E6CEC1",
"Z@	c #EAD3C5",
"`@	c #EFD8CB",
" #	c #ECD5C8",
".#	c #E7CFC1",
"+#	c #E8CFC1",
"@#	c #E7D0C3",
"##	c #E7CEC2",
"$#	c #E7BDCB",
"%#	c #E7B3D1",
"&#	c #E7B3D0",
"*#	c #B2D8E6",
"=#	c #323947",
"-#	c #0DEDED",
";#	c #01F6F6",
">#	c #0AD2D2",
",#	c #1F2227",
"'#	c #1C1E22",
")#	c #1E2125",
"!#	c #2A313B",
"~#	c #26B3B6",
"{#	c #323A48",
"]#	c #2B7378",
"^#	c #215558",
"/#	c #737876",
"(#	c #9AA09C",
"_#	c #828783",
":#	c #373832",
"<#	c #3C3D38",
"[#	c #4A5058",
"}#	c #353E4C",
"|#	c #363E4D",
"1#	c #343D4B",
"2#	c #343C4A",
"3#	c #1FB6B8",
"4#	c #10E6E7",
"5#	c #323946",
"6#	c #0CCDCD",
"7#	c #1C1F23",
"8#	c #2A313C",
"9#	c #205558",
"0#	c #212429",
"a#	c #737875",
"b#	c #363F4D",
"c#	c #303744",
"d#	c #0BCDCD",
"e#	c #6F7472",
"f#	c #959B97",
"g#	c #7F8481",
"h#	c #394043",
"i#	c #3D4345",
"j#	c #484E56",
"k#	c #343B4A",
"l#	c #1FB7B8",
"m#	c #0FE7E8",
"n#	c #2F3743",
"o#	c #2D2F2D",
"p#	c #3F5A76",
"q#	c #5294D1",
"r#	c #4F8BC3",
"s#	c #2F3640",
"t#	c #303845",
"u#	c #2C313D",
"v#	c #2B323D",
"w#	c #0AEDED",
"x#	c #29303A",
"y#	c #313A46",
"z#	c #323A46",
"A#	c #313846",
"B#	c #2E3541",
"C#	c #20242B",
"D#	c #2D2F2E",
"E#	c #2B3039",
"F#	c #08EDED",
"G#	c #272B35",
"H#	c #21B2B4",
"I#	c #2E3641",
"J#	c #2D323D",
"K#	c #2F3132",
"L#	c #282C32",
"M#	c #252A31",
"N#	c #252831",
"O#	c #07EDED",
"P#	c #202328",
"Q#	c #1F2329",
"R#	c #1E7C7E",
"S#	c #1D7B7D",
"T#	c #03EBEB",
"U#	c #1AB1B2",
"V#	c #353D4A",
"W#	c #303643",
"X#	c #2D3440",
"Y#	c #333636",
"Z#	c #353633",
"`#	c #696E69",
" $	c #8D928E",
".$	c #88A1A2",
"+$	c #78C5D0",
"@$	c #7BBFC9",
"#$	c #3E403C",
"$$	c #343530",
"%$	c #282B2D",
"&$	c #0FBDBD",
"*$	c #1A7B7C",
"=$	c #1A7A7C",
"-$	c #1C6365",
";$	c #202429",
">$	c #03E7E7",
",$	c #15B0B1",
"'$	c #363E4C",
")$	c #363838",
"!$	c #737773",
"~$	c #94ADAB",
"{$	c #7FCFD0",
"]$	c #83C9CA",
"^$	c #434540",
"/$	c #282A2B",
"($	c #16A9AA",
"_$	c #1E2127",
":$	c #14B0B1",
"<$	c #343B49",
"[$	c #373F4E",
"}$	c #353D4C",
"|$	c #363938",
"1$	c #27292A",
"2$	c #13B0B1",
"3$	c #1B1D22",
"4$	c #2D323E",
"5$	c #CCB8AD",
"6$	c #CFBAAF",
"7$	c #8391A9",
"8$	c #4878A6",
"9$	c #7A8D9F",
"0$	c #567CA2",
"a$	c #B3A8AA",
"b$	c #CDB8AC",
"c$	c #A08F87",
"d$	c #282D38",
"e$	c #FAE0D1",
"f$	c #9FB1D2",
"g$	c #7F9BB7",
"h$	c #6196CA",
"i$	c #DCCFD3",
"j$	c #C6B1A5",
"k$	c #0EBABA",
"l$	c #188E8E",
"m$	c #CCB7AA",
"n$	c #CFBAAD",
"o$	c #838FA6",
"p$	c #4877A4",
"q$	c #759CAC",
"r$	c #8FB6B4",
"s$	c #87B3B2",
"t$	c #6BAAAA",
"u$	c #70AAAA",
"v$	c #5782A5",
"w$	c #B3A9AA",
"x$	c #A19187",
"y$	c #0FBEBF",
"z$	c #0ACDCD",
"A$	c #09CDCD",
"B$	c #19898A",
"C$	c #353E4B",
"D$	c #343D4A",
"E$	c #363732",
"F$	c #659F9F",
"G$	c #72B7B8",
"H$	c #445956",
"I$	c #47615F",
"J$	c #2E302D",
"K$	c #2F3641",
"L$	c #313844",
"M$	c #2F312F",
"N$	c #23282F",
"O$	c #1E2227",
"P$	c #31322C",
"Q$	c #31322D",
"R$	c #5B9090",
"S$	c #73BCBD",
"T$	c #67A6A6",
"U$	c #3D4F4C",
"V$	c #405754",
"W$	c #2B2E2E",
"X$	c #2A313A",
"Y$	c #293039",
"Z$	c #0E0F12",
"`$	c #000000",
" %	c #242932",
".%	c #232830",
"+%	c #262C34",
"@%	c #0D0F11",
"#%	c #21252D",
"$%	c #292E39",
"%%	c #20252C",
"&%	c #2C313C",
"*%	c #2B313A",
"=%	c #20232B",
"-%	c #1D2026",
";%	c #191C21",
">%	c #16181C",
",%	c #171A1E",
"'%	c #141619",
")%	c #191C22",
"!%	c #232730",
"~%	c #2D343E",
"{%	c #2D333D",
"    . + @ # $ % & & & & * * & = - - ; > , , ' ) ! ~ { { ] ^ / , & ( % * _ = = - ; > > @ : < [ } | 1 2 2 3 , ' ' 4 5 : : ] ] 6 6 ",
"  . . 7 @ = % ( * 8 & & * _ = = - 1 > 9 , , ' 4 : ~ { { { ] : ' ; 0 a 1 > b , , | c a - , ] d . e 1 2 > , ' ' f 5 g : h ] i 6 6 ",
"j k [ 6 c _ l m l % * * & & = a - 2 3 n @ | o 4 : h ] { i i { ] : p : ~ ] i 6 q i ' r s * , } . f > > , , ' t p p : h { { 6 u   ",
"k [ [ v c $ m w m l % * & x a a 2 2 3 n @ | 4 4 / : ] ] 6 6 6   } . k d y z A B y p C D E # 6 . 4 > , , ' f p p : h { { 6 6     ",
"d [ [ v c $ F G F l % * & & a a 2 2 > 9 @ | 4 4 / : ] ] i 6   k z H I J K L M N K O P Q R _ 6 . 4 > , , ' ' 5 5 : h { { 6 v   } ",
"d d [ 6 c $ F S l r * * & x a a 2 2 > 9 @ | 4 5 : : ] { 6     d T J K U L M V W X ] Y Z ` $ 6 . 5 > , , ' f 5 5 : : ] { i 6   } ",
". j d 6  .& l ..l % * +.@.@.#.$.$.%.&.&.*.=.-.;.>.,.,.,.,.'.'.).!.~.~.{.{.].].{.^./.(._.:.<.[.}.-.|.1.1.2.3.5 : : : h ] ] i 6 v ",
"] { + : > & * * * & 0 4.5.5.6.7.7.8.9.9.9.0.7.7.a.5.5.5.5.5.5.5.5.5.5.5.5.5.5.5.b.7.7.c.9.9.d.7.7.e.5.5.5.f.] ] h / f | 4 p : : ",
"3 3 , c 1 a # # - 2 > g.5.5.6.7.7.8.9.9.9.0.7.7.a.5.5.5.5.5.5.5.5.5.5.5.5.5.5.5.b.7.7.c.9.9.d.7.7.e.5.5.5.h.    { 4 - & i.0 - 2 ",
"i.= a - - - 1 > j.k.k.l.m.m.n.o.o.p.q.q.q.r.s.s.t.5.5.5.5.5.5.5.5.5.5.5.5.5.5.5.u.s.s.v.q.q.w.o.o.x.m.m.m.y.z.z.A.f & m l % * * ",
"$ & = # - - ; > B.5.5.C.7.7.D.9.9.E.7.7.7.F.5.5.5.5.5.5.5.5.5.5.5.5.5.5.5.5.5.5.5.5.5.G.7.7.H.9.9.I.J.7.7.K.5.5.L.f $ S m l r r ",
"$ $ i.= - 1 > > B.5.5.C.7.7.D.9.9.E.7.7.7.F.5.5.5.5.5.5.5.5.5.5.5.5.5.5.5.5.5.5.5.5.5.G.7.7.H.9.9.I.J.7.7.K.5.5.L.' $ S m m l r ",
"$ $ i.= - M.N.N.O.P.P.Q.R.R.S.T.T.U.V.V.V.W.5.5.5.5.5.5.5.5.5.5.5.5.5.5.5.5.5.5.5.5.5.X.V.V.Y.T.T.Z.`.R.R. +P.P..+++@+#+m m l r ",
"$ & = # - 5.5.5.$+7.7.%+9.9.&+7.7.*+5.5.5.5.5.5.5.5.5.5.5.5.5.5.5.5.5.5.5.5.5.5.5.5.5.5.5.5.=+7.7.-+9.9.9.;+7.7.>+5.5.,+m l r r ",
"i.= a - - 5.5.5.$+7.7.%+9.9.&+7.7.*+5.5.5.5.5.5.5.5.5.5.5.5.5.5.5.5.5.5.5.5.5.5.5.5.5.5.5.5.=+7.7.-+9.9.9.;+7.7.>+5.5.'+l % * * ",
"3 3 , c 1 5.5.5.$+7.7.%+9.9.&+7.7.*+5.5.5.5.5.5.5.5.5.5.5.5.5.5.5.5.5.5.5.5.5.5.5.5.5.5.5.5.=+7.7.-+9.9.9.;+7.7.>+5.5.)+i.0 - 2 ",
"] ] + : > 5.5.5.$+7.7.!+~+~+{+]+]+^+5.5.5.5.5.5.5.5.5.5.5.5.5.5.5.5.5.5.5.5.5.5.5.5.5.5.5.5./+]+]+(+~+~+~+_+7.7.>+5.5.:+f t / / ",
"j k d < | 5.5.5.$+7.7.7.7.7.<+5.5.5.5.5.5.5.5.5.5.5.5.5.5.5.5.5.5.5.5.5.5.5.5.5.5.5.5.5.5.5.5.5.5.[+}+7.7.7.7.7.>+5.5.|++ 6 < u ",
"y z z d i 5.5.5.$+7.7.7.7.7.<+5.5.5.5.5.5.5.5.5.5.5.5.5.5.5.5.5.5.5.5.5.5.5.5.5.5.5.5.5.5.5.5.5.5.[+}+7.7.7.7.7.>+5.5.1+  . . 2+",
"[ 3+z 3+j 5.5.5.4+5+5+6+7.7.<+5.5.5.5.5.5.5.5.5.5.5.5.5.5.5.5.5.5.5.5.5.5.5.5.5.5.5.5.5.5.5.5.5.5.[+}+7.7.7+5+5+K.5.5.1+8+9+. . ",
"} . j k k 5.5.5.5.5.5.C.7.7.<+5.5.5.5.5.5.5.5.5.5.5.5.5.5.5.5.5.5.5.5.5.5.5.5.5.5.5.5.5.5.5.5.5.5.[+}+7.7.K.5.5.5.5.5.0+] + i 6 ",
"5 p : ! ] 5.5.5.5.5.5.C.7.7.<+5.5.5.5.5.5.5.5.5.5.5.5.5.5.5.5.5.5.5.5.5.5.5.5.5.5.5.5.5.5.5.5.5.5.[+}+7.7.K.5.5.5.5.5.a+c , ' ' ",
"% b+c+d+d+5.5.5.5.5.5.e+f+f+g+5.5.5.5.5.5.5.5.5.h+i+i+j+5.5.5.5.5.5.5.5.5.k+i+i+l+5.5.5.5.5.5.5.5.m+n+f+f+o+5.5.5.5.5.p+q+q+r+_ ",
"R s+5.5.5.5.5.5.5.5.5.5.5.5.5.5.5.5.5.5.5.5.5.5.t+u+u+v+5.5.5.5.5.5.5.5.5.w+u+u+x+5.5.5.5.5.5.5.5.5.5.5.5.5.5.5.5.5.5.5.5.5.y+w ",
"z+A+5.5.5.5.5.5.5.5.5.5.5.5.5.5.5.5.5.5.5.5.5.5.t+u+u+v+5.5.5.5.5.5.5.5.5.w+u+u+x+5.5.5.5.5.5.5.5.5.5.5.5.5.5.5.5.5.5.5.5.5.B+m ",
"C+D+5.5.5.5.5.5.5.5.5.5.5.5.5.5.5.5.5.5.5.E+F+F+G+u+u+v+5.5.5.5.5.5.5.5.5.w+u+u+H+F+F+I+5.5.5.5.5.5.5.5.5.5.5.5.5.5.5.5.5.5.J+l ",
"K+L+5.5.5.5.5.5.5.5.5.5.5.5.5.5.5.5.5.5.5.M+u+u+u+u+u+v+5.5.5.5.5.5.5.5.5.w+u+u+u+u+u+N+5.5.5.5.5.5.5.5.5.5.5.5.5.5.5.5.5.5.J+l ",
"K+O+5.5.5.5.5.5.5.5.5.5.5.5.5.5.5.5.5.5.5.M+u+u+u+u+u+v+5.5.5.5.5.5.5.5.5.w+u+u+u+u+u+N+5.5.5.5.5.5.5.5.5.5.5.5.5.5.5.5.5.5.B+l ",
"K+O+5.5.5.5.5.5.5.5.5.P+Q+Q+R+5.5.5.5.5.5.S+T+T+u+u+u+U+V+V+W+5.5.5.5.5.5.w+u+u+T+T+T+X+5.5.5.5.5.Y+Q+Q+Q+Z+5.5.5.5.5.5.5.5.B+l ",
"K+L+5.5.5.5.5.5.5.5.5.C.7.7.<+5.5.5.5.5.5.`+ @ @.@u+u+u+u+u++@5.5.5.5.5.5.w+u+u+@@ @ @#@5.5.5.5.5.[+}+7.7.K.5.5.5.5.5.5.5.5.J+l ",
"$@D+5.5.5.5.5.5.5.5.5.C.7.7.<+5.5.5.5.5.5.%@&@&@.@u+u+u+u+u++@5.5.5.5.5.5.w+u+u+*@&@&@=@5.5.5.5.5.[+}+7.7.K.5.5.5.5.5.5.5.5.J+l ",
"z+A+5.5.5.5.5.5.5.5.5.C.7.7.<+5.5.5.5.5.5.%@&@&@.@u+u+u+u+u++@5.5.5.5.5.5.w+u+u+*@&@&@=@5.5.5.5.5.[+}+7.7.K.5.5.5.5.5.5.5.5.B+S ",
"R -@5.5.5.5.5.5.5.5.5.C.7.7.<+5.5.5.5.5.5.%@&@&@.@u+u+u+u+u+;@>@>@,@5.5.5.w+u+u+*@&@&@=@5.5.5.5.5.[+}+7.7.K.5.5.5.5.5.5.5.5.'@s ",
")@!@5.5.5.5.5.5.5.5.5.C.7.7.<+5.5.5.5.5.5.%@&@&@.@u+u+u+u+u+u+u+u+~@5.5.5.w+u+u+*@&@&@=@5.5.5.5.5.[+}+7.7.K.5.5.5.5.5.5.5.5.'@s ",
"{@!@5.5.5.5.5.5.5.5.5.C.7.7.<+5.5.5.5.5.5.%@&@&@.@u+u+u+u+u+u+u+u+~@5.5.5.w+u+u+*@&@&@=@5.5.5.5.5.[+}+7.7.K.5.5.5.5.5.5.5.5.'@S ",
"]@^@5.5.5.5.5.5.5.5.5./@(@(@_@:@:@<@5.5.5.%@&@&@[@u+u+u+u+u+u+u+u+}@|@|@|@;@u+u+*@&@&@=@5.5.1@:@:@2@(@(@(@3@5.5.5.5.5.5.5.5.J+* ",
"4@5@5.5.5.5.5.5.5.5.5.6@9.9.&+7.7.*+5.5.5.%@&@&@7@u+u+u+u+u+u+u+u+u+u+u+u+u+u+u+*@&@&@=@5.5.=+7.7.-+9.9.9.8@5.5.5.5.5.5.5.5.9@- ",
"4@5@5.5.5.5.5.5.5.5.5.6@9.9.&+7.7.*+5.5.5.%@&@&@7@u+u+u+u+u+u+u+u+u+u+u+u+u+u+u+*@&@&@=@5.5.=+7.7.-+9.9.9.8@5.5.5.5.5.5.5.5.9@- ",
"0@^@5.5.5.5.5.5.5.5.5.a@b@c@d@e@f@g@5.5.5.h@i@i@j@u+u+u+u+u+u+u+u+u+u+u+u+u+u+u+k@i@i@l@5.5.m@e@f@n@o@p@q@r@5.5.5.5.5.5.5.5.s@$ ",
"* t@5.5.5.5.5.5.5.5.5.u@, 2 % Y v@w@5.5.5.x@y@y@z@u+u+u+u+u+u+u+u+u+u+u+u+u+u+u+A@y@y@B@5.5.C@` D@E@F@v@G@H@5.5.5.5.5.5.5.5.s@I@",
"  J@5.5.5.5.5.5.5.5.5.K@G w Y G@v@L@5.5.5.x@y@y@z@u+u+u+u+u+u+u+u+u+u+u+u+u+u+u+A@y@y@B@5.5.M@N@v@v@v@]@D H@5.5.5.5.5.5.5.5.O@6 ",
"N P@Q@R@S@5.5.5.5.5.5.T@0@D 0@]@v@U@5.5.5.V@W@W@X@Y@Y@Z@`@`@ #.#.#+#`@`@`@@#####$#%#&#*#5.5.M@=#v@v@]@0@D -#5.5.5.5.5.;#Q@Q@>#,#",
"'#W )#{ !#5.5.5.5.5.5.~#Q {#v@v@]@]#5.5.5.^#} [ y z z /#(#(#_#:#:#<#(#(#(#[#}#|#}#1#2#3#5.5.4#D@=#5#]@D G@H@5.5.5.5.5.6#,#K )#X ",
"'#7#X { 8#5.5.5.5.5.5.~#Z Z {#v@]@]#5.5.5.9#. 0#z z A a#(#(#_#:#:#<#(#(#(#[#$@b#}#4@1#3#5.5.4#=#5#D D c#R H@5.5.5.5.5.d#K )#L N ",
"V 7#X { 8#5.5.5.5.5.5.~#Z Z {#v@]@]#5.5.5.9#. 0#z z A e#f#f#g#h#h#i#f#f#f#j#1#}#1#2#k#l#5.5.m#]@D G@R n#Y H@5.5.5.5.5.d#K K L L ",
"V M X { !#5.5.5.5.5.5.~#F@{#v@v@]@]@D C 1 h } [ y z z o#:#:#p#q#q#r#:#:#:#s#]@]@t#c#c#C F u#v#)@s w S ..r w#5.5.5.5.5.6#K K L L ",
"M M K { x#5.5.5.5.5.5.T@]@]@]@y#z#5#A#B## 5 6 . j k C#D#:#:#p#q#q#r#:#:#:#E#( ( !#& = = a - - - ; > c , | F#5.5.5.5.5.6#,#K K K ",
"X U J < G#5.5.5.5.5.5.H#..m I#G@v@F@v@R J#a , f f p p K#:#:#p#q#q#r#:#:#:#L#' f p M#O O ~ M#f ' f 5 / : N#O#5.5.5.5.5.6#z P#A ,#",
"Q#B B d i R#R#S#T#5.5.U#v ! 0 B#F@}#V#F@D W#B#X#Y#Z#Z#`# $ $.$+$+$@$ $ $ $#$$$$$%$[ z z k 6 f , @ @ f 4 5 F#5.5.&$*$=$-$j k d d ",
"y y y 3+[ [ ;$z >$5.5.,$N z ' w z+b#'$4@2#Z {#v@)$:#:#!$(#(#~${${$]$(#(#(#^$:#:#/$K X X H 8+e ; > n , | ' F#5.5.($] { 6 6     . ",
"k k y z z A ,#_$>$5.5.:$'#J t S <$[$|#}$1#2#E@F@|$:#:#!$(#(#~${${$]$(#(#(#^$:#:#1$X M X A   | - ; > , , ' F#5.5.($h { { 6 6     ",
"k k y y A ,#K K >$5.5.2$3$_$/ 4$<$[$b#}#1#5$6$6$7$8$8$9$(#(#~${${$]$(#(#(#0$8$8$a$b$b$c$,#  G#- d$;  ., ' F#5.5.($: ] { 6 6     ",
"k k y y A ,#K K >$5.5.2$3$_$/ 4$<$[$b#}#1#e$u+u+f$q#q#g$(#(#~${${$]$(#(#(#h$q#q#i$u+u+j$,#  G#- d$;  ., ' F#5.5.($: ] { 6 6     ",
"k k y z z A ,#_$>$5.5.:$V I t S <$[$|#}#1#e$u+u+f$q#q#g$(#(#~${${$]$(#(#(#h$q#q#i$u+u+j$A   | - ; > , , ' F#5.5.($h { { 6 6     ",
"y y y 3+[ [ ;$z k$6#6#l$L 3+' w z+b#'$4@2#m$n$n$o$p$p$q$r$r$s$t$t$u$r$r$r$v$p$p$w$n$n$x$P#8+| 2 ; > , @ ' y$z$A$B$] { 6 6     j ",
"B A A d ] 5 5 p M#! ~ { 6 : 0 B#F@C$D$F@0@E$:#:#:#:#:#F${${$G$:#:#H${${${$I$:#:#:#:#:#J$d 6 4  ., @ f 5 / : ] { i 6   } j k C#y ",
"L X _$8+= )@K$K$)@s G S l S P L$v@F@v@R l E$:#:#:#:#:#F${${$G$:#:#H${${${$I$:#:#:#:#:#M$N$] / 5 / : ] { i 6   } j k [ 3+z A ,#O$",
"A A z : l L$5#5#D ` R W#Y K$Y Y Y Y B#l > P$Q$Q$Q$Q$Q$R$S$S$T$Q$Q$U$S$S$S$V$Q$Q$Q$Q$Q$W$: ! : ] ] i 6     . k k k k . . j d y z ",
"] ] ] | % C )@C w G m l ( % * X$& Y$a 3 p 6 . [ [ z z Z$`$`$Z$L M X `$`$`$C#p t  %^ .%] p : ! ] i i u   . j d k } i 5 | o t / : ",
"3 3 b 1 & * * $ & = a - 2 ; 3 , +%f p ! i } k [ z z A Z$`$`$@%L M M `$`$`$#%9 > , @ f f p p ] ] i 6     . k y k   : 1 & i.$%- 2 ",
"& x # a # a - 1 > 9 , @ ' f p : ^ ] i 6   . d [ z z A Z$`$`$@%L M W `$`$`$%%, > , @ f f p p ] ] i 6     . k y k 6 f & m l &%* *%",
"* * & = - 1 > 9 , @ f : i <   9+2+d =%3+z z A A K K -%;%>%>%,%L W W '%>%)%!%, > , @ f f p p ] ] i i     . k y k 6 ' * w ~%{%l r ",
"& & x = - 1 > > , @ f f p M#~ ] { i 6 8+. . d d z z A A K K L N W W '#K 8+4 , > , @ f f p p ] ] i i     . k y k 6 ' * ~%S ..r ( ",
"& & = = - - > > , , f f p p ~ ~ { { 6 6 . . d d z z A A K K L N W W V K < 4 , > , @ f f p p ] ] i i     . k y k 6 ' $ S ....( ( "};
