/* XPM */
static char *_df1f263c1bc426cfa67c933ce47f03eWB61btcjQrcP47I8[] = {
/* columns rows colors chars-per-pixel */
"64 64 195 2 ",
"   c #191B1F",
".  c #1C1E23",
"X  c #1E2126",
"o  c #1F2228",
"O  c #1F2932",
"+  c #212227",
"@  c #22252C",
"#  c #2D262A",
"$  c #24282F",
"%  c #2C282A",
"&  c #352729",
"*  c #32292C",
"=  c #38282C",
"-  c #3D332E",
";  c #262A33",
":  c #282D36",
">  c #272E39",
",  c #292F38",
"<  c #342D34",
"1  c #3E2E34",
"2  c #2C323C",
"3  c #24323E",
"4  c #343334",
"5  c #3B3536",
"6  c #32353D",
"7  c #3B363B",
"8  c #6A251F",
"9  c #432B2E",
"0  c #4D2826",
"q  c #5D2A27",
"w  c #532B2B",
"e  c #5C2B2A",
"r  c #562523",
"t  c #4A3D2C",
"y  c #553C2E",
"u  c #432D32",
"i  c #4A2E33",
"p  c #4B3C31",
"a  c #4C353A",
"s  c #4B3837",
"d  c #5A383E",
"f  c #583236",
"g  c #622A26",
"h  c #6D2B27",
"j  c #642B29",
"k  c #6C2B27",
"l  c #712B26",
"z  c #752B26",
"x  c #76312D",
"c  c #6B3636",
"v  c #7B3936",
"b  c #4C402F",
"n  c #49443E",
"m  c #5A4A31",
"M  c #674828",
"N  c #724925",
"B  c #784A24",
"V  c #64552B",
"C  c #6C5C2E",
"Z  c #77582A",
"A  c #7C413E",
"S  c #64563E",
"D  c #7A5E31",
"F  c #78612C",
"G  c #273343",
"H  c #2E3541",
"J  c #2F3945",
"K  c #2E394A",
"L  c #303743",
"P  c #313946",
"I  c #393C45",
"U  c #343C4A",
"Y  c #3A3E4B",
"T  c #3B3641",
"R  c #363F51",
"E  c #433941",
"W  c #473D49",
"Q  c #523C45",
"!  c #6D3F42",
"~  c #36404E",
"^  c #3B414D",
"/  c #354252",
"(  c #3A4151",
")  c #3B475B",
"_  c #3C4B5E",
"`  c #364159",
"'  c #3F4C65",
"]  c #4B424D",
"[  c #4A4748",
"{  c #564948",
"}  c #565045",
"|  c #414554",
" . c #43495B",
".. c #464A5E",
"X. c #464C5B",
"o. c #444A57",
"O. c #5B4652",
"+. c #5D4852",
"@. c #534553",
"#. c #4C525E",
"$. c #50525F",
"%. c #6F4041",
"&. c #704141",
"*. c #7B4441",
"=. c #6A5F49",
"-. c #7C5F42",
";. c #454D62",
":. c #494F62",
">. c #4C5265",
",. c #4D546A",
"<. c #48556D",
"1. c #545966",
"2. c #51566C",
"3. c #545A6A",
"4. c #5B5E6B",
"5. c #555A65",
"6. c #495675",
"7. c #4F5B72",
"8. c #4A5B77",
"9. c #4B5B7A",
"0. c #485775",
"q. c #535B73",
"w. c #565E78",
"e. c #515770",
"r. c #5B606D",
"t. c #5D6373",
"y. c #57617A",
"u. c #57637E",
"i. c #59627B",
"p. c #7B786F",
"a. c #636A7B",
"s. c #6A6E7C",
"d. c #666974",
"f. c #6B707C",
"g. c #7A7876",
"h. c #822D26",
"j. c #83332D",
"k. c #843B36",
"l. c #893B34",
"z. c #8C691E",
"x. c #8F731D",
"c. c #895F24",
"v. c #88423B",
"b. c #886A29",
"n. c #927823",
"m. c #8E6E3F",
"M. c #947935",
"N. c #897947",
"B. c #988338",
"V. c #998440",
"C. c #83827C",
"Z. c #5F6A84",
"A. c #656D83",
"S. c #636D88",
"D. c #6E7482",
"F. c #6C758B",
"G. c #64708B",
"H. c #727B8F",
"J. c #7A7E8C",
"K. c #737785",
"L. c #757D92",
"P. c #787E94",
"I. c #6B7895",
"U. c #7A808F",
"Y. c #778196",
"T. c #7B8395",
"R. c #7D859C",
"E. c #7A859F",
"W. c #7884A2",
"Q. c #7C89A7",
"!. c #81869A",
"~. c #838A9D",
"^. c #8A8E9E",
"/. c #828BA3",
"(. c #858DA8",
"). c #8E92A2",
"_. c #8691AC",
"`. c #8C94AC",
"'. c #9095A5",
"]. c #9196AB",
"[. c #9499AB",
"{. c #8D98B4",
"}. c #939BB2",
"|. c #9A9FB2",
" X c #959DB8",
".X c #9CA2B5",
"XX c #9CA3BA",
"oX c #A1A7BD",
"OX c #A5AABD",
"+X c #A0A5B7",
"@X c #A4AAC2",
"#X c #A9AEC3",
"$X c #ACB1C5",
"%X c #B0B6CA",
"&X c #B2B7CB",
/* pixels */
"@ @ @ @ ; 2 2 2 , , , 2 2 , 2 , > > : : ; ; ; ; ; ; $ @ $ @ o @ $ $ ; ; H H , , , : ; ; $ @ o @ ; , , , : : ; ; ; ; ; ; $ ; O @ ",
"@ @ @ $ ; > 2 2 2 , , 2 , 2 , , , : : : ; : : ; ; @ @ $ @ @ $ $ ; > : ; ; ; , ; > , , , ; $ o @ : , , ; : : ; ; ; ; $ ; $ $ $ @ ",
"@ @ + @ > 2 2 2 2 2 2 , , 2 , , , , ; : ; ; ; ; ; $ @ @ @ $ ; ; H H < ; ; $ @ @ $ ; 2 2 2 ; @ @ ; , , ; : ; ; ; ; ; $ $ $ $ @ @ ",
"o @ + @ > 2 H H 2 2 2 2 , , , , : , > ; ; : ; ; ; ; ; ; ; ; H T Y R R Y H ; @ + X ; L U L , @ + ; , , ; ; ; ; ; $ $ $ $ @ $ @ @ ",
"@ @ o $ > 2 H 6 2 2 , 2 2 , , , : > : : ; : ; ; ; : H H H T R ..>.,.e.>...T ; + . @ P ~ P 2 @ o ; , : ; ; ; ; ; ; $ $ $ $ @ @ @ ",
"@ @ o $ > 2 2 2 2 2 2 2 , 2 , , : : : : : ; ; ; : L T U U R ..:.e.w.w.w.e...T ; X @ L ~ P 2 @ @ ; , : : ; ; ; ; $ ; $ $ $ $ @ @ ",
"@ o o o ; 2 2 2 2 2 2 , , , , , : : : : : ; $ : L U U P U R ..:.e.e.w.w.w.e.;.U @ @ J Y P , @ o ; , : : : ; ; ; ; $ $ ; $ $ @ $ ",
"; @ ; ; > , 2 2 , 2 2 , , : > : : : ; ; ; @ $ , Y W U U R R ..:.e.w.e.6.Z.w.e...2 ; 2 H H , @ o ; : $ ; ; $ $ $ $ ; ; ; ; ; ; $ ",
": : : : : , 3 : , : > : : : ; ; ; $ ; $ o O $ , ( ( U P Y ) ..,.e.w.w.i.u.i.y.<.J ; : > > ; @ ; $ ; $ $ $ $ @ @ $ ; 2 2 2 , , , ",
"2 , : , , , , : : : ; $ $ $ $ $ $ $ $ o + @ : L Y ~ J H U ( | ;.6.e.7.q.7.7.q.>.I : $ $ ; ; ; @ $ $ $ $ o @ o @ $ ; 2 2 2 2 2 2 ",
"2 : 2 , , , : : : : ; : ; ; ; $ $ $ @ @ + * u a T J 3 3 G K R ` _ _ _ _ ' _ | | s i * $ ; ; ; @ $ O $ o @ @ @ @ @ ; 2 H 2 2 2 2 ",
"2 2 , , , : : : : $ ; ; ; ; $ $ $ $ $ @ @ & w j a u < < 7 u E Q W ] ] ] ] ] Q d c e = $ $ ; ; ; $ @ $ @ @ @ o o $ ; 2 2 6 2 2 2 ",
"2 : 2 : , : : : : ; ; ; ; O ; $ $ $ @ O + & e l l k g q g l x x v v *.*.*.! k.j.z q & $ ; ; ; @ $ $ o $ $ o o @ $ ; 2 2 2 2 2 2 ",
"2 2 : 2 , : : : : ; : ; O ; ; $ $ $ $ @ o # 0 j h l k 8 z z h.j.l.l.v.v.v.l.l.j.h 0 % $ ; ; ; $ $ $ $ o o $ @ @ $ ; 2 J 2 2 2 2 ",
"3 : 2 : : , : : : ; ; ; ; ; $ ; $ $ $ @ + + $ = 0 w r r r j k c c c &.&.*.! ! Q u % $ ; ; ; $ ; $ @ $ @ o o @ o O ; 2 6 2 2 2 3 ",
": : : : , , , : : : : : : ; ; ; ; $ ; ; $ o . @ < 1 = 9 u i a Q O.O.+.+.+.+.@.W 2 O > , > $ $ @ ; ; $ ; $ $ $ @ $ ; : 2 2 , , 2 ",
"$ $ $ $ : 2 2 6 2 2 , , , : : : ; ; ; ; ; $ @ $ , 6 6 6 6 ^ ( ..>.2.2.3.e.,.#.( H , H L , : @ @ ; > ; ; ; ; ; $ ; ; ; ; ; ; ; $ ",
"@ @ @ @ : , 2 2 2 , 2 , 2 , , , , , ; , ; : ; : : 2 3 ~ J ~ ) ' 6.9.9.9.8.<.) U P L P P H ; @ @ ; > ; ; ; ; ; $ ; @ $ ; $ $ @ @ ",
"o o o + $ ; : O ; > , H H H 2 2 2 , 2 , 2 , , , O $ ; 3 G K ` ' <.6.8.6.;.` 2 2 H P P P H > $ @ ; ; : ; ; $ ; $ $ @ $ @ @ @ @ o ",
"o o o o o $ $ $ @ @ 2 H P U P P P J P H L H H 2 % % - 5 6 L ^ | ;.:.,.>.{ n 4 : H J L L , > ; $ ; : ; ; ; ; ; $ $ @ $ @ $ @ o @ ",
"@ @ @ o o o o o o @ 2 P Y R U U U U U P P P P P 4 t M x y p n s [ } } S Z Z t 4 , , H , 2 , , , , , , ; > : ; ; ; $ ; $ $ $ $ $ ",
"; ; $ $ $ $ @ @ + @ H U Y R R R U U U U U P U P 7 p N c.M M M V V C C D b.Z p 4 , G , , , , H H 2 2 2 , , , , > , > , ; ; ; ; ; ",
"2 2 2 , , 3 : : > , J U Y / U U U U U P P U P P H 5 f N Z c.z.z.x.n.n.b.D m 5 , , , , H , H K U U P P P P P H H H H H , H , H H ",
"J H J 6 J 6 6 2 2 H J U U U U P U P U P P P P H , 6 7 n m.m.m.M.B.B.V.N.=.[ 6 , L H 6 H H P P U U P U P P P P P L L H H H H H H ",
"~ U P P U J P J J P P U P P P P P P L L L P P H > 2 | 3.d.g.p.p.p.p.C.g.d.#.~ : H P P P H P P P P L H H H H H H H H L H , H , H ",
"~ U ~ ~ Y U U U P P P P P P P K H H H H H L P 2 : H ;.Z.I.W.P./.R./.(.Q.H.7.~ , P U P P L P P H H H H H H H 2 2 H , , , , , H , ",
"~ Y U ~ U U U P P U U P P P P L H L H H H P P H ; 6  .Z./. XXX+XXXoX#X.XU.r.~ , P R U P P P H L H H H H H , H 2 , , , , , , , H ",
"Y ~ ~ U U U U U U U P P P P H H H L 2 H H H P H > H ..A.`.@X$X%X$X&X&XOXT.r.~ , P U U P L P L L L H H H H H 2 2 , H H , , : H , ",
"/ U Y U R U U U U P P U P J H P H L H H H L P 2 ; L :.A.`.XX#X$X%XOX%XOXT.r.^ : P U P P P L L L H H H H 2 H , H , H H , , , H , ",
"Y / R U U U U U P U P U P P P H J H H H H L P H : H  .a._.XX.X|.|.OXOX.XU.r.~ : P U P P L P L L H L H H H H H 2 H , , , , , , H ",
"U ~ U U U U U U U P P P P P J P L H H H H H L 2 , 2 ( t./.].!.J.U.^.OX.XK.#.~ , P U P P P L K L H H H H L , , H , 6 , , : > H , ",
"U U U U U J U J J J P P P P P P P P L L L P P H 2 2 Y 1.T./.s.4.r.K..X|.d.^ 6 2 J P P L L P P P P L L H L L L , H H H H , H , H ",
"H H H H H 2 2 2 2 2 P U U U U U U P U P U P P H H 6 P #.L.L.1.( o.r.'.'.r.^ 2 2 2 H H 2 2 P U U J U P P P P P P J L J H H H 2 H ",
"H H 2 2 2 2 2 2 2 2 P U Y ~ ~ U U U U U J P U P H 2 L #.H.H.:.P I r.^.).r.7 , > 2 2 2 2 2 H U U U U P U P P P P J P H 6 H H H 6 ",
"H H 2 2 2 2 2 2 > 2 J U U ~ U U U P P P P P P J H 2 L #.L.T.1.~ ^ r.[.[.r.7 , > 2 2 2 2 2 H U U U U U P J H H 6 2 2 6 2 2 2 2 2 ",
"P P P L J L L L H H J U U U U P P P P P P J J H 2 2 6 #.T.Q.a.1.5.f.|.[.r.^ , > 2 2 , 2 2 H J U P P P H 2 2 > > , , ; > ; : 3 2 ",
"~ ~ U U U U P P P P P U U P J P H L H H H 2 H H 2 2 2 #.Y._.~.T.~.[.OX[.r.~ , , 2 6 2 2 2 2 J P H P H 6 > $ + o o o o o X o $ , ",
"U Y ~ U P P P P J P H H 2 2 H H J L H H H H H 2 2 > 2 #.Y.}..X.X.XOXOX[.5.7 , : 2 2 , , 2 2 H L L H P 2 : $ @ @ @ + o + X o ; , ",
"P P J H 2 2 , : , , > ; ; ; 2 H P U U P P P P H 2 2 2 #.Y.].XXOXOXOXOX'.r.6 : : , 2 , , , , 2 P P U P J 2 2 2 , , : , ; $ : 2 2 ",
"2 2 2 2 , , , , ; ; > ; ; ; 2 H P U U P H H H 2 2 2 2 | D.`.XX@X$X$XXX~.#.6 , 2 2 2 , 2 2 2 H J U U ~ P J H H H 6 2 , , , , , , ",
"o @ o ; 2 H P H H H H 2 2 H H P U P U H 2 > ; ; ; $ @ I a.~.|.oXOXOX.XU.#.2 L L P L H H H J P P P P P P P P P L 2 2 ; $ $ $ $ @ ",
". X X $ H U ~ U U P K P P P J P P P P H 2 $ @ @ @ + X 2 r.T.].oX$XOX[.K.( 2 U ~ U U U U P P P P P P P P P P L L 2 > @ o o + X X ",
".   X $ H U ~ ~ ~ U ~ K U U P P P P P H > $ @ @ @ X   : 3.P.`.oXOX+X).f.^ > U ( ~ U U U U U U P U P P P L L L H 2 > @ X X X X . ",
". . X o H ~ ~ Y U ~ U U U U U J P P P H : $ @ X + +   : 3.L.`.oX%XOX).f.^ 3 U / / U Y U U U P U P P P P H L L L 2 > @ X X X . X ",
". . . $ J ~ ~ ~ U R U U U U U P P P P 2 > $ @ X @ . . : 2.P.`.oX$XOX).f.^ 2 U ^ ~ U U U U P P P P J L H L L L L 2 > @ X . X X . ",
". . . $ H ~ ~ Y Y U U U U U P P P P P H : $ @ @ $ . . ; 2.P.`.oX$XOX'.f.U ; L U P J P H H H H 2 H H , H 2 2 2 , , ; o X X X X X ",
". . . $ H U U U U U U U P P P P P P P H > $ @ o @ o . : 4.P.].@X$XOX).d.L @ , 2 2 2 , , , > , , : : : : ; ; ; ; @ @ X X X X X . ",
". . . @ , J J J H H 2 H 2 2 H P P U U H 2 , ; ; ; $ . < 2.L.`.@X$XOX^.d.6 . $ > ; ; @ $ ; ; $ ; $ ; $ @ ; @ @ @ @ @ @ o @ X X X ",
"o o o @ ; ; ; ; $ $ ; @ o @ > H U ~ U U J H H H H 2 ; H >.F.). X@X.XT.3.;   o @ @ @ o @ @ @ : : > ; ; ; ; ; $ $ $ $ @ @ @ o @ @ ",
"@ + o + o + o X o X X X . X ; H U ( Y U U U U K U P 2 L X.a./.}.XX`.D.@.; . . @ o . . . + @ : : > : : ; : ; ; $ ; $ $ $ ; @ @ @ ",
"@ @ @ o o o X X . X . . . . ; 2 U / / U U U U U U P H L ( 3.L.{.}.W.4.Y @ . @ + + . . . + @ ; : : : : : ; ; ; ; ; $ @ $ $ @ @ @ ",
"o @ o @ o o X X . X . . . . ; 2 U / Y U Y U U U U P J L U :.G.Q.`.Y.>.H + . . . + + . . o @ > : , : : ; ; ; ; ; $ ; ; $ @ ; @ @ ",
"@ @ o o o o X X X . . .   . ; 2 Y ( Y Y U U U U U U J H U ;.S.Q._.Y.1.L + . . @ o . . . + @ ; : : : ; ; ; : ; ; $ ; $ $ $ @ @ $ ",
"o @ @ o o o X X . o . .   . $ H U R U U U U U U U P H H P ;.Z.W._.E.3.7 @   . @ . + o . + @ : H , : , ; ; ; ; ; ; ; $ $ $ $ $ @ ",
"@ @ @ o @ X o X o o o . . o ; H U R R U U U U P U P H L U :.S.Q.`.R.3.L @ . . @ o . . . + @ ; G : , ; , ; ; ; ; ; $ $ $ $ $ @ @ ",
"o o o @ ; ; ; ; ; $ $ $ + @ : L U R U U P J H H H 2 , 2 L  .S.P.(.J.#.6 @ o @ @ @ o o @ @ @ ; ; ; ; ; ; ; ; ; $ @ O @ $ @ $ . @ ",
". X X @ 2 P P L H H H H 2 H H P P U U P , > ; ; : ; @ @ : Y e.S.I.t.Y , $ ; ; ; ; $ $ $ $ $ ; ; ; ; $ $ $ @ $ @ @ o o o o + . + ",
"X X X $ 2 P U U U U P P P P J H P K H H > $ @ @ + @ + o + , | >.,. .4 % ; ; > ; : ; ; ; ; $ ; $ $ @ $ $ @ @ @ + o @ @ o @ @ + + ",
"$ $ @ ; 2 H 2 L 2 2 H 2 2 2 2 , , , > : $ @ @ + + @ o o + @ : < 2 : + + $ ; > ; ; : ; ; ; ; $ $ @ $ @ @ @ @ @ @ @ $ ; ; ; $ $ $ ",
": , > > 2 2 2 , > , , > , > > ; ; ; ; ; @ @ @ @ + o o . + + + . . . . + $ ; , , > : ; ; ; $ $ ; ; @ @ @ @ @ o o @ $ , H , G , , ",
", , , , , , , , > > ; ; ; ; ; ; $ $ @ @ @ @ @ + @ o o o X X X . +     X @ ; , : ; ; ; : ; ; O ; @ O @ @ @ @ o @ @ ; < H H H , , ",
"2 2 , , , ; ; ; ; ; ; ; ; @ ; @ $ $ @ $ @ @ @ @ o + o o o X + X X X   . @ , ; : ; ; ; ; ; $ $ $ $ $ @ @ @ @ o @ @ $ H H H , H H ",
"2 , 2 , : : , ; ; ; > ; ; @ ; @ $ @ $ @ @ @ o @ + @ o o X X X + . . X X @ ; > , ; > ; ; ; $ ; $ $ $ @ $ @ @ @ + $ ; , H H , , , ",
", 2 , , , , , , ; > ; ; ; ; ; ; $ $ $ $ @ @ @ @ @ @ . o X X . + . .   X $ ; ; : > > ; ; ; ; $ $ $ $ @ @ @ @ + @ $ ; , H H H , H "
};
