/* XPM */
static char *Layer_101677303406[] = {
/* columns rows colors chars-per-pixel */
"64 64 186 2 ",
"   c #1B1F25",
".  c #1C1F28",
"X  c #1B2025",
"o  c #1A2028",
"O  c #172226",
"+  c #2D2D2D",
"@  c #353535",
"#  c #393936",
"$  c #373739",
"%  c #373939",
"&  c #3C3C3C",
"*  c #383737",
"=  c #33342F",
"-  c #451E23",
";  c #491F24",
":  c #452123",
">  c #492126",
",  c #4A2229",
"<  c #403E3F",
"1  c #4D3D3C",
"2  c #483433",
"3  c #5A3937",
"4  c #5A3B3B",
"5  c #583636",
"6  c #4F2F2F",
"7  c #742525",
"8  c #762826",
"9  c #762B2B",
"0  c #7A2C2B",
"q  c #7C2525",
"w  c #7A312F",
"e  c #6F243C",
"r  c #7B2E31",
"t  c #72233C",
"y  c #732838",
"u  c #7C3233",
"i  c #76333B",
"p  c #7A343D",
"a  c #783639",
"s  c #673D3E",
"d  c #3E413E",
"f  c #41413E",
"g  c #744A2E",
"h  c #744931",
"j  c #3E3E40",
"k  c #413F41",
"l  c #5E3E41",
"z  c #712440",
"x  c #6E3A40",
"c  c #3F4141",
"v  c #3E4B56",
"b  c #3F4B5A",
"n  c #434343",
"m  c #494546",
"M  c #464846",
"N  c #464549",
"B  c #494748",
"V  c #4C4C4C",
"C  c #484947",
"Z  c #514E4E",
"A  c #574847",
"S  c #4D504E",
"D  c #51514E",
"F  c #414B56",
"G  c #4F4E51",
"H  c #414B5A",
"J  c #524E52",
"K  c #4F5151",
"L  c #535353",
"P  c #595555",
"I  c #565856",
"U  c #575659",
"Y  c #595759",
"T  c #565A59",
"R  c #5B5B5B",
"E  c #585956",
"W  c #664746",
"Q  c #754849",
"!  c #635858",
"~  c #745657",
"^  c #5F615E",
"/  c #60615E",
"(  c #5E5E60",
")  c #615F61",
"_  c #5F6160",
"`  c #636363",
"'  c #696969",
"]  c #676868",
"[  c #AC1919",
"{  c #AA1617",
"}  c #B01C1C",
"|  c #88201F",
" . c #881F2E",
".. c #851E2F",
"X. c #891F31",
"o. c #861F31",
"O. c #B61F21",
"+. c #832525",
"@. c #8A2524",
"#. c #822827",
"$. c #86212D",
"%. c #89202E",
"&. c #852A2A",
"*. c #8B2B2C",
"=. c #8D2927",
"-. c #922B2B",
";. c #8A3D2C",
":. c #863729",
">. c #872032",
",. c #8A2232",
"<. c #872F32",
"1. c #952E34",
"2. c #8E3433",
"3. c #853A3A",
"4. c #8C3A3B",
"5. c #863735",
"6. c #933434",
"7. c #9A3233",
"8. c #943B3B",
"9. c #98373A",
"0. c #B52323",
"q. c #B92526",
"w. c #A7233E",
"e. c #A9243E",
"r. c #A23A39",
"t. c #CC2435",
"y. c #A74E39",
"u. c #AA523C",
"i. c #9B3B42",
"p. c #A72541",
"a. c #AB2542",
"s. c #AF2944",
"d. c #A52C5E",
"f. c #A82B5E",
"g. c #A52C61",
"h. c #A82C60",
"j. c #CF3F5A",
"k. c #CE3E55",
"l. c #D23E5B",
"z. c #884342",
"x. c #904542",
"c. c #9E714B",
"v. c #A16F4B",
"b. c #A06F47",
"n. c #A1704B",
"m. c #A17047",
"M. c #BE6753",
"N. c #CF425C",
"B. c #D2415C",
"V. c #C56D59",
"C. c #C46A58",
"Z. c #DC546E",
"A. c #DE4F79",
"S. c #DE5176",
"D. c #DF517A",
"F. c #D24160",
"G. c #E14F76",
"H. c #E24F7A",
"J. c #E15077",
"K. c #E2507A",
"L. c #CD7167",
"P. c #D1736B",
"I. c #CD9F7D",
"U. c #D09F7E",
"Y. c #CEA17E",
"T. c #D1A17D",
"R. c #646F8D",
"E. c #63718C",
"W. c #637090",
"Q. c #FC77A6",
"!. c #FB79A6",
"~. c #FC77A9",
"^. c #FB79A9",
"/. c #F57AA6",
"(. c #9AA4B5",
"). c #99A4B7",
"_. c #CD9F81",
"`. c #D09F81",
"'. c #CFA180",
"]. c #EBC9B6",
"[. c #EBC9B9",
"{. c #EBC7B8",
"}. c #FCE9D6",
"|. c #FDE9D9",
" X c #FEE7D8",
".X c #FDFBFD",
/* pixels */
"n n & n n & n M n n j d n n n f M n M m n B V V V P I L T I L M n L G L U U L G 2. .p.w.w.l.Z.l.*.C M M C f & < M M V M & $ n k ",
"& & n & & & & & & & & & & & & & & & n & & M K L L T R V J T L M < n V L T ! _ L W 2.<.9 8 w.!.Z.#.f & < & c V L J V V V & & & & ",
"& * * $ $ & * * * & $ & & & < & k n k k n M V V L Z L Z B L V V V n M n M G V C n n M n +. .J.Z.q j < j d k & & & & * * @ + + + ",
"c n n n n n & n n n n n n n M M M m n M M n & < & f M n f & n d f f & & & & & & d < * 5 #.%.S.j.@.& & & * $ $ @ + + + + + + + + ",
"n M < n M n n d M m N k M M k B C n j c k n k n n k & 3 #.*.#.#.#.&.&.*.#.l n & 3 #.q #...w.j.e.9 k & $ $ & * * + @ @ + + + + + ",
"& & n c k & & & < & k < & & & n j k k d & n j N 3 &.&.#.o.%.>.%.%.%...X.>.#.+.&.&...>.e.e.g.p.+.+.q 5 & * * @ * $ $ * * @ + @ + ",
"n < & & & & & & * $ 2 8 7 7 7 8 8 2 k & c M 4 #.&.>. .>.p.g.g.f.t t t g.p.p.,.>.%.a.f.g.e t X... . .&.4 d & d n & & @ * @ * @ + ",
"& & & * % * & * 2 7 +.w.p.w.a.a.a.8 0 1 n 3 &. . .%.d.D.G.H.J.g.g.d.K.J.J.K.G.H.A.g.e t t t g.g.f.w.X.q 5 & d @ + @ @ @ @ @ @ + ",
"* @ & @ @ % @ 2 7 p.j.k.g.t e t e.e.w.0 5 +. .>.t J.J.J.J.d.h.J.~.!.!.!.J.^.^.D.D.S.D.g.t e e y z g.k.%.+.& & < $ % & $ * @ * @ ",
"$ & $ & & & k 8 w.j.g.t e e t t t t w.p.<... .e D.D.^.!.J.J.!.^.!.~.!.!.^.J.!.^.J.h.J.^.K.t t e g.J.J.>.#.& & & & & & @ @ + @ & ",
"@ = @ * * & # 8 w.~.H.g.e t t e t g.H.e. .%.t d.J.!.^.D.^.^.~.~.^.J.!.!.!.^.!.~.^.J.g.J.!.K.t d.H.J.d.p.&.4 m C d & & * % % $ % ",
"n M n B G B A -.l.Q.^.!.!.Q.Q.~.J.H.f.e t t g.H.~.^.J.!.!.^.^.^.K.d.~.!.!.!./.J.^.!.J.g.!.^.d.y e t d.B.,.2.U I f & & * * * + @ ",
"T Y U I R T 4.s.B.!.!.^.!.!.J.H.A.D.d.t e z J.!.!.!.^.!.!./.!.J.D.g.!.!.!.!.!.g.!.!.!.g.S.~.J.d.t g.K.J.,.8.I Z & & & & @ % @ = ",
"T R T U D J 3.e.f.D.Q.!.!.J.D.J.J.f.e t y h.!.!.!.^.!.!.!.!.J.J.d.d.!.!.!.!.!.d.J.!.!.D.g.!.~.J.t d.H.g.,.2.I U M & & & & * * * ",
"V V L L V V 3.a.g.f.d.D.K.J.J.g.g.g.z e z H.!.!.!.!.!.~.!.D.g.n.Y.d.H.~.!.!.^.g.A.~.!.!.d.^.!.!.g.e d.g.>.6.L U V n M n & n c & ",
"I L V V J D 6.l.D.d.t t g.g.g.g.g.t t y g.J.!.~.!.^.!.!.D.g.I.Y.Y.c.J.~.!.!.J.d.d.~.~.!.g.J.^.~.K.t g.t %.&.n n & @ @ @ @ @ @ @ ",
"Z V V B B M *.l.!.~.J.h.t t e t e y e t f.~.!.!.!.!.!.!.d.Y.t t Y.'.J.!.!.!.D.Y.g.G.~.!.g.J.^.^.!.d.z t e.0 & & $ & & * * @ * * ",
"& n M n n f *.l.~.!.!.^.^.J.g.g.z t z e G.^.!./.!.^.!.J.n.Y.Y.d.t T.d.!.!.!.g._.y y !.~.g.D.H.!.!.J.g.t e.0 & $ & * * * * @ @ + ",
"V B V V G V 6.l.!.~.^.^.J.J.h.g.t t t d.J.~.!.~.^.!.!.d.Y.Y.Y.`.T.t d.^.^.J.g.y _.h.~.!.g.D.g.J.!.^.D.y p.0 n n n n < n & & c & ",
"M V M n n M &.p.K./.^.J.K.g.h.y t . t f.S.!.!./.!.!.J.d.Y.Y.Y.I.Y.Y.g.J.~.K.Y._.Y.g.H./.f.H.J.t d.H.~.A.X.#.4 c n n < & & & & & ",
"& & & * @ & 7 p.d.g.J.J.S.g.z e X X X d./.!.~.~.~.!.f.c.I.I.c.m.Y.Y.I.g.~.d.Y.m.I.v.S.~.t H.K.g.t t t t ,...#.& & & & & & & & & ",
"* @ * * @ @ ..j.g.t t d.g.g.t e t.  o f.~.!.!.!.~.J.d.m._.Y.Y._.c.Y.Y.d.~.g.m.Y.U.Y.d.~.t G.H.g.e t e t d.p.9 n n n n & & & & c ",
"j c n < f d @.k.!.J.g.t t t t t t.  X y !.!.!.!.~.g.d.Y.I.].].].].].Y.T.J.g.I.].].Y.t S.t A.J.a.>.>.t d.d.e.&.5 n & M n & n & c ",
"& & & & & & +.j.~.!.~.J.d.d.t t t.t.X t J.!.!.!.~.d.m.h .     . _.].].Y.d.g.U.X X X t d.y K.K.>.&.%.d.f.d.e.%.&.n k & & n & & & ",
"M m M n M n *.l.~.~.~.J.J.g.t [ t.t.o X g.!.~.!.!.g.g X E.y t t . I.].[.].d.X y t E.X y g.H.K.%.#.%.X.g.d.e %.&.n V N n M n n M ",
"V V V S L K 3.s.N.~.J.J.d.d.e 0.O.t.  X d.!.~.~.J.g.o (..Xd..Xe t Y.[.].[.[.v.).t ).h t g.D.e.%.*.*.>. .e y a.*.l B n M M j k j ",
"G V L L L L W 3.a.d.g.g.g.t t 0.} t.t.o e J.!.!.J.g.g .X.Xg.t e t ].|.|.|.].'.t y (.c.t g.H.%.<.l 4 &.>.X.a.e.%.*.n n M n d & f ",
"G V L V K K L 5.s.d.t e t t 0.2.4.q.t.X   g.!.~.d.c.].Y..X).d.g.Y.|.|.|.|.|.].I.d.Y.Y.z g.D.>.&.M n 4 #.&. .%. .#.4 n & & j k & ",
"G S V V L V L 5.a.^.D.g.d.t 0.T I 2.0.0.  e H.!.d.n.|. X|.|.|.|.|.}.|.}.|.|.}. X|.[.Y.t f.e.%.q & j & 2 q +.q .. .+.& & & & & & ",
"m M c n n f n &.%.N.Q.H.d.t [ k M L L 4.O.t f.S.y n.}.|.}.|.|.}.|.|.|.|.|.}.|.|.|.[.m.e d.%.2.W V A a 5.C.L.5.2.*.W Z V V V M B ",
"$ & * % * * = 6 q w.H.A.t t { { [ 8.( R 4.0.t d.t v.|.}.|. X|.].{.|.|.|.|. X|.|.|.V.;.,.s.,.8./ ! z.P.V.;.;.9.P I R R Y L J G L ",
"& & & & & < & & 8 e.a.d.e { [ }.v.0.0.8./ 8.q.t y h I.|.|.|.|.)..X.X.Xc.I.|.|.|.V.;.r.,.,.8.~ ~ 8.P.V.g c.V.L.z.` R T ) R I I I ",
"M k n n n n d n 1 *.l.A.t } ].}.g q.].q.8.] 8.q.t q.h n.].}.|. XI.].]._.|.}.].v., 9.z.i.*.i.x.9.X.P.v.h n.h ;.6.I U L L L U L V ",
"B M n M M M M n M *. .e.d.Y.}.I.h g ].Y.0.8.q.q.q.Y.c.F g c.Y.].|.}.|. X].v.X X ;.s.p 4.8.p 3.x s.v.c.h h u.V.3.U R I L I U Z V ",
"* & & & & * $ & @ 6 q e.k.|.I.g g g Y._.[ [ E.d.Y.}.]._.t H h h h g g h e     _.v.d.i i 6.9.9.E.d.h v.I.;.;.6.W L P L L L L D Z ",
"@ & & & & * & $ % & 2 7 a.V.Y.g h c.Y.c.b E.).E.g.}.].I.F t F e d.e v e F E.c.Y.d.v E.E.W.E.R.F b e u.y.;.6.Q L L L Z L V V V L ",
"* @ * @ * $ * @ = * @ 2 @.:.y.g h n.n.t E.).(.E.d.].I.m.E.E.t F g.g.e H E.E.c.c.g.b v F v v b b v a ,.6.6.Q L I I Y I Z L V V V ",
"@ @ & @ * @ % * @ @ @ @ 6 +.:.:.g h d.v v E.E.H F t c.F E.).(.(.J.E.J.).).1.:.:...i y b F v H i y i 8.Q I T I L L L L L L L V Z ",
"% $ @ @ * * * & @ & & & & 3 @.X.,.d.v H H b b a i %.p b R.(.(.(.K.K.H.).).9.@.+.&.r i x a a i i r w J D V G C M V M M V V V V M ",
"n k & c f j c n j n M M m V 4 *.i p b F i a i i r &.i H b R.(.(.H.J.d.(.E.p u C n A <.5.u u u u A M n f j d n n n k c < & & & & ",
"M n n M M M n n M n n n M n n m u i a i i y w w 1 r a b b b H F g.b g.b G p 0 N n M B m M m V n M V n M M n n n & n & & n & & & ",
"& & n n < & k k < & & & n k n < f 9 r 9 9 1 k j n 0 a R.R.b H v g.f.d.b R.x 3.A V J D V Z L L L V V J V V B M n M n V C M n n n ",
"M n k & n n n n n n n n n n & c f N n M n n c & 1 r i E.R.R.E.E.d.H.J.g.R.i.x 3.W I L L I J V L L L L L V V V V V V m V M V V M ",
"L L L L L V V L L U Y I T L K L P ! U R Y U I I 4.x i.E.E.R.E.E.E.S.E.D.R.R.i.p z.P L Y U I T L I L L I L Z L L V V G J J V V V ",
"L L L I I L L I I I J I ! T Y R ! R T R E Y T Y 5.a E.).(.E.E.R.E.g.H.J.E.E.).i.i 3.L I L E U U I L L J I T U Z S L L V M V B B ",
"L V V V L L L Z L I I Z L R U I T I U L J L L L 7.- F E.(.).(.(.).).D.K.g.).).E.p 1.Q L L I L L J I L J L I L Z L Z G V V V V M ",
"V V n J L V B V L L I V K U E T T T U U I L L Q 6.>     b R.(.).).(.J.E.J.).E.b ; > 7.W D Z V L V L L L L J V V L L J L L V V V ",
"V J I I L V J L J J L L I L L L L U V J L V L 7.: -   O         F F g.J.J.F X X X > ,.6.~ I I U Y L L D L V L V V V V V M n n M ",
"S V L V V V V V V L Z Z V J V V V V V V V J W -.-   O   X +     o X o   o X X X t J.a.>.2.L L L L I V L V M V V M B M M M k & & ",
"V V B L V V V V J I L L I L L L Z Z G V L S 2.>.-     o X X       X X X X X X J.!.g.n.%.<.V K K V V V V V V m B V V V B V k @ & ",
"V V D V J L V V V S V V V L L J L L L I L L -.N.d.X   o X . X X X X   o X t ^.~.m._.].;.-.A L L J L J V J L V V M M M V M & * $ ",
"L V L L I I L L L V I T Y L I I T L I T L L 6.,.J.d.H.~.~.H.d.g.t t y d.B.S.s.,.u.[.'.B.s.x.! / / R T I I I I L J L V V J & & & ",
"M V V V V V V V Z L L I L J V S K V V V V V -.l.t t Y.c.z >.e.N.l.l.l.e.>.*.5.-.;.y.J.O ; -.s Z V V V M B V V M M M k n n & * * ",
"* & & & * % & * & k k & n n & n j n & n k n @.j.t K.].].C.:.@.*.*.*.*.0 #.3 c 5 @.a.X X - - @.f n n n & & & & & & & & d & & & & ",
"& $ & & & & & & & n & M k n M M n m V M M n -.l.X.t ~.].M.=.s M M n f m k n n M =.- X o   - -.5 k n & n n & & j n & c j & & & & ",
"k j & & & & & & n M n M n n & < n c & < n & 3 =.N. .~.J.e.0 n d k & n & & f k < =.- : X   - ; | & & & & & & & & & & & * & @ & & ",
"& & $ & & < n & & & & & & & * * % & & & & & d 5 @.Z.X X ; @.3 n n & & c n n n c 5 -.-     X - =.n & n < & n & & & < & & & & $ * ",
"I Y I U ! R R U V G R R _ T L K L T L R T L L L 7.: X X ; - r.R Y Y T R T L Y I B | -       - =.3 n j n k & & & & & & & $ & * * ",
"` ` ` ] ' ' ] ` ' ' ` ` ' ' ( ` ' ' ` ] ' ' ' ' r.,       > r.Q R ! _ ` ` R ( ] Z @.- X   X - %.&.d n n M n n c n & & & $ & & $ ",
"R R R I I T T R ` ` T ! ] ` _ R ! ` ` ` ( _ ` ` r.> X X   > > 7.Q L L R ^ I E R V | ;   X   : ..#.& & < j < & n & & & & & * * * ",
"` _ R R Y / R ` ` ` ` ' ' ` R ` ` ` ^ R R ` ` R r.,   o     > , r.` ` ` ) ` ` ' J 7 e.:   - e.+.3 n n n n f n f n n f d & & % * ",
"! ( U T T ` ` R ` R T L ( ` ) ` ` R R T _ ` ` ` r., .   X     > r.` ` R R T ! ` V 1 r p.l.j.=.A c n n n n & k & & & & # & * @ % ",
"n k M n n n n n & & & * & & & n n n n & n n n d &.X.- o   O X >.#.& d c n & c c f n 1 0 @.@.3 < j & & & c & & & * @ % % @ @ @ * ",
"n M n j & & & & n n n n n & n n & f n & n n j n 3 &. .a.N.l.l.w.<.M n M f n c n B n n n n n n j n n n j c & & f & $ $ @ * @ @ * "
};
