/* XPM */
static char *Layer_151677303407[] = {
/* columns rows colors chars-per-pixel */
"64 64 178 2 ",
"   c #1C1F25",
".  c #1B1F28",
"X  c #1B2025",
"o  c #1B2029",
"O  c #172123",
"+  c #2C2C2C",
"@  c #32312E",
"#  c #2E2F31",
"$  c #2F3131",
"%  c #353535",
"&  c #3A3535",
"*  c #363836",
"=  c #393936",
"-  c #363739",
";  c #373939",
":  c #3C3C3C",
">  c #3A3739",
",  c #2E302E",
"<  c #451E1F",
"1  c #7A1E1F",
"2  c #68211F",
"3  c #451E23",
"4  c #491F25",
"5  c #462124",
"6  c #492126",
"7  c #4A252A",
"8  c #413E3E",
"9  c #4B3636",
"0  c #553635",
"q  c #5C3C3A",
"w  c #593635",
"e  c #6E2424",
"r  c #732624",
"t  c #7E2423",
"y  c #7A2B2B",
"u  c #752B2A",
"i  c #7D312E",
"p  c #6F243B",
"a  c #72233C",
"s  c #732E34",
"d  c #673C3B",
"f  c #76333B",
"g  c #7A363D",
"h  c #7A393E",
"j  c #773235",
"k  c #3E413E",
"l  c #41413F",
"z  c #52423F",
"x  c #744A2E",
"c  c #744A31",
"v  c #3E3E41",
"b  c #423F41",
"n  c #493F40",
"m  c #7C3940",
"M  c #7A3740",
"N  c #732242",
"B  c #3F4141",
"V  c #3F4B57",
"C  c #3F4C59",
"Z  c #434343",
"A  c #4A4545",
"S  c #494947",
"D  c #464649",
"F  c #464949",
"G  c #4D4D4C",
"H  c #474847",
"J  c #564949",
"K  c #4E504F",
"L  c #51504E",
"P  c #414B56",
"I  c #4E4E51",
"U  c #414B5A",
"Y  c #514F51",
"T  c #4F5052",
"R  c #535453",
"E  c #565856",
"W  c #595956",
"Q  c #565658",
"!  c #5B5B5B",
"~  c #575759",
"^  c #6A4A49",
"/  c #684545",
"(  c #724647",
")  c #655A59",
"_  c #5E605E",
"`  c #60605D",
"'  c #5E5E60",
"]  c #615F61",
"[  c #5F6062",
"{  c #636363",
"}  c #696969",
"|  c #676868",
" . c #AD1B1B",
".. c #B01B1C",
"X. c #871D2E",
"o. c #891E2E",
"O. c #871F30",
"+. c #832525",
"@. c #8B2525",
"#. c #832927",
"$. c #85232C",
"%. c #8A212E",
"&. c #842A2A",
"*. c #8C2B2B",
"=. c #932C2B",
"-. c #932828",
";. c #8A3D2B",
":. c #863B29",
">. c #96322F",
",. c #862131",
"<. c #8A2231",
"1. c #882E32",
"2. c #962E32",
"3. c #823333",
"4. c #8D3334",
"5. c #873C3A",
"6. c #933335",
"7. c #9A3333",
"8. c #983939",
"9. c #B82524",
"0. c #A6233E",
"q. c #AA243E",
"w. c #A43C39",
"e. c #CC2435",
"r. c #A54E39",
"t. c #A8513B",
"y. c #9B3A42",
"u. c #90384A",
"i. c #AB2542",
"p. c #A82642",
"a. c #A52C5E",
"s. c #A82C5E",
"d. c #B02947",
"f. c #A52C61",
"g. c #AA2B60",
"h. c #CE3D59",
"j. c #D23E5A",
"k. c #8C4243",
"l. c #934145",
"z. c #9E714B",
"x. c #9F6F49",
"c. c #A16F4B",
"v. c #A1704B",
"b. c #A07147",
"n. c #BF6854",
"m. c #CE405B",
"M. c #D3415D",
"N. c #C26A56",
"B. c #DE5176",
"V. c #DF517A",
"C. c #DF4E76",
"Z. c #E04F76",
"A. c #E24F7A",
"S. c #E15176",
"D. c #E1507A",
"F. c #CA6C64",
"G. c #D16E69",
"H. c #CD9F7D",
"J. c #D09F7E",
"K. c #CDA07E",
"L. c #D1A07E",
"P. c #646F8C",
"I. c #63718C",
"U. c #FB77A6",
"Y. c #FB79A6",
"T. c #FB79A9",
"R. c #9AA4B6",
"E. c #9AA4B8",
"W. c #97A4B4",
"Q. c #CE9F81",
"!. c #CEA082",
"~. c #D1A080",
"^. c #EBC9B6",
"/. c #EBC9B8",
"(. c #FCE9D6",
"). c #FDE9D9",
"_. c #FEE6D9",
"`. c #FCFDFB",
/* pixels */
"Z Z : Z Z b Z Z Z Z b l H 8 Z l Z H H Z A G G G G ^ 4.8.<.<.<.i.s.a.f.p p p f.i.i.<.,.%.0.s.i.O.*.&.q D F b : : Z S S A : - Z k ",
": : Z : : : : : : : : : : : : : : 8 B : : H K R ^ 4.<.$.,.f.D.D.D.V.s.f.a.V.V.V.S.D.D.D.s.a $.&.#.&.&.0 : 8 G R L L G G Z : = : ",
": : * - * > * * % : ; : v : : : : Z l v l H G / 4.<.<.a f.D.D.A.D.a.V.Y.Y.Y.U.A.Y.T.A.D.V.S.p.o.X.o.o.+.t 0 k k : - - > * + + + ",
": Z Z Z Z Z v Z Z Z Z Z Z l H H H Z H F D Z 0 +.%.$.N f.D.Y.Y.A.s.Y.Y.U.T.T.U.Y.A.T.Y.Y.C.D.Y.A.a p i.q.X.+.9 > + , $ + + + + + ",
"Z H Z Z H Z Z 8 H A H Z D A &.&.&.&.y w Z q #.<.$.a s.V.Y.Y.Y.D.Y.Y.Y.Y.U.Y.Y.Y.V.A.Y.Y.Y.f.V.T.S.N a p q.X.t 7 $ @ % , + + + + ",
": : b Z : : : v : 8 8 9 u @.p.i.i.o.%.+.+.#.o.o.a f.D.U.U.Y.V.Y.T.T.A.T.Y.Y.Y.Y.D.a.Y.T.Y.U.f.Y.U.a.a f.Z.h.X.t - : * > % , % $ ",
"Z : : : : : : : * - 9 r p.h.j.C.A.A.0.q.O.&.<.p a A.U.Y.Y.Y.B.Y.T.Z.f.A.T.Y.Y.Y.Y.s.D.Y.T.Y.a.A.Y.B.N f.C.a.o.#.0 - - - $ % & $ ",
": : : * : > * * * = r 0.h.a a p a a a a i.O.O.a a.A.T.Y.Y.Y.Y.Y.A.a.c.V.Y.Y.U.Y.Y.v.D.Y.Y.Y.V.A.Y.Y.a.a a.a q.X.1 % % & % % $ $ ",
"* * - * * : * > - * +.h.U.a.a p p p f.s.f.a a a A.Y.T.Y.Y.U.Y.D.a.c.K.a.Y.Y.Y.Y.B.K.a.Y.T.Y.Y.f.T.Y.A.a a f.A.o.t * : : * % % * ",
": > - : - : : : : 9 +.B.Y.Y.Z.a.f.A.Z.D.a.a a a D.Y.Y.Y.Y.Y.T.f.p p H.f.Y.U.Y.T.f.H.f.B.Y.Y.U.s.V.U.Y.a.p s.A.O.+.: = % % $ * > ",
"$ % % * > : : > = r 0.h.Y.Y.U.Y.Y.Y.S.s.a p p f.Y.Y.T.Y.T.Y.f.v.K.s.a a.T.U.U.T.f.K.p a T.Y.Y.f.Z.T.Y.D.f.p a.<.#.: : > - - - * ",
"Z A Z G K A D G G 3.i.a.S.Y.Y.V.V.f.s.a a a p A.Y.Y.T.Y.Y.S.z.K.H.K.~.a V.T.Y.B.!.a K.f.T.Y.A.a.D.A.Y.Y.V.a a <.&.- : > * & @ $ ",
"~ ~ W ~ ! ~ E E E 7.M.a.f.A.B.A.s.a a a N p a S.U.Y.Y.Y.Y.a.J.K.Q.L.!.K.D.T.Y.V.K.K.K.s.S.T.V.a.D.s.B.Y.Y.a.a <.+.: : : * > % $ ",
"~ ! ~ ~ G G E G K ;.B.Y.D.s.p a a a p a X p s.Y.Y.Y.Y.Y.T.f.H.K.z.z.H.K.a.Y.U.a.L.z.K.a.D.T.D.a Z.D.a f.C.T.g.<.&.: : : : - * * ",
"G G R R G G R R J 8.B.Y.T.T.A.D.s.f.a . O . s.Y.T.Y.Y.Y.D.z.!./././.b.K.s.D.Y.a.z././.v.D.Y.f.a D.D.f.a f.s.<.<.4.Z H Z v A Z : ",
"R R G G R R R L 5.i.B.Y.T.Y.Y.D.D.a a e.O O f.Y.Y.Y.Y.Y.s.z..   O X /.K.K.A.Y.s.^.  O o f.S.s.a B.D.f.a a a %.#.0 - % % $ * $ % ",
"G G G G A H Z S 3.i.D.Y.Y.A.V.D.f.p a e.e.  p T.Y.U.Y.T.f.  I.p a a O ^.^.a.V.f.X a p I.o s.a f.C.A.s.p a f.o.t ; : - = - % ; > ",
"k l H Z l v A S y q.g.A.A.B.f.f.s.a a e.e.  p A.Y.Y.Y.Y.O E.`.f.`.N a ^./.^.f.f.v.W.a W.c p a s.D.D.f.a a.f.X.t : * % > - & % @ ",
"G G G G G I I G *.M.a.f.s.f.a.p a z.).e.e.  O f.Y.Y.Y.V.c `.`.s.a a p ^././././.v.a a `.x z.a f.V.B.f.a f.f.$.#.j n k Z : : v : ",
"H S H Z Z H S H *.j.Y.S.a.a a p ).x z.).e.e.. a.D.Y.T.D.H.`.`.f.a p f.^.(.).)./.K.a a `.v.z.a f.D.D.f.a a a <.&.F.u : k : : : : ",
": : : - * * = : #.j.Y.U.Y.B.D.s.z.).c H.^.e.  a V.T.Y.V./.J.`.R.f.s.!.).).).).)./.!.s.K.L.v.p s.D.D.p a s.s.X.F.r.t u 8 : : : : ",
"- * % * % % * - r 0.A.Y.Y.V.f.f.p c.c.c b.x O   s.D.Y.a./.).).).(.(.).).).(.).).).(.).^.!.z.a f.Z.D.a a a.p c.H.:.r.F.u : : : 8 ",
"b b l B 8 v v 0 #.q.a.B.Y.D.s.p N (.^.c ).(. .  a f.Y.s./.(.).(.).(.(.).).).).).).(.(.).(.v.p f.D.s. .p p /.H.z.K.F.s 8 v Z : : ",
": : : : : : : +.X.h.A.a.f.s.p o.X.G.H.c c ^. . .a f.B.a L.).(.).(.).e.e.e.e.e.e.(.).(.).(.c  .a D.a  .p ^.x ^.x r.:.@.Z 8 : k : ",
"A H Z Z H Z H &.$.A.Y.T.D.f.a ,.&.N.r.c.z.Q.s. ...a f.a z.).(.).).).e.e.e.e.e.e.).(.(.(.H.c ..a a.a  .a H.c c c.N.=.d Z Z H B H ",
"G G I Y Y L ^ 6.i.f.A.S.s.s.,.<.4.4.r.t.H.f.P.U 9.9.a a x L.).).).).e.e.e.e.e.J.).).).Q.c  .&. .p V C I.a.x x H.G.j Z D H B Z : ",
"K G R I R E 6.%.i.A.D.a.f.<.<.4./ ^ 6.<.a.P.E.W.I.U 9.a 9.c c.^.).).).e.e.e.H.).)./.x.+  . . .P C P.I.P.a.c c.n.N.y H H B Z : v ",
"G R G G L J 5.i.a f.s.,.<.<.4.^ Q E 5.m h U I.R.E.E.I.C 9.9.U c z.~./.(.).).)./.x.    ..c f.U I.P.I.P.P.U p :.:.*.0 Z : 8 : 8 : ",
"L L G G Y 3.i.M.s.%.<.<.6.6.^ E R T J 5.M U U P.R.R.R.I.f.Q.z.V a C x c x c x a X O c v.K.f.I.I.I.I.P.V j f X.&.w : : : : : k : ",
"H H Z l H y q.p.,.%.#.*.q Z B 8 H T Q 5.h g U U C V I.I.s.(.^.K.P p C C a a V C a U v.!.K.z.s.I.I.C f M j 3.4./ L G L G G G H D ",
"* - * > * 9 r e t t 9 % % * : * l _ [ ) 5.h m h C C V P a.)./.Q.I.C p I.p s.a I.s.I.z.K.K.c.f.C m m m k.k.) ! ~ Q W W W E R L R ",
": : : : : b : : : : : 8 k : : : Z ~ ! ! ) k.k.h m h h a K.^.K.x.I.I.I.s.A.D.V.s.I.I.z.t.;.;.d.m m k.k.) ~ ! ! ! ` ! ! ] ~ R ~ E ",
"Z Z v A Z Z 8 b Z Z H A G G D H G ' ' ! [ | ) k.k.u.M <.;.t.c.U I.W.R.R.D.I.D.R.E.y.;.;.8.w.y.k.u.W K Y ! Q ~ Q R ~ R Y R ~ R G ",
"D H Z H H H A Z Z H G G G G G G G ~ ! ! ! ! _ ) _ ) k.8.8.m M C I.R.R.W.D.S.D.W.E.y.7.7.^ R G E K R W ! ! ! ! ~ ~ ~ E R ~ ~ Y G ",
"* : : : : * : : * - - : : : : Z : : : : k k 8 D Z F A A A y f C I.E.E.R.D.S.D.R.R.y.d - * % : : > G { _ ! ' ~ R E R R R R R R G ",
"% : : : : * : - > : % % : - : : % = : * : * @ % % @ $ % $ 2 s s U I.E.R.S.I.A.E.P.s 2 & % % % + + Z E R W Y R R R R L R G G Y L ",
"- % > % % - - % % * % > : : : % % : = > * * $ % * * * % $ & r f V U U P f.a.a.U C 4.f e - % % % , H ! W W E E R E W R R I G G G ",
"% * * > * % > * % $ % % * * % * : : : = : - - - * % * $ % @ e s I.I.I.C f.f.s.C P.P.s e 9 * % % # Z ! W W Q Q E Y R E R E R G L ",
"* * - > * * * : : ; : : : Z B Z H D Z F H : B Z Z : : : : v i f I.I.I.P.f.Z.A.I.P.P.8.g j n Z H v H E G G G H S G D H D G G G H ",
"Z Z : : Z : v Z : Z A H A H D Z Z H l Z H Z H Z A H Z Z 8 z h f I.R.I.I.I.A.I.f.P.E.E.y.M =.=.=.=.-.d b v 8 8 Z Z b Z : : : : : ",
"H b H H A H Z Z H H b Z H Z A H H H D H H H Z Z Z H Z Z B u j y.E.W.R.R.E.A.Z.D.I.E.R.R.g 4 < 3 6 4 -.A Z Z Z b 8 Z : 8 Z B : : ",
": : : Z v : Z : v : : : 8 B Z : Z : B : : b Z : B b Z F H i g I.E.W.R.R.E.f.A.C.f.R.I.U O X     U.j.q.3.G G F H H Z H G Z Z Z Z ",
"H b Z : : Z v Z b Z Z A Z Z : Z b Z Z A Z Z Z : 8 l v b v @.5 P I.R.E.R.W.W.V.I.A.U X   X o o Y.s.6 4 7.Y G F G G D G G H G H H ",
"E R R R R L G E R Q E E ~ E G R E ! E ! ~ E E ~ E W R L Q 2.4   X X U I.I.C f.f.  O X X X   Y.s.O 3 7.( G L R R G G G Y Y G G G ",
"R R R R E E R R ~ R Y E ! ~ ~ ! ] ! ~ ! ~ W ~ E R I R Q ( >.6 o X X         o     O   o . Y.V.z.K.;.7./ R ! ~ G I R R G G H G H ",
"R G Y G R R R Y R E ~ Y Y ! W E ~ R E E L R R R E R R R 7.6 4 O O   +         O       . s.A.z.^./.N.;.=.^ R E L R G I G G G G A ",
"G G H G R G D G R R ~ G R W ~ ~ W E ~ W Q R R R W ! ~ W 7.6 X   X   X .     .   . o X a M.p.t.N./.^.N.i.>.( G G R R R R R G G G ",
"G Y E Q R G Y R G R R R E Y R R R R G Y R Y R R G I L L =.4 o o o o X X .   . o a s.M.M.<.8.6.;.t.K.D.5 6 -./ G G G G G Z Z Z H ",
"Y G R G G G G G G R G Y G Y G G G G G G G G G G I G G G i i.a O . X O O a a a.M.M.M.p.2.6./ ^ 7.i.M.X   4 3 =.d G D F F H 8 : : ",
"G G G T G G G I G E R R E R R R L G R G G R G H G L G G *.<.f.D.A.D.j.p.i.$.,.i.*.=.i J G G L J =.6 5 X X 6 < -.d G F F G B % : ",
"G G G G L R L G Y T G G G R R Y R R R R R Y G G G I G L 6.o.a a H.!.:.>.3.4.4.3.J L R T Y Y R L / 7.6   X X 4 4 -.d H G H : * : ",
"R G G E ~ R R R Y G E ~ ~ R E E ~ R E ~ E R Q E R R ~ W 8.M.a A./.N.:.=.W Q ~ ! ! ] { ) ! ! ! [ ) 7.6 5 o X o 5 5 7.M F I B = : ",
"G G G G G G G G G R R E R Y G I G G G T G G G G G A G G *.j.a A.~.t.*.d Z G S G G G I G T G G I G d =.< O O . O 4 < @.v Z : * * ",
"% : : : * * : - b Z : b Z Z : Z Z B : Z Z Z : B Z Z Z : +.j.q.D.V.p.y b Z v B Z Z D Z Z Z : B Z Z Z -.< o X     X 3 @.k = : 8 : ",
": : : : : : - : : k : Z B Z H H A Z S D H A A H Z Z H Z q @.m.S.  3 @.D Z Z Z Z H D H S D A A : Z H y q.4 X     3 %.&.v : : : : ",
"b v : : : : : : Z H Z H Z Z 8 : H Z : : B : Z Z Z Z : Z 8 -.3 o   4 @.w : l : Z l 8 Z : B : : : : = 9 r 0.j.j.i.o.+.0 * : * : = ",
": : * : : l Z : : : : : : : = * * : : : : : : 8 v Z 8 : v @.3     3 4 @.l Z l : : H Z Z : H Z Z k v D 9 y +.@.y #.w k : : : - > ",
"W ~ R E ! ! ~ W G Y ~ ~ ` ~ E R E E R Q E E R R E Q R E R >.5       4 7.( E Q ~ H : 8 Z Z Z Z Z Z Z B B 8 : : : : : : = : : : % ",
"{ { | | } } | { } } { | | } ! { } | { | } | } | | { | } } w.4 . X O 7 7 w._ ` } G : Z Z Z Z Z Z Z Z B Z Z Z Z Z b 8 : ; : : : > ",
"! ! ! W E ~ ~ ! { { ~ ! | | ] ! _ [ | { ' ] { | | ! ] { ! 8.3 .   o   4 8.( ~ ! G : B Z : : : : : : : b B v : Z : : : = : % % % ",
"{ ] ! ~ ~ { ! { { { { | } { ) | | ! { ) ~ { { ! ) [ ! ! ! 7.6   X o o 7 6 w.{ | G : l b Z B Z Z l Z Z Z Z b Z Z Z 8 8 v : : = * ",
"] ! ~ ~ ~ { { ! ] ! E E ! { ! [ { ! ! ~ ! { | { | { | } } w.6 +   . O O 6 7.) { G v Z H Z Z A H Z Z Z Z Z v : : : : : : ; % % : ",
"l Z H Z Z l Z Z b : : : : k B B Z Z Z : Z Z Z l v Z v Z A &.<.3   X X < i.y B B B Z B : : Z Z : 8 k : : Z = = : * % - % % % % * ",
"Z H Z 8 B : : : : Z Z : Z : Z Z : Z Z : Z Z : Z l Z Z 8 H q &.q.M.j.m.i.y 9 Z Z H A Z H Z Z Z : Z Z Z 8 Z : : b - : : % * % - * "
};
