/* XPM */
static char *Layer_61677303405[] = {
/* columns rows colors chars-per-pixel */
"64 64 187 2 ",
"   c #1C1F25",
".  c #1B1F28",
"X  c #1B2025",
"o  c #1B2029",
"O  c #2C2C2C",
"+  c #32312F",
"@  c #353535",
"#  c #393636",
"$  c #363837",
"%  c #383936",
"&  c #363638",
"*  c #393739",
"=  c #363A3A",
"-  c #3C3C3C",
";  c #2F302F",
":  c #461E1F",
">  c #791F1E",
",  c #7F211F",
"<  c #451E23",
"1  c #481F26",
"2  c #7E1F23",
"3  c #462125",
"4  c #492125",
"5  c #4B272C",
"6  c #413E3E",
"7  c #4B3B3B",
"8  c #473333",
"9  c #533433",
"0  c #5B3A3A",
"q  c #583738",
"w  c #4F312F",
"e  c #6D2321",
"r  c #732625",
"t  c #7D2324",
"y  c #742C2B",
"u  c #7B2C2C",
"i  c #722628",
"p  c #6F243C",
"a  c #71233C",
"s  c #792E33",
"d  c #7D3332",
"f  c #74323A",
"g  c #7A363C",
"h  c #76363A",
"j  c #653839",
"k  c #3E403E",
"l  c #41413E",
"z  c #744A2E",
"x  c #744A31",
"c  c #3E3E41",
"v  c #413E41",
"b  c #493F40",
"n  c #593F40",
"m  c #772F40",
"M  c #3F4141",
"N  c #3F4C5A",
"B  c #3F4B57",
"V  c #434343",
"C  c #4A4545",
"Z  c #494947",
"A  c #464648",
"S  c #494649",
"D  c #474949",
"F  c #4C4C4C",
"G  c #454946",
"H  c #504E4E",
"J  c #574646",
"K  c #4E504F",
"L  c #51514E",
"P  c #414B57",
"I  c #4E4E50",
"U  c #414B5A",
"Y  c #524F51",
"T  c #4F5251",
"R  c #535453",
"E  c #585656",
"W  c #595957",
"Q  c #565659",
"!  c #5B5B5B",
"~  c #575858",
"^  c #674848",
"/  c #74484A",
"(  c #675657",
")  c #61605E",
"_  c #5E5E60",
"`  c #615F62",
"'  c #636363",
"]  c #696969",
"[  c #686866",
"{  c #9D1D1D",
"}  c #B31F1F",
"|  c #B4201E",
" . c #861E2E",
".. c #891E2E",
"X. c #861E31",
"o. c #891F31",
"O. c #822525",
"+. c #8B2323",
"@. c #822827",
"#. c #86222D",
"$. c #8A212E",
"%. c #852A2A",
"&. c #8B2B2C",
"*. c #8E2826",
"=. c #942C2C",
"-. c #9E2222",
";. c #8A3D2C",
":. c #89382A",
">. c #872031",
",. c #8A2232",
"<. c #882D30",
"1. c #932E32",
"2. c #833534",
"3. c #8D3333",
"4. c #863C3D",
"5. c #8A3A3A",
"6. c #933334",
"7. c #9B3333",
"8. c #943A3B",
"9. c #99373A",
"0. c #B92525",
"q. c #B72525",
"w. c #A6233D",
"e. c #AA243E",
"r. c #A33B3B",
"t. c #A52828",
"y. c #C92332",
"u. c #C62331",
"i. c #C8242F",
"p. c #A54E39",
"a. c #A9513A",
"s. c #9B3A42",
"d. c #AA2542",
"f. c #AA2742",
"g. c #A52C5E",
"h. c #A52C61",
"j. c #A92C61",
"k. c #CF3F59",
"l. c #CE3F57",
"z. c #D13E5B",
"x. c #D13E57",
"c. c #884243",
"v. c #9F6F49",
"b. c #9E714B",
"n. c #A16F4C",
"m. c #A16F47",
"M. c #A1704A",
"N. c #A07147",
"B. c #D2415B",
"V. c #CF405C",
"C. c #C26A56",
"Z. c #C26855",
"A. c #DC556E",
"S. c #DE4F7A",
"D. c #DF5177",
"F. c #DF5179",
"G. c #D54060",
"H. c #E14F76",
"J. c #E14F79",
"K. c #E15077",
"L. c #E1507A",
"P. c #E0586E",
"I. c #CB6E65",
"U. c #CE7169",
"Y. c #D2756D",
"T. c #CD9F7E",
"R. c #D09F7E",
"E. c #CEA07E",
"W. c #D0A07C",
"Q. c #63718C",
"!. c #656F8E",
"~. c #FB77A6",
"^. c #FB79A6",
"/. c #FD77A9",
"(. c #FC79A9",
"). c #F77AA6",
"_. c #9AA4B6",
"`. c #9BA3B9",
"'. c #CE9F81",
"]. c #CEA180",
"[. c #EBC9B6",
"{. c #EBC9B8",
"}. c #EAC8B6",
"|. c #FDE9D6",
" X c #FDE9D9",
".X c #FEE7D7",
"XX c #FCFCFD",
/* pixels */
"V V - V v V v A V V c V V V c V V A A A V Z F F F R E R ! E R A A R F R E R R F R D V V k V A 7 =.z.D.%.S - - 6 V G S C - $ c l ",
"- - V - - - - - - % - - - - * c - c l - M G T R E Q ! F F ! T D - V F T W ) _ R Z Y F - = - - q +.k.x.@.- v F R H F F F V - - - ",
"- % $ & $ $ $ $ $ - - - - - 6 - k v k V 6 A Z F H I R F S R F F ^ %.&.&.<.&.3.%.%.%.n V c 9 %.%.#.z.e.u v - v - - - $ $ $ O O O ",
"v V V V V V v V V V V V V V A A A A G V C A v V V V Z V l 9 %.O.O. . . .#. .,.>. . .O.@.O.@.o. .d.g. .O.t w $ @ ; ; O O O O O O ",
"V A V V A V v c A A A V A V l Z A v - v V V - V V - v q @.%...o...e.g.g.h.a a a a e.w.$.X...d.g.g.p  ... .t w @ + + + + O O O O ",
"- - l V 6 - 6 - - - k - - l 7 u u u u @.9 V V V V V q @...o.,.g.J.L.L.H.h.g.h.g.K.L.K.L.J.g.g.a a a h.h.w. .t w * * & $ @ ; @ ; ",
"V - - - - - - - % & = - 8 t O.w.e.e.w.X.O.%.0 V V 0 %.>.$.h.L.K.L.J.g.g.j.J.L.L.K.J.L.^.(.D.j.H.h.a a a g.V.$.%.- * @ $ @ @ @ @ ",
"- - - $ $ - $ $ $ - $ 8 r w.x.A.F.L.L.d.w.$.@.@.q %. .$.g.L.D.).(.J.H.(.).~.(.).(.L.^.(.).).K.g.).J.a g.L.F...t 5 @ @ @ @ @ + O ",
"$ $ * $ $ % $ % $ & 8 r w.z.).g.a a a a g.w.d...@...#.g.K.^.(.(.L.~.^.(.(.^.^.~.(.^.J.^.K.(.(.K.g.(.H.a g.g.$...t * - = $ + @ * ",
"* $ * - $ - l - - 8 u w.z.(.(.(.L.g.p a a h.g.e... .a K.^.^.(.H.(.(.^.^.^.(.D.).(.^.(.(.g.^.).(.g.L.(.J.a a h.#.O.- - & @ + @ - ",
"@ @ @ $ $ - - = - r e.w.H.(.^.^.^.^.L.g.a a g.h.a a g.^.^.(.^.^.^.^.).(.(.K.g.(.^.^.^.^.g.K.^.(.J.L.(.~.g.a L.e.u - - $ @ c $ $ ",
"V S V Z H Z Z F J =.z.h.g.H.^.^.(.(.(.L.J.g.g.a a a H.(.^.^.^.^.^.^.~.(.J.g.j.^.^.^.^.(.g.j.~.^.).g./.).D.g.a d.u - - $ @ & + + ",
"! ~ ~ ~ ! E E R 5.f.P.K.a g.g.L.F.L.F.L.g.g.g.a a g.~.(.^.^.(.(.^.^.L.L.g.b.g.).(.~.).(.M.h.^.(.(.g.H.~.^.K.g.,.@.- - * @ @ & ; ",
"E ! E ~ F R R J =.B.(.(.g.a a g.g.g.g.h.g.g.a p a H.(.^.(.^.).^.(.K.g.m.E.T.g.D.^.^.(.L.E.g.J.~.(.j.L.).(.(.K.e.u O.@.9 * - & $ ",
"Z F R R F F R 4.f.B.).(.(.g.a a a g.g.g.g.a a p a (.^.^.^.~.(.^.H.g.M.E.R.E.n.L.^.^.^.g.E.M.h.(.).g.J.H.(.^.(.B.f.o.o.%.v V c - ",
"E R F F H R R 3.f.L.(.~.(.(.L.h.a a a a a a a a g.^.^.^.^.^.^.L.g.m.].E.E.E.T.L.^.).H.g.E.M.j.).(.a J.J.g.K.(.(.(.z. .> @ @ @ @ ",
"H Z F Z F A J u e.j.L.^.(.L.L.L.D.h.a a a a p a g.~.(.^.(.^.H.g.b.'.E.a a E.E.g.^.(.K.v.E.T.g.~.J.a L.J.J.a g.k. ...t 9 * $ $ # ",
"c V V A M V d d.z.a h.F.K.L.h.h.a p a a a a X a g.(.(.(.^.).K.g.E.].T.E.g.a E.h.^.).g.E.T.a p ).J.a K.L.J.a  ...O.t w $ $ @ + + ",
"Z F F F F F =.B.(.g.a a g.h.a a p a $.,.,.<   o g.^.^.^.(.K.g.n.E.E.E.T.T.E.a g.^.K.T.E.a T.j.L.h.a J.J.D.p o.#.0 V 6 V c - v - ",
"S Z A V A A &.z.).(.D.h.a a p a X...>.%.{ u.X X g.^.^.(.(.H.g.'.E.E.].E.E.R.E.j.L.h.E.E.E.T.b.j.a g.K.K.j.a f.u V c M - - c c - ",
"- - - $ @ 8 O.x.(.(.^.J.g.a .. .#.t %.0 -.u.X X p ~.~.~.F.K.m.E.E.E.R.M.m.].].g.g.E.'.T.M.E.E.g.a g.J.F.g.p d.i - - c - - - % - ",
"$ @ $ $ $ r w.x.(.~.K.K.p  . .O.@.q - - { y.y.X p S.~.~.L.g.'.E.T.E.[.{.[.m.].E.g.R.E.b.E.E.].a a h.F.F.m a w.u V V v 6 - - 6 c ",
"c v - V c u w.h.h.J.J.g. ...%.q c - M k { u.y.o O g.^.).J.h.T.E.E.T.E.{.{.[.[.[.E.R.E.[.[.E.T.x a h.D.g.p ....@.M - V V v V - - ",
"- - - - c +.x.).L.g.g.a X.O.9 - - - M - y { y.X X g.K.(.J.g.].x   X X x E.[.{.[.[.{.[.{.E.X X z a g.L.a h. .@.0 V V c - - - - - ",
"A A V V V =.z.(.).L.g... .%.c v A V V V l -.y.y.X a H.J.J.h.E.X X X X X z E.[.[.}.{.[.E.X X X   a h.h.p e.,.<.G A C A V A V V A ",
"F F H H R 2.d.L.J.g.a ,.3.^ R L K R T R R c.t.i.4 5 g.J.K.a [.[.{.{.{.].X M.}. X X X[.X z b.n.z p g.p m ,.&.0 Z Z D V G A k l - ",
"H F L R T 4.f.g.h.h.,.,.3.R ~ E Y E Q R ! ! c.t.7.3 a J.g.p [. X X|.|. X X X X X X X|. X|.[.T.T.g.g.a f.$.%.V V A l V V V - 6 - ",
"F R L F ^ 6.B.K.g.,.,.6.^ Y R E R ~ ~ R W ( 6.;.Y.Y.a L.a a [.|.|. X X|. X X|. X X X X X|. X{.E.h.a p ,.%.0 O.y 7 V V c - V v - ",
"R F F F 1.,.d.h.,.$.3.^ ! R R ! E L F Q ^ 5.C.Y.x n.x g.p x M. X X X X|. X|.|. X X|. X X X X'.n.a a g. .O.u n.I.y 6 = k 6 % - c ",
"G V V v u d.z.X.$.%.0 V V V - l G R E Q 5.C.Y.W.z x } a | q.x E.|. X|. X[.[. X|. X X|.|.|.].m.a a a g.} U.C.7.a.3.J T F H F V D ",
"% - $ $ t o. ., t w $ @ % % - $ l _ ) ! g Y.[.M.z [. Xq.8.8.q.x E.[. X XE.XXXXXXn.].|.{.E.M.x a 0.a p }.v.x N.U.C.5.W W R E L L ",
"- - - - 9 @.O.9 - - - - - - - - V Q ! ! c.Y.].x x M.E.q.8.0.0.M.N M.'. X X|. X X|.[.[.].M.. 0.0.0.U a T.n.z x ;.r.( ! ) ! R R ! ",
"V V V V V l v l l A A S F F C A F ) _ ) 9.;.a.z x n.x q.q.b.E.[.E.a x b.T.].E.E.v.z X X X v.p Q.Q.Q.h.b.M.z x C.Y.4.L R E ~ R F ",
"Z C V A A A A V V A F Z F F F F T R ! ! / 9.;.z z x a Q.g.E. X XT.B a P a g.a U p X X b.E.g.Q.Q.Q.Q.g.x M.x a.a.;.9.E R E ~ H F ",
"$ - - - - % - - $ * $ - - - - V - - - - l %.....g.g.P _.Q.h..X{.b.Q.Q.a U g.g.a N Q.Q.v.b.g.N !.Q.Q.N a x ;.;.6.6.^ L R R R H Y ",
"@ - - - - & - % $ - @ $ * - - - @ = - $ $ w > s N N N !._.g.[.T.N Q._._._.L.Q.L._._.1.:.p.a P P N N g g ,.,.6./ R R Y R K F F R ",
"% @ $ @ @ * & @ @ $ @ & * - - @ @ - - $ $ & r f f P B N N B g.m.P Q._._._.L.D.L._._.6. .:. .f f f f h x 9.8.^ R E ~ Q Y L F F F ",
"@ $ - * $ @ & & $ ; @ @ $ $ $ $ * - % % - & # e f f B f f f  .f f P Q._._.F.J.h._.!.f i O.O.e e e s s.( Q Q Q R R R R E R R F I ",
"$ $ $ $ $ $ $ - % - - - - V l V Z S G Z V l V 7 u f f f y y <.u f N N U P h.U g.B P f d J V V A - Z R H Z I D F F A G Z F F Z D ",
"V v - - M 6 v V - V A C G C A A V V V V S V V A C s s u 7 V F d g Q.Q.P N g.g.h.N N s.h 2.C F F F G V V - c M V V k V - - - - - ",
"V V A A V C A l V A V V A V V A A A Z A A A V V V A A V k - C d h !.Q.!.Q.g.g.h.B Q.Q.8.f d J A A G A Z D V V V k V V c M c - - ",
"- v M V l - k M M - - - V l V k V k V k - l V - k V V C C A 5.g s.Q.Q.Q.Q.!.L.Q.h.Q.Q.Q.9.g 4.J K I K Z F Z D V A V Z F V V V V ",
"V V v - V V V V V V V V k V - - 6 V V A V V l - 6 k c V V - 4.g _._._.Q.!.Q.F.J.S.Q.Q.`.Q.s.g 4.R R R E K F D I Z Z Z Z Z Z Z A ",
"E R R R R F F R E R Q E ! R R R E ! R ! ~ E E ! E E R I R R / s._._._._._._.g.D.L.g._._._.Q.g 7./ R E R R F R L F I R I R F F F ",
"T R R E R E R E E R T E ! ~ ~ ! ) ! ~ ! R ! E E R T R Q ! / =.3 N N Q._._._._.L.Q.J._.Q.U . 5 < =.7./ F E ! E I F E R R Z Z F D ",
"R I F F R R R F R E ~ T R ! ~ E ~ R E E T R R R ! F R R E 7.3 3 X   X X X N N g.L.g.X X X .   4 1 5 =.^ R E R T R F F Z I F F A ",
"F F A F R F D F R R R F T R ~ ~ ~ E ~ ~ ~ R R E ! ! ~ Q / =.4 X   X X X   X . X X o X o o X X X X $.,.3.R T F I R R R R R F Z I ",
"F R E E R F T R T R R E E R R R R R F T R F R R F F H F =.< :     X . . X X X X       X     X j.).g.,.1.^ R R I Z Z F F V V A A ",
"F F R F F F F F F R F H F I F T F F F F F F F F F F F J 1.o.g.J.(.).L.  X X X X     O X X g.J.J.g.E.U.a.3.n F I A Z Z A Z V - - ",
"F F Z R F F F Y K E R R E R R R F F R F F R F A J 5.2.2.d.B.F.g.g.h.h.F.F.h.p p g.g.D.^.A.z.d.a.R.{.{.I.d.=.j Z F F Z Z F c @ - ",
"F F I F R K F I F F T F F R R F R R R R R T F F 2.d.d.f.,.$.f.;.m.m.z ,.o.,.#.d.k.k.e.$.,.1.6.;.a.C.R.L.1 1 =.F A A A F A - $ * ",
"R F T E Q E R R R F R ! ! R E E ! R E ! E R ~ E 5.f.,.p <.B.6.a.E.E.b.:.9.6.5.s.9.9.c.9.9.( / 9.8.f.J.  X < 7.Y R R F F L - - - ",
"Z F Z F F F F F F R R E R I F K F F F F I F Z F J =.z.z.z.*.<.Z.[.}.Z.:.=.Z Z I F F F F H F K F =.4 X X < < +.C A A V V V - $ $ ",
"$ - - - * $ * $ M V - 6 V V - V V l - V V V - l A q %.+.+.q u Z.{.[.Z.@.0 k V v V V V A l - V j +.1 X   3 +.j - - - - v - - - - ",
"- - - - - - - - - M k V l V A A V A A A A A A A V V V A A A 2.e.[.E.p.%.l l V A V A C S Z A l +.1 3     < O.q 7 l - V - - - - - ",
"v c - - - - - - V A V A V V - 6 V V l l l - V V l V V M k V +.< D.L.w.u - V - k M l V - l l - ..< X   X : 3 +.9 - - - * - $ - * ",
"- - = - - k M k - - - - - - $ $ $ - - - - - - v c V 6 - 6 - +.<   . < +.j V M k 6 A V V v A V +.:         : < +.- - - - - - * $ ",
"R ~ E R _ ! ! R F H ! ! ! ! R R E Q R Q Q E R R R Q E E R R r.4 X   3 1 7.R Q ! G - - V V V C d w.1 X       < +.- - - - - $ $ $ ",
"] ' [ [ ] ] [ ' ] ] ' ' ] ] ! ' ] ] ' [ [ ] ] ] [ [ [ [ ] [ r.4 X     3 r./ ! ] F - V V V V V 7 u d.e.1 . 1 $.@.V 6 - - * - * - ",
"! ! _ R R ~ W _ ' ' ! ! [ [ _ ( ! ' ' [ ' ! ' [ ' _ ) ) _ / 9.4 X X X 3 4 7.~ ! F - M V - 6 - = 7 u O.k.l.d.@.q - - - - - $ @ $ ",
"' ' ! ! ~ ( _ _ [ [ ' ] ] ' _ [ [ ! ' ! ! _ [ ! _ _ ! _ ) 7.4 4 .   X . 4 7.' ] K - - V M M V l 6 V 0 #.@.u 7 V V V - v - - * $ ",
"! ! R ~ ! ' ' _ ! ! R R _ _ _ ' ' ! ! ! ! ' [ ' [ ' ' [ ] r.4 X   X . X <.9.( ' I - A V A V A V V V V A V 6 v - - - - - - @ $ * ",
"V M G V V M V V V - - - - c k k V V V - V V V - l l l A A +.< X   X X 1 e.y M M V V - V - V V l - v - - l - - - $ @ * $ @ @ @ $ ",
"V A V V - - c - - V V - V k M M - v V - V V c V M V v v A %.o.e.k.B.B.e.u 7 M G Z V V G V l V c V l V k v - - v - * * @ @ @ @ $ "
};
