/* XPM */
static char *Layer_161677303407[] = {
/* columns rows colors chars-per-pixel */
"64 64 183 2 ",
"   c #1C1F25",
".  c #1C1F28",
"X  c #1B2026",
"o  c #1C2029",
"O  c #2D2D2D",
"+  c #353535",
"@  c #383636",
"#  c #363836",
"$  c #393836",
"%  c #363639",
"&  c #393639",
"*  c #3C3C3C",
"=  c #373938",
"-  c #323130",
";  c #451E1F",
":  c #7C1E1D",
">  c #461E23",
",  c #481F24",
"<  c #462124",
"1  c #492124",
"2  c #492129",
"3  c #413D3D",
"4  c #483737",
"5  c #533434",
"6  c #5B3B3B",
"7  c #57393A",
"8  c #49302E",
"9  c #6D2523",
"0  c #6E2729",
"q  c #722525",
"w  c #7B2B2B",
"e  c #792727",
"r  c #6F233C",
"t  c #6F2C33",
"y  c #71233C",
"u  c #752F35",
"i  c #643838",
"p  c #743135",
"a  c #7B3232",
"s  c #75333A",
"d  c #79353C",
"f  c #7A383E",
"g  c #7D302A",
"h  c #3E403D",
"j  c #41413F",
"k  c #744A2E",
"l  c #744A31",
"z  c #3E3E41",
"x  c #413F42",
"c  c #4D3D40",
"v  c #583D42",
"b  c #722341",
"n  c #7C3941",
"m  c #693F40",
"M  c #3F4141",
"N  c #3F4B56",
"B  c #3F4B59",
"V  c #434343",
"C  c #464846",
"Z  c #494946",
"A  c #464649",
"S  c #494649",
"D  c #4C4C4C",
"F  c #484847",
"G  c #524E4E",
"H  c #584747",
"J  c #4E504E",
"K  c #51514F",
"L  c #414B56",
"P  c #4E4E50",
"I  c #414A5A",
"U  c #524F50",
"Y  c #4F5052",
"T  c #545454",
"R  c #595957",
"E  c #565658",
"W  c #585659",
"Q  c #5B5B5B",
"!  c #565856",
"~  c #684746",
"^  c #76484A",
"/  c #615051",
"(  c #795255",
")  c #644E50",
"_  c #60625F",
"`  c #5E5E61",
"'  c #615F63",
"]  c #5F6160",
"[  c #636363",
"{  c #696969",
"}  c #686767",
"|  c #AC191A",
" . c #AD1618",
".. c #B11D1E",
"X. c #81221C",
"o. c #B4221F",
"O. c #871E2E",
"+. c #891F2E",
"@. c #861F30",
"#. c #881F31",
"$. c #822525",
"%. c #8B2525",
"&. c #85232C",
"*. c #89222D",
"=. c #852A2A",
"-. c #8B2B2B",
";. c #882827",
":. c #932C2C",
">. c #932B2A",
",. c #88382A",
"<. c #872132",
"1. c #8B2232",
"2. c #882F30",
"3. c #8D3333",
"4. c #8C3A39",
"5. c #863838",
"6. c #933333",
"7. c #9B3334",
"8. c #943A3A",
"9. c #98363A",
"0. c #97302F",
"q. c #B52323",
"w. c #B92626",
"e. c #A6223D",
"r. c #A9243E",
"t. c #A33A39",
"y. c #CC2535",
"u. c #CC2539",
"i. c #84403F",
"p. c #A54E37",
"a. c #A9513B",
"s. c #A7513A",
"d. c #9C3841",
"f. c #AA2542",
"g. c #AA2642",
"h. c #A52C5E",
"j. c #A03D42",
"k. c #A52C61",
"l. c #CF3F59",
"z. c #D23E5B",
"x. c #D03E55",
"c. c #8C4242",
"v. c #9F6F4B",
"b. c #9E714B",
"n. c #A16F4B",
"m. c #A1704B",
"M. c #BF6653",
"N. c #D2415C",
"B. c #D24357",
"V. c #C26956",
"C. c #DC526E",
"Z. c #DE4F7A",
"A. c #DF5176",
"S. c #DF5179",
"D. c #E24F79",
"F. c #E04F76",
"G. c #E15176",
"H. c #E1507A",
"J. c #CA6C64",
"K. c #CE7269",
"L. c #D27570",
"P. c #CD9F7D",
"I. c #D09F7E",
"U. c #CEA17E",
"Y. c #D1A07E",
"T. c #656F8D",
"R. c #63718C",
"E. c #637090",
"W. c #FB79A6",
"Q. c #FC77A9",
"!. c #FC79A9",
"~. c #FB77A6",
"^. c #9AA4B6",
"/. c #9AA4B9",
"(. c #CD9E80",
"). c #CEA281",
"_. c #EBC9B6",
"`. c #EBC9B9",
"'. c #ECC7B6",
"]. c #FDE9D6",
"[. c #FDE9D9",
"{. c #FEE7D8",
"}. c #FDFCFC",
/* pixels */
"V V * V V V V V V V * V V V V M V A A V V D P D D T ! ! ! E T A V T P T T ! T G Y A V =.<.=.v =.f.~.z.-.A 3 * * V A A A h = V x ",
"* * V * * * * * * * * * * * * z z * 3 h 3 A U U ! Q R D L ` T 6 $.;.3.3.8.8.8.3.3.~ D 5 $.e $.#.r.z.r.w z V D ! J D D D M * * * ",
"* * @ = % = @ @ @ * * * * * * * * V M V V A Z D U P T D l 2.2.2.1.1.*.+.1.*.1.+.*.=.;.&.$.+.@.r.r.&.$.4 * * * * * @ @ @ + O O O ",
"* V V V V M M V V V V V V V A S S A A A A j h V x V 6 =.=.+.*.@.f.k.h.h.y y y h.r.e.1.#.O.r.h.h.&.&.5 * @ * & + O + O O O O O O ",
"V A M V A V V * V A A V V A V A A x 3 z V V V V M 7 $.<.&.#.h.G.D.D.G.h.k.k.D.D.D.D.F.F.D.k.y b +.&.w e e 8 @ + - + - - O O O O ",
"* * V V 3 * M * j * h z 4 w ;.%.;.;.w w 4 3 V V 7 =.@.+.k.D.H.G.H.F.h.D.Q.W.W.!.Z.~.~.D.Z.Z.Z.k.+.+.r.r.+.e 8 * % = = + + O + O ",
"V * * * * * * * * = * 8 q e.x.z.l.l.r.r.w =.7 7 ;.#.*.h.H.H.!.~.F.h.W.W.Q.W.!.W.~.D.~.Q.Z.k.Z.Q.G.y r y r.+.&.h * = @ @ + + + - ",
"* * * @ = * @ @ @ @ 4 q r.C.h.y y y k.e.f.<.=.$.&.1.k.D.W.W.!.D.H.~.!.!.G.!.~.W.~.~.Q.~.~.F.k.z.~.S.y h.G.r.;.5 - + + + + - + O ",
"+ @ = @ @ = @ * @ % q e.C.W.A.h.y y y r h.e.<.1.<.y A.W.W.!.W.D.W.W.W.W.h.W.~.W.W.W.H.W.Q.Q.~.h.W.W.h.r D.r.+.e @ % * = % - + + ",
"* @ * * * * * * * * w r.~.~.!.~.H.k.r y y k.y y y k.W.~.Q.~.W.W.!.~.!.G.h.W.!.W.W.!.h.W.Q.Q.~.h.H.!.H.y y y r.e * * * @ = + & = ",
"- + + = @ * * % * 8 q e.H.~.~.W.W.!.H.H.h.h.y y y G.W.~.W.W.W.W.~.~.H.k.h.W.W.!.!.W.h.H.(.Q.!.H.h.~.~.k.y k.N.>.z * * = = % * + ",
"V A V A J A S D D 5.r.f.h.S.W.W.W.S.H.H.k.k.y y h.!.!.W.~.W.Q.W.!.D.h.m.k.!.W.W.W.A.m.h.W.W.~.W.h.W.~.H.r k.N.7.7 * $ % % + - - ",
"Q ! ! E Q R ! ! R i.g.G.h.k.S.S.H.H.h.h.h.r y y h.!.~.W.W.W.~.W.G.h.U.U.k.H.W.W.W.k.U.k.~.W.W.W.h.H.W.W.h.y f.1.$.* = * + % + - ",
"Q Q Q E J J T D K 7.N.!.H.k.y y k.h.h.y y y y r G.~.!.W.W.W.W.H.h.r r P.k.D.!.~.W.k.P.b.D.W.~.W.k.H.W.W.H.k.y 1.=.V * * * = % = ",
"D D T Y D D T T ~ 4.C.!.!.W.G.h.r y y y y y y y W.!.W.W.W.W.W.h.U.).h.r b.G.W.~.W.m.U.y r W.W.~.h.H.S.W.!.D.y 1.2.A A M M V V * ",
"! K D D T Y T J 4.r.G.!.W.W.~.!.H.S.k.y r y r h.!.~.W.W.!.W.F.U.U.U.Y.U.y H.!.W.H.Y.y U.h.D.~.!.h.H.h.S.W.!.h.&.$.@ + + + + + - ",
"P D G D C A A Z 5.r.Z.F.~.~.D.H.G.k.h.y y X y k.W.W.!.Q.Q.Q.h.U.I.I.U.U.U.k.~.W.G.U.U.).U.h.!.D.h.G.H.y k.D.~.&.e * * = @ + = % ",
"* j V A j j V A w f.h.k.H.G.H.Z.H.k.y b X o X h.!.W.(.Q.~.~.v.U.I.b.b.I.U.k.~.~.k.P.b.U.U.h.H.H.y H.H.h.y k.H.O.e & $ & @ + + - ",
"D A A D D G K D -.N.h.y y k.h.k.h.y y y u.X X k.~.W.W.W.~.h.v.I._._._.m.U.U.G.!.k.m.`._.m.y D.k.y H.H.k.y y f.r.=.V M * * * * * ",
"A D C A V V V H =.C.W.D.h.y y r y y y y y.X X r W.~.!.~.~.h.c.X X X o `.U.Y.h.W.P._.X X X y k.y h.H.H.k.y r &.=.7 M * V * * * * ",
"* * * % # $ $ w f.C.W.~.W.D.H.h.y r r | y.y.X y G.W.W.W.S.m.  E.y y y X _.U.k.H._.X r r R.X r y k.H.G.y y h.O.$.* * * * * M * * ",
"@ @ + @ + = @ q e.G.W.W.H.H.h.y r b y | y.y.X X h.W.W.W.h.X ^.}.h.}.y y _._._.k._.b.^.y /.k y r h.H.H.r y r.1.&.V V V h * * h * ",
"M * M V M M * w r.k.D.D.H.k.y y y y | =. .y.  X k.H.~.~.h.k }.}.h.b y y `.`.`.`._.m.r y }.k n.y k.H.k.y r *.$.7 3 * V V M M * * ",
"* * * * * * 5 %.z.k.k.k.h.k.y r r  .$.* | y.y.X y A.W.~.h.U.}.}.k.y r h.`.{.].[.`.P.y y }.m.m.y k.G.y y k.+.=.V V M * j z * * * ",
"A C V V i ;.=.1.C.W.H.G.k.y y y | | =.V =.| y.X o h.Z.W.h.`.P.}./.h.h.P.].[.[.[.[.`.U.k.Y.U.b.y h.k.b k.h.*.=.A A Z V V C A j V ",
"D U P J 6.N.g.1.h.H.G.h.b 1.1.V.]._.o.4.T 4.q.X X r H.Q.y [.[.[.].[.[.[.[.[.[.[.].[.[.[.`.U.b.y h.h.y k.r.1.2.m -.2.a V C M V h ",
"D D J T 3.1.g.Z.y h.k.1.#.1.9.K._.m.k o.q.8.8.q.X X h.A.y _.[.].[.].[.].].[.].[.[.[.[.].[._.m.y k.y y y 1.=.=.-.,.M.J.a x V * * ",
"D T U D ~ 3.1.f.k.&.1.*.3.6.3.a.k l v._.].q.! 4.q.q.y h.y n.[.[.[.].[.[.[.].[.[.].].[.[.].P.l y h.y r h.&.=.p.J.M.l ,.$.3 j j * ",
"T Y D D T ~ 3.1.1.1.3.4.) R l L._.P.k l ].o.D ! ! 6.q.y y k U.].[.[.].y.y.u.y.y.U.[.[.[.U.l | y y  .r h. .O.V.m._.b.M.J.t * * * ",
"C V V j V h 7 =.=.=.7 V V V t K.`.).k n.P.o.q.q.4.4...q.y q.l n._.[.[.[.y.y.y.(.].].`.m.X q.2...y ..r y N h.).l l l s.=.H D V A ",
"@ * + # + @ + + @ @ @ @ + $ 0 J.p.k k b.y R.R.B w.q.R.k.Y.P.m.I l v.P.'.[.[.{.].`.m.X X w.w.w.w.w.L L T.T.h.m.k l U.K.c.! T Y T ",
"* * * * * M * * * * * * 3 * 3 e V.s.b.k.R.^.^.^.^.^.^.R.k.].`.).y B k k k l l k y X o b.U.k.N I R.T.R.R.T.t k m.i.V.K.c.W ! ! R ",
"V V V V V V * M V V C A D Z Z v 3.1.g.N L I R.^.^.^.R.R.h.[.`.(.B b N y h.y I y N R.v.P.Y.h.R.R.R.R.R.R.R.N b s.s.4.5.G E W T D ",
"Z A V A A V D A V A C D D D J D ~ 8.n n B B L B B N I B y '.U.v.R.R.y I h.h.y B R.T.v.P.).h.E.R.R.R.R.N n f n <.8.) R T ! R P D ",
"= * * * * @ = * $ $ = * * * * M * 4 0 p s s B B N s s s @.,.p.B T.^.^.^.H.R.G.^./.R.v.v.n.h.L B B B n n n d.4.6.~ ! U T T K G J ",
"+ * * * * @ * = = * + @ = * * * + + 4 q 0 p u p s u 9 9 : : t B R.^.^.^.H.D.D.^./.3.,.,.,.e.p p t s n 5.5.T T T ! T J T P D J K ",
"= @ @ + + = = + + + + @ * * $ @ + * * % 8 0 9 9 9 9 4 + - q u s L R.^.R.D.H.A./.R.u e $.X.q 9 q 9 w c.T R R ! T E E ! J P D D D ",
"+ + = = @ + % @ @ + - + + + @ = = * * * * $ # + % @ + - - @ q u B I I N k.N k.N I u q 8 @ * = @ - V ` R W R R T T T ! T ! T D Y ",
"@ = % @ @ @ @ * * * * * h j j V A A V A V 3 j V h * z * * h w s I R.I I k.h.k.I R.9.s a D A j V z C ! D D D A D D V V D D D D A ",
"V V * * V * V j * V A S A A A A V A M V A V A A A V A V M V 5.f R.T.R.R.h.h.S.R.R.R.s a H D S D P A V V * x j j V h V * * * * * ",
"A V A A V A A j A V V V A V V A A V D V A A V A A A V V x h a d R.R.T.R.R.D.R.H.R.R.9.d p H A V A A V A A V V M V V j * V h * * ",
"* * h V j * 3 j 3 * * * V j V V V j V * * 3 j * x x V C S j a f R.^.^.R.R.D.S.D.^.^.^.d.f 5.T T J P T Z D D A A A V A D V V V V ",
"A V j * z V V V V V V A V V * * j V V A V V V * j V * x 3 w n j.^.^.^.^.^.D.G.H.h.^././.d.d :.^ T K E ! G D D D D D A D S D D V ",
"T T T T T D D ! T ! ! W R T T Y ! Q R R R ! ! R ! E E G R 5.f R.^.^./.^.^.h.H.G.S.^.^.R.B 2 , 0.7.~ R ! J D T G D D D K T D D D ",
"P T T ! ! ! T ! ! T U ! Q R W Q Q Q W Q E R R E T D ! T W 7., I R.^.^.^.^.^.H.T.D.B   X X X < z.N.7.~ J W R W G J T T G A Z D C ",
"T G D D T T T D T ! E D T Q ! ! R T ! ! P T ! T R U T ! ^ 7.1 . X X I R.R.L h.H.    . X o X D.A.*.1.4.~ T R T P T J D D D D D A ",
"D G A D ! D A D T T ! D U E E R R R E E ! T T ! R Q R W 0., 1   X   X X X o X X     X   X r S.h.U.K.s.3.) K P D T T K T T D D D ",
"D Y T ! T D G T P T U ! ! T T T T E D U T D T T D D G ~ :., . X X X X o X . X X . X   X r Z.h.P._._.V.f.>.~ T D S D D D A V V A ",
"J D T D D D D D D T D P D U D D D D D D D U D D D D P >., > X X   O X X X X X X   X y z.N.g.,.s.a.I.H.< 1 >.D D A Z A V Z V * * ",
"D D A T D D D D T ! T T ! T T ! P P K D D T D A D U D 2.1.W.W.H.h.X .   X X X X y f.f.1.:.2.6.3.f.N.X o , >.C A D D D C D j + * ",
"D D D T D T Y D D Y D D D T T D T T T T T P D D D D G 4.1.h.r h.~.~.H.h.y y y g.f.1.4.6.~ Y U ~ :.< o   1 0.U D A A A D A * @ = ",
"T D D T Q T T T U D ! R W T ! ! R T ! R ! T ! ! T T ) 4.f.r y y r h.N.B.N.g.1.1.8.8.( Q ] ] Q t.2 2 X X < :.^ T K T G D K * * * ",
"D D D D D D D D P T T ! ! G D Y D D D D D D D D D i -.f.1.y H.v.v.n.,.-.-.a -.2.~ D D Y Y K D :.< X   X > < >.V A C V V j * & @ ",
"+ * * * % @ = @ 3 V * h x V * M j j V M V V * j V ;.x.O.@.x.V._.'.M.,.%.V V V j h V A V * z x %.> X X   X > %.3 * * * * * * * * ",
"* * * * * * * * * M 3 V j V A A V A A A A A A V A >.z.N.z.-.f._.U.p.;.i j M V V A V C Z A C A %.>   X   X > ;.x V * M z * * * * ",
"j * * * * * * * V A V A V V * j V V 3 j j * V V M 6 $.%.;.%., D.H.f.w * * V j * V x j z M M * e r.>   X > O.e & * * * * = @ * * ",
"* * % * * z V * * * * * * * @ % @ * * * * * * V h M M * 3 %., X o ; %.i 3 V z M h A V V V V V 7 w f.z.N.r.=.5 * * 3 * * * * = @ ",
"! W ! R ` Q R ! D J R R ` R ! T ! R T E ! ! T T ! E ! Q ! 6.2 X o 2 < 7.! ! Q W A * * V V V V j 7 w ;.;.w 4 * * * * * * * @ = @ ",
"} [ [ } { { } [ { { [ [ { { Q [ { } [ } } { { { } } { { { t.1 X     < t.c.Q Q } G * V V V V V M M h V V A 3 V z V * * * * * = * ",
"R Q Q ! ! R R ` [ [ R ' } [ [ Q ` ] } [ ' Q [ } [ ` / ' ( 7.1 X X X < < c.! W Q D = j V 3 * * * * z * 3 z j * V * * * * = % + @ ",
"} ' Q R R [ Q ] [ } [ } { [ ] } } Q [ ] R [ [ Q ` [ R ' t.1 < X X . . 2 t.[ [ } D * * V 3 V x V M M A M j V x V V V * M z = = @ ",
"Q Q E R R [ [ Q Q Q E ! Q [ Q ] [ Q Q R Q [ } [ [ [ [ } t.1 X X   X o 1.8.Q [ [ D V A V A V A V V V j A V * x * * * * * * @ @ = ",
"V * A V V z V V V * * @ * * * V V V V * V V V V V V h V >.> X . X X > f.e 3 * h V V * j * V V z z M * * j * * * @ + % + + + + % ",
"V A V V * * V * * V V V V * V V * V V * M V * x x j V V =.#.f.z.l.N.f.g c V V V Z V V A V V V * V V V * V * * M * = * + + + @ @ "
};
