/* XPM */
static char *Layer_241677303408[] = {
/* columns rows colors chars-per-pixel */
"64 64 186 2 ",
"   c #1C1F25",
".  c #1C1F28",
"X  c #1B2025",
"o  c #1C2029",
"O  c #2D2D2D",
"+  c #31312F",
"@  c #353535",
"#  c #383636",
"$  c #363836",
"%  c #393936",
"&  c #363638",
"*  c #393739",
"=  c #373A39",
"-  c #3C3C3C",
";  c #451E1F",
":  c #461E23",
">  c #462124",
",  c #492124",
"<  c #492129",
"1  c #453333",
"2  c #403E3E",
"3  c #4A3A39",
"4  c #5B3434",
"5  c #573838",
"6  c #4D2F2F",
"7  c #7A2926",
"8  c #7B2C2B",
"9  c #772626",
"0  c #7C312E",
"q  c #6F243B",
"w  c #6E2337",
"e  c #7C2E31",
"r  c #71233B",
"t  c #722F38",
"y  c #7C3332",
"u  c #76333B",
"i  c #79353D",
"p  c #78373A",
"a  c #623637",
"s  c #3E413E",
"d  c #41413E",
"f  c #4E413F",
"g  c #52433E",
"h  c #744A2E",
"j  c #754A31",
"k  c #784A33",
"l  c #6C403F",
"z  c #3E3E41",
"x  c #413F41",
"c  c #593F40",
"v  c #722340",
"b  c #7B3A41",
"n  c #7B3740",
"m  c #3F4141",
"M  c #3F4B57",
"N  c #3F4B59",
"B  c #434343",
"V  c #4A4545",
"C  c #464846",
"Z  c #464649",
"A  c #4C4C4C",
"S  c #494848",
"D  c #534342",
"F  c #524D4E",
"G  c #594948",
"H  c #4E514E",
"J  c #51514E",
"K  c #59514E",
"L  c #4F4E50",
"P  c #414B5A",
"I  c #414C56",
"U  c #514E51",
"Y  c #5A4E50",
"T  c #4F5151",
"R  c #535353",
"E  c #595455",
"W  c #565856",
"Q  c #565759",
"!  c #595759",
"~  c #565958",
"^  c #5B5B5B",
"/  c #595856",
"(  c #684949",
")  c #714546",
"_  c #615A5A",
"`  c #765151",
"'  c #615F60",
"]  c #5F6160",
"[  c #636363",
"{  c #696969",
"}  c #676868",
"|  c #9C1E1E",
" . c #AD1A1B",
".. c #AB1716",
"X. c #B21D1E",
"o. c #83211E",
"O. c #861F2E",
"+. c #891F2E",
"@. c #861E30",
"#. c #891F32",
"$. c #9F1F20",
"%. c #842524",
"&. c #8C2525",
"*. c #852926",
"=. c #85232C",
"-. c #89222D",
";. c #842A2A",
":. c #8B2B2B",
">. c #942B2C",
",. c #883A29",
"<. c #862031",
"1. c #8A2232",
"2. c #833433",
"3. c #8D3434",
"4. c #8A3B3C",
"5. c #843B3A",
"6. c #933435",
"7. c #9A3334",
"8. c #97393C",
"9. c #983030",
"0. c #B42322",
"q. c #B92525",
"w. c #B92727",
"e. c #A6233E",
"r. c #A9243E",
"t. c #A23939",
"y. c #A82A29",
"u. c #C82333",
"i. c #86413E",
"p. c #A74D3A",
"a. c #A8523C",
"s. c #873E41",
"d. c #9B3943",
"f. c #A62341",
"g. c #AA2441",
"h. c #AC2843",
"j. c #A52C5E",
"k. c #A82D5C",
"l. c #A52C61",
"z. c #A82C60",
"x. c #CE3E5B",
"c. c #CE3E57",
"v. c #D03D57",
"b. c #D13E5A",
"n. c #864B4C",
"m. c #9E714B",
"M. c #9E7147",
"N. c #9F6F4B",
"B. c #A16F4C",
"V. c #A0704A",
"C. c #D2415B",
"Z. c #C56C59",
"A. c #C06955",
"S. c #DC536E",
"D. c #DE4F7A",
"F. c #DF5275",
"G. c #DF507A",
"H. c #E34F76",
"J. c #E24F7A",
"K. c #E15077",
"L. c #E2507A",
"P. c #CD7269",
"I. c #D1726B",
"U. c #D47671",
"Y. c #CC6E66",
"T. c #CD9F7D",
"R. c #D09F7F",
"E. c #CDA07E",
"W. c #D1A07D",
"Q. c #646F8B",
"!. c #63718C",
"~. c #FB77A6",
"^. c #FB79A6",
"/. c #FC77A8",
"(. c #FC79A9",
"). c #9AA4B5",
"_. c #9AA5B9",
"`. c #CC9F80",
"'. c #CEA180",
"]. c #D1A080",
"[. c #ECC9B6",
"{. c #EBC9B8",
"}. c #FCEAD6",
"|. c #FDE9D9",
" X c #FFE7D9",
".X c #FCFCFC",
/* pixels */
"B B - B B x B B B B z B B B x d B Z Z Z B V A A A W ! W ~ Q R Z Z R U F W R R L R V 8 e.v.h.g.b.F.b.:.V Z - - z Z Z S S - & B x ",
"- - B - - - - - - - & - - - - - - B - B s Z T R W Q ^ S U ^ R V - B A R ^ ^ ] R A A 2.e.%.9 7 f.x.S.7 B z B S W H A A S B - - - ",
"- & $ * $ * @ $ $ - - - - 2 z - - d x x d d A A H A R A S H S A A d Z B Z A A S B Z D 8 3 - 3 &.v.S.%.z - - - x - - $ $ @ O O O ",
"d B B B B B x B B B B B B d V Z V Z Z Z C Z - d d B Z B B - B - B s 2 - - - z - B - - m x - B &.v.x.%.- - $ * + O + O O O O O O ",
"B Z 2 B Z B B 2 Z C B B Z B B Z V B - - B B 2 Z B - m x - B B B x s B B B C B - B s - - - - 3 %.x.e.8 - $ * @ @ + @ @ + O O O O ",
"- - B B d - - z z - B - s s B z x 2 B x - 2 d B B B s s m B B 5 ;.;.*.*.%.=.;.;.;.5 B 2 6 %.%.f.r.+.%.- - * $ * & & & $ @ O @ O ",
"B - - - - - - - $ @ - & @ * 1 9 %.%.:.7 8 D V x B B B B 5 =.;.;.+.O.<.@.1.#.-.O.#.:.;.*.;.-.<.g.@.%.e ;.5 x x 2 - & & & @ @ @ + ",
"- - - $ - $ $ $ $ * - $ 1 9 %.e.x.v.x.f.r.8 8 3 m m 5 %.%.<.@.=.f.j.l.l.r r w l.r.r.-.-.<.r.l.r r.f.r.+.%.7 5 * O @ @ @ @ + @ O ",
"@ $ - & $ * $ - $ * % 1 9 e.v.c.j.r r r <.r.f.8 3 5 ;.-.+.<.j.L.K.L.L.l.j.j.H.K.L.L.L.L.K.l.r w q r q r.r.O.%.6 * $ - % $ @ @ @ ",
"- $ $ - * - z - - - - 9 e.C.^.k.r r r w q r O.h.7 %.<.<.k.L.J.G.K.j.l.H.^.^.^./.K.^.^.K.L.L.K.j.w r q q r h.<.%.- - * @ & @ $ & ",
"@ + @ * $ - - * - - 1 O.x.^.~.G.l.r r q r r l.v.h.#.<.l.H.H./.^.G.L./.(.^.~.^.^.^./.^.^.^.K.K./.H.r r r l.H.r.2.B - - $ @ $ * $ ",
"B Z B S A S S S S A 2.e.C./.^.^.^.K.j.r r j.L.L.r r l.L.^./.^.D.(.^./.^.^.L.^.^./.^.^.^.^.L.j.G./.J.q l.D.H.h.8.5 - $ * @ @ @ + ",
"^ ! W ! ^ W W W E / s.h.H./.^.^.^.^.(.^.L.L.G.r r r L.^.~.^.L.^./.^.^.^.L.j.^.^.(.^.^.L.(.(.^.j./.^.j.r l.l.1.<.%.z - & @ @ @ + ",
"! ^ ^ ! A R R A J Y 3.h.j.H.^.^.L.L.L.L.G.l.r r q j.^.^.^.^.(.~.^.^.^.L.L.j.^.^.(.^.^.j.^.^./.j.L.(.L.r r r z.1.;.m m - - - $ * ",
"A A R R A A R R U 4.h.C.l.r l.G.L.L.L.L.l.r r r r K.(.(.^.(.^.^.^.L.L.L.j.l.L.(.^.^.^.j.L.^.^.L.j.~.(.j.w L.H.h.:.5 Z B z Z x - ",
"W R S S R J R J R 4.h.^.G.l.r r l.j.l.j.r v r r z./.^.^.^.^.^.^.K.L.l.V.E.m.L.^.^.(.G.l.G.^.^.^.j.(.^.D.r j.H.f.+.7 @ + @ @ @ + ",
"A A S A S Z Z C D >.b./.^.^.J.k.r r r r w r w v D.^.^./.^.(.^.K.L.l.W.E.'.E.G.^.^.^.K.V.l.^.^.^.j.K.^.^.j.r j.l.<.7 - & $ @ $ * ",
"- B Z B B B B Z 8 r.C.^.^.^.(.~.J.j.j.l.r q r r ^.^./.^./.^.G.L.l.E.r r T.E.l.^.^.^.j.E.j.L.^.^.l.D.(.^.K.r w r e.9 $ & @ $ @ + ",
"S S A A A A F A 2.r.G.(.^.^.L.L.H.G.j.r v r r l.^.^.^.^.^.L.L.l.N.W.E.l.r E.j.^.^.^.k.E.r r ^.^.k.L.L.^./.G.r l.e.;.5 d - - - - ",
"S A Z Z Z Z C g e h.l.G.^.J.K.H.G.l.w w r r q j.^.^.(.^.L.K.j.M.E.E.W.'.'.w l.^.^.L.V.r l.L.(.L.r L.j.K.^.^.L.r r.+.=.m - - - - ",
"- - - * $ & - 9 h.c.j.w v l.j.l.r r r q q   r j.~.^.^.^.J.H.j.E.].E.E.'.E.E.B./.^.K.T.E.E.l.(.K.r L.G.r l.H.(.G.q -.%.- - - - - ",
"* @ $ * @ $ @ %.b.^.~.H.l.q r r q r O.-.:     j.(.^.^.L.J.j.V.T.E.T.m.V.E.R.R.H.^.l.'.m.E.l./.l.l.H.L.l.q q r r l.-.;.z - - - d ",
"x - B - s m - =.b.^.(.^.^.K.G.L.l.<.O.| u.X   j.^.(.^.H.L.l.R.E.T.[.[.{.M.E.E.G.^.k.N.{.{.j.L.q l.L.L.j.r j.l.l.l.O.;.B z s - s ",
"- - - - - - - 7 e.L./.L.K.J.l.w +.+.%.| u.  X r ^.^.D.L.l.m.`.V.  X   o {.E.E.l.H.T.[.. X X r r j.K.L.l.r r r r r e.7 B - z - - ",
"S Z Z B B B c 8 f.r j.L.K.l.r -.#.*.5 $.u.u.o q D./.H.L.z.T.m.  !.r r r X [.E.j.l.T.  q w !.X r l.H.H.r  .r l.l.l.h.0 B Z B d Z ",
"L A J A R R 5.h.C.l.r q r r 1.1.3.( R y.u.u.O   j.~.G.L.l.'.  )..Xl..Xr v {.[.j.R.{.N.).r _.j v l.G.L.r X. .r l.k.#.;.Z Z d B d ",
"R A H R R Q 2.h.G.^.L.j.j.<.1.6.( R ! b y.u.X X l.L.L.j.V.[.j .X.Xj.r r v [.{.[.{.{.B.r r .Xh w j.L.k.r X.;. .q r <.;.B B z - 2 ",
"A J A A A R 6.1.D.(.L.L.l.1.6.( W W W E y.u.u.X r H.D.l.V.{.T..X.Xl.q r l.[.|.|.|.[.E.r w .XV.r l.D.r  .8 B ;...q r.;.- - - B - ",
"J R S U A H 3.1.j.K.G.j.1.1.3.^ R J T R n.$.u.; > j.L.r m.}.[.'..X).j.j.'.}.|.|.|.|.[.T.l.T.].r k.l.r ..- 9 ....r f.9 z - % m - ",
"Z B B x B B 7 r.K.j.r <.-.:.5 d B R W ( 5.5.0.9., h.j.r V.}.|.|.|.|.|.|.|.}.|.|.|.}.}.}.|.{.T.r l.q  .3.X.0.j E.Y.<.3.A H A B C ",
"$ * $ $ $ & 9 e.^.D.O.O.9 6 % * B ^ _ i.P.U.Z.n.7.<.k.v j [.}.|.|.|.|.|.}.|.|.}.|.|.}.|.|.{.B.q j.r w.w.'.[.{.j ,.7.` R W R R J ",
"- - - - - s 9 f.H.r.O.=.4 - - - Z ( i.U.U.E.,.7.I.q.j.0.k V.|.|.|.|.|.|.|.|.|.|.}.}.|.|.|.E.j r r q.q.r [.m.j B.Z.P.i.] ! R W ^ ",
"Z x B B B s &.v.j.#.;.c A A S Z H 8.Z.P.E.h ,.a.I.q.r q.q.j E.}.|.|.|.E.|.|.}.|.|.|.}.|.E.h q q 0.0.P j.W.h h h ,.7.E R R W R S ",
"S S B S C B ;.F.b.h.2.A S L A A T i.I.E.h k k '.E.q.q.w.w.q.h m.[.|.|.|.m.h h T.|.|.{.M.. 0.q 0.P !.!.l.V.h h a.Z.P.5.R W ^ R A ",
"* - - - - - %.v.e.9 1 % - % - x s %.,.p.h j m.`.m.!.Q.j.E.E.V.N h m.T.[.|.|.|.|.{.M.X   m.j.!.!.!.!.Q.r h V.Z.i.6.i.K J R R A U ",
"+ - - & - $ 9 e.9 1 @ @ - - - - @ 6 o.,.,.j V.m.q ).).!.j. X[.E.q M k h h j j h q     T.l.Q.!.Q.!.!.!.N r p.a.6.) R H R A S R R ",
"- & $ @ $ * 1 9 1 & $ & - - % & @ - 4 o.O.l.j.w N !.!.!.j. X[.T.N w N v j.w I r I !.m.T.j.M !.!.!.I I P n 1.6.( Q ! W A R A A A ",
"@ @ * * # $ & @ @ + @ @ @ $ $ @ * - - 9 t u N P N P !.P q [.T.M.!.!.r I j.j.r N Q.Q.p.p.+.u t u N P I i b 6.( R R R W W R R A U ",
"* $ - $ $ $ $ - - % - - m 2 d d S Z B D e u u u N u u O.,.,.p.P !._.).).L.!.G.).).d.,.&.:.0 e u u u i p p G S V S S Z S A A S S ",
"B 2 - z d 2 B 2 s B Z Z V Z S Z B B B B D 8 0 u u i 0 ;.:.:.i N !._.).).G.K.L.).).8.:.( A S D y y p 8 y 3 B m B B B x s - - - - ",
"Z d Z B Z Z B d Z B B B Z B B Z Z Z S Z Z Z f e y 0 V x d 8 i N !.!._.).H.L.l.).8.u p V Z S S Z Z S Z V B Z B B - B B z B m - - ",
"- - B B d - d B x - - - B d B B B m B - - B s 2 - x B V V y i I I !.!.l.N l.!.!.u 2.F A U R R R A A T S A S Z Z Z B S S B m B B ",
"Z B d - z B s B B B B B d B - - z B B B B d B - x B s B 9 u d.!.I N P l.l.l.N I i 4.Y R W R H R W R R R J A S A S S S S S S S Z ",
"R R R R R F A W R Q ! W ^ R U R W ^ Q ^ / R W / W Q W G 5.i !.!.!.!.!.l.H.L.l.!.d.i 4.Y / R ! R W R W W R A R U A H R T R A A A ",
"U W R R W W R R ! W U W ^ ! ^ ^ ^ ^ W ^ ^ W ^ E U F R 5.p d.!.!.!.!.!.!.K.!.K.!.!.d.b 4._ E Q ! R W R F W ^ W A A R R T S S S A ",
"R A L A R R R A R W W F U ^ W R ! W R W A R R R ^ U R 4.i !.).).!.!.!.!.j.L.G.!.!.).d.b 5.R W R R R W U R W R U R T L S A A A B ",
"A A Z F W A S A R R ! S R W W ! / ^ Q Q W R W W ! ^ ) 7., P Q.)._._.).).).H.J.l._.).!.i 9.) F J A R R L W U T A R T R R T A A L ",
"A R R W R A U R A R R W W U R R R W A F R L R R F c 9.: : O X P !._.)._.).H.Q.G.).!.I , ; 7.) / ^ R U R A R R A A S A A S B B S ",
"A A R A A A A A A R A F A L A A A A S A H A A A L >.: : . . X X X   X P I l.J.L.I o X X , > 9.( R R J R S S A A Z Z S S Z m - - ",
"A A S R A A A U U W R R W R R W R A U A A R A C G 6.<.l.X   X . O . o X .   X X o o X X X <.1.3.A A A S A A S S S A S V A m @ - ",
"F A L A A R R A A A T A F R R L R R T R R F A A 2.h.C.^.L.l..         X o o   X X X X z.L.r.1.6.U R T A U R U S S Z Z A Z - $ - ",
"R A A W W R R R R A R ^ ^ R R W ^ R W ^ W R / E 6.1.r j.~.(.J.k.w   X . X X . X r j.(.L.z.1.8.` ] ^ ^ Q W W W W R R H A A - - - ",
"S A A A A A S A A W R W R U A A A A A A H A Z G 2.f.r ^.r r z.~.~.D.q j.J.~.^.H.j.L.G.l.V.,.>.A S A A Z Z S S Z Z Z B B B - $ $ ",
"$ - - - * $ - & 2 B - d m B - B d 2 s B d B - 8 e.-.H.^.V.R.B.#.@.O.O.<.r.r.#.@.-.,.a.E.R.f.8 m B Z B - B - - - - - - - - - - - ",
"- * - - - - - - - z - B 2 B Z Z Z Z S S Z Z Z 2.h.O.F.r.{.{.B.,.:.:.;.;.8 8 ;.;.;.:.r.K.H.: &.4 d B - B d - - s d - x x - - - - ",
"m z - - - - - - B Z B Z B B s d B d z - d 2 B &.x.S.%.: k.K.C.>.4 - x - - B s x B &.: X   : : %.- - - - - - - - - - - * - @ - - ",
"- - * - x - B - - - - - - - $ $ $ - - - - - - 5 %.;.&.: X X > &.d - - B B - B B - >.: :     > &.a - m d z B - = - d - - - - * $ ",
"W ! W R ^ ^ ! W H F ^ ^ ^ ^ R U W W R Q E W R K E 7., , X X : 7.W ^ ^ ~ W W E W Z 4 &.: X X < : &.d m B - - z - - - - - - $ & $ ",
"[ [ } } { { } [ { { [ [ { { ] [ { { [ } } } { { { t.< X   o > t.` ' _ [ [ ] ^ { K - &.: X X X : &.a B B Z d B z B - - - - - - * ",
"^ ^ ^ R W ^ ^ ^ [ [ ^ ^ } [ ' ^ ^ ' } [ ' ] [ } ` 7., X   . < , 9.J W ^ ^ Q ~ _ S * &.> o   X : ; &.- - d s - B - - - - * * $ $ ",
"} ' ^ ^ ^ ^ ^ ] [ [ [ } { [ ] } } ^ [ ^ ^ [ [ ^ t.< < o X X X , 8.n.] [ [ [ [ } H & &.:   X     < &.5 B B B B B B x - x - - $ @ ",
"^ ^ E ! ! [ [ ] ' ^ W W ' ' ^ ' [ ^ ^ ^ ] [ } [ t.<   O X X X > < t.[ ^ ^ ^ ^ [ A B &., X o o   : -.;.B B - B - - - - - - $ $ * ",
"B d Z B B B B B B - - - - z - B B B B - x B B s =.@.;   X   X   < &.B m B - z s m m &.<.r.b.b.r.f.O.%.- x - - - $ $ $ @ @ @ @ & ",
"B B Z s 2 - - - - B B - B - B B - s B s B m s B 5 ;.O.e.b.C.x.h.-.;.B B d B d Z S Z 5 ;.8 :.:.8 8 ;.5 2 z - - x - * - @ * @ @ $ "
};
