/* XPM */
static char *Layer_11677303405[] = {
/* columns rows colors chars-per-pixel */
"64 64 184 2 ",
"   c #1C1F25",
".  c #1C1F28",
"X  c #1B2026",
"o  c #1B2129",
"O  c #2B2C2C",
"+  c #302E2F",
"@  c #3F2C2E",
"#  c #31312E",
"$  c #353535",
"%  c #383636",
"&  c #363836",
"*  c #3A3A37",
"=  c #363639",
"-  c #393739",
";  c #373938",
":  c #3C3C3C",
">  c #2F3030",
",  c #471E1F",
"<  c #451E23",
"1  c #491F26",
"2  c #462124",
"3  c #492126",
"4  c #4B252A",
"5  c #413D3D",
"6  c #4E3B3C",
"7  c #453434",
"8  c #533334",
"9  c #553A3A",
"0  c #5B3D3C",
"q  c #583837",
"w  c #4F302F",
"e  c #6D2425",
"r  c #7E2324",
"t  c #7B2C2C",
"y  c #752828",
"u  c #7F312F",
"i  c #6F243B",
"p  c #71233C",
"a  c #7B2C30",
"s  c #623738",
"d  c #733134",
"f  c #753339",
"g  c #7A353D",
"h  c #7C3537",
"j  c #3E403E",
"k  c #40413E",
"l  c #53413F",
"z  c #744B2E",
"x  c #734931",
"c  c #3E3E41",
"v  c #413E41",
"b  c #4E3E41",
"n  c #722340",
"m  c #7B3841",
"M  c #3F4141",
"N  c #3F4B57",
"B  c #3F4C5A",
"V  c #434343",
"C  c #494444",
"Z  c #454847",
"A  c #464649",
"S  c #474949",
"D  c #4C4C4C",
"F  c #494748",
"G  c #514D4E",
"H  c #58494A",
"J  c #4E504E",
"K  c #51514E",
"L  c #5B524E",
"P  c #414B56",
"I  c #4F4E50",
"U  c #414B5A",
"Y  c #514F52",
"T  c #5F4F50",
"R  c #4E5251",
"E  c #535454",
"W  c #5A5555",
"Q  c #565658",
"!  c #595758",
"~  c #5B5B5B",
"^  c #585957",
"/  c #654B4C",
"(  c #6B4847",
")  c #665656",
"_  c #7B504E",
"`  c #5F615E",
"'  c #61615E",
"]  c #5E5E60",
"[  c #615E60",
"{  c #5F6062",
"}  c #636363",
"|  c #696969",
" . c #666867",
".. c #9B1D1E",
"X. c #AD1A19",
"o. c #B11C1D",
"O. c #861E2D",
"+. c #881F2E",
"@. c #891F30",
"#. c #861F30",
"$. c #832525",
"%. c #8C2524",
"&. c #832826",
"*. c #85222C",
"=. c #8A222D",
"-. c #85292A",
";. c #8B2C2B",
":. c #8C2925",
">. c #922B2B",
",. c #962425",
"<. c #883B2A",
"1. c #872031",
"2. c #8B2232",
"3. c #8E3332",
"4. c #853C3C",
"5. c #8A3B3C",
"6. c #853636",
"7. c #9B3233",
"8. c #933B3A",
"9. c #943537",
"0. c #95312D",
"q. c #B62424",
"w. c #B92526",
"e. c #BE2929",
"r. c #A7233D",
"t. c #A9243E",
"y. c #A33939",
"u. c #AE3132",
"i. c #CB2434",
"p. c #C72232",
"a. c #A8523B",
"s. c #A44C35",
"d. c #9A3942",
"f. c #853E42",
"g. c #AA2541",
"h. c #A92642",
"j. c #A52C5E",
"k. c #A82C5E",
"l. c #A52C61",
"z. c #CF3E5A",
"x. c #CE3E57",
"c. c #D13E5A",
"v. c #884343",
"b. c #9E714B",
"n. c #A16F4D",
"m. c #A0704A",
"M. c #BE6751",
"N. c #D0425B",
"B. c #C36956",
"V. c #DC556E",
"C. c #DF5176",
"Z. c #DF517A",
"A. c #DE4F7A",
"S. c #E24F76",
"D. c #E24F7A",
"F. c #E15077",
"G. c #E1507A",
"H. c #E15876",
"J. c #E1536D",
"K. c #D3766E",
"L. c #CB6E66",
"P. c #CD9F7D",
"I. c #D09F7E",
"U. c #CDA07E",
"Y. c #D0A07C",
"T. c #646F8C",
"R. c #63718C",
"E. c #637090",
"W. c #5F708A",
"Q. c #FB79A6",
"!. c #FB77A8",
"~. c #FB79A9",
"^. c #FB77A6",
"/. c #9AA4B5",
"(. c #9BA3B8",
"). c #97A4B7",
"_. c #CE9F81",
"`. c #CFA081",
"'. c #EBC9B6",
"]. c #EBC9B9",
"[. c #FDE9D6",
"{. c #FCE9D9",
"}. c #FEE7D8",
"|. c #FCFCFC",
/* pixels */
"V V : V V M V Z V v j V V V v V V V A Z V A D D D ^ ^ E ~ Q E S Z E G K Q Q E D E F v k V V Z t h.J.t.u A j : 5 Z V S Z : % M V ",
": : V : : : : : : : : : : : : : c V j j : S J E Q E ~ D I ~ K F : V D K ^ [ [ E D K D : : : : t r.D.h.t : V S Q Y D J D V : : : ",
": % % ; % % % % $ : : : : 5 : : k k V M V C S D J G E D S E D G D k Z Z S D D S v V Z V : : 9 -.r.N.O.$.c : 5 : : : % % $ O O O ",
"c V V V V V M V V V V k V v Z Z C V Z V C V V v k V A V j : M : q -.*.r $.$.$.r -.r 8 c c 8 -.2.r.r.$.8 ; % % $ + + O O O O O O ",
"V Z V V Z V V : Z A V Z Z Z v F A M c v V k M V V : M j c b $.-.&.2.1.#.=.2.O.@.2.O.-.&.$.$.O.O.r.#.$.: & ; % % > $ $ > O O O O ",
": : M V : : M : : c : : : 5 V 6 t %.$.a y 6 V V V V V 8 &.%.2.*.#.r.j.j.l.p p p k.t.r.O.=.O.r.l.O.$.$.$.8 ; $ : & ; % % $ > $ $ ",
"V 5 : : : : : : % % : : # 7 y O.h.c.x.h.h.t t 9 V Z q ;.+.*.+.l.A.D.G.C.l.l.l.G.Z.D.Z.D.Z.D.k.i #.*.+.#.&.y -.9 : % % = > $ $ > ",
": : : % : % - % $ : * & w y r.x.c.k.p p t.g.h.y 6 q $.#.@.k.F.D.G.G.j.k.Z.Q.Q.Q.Q.^.~.D.D.C.Z.D.l.p p r.r.r.+.r 7 # $ % $ $ $ O ",
"$ % : % % : % : % % % 7 y r.c.j.p i i p i p r.h.t $.#.2.j.Z.G.Q.^.A.G.Q.~.~.D.Q.Q.Q.Q.~.Z.F.l.Z.Q.G.i p p p h.t.r w : : $ $ $ $ ",
": % % : % : : : : : 6 t r.c.^.S.k.i n p p i p t.r.@.+.l.F.~.~.Q.Z.Q.Q.Q.Q.Q.D.Z.Q.Q.Q.Q.~.A.D.j.D.Q.Z.i p l.D.x.O.$.: % $ + $ : ",
"$ > $ % % : : * : : e t.t.G.^.^.Z.k.j.p p j.G.D.p p j.G.Q.Q.Q.Q.D.Q.Q.~.Q.S.Z.k.Q.Q.Q.Q.Q.Z.Q.Q.l.~.Q.k.p k.A.l.O.$.: - % ; * % ",
"V A Z S D S S D S D 6.t.k.k.D.^.Q.Q.Q.Q.^.D.C.l.p p F.Q.Q.Q.Q.~.Q.Q.Q.Q.Q.S.Z.k.Q.Q.Q.Q.~.j.~.~.k.G.Q.A.l.p j.p +.$.- = % > $ > ",
"~ ^ Q ^ ~ Q Q E E ) 8.g.G.l.j.Z.!.Q.D.G.A.Z.k.p i l.Q.Q.Q.Q.^.Q.Q.Q.~.G.G.G.l.j.G.Q.Q.Q.D.l.D.Q.Z.k.~.Q.G.p p k.t.r 8 : = $ $ > ",
"^ ~ Q ~ D E E D K 5.h.N.Q.A.k.p l.G.C.D.l.l.l.p p D.Q.Q.Q.~.~.~.Q.Q.F.G.k.m.n.m.D.Q.Q.Q.Z.k.l.Q.~.l.D.Q.Q.G.n p c.+.$.: * : % ; ",
"S D E E D D E E J 5.g.~.Q.Q.C.l.p p j.l.k.k.p p l.Q.~.Q.Q.Q.Q.Q.Q.G.G.l.P.`._.b.k.Q.Q.Q.l.m.k.Q.~.Z.j.Z.Q.Q.D.k.i =.-.Z j V M : ",
"W E D S J E E K E 5.h.Q.Q.Q.~.^.Z.l.p p i p p i C.Q.!.~.^.Q.Q.Q.G.G.k.U.p p U.m.l.~.Q.Q.k.P.b.D.Q.D.p Z.D.Q.Q.G.l.O.r 4 $ = $ # ",
"E S D D F Z C S S 6.t.D.~.Q.Q.^.Q.D.C.k.k.i i i A.!.^.~.Q.Q.~.D.Z.k.b.`.U.l.p b.k.Q.Q.D.m.P.i p Q.C.i D.l.G.A.Q.Q.x.O.r $ % % % ",
": V V Z V 5 Z S V t t.k.Z.F.G.Z.D.l.j.j.n i p p D.Q.Q.Q.Q.Q.S.Z.j.m.U.U.U.I.U.i G.Q.~.j.P.i b.j.~.Z.p C.l.p l.j.k.+.r w % $ = O ",
"S D F D D D D D D >.c.j.p l.C.Z.j.l.l.i p p . i C.Q.^.Q.~.Q.C.D.l.P.`.U.U.U.U.b.~.S.k.b.U.U.I.k.D.l.p D.l.i i i i r.a V : * : : ",
"S D C Z V Z S C S -.V.D.j.p l.j.k.l.j.1.@.<     k.^.Q.Q.~.A.F.l.b.P.P.`.b.m.U.j.G.j.m.U.P.n.I.j.S.i k.D.k.p l.j.k.h.y v : : j j ",
": : : ; % : : : v r V.Q.G.j.p p l.l.i @...i.X X l.Q.~.Q.Q.G.l.k.U.U.U.'.'.].b.k.j._.U._.m.'.U.p j.p A.Z.l.p l.i p O.&.: : : : : ",
"% % % % % % $ % w $.x.^.~.Q.G.k.i p 2.@...i.X   p ~.~.Q.G.G.k.b.U.n.o       '.'.P.P.P.`.'.X X X i k.D.D.l.p i j.k.h.t M * 5 j 5 ",
"M : 5 M V M : c &.O.r.G.Q.G.G.G.l.p O.&...p.i.X p S.Q.Q.F.C.k.`.n.X R.p p n   '.'.'.'.'.X p p R.i l.S.D.p p j.k.l.*.-.V M V : : ",
": : : : : : : : &.*.p k.Z.C.G.j.l.O.O.$...i.i.X i l.Q.D.Z.k.b.U.X ).|.k.|.i i ].'.].].'.x /.p /.p l.D.j.p X.i l.p +.$.: V : : : ",
"S S C V V V Z Z &.=.j.p p l.l.j.=.2.-.9 d ..i.i.X l.G.G.S.p P.].x |.|.k.n p p '.].'.'.'.m.p p /.p k.Z.k.o.o.p p t.2.-.Z V V V Z ",
"D D I J E K E ( 3.h.D.^.l.i p 2.2.3.( Q / 8.K.].i.p G.G.l.p U.'.P.|.|.k.i i l.'.{.{.{.].U.n p (.i l.l.i o.o.p l.2.;.0 Z Z v V : ",
"Y D R E E Q E 9.2.g.~.C.G.k.2.2.3./ Q E 8.B.a.m.w.p l.D.i z I.{.'.U.|./.l.k.P.{.[.{.{.[.'.Y.l.n.i k.j.o.-.X.p x M.L.d V v V : j ",
"I Y I D K D T 6.g.C.k.k.l.2.2.9.( Q ! / 8.K.].z q.p k.k.p x `.{.[.}.[.{.{.[.[.}.[.{.{.{.{.{.].m.i l.i X.o.U.'.'.x <.$.6 : v 5 : ",
"K E I D Y D 6.t.C.l.i 2.2.2.3.( Q J G 3.B.a.m.x '.[.j.n i z U.}.{.{.{.{.{.[.{.{.[.{.{.{.{.{.'.x p p X.X.z '.b.x b.M.L.y c : : j ",
"Z V V v l t =.r.G.2.+.#.-.=.9 V Z E Y _ K.U.x x m.'.l.p q.z n.{.{.{.{.[.{.{.{.{.{.[.{.[.{.{.U.z i o.o.i m.`.x x z <.;.H S D Z V ",
"= : $ $ y t.c.r.O.=.r $.w ; ; ; V ~ ' v.K.'.z z m.U.p q.8.q.z P.{.{.{.{.i.i.i.i.i.U.{.[.[.U.x i w.8.q.l.b.m.z z b.B.8.Q Q E K E ",
": : : c 7 t r.t.$.r 8 : : : : : V Q ~ 8.a.<.x m.m.p w.8.~ 8.q.x m.'.{.}.{.i.i.i.U.[.[.'.b.X e.w.w.w.P R.k.x b.B.<.K.v.' ^ E ^ Q ",
"Z k M V V 9 a y 9 C A F D D S V S } ) ) d.2.p k.l.P R.q.q.w.w.q.e.x m.`.].{.[.{.}.].n.X o z i B T.R.R.T.R.n 2.a.0.f.E E E W K D ",
"F S V S V Z C V Z Z S S D D D D E ^ ~ ~ v.m g U U B /.R.l.`.P.b.i B P x z z z z x p   X z m.k.R.W.E.R.W.B P m 5./ ^ Q E Q ~ E D ",
"& * : : : ; : : % % % : : : M V : : : : 5 y f B P U /./.R.j.}.'.U.p p P B p p B B i B x b.U.k.R.R.R.R.B P m g 4.W E E E E E J D ",
"$ : : : : ; * : : ; $ % - : : : $ & : $ - y d d B P W.R.R.k.{.'.U.U U p R.i k.p R.i E.B U.P.j.B R.R.P g g g 4.T E Q J E D D J K ",
": $ & $ % ; & $ $ % % - : : : $ # : : ; $ 7 e d f f B R.P p '.P.m.R.R.R.p k.l.k.p R.R.P M.s.*.d d g g m 5.v.T E W Q Q G E D D D ",
"$ $ : - % $ & % $ O > $ % % $ % * : : : : % % y e f f d O.<.<.s.P R.(./.(.G.R.Z././.9.f <.$.r e e a v.5.W Q Q Q R Q Q E E E D E ",
"& % & % % % = : : - : : : V 5 V Z S V S V V V V 6 y y y $.$.;.f B R./././.G.Z.D././.9.t ;.s V C : Z E K G D D A D S Z F D D S F ",
"V c c : M 5 V j 5 Z Z S C Z A Z V C k V V V A A V Z A A j Z 6.g g P R./.).l.R.k./.T.m 6.H S S S D S V k : j v V V M V 5 5 : : : ",
"Z V Z Z V C Z V Z Z v V Z V V Z Z C S Z Z C Z V V V V V k V C u g P B U P l.l.k.N U f f u H S Z Z S C S S V V V V c 5 5 V : : : ",
": : 5 V v : V : k : 5 : V 5 V V V M V : : 5 V : V M Z C Z V D 4.g R.E.B U U k.B l.N R.d.g 4.E E D I E S F S S C Z V D S V V Z V ",
"V V V : k V c V k V Z V v V : : v V V V V k V : V k : V c : / v.d.R.R.R.R.R.C.D.D.R.R.(.d.5.H Y E E E E K D S D S S S S S S C Z ",
"Q E E E E D D Q E Q Q ^ ~ E J E Q ~ ^ ~ ^ Q Q ~ Q ^ E D E L 4.m y././.R.W.R.k.D.G.Z././.u.m 5.E Q E Q W K K E I G G K E E D D D ",
"K E E Q Q Q E E Q Q J Q ~ ~ ^ ~ ' ~ ^ ~ ! ~ Q Q E J E Q ^ 5.g d.(.(.).).(./.).G.R.k.)././.m 6.E Q E E K Q ~ ^ I D E E G D F S D ",
"E K D D E E E K E Q ^ D J ~ W Q ~ E Q E D E E E ^ R E Q Q 7.1 N R.(./././././.C.C.l.U R.E.m y.( E E E R R ^ E R E E G S D D D Z ",
"D J Z G E D S D E E W D E ^ Q ^ Q ^ ~ Q ^ E E Q ^ ~ ~ ! ( >.2 X O N T.T.T.U P k.    o   X 2 2 0.( K E K Q G D E E G E E E D D D ",
"G I E Q E D K E J E E E Q R E E E E D K E D E E G J D G >.1 < X         X     X X o X X   X 1 2 7.( E E D E E D D S D D Z V V C ",
"D D E D D S D S G E D I D J D K D D D D D E D D D D D S >.1       .   O X X o X X   X     o X 2.+.8.I E D C D D S S S C S V : : ",
"D D S E G S K E J Q E E Q E E E E D D D D Y D Z D E G H >.3 X   i A.Q.~.Q.F.X   . X   .   l.G.g.+.>.D D D S S S D D S S G k $ : ",
"J D E D K E E D D G J D D E E D K E E E E K D D J D H 6.g.2.j.A.A.j.h.g.h.C.~.Z.k.X X k.F.F.l.2.3.( Y D E E D D C Z C D Z : % ; ",
"E D D E Q E E E E D E ~ ~ E Q Q ~ E Q ~ Q E ^ Q E / 5.g.2.Z.D.l.p 1.2.3.3.=.N.H.C.C.D.l.k.l.m.<.9.) ~ ^ Q Q W E E E D D D c : : ",
"S D D D D D S D D Q E Q E E D D D D D D D D F D S 6.g.2.p p k.p k.<.;.l 0 ;.;.3.1.2.1.<.a.I.`.B.h.6.D F F S Z V Z Z V M V : % % ",
"% : : : - % : % 5 V : 5 k V : V v 5 V j V V : V V t r.i n G.'.P.s.<.:.k V V V 8 -.;.-.;.+.r.D.D.< :.s 5 M j : c : : : v : : : : ",
": : : : : : : : : j : V : V Z Z Z Z C Z Z C Z V V ;.c.n F.n.'.].B.-.s Z V 5 V Z C C S l ;.< X X < , :.k v : k V v : V : : : : : ",
"V : : : : : : : V Z Z V Z V v 5 V V c M V : V V k :.x.x.h.< l.A.x.%.j : : V 5 j M k k : %.1 <     < O.* * : : * : : : ; : % : : ",
": : % : : : V : : : : : : ; ; ; % : : : : : : V k q %.-.:.1   X < %.: v M V V j : V V V s ,.< X   < :.s 5 k : : 5 : : : : : : % ",
"Q ^ Q Q [ ~ ^ Q R G ~ ^ ] ^ E E E ~ Q Q ^ E E E Q Q Q 7.1 3   . 1 0.! ~ W E W ~ F : j k V ;.2 .   < < :.c v : : : : : : : ; % % ",
"} '  . .| |  .} | | ) } | | ] } | | }  . . .| | | } } y.2 X     3 7._  .} ~ ]  .I c V V 5 ,.<       < %.s V V j V V : : ; : ; : ",
"~ ~ ~ E Q ~ ~ ~ } } ] ]  .} } ~ ~ [  .} ' } [  .} ~ _ y.3   . X 1 2 7.~ } Q ^ ~ D & M V M %., . . . < 1 %.9 : M : : : % : % % $ ",
" .} ~ ~ Q ' ~ } }  .}  .| } }  . .[ } ~ ~ }  .~ } ~ 7.3 3 . o   X 3 y._ ~ } }  .E : : V V %.2 X     X < +.&.V V V V : M : : = % ",
"~ ~ W ^ ~ } } ~ ~ ~ ^ Q ~ } ~ ~ } ~ ~ ~ ~ }  .}  .} y.4 X X X   X 1 1 y.~ ~ ~ ' D 5 A V V -.#.2     X < =.&.c : : : : : : % % ; ",
": V V V V V V V V : : ; : M V k V j V 5 V k V : V V -.2.2 X X X   . < :.k : j v V 5 j k : 9 -.h.x.N.x.h.-.8 : : % % ; = $ $ $ $ ",
"V Z V V : : : : 5 V V 5 V : v V v : V : V V c v V k 9 %.1.t.c.c.c.h.+.-.V v V Z Z Z V V C V 9 y %.%.=.t 6 : : v : ; ; $ $ $ % = "
};
