/* XPM */
static char *Layer_51677303405[] = {
/* columns rows colors chars-per-pixel */
"64 64 189 2 ",
"   c #1C1F25",
".  c #1C1F28",
"X  c #1B2125",
"o  c #1B2029",
"O  c #2C2C2C",
"+  c #32312E",
"@  c #353535",
"#  c #383636",
"$  c #363936",
"%  c #393936",
"&  c #373639",
"*  c #393638",
"=  c #363939",
"-  c #3C3C3C",
";  c #2F302F",
":  c #44211F",
">  c #7D221F",
",  c #451E23",
"<  c #491F25",
"1  c #462124",
"2  c #492225",
"3  c #4A262B",
"4  c #493734",
"5  c #4C3B39",
"6  c #433B3B",
"7  c #543535",
"8  c #5A3739",
"9  c #543A39",
"0  c #5A3B3B",
"q  c #5A3636",
"w  c #52302E",
"e  c #7E2423",
"r  c #7B2C2D",
"t  c #772627",
"y  c #6F243C",
"u  c #71233C",
"i  c #792F31",
"p  c #7C3232",
"a  c #76333B",
"s  c #79353D",
"d  c #78373A",
"f  c #6D3431",
"g  c #3E413E",
"h  c #41413F",
"j  c #4F403E",
"k  c #744A2E",
"l  c #744930",
"z  c #3E3F41",
"x  c #413F41",
"c  c #4F3F40",
"v  c #523F41",
"b  c #722340",
"n  c #3F4141",
"m  c #3F4B5A",
"M  c #3E4C56",
"N  c #434343",
"B  c #484646",
"V  c #494947",
"C  c #464649",
"Z  c #494749",
"A  c #4C4C4C",
"S  c #474948",
"D  c #504E4E",
"F  c #584949",
"G  c #4E514E",
"H  c #51514E",
"J  c #414A56",
"K  c #4E4F51",
"L  c #414B5A",
"P  c #514F50",
"I  c #5D4F51",
"U  c #4F5151",
"Y  c #545454",
"T  c #5A5354",
"R  c #565856",
"E  c #585856",
"W  c #565658",
"Q  c #5B5B5B",
"!  c #58575A",
"~  c #674847",
"^  c #754546",
"/  c #635858",
"(  c #73504D",
")  c #5F625E",
"_  c #5F5F61",
"`  c #5F6062",
"'  c #636363",
"]  c #696969",
"[  c #686868",
"{  c #9D1E1D",
"}  c #82231F",
"|  c #861E2E",
" . c #891F2D",
".. c #861F30",
"X. c #891F31",
"o. c #832525",
"O. c #8B2424",
"+. c #812827",
"@. c #86222D",
"#. c #8A222C",
"$. c #842A29",
"%. c #8B2B2B",
"&. c #952D2D",
"*. c #982424",
"=. c #8A3D2B",
"-. c #873929",
";. c #93312E",
":. c #872132",
">. c #8A2232",
",. c #882B34",
"<. c #833434",
"1. c #8D3433",
"2. c #833B3C",
"3. c #883939",
"4. c #933435",
"5. c #9B3232",
"6. c #943A3A",
"7. c #9A3B3C",
"8. c #96353A",
"9. c #992F31",
"0. c #B82525",
"q. c #A6243D",
"w. c #A9243E",
"e. c #A43738",
"r. c #A82A2B",
"t. c #C92333",
"y. c #C8242F",
"u. c #84433D",
"i. c #A34C38",
"p. c #A9523C",
"a. c #A6513B",
"s. c #9A3A42",
"d. c #AA2541",
"f. c #AA2743",
"g. c #A52C5E",
"h. c #A82C5E",
"j. c #A52C61",
"k. c #A82C60",
"l. c #CE3E5B",
"z. c #CD3F57",
"x. c #D13E5B",
"c. c #D03D57",
"v. c #844344",
"b. c #8C4543",
"n. c #9E6F4A",
"m. c #9E714B",
"M. c #A16F4B",
"N. c #A1704B",
"B. c #BF6753",
"V. c #AA5340",
"C. c #D1415C",
"Z. c #C26A56",
"A. c #C46C59",
"S. c #C26756",
"D. c #DC536D",
"F. c #DE4F7A",
"G. c #DF5177",
"H. c #DF517A",
"J. c #DE5873",
"K. c #E14F76",
"L. c #E24F79",
"P. c #E15077",
"I. c #E1507A",
"U. c #E35973",
"Y. c #CE726A",
"T. c #CE7066",
"R. c #D3746D",
"E. c #CD6F69",
"W. c #CD9F7D",
"Q. c #D09F7E",
"!. c #CDA17E",
"~. c #D0A07C",
"^. c #63718C",
"/. c #637190",
"(. c #646F8B",
"). c #FC77A6",
"_. c #FB79A6",
"`. c #FC79A9",
"'. c #FC77A9",
"]. c #9AA4B5",
"[. c #9BA4B9",
"{. c #CE9F81",
"}. c #D09F81",
"|. c #CEA180",
" X c #EBC9B6",
".X c #ECC9B8",
"XX c #FCEAD6",
"oX c #FDE9D9",
"OX c #FDE7D8",
/* pixels */
"N N - N N n N N N h - N N n N x N B C B N S A A A Y E Y ! ! Y B N Y A Y Y ! Y K Y C g N r d.c.f.d.c.D.x.%.- - g B S Z Z g & N h ",
"- - N - - - - - - - - - - - - - - - h - z C U Y Y ! Q A U Q Y S z B A U Q / ) Y A U A - t q.@.$.r d.c.D.$.n Z E P V A A h - - - ",
"- # # = # = @ # & - % - - - g - g N g x N B S A Y P Y U Z U A A A h B B B A A S n B C N e :.$.8 7 o.c.J.t - g z - = # $ @ O O O ",
"n N N N N N n N N N B N N N S N B N B B B N g g 6 N S N 6 - N g n 9 o.e o.r o.o.$.o.o.7 7 +.8 7 o.| z.d.t # # @ ; ; O O O O O O ",
"N B N N B N N - B B n B B B h C S N g x n N N N N z z n - N q $.o.o.:.X. .| >. .@.X.X.+.$.o.+.e | X.g.| e $ @ @ ; @ @ ; O O O O ",
"- - n N g - n - - - g z z - N x 4 r r r 5 x N n N n x x 8 $.$.| :. .d.j.h.g.u y u j.w.d. .| @.| w.g.k.| e o.w % & = # # # O O @ ",
"N - - - - - - - = - - & @ @ 4 t O.q.q.d.r r 9 n h N N 0 $.X. .:.k.I.L.P.H.j.j.g.P.H.P.K.K.L.g.g.j.y u X.@.| o.8 - % $ & ; # # @ ",
"- - - # & - # # @ # = @ @ 4 t q.l.c.K.d.q.d.r $.9 N 7 +...| j.G.P.P.H.j.g.L.`._.L.L.L.L.L.L.L.G.K.g.u u g.d.X.e 3 + @ # @ ; @ ; ",
"# # - # # # # - # $ # @ 6 t q.l.j.u u u h.q.q.:.+.q +.X. .g.G.H.`.`.P.I.`._._._._._.G.H._._.H.h.P.`.P.u u u d.@.e - - & # @ @ @ ",
"= # = - = - - - - - z - r w.c._.P.h.u u u b h.q. .+.@.@.g.G._._._.L._._._._._.`._._._.G._._._.H.j.K.`.K.u g.L.| e - - # # ; @ - ",
"@ @ @ $ = - - - - - # 4 r w.F.)._._.H.j.u y y j.w.X.:.u K.`._._.P.`._._._.`.'.G._._._._.`._._._.P.h.`._.j.u h.@.$.7 - $ & & = # ",
"N B N Z H Z Z A V A A <.d.d.P._._._._._._.L.L.h.g.y u g._.)._.`.`._._.`._._.L.j._.`._._.`.H._._.`.P.I._.H.u u >.@.o.# # @ @ @ ; ",
"! R R ! Q E Y Y Y R / 5.C.h.j.L._._.)._.I.P.K.j.u u u L._._._._._.`.'.`.).P.F.h.`._._._._.h._.`.)._.j._._.j.u j.| o.- = @ # @ ; ",
"! Q ! E A Y Y D U Y 1.f.J.P.g.u j.H.F.L.I.G.h.g.u y j.).`._.`._._._.`.P.P.K.j.j._._.`._._.h.L.`._._.H._._.H.u j.q.r g - - = # % ",
"V A Y Y A A Y Y A / 4.C._.`.L.g.u y j.g.j.j.g.y u y L.`._._._._._._.P.P.j.n.|.j.P.`._._.I.m.g._._._._.H._._.h.u d.p S B N N n - ",
"W Y A V P Y Y H H 3.d.C._._.'._.L.g.u y y u u u u u _._._.`._._.'.H.L.j.|.|.{.h.H._.)._.j.!.n.H._._._.j.`._.P.u  .> @ @ ; # ; @ ",
"Y V A V V C S S V <.w.P.I.`._.`.).F.P.j.h.u y u y g.).`._.`._._.`.P.j.|.W.|.!.h.P._.`.`.h.!.!.h.`._._.g.P.`._.L.| o.7 & & @ & $ ",
"- N N N N N B C 5 r d.k.h.H.P.P.P.P.g.j.y u u u y g._.`._._._._.L.g.m.|.y y !.h.L._.`.F.N.W.!.j.L.'.`.u h.L.`.`.l.| e w @ # @ ; ",
"A A A K A A G V <.d.C.g.u y j.j.j.g.u u u y u . y g._._._.`._._.g.m.|.W.!.h.u j.H.'.).j.!.!.u u j._.P.y P.y h.L.).l.| o.- - z - ",
"S Z C B n B Z S %.c._._._.h.b y u u u y  . ., . X g._._._._._.L.j.W.W.!.W.!.!.u K.`._.g.W.u !.n.h.G.j.u F.j.u  .| X.$.8 - - - - ",
"- - $ # = = - 4 O.z.'._.K.L.g.y u y u | X.*.y.  . h._.`._.`._.h.M.!.!.!.W.Q.Q.|.h._.G.N.W.!.W.!.h.H.u j.P.j.y w.+.e 7 z - - - - ",
"= & # # & @ & t q.w.L.L.H.G.g.g.u  . . .$.{ y.    u _._._.`.P.j.|.W.W.!.N.M.!.!.h._.j.{.!.m.|.!.n.j.u P.P.j.u q.r N N z - - g - ",
"n z n x N 6 5 $.c.`.j.g.j.j.u u  ...$.$.7 { t.t.X y F._._._.h.M.!.!.!. X X XN.{.j.P.N.!.N.!.|.W.|.u g.H.P.u b d.r z N n - h - - ",
"- - - - - - t q.x._.F.P.h.u @.| ..o.q - - { t.t.. X j.`._.).j.~.W.W.{.!. X X X!.j.j.!.|..X.X X!.!.y h.H.j.b @.:.$.6 6 - N g - - ",
"B S B N B N p w.j.P.P.h.u :. .$.$.8 N N n d *.t.X X h._._._.u W.k X X X l !..X Xk.!..X.X X!.. o n.u j.G.u u d.$.0 S B B N B n N ",
"K A K A Y F 4.P.H.j.g.>.:.:.4.~ Y Y Y Y U R r.t.t.X y _._.L.u  Xo X X X X l !. X X X X X~.  X X X u j.h.u w.:.%.Z Z N N S n N x ",
"D G H Y Y 3.w.C.h.u :.:.1.1.( ! H Y W Y ! ) s.&.t.2 1 I.).P.u  X X.X.X X!.X N..XoXoXoX.Xo l N.m.k u h.u y @.O.0 S N N B N n - z ",
"K Y A K F 5.C.d.:.#.:.1.~ Y Y Y ! W R W ! Q U s.r.5.2 f._.h.u  XoXXXXXoXXXoXXXoXoXXXoXoXoXoX.X|.!.y j.b q.>.$.h n N C - - g N % ",
"A D Z G <.d.>.>.1.4.4.~ Q R Y ! Y G U ~ s.d l W ! ^ 5.:.C.g.k  XoXOXoXOXXXoXoXoXoXXXXXoXoXXXoX XM.u u | | o.7 w O.t t 6 - - z - ",
"C B N g v p $.$.7 N N C N n N g S H ~ 6.B.Y.R.u.! R ~ 1.f.>.=.p.oXXXoXoXXXoXoXoXXXXXoXoXoXoXXX|.k u u >.%.~ 1.1.=.Z.T.d K A B N ",
"= - # # # * @ # * $ # # # = = # N Q b.A.Y.!.p.6.^ ! Q 6.>.,.7.u.Z.oXoXXXoXW.oXoXoXXXoXXXXXoX~.l 0.u f.>.6.6.Z.R.Y.k =.5.T Y G Y ",
"- - - - - - - - - - - - n - - - N R v.R.m.k u.T.R.b.) ( 6.>.7.5.=.N. XoXXXXXm.M.m.!.oXoX XN.X 0.0.b >.7.4.:.Y.m.k m.A.R.u.Y W W ",
"N N n N N n - N N B S S A A S B K / b.R. XW.l k A.6.! _ ( s.6.p.p.L k m.!. XXXoXOXOX Xm.X X 0.0.0.0.:.s s d.!.k k l =.;.T R H A ",
"S B N B B B S N N C V Z A A A A K ! v.Y.{.k k n.Z.7.b.v.u.V.A.Y.OX|.u L k k l k l k u .   !.m.y ^.^.^.^.^.g.m.l l N.Y.2.Y Q Y G ",
"# - - - - $ - - $ - & - - - n n - - t B.i.M.l m.u.@.s 7.r.d. XOXXX{.M u L u g.u m u L /.M.!.!.h.^.^.^.^.^.y l N.A.u.Z.1.Y Y G A ",
"@ - - - - - - = # - @ # - = - - @ $ 4 o.-.-.l l g.J ^.[.[./.h. X!.N.^.^.u m j.g.u m (.(.n.W.!.g.^.^.^.m m L u p.a.;.-.~ A A H H ",
"= @ # @ $ = # @ @ # @ # = - - @ @ - - w | | | j.J J m ^.^.M j.W.m.L ^.].[.[.P.^.H.].[.8.-.i.i.y L L L L l b d >.4.( R H Y A Z A ",
"@ # = = & # & # @ ; ; @ # # # # % - * - 7 e f i J m J L L M u k k m ^.].].].I.K.H.].].4.} } -.@.a a b d l b.2.4.~ Y Y Y Y Y A H ",
"$ * # # # # # - - = - - - n n N S C B S N 5 r a a a J a a a | a a J m ^.^.^.h.j.j.^.^.a p 0 %.%.r p 2.<.3.F B Z V S N Z A A A B ",
"N g - z - n n N - B C S S B B B N N N N C C 5 p p a a a i r 1.p s s m m L m j.L h.L L p p F V V Z B N N x x x N N g N z z - - - ",
"B N N B B B N n B N N N B N N B B C S B B B N N j p i i 5 g B F <.a ^.^.m L h.h.j.m m 8.b 2.V V C S B S B B h N n N N n N - - - ",
"- - N N g - N n g - - - n n N h N - n g - g z n N h N B C S U Y 2.a ^.^.(.^.g.H.H.^.^.^.d 3.T Y D A P A Z Z S B B N V Z N N B N ",
"B N n - z N - N N N B B N N - - N N N B N N N - N N - n z - ! / 2.s (.^.^.^.^.H.^.k./.^.s.s 3.I Y Y R Y G A Z G Z Z S Z Z Z S B ",
"Y Y Y Y Y A Y Y Y R Y ! ! Y Y Y Y Q ! Q ! E Y ! Y E Y G Y Y Y 3.b s.^.^.^.^.^.P.I.L.^.^.].s.d u.I Y Y Y U U Y D A U Y G Y A A A ",
"H Y Y Y Y Y Y ! ! R Y Y ) ! Q Q ' Q ! Q E ! E Y Y P Y R ! ! U <.u.^.].].].].^.j.L.P.g.].[.].s.b 2.Y Y G ! ! ! G A Y Y U S Z Z V ",
"Y A Y A Y Y Y H Y Y Y H H Q E Y ! E Y Y G Y Y Y W Y Y Y Y R Y &.3 L ^.].].].].].L.^.L.[.].^.L 2 5.5.^ U Y Y Y Y Y G G Z G A A S ",
"A K Z U Y A V A Y Y E A P ! ! ! Y E ! E Y Y Y E ! Q ! Y W G ^ &.1   . X M ^.^.L g.P.P.m X X   1 1 , 5.~ Y H K U Y Y Y Y Y A V U ",
"Y A Y Y Y A P Y A Y Y Y Y Y Y Y Y Y A Y Y K Y Y A A P A A ~ &., 1 X   . X . X X X o . X X     X X :.:.1.D Y Y G Z Z A A N N B Z ",
"A A Y A A Z A Z G Y H G A Y A A A A A A A A A A A A K Z 0 &.:.< X . X X .   X     X   . X   . g._.h.@.1.v A F K C B Z S S N - - ",
"A A Z H K A H Y Y Y Y Y Y Y Y Y H G Y A A Y A B A H K A &.C.x.h.X . X . X . X X X . X   X u L.L.h.!.E.p.<.F B Z A A Z S A n @ - ",
"G A Y A Y A K U A P A A Y Y Y P Y Y Y Y Y Y A A A A A I 3.d.L.`._.g.u o X   o X o X . k.h.d.f.a.!. X.XE.d.9.l A C B B A B - # $ ",
"Y A A Y E Y Y Y U A Y ! ! Y Y Y ! Y Y ! Y Y E Y Y / 3.3.f.>.h.h.g._.P.P.h.y L._._.U.U.C.,.>.8.=.p.A.!.P.< < 9.Y Y Y A A A z - - ",
"Z Z V A A A V A U Y Y Y Y H A A A G A K A A S A A $.d.d.>.u X.c.a.k l u @.@.>.X.:.:.1.&.1.1.l &.&.d.P.X . < %.B B B N N N - % # ",
"- - - - - = # - n 6 N z N N - N N n - N N N - N N r w.@.X.x.l.%.B. X!.M.-.O.$.$.$.%.9 N - n 8 #., , X X , , O.- - - - - - - - - ",
"- - - - - - - * - - g N N N B B B N C B B B B B B B O.C.x.&.%.$.S. X XB.-.$.n B B N S B V B O., , . X X , O.w 6 n - N g - - - - ",
"N - - - - - - - N B N N N N - n N N - g N - N N n n q O.O.8 N r w. X!.i.O.8 - g h n N - h 6 O., . . X X , O.% - - - - & - @ - - ",
"- - - - - g N - - - - - - - # # % - - - - - - x N N g - 6 N 6 O.1 L.P.w.r N g n - B N h N N %.< .     . < O.- - - n - - - - = # ",
"E ! Y Y ) Q ! R U U ! ! ) ! Y Y Y ! Y ! ! Y Y Y Y W Y W Y W ! 5.2 X X 1 5.^ Y E B - N - N N r w., X . . : O.- - - - - - - # & # ",
"' ' ' [ ] ] [ ' ] ] Q ' ] ] Q ' ] ' ' ' ] [ ] ] [ [ [ ] ] ] ' e.2 o . 1 2 5.' [ U - g N N n 9 i w.1 . , @.$.N z N - - - - - - = ",
"Q Q ) Y Y ! ! ` ' ' Q ' [ ' _ ) ' ' ' ' ) ' ) [ ' Q ` ' Q ! ( 5.< . X   2 8.^ Q Z - N N z g - 4 O.z.l.d.+.8 - n - - - - = $ # # ",
"' ' Q ! ! ) Q ` ' ' ' ] ] ' ` [ [ Q ' ' Q ' ' Q ) ) Q Q _ ! e.3 2     X 3 3 e.[ P = g N x g x N 8 O.O.r 9 N N N N N - n - - & # ",
"_ Q E ! ! ' ' / ` Q ! Y / ` Q ' ' Q Q ! Q ' [ ' [ ' ' [ ] ] e.1 X X . X . >.7.' A N B N N B B N N N N N N - z - - - - - - # # = ",
"g N B N N N N N h - - # - - g n N h N - N N N - N n N h C N #.,     X X 1 w.r 6 N x N x g N N g g z g - n - - - # # = # @ @ @ # ",
"N B N g - - - - g N N N N - N N - N N - N N z N x N h N B B %.@.d.c.l.C.w.r 5 N S N n N N N N - N n n g n - - x - = = @ @ @ # $ "
};
