/* XPM */
static char *Layer_191677303407[] = {
/* columns rows colors chars-per-pixel */
"64 64 193 2 ",
"   c #1B1F25",
".  c #1B1F28",
"X  c #1B2026",
"o  c #1B2029",
"O  c #172127",
"+  c #2C2C2C",
"@  c #302E2F",
"#  c #35312F",
"$  c #2E2F31",
"%  c #2F3131",
"&  c #353535",
"*  c #393536",
"=  c #363837",
"-  c #393937",
";  c #363639",
":  c #393739",
">  c #3C3C3C",
",  c #373939",
"<  c #31302F",
"1  c #451F1F",
"2  c #7B1E1D",
"3  c #651E1A",
"4  c #7D211F",
"5  c #69221E",
"6  c #461E24",
"7  c #481F23",
"8  c #462123",
"9  c #492125",
"0  c #49252A",
"q  c #55312F",
"w  c #413D3E",
"e  c #4A3839",
"r  c #533534",
"t  c #563936",
"y  c #5A3B3B",
"u  c #573637",
"i  c #562F30",
"p  c #6C2222",
"a  c #722424",
"s  c #7B2C2B",
"d  c #782627",
"f  c #6F243C",
"g  c #72233C",
"h  c #782F35",
"j  c #643C3B",
"k  c #7D3131",
"l  c #76333A",
"z  c #7A353D",
"x  c #7C393D",
"c  c #743236",
"v  c #3E403E",
"b  c #41413E",
"n  c #4E403F",
"m  c #53413F",
"M  c #744A2E",
"N  c #744930",
"B  c #3E3E41",
"V  c #413F41",
"C  c #4E3E41",
"Z  c #543F41",
"A  c #722340",
"S  c #7D3841",
"D  c #7B3541",
"F  c #633F41",
"G  c #3F4141",
"H  c #3F4B57",
"J  c #3F4B59",
"K  c #434343",
"L  c #484646",
"P  c #464846",
"I  c #494947",
"U  c #464649",
"Y  c #4D4D4D",
"T  c #484849",
"R  c #514E4E",
"E  c #594649",
"W  c #4E514D",
"Q  c #50504E",
"!  c #4E4E50",
"~  c #414B5A",
"^  c #414C56",
"/  c #514F51",
"(  c #4F5151",
")  c #545453",
"_  c #5A5656",
"`  c #595A56",
"'  c #565659",
"]  c #5B5B5B",
"[  c #585859",
"{  c #674545",
"}  c #734847",
"|  c #635758",
" . c #60615F",
".. c #5D5E60",
"X. c #615F60",
"o. c #636363",
"O. c #696969",
"+. c #686868",
"@. c #821E1F",
"#. c #9C1F1D",
"$. c #B21D1E",
"%. c #AC1719",
"&. c #8E201E",
"*. c #861E2E",
"=. c #891F2E",
"-. c #881F30",
";. c #861F31",
":. c #832525",
">. c #8C2525",
",. c #86212E",
"<. c #8A212E",
"1. c #852A2A",
"2. c #8C2D2C",
"3. c #862927",
"4. c #922C2C",
"5. c #942625",
"6. c #893C2B",
"7. c #88362A",
"8. c #98312F",
"9. c #872031",
"0. c #8A2232",
"q. c #872F30",
"w. c #982F31",
"e. c #823433",
"r. c #8D3333",
"t. c #873A3A",
"y. c #923534",
"u. c #9B3333",
"i. c #943539",
"p. c #973A3A",
"a. c #B52323",
"s. c #B82424",
"d. c #A6233E",
"f. c #A9233E",
"g. c #A23334",
"h. c #B2211E",
"j. c #CA2333",
"k. c #8C413D",
"l. c #A54E37",
"z. c #A9513B",
"x. c #983740",
"c. c #AA2541",
"v. c #A92742",
"b. c #A52C5E",
"n. c #A52C61",
"m. c #A82C60",
"M. c #CE3E5A",
"N. c #CE3E57",
"B. c #D13D5A",
"V. c #8C4243",
"C. c #8A4D50",
"Z. c #9F6F4A",
"A. c #9E714B",
"S. c #A16F4B",
"D. c #A1704A",
"F. c #A17047",
"G. c #BF6855",
"H. c #D2415C",
"J. c #CF405C",
"K. c #C36957",
"L. c #DE4F7B",
"P. c #DE5175",
"I. c #DF507A",
"U. c #DE5871",
"Y. c #DC546F",
"T. c #E24F76",
"R. c #E14F79",
"E. c #E15076",
"W. c #E2507A",
"Q. c #CC6E67",
"!. c #CF726A",
"~. c #CE9E7D",
"^. c #D09F7E",
"/. c #CEA07E",
"(. c #646F8C",
"). c #63718C",
"_. c #637091",
"`. c #FB77A5",
"'. c #FB79A6",
"]. c #FB79A9",
"[. c #FA77A9",
"{. c #9AA4B5",
"}. c #99A4B8",
"|. c #CE9F81",
" X c #CEA180",
".X c #D1A081",
"XX c #EBC9B6",
"oX c #EBC9B9",
"OX c #FDE9D6",
"+X c #FDE9D9",
"@X c #FDE7D9",
"#X c #FCFCFC",
"$X c #FAFCF7",
/* pixels */
"K K > K K > K L K K B K K K G v K L L K K T Y Y Y ) ` ) ` ) ) L K ) ) W ' ) [ Y ) U G K K v L 1.;.f.f.k L > > > L L L Y > = K G ",
"> > K > > w > > > = > > > > > > > w > b > T ) ) ) [ ] Y Y [ ) Y r 1.2.r.i.p.p.y.2.y.{ > - r :.1.c.c.9.:.v b Y ) R Y Y Y w > - > ",
"> - = ; ; : = = : > > B > > w > w K G > G P T Y W Y ) Y Y { 2.r.r.=.=.,.<.9.9.9.<.9.1.1.:.:.<.<.d.*.:.s 1.r G v > , ; = & + + + ",
"V K K K K K > K L v K K K b K E k k s E T K G v B K L y 1.:.9.=.;.f.n.n.b.g f g b.f.f.*.*.;.d.n.g *.c.v.*.@.r # < + $ + + + + + ",
"K L K K L K K V K L K K L E a 2.f.c.f.>.s 1.t K K > u 1.=.9.-.n.W.W.I.W.b.b.b.W.I.E.W.E.n.b.b.f f f g g f.B.*.0 @ @ & @ + + + + ",
"> > B K B > > > v > b e s d f.N.H.W.M.B.c.-.1.y U t 1.*.=.b.W.'.'.P.b.n.W.'.'.'.'.'.W.'.'.L.n.E.b.g g b.T.N.-.:., > = = = @ & $ ",
"K > > > > > > > > = e d f.f.B.'.b.g g g n.c.;.:.t 1.=.0.E.'.'.'.W.W.E.'.[.'.'.'.[.'.'.'.W.'.'.b.`.T.f n.b.A =.:.r ; & : & & & & ",
"> > > = - > = = & e d d.f.W.'.'.E.b.g f g m.d.s :.0.-.R.'.[.'.'.W.'.'.'.'.'.W.'.'.'.'.[.W.'.'.'.b.`.L.f g b.M.*.2 & & & & & @ + ",
"& : ; = : - & - e p f.N.b.P.'.[.'.W.m.g g g c.d.,.<.W.'.'.[.'.P.].'.'.'.W.R.n.'.'.[.'.'.b.'.'.'.m.W.'.W.g g W.=.d : > - = & & & ",
"> & > > - - b e d d.B.'.n.n.W.'.'.].].R.b.g b.b.g b.'.'.'.`.].'.'.].E.W.E.b.n.W.'.`.'.'.n.W.].].R.b.'.'.R.f b.,.:.q > = & & = ; ",
"& < & = = > w d d.d.`.[.W.g b.E.'.`.T.L.T.W.b.g g W.'.'.'.'.`.'.[.R.b.b.D.^.D.n.'.[.'.R.D.n.'.'.'.n.'.'.`.n.g ,.,.d > ; & = > = ",
"K L K L ( L E e.f.P.`.`.'.n.g b.R.R.R.P.b.n.g g f `.'.'.].'.[.`.P.n.D..X/././.b.'.'.`.b./.b.].'.'.n.W.'.'.[.n.g f.d - : & & & @ ",
"[ ] _ ` ] [ t.c.v.W.'.[.'.W.g g g b.n.b.b.g g g b.'.'.'.[.'.'.R.b.D./.f g ^./.n.'.'.].m./.A.I.'.'.m.R.W.`.'.R.g f.d > , ; & & @ ",
"[ ` [ _ Y ) t.f.b.b.W.[.'.'.m.g A g g g g g g g b.'.'.[.'.'.P.n.D./.^.^.n.g ~.E.].'.'.b.~.g g '.`.n.P.W.R.'.'.E.9.1.r v > : : - ",
"Y Y ) ) Y E 8.H.n.b.W.W.W.].W.b.g f f g g f g g W.'.'.'.'.T.R.F././././././.A I.'.].W.^.g /.b.[.W.g W.R.b.W.'.'.J.<.1.y w K v > ",
") ) Y I Q t.v.U.b.g m.T.W.E.W.W.b.f g f f g g f W.'.[.'.'.R.n./..X/./.^./././.b.].'.m./././.n.'.b.g R.W.b.g b.R.Y.M.*.2 & = & < ",
"W Y Y Y P k f.].W.b.g n.b.W.W.b.g g <.=.-.,.o g b.'.'.'.W.I.F./././.~.D.A././.b.'.W././.A./.A.R.b.g T.P.R.f g g *.:.d q = = & * ",
"B G K K K s c.'.'.W.n.g f g n.g 9.<.9.1.5.8   o b.'.'.'.W.b./.~.~./.XXXXoXD./.b.W.m.^.S.XXXX/.b.g b.R.R.W.g b.;.=.d > & & & = + ",
"Y L I Y Y y.<.W.'.'.'.I.n.g g =.<.2.1.y #.j.o O g '.'.'.R.n././.A.  o o   XXXX/.b.~./.XX. o o g g n.R.R.b.g n.d.>.y v b > > V > ",
"L P Y L K 1.0.v.R.'.].W.W.n.9.9.:.t L K 5.j.j.o f ].'.W.W.D.|.A.  ).g f g o XXXX/./.XX. g g ).o g n.W.W.b.g n.f.s b b w > > > > ",
"> B > : = r :.d.m.R.E.W.b.g *.:.q B K K #.j.j.  g T.[.E.W././.o {.$Xn.#Xg g XXoXXXXXXXS.{.f {.M g b.R.W.g g f.,.:.B > > > B > > ",
"& = : = = & 2 *.R.n.g b.b.=.*.d B B > e #.j.oX    n.'.W.n.~.XXN #X#Xn.f g g XXXXoXXXoXF.g g $XN g b.P.I.g f 9.s t G K b > > V > ",
"w > K > > K :.9.Y.R.b.f g *.1.t > > V h K.6.+XM o b.R.W.b./.XX X#X#Xn.f g b.oX+X+XOXXX.Xf g #XA.f b.P.n.g b.Q.d C B K K v v > > ",
"> > > > > , r >.N.`.T.P.;.,.:.> , > u >.!.M oXM   f W.E.b.^.+XXX/.$X{.b.n.XX+XOX+X+X+XXX~.n.XX/.g b.T.n.g n.G.Q.s t > > w B > > ",
"U L L K U K U s c.W.W.b.9.1.r K P G 2.7.Q.A.^.M D.XXb.R.g S.OXOXOX+X+X+X+X+X+X+XOX+X+XOXOXOXXX/.g b.E.g ~.f M G.l.q.y U L L G L ",
"! Y ) Y ) ) ) r.0.b.n.c.9.y.) ) ( ) x !.F./.~.A./.oXg b.g A.+X+XOX@X+X+XOX+X+X+X+X+X+X+X+X+XXX.Xg b.b.f XXZ.M M Q.K.s P K b G v ",
") Y ! Q ) ) ) y.0.H.R.c.r.{ _ [ ) ) t.K.A./.~.A.oX Xs.f g N XX+X+X@X+X+XXXXX+XOXOX+X+XOX+XOXoXD.g b.f %.XXZ.Z.M oXK.1.K K K B > ",
"Y R ( R ) Y ) { r.v.n.<.r.) ) ) ` [ y.z.K./././.~.g s.g s.M D.OX+XOXOXOXoX#X#X#X#XoXOX+X@X+X/.M g g f f ~.~.F.M G.l.1.> > B V > ",
"Y ) Y Y R R ) ( y.0.H.0.p.) ) [ ) ) { r.z.K. XA.b.J a.$.r.a.N /.OX+X+X+X/.#X#X#XA.~.OX+X+X XM %.f g ^ b.A./.A.l.7.:.r B > > G > ",
"L K K V K v v L t 1.f.>.y b K K L Q [ { r.q.n.n.~ ).J a.a.a.a.N A.XX+X+X+XXX$X#XoX+XOXoXA.. $.h.f ^ ).).n.N 6.k.4.{ W Y Y Y L L ",
"; > & = = ; & & = d =.d * ; > = K ] o.] x.S x J J J ).{.n././.F.J N D./.XX+X+X+XOXXXA.. X M g ).).).).).J 0.0.p.} ` [ [ ) ) W ) ",
"> > > > > G > > > r :.q K > > - K ) ] ] ..V.x J ~ J ).{.).b.+XXX/.g J M N N N N M g X o /.b.).).).).).^ S x p.} ..] [  .] ) [ ) ",
"L G K K K G b w K K L L Y Y U L Y o.| ] o.V.S z J ~ ^ _.(.b.OXoX/.^ g J g b.g H g ~ (.Z.|.b.H _.(.).~ z S t.| ) ' [ ) ) ) [ ) Y ",
"T L K L L L L L K K Y Y Y Y Y Y Y [ ] ] | | t.S z ~ H J ~ f XX~.A.).).g J b.n.f ^ (.).Z.S.g J ~ J z z x V.| [ _ [ [ ) ) ) [ ) R ",
", > > > > , > ; = , : > > > > K > > > > v G C k l l z l l *.7.l.~ ).{.{.{.P.).W.{.{.i.7.7.*.c l c D V.k.| ] ] ) ) _ ) ) ) ) W Y ",
"& , > > > ; > - = > & = > ; > > & = > = = > # # p p p p p 2 2 c ~ ).{.{.{.I.E.W.}.{.i.2 :.2 p p 3 s | ) ) ) ' ) ) ) ( ) Y Y ! ) ",
", = = & = ; : & & & & = > > , = & > > = & = & & & & = : @ # a c c ~ ).{.}.R.R.W.{.).c a # & & & % K | [ [ [ ' [ [ [ ) ( R Y Y Y ",
"& = ; ; = & : & & & @ & = ; = = , > ; > > , ; & : & & < & = * a l H ~ ~ ).W._.b.~ J c l a e = & + K ] [ [ ) ) ) ) ) ) ) ) ) Y ) ",
"= : > = = = = > > > > > > G K K U T L P K G K K b > > > - w L s l _.~ ~ ~ n.b.b.~ J ).c x k n K K U ) ( Y Y T U Y L L T Y Y Y L ",
"K w > > V G V V > K L T L L T K b K K b L K K U L K L K b K R e.l _.).).).b.m.m.J ).)._.x.z k E Y L K K v G G K K K K G > > > , ",
"L K L L K L K K L K K K K L L L P T T L K P L K K L K K v > k z x.).)._.).).b.).b.(.).{.{.i.z h L Y L P T K K G > K > B K v > > ",
"> > > K G B G G K > B > G G K > K > K > > G G B K > K P U P x z ).}.{.{.{.{.R.R.W.).{.}.}.).z u.F Y W L Y T L L L K Y T K K K K ",
"L K K > K K K K K K L L K K > > K K K L K K K > K K > K b > t.x (.}.}.{.{.{.b.I.).n.}.{.).H 1 6 w.8.} ( ( Y T Y Y Y L Y L Y Y K ",
") ) ) ) ) Y Y ) ) ) ) [ [ ) ) ) ) ] [ ] [ ` ) [ ` _ ) ) ) } u.8 ^ (.{.}.{.{.{.E.W.b.).).o     6 8 9 w.| ) Y ) ) Y Y Y ( ) Y Y Y ",
") ) ) ) ) ) ) [ [ ) ) ) ] [ ] ] o.] [ ] [ [ [ ` ) W ) ) } u.9 8   X O H ).).H b.b.J X X X .     . <.c.t.[ ] [ ( W ) ) ( L T Y T ",
") R ! Y ) ) ) Y ) ) ` ! ) ] [ ) _ ) ` ) Y ) ) ) ) ) ) ) u.8 8 o o   X o     X X o X o o X X + b.'.b.<.y.{ _ ) Q ) ! Y Y Y Y Y K ",
"Y Y L W ) Y Y Y ) ) [ Y ) ) [ [ [ ) ) [ ' ) ) ) _ ] _ | y.9.n.X X   X X X X X X O o X o g b.'.'.m./.!.z.r.E / Y ) ) ( ) ) Y Y Y ",
"Y ( ) [ ) Y Y ) Q ) ) ) ) ) ) ) ) ) Y ) ) / ) ) R Y R t.c.H.[.'.'.E.f o X o X g g b.E.W.U.U.f.6.z.XXXXQ.f.t.) Y U Y Y Y L K K L ",
"Y Y ) Y Y Y Y Y Y ) W ! Y ) Y Y Y Y Y Y W ! Y Y R Y { 4.0.g g g n.b.T.R.J.<.c.B.H.H.c.0.,.r.t.w.6.K. XW.8 5.j Y L P T L U b > > ",
"Y Y Y ) Y Y Y ( ) ) ) ) ) ) ) ) ) Y Y Y Y ) Y Y Y { 4.B.<.9.v.6.g g g ,.0.2.t.4.2.4.e.q.2.{ Y { 4.c.W.  6 7 4.Y Y Y Y L Y v & - ",
"Y Y Y Y ) R Y Y Y Y Y R Y ) ) ) ) ) ) ) ) ) Y Y Y r.B.0.0.H.4.z.~.|.A.6.2.{ Y Y Y ! ) ) ) W ) W 4.1 o o . 8 4.Y U L U Y L > ; > ",
"Q Y ) ) [ ) ) ) ) Y ) [ [ ) ) ) ] ) ) [ ) ) ) ) ) u.H.H.H.u.p.z.XXXXK.6.y.' [ .. .]  .]  .] ] o.g.1 + . o 6 u.) ) ) ! Y ( B > > ",
"Y Y Y Y Y Y Y Y W ) ) ) ) ) Y Y Y Y Y R Y Y Y Y Y j 2.4.2.{ r.l.XXoXK.>.j T Y Y Y Y Y Y Y R ! Y 4.6 X X X 1 5.j L L V G b > > = ",
"& > > > = = : > V B K G K K > K K G > K G K > K K w b B w > 1.l.XX~.l.1.K K K > b U K K B B V b 5.7     o 1 1 >.i > B v > > > > ",
"> > > > > > ; > > > > K K K L L L K P U L L L K L L K L K L e.f.R.I.f.e.K K K L T K T T U L K > <.6 X o   o 1 6 >.w V V > > > > ",
"V > > > > > > > L L K L K K > G K K G > K > K K G G v V v K >.6 o   6 >.i V B V w v b w V K > > d c.1 X X X   6 &.> > ; > = > ; ",
"> > = > > G L > > > > > > > = = = > > > > > > K > K v v > b >.8 o   1 6 >.b b V G K L K K L K K y s f.8     6 ,.1.> > > > > - = ",
"_ [ ) ) ] [ [ _ ( Y [ [ X.[ ) / ) ' ) ' [ ) ) ) _ [ ) ) ' ) u.0     o 9 u.} _ ` L > > G G K K K G e >.B.M.c.*.:.r > > - > , : = ",
"+.o.+.+.O.O.+.o.O.O.o.o.O.O.X.o.O.+.o.+.O.O.O.O.+.o.+.+.O.C.g.9 X X   9 7 p.X.+.Y > K K K K K b G K y >.>.s 1.u G w > > > - > > ",
"[ ]  .[ ) [ [ ]  .o.] X.+.o. .] X. .+.o.o.] o.+.o...o. .] p.0 1 X o .   9 u.} ] Y > B K > B > > > G > > v K B K > > - > ; = = & ",
"+.o.] [ [  .] o.o.+.o.+.O. .o.+.+.] o. .[ o.o.] ..o. ...o.u.9 o X   o   0 9 g.O.( > > K K G K G G K U G B K K K b V > K w > = = ",
"] ] ) [ [ o.o.] X.] _ ) X. ...X.o.] ] [ ] o.+.o.o. .o.o.O.g.0 o o . X . 7 0.p.+.Y G L K K L K L K K K K K w > > > > B - - = : ; ",
"K G L K K K K K G > > = > > > G K V K > L K K V K K b L L 1.<.6 o X   6 v.1.t w G K > B > K K v > v > B K - > > ; ; = & * & & = ",
"K L K K > > B > > K K K K B G K > K K > v K > K b K b b P y 1.f.B.N.M.d.s e K L L L K L K K K B K v K B G > > V > - - & & & & : "
};
