/* XPM */
static char *Layer_21677303405[] = {
/* columns rows colors chars-per-pixel */
"64 64 191 2 ",
"   c #1C1F25",
".  c #1B1F28",
"X  c #1B2025",
"o  c #1B2029",
"O  c #172025",
"+  c #2C2C2C",
"@  c #262B27",
"#  c #32322E",
"$  c #2F2F31",
"%  c #342F30",
"&  c #353535",
"*  c #393636",
"=  c #363836",
"-  c #393936",
";  c #363639",
":  c #393638",
">  c #373A39",
",  c #3C3C3C",
"<  c #333030",
"1  c #441F1F",
"2  c #7D231F",
"3  c #451E23",
"4  c #481F23",
"5  c #7D1E22",
"6  c #462124",
"7  c #482125",
"8  c #492129",
"9  c #49292A",
"0  c #413E3E",
"q  c #493736",
"w  c #5B3C3D",
"e  c #583635",
"r  c #5B2F2E",
"t  c #6C2325",
"y  c #7D2223",
"u  c #742B2C",
"i  c #7C2C2C",
"p  c #752626",
"a  c #6F243C",
"s  c #72233C",
"d  c #782F34",
"f  c #623938",
"g  c #733134",
"h  c #7C3133",
"j  c #76333B",
"k  c #79343C",
"l  c #7B383E",
"z  c #73312D",
"x  c #3E403E",
"c  c #41413E",
"v  c #744A2E",
"b  c #744A31",
"n  c #7A403F",
"m  c #6D413E",
"M  c #3E3E41",
"N  c #413F42",
"B  c #4F3F40",
"V  c #513E40",
"C  c #712440",
"Z  c #7B3940",
"A  c #7A3740",
"S  c #3F4041",
"D  c #3F4B57",
"F  c #3F4B5A",
"G  c #434343",
"H  c #494544",
"J  c #494946",
"K  c #464649",
"L  c #4C4C4C",
"P  c #474847",
"I  c #554647",
"U  c #4E504E",
"Y  c #52514E",
"T  c #4E4F51",
"R  c #414B59",
"E  c #414B56",
"W  c #514F51",
"Q  c #4F5150",
"!  c #535454",
"~  c #585657",
"^  c #595956",
"/  c #565659",
"(  c #595758",
")  c #5B5B5B",
"_  c #575958",
"`  c #694A49",
"'  c #654444",
"]  c #724646",
"[  c #655958",
"{  c #6E4F50",
"}  c #5F615F",
"|  c #60605E",
" . c #5E5E60",
".. c #605E61",
"X. c #5F6062",
"o. c #636363",
"O. c #696969",
"+. c #686868",
"@. c #AD1B1B",
"#. c #B21E1D",
"$. c #84201E",
"%. c #861E2D",
"&. c #881E2E",
"*. c #881F30",
"=. c #9D1F20",
"-. c #B51F20",
";. c #812525",
":. c #8C2423",
">. c #832926",
",. c #86222D",
"<. c #8A212E",
"1. c #852A2A",
"2. c #8B2C2B",
"3. c #8C2927",
"4. c #932C2C",
"5. c #9B2423",
"6. c #893C2B",
"7. c #86382A",
"8. c #872131",
"9. c #8A2232",
"0. c #8C2D33",
"q. c #8D3332",
"w. c #863A3A",
"e. c #873636",
"r. c #943334",
"t. c #9A3233",
"y. c #95383A",
"u. c #922F36",
"i. c #B52324",
"p. c #B92626",
"a. c #A7223D",
"s. c #A9243E",
"d. c #A92E31",
"f. c #A23939",
"g. c #CB2434",
"h. c #CC2337",
"j. c #A64E38",
"k. c #A8503A",
"l. c #9B3B43",
"z. c #873F40",
"x. c #AB2542",
"c. c #AA2743",
"v. c #A52C5E",
"b. c #A52C61",
"n. c #A92A61",
"m. c #CF3E5A",
"M. c #CE3E57",
"N. c #D23E5A",
"B. c #D03D57",
"V. c #8D4243",
"C. c #894C4E",
"Z. c #9E714B",
"A. c #9F6F4A",
"S. c #A16F4B",
"D. c #A1704B",
"F. c #BD6653",
"G. c #D2415C",
"H. c #C36B57",
"J. c #DE4F7A",
"K. c #DF5176",
"L. c #DF517A",
"P. c #E14F76",
"I. c #E24F7A",
"U. c #E15176",
"Y. c #E1507A",
"T. c #CB6D65",
"R. c #CF716B",
"E. c #CD9F7D",
"W. c #D09F7F",
"Q. c #CDA07E",
"!. c #D1A17D",
"~. c #646F8D",
"^. c #63718C",
"/. c #627190",
"(. c #FB77A6",
"). c #FB79A5",
"_. c #FB79A9",
"`. c #FC77A9",
"'. c #9AA4B5",
"]. c #9AA4B8",
"[. c #CE9F82",
"{. c #D09F81",
"}. c #CEA181",
"|. c #D1A080",
" X c #EBC9B6",
".X c #EBC9B8",
"XX c #EBC8B8",
"oX c #FDE9D6",
"OX c #FDE9D9",
"+X c #FEE7DA",
"@X c #FBFDFC",
/* pixels */
"G G , G G G G G G c , G G G G G G G P G G L U L L ! _ ! ` y.q.1.8.9.9.,.9.9.9.9.9.2.1.1.1.*.8.s.*.2.V J H M , , G H K K 0 * G c ",
", , G , , , , , , , , : , , , , , S S x c G Q ! / / { q.q.9.9.9.x.b.v.v.s s s v.c.x.,.<.&.a.v.*.>.e 0 0 x S L ! ! L L L N , , , ",
", , = : = : = = = , , , , , , , S G G S c G J U T ' q.*.,.9.v.U.L.P.Y.n.v.K._._.`.U.I.I.P.b.s 9.%.;.>.w , 0 , , , - = = & $ @ + ",
", G G G G G N G G G N H V h 1.h 1.i 1.1.m S S S w 1.&.9.b.L.).).Y.b.b.Y.`.)._.)._.`.I.P.L.I.I.b.%.%.%.;.p $.q & $ $ $ + @ % + @ ",
"G P G G P G G , P H H i 2.s.x.s.x.x.%.9.1.1.e w >.*.9.P.)._.)._.Y.Y.).).Y._.).).).(.).Y.U.v.Y.(.J.s *.x.a.%.y y 9 + & # + + + + ",
", , N G , , , N , q i a.B.G.Y.P.P.P.n.a.s.%.1.1.8.&.P.).)._.`.P.).).).).L.Y.)._.)._.).P.).Y.b.U.(.I.s s C a.a.%.y e = & : $ & $ ",
"G , , , , , , , q p x.M.b.a s s s s s v.v.x.s.,.8.v.).).`.).K.).).).`.Y.P.v.).)._.).).Y.).).Y.Y.).).b.s b.P.J.s.&.y = = & & ; % ",
", , , = , * ; = p a.B.`.(.Y.v.s s s s s C v.v.a s P._.(.).`._.)._.L.I.P.b.v.).).).).).v._.).).b.I.).U.a v.J.v.s %.5 & & & & # $ ",
"& = - = - - * q p a.`.).(.).).).).).Y.U.Y.v.s s b.).`.).).(.)._.L.U.v.D.Q.b.).`.`.).Y.v.U.).).L.Y.).).b.s a s v.%.y > , = % = = ",
", = , , , - N u a.a.P.)._.).).Y.L.Y.Y.b.s s s s U.).).)._.).).Y.Y.b.Q.E.Q.v.).).).).v.D.v.).`.L.v.`.).Y.a a n.Y.s.p , = = $ & : ",
"& $ & = ; , - p a.I.n.P.Y.P.P.Y.v.v.b.a s s a v.).).(.`.(._.L.Y.v.}.s s }.b.).).`.).v.}.v.Y.).).v.U.(.).v.a P.Y.x.p , : * ; , = ",
"G K G H T P I 4.N.`.J.v.s v.v.b.v.v.a s s a s v._.).).)._.P.Y.v.A.Q.Q.v.s v.).).).Y.Z.Q.s a ).`.n.Y.).).P.s v.Y.9.;., ; = % & $ ",
") _ ~ _ ) ~ w.x.K.).).Y.b.s a s s s s s s a s Y.).).`.).).L.v.Z.Q.Q.!.Q.Q.s Y.`.).v.E.s v.Y.)._.v.P.Y.).).U.s v.%.;.> - & & & & ",
"~ ) ^ ~ L ! w.x.)._.)._.).Y.n.s s a s s s s s K.`.)._._.P.K.n.Q.Q.}.E.E.Q.D.Y.).L.b.}.Q.v.Y.`.).s Y.P.Y.).).Y.s <.>.N , , , & = ",
"L L ! ! L L e.c.U.).).).(.).L.v.a s 0.9.<.X s Y._.).).).K.n.D.[.Q.}.D.Z.!.E.v.).Y.D.Q.D.v.).).Y.a Y.Y.a b.Y.).N.9.1.K K G G N , ",
"! W L L ! ! w.s.v.Y.).).Y.L.v.a s 9.9.t.8 X s Y.).).).Y.K.v.Q.Q.Q.E.E.Q.S.Q.v.P.v.Q.Z.Q.b.).Y.v.s I.P.v.s s s &.;.q & # & & & # ",
"Q L L L P K 3.G.b.v.b.b.v.b.v.s %.<.1.=.g.X a P.).).).P.v.Z.E.E..X.X.X X X}.Q.v.v.E. X XQ.P.v.s v.Y.P.b.s s b.%.y , - = ; = * ; ",
", G G G S G 1.K.L.v.v.a s s s 9.9.1.f 5.g.g.X b.).).Y.Y.v.Q.}.W.Q.W. X.X.X XQ.v.Q.XX X XE.v.a s b.Y.Y.v.a v.b.%.;.; , = & : & $ ",
"L L K L Y U q.K.).).L.K.v.s 9.<.1.w H =.g.h.X v.Y.).P.Y.b.Q.E.X X X X X Q.XX X XE. XW..   X s a n.Y.L.s a v.n.%.1.G , S , M N , ",
"P L P P c c 1.G._.).).U.Y.b.9.1.e S G 5.g.g.X s Y._.Y.b.Z..XX X ^.s '.s   W. X X.X[.. '.s ^.. s v.L.L.s s b.s 9.1.G G , , , , , ",
", , , ; = , p a.).).Y.Y.v.,.&.y ; M g 2.R.g.g.X v.P.I.v.Q..XX '.@Xv.s s v..XOXOXoXXXD.a s '.v a v.L.v.C s s v.*.;.0 , 0 , , , , ",
"= * = = = = 2 *.Y.`.U.b.s %.y e > z T.7.T.g.g.X v.U.Y.b.E.OXoX.X X'.v.n.Q.OXOXOXoXOX XQ.b.Q.Q.s v.Y.v.@.s v.v.,.>.c G 0 , , 0 , ",
"N 0 x x G M ;.<.s.v.n.v.*.%.>.x , u T.v Q.A.g.X a Y.Y.s Q.oXoXoXoXOXOXOXoXoXOXOXOXoXoXOXOX.X}.s v.K.s @.s v.W.T.T.u G G , c , , ",
", > , , , > e ;.a.Y.J.b.*.;.e , > i j.}.Z. XoX  s v.Y.s Z.OXOXOXOXOX+XoXOXOXOXoXOXOXOXOXoXOXQ.s b.v.s @.a v b v 7.:.0 , G , , , ",
"K H K G G G P 2.N.`.U.Y.,.1., , G u R..Xv v  X@.s v.n.s v .XOXOXOXoXOXOXOXOXOXOXoXOXOXOX+XOXQ.s v.s @.W..X XZ.F.T.T.h H H P G G ",
"W L L Y ! ! ! w.x.).P.b.8.y.! ! Y ] R.!.b D.Q.i.p.s v.s b Z.oXOXOXOXOXh.g.g.g.g.g.OXOXOXoXQ.b a s s s .XD.v b 6.3.j c H G S G x ",
"L L ! ! W ! ! w.x.b.b.9.9.q./ _ ! q.H.k.Z.S.Z.v.p.a s s i.b E.oX+XoXoXh.h.g.g.g.Q.OXOX+XQ.v #.#.s F b.v Q.v v j.T.g P G G S x x ",
"L ! T L W ! Y q.9.G.Y.x.q.' ! ! / { t.6.Z.v v.^.E i.a p.y.p.v S..XOXOXOXg.h.g.|.OXoX XZ.X @.#.@.F ^.^.v.D.D.v F.T.z G , , , G - ",
"! L L L Y L ! ' q.x.b.G.y.^ ! ^ ! Q 0.<.9.v.^.].].^.E i.#.i.i.v v D.}. XOXoXOXoX XA.X X @.@.R F ^.^.^.D s j.7.j.i 0 ; S , , , , ",
"P P G c G G N G 1.9.M.x.u G G c P ! ` y.l R R ^.'.'.].^.s E.D.R a F v v v v b b s X . v v.R ^.^.^.^.R R k 8.r.0.' Q Q L L L P P ",
"* , ; = * ; = & 9 y s.*.;.* , : S ) | V.l l F F ^.'.'.].b.OX XQ.F s E R a s R R a R Z.E.v.^.^.^.^.R D l l y.{ _ ~ ~ _ _ Y ! Y ! ",
", , , , , N , , , q >.,.;., , , G / ) [ V.Z l l F F ^.^.v.oXoXXX^.F s ^.a v.s ^.a ^.S.Q.v.~.^.R R l Z Z z.[ _ ) [ ) ) [ ) ! ) ! ",
"P N G H G G 0 N G K w 1.' L H P L } ) X.[ V.V.Z Z Z R R a XX.XQ.^.^.^.v.Y.Y.Y.v./.^.Z.Z.Z.v.R l Z l w.l [ Y ~ / ! ) ! ! ! ) ! L ",
"P P P K P P P G G H J L L T L L L ) ) [ [ ) [ V.V.Z Z 9.H.H.A.R ^.'.'.].Y.^.U.'.].l.6.6.6.x.k l w.w.[ ) } ) ) ^ ! ^ ! ! ! ) L L ",
"= , , , , = , , = - = , ; - M K , , M , S G G P V i h 1.2.j j D ^.].'.'.Y.Y.L.'.d.g ;.$.:.t u p q L [ ) ) ) _ ! ! ! ! ! ! ! ! L ",
"& : > : , = , : = , = & , ; > > $ , > = ; > + & & # $ & % t g D R ^.'.'.Y.I.Y.'.u.5 % & & & % $ @ S ^ ! ! ! ! ! ! ! ! ! L L L ! ",
": & : = = : * & & & & * > , , * & , > > & & & & = = = & # t g R D R ~.^.b.^.v.^.g t q * = = & & $ G  .! ) ~ ^ / ! ^ ! ! ! L L L ",
"& = : ; = & ; = & & & & & = : : , , , , , - & = & = & $ & t g F ^.D R F v.v.b.E u.g t * = ; & & + P ) ) _ ! ! ! ! ! ! ! ! ! L L ",
"= ; - = = & = , , : > M , N G G H K P H K M G G G , M , , p j ~.~.^.~.D n.E J.^.^.y.k h I P G P G P ! L L L P L L L P K L L L L ",
"G 0 , M G , G N N G P H P P P K G G G G H G G G P G P H N i j ^.'.'.^.^.Y.J.Y.^.^.'.l.k h K P L L P G G , G 0 G G , G , , , , , ",
"P G P P P H P G P G G G P G G P P P L G P P G P K G P N 0 i j '.].'.'.'.v.P.Y.v.'.'.'.j h I L G K K G P G P G G G N G , G M , , ",
", 0 M G , , G , G , , , c N G G G M G , , , G , S G G P h j l.'.'.'.'.'.b.Y.^.P.'.].^.j k w.Q ! L Y Y L L H P P P G H P G G G G ",
"G G G , N G M G G G G P G , , , G G G G G P N , G G 0 c u j ^.'.'.'.'.'.'.Y.b.D X X o X k t.m ! ! ! / / L T K L L L P L P L L G ",
"! ! ! ! ! L Y ! ! / ! ^ ) ! ! ! ! ) ) ) / ! ! ) ! / ! Y t.4 E ^./.^.^.F R X o o X X o o 7 7 t.] ! ! / ! Q L ! ! L L L ! ! L L L ",
"! ! ! ! ! ! ! ) ) ! ! ! ) ) ) ) [ ) ) ) ^ / / ~ ! U ! ] t.7 X X X X       . X   X o X X X 7 7 t.y.` ! Y ^ ) ! ! L ! ! L H L P L ",
"! T Y L ! ! ! L ! ! ! ! Q ) ! ! _ ! ! ! Y ! ! ! _ U ] t.7 3 O X X o .   .     X X   v.)._.U.G.c.9.q.` U ! ! ! Y ! T L L L L L G ",
"L L L L ! L L L ! ! / L W ^ / ) _ _ ! ) _ ! ! ! / { t.7 7 X   . X .   . X O X X v.).).Y.D.Z.v s x.9.q.! / W L L ! ! ! ! W L L L ",
"! L ! ! ! L L ! L ! ! ! ! ! ! ! ! / L ! ! Y ! ! L e.x.x.b.X X . X @ .   . O X P.K.G.9.k.D.}.Q.D.9.9.q.W U Q ! L L L L L P P G P ",
"L L ! L L L L L U ! L L L ! L ! L L L L L Y L L L 2.9.b.P.P.P.Y.b.o   X a Y.G.c.<.r.r.6.k.Q. X|.6.4.` ! L P L L K P P G K G , , ",
"L L L L L L L L ! ! ! ! ! ! ! ! W L T L L ! L L L r.G.s s s n.Y.Y.P.Y.N.s.x.<.2.2.' f 3.6.k.|. XH.e.I L L L L P L L L K L N & , ",
"L L L ! L ! L L L L W L ! ! ! L ! ! ! ! ! ! L L T 4.G.s K.Y.s s s 9.3.9.0.w.0.' L U ! ] r.6.k.XXT.x.4.] ! ! W L P P P L P , = * ",
"! L L ! ) ! ! ! ! L ! ) ! ! ! ! ) ! ! ) ! ! ! ! ! r.G.9.Y.D.XXQ.D.6.y.q.` ! ) ) ) } ..| { t.c.U.Y.7 6 t.] ! ! ! ! ! L L L N , , ",
"L L L L L L L L ! ! ! ! ! ! L L L Y L L L L L L L f q.N.a Y. X XH.7.2.H H L L L L U L L U 4.7 4 @ . 1 3 2.P P K P K G c G , = = ",
"= , , , : = , : , , G N G G , G G N , G G G , G G G i c.N.L.[. Xj.2.f G S N S x G G G P c r :.6       1 3.r , , , , , N , , , , ",
", = , , , , , , , x , G c G P P P G P P P P P G P K I 1.x.s.Y.L.s.h G K G G G P P P G P H P 4.1 .   . 1 3 :.0 G G , G , , , , , ",
"0 M , , , , , , G P G P G G M 0 G G , , G , G G N c , q :.3 X X 7 :.r , , c M 0 x G c , c 0 &.3 3 .     3 :.r > , , , : , & , , ",
", , , , , S G M , , , , , , = = = , , , , , , N , c c 0 :.1 .   3 3 :.G G G G c N G P G N P f 3.1 X X . 3 3 :., , , , , , , , = ",
"! ) ! ! X.) _ _ L W ) ! ) ) ! ! ! ) ! ! ) ! ! ! / ) ! / 4.6 X . o 7 t.] ! ~ / ! P > 0 N G G G 3.3 . . X . 1 :., , , , , , : = & ",
"+.o.o.+.+.+.o.o.O.O.o.+.O.O.) o.O.O.o.+.+.O.O.O.O.+.o.O.f.8 .   X 8 7 f.C.) X.+.L , c G N G S i x.3 X X 1 %.1.M G , , , , , , : ",
") ) } ! ! ) ) [ o.o.) ) O.o.[ ..) } +.o.o.) o.+.o.) | | f.7   . X . 7 7 y.~ ) ) L , G G , S , q p s.M.M.s.>.e S , , , , , ; & = ",
"o.X.) ) ^ ) o.) o.o.o.O.O.X.o.+.+.) o.) ) o.o.) X.o._ ) y.8 o   . . X 8 f.} o.+.! = M N N N c N q i 3.3.i q G G G G , 0 , , = = ",
") ) ^ ^ ) o.o.) ) ) ) ! X.X.) } o.) ) ) ) o.+.o.+.| +.+.f.8 X @ X X X 8.y.} ) o.T , G P G P P P P G N K G , S x > , , , : = = : ",
"G G G G G G G G G , , = , , x G G G G , G G G N S G , H 1.,.3 o X X 4 N.3., x G G c 0 x , G G , , x , , G , , , : = ; = & & & = ",
"G G P S , , , , M G G G G , G S , G G , x G , G S c G G w 2.<.a.c.B.N.2.e N c G J G G P G G G S G N G N N , , x : , : = : & & : "
};
