/* XPM */
static char *Layer_91677303406[] = {
/* columns rows colors chars-per-pixel */
"64 64 181 2 ",
"   c #1B1F25",
".  c #1C1F28",
"X  c #1B2025",
"o  c #1B2029",
"O  c #172025",
"+  c #2D2D2D",
"@  c #312F30",
"#  c #353535",
"$  c #393536",
"%  c #363835",
"&  c #393937",
"*  c #363639",
"=  c #393739",
"-  c #373A39",
";  c #3C3C3C",
":  c #362828",
">  c #431F1F",
",  c #7F211F",
"<  c #461E23",
"1  c #481F24",
"2  c #462125",
"3  c #492125",
"4  c #4A2428",
"5  c #413D3D",
"6  c #4E3C3B",
"7  c #473535",
"8  c #5B3B3C",
"9  c #573636",
"0  c #6D2423",
"q  c #722525",
"w  c #742B2B",
"e  c #7B2C2C",
"r  c #792524",
"t  c #6F243C",
"y  c #71233C",
"u  c #792E34",
"i  c #683336",
"p  c #75323A",
"a  c #79353D",
"s  c #773135",
"d  c #7A302D",
"f  c #3E403F",
"g  c #41413E",
"h  c #744A2E",
"j  c #744A31",
"k  c #60413F",
"l  c #3E3E41",
"z  c #413F41",
"x  c #702340",
"c  c #793840",
"v  c #3F4141",
"b  c #3F4B57",
"n  c #3F4B5A",
"m  c #434343",
"M  c #494546",
"N  c #464846",
"B  c #4A4947",
"V  c #454648",
"C  c #494749",
"Z  c #4C4C4C",
"A  c #454949",
"S  c #514E4E",
"D  c #574545",
"F  c #4E504E",
"G  c #51514E",
"H  c #424B57",
"J  c #4E4E50",
"K  c #414B59",
"L  c #514E51",
"P  c #4F5150",
"I  c #535454",
"U  c #565855",
"Y  c #595957",
"T  c #565659",
"R  c #5B5B5B",
"E  c #585758",
"W  c #674947",
"Q  c #744A4B",
"!  c #665C5B",
"~  c #715151",
"^  c #5E605F",
"/  c #61615F",
"(  c #5F5E60",
")  c #636363",
"_  c #696969",
"`  c #696768",
"'  c #801E1F",
"]  c #AE1C1B",
"[  c #AB1818",
"{  c #B11C1D",
"}  c #B3221F",
"|  c #861E2D",
" . c #891F2E",
".. c #831F22",
"X. c #891F31",
"o. c #861E32",
"O. c #B41F22",
"+. c #832525",
"@. c #8B2524",
"#. c #85222C",
"$. c #8A222C",
"%. c #842A2B",
"&. c #8B2C2C",
"*. c #862926",
"=. c #932C2C",
"-. c #9A2F2F",
";. c #853925",
":. c #893D2B",
">. c #8A312F",
",. c #872031",
"<. c #8A2232",
"1. c #842E31",
"2. c #932F30",
"3. c #843533",
"4. c #8D3433",
"5. c #8C3B3C",
"6. c #873739",
"7. c #943433",
"8. c #9B3233",
"9. c #943A3B",
"0. c #96353A",
"q. c #9A312E",
"w. c #B52322",
"e. c #B82525",
"r. c #A6233D",
"t. c #A9243E",
"y. c #A2393A",
"u. c #CC2435",
"i. c #A54E38",
"p. c #A8513A",
"a. c #9C3843",
"s. c #AA2541",
"d. c #AC2843",
"f. c #A62441",
"g. c #A52C5E",
"h. c #A92A5D",
"j. c #B02741",
"k. c #A52C61",
"l. c #A82C61",
"z. c #CF3E5A",
"x. c #D13E5A",
"c. c #D13D57",
"v. c #9F6F4B",
"b. c #9F6F47",
"n. c #9E714B",
"m. c #A16F4B",
"M. c #A0704B",
"N. c #B06C52",
"B. c #CF405B",
"V. c #D2415C",
"C. c #DE4F7A",
"Z. c #DF5276",
"A. c #DF517A",
"S. c #DD556D",
"D. c #E14F76",
"F. c #E24F79",
"G. c #E15077",
"H. c #E2507A",
"J. c #CD6C66",
"K. c #C46954",
"L. c #CD9F7C",
"P. c #D09F7F",
"I. c #CDA07E",
"U. c #D0A07C",
"Y. c #63718C",
"T. c #646F8B",
"R. c #FB77A5",
"E. c #FB79A6",
"W. c #FB79A9",
"Q. c #FB77A8",
"!. c #9AA4B5",
"~. c #9AA4B9",
"^. c #CD9F80",
"/. c #CFA282",
"(. c #EBC9B6",
"). c #EBC9B8",
"_. c #EDC7BA",
"`. c #FDE9D6",
"'. c #FDE9D9",
"]. c #FEE7D7",
"[. c #FCFCFD",
/* pixels */
"m m v ; m ; m N m z ; m m m m m m m N V m B Z Z Z T T I T T I B N I F I T I I S I M m m 9 &.e s.S.V.&.C N 5 ; ; N V B V ; = m v ",
"; ; ; m v ; ; ; ; ; ; ; ; - ; ; ; 5 g z ; N F I T E R Z W 9.4.%.+.%.&.4.9.9.~ I Z W %.+.r #.s.c.x.t.e z ; m Z I S Z Z Z m ; ; ; ",
"; = ; % * & % $ # ; ; ; ; ; l ; f V z 5 m m B Z Z W 4.4.&.#.<.,.<.,.X.<.$.,.4.&.%.%.<.#.t.r.t.t.o.+.6 5 l ; l ; ; % % * # + + + ",
"v m m m m m 5 m V m m z m g V N M m V N N N ; 8 +.%.,.$.,.t.l.g.g.y y y k.t.r. .| X.t.g.g.l. .+.+.+.9 & - $ * # + # + + + + + + ",
"m N m m N m m ; m m m V m m m B N z ; m z m 9 %.$.o.X.g.F.A.G.A.g.k.g.A.F.G.H.A.F.Z.k.y t t o.| o.| +.7 & ; * # @ @ # @ + + + + ",
"; ; m z z ; f ; 5 ; 6 e @.@.e e e 6 m l ; 9 %.<.o.g.F.G.G.G.k.g.H.E.E.W.G.G.W.W.C.A.F.F.k.y y k.k.c.r.w 7 % # ; * ; % * # + # + ",
"m ; ; ; ; ; ; = 7 r +.s.z.z.r.t.r.r e 6 9 %.,.$.g.A.E.E.H.H.R.E.W.W.E.E.W.E.C.E.E.g.H.R.H.F.y y y y V.f.e ; f ; ; - % % @ # # @ ",
"; ; ; $ = ; $ 7 q r.c.c.y y y g.s.t.r.e %.<.#.g.G.W.E.A.W.E.W.E.W.G.E.E.E.E.W.E.W.F.g.G.E.E.G.y k.F.D.| +.9 ; ; + # # # # # # + ",
"% $ ; % $ = % q r.c.g.y x y t y y t t.r.X.| y G.E.E.F.E.R.E.E.E.F.g.E.E.E.E.E.A.W.E.Z.g.W.W.W.k.y k.y r.#.+.; ; ; % ; = * # # # ",
"- % * ; ; ; 6 e r.E.G.g.t y y t t g.D.k.y y k.R.W.E.W.Q.W.E.E.G.k.g.E.W.W.E.W.k.E.W.W.g.G.R.E.H.g.y g.F.t.e ; ; ; ; = # % # % * ",
"# # # % % ; e r.z.E.E.W.E.F.F.D.C.D.g.y t y F.E.E.R.E.E.E.E.F.k.M.l.G.W.E.E.G.g.G.W.E.H.g.W.E.E.G.t k.F.z.&.k B ; ; ; % % * = % ",
"m V m C Z C d d.H.W.E.E.E.E.W.G.F.g.g.t y g.E.W.E.R.W.Q.E.H.g.n.I.M.F.E.W.W.G.g.k.E.E.E.g.A.E.W.Q.k.y F.d.$.9.E m ; ; % % # # @ ",
"E E T R R E 6.d.g.G.W.E.F.G.A.G.k.k.y y y F.E.E.W.E.E.E.W.g.M.I.U./.g.E.E.E.G.k.k.E.E.E.g.Z.G.R.E.G.y k.y <.7.F ; ; ; ; % * # @ ",
"E R R T S J 5.r.l.g.k.H.F.C.G.g.g.y y t y E.E.E.E.E.R.E.F.k.I.I.L.L.k.D.W.E.G.g.M.G.W.E.G.k.G.W.E.E.g.y g.s.5.T V v ; ; ; = % = ",
"Z Z I I Z Z 6.j.G.k.t k.g.k.g.k.y y t y h.E.E.E.E.E.E.E.g.m.y y ^.I.n.k.E.E.A.g.M.g.E.E.G.k.G.A.Q.E.A.y k.s.6.R B N N m m m m ; ",
"T G Z B P I 7.V.W.G.g.y y y y y t y y y g.W.E.W.E.E.E.G.g./.I.g.y I.P.g.G.E.E.k.y y H.E.W.k.H.k.A.W.E.k.t s.%.9 ; * # @ # # @ # ",
"F B Z B A N &.c.W.E.E.E.G.k.k.y y y X y g.E.W.E.E.E.E.g.n.L.I.I.I.y U.M.k.E.W.y ^.M.g.E.W.y G.k.t k.E.G.g.<. .+.; & = $ % * * * ",
"; V N m m m $.x.E.E.W.E.E.D.G.g.y X   o g.R.E.E.E.E.E.k.L.I.I.I.I.I.I.I.n.G.E.g.I.L.g.F.E.y H.H.g.t g.W.F.y r.q ; $ % % * % # @ ",
"B B Z L Z Z 3.d.F.W.Q.G.A.G.k.k.y u.  O k.E.E.E.E.E.F.h I.^.v.M.I./.P.L./.k.G.L.n.I.M.g.H.x F.G.k.y y y t y s.e m V f m ; ; z ; ",
"C Z V V m N 3.t.s.G.G.G.A.G.l.x y u.  o y E.E.E.Q.E.g.M.I.(.(.I.M.I.I.I.I.v.l.m./.U.m.y g.y G.H.k.y y y g.g.s.*.9 v f 5 ; ; ; ; ",
"; ; - - % = 7 e f.g.k.k.g.k.g.t t u.u.  y G.W.E.E.E.k.M.).(.(.(.(.I.(.)./.P.P.(.).L.M.y t g.A.G.g.{ y g.g.k.s. .+.; f ; ; z ; ; ",
"* % $ # # # % ..c.k.x t y y y y y u.u.X o g.E.E.R.G.h I.L.L.L.(.(.).).(.(.).(.I.P.L.v.y k.g.C.G.y { y t g.k.y | %.v m f ; ; ; l ",
"v z g v m 5 z $.x.W.E.F.g.g.t t t [ u.  X g.C.E.E.g.M.m.O o X o M.).(.(.(.(.I.o X   j y k.g.F.F.t ] { y y y y s.%.9 v V l v ; ; ",
"; ; ; ; ; ; & w t.E.W.E.E.F.g.y t [ u.u.o y F.F.E.g.M.o o . X o o M.(.'.`.(.X X X o . y y k.F.C.t { %.] t y g.r. .+.; 5 5 z ; ; ",
"A M N m m N m d f.V.E.E.F.G.k.t [ %.] u.o o g.G.E.g.M.(.`.'.'.'.`.'.'.'.`.'.'.'.'.).I.v.t g.G.k.] %.l %.] n.(.t r.>.8 g N V m m ",
"Z Z Z L F I T W 6.t.H.G.G.g.g.t } I 4.w.} o y g.A.g.M.'.'.'.`.`.'.'.'.'.'.`.'.`.'.'.(.m.y g.F.g.] N %.] h I.j <.<.<.%.V N m f f ",
"I Z I I I T I T 6.s.k.k.k.k.y y } I T I 5.w.y y A.k.M.'.`.`.'.'.'.`.`.'.'.`.'.'.'.'.(.v.t y D.y ] 3.] (.I.h h J.&.%.8 V V g ; l ",
"Z J Z J S Z I L 3.#.V.k.y y y w.w.w.w.7.R 9.w.y k.l.M.).'.`.'.P.I.(.'.'.'.`.`.'.'.`.I.h ] y g.y ] ] n.).j j L.i.e 6 m ; ; ; f ; ",
"S I C Z I Z L G W 2.x.R.F.k.y `.(.j M.w.5.G 3.} y k.h I.(.'.'.I.[.[.[.[.M.P.`.`.`.L.j [ e ] y y [ k.n.P.j h j :.J.w ; ; ; ; ; ; ",
"N V m m N z l V m e t.F.G.g.t M.j j ).`.w.4.U 9.w.y w.j M.(.'.'.(.[.[.(.I.`.`.).M.o O.w.w.{ } n Y.k.h I.M.j p.K.>.S F Z Z Z N N ",
"% = % # % % # # $ r  .r.k.y '.(.I.j M.).m.w.9.e.w.M.I.M.H h M.).`.'.`.'.'.).n.X   j j y H H Y.Y.Y.Y.g.M.I.p.:.7.W ^ R T T I S I ",
"; ; ; l ; 5 ; l ; 9 @.z.C.y `.m.n.j n.I.I.e.e.g.n.(.'.(.I.y n h j j h h h t X o M.L.g.n Y.Y.Y.Y.Y.Y.y :.p.:.7.~ ^ R R R Y T T E ",
"V m z V m z z l f N %.<.d.k.L.L.M.h M./.v.T.!.!.k.I.'.(.I.K y b t g.y H y K Y.M.^.^.k.Y.T.Y.Y.n n c a <.7.7.Q U I R I P T Y I Z ",
"M N m N N N N m N m W &.s.x.i.:.j h m.v.x n Y.!.Y.g.(.L.v.Y.Y.y K k.k.y b Y.Y.n.v.v.k.b n K n a p c a.9.~ R R U U R T I T U J Z ",
"% ; ; ; ; = ; ; = % = 7 e r.r K.i.h j g.n K b Y.T.y n.v.b Y.!.!.!.C.Y.F.~.!.Y.i.;.;.#.s p p p u q a / ^ R ! R U I I I I I I I Z ",
"# ; ; ; ; % ; = $ ; # # 7 q 9 +.| X.r.n K n n n p o.;.p b Y.!.!.!.F.G.F.~.~.0.;., .., 0 0 0 0 0 : v U P T I I I I I P I J B P G ",
"% # % # * = % # # # # * ; ; ; 7 r +.p p p n p s p ' ..s p n Y.!.!.F.C.C.!.T.s , 4 @ % $ % % # # @ N R E Y U I I T Y T L I Z Z Z ",
"# # = = % # = % # # # # * % $ % 5 7 w q p p p 0 0 $ 7 0 p n n b Y.D.H k.b n p 0 7 # % # - $ # # @ m R Y U U T T I I I I I I Z Z ",
"* % = * % % % ; ; = - ; ; g v m N V N D d w e 6 g = ; w p b K b K g.g.k.K K 0.p u N z N C V m N v N I I Z S B B Z N N C Z Z B B ",
"m m ; ; v 5 z m ; N N V A M C N m N z f V m N M M m V u p Y.K H n k.g.k.n T.T.p s D B Z C Z A Z F m m m ; ; v m m ; m v ; l ; ; ",
"N m N N N N V 5 N N m m V m m N M N N N V N V m m m g d p Y.Y.Y.Y.Y.Z.Y.k.Y.Y.0.p s D B V B B A C B m N m V V m m m m l m ; ; ; ",
"; 5 l m 5 ; m z 5 ; ; ; m 5 m z V ; m ; ; 5 z ; 5 m 1.a 0.!.!.~.Y.Y.H.F.D.Y.~.!.a.p 3.S Z I I I L Z S Z Z B N A m m A B m m V m ",
"m m g ; 5 m ; m m m m m g v ; ; 5 m m N m m m ; f m w p Y.~.!.!.~.!.g.F.G.g.!.!.!.a.a -.Q I P I I I T I S Z B Z B B A B B B M N ",
"T I I I I F Z T I U Y T R I I I T R Y R Y I T R T E 7.3 K Y.!.!.!.!.!.F.Y.Z.~.!.Y.b 3 3 8.9.W P I I I T I Z I G Z I L I I Z Z Z ",
"P I G T T T I T Y T G T R Y R R R R Y R Y E Y T T P q.3 o X o H Y.Y.H g.F.D.b X . o o d.j.<.9.Q E T I Z T R T Z Z T I L B A B B ",
"I G G Z I I G F G T T G I R T I R I T T Z T I I U G q.2 X X X X   o   X X o   X o G.R.E.G.d.<.4.P T I G I T I G I Z J B J Z Z V ",
"Z Z N Z T Z B Z I I T Z Z R Y R Y E Y T Y I I T Y Q q.3       O o X X X X X   o D.k.n.(.).I.:.7.D I I G T S F J I I I I S Z Z Z ",
"Z I I T I Z G I F I G T I I I I G T Z G I Z I I Z =.3 3 X X     X X o X X   X y g.M./.(.(.).s.j.5.I I G L P I Z B B Z Z N V N V ",
"Z Z I Z Z Z Z Z Z I Z Z F S Z F Z Z Z Z Z Z Z Z Z &.<.. o O o X o X o o t k.V.s.:.:.p.i.I.k.o 1 8.Q Z I Z V Z Z N C A N M m ; ; ",
"Z Z C I P B Z J F T I I T I I I F Z I Z Z I Z N Z 7.V.k.y   o X o y A.E.Z.V.r.6.=.&.=.:.s.    2 3 =.Z Z J Z B V B Z Z B Z l # ; ",
"Z Z F Z Z I L Z S J Z Z F I I S I I I I T Z Z Z Z 4.<.Z.g.G.E.E.E.G.d.<.<.2.3.D Z F W -.s.3     < -.Z Z I L P B B V V Z N ; % = ",
"I Z S T R I I I I Z T R Y I I T Y I T R I T Y T I 7.V.t y h m.M.<.<.<.4.4.W R R / R ( ! y.3   . 3 y.Q U T U T I I I Z Z L ; ; ; ",
"B Z Z Z Z Z B Z Z I I T T I Z Z Z J Z Z F Z B Z Z &.B.y F.(.(.^.p.4.&.8 M B B Z Z Z Z J -.1     3 1 =.N N N M N N N m m m ; % % ",
"% ; ; ; ; % ; - ; m g ; g m ; m m ; 5 m m m ; m m @.z.y G./.).(.r.d m g g m m ; m V N m @.>       < @.9 f 5 ; ; ; ; ; l ; ; ; ; ",
"; * ; ; ; ; = ; ; m ; N z m N N m N M V N N N m M =.c.<.F.k.A.A.< &.m N m m z N N N N N =.1   o o <  .+.f l f m z ; m ; ; ; l ; ",
"m l ; ; ; ; ; ; m N m m V m ; 5 m m m ; m ; m m z 9 @.z.c.1     < @.i ; ; m ; z ; z v ; e s.> o X <  .+.; ; ; & ; ; ; = ; % ; = ",
"; ; & ; l ; V ; ; ; ; ; ; ; % * % ; ; ; ; ; ; m z m 9 @.@.1 o   < < @.g f g m ; g V V m 6 d s.x.c.t.%.9 ; v l ; ; 5 ; ; ; ; ; % ",
"T Y T U R R U R L Z R R R R T I I Y T T T T I I I Y I Y -.3 X     3 8.Q Y T E Y B = ; g M z e @.&.e 6 f g ; ; ; ; ; ; ; ; * % # ",
") ) ) ` _ _ ) ) _ _ / ) _ _ R ) _ _ ) ` ` ` ` _ ` ) / _ y.4 o X X 3 3 y.) ^ ! ` L ; m m m m g f z m m m N z m l m ; ; ; ; ; ; = ",
"R R R T T R R R ) ) R R ) ) ) R ^ ) ) ) / ^ / ` ) R / ^ y.3     o   3 8.~ T R R B ; f V 5 5 5 ; ; ; l z f z ; m ; ; ; ; ; * # % ",
") ) R R R R R ) ) ) ) ` _ ^ ) ` ) ) ) R R ) ) R ) ) R ( y.1 . X o o 4 3 y./ ) _ Z ; m l g ; m m m 5 N l g m v m m m ; z ; ; * % ",
"R R E R R ) ) R ^ R R I ) ! ( ^ ) R R T ) ) ) ) ) ) ) ) y.4 . o       <.7.Y ^ ) Z 5 m m N N m m g V z V m ; z ; ; ; ; ; = % # ; ",
"5 m m m m m m m v ; ; ; ; v ; v g m m ; m l m f m z g N %.#.1 o o X 1 c.&.; ; m m m ; m ; m m v ; m ; ; m ; ; ; % % = % # # # % ",
"m N m g ; ; 5 ; ; m m ; m ; m m m ; m ; m m 5 z v m m g 8 &. .s.t.x.x.&.9 v m m C N m m m m m ; m g m 5 l ; ; l ; = = # * # # % "
};
