/* XPM */
static char *Layer_211677303408[] = {
/* columns rows colors chars-per-pixel */
"64 64 183 2 ",
"   c #1B1F25",
".  c #1B1F28",
"X  c #1B2025",
"o  c #1C2029",
"O  c #172025",
"+  c #2D2D2D",
"@  c #312F30",
"#  c #353535",
"$  c #393536",
"%  c #363835",
"&  c #393937",
"*  c #363639",
"=  c #393739",
"-  c #373A39",
";  c #3C3C3C",
":  c #362828",
">  c #431F1F",
",  c #7F211F",
"<  c #461E23",
"1  c #481F24",
"2  c #462125",
"3  c #492125",
"4  c #4A2428",
"5  c #413D3D",
"6  c #4E3C3B",
"7  c #473535",
"8  c #5B3B3C",
"9  c #573636",
"0  c #6D2423",
"q  c #722525",
"w  c #742B2B",
"e  c #7A2C2C",
"r  c #792524",
"t  c #6F243C",
"y  c #72233C",
"u  c #792E34",
"i  c #683336",
"p  c #75323A",
"a  c #79353D",
"s  c #773135",
"d  c #7A302D",
"f  c #3E403F",
"g  c #41413E",
"h  c #744A2E",
"j  c #744A31",
"k  c #60413F",
"l  c #3E3E41",
"z  c #413F41",
"x  c #712340",
"c  c #793840",
"v  c #3F4141",
"b  c #3F4B57",
"n  c #3F4B5A",
"m  c #434343",
"M  c #494546",
"N  c #464846",
"B  c #4A4947",
"V  c #454648",
"C  c #494749",
"Z  c #4C4C4C",
"A  c #454949",
"S  c #514E4E",
"D  c #574545",
"F  c #4E504E",
"G  c #51514E",
"H  c #414B57",
"J  c #4E4E50",
"K  c #414B59",
"L  c #514E51",
"P  c #4F5150",
"I  c #535454",
"U  c #565855",
"Y  c #595957",
"T  c #565659",
"R  c #5B5B5B",
"E  c #585758",
"W  c #674947",
"Q  c #744A4B",
"!  c #665C5B",
"~  c #725352",
"^  c #704F50",
"/  c #5E605F",
"(  c #61615F",
")  c #5F5E60",
"_  c #636363",
"`  c #696969",
"'  c #696768",
"]  c #801E1F",
"[  c #AE1C1B",
"{  c #AA1817",
"}  c #B01C1D",
"|  c #B0171A",
" . c #B3201F",
".. c #861E2D",
"X. c #891F2E",
"o. c #831F22",
"O. c #891F31",
"+. c #861E32",
"@. c #B41F21",
"#. c #832525",
"$. c #8B2524",
"%. c #85222C",
"&. c #8A222C",
"*. c #842A2B",
"=. c #8B2C2C",
"-. c #862926",
";. c #932C2C",
":. c #9A2F2F",
">. c #853925",
",. c #8A312F",
"<. c #893D2B",
"1. c #9A312E",
"2. c #872031",
"3. c #8A2232",
"4. c #842E31",
"5. c #932F30",
"6. c #843533",
"7. c #8D3433",
"8. c #8C3B3C",
"9. c #873739",
"0. c #943433",
"q. c #9B3233",
"w. c #943A3B",
"e. c #96353A",
"r. c #B52323",
"t. c #B82526",
"y. c #A6233D",
"u. c #A9243E",
"i. c #A2393A",
"p. c #CC2435",
"a. c #A54E38",
"s. c #A8513A",
"d. c #9C3843",
"f. c #AA2541",
"g. c #AC2843",
"h. c #A62441",
"j. c #A52C5E",
"k. c #A92A5D",
"l. c #B02741",
"z. c #A52C61",
"x. c #A82C60",
"c. c #CF3E5A",
"v. c #D13E5A",
"b. c #D13D57",
"n. c #9F6F49",
"m. c #9F6F47",
"M. c #9E714B",
"N. c #A16F4B",
"B. c #A1704B",
"V. c #BE6753",
"C. c #CF405B",
"Z. c #D2415C",
"A. c #DE4F7B",
"S. c #DF5176",
"D. c #DF5179",
"F. c #DD556D",
"G. c #E14F76",
"H. c #E24F79",
"J. c #E15077",
"K. c #E2507A",
"L. c #CD6C66",
"P. c #C46954",
"I. c #CD9F7D",
"U. c #D09F7E",
"Y. c #CDA07E",
"T. c #D0A07C",
"R. c #63718C",
"E. c #646F8B",
"W. c #FB77A6",
"Q. c #FB79A6",
"!. c #FB79A9",
"~. c #F77AA4",
"^. c #9AA4B5",
"/. c #9AA4B9",
"(. c #CE9F81",
"). c #CFA182",
"_. c #EBC9B6",
"`. c #EBC9B9",
"'. c #EDC7BA",
"]. c #FDEAD6",
"[. c #FDE9D9",
"{. c #FDE7D9",
"}. c #FCFCFC",
/* pixels */
"m m v ; m ; m N m z ; m m m m m m m N V m B Z Z Z E E I E T I B N I S I E E E Z I M z v 8 *.e g.F.v.=.C N ; ; ; N N B V ; * m z ",
"; ; ; m v ; ; ; ; ; ; ; ; - ; ; ; 5 g z ; N F I E E R Z W w.7.*.$.*.,.7.7.w.~ I Z W =.#.#.%.h.c.v.u.e z ; m Z E J Z Z Z m ; ; ; ",
"; = ; % * & % $ # ; ; ; ; ; l ; ; V m 5 m m B Z Z W 6.0.=.%.3.3.2.2.O.O.3.2.7.=.*.*.3.2.y.u.y.y.+.r 6 5 l ; v ; ; ; # % # + + + ",
"v m m m m m 5 m V m m z m g V N B m V N N N ; 8 #.*.+.%.+.u.j.j.z.t y t z.u.y...%.X.y.x.j.j.&.$.#.#.9 ; - $ * # + @ + + + + + + ",
"m N m m N m m ; m m V m m m m B V z 5 l m m 9 *.3...O.j.H.D.D.D.j.z.j.D.H.K.J.K.H.A.z.t t y ..%.+.X.#.7 % ; # # # + + # + + + + ",
"; ; m z z ; f ; ; ; 6 e $.$.e e e 6 m l ; 9 *.3.O.j.H.H.J.K.j.j.K.Q.Q.!.K.G.Q.!.S.D.G.H.z.t y x.z.b.h.r 7 - # ; % ; ; % # + # + ",
"m ; ; ; ; ; ; = 7 r $.h.c.C.y.u.y.r e 6 9 *.+.&.j.D.Q.Q.K.K.W.Q.!.!.Q.Q.!.W.D.Q.Q.j.K.W.H.H.y y y y v.h.e ; f ; ; * % * @ # # @ ",
"; ; ; $ = ; $ 7 q y.b.b.y y y j.u.u.y.e *.3.%.j.K.Q.Q.D.Q.Q.!.Q.!.K.Q.Q.Q.Q.!.~.!.H.j.J.!.W.A.y j.H.H.X.#.9 ; ; + # # # # # # + ",
"% $ ; % * * # r y.b.j.y y y t y y t u.y.O...y K.W.Q.H.Q.Q.~.Q.Q.H.j.Q.Q.!.Q.Q.K.Q.Q.H.j.Q.!.Q.j.t x.y y.%.#.; ; = % ; = % # # % ",
"- % * ; ; ; 6 e y.!.K.x.t y y t y z.G.z.y y x.W.Q.W.W.!.Q.!.Q.K.x.j.Q.Q.~.Q.~.x.Q.Q.!.j.K.Q.Q.H.j.y j.H.h.e ; ; ; ; ; % # @ % = ",
"# # # % % ; e y.v.Q.Q.!.Q.H.H.G.A.G.j.y t y H.Q.Q.Q.!.Q.Q.Q.K.j.B.x.H.Q.Q.!.K.j.K.Q.~.K.j.W.~.Q.K.t z.H.c.=.k B m ; ; * % * = * ",
"m V m B Z C d g.D.!.~.Q.Q.Q.!.H.H.j.j.t t j.Q.Q.Q.W.!.Q.!.K.j.B.I.M.H.!.Q.!.K.j.j.Q.Q.!.z.H.Q.Q.~.z.y H.g.&.e.T ; ; ; % % # @ # ",
"E R E E R E 9.g.j.J.!.Q.H.K.D.J.j.z.y y y H.Q.Q.Q.Q.Q.Q.Q.j.M.Y.Y.Y.j.W.~.Q.D.j.j.Q.Q.~.x.D.D.!.Q.K.y x.y 3.0.F ; ; ; $ % * % @ ",
"E R R E S L 8.y.x.j.x.D.H.A.J.j.j.y y t y Q.Q.!.Q.Q.Q.Q.A.j.y y Y.Y.j.D.!.Q.H.x.N.K.!.Q.D.j.K.Q.Q.Q.j.y j.g.9.E m m ; ; ; = % * ",
"Z Z I P Z Z 9.g.D.z.t x.j.x.j.x.y t y y j.Q.Q.Q.!.!.Q.Q.j.B.Y.x.y I.B.j.Q.Q.K.x.y y !.Q.G.x.J.K.!.!.J.y z.f.8.U Z N N V ; V m ; ",
"I I B Z Z I 0.Z.Q.K.j.y y y y t t y y y j.!.Q.Q.Q.Q.Q.K.x.I.Y.I.Y.y Y.j.K.Q.Q.y Y.x.D.Q.Q.z.K.j.D.!.~.x.t f.*.9 ; % # # # # # @ ",
"P Z Z B V m =.v.!.Q.Q.Q.K.j.j.y y y   y j.!.!.Q.Q.Q.Q.z.N.U.).Y.I.Y.Y.M.z.Q.Q.j.).n.z.Q.!.y K.j.t x.Q.D.j.3.%.r = ; ; % % * # * ",
"l m N V m m =.v.Q.Q.!.Q.Q.J.K.j.y X   X x.Q.~.!.Q.!.Q.j.I.Y.B.B.Y.).I.Y.B.K.Q.x.I.Y.j.D.!.y K.K.j.t j.!.K.y u.r ; = $ % * # # @ ",
"B B B J Z Z 6.g.K.Q.W.K.K.K.z.x.y p.  O x.Q.Q.Q.Q.!.H.M.I.'._._.n.Y.Y.I.I.x.A.I.`.Y.n.x.K.y K.K.z.t y y t y f.e m m f f ; = z ; ",
"V Z C V m V 6.u.y.A.K.K.D.K.x.y t p.    t Q.W.Q.Q.Q.z.M.  X o X _._._.).Y.B.j.  X X N.t x.t H.H.z.y y y k.j.h.-.9 m m 5 ; ; l ; ",
"; ; - * # $ 7 e h.j.z.x.j.z.j.t y p.p.  y D.Q.Q.Q.Q.j.  R.y t y O `.`._.'.Y.. y t R.X t y j.K.D.j.} y x.j.z.f.X.*.; f ; ; ; ; ; ",
"- % $ # # $ # #.c.j.t t y y y y t p.p.X . x.!.Q.Q.A.o ^.}.z.}.y y `._.`._._.N.^.y ^.h y j.j.K.H.y } y y z.z.y ..$.v m m ; l z z ",
"l z m m ; 5 l $.v.!.Q.H.j.j.t t t { p.    j.A.Q.W.z.h }.}.z.y y t _._.`.`._.B.t y }.h y j.x.D.J.t } [ y t x y u.e 9 v m l v ; ; ",
"; ; ; ; ; ; ; w u.!.Q.Q.Q.H.j.y y { p.p.X t H.H.!.j.M.}.}.x.t t x._.[.[.[._.Y.y y }.N.y t x.K.K.y [ #.[ t y j.u.X.*.; 5 5 ; ; ; ",
"N N N z N V m d h.v.Q.Q.D.G.z.t { *.[ p.X o j.K.Q.j.B.Y.}.^.z.x.Y.].[.[.[.[._.).z.U.I.B.y j.K.j.[ e l *.[ M._.t u.*.8 m N m m V ",
"J Z Z L F I I W 9.g.H.K.J.j.j.y  .I 7.r. .X y j.K.j.B.].].[.[.[.[.[.[.[.[.[.].[.[.[.`.B.t j.K.x.} B *.[ h Y.j 3.O.3.*.V N m g ; ",
"J Z I I I U I T 9.f.j.z.z.x.y y } E T I 8.r.y y K.j.B.[.[.[.[.].[.[.].[.[.].].[.[.[.`.n.y y J.y } 4.[ _.Y.h j L.=.-.8 N m g ; ; ",
"S I Z J Z Z I L 7.%.Z.z.y y y r.r.r.t.7.R w.r.y j.j.B.`.[.[.].Y.Y._.[.].[.].[.].{.].I.h { t j.y [ [ M.`.j j T.a.*.m m ; ; ; m ; ",
"S P B J I Z I L W 5.v.Q.H.z.y ]._.j B.r.8.G 6. .t j.h Y._.[.[.Y.}.}.}.}.B.).[.[.[.Y.j | #.[ y y { x.M.Y.h h j >.L.w ; ; ; ; ; l ",
"N N m z N z l m v e y.H.H.j.t B.h j `.].r.7.U w.t.y  .h M.`.[.[._.}.}._.).[.]._.B.X r.r.r.r.} b R.j.j Y.B.j s.P.6.S P Z Z Z V N ",
"% = % * % % * $ * r ..u.j.y [._.T.j B.`.B.r.w.t.r.N.Y.N.K h B._.[.[.[.[.[.`.M.X X j j y b K R.R.R.R.j.B.Y.s.<.0.W R R E I I Z I ",
"; ; ; l ; 5 ; ; ; 9 $.c.A.y [.N.M.j M.Y.Y.t.t.j.M._.].`.).y H j h j h h h y . X M.Y.x.K R.R.R.R.R.R.y <.s.<.0.^ _ R R R R E E E ",
"V m z V m m l m f N *.2.g.j.U.U.B.h B.Y.n.R.^.^.z.Y.[._.Y.K y b t j.y K y K R.B.(.(.z.E.E.R.E.n b c a 3.e.0.Q U E U I P E E I Z ",
"N N m N N N V m N m W ,.u.Z.a.<.j h N.N.x n R.^.R.j._.(.n.R.R.t K z.j.y b R.R.M.N.n.z.n n n H a a a d.w.~ R R Y U E E I I E P Z ",
"% = ; ; ; $ = ; = $ $ 7 r f.%.V.a.h j z.n n b R.E.y n.n.b R.^.^.^.A.R.H./.^.R.a.>.>.%.s p p p p q a / / R R E U E I I I I I P F ",
"# ; ; ; ; % ; = % ; % % 7 q 7 r ..O.y.b K n n n p +.>.p b R.^.^.^.K.G.H././.e.>., , , q 0 0 0 0 : v U P T I I I I I F I P B Z I ",
"= # $ % $ ; % # # # # * ; ; ; 9 r #.p p p n p u p ] o.s p b R.^.^.H.A.A.^.E.u , 4 # % # % * # # @ N R E U U I I E T E I I Z Z Z ",
"# % = * * # % # # # # # * % # % 5 7 w r p p p 0 0 $ 7 0 p n n H R.G.H z.b n p 0 $ % $ # ; $ % # @ m R U U U E E I I I I I I Z J ",
"% $ ; % % # % ; ; $ - ; ; m v m N B N M e w e 6 5 ; ; w p b H H K j.j.j.K K e.p e V m V B V N m v N I G Z J C B B N N B Z Z B B ",
"m l ; ; m ; m f 5 V N N m B C N z V m g V m N B C m m u p R.K H K z.z.j.n R.R.p u D B Z B C A Z Z N m m 5 5 f m m m l v l ; ; ; ",
"N m N N N N V 5 N N m m V m m N B N B N N N V m m N 6 s p R.R.R.R.R.D.R.x.R.R.e.p s D N N B B m V B N V V V N v ; m l l m ; ; ; ",
"; l ; m z ; f z v ; ; ; m 5 m m V ; m ; ; l z ; f v d p e./.^./.R.R.J.H.G.R./.^.d.p 9.S F I I I L J S Z B B V N N m Z N m m N m ",
"m m ; ; v m m m v m m m m ; ; ; 5 m m m f m m ; f m w p R././.^.^.^.j.H.K.j.^.^.^.d.a :.Q I S I I I I I L Z B Z B B B Z C B B N ",
"E I E I I S Z I I E U E R I I I E R E R E E E R E E q.3 K R.^./.^.^.^.H.R.H./.^.R.b 3 2 q.7.^ I I I I E I Z I S Z J I J I Z Z Z ",
"I I I E E E P E E E P E R E R R R R U R R E U T I P 1.2 X X o n R.R.H j.H.H.b X   o o g.l.3.e.W E I I S T R E Z Z E I J V B Z B ",
"I Z Z Z I I I Z I U T F P R E I R E E E Z I E I U I :.2 . X X X . X   X X X   X X D.W.Q.K.g.3.7.I I E F I E I J I Z J B Z Z Z V ",
"Z Z N Z I Z N Z I I E Z I E U E E E U T E I I E E Q 1.3       X o X X X X X   X G.x.M._.`.I.<.0.D I I F I I F J I I I I L Z Z Z ",
"Z P I E I Z I I P P I I E P I I I I Z F I Z I I F ;.3 2 X X     X X o X X   X y j.B.)._._.`.g.l.8.I I G L P I Z B B Z Z N N m V ",
"J Z I Z Z Z Z Z Z I Z L Z F Z J Z Z Z Z Z J Z Z Z =.3.o X X X     X . X t z.Z.g.<.<.s.a.Y.z.o 1 q.Q Z I Z N Z Z N V B V B m ; ; ",
"Z Z B I Z Z Z F F E I I E I I I P Z P Z Z I Z N Z 0.Z.z.y   X X X y D.W.S.Z.f.6.;.;.=.<.f.    2 3 ;.Z B J Z N C B Z B C Z l # ; ",
"Z Z Z P Z I J P Z P Z Z Z I I G I I I I I F Z Z Z ,.3.D.j.J.Q.Q.!.H.g.3.2.;.6.D Z F Q 5.f.3 X   2 q.S F I L F B C N V Z N ; % ; ",
"I Z L I E E I I I Z I R R I I E E I E R E I E E I 0.Z.t y j N.M.3.3.3.7.8.W R R / / R ! i.3   . 4 q.Q U E U T I I I Z Z J ; ; ; ",
"B Z Z Z Z Z B Z Z E I E I Z Z I Z Z Z Z Z Z B B Z =.Z.x H._._.I.s.=.5.k B B B Z Z Z B J :.< .   1 1 ;.N N N B V N N m v z ; = % ",
"% ; ; ; ; % = - f m ; 5 m m v ; m 5 m g m m l m m $.v.y K.).'._.y.d m v m m m ; m N N m $.>       < $.9 f l ; ; ; ; ; z ; ; ; ; ",
"; * ; ; ; ; = ; ; ; ; m ; m N N V m B N N N N N M ;.C.%.H.z.J.D.< ;.m m m 5 z N N N V N ;.1   o   < O.$.f l f z z ; m ; ; ; ; ; ",
"m l ; ; ; ; ; ; N N m V N m l 5 V z ; l m ; m m z 9 $.v.b.<   X < $.9 ; ; m ; z ; m v ; e f.< X X < ..#.; ; ; ; ; ; ; * ; % ; ; ",
"- ; % ; ; ; m ; ; ; ; ; ; - - - % ; ; ; ; ; ; v l m 9 #.$.2 X   < < $.g m g m ; g V V m 6 d f.v.v.y.*.9 ; v l ; ; z ; ; ; ; = % ",
"U E E E R R R R L Z E T / E I I I R E E E I I E I E E E :.1 X     1 q.Q E E E U B = ; 5 5 D e $.=.e 6 f g ; ; ; ; ; ; ; ; % * % ",
"_ _ _ ' ` ` _ _ ` ` ! _ ` ` R _ ` ` _ _ ' _ ` ` ` _ _ ` i.4 o X X 3 3 i._ R ) ' J ; l B m m m f m g z m N z m v m ; ; ; ; ; ; = ",
"R R R E E R R R _ _ R _ ' _ _ R R _ ` _ / _ _ _ _ R ! ( i.3   O     2 q.~ E R R Z ; f m ; f ; ; ; ; l m ; z ; m ; ; ; ; = = % % ",
"' _ R R R R ) _ _ _ _ ' ` _ _ _ _ _ _ R R _ _ R _ _ R ) i.4 .   X o 3 4 i.( ( ` J ; v ; ; g m m m m V ; g m v m z m ; z l ; % % ",
"R R E E U _ _ R ) R R I _ R R _ _ R R T R _ _ _ _ _ _ _ i.4 . X X X X 3.q.R / _ Z z m N N N m m m m m V m ; z ; ; ; ; ; ; # % = ",
"v m m m m m m m m ; ; % ; ; f v m m m ; m m m m f m g m &.%.<   X + 2 b.&.; g l m m 5 v 5 m m v ; m ; ; m ; ; ; * % * % # # # * ",
"m N m v l ; ; ; ; m m m m ; m m ; m m ; m m ; m g m m m 8 *.O.h.y.b.Z.$.8 m m m B m m m m m m ; m 5 m 5 ; ; ; m = ; = % * # # % "
};
