/* XPM */
static char *Layer_41677303405[] = {
/* columns rows colors chars-per-pixel */
"64 64 187 2 ",
"   c #1C1F25",
".  c #1C1F28",
"X  c #1B2025",
"o  c #1B2029",
"O  c #2D2D2D",
"+  c #353535",
"@  c #383636",
"#  c #363836",
"$  c #393836",
"%  c #363639",
"&  c #393639",
"*  c #3C3C3C",
"=  c #373938",
"-  c #323130",
";  c #451E1F",
":  c #7C1E1D",
">  c #461E23",
",  c #481F24",
"<  c #462124",
"1  c #492124",
"2  c #492129",
"3  c #413D3D",
"4  c #4D3A3B",
"5  c #453534",
"6  c #533434",
"7  c #5B3B3B",
"8  c #57393A",
"9  c #49302E",
"0  c #6D2523",
"q  c #6E2729",
"w  c #722525",
"e  c #7B2B2B",
"r  c #792727",
"t  c #6F243B",
"y  c #6F2C33",
"u  c #72233C",
"i  c #752F35",
"p  c #643838",
"a  c #743135",
"s  c #7B3232",
"d  c #75333A",
"f  c #79353C",
"g  c #7A383E",
"h  c #7D302A",
"j  c #3E403D",
"k  c #41413F",
"l  c #744A2E",
"z  c #744A31",
"x  c #3E3E41",
"c  c #413F42",
"v  c #4D3D40",
"b  c #583D42",
"n  c #722341",
"m  c #7C3A41",
"M  c #7B3741",
"N  c #693F40",
"B  c #3F4141",
"V  c #3F4B56",
"C  c #3F4B59",
"Z  c #434343",
"A  c #464846",
"S  c #494946",
"D  c #464649",
"F  c #494649",
"G  c #474A4A",
"H  c #4C4C4C",
"J  c #494545",
"K  c #524E4E",
"L  c #584747",
"P  c #4E504E",
"I  c #51514F",
"U  c #414B56",
"Y  c #4E4E50",
"T  c #414A5A",
"R  c #524F50",
"E  c #4F5052",
"W  c #545454",
"Q  c #595957",
"!  c #565658",
"~  c #585659",
"^  c #5B5B5B",
"/  c #565856",
"(  c #634543",
")  c #6B4748",
"_  c #76484A",
"`  c #615051",
"'  c #795255",
"]  c #644E50",
"[  c #60625F",
"{  c #5E5E61",
"}  c #615F63",
"|  c #5F6160",
" . c #636363",
".. c #696969",
"X. c #686767",
"o. c #AC191B",
"O. c #AD1618",
"+. c #B11D1D",
"@. c #81221C",
"#. c #B4221F",
"$. c #871E2E",
"%. c #891F2E",
"&. c #861F30",
"*. c #881F31",
"=. c #822525",
"-. c #8B2525",
";. c #85232C",
":. c #89222D",
">. c #852A2A",
",. c #8B2B2B",
"<. c #882827",
"1. c #932C2C",
"2. c #932B2A",
"3. c #88382A",
"4. c #872132",
"5. c #8B2232",
"6. c #882F30",
"7. c #8D3333",
"8. c #873938",
"9. c #933333",
"0. c #9B3334",
"q. c #943A3A",
"w. c #98363A",
"e. c #97302F",
"r. c #B52323",
"t. c #B92625",
"y. c #A6223D",
"u. c #A9243E",
"i. c #A33A39",
"p. c #CC2435",
"a. c #CC2539",
"s. c #84403F",
"d. c #A54E37",
"f. c #A9513B",
"g. c #A7513A",
"h. c #9C3841",
"j. c #AA2542",
"k. c #AA2642",
"l. c #A52C5E",
"z. c #A03D42",
"x. c #A52C61",
"c. c #A82B63",
"v. c #CF3F59",
"b. c #D23E5B",
"n. c #D03E55",
"m. c #8C4242",
"M. c #9F6F4B",
"N. c #9E714B",
"B. c #A16F4A",
"V. c #A1704B",
"C. c #A07147",
"Z. c #BF6653",
"A. c #D2415C",
"S. c #D24357",
"D. c #C26956",
"F. c #DC526E",
"G. c #DE4F7A",
"H. c #DF5176",
"J. c #DF5179",
"K. c #E24F7A",
"L. c #E04F76",
"P. c #E15176",
"I. c #E1507A",
"U. c #CA6C64",
"Y. c #CE7269",
"T. c #D27570",
"R. c #CD9F7E",
"E. c #D09F7E",
"W. c #CDA07E",
"Q. c #D0A07D",
"!. c #656F8D",
"~. c #63718C",
"^. c #637090",
"/. c #FB79A6",
"(. c #FC79A9",
"). c #FC77A7",
"_. c #9AA4B6",
"`. c #9AA4B9",
"'. c #CE9F81",
"]. c #CEA180",
"[. c #D1A080",
"{. c #EBC9B6",
"}. c #EBC9B8",
"|. c #EBC7B7",
" X c #FCEAD6",
".X c #FDE9D9",
"XX c #FEE7D8",
/* pixels */
"Z Z * Z Z Z Z Z Z Z * Z Z Z Z B Z Z J D Z F H H H ! ! W Q ~ I S D R R W W Q W K W F j >.4.<.7 <.j.).v.:.Z k * j D D G A * @ B Z ",
"* * Z * * * * * * * * * * * * x * * k j x J Y W W Q ^ H Y Q W 7 >.<.6.7.q.q.q.7.7.( H 6 r =.>.*.j.b.u.e c Z F ! H H H H Z * * * ",
"* * @ = % = @ @ @ * * * * * * * * D Z c Z D S H R E W P L 9.,.6.4.*.:.:.*.:.5.:.%.>.<.>.=.%.&.u.u.:.>.5 * * * * * * @ @ + O O O ",
"* Z Z Z Z B B Z Z Z Z Z Z Z J F F D D D F k j Z B Z 7 <.>.:.:.$.j.l.l.l.u u u x.j.u.4.*.&.j.l.l.;.=.6 * @ * & + - O O O O O O O ",
"Z D B Z D Z Z * Z D Z D Z D Z G D c * c Z Z Z k B 8 =.4.:.&.l.P.K.K.P.l.c.x.K.K.K.K.I.L.I.x.u u &.>.r r r 6 + + - + - - O O O O ",
"* * Z Z 3 * B * * * Z c 4 r <.<.<.<.s r 5 3 c Z 7 >.&.$.x.K.I.P.J.L.l.K.(././.(.H.(./.K.J.I.I.l.$.$.y.j.$.r 6 & % = % + + O + O ",
"Z * * * * * * * * * * 9 w y.n.b.v.v.u.y.e >.7 8 >.*.:.l.I.J.(./.L.l././.(./.(././.K./.(.J.x.K./.L.u t u y.*.<.c * = @ @ + + + - ",
"* * * @ = * @ @ @ + 5 w y.F.l.t u u x.j.j.5.>.<.:.*.x.I././.(.K.I./.(.(.L.)./././././././.P.x.I./.J.u l.L.u.>.9 - + + + + + - O ",
"+ @ * @ @ = @ @ @ % w y.F./.H.l.u u u t l.y.4.4.&.t H././././.I.(./././.l./.(./././.I.(././.I.l./.(.x.t K.u.%.r @ % * = @ + + + ",
"* @ = * * * x * * * e u.)./.(./.I.x.t u u x.t u u l.(./.).)./././.(.(.P.l.(./.(.(./.l././.(./.l.I./.I.u u u u.r * * * @ # - % = ",
"+ - + @ @ * * * & 5 w u.I././././.(.J.I.x.x.u u u K./.)./.(././././.I.l.l./././././.l.J.)./.(.K.x././.x.u x.A.2.B * = % + % * + ",
"Z A Z G H D G H H 8.u.u.l.I./././.J.I.I.l.x.u u l.(././././.).(./.I.l.N.x././././.J.N.x./.(././.l././.J.t x.A.0.8 * * & % + + - ",
"^ ! ! ! ^ / W W Q s.k.P.l.x.G.K.I.K.l.l.l.u u u l.(./././.)././.I.x.W.W.l.I./././.x.W.x.(./././.l.I././.l.u k.5.r * * = + # + - ",
"! ^ ^ Q H W W P I 0.A.(.K.l.u t x.l.l.u t u u t L.)./././././.L.l.'.Q.W.x.H.(././.x.E.N.J.(././.x.I././.K.x.u 5.<.B x x * = & = ",
"G H W W H H W W ( q.F.(.)./.L.l.t u u u u u t u /.(./././././.l.W.u u W.M.K./././.V.].C.l.(././.l.P.J././.I.u 5.6.D D Z B Z B * ",
"W W G H I W W P 8.k.P.(./././.(.K.G.x.u t u t x././.(./.(./.K.].R.R.l.u ].I.)./.I.R.].t u K././.l.I.l.J./.(.l.:.=.@ - + + @ - + ",
"W G H G S J D F 6.k.J.H././.K.I.P.x.l.u n X u x.(././././.(.l.Q.W.W.W.Q.u l./.(.I.W.u W.B.x./.I.l.P.I.u x.K./.$.r * * = @ + = % ",
"3 Z D D Z k Z D e j.x.x.J.I.K.G.I.x.u n X X X l./.(./././.I.N.'.W.'.W.W.W.l././.x.E.W.W.W.l.J.I.u I.K.l.u x.I.$.r @ @ & @ + + - ",
"S S G H P K I H ,.A.x.u u l.l.x.l.u t u a.X X x././././.(.l.V.R.W.B.N.].].W.P.(.l.E.N.Q.[.u L.x.u K.I.c.u u j.u.>.Z j j * * * * ",
"G H J D k Z Z L >.F./.L.l.u u t u u u u p.X X t /./.(./.(.l.R.].E.{.}.V.W.[.l./.W.V.'.W.'.l x.u l.K.J.l.u t *.<.4 Z 3 c * * j = ",
"* * = & # = = r u.F./.(./.K.I.x.u t u +.p.p.X u I./././.K.C.W.].{.{.}.}.|.W.x.I.R.{.|.{.W.C.t t x.I.P.u u l.&.r * * * * * * * * ",
"* @ $ % @ @ = w y.I././.I.I.l.u u u u o.p.p.X X l././.(.l.N.E.[.W.R.}.}.{.{.[.l.{.{.|.W.W.N.z u x.J.I.t u u.&.<.Z Z k B x * B * ",
"j * Z * Z x * e u.x.K.K.I.x.u u u u o.r O.p.X o l.I././.x.R.V.    X X C.|.{.}.{.}.].X X   z N.u x.L.x.u t %.<.8 3 * D k x B * * ",
"* * * * * * 6 <.b.x.l.x.l.x.u t t O.>.$ +.p.p.X u K.(./.x.W.X   X X o . N.{..X.X{.  .   o o C.u x.P.u u x.4.>.Z Z B * j 3 j * * ",
"F A Z Z p <.>.5.F./.I.P.x.u u u o.o.>.Z e +.p.X X l.I.(.x.|..X.X.X.X.X.X X.X.X.X.X X.X.XXX].V.u l.x.n l.l.4.6.G D S A Z Z D k Z ",
"Y Y E H 9.A.k.5.l.I.P.l.n 5.4.D. X{.r.8.W q.t.X o u H./.u .X.X.X X.X.X.X.X.X.X X X X X XXX{.V.u l.l.u x.u.5.,.p ,.6.s Z A B Z B ",
"K H I W 7.5.k.K.u l.x.5.5.5.9.T.{.V.l +.t.7.q.r.X X x.I.u {..X.X.X.X.X.X.X.X X.X.X.X X.X.X|.N.u l.u u u 5.>.>.<.3.Z.U.s c Z * * ",
"H W H H ( 7.5.u.l.4.:.5.7.9.7.f.l z B.{. Xt.~ 8.r.r.u l.u C..X.X.X.X.X.X.X.X X.X.XXX.X.X.XW.z u l.u t l.;.>.d.U.Z.z 3.=.3 k k * ",
"W E G H I ( 7.5.5.5.7.7.] Q z T.{.E.z z  X#.H W W q.r.u u z W. X X.X.Xp.a.p.p.p.].XX.X.XW.z o.t u o.t l.O.$.U.N.{.N.Z.U.q $ * c ",
"G k D Z D Z 8 >.>.>.7 D Z Z y Y.}.Q.l B.R.r.r.r.8.q.#.#.t t.z B.{..X X.Xp.p.p.R..X X{.B.  r.6.+.u +.t u U l.W.z z z d.6.K K Z D ",
"@ * @ $ + @ + @ = # @ $ + $ w U.d.l l N.u ~.~.C r.r.~.c.E.R.B.V z B.R.{..XXX XXX{.N.  o t.t.t.t.t.U U !.~.l.C.l z W.Y.m.Q W W I ",
"* = = * * B * * * * = * k * 3 r D.f.C.x.~._._._._.`._.~.l..X{.W.t T z z z l z l t X X B.R.x.U T ~.~.~.~.~.u l C.s.D.Y.m.Q W ! / ",
"Z k Z Z Z k B B Z D G A H G S b 6.5.k.C U T ~._._._.~.!.l..X}.R.C n C u l.u T u V ~.M.R.R.l.~.~.~.~.~.~.~.T n f.f.7.8.I ! Q W H ",
"S D Z D D D D Z Z J G H H H P H ( q.m m V T U C C V C C u {.R.M.~.~.u T l.l.u V ~.!.M.R.].l.~.~.~.~.~.C m m m 5.q.] Q W W Q E H ",
"$ * * * * @ * * @ = = = * $ 3 B * 4 r a d d T T V f f d &.3.d.C ~._._._.I.~.P._._.~.M.M.C.l.T C C C M M m m.s.w.) W W W W W R Y ",
"+ * * * * = * = @ * @ @ $ * * * - % 3 0 0 d i a a a 0 0 : : y C ~._._._.I.K.K._.`.9.3.3.3.y.a a y f M 8.8.L W W / W P W R G P I ",
"* + @ + @ = @ + + + @ @ = = * = + * * % 5 0 0 0 0 q & @ - q d d U ~._.~.K.I.H.`.~.i : =.@.w 0 w 0 e m.W Q W W W ! ! W I H H H H ",
"+ + = @ @ + % + @ - + + + @ = = * * * * $ # + + % + + - - 9 0 i C T T V x.V x.C C i q 5 @ * @ + - Z { Q ~ Q Q W W ! Q W W W Y W ",
"@ @ % = @ + @ * * * * * * k Z Z D F Z D D 3 c Z k * * 3 * j h d T ~.T T x.l.x.T ~.h.d s H D Z Z B A W R H H S F H Z Z G H H G F ",
"Z Z * * Z x B k * Z D D D J D D Z Z Z k D Z D J J Z Z D k Z g d ~.!.~.~.l.l.H.~.~.~.f s L G F H H D Z Z j c Z k D j k Z * = * * ",
"D Z D D Z D Z Z D Z Z Z D Z Z D A D D D D D Z Z D Z Z Z Z * s f ~.~.!.~.~.K.~.I.~.~.w.f s L G Z D J J G D D Z Z j Z Z 3 Z * * * ",
"* j x Z k * k k c * * * Z k Z B Z k Z * * k k k c Z Z A Z L 8.f ~._._.~.~.K.J.K._._._.h.f 8.W W H Y W G H G J D D Z F G Z Z Z Z ",
"Z Z Z * Z Z Z Z Z Z Z D k Z * * * Z Z D Z D k * k Z 3 Z * y g z._._._._._.K.I.K.l._.`._.h.f e.) W I W W K H F H G G S H G G G J ",
"W W W W W H H W W Q W Q Q W W W Q ^ Q ^ Q W ! Q ! ! W I / 8.g ~._._.`._.`.l.I.P.J._._.~.T , , e.0.) Q / I H W W H K W H W H H H ",
"W W W W W W W W / W W W ^ Q ^ ^ ^ { Q ^ ! Q Q ! W W W W ~ 0., T ~._._._._.`.P.~.K.C   X X X , A.S.9.) P ~ Q ! H H W W I G J G H ",
"W H E H W W W W W W W W W ^ ! W Q W ! W H W W W W R W W _ 0.1 . X X T ~.~.U l.I.    . X o X K.H.5.5.q.( W Q W E W K K G K H H D ",
"H H G K W H D H W W ! H E Q ! Q Q Q W Q W W W W Q ^ Q ~ e., , X   X X   X o X X     X   X t G.l.Q.Y.d.7.] K Y R W W I W W H H H ",
"H I W W W H I W E W W W W W W W W ! H W W W W W H H W N 1., . X X X X o X .   X . X   X t G.l.W.|.}.D.k.2.) W H G G H H D Z Z J ",
"R H W H H H H H H W H E H W H H H H H H H H H H R H Y 2., , X   X o X X X X X X X o u A.A.k.3.g.f.Q.I.< ; 2.H H D J J D D k * * ",
"H H G E K G H E W W W W W W W W E H W H H W H G H R H 6.5././.I.l.X . X X X X X u k.k.5.1.6.9.7.k.A.X o , 2.S G G H H G H k + * ",
"H H K P Y W R H H W H H E W W R W W W W W W H H Y H H 7.4.l.t l.(./.I.l.t u u k.j.4.7.7.) E H ) e.< o X < e.K H S J D H D * @ * ",
"Y H W W Q W W W I H W Q Q W W W ^ W W Q W W W W W Q ] 8.k.t u u u c.A.S.A.k.5.5.w.q.' [ [ ^ ^ i.2 2 X X 1 1._ ! W W H H H * * * ",
"G H H H H H G H H W W W W W H H H H H H K H G H H p ,.k.5.u K.M.C.B.3.,.,.6.6.7.( P H P H I H e.<     X > > -.J J G Z Z Z * @ @ ",
"@ * * * % @ * = x Z k k Z Z * B k k k Z Z Z * Z A <.n.%.$.b.D.{.{.D.3.-.k Z B j Z Z Z D j * c -.> X X   X > -.c * = * x = Z * * ",
"* * * * * * * * * * * Z Z B D D D D S D D Z D Z A -.b.b.b.,.j.{.R.d.,.p Z Z Z D Z D A S D D D -.> X X   X > <.c Z * Z * * * * * ",
"Z * * * = * 3 * D D Z D Z Z 3 k Z Z * * Z k Z Z B 7 <.<.<.-., L.L.j.h * = Z * * Z 3 Z x Z Z = r y.> X X > :.r & * * * = * @ * = ",
"* * = * * B D * * * * * j = = = % * * * * * * x j B Z B 3 <.> X X ; -.6 Z Z 3 Z 3 Z D Z k D k b e j.A.v.y.>.6 * * * * * * * @ @ ",
"~ Q W W ^ Q Q W H I ^ ^ { ! W W W Q W Q Q W W W W / W ! W 0.2 X . , < 0.Q ! ! Q D * * Z Z Z Z c v r <.<.r 4 * * * * * * * * @ @ ",
"X. .X.X.....X. ..... .X.....^  ..... .X...........X.......i.1 X .   1 i.m.` ^ X.R * Z Z k Z k B Z k Z Z J c Z Z Z c = * = * = * ",
"Q ^ { Q W Q ~  .[  .^ ` X. .{ | ^ | X. . .{  .X. .{ ` } ' 0.1 X o X < 1 m.W ^ ^ G * j Z * c * * * * 3 * B c = Z * * * * * = @ + ",
"X. .^ Q Q | ^ ^  .X. ..... .{ X.X.^  .| Q  . .^ | [ Q } i.1 <   X . o 2 z.{ { X.I * * Z Z k Z 3 c B Z Z k Z c Z B Z B B x * % @ ",
"^ ^ ! ! Q X. .{ [ ^ ! W [ | ^ [  .^ ^ Q ^  .X. .X. . .X.i.1 X X X X o 4.d.{ {  .H k D Z Z Z D D Z D k D Z * c * * * * = = @ @ = ",
"j Z D Z Z * Z Z x * * @ * 3 * Z Z Z Z * Z Z Z Z B Z j D 2.> X . X X > k.r * x j k Z * k * Z Z c x B * * k * * * @ @ @ + + + + % ",
"Z D Z k * * Z * * Z Z B Z * Z Z * c Z * Z Z * Z c k Z x >.*.j.b.v.A.j.h b Z c D D D Z D Z Z Z * Z c Z * Z * * x * = * + @ + + = "
};
