/* XPM */
static char *Layer_71677303406[] = {
/* columns rows colors chars-per-pixel */
"64 64 194 2 ",
"   c #1C1F25",
".  c #1B1F28",
"X  c #1B2026",
"o  c #1B2029",
"O  c #172127",
"+  c #2C2C2C",
"@  c #302E2F",
"#  c #35312F",
"$  c #2E2F31",
"%  c #2F3131",
"&  c #353535",
"*  c #393536",
"=  c #363837",
"-  c #393937",
";  c #363639",
":  c #393739",
">  c #3C3C3C",
",  c #373939",
"<  c #31302F",
"1  c #451F1F",
"2  c #7B1E1D",
"3  c #651E1A",
"4  c #7D211F",
"5  c #69221E",
"6  c #461E24",
"7  c #481F23",
"8  c #462123",
"9  c #492125",
"0  c #49252A",
"q  c #55312F",
"w  c #413D3E",
"e  c #4A3839",
"r  c #533534",
"t  c #563936",
"y  c #5A3B3B",
"u  c #573637",
"i  c #562F30",
"p  c #6C2222",
"a  c #722424",
"s  c #7D2222",
"d  c #7B2C2B",
"f  c #75282A",
"g  c #6F243C",
"h  c #72233C",
"j  c #782F35",
"k  c #643C3B",
"l  c #7D3131",
"z  c #76333A",
"x  c #7A353D",
"c  c #7C393D",
"v  c #743236",
"b  c #3E403E",
"n  c #41413E",
"m  c #4E403F",
"M  c #53413F",
"N  c #744A2E",
"B  c #744930",
"V  c #3E3E41",
"C  c #413F41",
"Z  c #4E3E41",
"A  c #543F41",
"S  c #722340",
"D  c #7D3841",
"F  c #7B3541",
"G  c #633F41",
"H  c #3F4141",
"J  c #3F4B57",
"K  c #3F4B59",
"L  c #434343",
"P  c #484646",
"I  c #464846",
"U  c #494947",
"Y  c #464649",
"T  c #4D4D4D",
"R  c #484849",
"E  c #514E4E",
"W  c #594649",
"Q  c #4E514D",
"!  c #50504E",
"~  c #4E4E50",
"^  c #414B5A",
"/  c #414C56",
"(  c #514F51",
")  c #4F5151",
"_  c #545453",
"`  c #5A5656",
"'  c #595A56",
"]  c #565659",
"[  c #5B5B5B",
"{  c #585859",
"}  c #674545",
"|  c #734847",
" . c #635758",
".. c #60615F",
"X. c #5D5E60",
"o. c #615F60",
"O. c #636363",
"+. c #696969",
"@. c #686868",
"#. c #821E1F",
"$. c #9C1F1D",
"%. c #B21D1E",
"&. c #AC1719",
"*. c #8E201E",
"=. c #861E2E",
"-. c #891F2E",
";. c #881F30",
":. c #861F31",
">. c #832525",
",. c #8C2525",
"<. c #86212E",
"1. c #8A212E",
"2. c #852A2A",
"3. c #8C2D2C",
"4. c #862927",
"5. c #922C2C",
"6. c #942625",
"7. c #893C2B",
"8. c #88362A",
"9. c #98312F",
"0. c #872031",
"q. c #8A2232",
"w. c #872F30",
"e. c #982F31",
"r. c #823433",
"t. c #8D3333",
"y. c #873A3A",
"u. c #923534",
"i. c #9B3333",
"p. c #943539",
"a. c #973A3A",
"s. c #B52323",
"d. c #B82424",
"f. c #A6233E",
"g. c #A9233E",
"h. c #A23334",
"j. c #B2211E",
"k. c #CA2333",
"l. c #8C413D",
"z. c #A54E37",
"x. c #A9513B",
"c. c #983740",
"v. c #AA2541",
"b. c #A92742",
"n. c #A52C5E",
"m. c #A52C61",
"M. c #A82C61",
"N. c #CE3E5A",
"B. c #CE3E57",
"V. c #D13D5A",
"C. c #8C4243",
"Z. c #8A4D50",
"A. c #9F6F4A",
"S. c #9E714B",
"D. c #A16F4B",
"F. c #A0704B",
"G. c #A17047",
"H. c #BF6855",
"J. c #D2415C",
"K. c #CF405C",
"L. c #C36957",
"P. c #DE4F7B",
"I. c #DF517A",
"U. c #DE5374",
"Y. c #DC546F",
"T. c #E24F76",
"R. c #E14F79",
"E. c #E15076",
"W. c #E2507A",
"Q. c #CC6E67",
"!. c #CF726A",
"~. c #CE9F7D",
"^. c #D09F7F",
"/. c #CDA07E",
"(. c #D0A07C",
"). c #646F8C",
"_. c #63718C",
"`. c #637191",
"'. c #FB77A6",
"]. c #FB79A6",
"[. c #FB79A9",
"{. c #FC77A9",
"}. c #9AA4B5",
"|. c #9AA4B9",
" X c #CF9F81",
".X c #CDA181",
"XX c #D1A081",
"oX c #EBC9B6",
"OX c #EBC9B9",
"+X c #FDE9D6",
"@X c #FDE9D9",
"#X c #FDE7D9",
"$X c #FCFCFD",
"%X c #FAFCF7",
/* pixels */
"L L > L L > L P L L V L L L H b L P P L L R T T T _ ` ] ' _ _ P P _ ) ) ` ' _ ~ _ P H L L H P 2.0.v.g.l P H > C P P U P > = H L ",
"> > L > > w > > > = > > > > > > > w b n > P _ _ _ ' [ T T [ _ R r 2.3.t.p.a.a.t.t.3.} > - r >.4.v.v.;.>.b b U _ E T T T L > : > ",
"> - = ; ; : = = : > > V > > w > w L V > H I R T T T ) T R } 3.t.t.=.-.0.<.<.q.q.q.;.2.2.>.>.q.<.f.=.>.d 2.r b b > , ; = & + + + ",
"C L L L L L > L P b L L L n L W d l l W R L H b C L U y 2.>.0.-.;.b.m.n.n.h g h n.g.g.;.=.=.f.m.g =.v.b.<.#.q < @ + % + + + + + ",
"L P L L P L L C P R L L P M d 3.g.v.b.,.d 2.r Y L > u 2.;.;.;.m.E.E.I.I.n.m.n.W.I.E.E.I.m.n.n.g g g h g g.V.=.0 & < < < + + + + ",
"> > V L V > > > > > > e d f g.B.V.W.B.V.b.;.2.y Y t 2.=.<.m.W.].[.I.n.m.R.].].].].].W.].].I.m.E.n.h h n.T.B.=.=.= > = : = + & % ",
"L > > > > > > > > = e s g.g.V.].n.h h h m.v.;.>.y 2.-.q.T.'.].].W.R.E.].[.].].].[.].].[.E.].].n.'.T.g m.n.S -.4.r = : : # & & % ",
"> > > = - > = = & e f f.g.W.].].E.n.h g h M.f.d >.<.;.E.].[.].].W.].].].'.[.E.].].].].[.E.[.].[.n.'.R.g h n.B.=.2 & & & & & % % ",
"& : ; ; : - : - e p f.B.n.I.].'.].W.n.h h h v.f.<.0.E.'.'.[.].U.[.].].].E.E.m.].[.].].'.m.].].].m.E.].R.S h E.=.4 ; > > & & & & ",
"> = > > - - n e a f.B.].m.m.E.].{.].[.R.n.h m.n.h m.].].].'.[.].[.'.W.E.E.n.m.W.[.].].].m.E.].].R.n.].].R.g n.<.>.r , & & & & ; ",
"& < & = = > w a g.v.'.[.R.h n.E.].].T.P.T.E.n.h h E.].].].].'.].].W.m.m.S.~.S.m.[.[.].E.F.n.'.[.].m.].].].m.h <.=.s > > = ; > = ",
"n P L U T P W r.g.E.'.].'.m.S m.R.R.R.I.n.n.h h g {.].].[.].[.'.E.n.G..X/./..Xm.].].].m./.n.].].[.m.T.].].{.m.h v.a > ; & & $ & ",
"[ { { ` ' { y.v.b.W.].[.].E.h h h n.m.n.n.h h h n.].].].[.'.].R.m.F.~..X~././.n.].].].m./.D.E.[.].M.W.E.'.].E.h g.f > , = & = < ",
"[ ' ` { _ ! y.g.m.m.W.{.].].m.h S h h h h h h h n.].].{.].[.E.m.G.XX/.h h ~..XE.].].].M. XS.E.].'.M.I.W.R.[.].R.=.2.u b > = : = ",
"R T _ ! T W i.J.m.m.E.W.W.[.E.m.h g g h h g h h E.].].].].E.E.G..X/././.m.h ~.E.].[.R.G./.h g '.E.h W.R.m.E.].].J.-.2.y > L w > ",
"_ _ T T ! y.b.Y.n.h M.E.E.W.W.E.n.g h g g h h g P.].[.].{.R.m././..X(..X/./.h n.].[.n.XXg ~.n.].m.h R.E.n.g n.T.Y.V.=.4 & = & @ ",
"Q T T T U l b.[.E.n.h m.m.E.E.m.g h -.-.;.<.o h M.[.].[.W.R.S.~./././.XX/.(./.n.].P.G./././.F.I.n.h P.T.E.S h h =.>.s q & & = ; ",
"V L L P H d b.].[.W.m.h g h n.g q.<.;.2.,.8   X n.].].].R.n.^././.^..XG.S././.m.E.m. X(.S.(./.m.h n.I.T.E.h m.:.-.s > & ; & & @ ",
"U R U T T u.1.R.].].[.I.m.h S -.<.3.2.y $.k.o o h ].].].T.m.(..X/.OXoXOXOXS.~.^.m././.D./././.h h m.E.R.n.g m.g.2.y b n > > b > ",
"U U R P L 4.q.b.R.].[.W.R.m.q.;.>.y P L $.k.k.o h ].].T.E.S./.~./.XX/.oXoXoXoXoX/././.OXoX/./.N h m.W.I.n.h m.g.d n n w > > > > ",
"> V ; = = r >.f.m.E.E.E.n.h =.s q V P H $.k.k.o g E.].T.E./.XXN o X X N /.oXOXoXOXoXoXoX/.X o B h n.W.I.h h g.=.>.V > > > H > > ",
"= = : & ; & 4 =.R.m.h M.n.=.-.>.V V > e $.k.OXo o n.].P.m./.~.    o X X B /.oXOXoXOXoX/.o X X X h n.I.E.h g -.d t H L n > > V > ",
"w w n L > w >.;.Y.R.n.g h <.d u , b C j L.7.@XN X n.R.I.m./..XoXoXoXoX~.O S.oX+X+X#XOX  B G.S.N g m.P.m.h n.Q.f Z V L L > b > b ",
"> > > w > > r >.B.].T.I.;.=.>.> , b u ,.!.B OXN o h P.R.n./.oX@X+X@X@X@X+X+X+X#X@X+X+X@X+XOX/./.h n.T.n.h m.H.Q.d t > > L > > > ",
"Y P L L Y L P l f.E.R.m.q.2.r L L H 3.7.Q.S.XXN G.OXm.R.h D.+X@X+X@X+X#X@X#X#X@X@X@X@X+X+X+XoX/.h n.E.h (.g N H.z.3.M P L L L P ",
"~ T _ E ) _ _ t.q.m.m.b.0.t._ _ ) _ c !.G./.~.S./.OXh n.h S.@X@X+X#X+X+X+X@X@X@X@X@X@X@X@X@XoX^.h n.n.g oXA.N N Q.H.d L P L L > ",
"Q T ~ _ _ ] _ u.q.J.R.v.t.} ` ' _ _ y.L.G..X~.F.OX/.d.g h N oX@X+X#X+X@XOXoX@X@X@X@X@X@X@X@XoXG.h n.h &.oXA.A.N OXL.2.Y L L V > ",
"T E ~ E _ T _ } t.b.M.1.p.) _ _ ` [ u.x.L.~..X/.~.h d.h d.N S.@X+X+X@X@XoX$X$X$X$XoX+X@X@X@X/.N h h g g ~.(.A.N H.z.2.> > > C > ",
"_ ( R T E ! _ ) u.<.J.q.u._ _ ' _ ! } y.x.L.~.D.m.K j.j.u.s.N ~.+X@X@X@X/.$X$X$XS.~.@X@X@X.XN &.g h / n.S./.S.z.8.>.r > > > V > ",
"P L L L P b w L y 2.b.4.t P L C R Q ] } t.q.m.m.K _.^ s.s.d.s.N S.oX@X@X+XOX%X$XOX@X@XoXS.  %.j.g / _._.m.B l.7.5.} ) T ~ T P U ",
"; > & = = = & & & s -.s : ; > = L [ O.[ y.c.k ^ K K _.}.m././.A.K B S./.oX@X#X@X@XoXS.o o N h _._._._._.K q.q.u.| ' { { _ _ T _ ",
"> > > > > V > > > r >.r b > > > L _ ' o...C.D K ^ K _.}._.n.@XOX/.h K N N B B B N h X X /.n._._._._._./ D D a.| ..[ [ ..[ _ { _ ",
"P H L L P > L w H P P R T R Y P Q  .O.[ O.C.D D K / / `.).n.@XoX/./ h K h n.h K S ^ ).D.~.n.K `.)._.^ x F y. ._ _ [ _ _ _ ' _ T ",
"Y P L P P P P L L P R R T T T T ~ { [ [ '  .l.F F ^ J J ^ h oX~.S._._.h ^ n.m.g K )._.A.D.h K ^ K x x c C. .[ ] _ [ _ _ _ [ ( T ",
"; > > > > , > > , > = > > > > L > > > > w n e l z z z x v 0.8.z.^ _.}.}.}.E._.I.}.}.p.8.7.=.v z v F C.l. .o.' _ _ _ _ _ _ _ Q ~ ",
"& > > > > = > ; = > & & > > > > & = - : : : & # p p p p p 4 2 v K _.}.}.}.I.E.E.}.}.p.4 #.2 p p 3 d  ._ _ _ ] _ _ _ _ _ E R T _ ",
", & = = : : = & & = & : > > > = & > > = & = & & & * = = < # a v v ^ _.}.|.E.W.W.}._.v a * & & & % L [ _ [ ] ] ] _ [ _ _ _ T T T ",
"& & > ; = & = & & $ & & = = & & , > > - > ; ; & = & & < & & * a z ^ / ^ _.E.`.M./ K v z f e & & + L [ [ [ _ _ _ _ _ _ _ _ _ T ) ",
": ; = = = = = > > > > > > L H L Y R L R L b L L w > > > > > L l z `.^ ^ ^ m.m.m.^ K _.z z l m L L Y _ ) T T R U T P P R T R R R ",
"L w > > V w L V > L L P Y P R P n L L n P L P Y P L Y L > P E r.z _._._._.n.m.n.K _._._.c.z l W T P L L > V L C L H L L > > > > ",
"P L L P P Y L L P L L L P L L P U U P P P P L L L P L L b b l x c._._.`.`._.n._.n.)._.}.}.p.z l I R P P Y L L H > L L > L H > > ",
"> > L L b > b H H > > > H L b L L V L V > H H H H L L P P P c x _.|.}.}.}.}.E.R.R._.}.|.}._.x 9.} T Q U T R R U P L R R P b L L ",
"P L H > > L C L L L L P L V > > b L L L L P L > L L > P > > y.c _.}.}.}.}.}.n.I._.m.|.}.).J 8 1 e.9.| _ ) T R T R R R T R R R P ",
"_ _ _ _ _ _ T _ _ { _ { [ _ _ _ _ [ [ [ { _ _ { _ { _ ! _ | i.8 K ).}.|.}.}.}.E.U.n._._.+ X X 1 8 7 e. .( T _ ! T ) _ T _ T T T ",
"T _ _ _ _ _ _ [ [ _ _ _ [ [ { [ O.[ [ [ { [ { _ _ T _ _ | i.8 8   X O J _._.J n.m.K X X X   X X   q.v.t.{ [ _ _ Q _ _ _ R R R R ",
"_ _ T T _ _ _ T _ _ _ _ T [ ] _ [ _ _ _ T _ _ _ ' ( _ _ i.8 8 o     X o X   X X X X o o o X   n.].n.q.t.} [ _ ! _ T T R T T T U ",
"T _ P ) _ T R T _ _ ` ) _ _ [ ' _ { [ _ _ _ _ _ ` [ `  .u.q.m.o o   o o   X X X o o o o h n.].].M.(.!.x.t.W ( ( _ _ ) _ _ T R T ",
"T T _ _ _ T _ _ T _ _ _ _ _ _ _ _ _ T _ _ _ _ _ T T E y.v.J.[.].].E.g o X o X g h n.E.E.Y.E.b.l.x.oXoXQ.f.y._ T R R T T P L P R ",
") T _ T T T T T T _ T _ T T _ T T T T T T T T T ( T } 6.q.h h h n.n.P.T.K.<.v.V.J.V.b.q.q.u.y.i.7.L..XE.8 6.k T U U R P Y n > > ",
"T T R E E R T ) _ _ _ _ _ _ _ _ T T _ T T _ T U T } 5.V.<.q.b.7.h h h <.q.3.y.5.5.5.r.3.3.M E } 5.b.P.+ 6 7 5.R E T T P T b = = ",
"T T _ T _ _ ) E T T T T _ _ _ T _ _ _ _ _ _ T T ) 5.J.q.q.J.5.x.~..XA.7.5.} T T T ~ _ _ _ Q E ) e.6     . 8 5.R Y Y Y T P > ; > ",
"_ T ) _ _ _ _ _ _ T _ [ [ _ _ _ [ _ _ [ _ _ ] _ _ p.J.J.J.i.a.x.oXoXL.7.u.] [ X...[ O.[ ..[ [ O.i.6     o 9 i._ _ _ ~ T ~ w > > ",
"R R T T T T R T T _ _ _ _ _ T T T ~ T ! Q T R T T k 3.5.3.G t.z.oXOXL.3.k T T T T T T T ~ T ~ T 5.7 X O   1 6.k P P C H n > = = ",
": > > > : = = > b L H V > L > L H H > L L L > L L n n V > C 2.z.oX~.z.2.L C V > n Y L L H V C L ,.0     o 1 1 ,.i > V n > H > > ",
"> : > > > > - > > V > P b L P P P P U Y P P P L L P L P P P r.g.E.I.g.2.L L L L P P Y R P L L > 6.6   o   o 1 6 ,.w C C > > > > ",
"L b > > > > > > L P L P L L V H L L > > H V L L H L H b b L ,.6 o   6 ,.i L V L > b L > L L > > f g.6   X X   6 *.> > ; > = > ; ",
"> > = > > > P > > > > > > , = = = > > > > > > C b L b > n w ,.8 o   1 6 ,.L w L b P L L L L L L e d g.8   . 6 <.2.> > > > > - = ",
"_ [ _ _ ..{ [ _ T ) [ ` [ [ _ _ _ { _ { [ _ _ _ ` { _ _ _ _ i.0     o 9 i.| [ _ R > > L L L L L P e ,.V.N.v.;.s r > > - > - ; = ",
"@.O.@.@.+.+.@.O.+.+.O.@.+.+.[ O.+.+.O.@.@.@.+.+.@.O.@.@.@.Z.h.9 o o   9 0 h.[ @.T > L L L L L w L L y ,.3.d 4.t H w > > : > > > ",
"[ [ X._ _ [ [ [ O.O.[ [ @.O.O. .[ O.O.@.[ O.O.@.@.[ O.O.[ a.0 8 o X     9 i.| [ R > H L > V > > > V > w > C > L > > , > > = & = ",
"@.X.[ [ [ [ [ O.O.@.O.@.+.O.O.O.@.[ O.[ [ O.O.[ ..O.' [ O.i.9 X X   X o 0 9 h.+.) > > L L H L L L L L b L L L L L n C w > > : & ",
"[ [ ' ` [ O.O.[ [ [ { _ ....X.O.O.[ [ [ [ O.@.O.O.O.O.@.+.h.0 o o X o   9 q.a.O.T H P L L P L P L L L L C n > > > > V - - = & > ",
"V L L L L L L L L > > > > H V V L n L > L L L L C L L P P 2.<.6 o X o 6 b.>.t n H L > V > L L > > H V > L - , > & ; : & & & # ; ",
"L P L H > > > > > L L > L > L H > L L V > L > n L L b V I y 2.g.B.V.B.b.d e L Y P P L P L L L V L b L V b V > C > : - & = & = = "
};
