/* XPM */
static char *Layer_171677303407[] = {
/* columns rows colors chars-per-pixel */
"64 64 187 2 ",
"   c #1C1F25",
".  c #1C1F28",
"X  c #1B2125",
"o  c #1C2029",
"O  c #2C2C2C",
"+  c #32312E",
"@  c #353535",
"#  c #383636",
"$  c #363936",
"%  c #393936",
"&  c #373639",
"*  c #393638",
"=  c #3C3C3C",
"-  c #363939",
";  c #2F302F",
":  c #44211F",
">  c #7D221F",
",  c #451E23",
"<  c #491F25",
"1  c #462124",
"2  c #492225",
"3  c #4A262B",
"4  c #493734",
"5  c #423E3E",
"6  c #4C3B39",
"7  c #453434",
"8  c #543535",
"9  c #5A3739",
"0  c #543A39",
"q  c #5B3B3B",
"w  c #5A3636",
"e  c #52302E",
"r  c #7E2423",
"t  c #7B2C2D",
"y  c #772627",
"u  c #6F243C",
"i  c #71233C",
"p  c #792F31",
"a  c #7C3232",
"s  c #76333B",
"d  c #79353D",
"f  c #78373A",
"g  c #6D3431",
"h  c #3E413E",
"j  c #41413F",
"k  c #4F403E",
"l  c #744A2E",
"z  c #744931",
"x  c #3E3F41",
"c  c #413F41",
"v  c #4F3F40",
"b  c #523F41",
"n  c #732341",
"m  c #3F4141",
"M  c #3F4B5A",
"N  c #3E4C56",
"B  c #434343",
"V  c #484646",
"C  c #494947",
"Z  c #464649",
"A  c #494749",
"S  c #4C4C4C",
"D  c #474948",
"F  c #504E4E",
"G  c #584949",
"H  c #4E514E",
"J  c #51514E",
"K  c #414A56",
"L  c #4E4F51",
"P  c #414B5A",
"I  c #514F50",
"U  c #5D4F51",
"Y  c #4F5151",
"T  c #545454",
"R  c #5A5354",
"E  c #565856",
"W  c #585856",
"Q  c #5B5B5B",
"!  c #575759",
"~  c #674847",
"^  c #754546",
"/  c #635858",
"(  c #73504D",
")  c #5F625E",
"_  c #5F5F61",
"`  c #5F6062",
"'  c #636363",
"]  c #696969",
"[  c #686868",
"{  c #9D1E1D",
"}  c #82231F",
"|  c #861E2D",
" . c #891F2E",
".. c #861F30",
"X. c #891E31",
"o. c #832525",
"O. c #8B2424",
"+. c #812827",
"@. c #86222D",
"#. c #8A222C",
"$. c #842A29",
"%. c #8C2B2B",
"&. c #962A29",
"*. c #8A3D2C",
"=. c #863A28",
"-. c #94312E",
";. c #872132",
":. c #8A2232",
">. c #882B34",
",. c #833434",
"<. c #8D3333",
"1. c #833B3C",
"2. c #883939",
"3. c #933435",
"4. c #9B3232",
"5. c #953B3B",
"6. c #9A3B3C",
"7. c #95353A",
"8. c #992F31",
"9. c #B82525",
"0. c #A6243D",
"q. c #A9243E",
"w. c #A43738",
"e. c #A82A2B",
"r. c #C92333",
"t. c #C8242F",
"y. c #84433D",
"u. c #A34C38",
"i. c #A9523C",
"p. c #A6513B",
"a. c #9A3A42",
"s. c #A62440",
"d. c #AA2541",
"f. c #AD2845",
"g. c #A52C5E",
"h. c #A92B5F",
"j. c #A52C61",
"k. c #CE3E5B",
"l. c #CD3F57",
"z. c #D13E5B",
"x. c #D03D57",
"c. c #844344",
"v. c #8C4543",
"b. c #9F6F4A",
"n. c #9E714B",
"m. c #A16F4C",
"M. c #A0704A",
"N. c #BF6753",
"B. c #AA5340",
"V. c #D1415C",
"C. c #C46C58",
"Z. c #C26956",
"A. c #DC536D",
"S. c #DE4F7A",
"D. c #DF5177",
"F. c #DF517A",
"G. c #DE5873",
"H. c #E14F76",
"J. c #E24F7A",
"K. c #E15077",
"L. c #E1507A",
"P. c #E35973",
"I. c #CE7269",
"U. c #CE7066",
"Y. c #D3746D",
"T. c #CD6F69",
"R. c #CE9F7D",
"E. c #D09F7E",
"W. c #CEA17E",
"Q. c #63718C",
"!. c #627190",
"~. c #646F8B",
"^. c #FC77A5",
"/. c #FB79A6",
"(. c #FC79A9",
"). c #FC77A9",
"_. c #9AA4B6",
"`. c #9BA4B8",
"'. c #CE9F81",
"]. c #CEA180",
"[. c #EAC9B6",
"{. c #EBC9B8",
"}. c #ECC7B7",
"|. c #FDE9D6",
" X c #FDE9D9",
".X c #FEE7D8",
"XX c #FCFCFC",
/* pixels */
"B B = B B B m V B h h B B B x B V B Z V B D S S S T W T W E T V V T S T E E T L T Z h B t d.z.s.q.z.A.V.%.5 = x B D C V = # m j ",
"= = B = = = = = = = = = = = = = = = j = x Z Y T E W Q S I Q T Z x B S Y W / Q T S L S = y 0.;.$.t d.l.A.y m C E F S S S B = = = ",
"= # # - # - # # # = # = = = = = h B B 5 B V D S I L T L A Y S S S B V V Z S L S B V Z B r @.+.9 w o.x.A.r h m = = # # = @ O O O ",
"m B B B B m m B B B V m B B V D C B B V V B h h c B V B c x x h m 0 o.r r r r o.$.o.o.8 0 o.9 w r | l.d.y # # @ ; ; O O O O O O ",
"B V B B V B B = V V B B B V j Z D B = B m B m Z B x x m = B 0 O.O.$.;.X.:.:.X. .#.X.:.+.+.o.o.r ..X.g.| r $ & @ ; @ ; ; O O O O ",
"= = m B h = m = = = j x x = x B 4 t t t 6 5 B m j B B = 9 $.$.@.;.X.d.j.g.g.i u i j.0.s. .| @.#.0.g.j.@.r o.e # # = * @ @ ; @ ; ",
"B = = = = = = = - $ = - # & 7 y O.s.0.s.t t k m B B B q $. . .X.j.F.J.K.F.j.j.g.K.L.J.L.S.J.g.j.j.u i X.@.X.$.9 = # # # @ # @ @ ",
"= = = # & = # # @ = - # # 4 y 0.l.z.K.d.0.d.t O.8 B 8 $.;.| j.D.K.H.F.j.g.K.(./.H.J.J.K.J.J.K.F.H.h.i i g.0. .r 3 + @ @ @ @ ; O ",
"@ # # # # = # * @ # = @ 7 y 0.k.g.i i i h.0.q.:.o.9 o...@.g.D.F.(.(.J.K.(./././././.G.J././.F.g.K.(.K.i i u d.#.r - = & # @ @ @ ",
"= # - = - = = = % = = = t q.V./.L.g.i i i n g.0.@.r :.@.g.D./././.D.^././././.(././.^.S./././.K.j.K.(.K.i j.J.@.+.= = # # ; @ = ",
"@ ; @ # # = = = = = @ 4 t q.S.^./.^.F.g.i u u j.q.;.:.i H.(././.K.(.^././.(.).D./.^./.^.(./././.F.g.(.^.j.u g.#.$.8 - $ # & - $ ",
"B D B S L D A S S S S ,.d.d.K././././.(./.K.K.j.g.u i g./././.(.(././.(././.J.j./.(.^./.(.F././.(.K.L.^.D.i i :. .o.= # @ @ @ ; ",
"Q ! E ! Q W E E E W / 3.V.g.j.J././././.L.K.K.j.i i i J././././././.).(.^.K.S.g.(././.^./.g./.(.^./.j./.(.j.i j.@.o.= - # # @ ; ",
"! Q W W S S T S H J <.f.G.K.g.i j.F.S.J.L.K.j.g.i u j.^.(./.(./././.(.K.K.K.j.j././././.(.g.L.(.^./.F.^./.L.i g.d.t = = = - # # ",
"S S T T S S T R S / 3.V./.^.J.g.i u j.j.j.j.g.u i u K.(././././././.K.L.j.b.].j.F.^././.L.n.g./.(././.D.^./.g.i q.a B D m B m = ",
"T T S S T T T F J 2.f.V./.^.(.^.K.g.i u u i i i i i /.^./.(././.(.F.K.j.].].'.g.F./.(./.j.W.n.K.^././.j.(./.K.i  .> @ @ @ # ; @ ",
"H S S S C Z D Z C ,.q.K.K.(.^.(.^.L.F.g.g.i u i u g.^.(./.(./././.J.g.W.i i W.g.F.(.^./.j.R.W.g./.(.(.g.F.^.(.K. .+.e & & @ & $ ",
"= m B B B h V Z 6 t d.j.j.K.L.K.K.K.g.j.i i i i i g./.(./.^././.J.j.M.E.R.j.i j.K.(.^.K.m.W.i i K././.i g.J.(.^.k.| r e & # # O ",
"S S D L S S H S ,.q.V.g.i u j.j.j.g.i i i u i o u g././.^.(././.j.m.W.W.'.E.R.g.K././.j.W.u W.b.j.(.F.i K.i g.J.^.k.| $.= = m = ",
"Z S V V j B V D %.z./././.j.i i i i i u #. .< o X g./.(.^././.F.g.W.R.].W.R.W.W.F.^.^.j.E.'.W.W.g.K.g.i F.j.i |  .X.$.9 = = = = ",
"= = # $ = - - 4 O.l.).^.H.J.g.u u u i .. .&.t.  . j././.(.(.(.g.n.R.].E.M.M.].E.j./.K.M.R.b.R.R.M.H.n j.L.j.u 0.+.o.8 x = = = = ",
"- # # # & @ & y q.0.S.J.D.K.g.j.i | X.@.o.{ t.    i /.(././.K.j.W.W.W.}.}.[.n.].g.(.g.W.b.[.{.R.M.j.i K.D.j.i d.t c B x = = h = ",
"m x B x c 5 6 $.z.(.j.g.j.j.n i  ...$.O.w { r.r.X u J./././.g.M.R.m.o X o X W.W.g.D.M.].[.  O o M.i j.L.D.i i s.t = B B = j = x ",
"= = = = = = y q.z./.K.K.j.i @.| ..O.8 = = { r.r.X X j./././.j.W.n.X Q.u i i   ].g.j.W.{.  u u !.X i g.K.g.u X.#.o.B = = B = = = ",
"V D V B V V t d.j.H.J.g.i X.@.$.$.0 Z B B p &.r.    h./.^.^.i W.  _.XXg.XXi i }.j.{.[.{.M.`.i _.z u j.J.i i f.%.q S D Z Z V h B ",
"L S L S T G 3.G.S.j.j.#.:.X.<.~ Y T T T E W e.t.r.  u /.(.K.i [.l XXXXj.u i i [.[.[.[.[.n.u i XXz u g.j.u q.;.%.V D B B V m B x ",
"F H T T T 2.q.V.g.i ;.:.3.<.~ E I T ! T W Q c.e.r.2 2 K.(.K.i }.R.XXXX`.u i g.{.|. X|.}.W.n j.[.M.i g.i i  .$.q V B V B B B = c ",
"L T S S G 4.V.d.:.;.:.<.~ T E E ! T E E W Q E y.e.4.< f.^.g.i [.|.|.|..X X|. X X X X X X|. X|.}.W.u g.u d.#.$.c h B B = = = h = ",
"H S S S ,.d.:.:.<.3.3.~ Q E W ! R Y Y ~ 2.d f E E ^ 4.;.V.j.l }.|. X X|.|. X X X X X X|. X X X{.n.i i X.@.r 4 e o.t y 5 = = x = ",
"Z V B h G t +.$.0 5 B A B m m h Z H ~ 5.C.Y.Y.y.W W ~ <.f.:.*.i. X X X X|. X X.X|. X|.|. X X|.].z u n #.%.~ 3.3.=.N.U.a L S B Z ",
"& = # # @ # @ # * @ # # # & - # B Q v.C.I.W.i.5.^ ! Q 5.>.:.6.*.Z. X X|. XW.|. X X X X X X X].z 9.i f.:.6.3.C.T.Y.l *.7.U R H T ",
"= = = = = = = = = = = = m = = = B E c.Y.n.z y.U.Y.v.Q ( 5.:.6.6.*.n.[. X|. XM.M.M.]. X X[.M.o 9.9.i :.6.7.:.I.n.l m.C.I.y.E ! E ",
"V m B B B B = m B B V V S S D V S ) c.Y.[.R.l z C.a.! R U 6.6.i.i.P l n.W.{.|. X|.|.[.n.    9.9.9.9.:.f d d.W.l l z y.&.U E J S ",
"D V B V V B S B B B S S S S S S S E v.I.R.z l M.C.w.v.( u.B.C.I. X].i P l l l l z l i     R.m.u Q.Q.~.~.Q.g.n.l l n.I.1.T ) H S ",
"# = = = = # = = - - - = = = = B = = r N.u.m.z m.=.;.s a.w.q.}..X|.'.N i P i g.i M i P !.b.].R.j.Q.Q.Q.Q.Q.i l M.C.*.Z.2.T J J H ",
"@ - = = = $ = - $ = @ # = - = = @ # 7 | =.=.z z j.N ~.`.`.~.h.[.W.M.Q.Q.i M j.g.i M ~.~.n.R.].g.Q.Q.Q.M P P i i.p.-.,.~ J S H J ",
"= @ # @ # - $ @ @ @ @ # - = = $ @ = = e } | | g.M M M ~.~.N j.R.M.P Q._._._.K.Q.K._.`.7.=.u.u.i P M P N z n d :.5.~ E H F S S S ",
"@ @ - - # @ & # # @ ; @ # # # & = = = = e | g s P M K P N N i z l M Q._.`._.L.J.K._._.7.} } =. .s s n d d v.y.<.~ T R T E T S F ",
"# # = # # # # = = = = = = m m B Z D B A V 5 t s s s K s s s ;.s s K M Q.Q.Q.g.j.j.Q.Q.s a 9 %.$.t a 1.,.2.G D C S V B S L S S V ",
"B m = = x j m m = B V Z V D V V B B B B Z Z 6 a a s s s p t <.a f d M P P M j.P h.P P s a G C S S B B B h B j B B h c h x = # = ",
"V m V V B D B B V B B B V B B V V V Z V V V B B k a p p 6 = V G ,.s Q.Q.P P g.j.j.P M 7.d a S B Z Z V V V B j x h B m = B 5 = = ",
"= m 5 B m = j m c = = = B m B c B h B = = x m h m j V V Z D I I 1.s Q.Q.Q.Q.g.K.K.Q.Q.!.d 1.U T H S L S S S D V V B V S B B B B ",
"B B x = = B x B c B B V m B = = h B B V B B B = B j = m x = ! / 1.d Q.Q.Q.Q.Q.F.~.j.!.Q.a.d ,.U T T T T S S S S S D D S D S D V ",
"E T T T E F S E T E E E W T T T E Q E Q ! E E W E ! T S T T T y.n a.Q.Q.Q.Q.Q.K.K.J.Q.Q.`.a.d 1.U T E W Y S T I S S T S T S S S ",
"I T T E T E T E E T I E _ W ! Q _ Q ! Q ! W ! E T I E R ! ! F 1.c.Q._._._._.Q.g.K.K.g._.`._.a.d 1.W E S E Q ! Y S E T S Z S D C ",
"T S S L T T T F T E ! I I Q E E ! T E E F T T T ! I T E W W I -.2 P Q._.`._._._.L.Q.L._._.~.P 1 4.-.^ I T W T I T S Y S S S S V ",
"S T V S T S A S T T E S I ! E W ! W W E E T E T W Q ! ! T S ^ &.1 o X X N Q.!.P g.K.K.P o o X 1 1 , 8.~ T J L S T I Y T T S S S ",
"S S T E T S I T S T T E T T T R I E S L T S R T S S I S S ~ -.< : X     o   X X o o X o X     X X :.;.<.S T T S S S S S V B B V ",
"F S T S S S S S S T S I S I S L S S S S S S S S S S S S q %.:.< o   X X X   X     .     X X . g./.g.#.<.~ V S S V D D Z D B = = ",
"S S Z T S S S F L E T T E T T T I S T S S T S V S F S S -.V.z.g.X   X   X     X X     O o i J.S.g.W.T.i.,.G V V S S D V S m @ = ",
"S S J S F T S S S F S S S T T S T T T E R L S S S F L G <.d.S.(./.g.i o X   o X . X o j.g.d.f.p.].[.{.T.q.4.f S V V V S V = # & ",
"T S S E E E T T T S E W W T E E ! T E W T E E E T / 2.2.f.:.g.g.g./.K.L.j.u J././.G.P.V.:.:.7.*.i.Z.].K.1 1 3.E Y T H S Y = = = ",
"S S S S S S S S S R T E T I S I S S S S S S S S S t d.f. .i :.z.p.z z i #.#.:.X.@.#.<.-.<.<.z &.&.d.K.X o , O.V V V j B B = # # ",
"# = = = = # = # m B = m B B = B B m = B B B = h V t d.@...z.V.%.N.[.W.m.=.%.$.+.y %.0 B = x 9 #., 1 X o , , O.= = = = m = = = = ",
"= - = = = = - = = = = B m B V V V B S D V V V V B b %.z.z.%.%.%.Z.}.[.N.=.O.m V B V A A C V O., ,   X o : O.e j m = B = = = = = ",
"x 5 = = = = = = B V B V B B = m B B = = m = B B B h w O.O.9 B y q.}.W.u.o.9 = j B = m x B 5 O., X o o X , O.7 = = = = - = @ = = ",
"= = * = x m V = = = = = = = & & # = = = = = = c c B B = B c 5 O.1 K.D.q.t B h m = V B B j B O., X     . , O.= = = m = = = = = # ",
"E W E ! Q W ! W L Y W W _ W E T T E E E ! T T E T E T E T T Q 4.2 X X 2 4.^ E W V = j = V B a q., . o . : O.= = = = = = = # # @ ",
"' ' ' ' ] ] [ ' ] ] ) ' ] ] Q ' ] [ ' ' [ ] ] ] [ ' ' ] ] ] ' w.2 o . 1 2 6._ [ S = h B B m 6 t 0.1   , :.$.B c B = = = = = - = ",
"Q Q _ E E W W Q ' ' Q _ ' ' ' Q ' ' ' ' _ _ ' ' ' _ _ ' Q E ( 4.1 . X   < 4.^ Q S = B B x h = 4 O.l.x.d.+.9 = m = = = = - & @ # ",
"' ' Q W W ' Q _ ' [ ' ' ] ' _ ' [ Q ' ' Q ' ' Q ' ) ! / _ ! w.3 2     X 2 3 w.[ I - j B c h B B 9 O.%.t 6 B B B B m = m = = $ # ",
"_ Q ! W E ' ' Q ' Q W E ' _ Q ' ' Q Q W ) ' ' ' [ ' ' [ [ ] w.1 X     o . :.6.' S B B V B V V B B B B B B = c = = = = = = # # - ",
"x B V B B B B B x = = # = h j B B B B = B c B B B m B B A V O., O   o X , 0.t = B c m = = B B = = x = = j = - = & # # @ @ @ # # ",
"B B V x = = c = = B B x B = B 5 = x B = B B = x B m B j B V @.| 0.l.z.V.0.t 6 V D B m V V B B m B j m h B = = B = - = @ & @ @ @ "
};
