/* XPM */
static char *Layer_141677303407[] = {
/* columns rows colors chars-per-pixel */
"64 64 190 2 ",
"   c #1C1F25",
".  c #1B1F28",
"X  c #1B2025",
"o  c #1B2029",
"O  c #172025",
"+  c #2C2C2C",
"@  c #262B27",
"#  c #32322E",
"$  c #2F2F31",
"%  c #342F30",
"&  c #353535",
"*  c #393636",
"=  c #363836",
"-  c #393936",
";  c #363639",
":  c #393638",
">  c #373A39",
",  c #3C3C3C",
"<  c #333030",
"1  c #441F1F",
"2  c #7D231F",
"3  c #451E23",
"4  c #481F23",
"5  c #7D1E22",
"6  c #462124",
"7  c #482125",
"8  c #492129",
"9  c #49292A",
"0  c #413E3E",
"q  c #493736",
"w  c #5B3C3D",
"e  c #583635",
"r  c #5B2F2E",
"t  c #6C2325",
"y  c #7D2223",
"u  c #742B2C",
"i  c #7C2C2C",
"p  c #752626",
"a  c #6F233C",
"s  c #71233C",
"d  c #752A34",
"f  c #623938",
"g  c #733134",
"h  c #7C3133",
"j  c #76333B",
"k  c #79343C",
"l  c #7B383E",
"z  c #73312D",
"x  c #3E403E",
"c  c #41413E",
"v  c #744A2E",
"b  c #744A31",
"n  c #7A403F",
"m  c #6D413E",
"M  c #3E3E41",
"N  c #413F42",
"B  c #4F3F40",
"V  c #513E40",
"C  c #722340",
"Z  c #7B3940",
"A  c #7A3740",
"S  c #3F4041",
"D  c #3F4B57",
"F  c #3F4B5A",
"G  c #434343",
"H  c #494544",
"J  c #494946",
"K  c #464649",
"L  c #4C4C4C",
"P  c #474847",
"I  c #554647",
"U  c #4E504E",
"Y  c #52514E",
"T  c #4E4F51",
"R  c #414B59",
"E  c #414B56",
"W  c #514F51",
"Q  c #4F5150",
"!  c #535454",
"~  c #585657",
"^  c #595956",
"/  c #565659",
"(  c #5B5B5B",
")  c #575958",
"_  c #694A49",
"`  c #654444",
"'  c #724646",
"]  c #655958",
"[  c #6E4F50",
"{  c #5F615F",
"}  c #60605E",
"|  c #5E5E60",
" . c #605E61",
".. c #5F6062",
"X. c #636363",
"o. c #696969",
"O. c #686868",
"+. c #AD1B1B",
"@. c #B21E1D",
"#. c #84201E",
"$. c #861E2D",
"%. c #881E2E",
"&. c #881F30",
"*. c #9D1F20",
"=. c #B51F20",
"-. c #812525",
";. c #8C2423",
":. c #832926",
">. c #86222D",
",. c #8A212E",
"<. c #852A2A",
"1. c #8B2C2B",
"2. c #8C2927",
"3. c #932C2C",
"4. c #9B2423",
"5. c #893C2B",
"6. c #86382A",
"7. c #872131",
"8. c #8A2232",
"9. c #8C2D33",
"0. c #8D3332",
"q. c #863A3A",
"w. c #873636",
"e. c #943334",
"r. c #9A3233",
"t. c #95383A",
"y. c #922F36",
"u. c #B52324",
"i. c #B92626",
"p. c #A7223D",
"a. c #A9243E",
"s. c #A92E31",
"d. c #A23939",
"f. c #CB2434",
"g. c #CC2337",
"h. c #A64E38",
"j. c #A8503A",
"k. c #9B3B43",
"l. c #873F40",
"z. c #AB2542",
"x. c #AA2743",
"c. c #A52C5E",
"v. c #A52C61",
"b. c #A92A61",
"n. c #CF3E5A",
"m. c #CE3E57",
"M. c #D23E5A",
"N. c #D03D57",
"B. c #8D4243",
"V. c #894C4E",
"C. c #9F6F4A",
"Z. c #9E714C",
"A. c #A16F4B",
"S. c #A1704B",
"D. c #BD6653",
"F. c #D2415C",
"G. c #C36B57",
"H. c #DE4F7A",
"J. c #DF5176",
"K. c #DF517A",
"L. c #E14F76",
"P. c #E24F7A",
"I. c #E15176",
"U. c #E1507A",
"Y. c #CB6D65",
"T. c #CF716B",
"R. c #CD9F7D",
"E. c #D09F7E",
"W. c #CEA17E",
"Q. c #D1A07F",
"!. c #646F8D",
"~. c #63718C",
"^. c #627190",
"/. c #FB77A6",
"(. c #FB79A6",
"). c #FB79A9",
"_. c #FA77A9",
"`. c #9AA4B5",
"'. c #9AA4B8",
"]. c #CE9F81",
"[. c #D09F81",
"{. c #CEA181",
"}. c #D1A080",
"|. c #EBC9B6",
" X c #EAC9B9",
".X c #ECC7B9",
"XX c #FDE9D6",
"oX c #FDE9D9",
"OX c #FEE7D9",
"+X c #FBFCFC",
/* pixels */
"G G , G G G G G G c , G G G G G G P P G G L U L L ! ) ) _ t.0.1.7.8.8.8.8.8.8.8.8.1.<.<.:.8.&.a.8.1.V H P , , 0 P P L P , * N G ",
", , G , , , , , , , , : , , , , , S x x 0 G Q ! / ! [ 9.0.8.8.8.z.v.c.c.s s s c.x.z.,.,.%.p.c.&.:.e N 0 x G L ! L L L L M , - , ",
", , = : = : = = = , , , , , , , S S , M c G J U T ` 0.8.>.8.c.J.J.P.K.v.v.J.)./.).I.U.U.P.v.s >.$.:.:.e G , 0 , , * = ; * $ + @ ",
", G G G G G N G G G N H V h <.h <.h 1.1.m S S S w :.,.8.v.K.(.(.J.v.v.P.)./.).(././.U.U.K.P.P.v.$.>.$.-.p y 9 & $ < $ + @ + + + ",
"G P G G P G G , P H H i 1.a.z.a.a.z.>.&.<.:.e w <.&.8.U.(./.(.).U.I.(./.U./.(.(.(./.(.U.L.c.U./.H.s 7.z.p.$.y y 9 < & # < + + + ",
", , N G , , , N , q i p.N.F.U.P.P.L.v.a.z.,.<.<.7.$.U.(.(./.(.U.(.(./.(.U.U.(.).(.(.(.U./.U.v.I.).P.s s C p.p.$.y e ; & & $ & $ ",
"G , , , , , , , q p z.N.v.s s s s s s c.c.z.a.>.>.c././.).(.I.(.(.)./.U.U.c./.(.).).(.U./.(.U.U././.v.a c.H.J.p.$.y & = & & ; # ",
", , , = , * ; = p p.N././.U.c.a s s a s C c.c.a s P./././.).(./.).K.I.U.v.c.(././.(.(.c.).(.).v.P./.I.s v.P.c.s $.5 & & & # & $ ",
"= = * = = - & q p p._././.(./.(.).(.I.U.U.c.s s v.(.).(././.).).J.I.v.Z.W.c.(.(.(.(.J.v.J.)./.U.U././.c.s s a v.$.y , * = & & & ",
": = , , , - N i p.p.L././.).(.U.I.I.U.v.s s s s I.(.(.(.)././.P.U.c.{.W.W.v./.(.(.(.v.S.v.).(.J.c.)./.U.s s c.J.a.p , = = $ = : ",
"& & & = ; , - p p.P.b.P.I.U.I.U.c.c.v.a s s a v.(.)./.(./.).J.U.c.W.a s W.v./.)./.).c.W.c.I.(.(.c.I.).).c.s U.U.z.p , ; * ; , = ",
"G P G J T P I 3.M._.J.c.s c.c.v.c.c.a s s a s c.).(.(.(.(.U.P.c.S.W.W.c.s c.(.).).I.Z.W.a s (./.v.U.)./.U.C c.J.8.-., = = & $ < ",
") / ~ ) ^ ) q.z.I.(.(.I.v.s a s a s s s s s s U.(./.).)./.J.c.Z.W.W.W.{.W.s U././.v.W.s c.U././.v.U.I.).(.J.a c.$.y , ; & * = $ ",
"~ ( ) ) U ! q.z.(.).).)./.U.c.s s a s s s s s I./.(.).(.P.J.v.W.R.W.W.R.{.S.J./.U.v.W.{.v.U./.).c.I.U.U.(./.U.s ,.:.M M : , * * ",
"L L ! ! L L w.x.J.(.(././.).U.c.s s 8.8.,.X s U.).(.(.(.J.b.A.E.W.].S.S.{.E.c./.U.S.}.Z.c././.J.s U.U.s c.U./.F.,.<.P P G G G , ",
"! W L L ! ! q.x.c.I././.U.J.c.s s 8.8.r.9 X s U.(.(.(.U.J.c.W.W.W.|. X|.Z.W.c.U.c.Q.S.|.c./.U.v.s I.U.v.a s s $.y e & # & & & # ",
"Y L L L P P 2.M.v.c.v.v.c.v.c.s >.%.<.*.f.X a P.)./.(.U.v.Z.E.S.X o X X |.W.W.c.c.W. X  X X c.a c.U.U.v.s s v.$.y , - * ; = = ; ",
", G G G S G <.J.U.c.c.a s s s >.8.<.f 4.f.f.X c.)./.L.U.c.W.S.X ~.s s s X |.W.c.W.|.X s s ~.X a v.I.U.c.a c.v.$.-.; = , = : & $ ",
"L L P L U U 0.J./.).J.J.c.s 8.,.<.V H *.f.g.X c.J.).U.I.v.W.  `.+Xc.+Xs a  X X|. X|.S.`.s '.v s v.U.U.s s c.v.&.<.G , , 0 , N , ",
"P L P P G c <.F.)././.J.U.v.8.1.e S H *.f.f.X s J.).J.c.Z.|.v +X+Xc.s a s  X X X|.|.C.s a +Xv s v.J.J.a s v.s ,.<.G N S , , , , ",
", , , ; = : p a./.(.U.U.c.>.$.y ; M g 2.T.f.f.X c.P.U.c.W.|.{.+X+Xc.s s v.|.XXoXOX|.{.a s +XZ.s v.P.c.C s s c.&.-.0 , 0 , , , , ",
"= * = = = = y &.P.).I.c.s $.y e ; z T.6.Y.f.f.X v.P.U.c.W.XX X{.+X`.c.c.W.oXXXoXXXOX|.W.c.W.W.s c.U.c.+.s c.c.>.:.c N c , , , , ",
"N 0 S x S , :.%.p.c.v.c.%.&.:.S x u Y.v W.Z.f.X s P.J.s W.OXoXXXoXOXoXoXOXoXoXoXXXoXoXoXoX|.{.s c.I.s +.s c.W.Y.Y.u G N N x , , ",
", , , , , , e -.z.U.P.v.&.y e , , p h.W.Z.|.OX  a c.P.s S.XXoXoXoXXXXXoXoXoXXXoXXXOXoXXXXXOXW.a v.c.s +.s v b v 6.:.0 S 0 , , 0 ",
"P H P G P G P 1.n./.P.P.>.<., , G g T.|.v v |.+.s c.v.s v |.oXoXoXXXoXOXoXoXOXXXXXoXoXoXOXoXW.s c.s +.Q.|. XS.D.Y.Y.h G H P G P ",
"T L L W Y ! ! q.z.).P.v.,.t.! ! Y n T.W.v S.{.u.u.s c.s b Z.XXOXoXoXoXg.g.g.f.f.f.oXoXXXXXW.v a s s s |.S.v v 6.1.h c G G G G , ",
"U L W ! W ! ! q.z.c.c.8.8.0.) ) ! 0.G.j.Z.A.S.c.i.a s s u.b R.XXOXoXXXg.g.f.f.f.W.OXOXOXW.v +.u.s R v.v W.v v h.Y.g P H G G , x ",
"L Q T U ! Y Y 9.8.F.U.z.0.` ! ! ! [ t.5.Z.v c.~.E i.s i.t.i.b A.|.oXoXOXf.f.f.W.oXOX|.Z.X @.@.+.F ~.~.v.S.S.v D.Y.z G , , , G - ",
"! W L L W L Q _ 0.x.c.F.t.! ! ) ! ! 1.,.8.v.~.'.'.~.E @.=.u.u.v v S.{.|.oXoXoXoX|.C.X O +.+.R R ~.~.~.D s h.6.h.y 0 , x , , , , ",
"H G G G G G G G <.8.n.z.i G G c P U _ t.l R R ~.'.'.'.~.s R.S.R a F v v v v b v s X X v c.R ~.~.~.~.R F l 8.y.0.` Q U L L L P P ",
": > ; - - * = & 9 y a.&.-.= , ; G ( { B.Z l F F ~.'.`.'.v.OX|.W.F s E R a s R R a R C.R.c.~.~.~.~.R D l Z t.[ ) ~ ) ) ~ Y ! L ! ",
", , , , , M , , , q :.>.-., , , G / ( ] B.Z l l D D ~.~.c.XXXX|.~.F s ~.a c.s ~.s ~.C.W.c.!.^.R R l Z A q.] ( ) } ( ( } ( ! ) ~ ",
"G G N P G N , G N K w 1.I L P G L { ( ..] B.B.Z Z Z R R s |. XW.~.~.~.c.I.I.I.v.^.!.C.Z.Z.c.F l Z l q.q.] Y ) ~ ! ) ! ! ! ) ! L ",
"H P G P P P P G G P J L L T T T U ) ( ]  .( ] B.B.Z l 8.G.G.C.F ~.`.'.`.U.~.I.`.`.k.5.5.5.a.j Z q.q.~ ( ( { ( ) ) ) ! ! ! ) Y W ",
"; , , , , * : , = * * , - - , G , , , , 0 G 0 P H <.h <.<.j j F ~.'.`.'.U.U.U.'.s.j -.#.-.p p p q L ] | ) { ) ! ! ~ ! ! ! ! W L ",
"& , , , , ; , , * , & * - , , , $ , , = ; ; < & # # % & % t g D R ~.'.`.U.U.I.'.y.y % & & & # < @ G ! ! ! ! ! ! ! ! Y ! L L T ! ",
", & = & & : : & & & & * : , , : & , , ; = & & & = ; = & & t g E D R !.~.v.~.c.~.g t q & = = & = # K  ./ ) ~ ) ! ) ) ! L L Y L L ",
"& & : = = & ; = & & & & = = & : , , , , : = = & ; = & $ # t g F ~.F R F c.c.v.R y.g t * * ; & & $ G ( ) ) ! ! ! ! ! ! ! ! ! L ! ",
"= * , = = = = , , : , , M N M G P L P P P N G G G , M , , u j !.!.~.~.E v.E H.~.!.t.j h I P G G M P ! L L L P L L H P L L L L P ",
"G M , , G , G 0 N G P P P P H P G G c N G P G G P G P H S i j !.`.'.!.~.U.H.U.~.!.`.k.l h P P L L P G G 0 G 0 G G G S S , , , : ",
"P G P P P H P N P G G G P G G P P P H P P P G G G G P N 0 i j `.'.`.`.`.c.L.U.c.`.`.`.j h I P G P L G P G P G M , G G , G 0 , , ",
", 0 M G , , c M c , , , G N G G G , G , , N G , M G G P h j k.`.`.`.`.`.c.U.~.L.'.'.~.j l w.! ! L L W L L H P P G P K P G G G G ",
"G G G , c G G G G G G P G G , , N G G P G G G , G G 0 c p j ~.`.'.'.`.'.'.P.v.F X X X X l r.m ! ! ! / / Q L L L L L H L P L L P ",
"! ! ! ! ! T L ! ! ) ! ) ) ! W ! ! ( ) ( ) ~ ! ) ~ / ! W r.8 E !.~.~.~.E R o X X X X o o 6 7 r.' ! ! ~ ! Q T ! Y L L T ! L L L L ",
"! ! ! ! ! ! ! ~ ) ! ! ! ] ) ) ( X.( ) ( ) ) ) ~ Y Y ! ' r.8 X   X X         o X . X X X X 7 8 r.e._ ! L ! ) ) W W ! ! L L K L H ",
"! L W L ! ! ! Q ! ! ) W Q ( ) ~ ) ! ~ ! W ! ! ! ^ W ' r.8 3 O X X X .   .       X X c.(.(.I.F.x.8.t._ U ! ! ! ! ! L L L L L L P ",
"L L L L ! L L L ! ! ) L Q ) ) ) ~ ! ) ) ! ! ! ! ~ ] r.6 7 X   . X       . O O X c.(.(.U.S.Z.b s z.8.0.! ! ! L L ! Q ! ! W L L L ",
"L ! ! ! ! L L ! L ! ! / ! ! ! ! ! ! L ! ! W ! ! L w.z.z.c.X X   X @ .     . X K.J.F.8.j.S.{.W.S.8.8.0.W U ! ! L L L L L P P G P ",
"L L ! L L L L L L ! L W L ! L L L L L L L Y L L L 1.8.v.P.L.L.P.b.o X X a P.F.x.8.3.3.5.j.W.|.}.5.3.` ! L P L L P P K H K G , , ",
"L L P ! L L L L ! ! ! ! ! ! ! ! W L W L L ! L L L e.F.s s s b.J.U.P.U.F.a.z.8.1.0.` f 1.5.j.{.|.G.w.I U L L P L L L K P L G & , ",
"L L T W W ! L L L Y L L L ! ! ! ! ! ! ! ! ! L L T 3.F.s J.U.s s s 8.,.8.0.q.0.` L U ) _ y.5.j. XY.z.3.' ! ! W L P P P L P , = * ",
"! L U ! ) ! ! ! ! L ! ( ) ! ! ! ( ! ! ) ! ! ! ! ! e.F.8.U.Z..XW.S.5.t.0.` ! ) ( ( { ] } [ r.x.I.U.8 9 3.' / ! ! W ! T L W , , , ",
"L L L L L L L L L ! ! ! ! ! L L W L L T L L L L L f 0.M.a U.|.|.G.5.2.J L P L L L L L L L r.3 4 @ . 3 3 2.P J P P P G G M , = = ",
"= - , , : = , ; G S G 0 G G , G G , , G G G , 0 G G i x.n.J.]. Xh.2.e G c N G , G P G P 0 e ;.6       3 ;.e , , , , , , , 0 , , ",
", - , , , , , , , , , G G G P P P P P P P P P P P P I <.z.z.P.J.z.<.G K N G c P P P c L H P 3.1   .   1 7 ;.0 , G , N 0 , , , , ",
"N M , , , , , , G P G P G G , N G G , , G , G G G , 0 q ;.3   X 7 #.f 0 , G M c M c x , N , ;.3 3   O   3 ;.r , , , , ; , = , , ",
", , = , , c G , , , , , , , * = = , , , , , , c x G G , ;.4   X 3 3 ;.0 G 0 c G , P G G N P f ;.1 X X   1 3 ;., , , , , , , : = ",
"~ ) ! ! X.) ) ) L W ) )  .) ! ! ! ! ! ) ) ! ! ! ! ) ! ) r.7 X X X 6 d.[ ! ~ ~ ~ K , , G G G G 2.3   . X O 3 ;., , , , , , = = = ",
"O.X.O.O.O.O.O.X.o.o.X.X.O.o.( X.o.O.X.O.o.O.o.O.o.O.X.o.d.8 X X X 8 7 r.V.| | O.Y , c G N G G i z.3 X   3 ,.<.M G M , , , , : , ",
") ( } ! ! ) ) ( X.X.) } O.O.}  .X.( O.O.X. .X.O.X.( ] } d.7 . X o o 7 7 t.~ ) ( L ; G G 0 , M q p z.n.n.a.:.e S , , , , : : & = ",
"O.X.( ) ) ] ....X.O.O.O.O.X.{ O.O.( X.( ) X.X.( ....) { d.8 o   . X X 8 d.{ X.O.L , M G N N G G q i 2.:.i q G G N G , N , , = = ",
"( ) ) ) ) X...{ ( ( ! ! ( X.( { X.( ( ) ( X.O.X.O.X.O.X.t.8 X . X X X 8.t.{ ( X.T , G P P P G G G P N H c , S x , , , , , = = : ",
"N G P G G G G G G , , = , , , G G c G , G G G S S G , H <.>.3 o X X 4 M.2., x G G G 0 0 , G G x M , M , G , , , = = : = & & & ; ",
"G G P 0 , , S , , G G G G , G G , G G , G G , G G c N G w 1.>.p.z.F.M.2.e N x G P G G P G c G x G 0 G N N , M , , : : & = & = * "
};
