/* XPM */
static char *Layer_131677303406[] = {
/* columns rows colors chars-per-pixel */
"64 64 187 2 ",
"   c #1C1F25",
".  c #1C1F28",
"X  c #1B2026",
"o  c #1C2129",
"O  c #2B2C2C",
"+  c #302E2F",
"@  c #3F2C2E",
"#  c #31312E",
"$  c #353535",
"%  c #383636",
"&  c #363836",
"*  c #3A3A37",
"=  c #363639",
"-  c #393739",
";  c #373938",
":  c #3C3C3C",
">  c #2F3030",
",  c #471E1F",
"<  c #451E23",
"1  c #491F26",
"2  c #462124",
"3  c #492126",
"4  c #4B252A",
"5  c #413D3D",
"6  c #4E3B3C",
"7  c #453434",
"8  c #533334",
"9  c #553A3A",
"0  c #5B3D3C",
"q  c #583837",
"w  c #4F302F",
"e  c #6D2425",
"r  c #7E2324",
"t  c #7B2C2C",
"y  c #752828",
"u  c #7F312F",
"i  c #6F243B",
"p  c #71233C",
"a  c #772932",
"s  c #623738",
"d  c #733134",
"f  c #753339",
"g  c #7A353D",
"h  c #7C3537",
"j  c #3E403E",
"k  c #40413E",
"l  c #53413F",
"z  c #744B2E",
"x  c #734931",
"c  c #3E3E41",
"v  c #413E41",
"b  c #4E3E41",
"n  c #732340",
"m  c #7B3841",
"M  c #3F4141",
"N  c #3F4B57",
"B  c #3F4C5A",
"V  c #434343",
"C  c #494444",
"Z  c #454847",
"A  c #464649",
"S  c #474949",
"D  c #4C4C4C",
"F  c #494748",
"G  c #514D4E",
"H  c #58494A",
"J  c #4E504E",
"K  c #51514E",
"L  c #5B524E",
"P  c #414B56",
"I  c #4F4E50",
"U  c #414B5A",
"Y  c #514F52",
"T  c #5F4F50",
"R  c #4E5251",
"E  c #535454",
"W  c #5A5555",
"Q  c #565658",
"!  c #595758",
"~  c #5B5B5B",
"^  c #585957",
"/  c #654B4C",
"(  c #6B4847",
")  c #665656",
"_  c #7B504E",
"`  c #5F615E",
"'  c #61615E",
"]  c #5E5E60",
"[  c #615E60",
"{  c #5F6062",
"}  c #636363",
"|  c #696969",
" . c #666867",
".. c #9B1D1E",
"X. c #AC1A19",
"o. c #B11C1D",
"O. c #861E2D",
"+. c #881F2E",
"@. c #891F30",
"#. c #861F30",
"$. c #832525",
"%. c #8C2524",
"&. c #832826",
"*. c #85222C",
"=. c #8A222D",
"-. c #85292A",
";. c #8B2C2B",
":. c #8C2925",
">. c #922B2B",
",. c #962425",
"<. c #883B2A",
"1. c #872031",
"2. c #8B2232",
"3. c #8E3332",
"4. c #853C3C",
"5. c #8A3B3C",
"6. c #853636",
"7. c #9B3233",
"8. c #933B3A",
"9. c #943537",
"0. c #95312D",
"q. c #B62424",
"w. c #B92526",
"e. c #BE2929",
"r. c #A7233D",
"t. c #A9243E",
"y. c #A33939",
"u. c #AE3132",
"i. c #CB2434",
"p. c #C72232",
"a. c #A8523B",
"s. c #A44C35",
"d. c #9A3942",
"f. c #853E42",
"g. c #AA2541",
"h. c #A92642",
"j. c #A52C5E",
"k. c #A82C5E",
"l. c #A52C61",
"z. c #A82960",
"x. c #CF3E5A",
"c. c #CE3E57",
"v. c #D13E5A",
"b. c #884343",
"n. c #9F6F4A",
"m. c #9E714B",
"M. c #A16F4D",
"N. c #A0704A",
"B. c #B46A51",
"V. c #D0425B",
"C. c #C36956",
"Z. c #DC556E",
"A. c #DF5276",
"S. c #DF517A",
"D. c #DE4F7A",
"F. c #E24F76",
"G. c #E24F79",
"H. c #E15077",
"J. c #E1507A",
"K. c #E15876",
"L. c #E1536D",
"P. c #D3766E",
"I. c #CB6E66",
"U. c #CD9F7D",
"Y. c #D09F7E",
"T. c #CDA07E",
"R. c #D0A07C",
"E. c #646F8C",
"W. c #63718C",
"Q. c #637090",
"!. c #5F708A",
"~. c #FB77A6",
"^. c #FB79A6",
"/. c #FB77A8",
"(. c #FB79A9",
"). c #9AA4B5",
"_. c #9AA3B8",
"`. c #CE9F81",
"'. c #D09F81",
"]. c #CFA181",
"[. c #D1A080",
"{. c #EBC9B6",
"}. c #EBC9B9",
"|. c #FDE9D6",
" X c #FCE9D9",
".X c #FEE7D8",
"XX c #FCFCFC",
/* pixels */
"V V : V V M V Z V v j V V V v V V Z A C V S D D D E ~ E ~ E E F A E G K Q E E D E S V k V V F t g.L.g.u F : : c Z Z S S : & V v ",
": : V : : : : : : : : : : : : : : V j : M S K E E ^ ~ D R ~ K S : Z D K ^ [ } E D D D : - : : t r.J.g.t : V D E G D J D V : : : ",
": % % ; % % % % $ : : : : 5 : : 5 k v M V V D D E D E D S E D D D k Z Z S D D S V V A V : : 0 -.r.V.O.$.v : k : : - % ; $ O O O ",
"c V V V V V M V V V V k V v Z Z F V Z Z C V v c : V A V j : v k q $.*.r $.$.$.$.-.r 8 v M 8 &.1.r.r.r 8 ; & = $ + + O O O O O O ",
"V Z V V Z V V : Z A V Z Z Z v F A M c v V V M V V : M j v 0 $.-.$.*.1.1.+.1.+.+.1.+.&.$.$.$.O.*.r.@.$.: & : $ % > $ $ > O O O O ",
": : M V : : M : : c : : : 5 V 6 t %.&.t y 6 V V V V V 8 &.$.1.*.1.r.j.j.l.p p p j.t.r.=.+.+.r.l.*.$.$.r w % = = % ; % % % > $ $ ",
"V 5 : : : : : : % % : : # 7 y O.r.v.x.g.r.t t 9 V V 9 ;.@.*.+.l.J.G.G.H.l.l.l.J.S.G.S.H.S.G.j.p @.*.+.#.&.t $.9 : % % ; $ $ $ > ",
": : : % : % - % $ : * & w y r.c.v.j.p p g.g.r.t 9 9 $.1.1.j.F.G.J.J.j.j.S.^.^.^.^.^.(.G.G.F.S.J.l.i p g.t.r.=.r 7 # > $ $ $ $ O ",
"$ % ; % % % % : % % % 7 y r.v.j.p i p p i p r.g.t $.1.1.j.S.J.^./.S.D.~.(.(.G.^.^.^.~.(.J.H.l.J.(.J.i p p p g.r.r w : = $ $ $ $ ",
": % : : ; : : : : : 6 t r.v.~.F.j.p p p p p p r.r.@.=.l.H.(.(.^.S.^.~.~.^.^.G.J.~.^.^.^.(.S.J.j.J.^.S.p p j.G.x.O.$.: $ % + $ : ",
"> $ $ % ; : 5 : : : e t.t.J.~.~.S.j.j.p p j.S.G.p p j.J.^.^.~.^.H.(.(.(.^.F.S.j.^.^.~.(.^.S.^.~.j.(.^.j.p j.G.l.O.$.: : $ % * % ",
"V Z V F Y S S D S D 6.t.k.j.G.~.(.^.^.^.^.J.A.l.p p H.^.^.~.^.(.^.^.~.(.^.F.J.j.^.^.(.^.^.j.(.^.j.G.^.J.l.p j.p +.$.- = $ $ $ > ",
"~ ^ E ~ ~ ^ E E ^ ) 8.g.J.j.j.J./.~.J.H.S.J.j.p p j.^.~.^.^.~.^.(.^.(.J.J.J.k.j.J.^.^.^.J.j.J.~.J.j.^.(.S.p p j.r.r 8 : $ & $ > ",
"Q ~ ^ ~ J J E D K 5.h.V.^.D.j.p l.J.H.G.l.l.l.p p D.^.^.^.(.(.(.^.^.J.J.j.N.M.N.H.^.(.~.S.k.j.(.(.l.J.^.^.J.n p V.@.$.: : ; % = ",
"S D E E D D K E D 5.h.(.~.^.A.l.p p j.l.j.j.p p l.^.(.^.^.^.^.^.^.F.J.l.Y.T.`.m.j.^.~.(.j.N.j.~.~.S.j.S.^.^.G.j.p =.-.Z j V V : ",
"E E D S E E E K E 5.h.^.~.~.(./.J.j.p p i p p i H.^.(.(.~.^.^.^.H.K.k.T.p p T.N.j.(.^.^.k.T.m.J.^.G.p D.G.^.^.F.l.+.r 4 $ $ $ # ",
"E D D D S C S S F 6.t.J.(.^.~.~.~.J.H.j.j.p p i S.~.^.(.^.^.(.G.S.l.N.].T.l.p m.l.^.~.S.n.R.p p ^.H.p H.j.D.J.^.(.c.*.r % $ = % ",
": v V Z V 5 Z C V t t.j.S.H.J.S.J.l.j.j.n i p p J.^.^.^.~.^.F.S.j.N.U.T.R.].T.i J.^.^.l.T.p N.j.^.H.i H.j.p j.l.j.@.r w $ % = O ",
"S D D D D G D D D >.v.j.p l.A.J.j.l.l.i p p . p H.^.^.^.(.(.A.G.l.U.].T.T.T.R.N.^.H.l.N.T.U.T.p S.l.p G.j.i p p i r.t v : * 5 : ",
"S D V C V Z S S S -.Z.G.j.p l.j.j.j.j.1.@., X X j.~.~.^.(.A.H.l.m.Y.U.].m.N.T.j.H.l.m.].T.M.T.p l.p l.H.j.p j.j.j.g.t v j : j : ",
": : : : % ; : : 5 r Z.^.J.j.p p l.l.p @...i.    l.^.(.^.~.J.l.l.T.T.T.}.{.{.N.j.j.T.T.'.N.}.T.n j.p J.G.l.p j.p p +.&.: : : : : ",
"% $ % = % % $ % w $.x.^.(.^.J.k.p p *.+.,.i.    p (.^.(.J.J.j.m.T.N.o   X X {.}.T.T.T.T.{.o X X p j.H.J.j.p p l.j.r.t M * : j 5 ",
": M V : V : : V $.#.r.J.^.S.J.J.l.p +.&...p.i.X p H.^.~.H.H.j.R.M.X W.p p n X {.}.}.{.{.X p p W.p z.J.J.p i l.l.l.=.-.V M V : : ",
": : : : : : : : $.*.p j.J.A.J.j.l.+.+.$...i.p.X p l.^.G.J.j.m.T.  ).XXj.XXp p }.{.{.{.}.x ).p ).i j.G.j.n X.p j.i +.&.c v : : : ",
"A Z C V Z Z V Z $.=.j.p p j.l.j.1.=.-.q d ,.i.i.X k.G.G.F.p U.}.x XXXXj.n p p {.}.{.{.{.N.p p ).p j.J.l.o.o.p p t.1.-.Z Z V V Z ",
"D J R D E K E ( 3.g.G.~.l.i p 2.1.9./ E / 8.P.{.i.p J.G.l.p T.{.U.XXXXj.p i l.{. X X X}.].p p _.p j.l.i o.o.p l.2.;.q Z V V V : ",
"Y D E R E E E 9.2.g.(.H.J.j.2.2.3./ W E 8.C.a.N.w.p l.G.i z U. X{.T.XX).l.j.T. X|. X X|.{.T.j.N.p j.j.o.-.o.p z C.I.d V V V : : ",
"I Y I D D D T 4.g.H.j.j.l.2.2.9.( E ~ / 8.P.}.z q.p k.k.p x ]. X|..X|. X X X|.|.|. X X X X X}.N.p l.i X.X.T.{.}.z <.$.6 : 5 v : ",
"K E D D I I 6.t.K.l.p 2.2.2.3.( Q E R 5.C.a.N.x {.|.j.n i z U..X X X X X X|. X.X|. X X X X X{.x p p X.X.z {.N.x N.B.I.y c : : : ",
"C V V M l t =.r.J.@.+.#.-.-.9 V Z E R b.P.T.x x N.{.l.p q.z m. X X X X|. X.X X X X|. X|. X XT.z i o.o.p N.].x x x <.;.H S D V Z ",
"= : % % y t.v.r.+.+.r r w - : % V ~ ' b.P.}.z z N.T.p w.8.w.z U. X X X Xi.i.i.i.i.T. X|.|.T.x i w.8.q.j.N.N.x z N.C.8.E E E K E ",
": : : c 7 t r.r.$.$.8 : : : : : V E ~ 8.a.<.x m.M.p w.3.~ 8.w.x N.{. X.X Xi.i.i.T.|.|.{.m.X e.w.w.w.P W.l.x N.C.<.P.b.} ~ E ^ ^ ",
"V V M Z V 9 t t b C Z F D D S V D } ) ) d.2.p j.j.N W.q.w.w.w.w.e.x N.T.}. X|. X.X{.n.X X z p B W.E.W.W.W.p 2.a.0.f.W R E ! E D ",
"S Z V V Z V Z V C C S S D D D D J ^ ~ ~ f.m m U U B ).W.j.T.U.M.p B P z z z z z x p . X z N.j.W.W.Q.W.W.B U m 5./ W Q E E ~ E D ",
"% * : : : ; : : & & = : : : j V : ; : : 6 y d B U P ).).!.j.|.{.T.p p B U p p B B i B x m.T.j.W.W.W.W.N U m g 5.W E E E E E D G ",
"$ : : : : & : & * : $ % - : : : $ & : $ : e f d B U W.W.W.l. X{.T.U U p W.p j.p E.i Q.B T.U.j.B W.W.U g g g 4.W E E R E D D J K ",
"- % & % % : $ $ $ $ $ - : : : $ $ : : ; % 7 e d d f B E.P p {.U.N.W.W.W.p j.l.j.p W.W.N B.s.+.d d f g m 5.f.T E ! ! E E K G D D ",
"$ % : = % $ & % $ + $ $ % % $ % & : : : : % % y y f f d O.<.<.s.N W._.)._.J.W.H.).).9.f <.O.r e e t b.5.W W Q E R ! E E E E I E ",
"& % & % & % - : : : : : : V 5 V Z S V S V M c v 6 y y y &.$.;.f B W.).).).J.J.G.).).9.u :.s V Z k Z E D G D D Z D A Z F D D S Z ",
"V c c : M 5 V : v V V Z A C Z Z V C k V A V A Z Z Z A V k V 6.f g U W.).).j.W.l.).W.g 6.H F S D D Z V V : M V V V v M 5 5 : : : ",
"Z V Z Z V C Z V Z Z v V Z V V Z Z F S Z Z C Z V V V V V 5 V l h g U B U U j.l.j.N U g f u H Z Z C F Z S S V V V M V k 5 V 5 : : ",
": 5 c V v : V : M : : : V v V V V j V : : v V : V M Z F Z V G 4.g W.W.B U U j.U j.P W.d.g 4.E E R D Y D D S Z C Z V D S V V V V ",
"V V V : v V 5 V V V Z V k V : : k V V V V Z v : V V : V c : T b.d.W.W.W.W.W.H.J.J.W.W.).d.5.H Y E E E E G D S D S S F S F D S Z ",
"E E E E E D R E E W E ~ ~ E Y E E ~ ~ ~ ~ E E ~ E Q E R E L 4.g u.).).W.!.W.j.J.J.S.).).u.m 5.E E E E W K J E R D Y E G E D D D ",
"K E E E E E E ~ ~ E E E ~ ~ ~ ~ } ~ ~ ~ E ~ E ~ E J E ! ^ 5.f d._._.).).).).).H.W.j.).).).m 6.E ^ E E R Q ~ ^ I D E E G C S S S ",
"E R D D E E E D E E E I R ~ Q E ~ E E E G E E E ^ I E E W 7.1 U W._.).).).).).H.H.l.U W.Q.m y.( E Q E R E E E I E K D D D D D F ",
"D Y C E E D S D E E ^ D R W ^ ~ E W E ^ ~ E E E ^ ~ ~ Q ( >.2 X o P W.W.W.P P k.X . X   X 2 < 0.( G E K E E G I E E Y E E D D D ",
"E D E E E D E E I E E E E E E E E E D E E D E E G D D E >.3 2 X o o o X o o X X X o X X X X 2 3 7./ E K D E E D D S D D Z V Z F ",
"D D E D D D D D D E D E D G J D D D D D D J D D D D D D ,.3 X X . .   O X X X X         X o X 2.2.9.Y E D A D D C S S C S V : : ",
"D S S E I D D K E E E E E E E E K D Y D D E D S D E D H >.3 X X i A.~.(.^.J.X . .     . O k.J.g.+.>.D D D D S F D D S S G k $ : ",
"D D K G E D J G D I D D D E E E E E E E E E D D J D H 6.g.1.j.G.D.j.h.t.g.Z.^.D.l.    j.F.A.l.1.3.( Y D E E D D Z Z C D Z : % ; ",
"E D E E ^ E E E E D E ~ ~ E E E ~ E E ~ E E W E E / 5.h.2.J.D.l.p 1.2.3.9.2.V.K.A.A.D.j.j.j.N.<.8.) ~ ^ E ! E E E E D D D c : : ",
"Z S D D D D S D E E E E E R D G D D D D R D C D D u g.1.p p j.i j.<.;.0 0 ;.;.3.1.=.1.<.a.U.'.C.g.6.D F S Z A Z Z S V : V : % % ",
"% : : : % % : = : : V v V V : V V v c V V V : V V t t.i n J.{.T.s.<.=.M V V V 8 t ;.-.-.O.g.G.G., %.s v M j : : : : : V : : : : ",
": : : : : : : : : V : V V 5 Z Z Z V F Z Z Z Z V Z :.V.p H.M.{.}.C.:.s Z V v V A C C C l ;.1 X X < , %.: v 5 c V V : V : : : : : ",
"V v : : : : : : V Z V Z V V c 5 V V 5 : v 5 V V k =.x.x.g.< l.S.v.&.j * : V : k M V k 5 %.< <   X < %.: * : : * : : : = : % : : ",
": : % : : : Z : : : : : : : % % % : : : : : c V k s &.%.%.<   X , %.: v M V M V : V V V s ,.<   . < %.s 5 : : : : 5 : : : : : % ",
"E ~ E ~ ] ~ ! ! G D ~ ~ ~ ~ E R E ~ E ^ ~ E E E E ^ E 7.3 3   . 2 7.! ~ W E ! ^ Z : : V V %.2 . . 1 < %.V v c * : : : : : % % % ",
"} } } | | | } } | | ` } | | ~ } | } } }  .| | | |  .} y.3 X . . 2 7._  .} ~ ]  .R c M Z V ,.<       < %.s V V j V : : : : : ; : ",
"~ ~ ~ E E ~ ~ ` } } ~ ]  .} } ~ } } } } } ~ } } } ] _ y.3   X X 2 2 7.~ } E ~ ~ D % V V M %., .   X < < %.9 : V : : : : ; = $ % ",
"} ` ~ ~ ^ ~ } ~ } } } | | { {  . .[ } ~ ~ } } ~ ) { 9.3 3 . o     3 y._ ~ } }  .J : 5 M V %.2 X X X X , +.&.V V V M j M : : % % ",
"} ~ E ~ ~ } } ~ } ~ ^ E } ) ` } } ~ ~ ~ ' } } }  .} y.4 X X X . X 3 3 y.~ ~ ) ' D 5 A V V -.@.2 . . X < =.-.c : : : : : : % % ; ",
"V v Z V V v V V : : : : : j c M V k V : V V c k V V -.1.2 X X X X . < %.j M M M V V k 5 : 0 &.t.v.x.V.r.&.8 : : % % = $ $ $ $ = ",
"V Z V 5 : : : : V V V : V : V M : V V : c V V 5 V V q &.1.t.v.x.x.g.+.-.V V M V C V V Z V V 6 t %.$.%.t 6 : : c : ; : $ $ $ $ % "
};
