/* XPM */
static char *Layer_201677303407[] = {
/* columns rows colors chars-per-pixel */
"64 64 181 2 ",
"   c #1C1F25",
".  c #1B1F28",
"X  c #1B2125",
"o  c #1A2029",
"O  c #2D2D2D",
"+  c #2E322C",
"@  c #353535",
"#  c #3A3536",
"$  c #363837",
"%  c #393937",
"&  c #363639",
"*  c #393638",
"=  c #3C3C3C",
"-  c #373939",
";  c #35312F",
":  c #461E23",
">  c #481F25",
",  c #462125",
"<  c #492125",
"1  c #4B282B",
"2  c #413E3E",
"3  c #4A3838",
"4  c #5D3534",
"5  c #5A3B3A",
"6  c #543637",
"7  c #4F2F30",
"8  c #6D2324",
"9  c #742626",
"0  c #7D2423",
"q  c #712529",
"w  c #7B2C2C",
"e  c #762B2A",
"r  c #79302D",
"t  c #6F243B",
"y  c #72233C",
"u  c #752F37",
"i  c #7C3131",
"p  c #75333B",
"a  c #79373E",
"s  c #7A383E",
"d  c #753336",
"f  c #653C3C",
"g  c #3E403E",
"h  c #41413F",
"j  c #48403E",
"k  c #744B2E",
"l  c #734930",
"z  c #3E3D40",
"x  c #413F41",
"c  c #513E40",
"v  c #722340",
"b  c #7C3942",
"n  c #3F4141",
"m  c #3F4B56",
"M  c #3F4B5A",
"N  c #434343",
"B  c #494545",
"V  c #454846",
"C  c #494947",
"Z  c #464648",
"A  c #494648",
"S  c #464949",
"D  c #4C4C4D",
"F  c #554949",
"G  c #4E504E",
"H  c #51514E",
"J  c #5E504F",
"K  c #414B57",
"L  c #4E4F51",
"P  c #414B5A",
"I  c #524F51",
"U  c #4F5150",
"Y  c #535453",
"T  c #595657",
"R  c #565956",
"E  c #595956",
"W  c #565659",
"Q  c #575958",
"!  c #5B5B5B",
"~  c #59575B",
"^  c #624342",
"/  c #6A4747",
"(  c #724647",
")  c #665555",
"_  c #5E605F",
"`  c #61605E",
"'  c #5D5E61",
"]  c #615E60",
"[  c #5F6062",
"{  c #636363",
"}  c #696969",
"|  c #686767",
" . c #AD1B1B",
".. c #AB1817",
"X. c #B01C1B",
"o. c #881F2E",
"O. c #851F2D",
"+. c #861F30",
"@. c #891E31",
"#. c #832524",
"$. c #8B2424",
"%. c #86222D",
"&. c #8A222C",
"*. c #852A2A",
"=. c #8C2B2C",
"-. c #882927",
";. c #932D2C",
":. c #94282A",
">. c #8A3E2C",
",. c #86392A",
"<. c #97312F",
"1. c #872131",
"2. c #8A2232",
"3. c #872E31",
"4. c #962E30",
"5. c #8D3233",
"6. c #863938",
"7. c #943334",
"8. c #9A3333",
"9. c #96383A",
"0. c #B52323",
"q. c #B92524",
"w. c #A6233D",
"e. c #A9243E",
"r. c #A13A38",
"t. c #CB2436",
"y. c #8C413E",
"u. c #A9523C",
"i. c #A74F38",
"p. c #883E42",
"a. c #973742",
"s. c #AB2542",
"d. c #AB2642",
"f. c #A52C5E",
"g. c #A93245",
"h. c #A52C61",
"j. c #A82C62",
"k. c #CE3E59",
"l. c #D13E5A",
"z. c #D03D57",
"x. c #8A4240",
"c. c #9F6F4C",
"v. c #9E714A",
"b. c #A16F4C",
"n. c #A1704B",
"m. c #CF415B",
"M. c #D2415C",
"N. c #C26857",
"B. c #DE4F7A",
"V. c #DF5275",
"C. c #DF5179",
"Z. c #E14F76",
"A. c #E24F7A",
"S. c #E15077",
"D. c #E1507A",
"F. c #E05870",
"G. c #CB6D63",
"H. c #CF7267",
"J. c #CD9F7D",
"K. c #D09F7E",
"L. c #CDA17E",
"P. c #D0A07C",
"I. c #63718C",
"U. c #646F8B",
"Y. c #FB77A6",
"T. c #FB79A6",
"R. c #FC79A9",
"E. c #FD77A9",
"W. c #9AA4B5",
"Q. c #9BA4B9",
"!. c #CD9F81",
"~. c #D09F81",
"^. c #CFA180",
"/. c #D1A080",
"(. c #EBC9B6",
"). c #EBC9B8",
"_. c #EAC8B7",
"`. c #FDEAD6",
"'. c #FDE9D9",
"]. c #FEE7D9",
"[. c #FCFCFC",
/* pixels */
"N N = N N N x Z N N = N N N h N N V Z Z h C D D D Y R R Q Q / *.*.5.5.5.5.9.5.5./ S N 5 *.*.d.s.+.*.Z Z A h = g Z Z A A g % n n ",
"= = N = = = = = = = = = 2 = = = = g g h z Z H Y W R ' f 5.9.5.2.&.2.2.2.2.2.2.2.=.5.=.*.O.o.e.w.-.*.6 2 = N S Y U D D D N = = = ",
"= = $ * * - $ $ @ = = = = = x = = N n z N N A D L ^ 5.3.2.&.2.e.h.h.f.t y y j.d.s.1.@.o.w.f.f.+.o.+.#.#.6 = = = = * $ # @ O O O ",
"= N N N x N 2 N N h N N N N Z Z V Z A Z S N h N 5 *.2.@.%.f.S.D.A.C.h.h.h.D.D.A.Z.C.D.V.f.t t t f.w.d.&.0 7 - @ O + O O O O O O ",
"N Z = N A Z N x N Z n 5 r =.$.=.i w w 6 N N 2 5 *.o.%.h.B.Y.R.D.f.f.S.R.T.R.T.T.D.T.D.S.A.A.h.y y y t w.1.0 7 @ O @ @ O O O O O ",
"= = N N g = = = = 3 i $.e.M.z.l.w.s.w.w e 3 5 *.2.o.f.A.Y.R.T.C.S.R.R.R.Y.Y.R.T.T.S.T.S.j.Z.T.A.t f.D.y O.o.0 = * = * $ @ O @ O ",
"N = = = = = = = 3 q w.z.k.h.y y y h.w.s.s.w *.%.O.h.C.E.Y.T.S.T.R.T.R.S.T.T.T.T.T.V.T.Y.B.f.R.T.A.y y y h.k.-.x = - $ * @ * @ @ ",
"= = = % % = $ $ 9 w.l.f.y y y y y y y f.s.e.2.o.y A.T.T.T.D.R.T.T.S.S.f.T.T.R.T.R.f.T.T.Y.h.V.D.T.h.y h.A.l.-.7 O @ @ @ @ @ O O ",
"$ @ % $ - * @ 3 #.z.R.Y.D.f.f.y y y f.D.D.f.y y f.T.T.T.Y.R.R.Y.S.S.f.h.R.T.T.T.R.h.D.R.T.A.f.C.R.S.t y A.k.1.#.% * = = @ @ & @ ",
"= $ = = - z = w w.z.Y.Y.R.T.T.C.D.V.D.S.h.y t v S.T.T.R.Y.R.R.S.V.f.L.v.S.R.T.T.T.n.f.R.T.T.f.C.R.T.f.t h.C.%.0 = = * $ - + & = ",
"+ @ @ # $ = = 9 w.h.Z.Y.Y.R.T.T.R.S.h.y y y y h.T.R.T.R.R.R.D.S.f.^.^.K.D.Y.T.Y.D.L.f.T.T.T.j.C.T.Y.D.v y y 2.5.N = = * * * * & ",
"N Z N A H A D =.l.f.f.C.T.T.D.A.f.h.y y y y y C.T.R.T.T.T.R.D.f.y y L.K.f.T.Y.T.D.L.n.S.T.T.f.D.S.Y.R.h.t j.d.7.6 = = $ $ $ @ O ",
"~ E T ! ! T J 7.F.D.f.y h.h.f.f.f.y t y y y y T.T.T.R.T.T.D.f.L.J.h.y L.n.Y.R.R.f.P.y t R.R.f.D.D.R.T.S.t h.m.&.*.= - = @ @ $ + ",
"~ ! ! R D Y 6.s.F.Y.D.f.y y t y y t t y y y f.T.Y.R.T.R.T.f.v.L.L.L.L.t L.S.T.T.h.y J.f.Y.Y.h.D.D.C.R.Y.S.y f.2.-.n z z = - * * ",
"D D Y Y C L <.M.R.R.Y.R.D.h.h.f.t y y t y y f.R.Y.T.T.T.D.n.L.L.L.!.L.J.L.f.Y.T.h.J.P.h.T.D.y C.D.h.D.R.Y.A.t 2.*.N Z n N N N = ",
"Y Y A D H Y 7.M.T.T.Y.Y.T.D.D.h.y y y y X y f.T.R.T.T.T.h.P.L.L.b.v.L.J.P.n.T.R.L.n.J.h.R.f.y D.D.V.y h.C.Y.C.o.*.* @ @ ; & + @ ",
"L A D C A B i e.A.T.R.C.D.C.S.h.y t v y   X f.T.T.T.T.D.L.L.L._.).).n.L.L.^.S.Y.n._.(.n.A.f.y C.D.D.f.y y v y o.0 = - - * @ $ # ",
"2 N N Z N h *.2.f.h.A.D.A.D.h.y y y y X X X h.T.Y.T.R.D.L.n.X X X X (.(.L.L.h.C.P.  X X h.y f.A.A.S.h.y y h.h.w.#.7 $ * $ @ @ @ ",
"S A A D D D 5.&.d.t h.f.f.f.h.y y t  .t.  X y T.R.R.Y.f.n.X I.t t y X ).).(.L.f.X t y I.  t f.A.S.S.y t y h.f.d.@.*.2 x = = z = ",
"S D V V N Z f =.l.f.y y h.h.f.y y  .X.t.X   t S.T.Y.S.h.X W.[.h.[.t v (.).(.).L.v.Q.y Q.l y h.Z.D.C.y X.y y h.t %.*.z g = = = = ",
"= = = $ % - - #.k.Y.A.h.y y y y y ..X.t.t.X X h.T.T.D.f.l [.[.f.y y y _.).(.)._.n.y y [.k y f.A.D.D.t X.y y y y w.w z = = = z = ",
"$ $ * $ % @ * #.k.Y.R.R.D.h.y y .. .0 ..t.o   f.S.T.f.n.^.[.[.f.y y f._.'.`.'.(.P.y y [.v.y f.A.A.D.y  . .y y ).o.-.N = = = x = ",
"x = N 2 g g = w s.V.R.D.S.h.y y '.^. ...v.t.X t D.T.f.v._.L.[.W.h.f.(.'.'.'.'.'._.L.f.L.L.k t C.Z.f.y X.J.y _.L.,.G.r N h x = = ",
"= = = = = = = #.o.h.C.Z.f.f.y ..n.'.L.k _.k X   f.A.y v.`.'.'.'.`.'.`.`.'.'.'.`.'.`.`._.P.b.t f.D.h.t X._.k K.v._.N.w 2 2 = = = ",
"B Z N N N Z N *.@.&.h.f.f.h.L.'.).n.).n.'.n.X.o h.f.y v.'.`.].'.'.`.`.'.'.'.'.`.'.'.'.`._.b.y f.S.y ..k _.k n.(.l o.*.Z N N N N ",
"D D D Y H I R / 5.d.S.y v y n.(.'.(.L.J.'.n.q.q.t h.t k _.`.`.'.'.L.).`.`.`.'.`.'.].'.`.).c.t y S.y X.y ).n.k v.N.G.d Z N N N N ",
"L D H Y Y R Y R 6.d.D.D.f.y q.k v.!.L.L.(.l 0.9.q.h.q.l b.].'.'.'.n.[.[.[.[.[.L.'.'.'.`.L.l X.y f.y P f.b.L.k N.G.r N N N N = h ",
"D Y H D U D H L 5.2.d.h.d.2.N.H.H.L.J.P.v.t M 0.0.t q.q.k /.].].'.L.[.[.[.[.n.'.`.'.`.L.l X.0.t K I.P h.l v.i.,.-.c n x = g = = ",
"U H A U U U Y I / 5.d.Z.2.7.6.8.>.i.n.l f.I.Q.I.K 0.0.0.0.l v.).`.'.P.[.[.L.`.`.`._.b.o  . . .m I.I.I.I.h.k ,.#.4 = = = = = = = ",
"A N N N N n N N g *.o.l.o.*.h 4 =.2.d.f.P I.W.W.Q.I.f.^.J.v.M l n.P._.'.'.'.'.).b.X o b.y I.I.I.I.I.I.I.P 1.&.5.D H H D D D N Z ",
"- % % # % - * @ $ 7 0 w.w.9 = @ 5 7.b s P m I.Q.W.W.I.f.`._.J.y P l k l l k l y X X v.L.h.I.I.I.I.I.m M s a 9./ W ! T R Y Y H Y ",
"= = = = = = = = = = 0 o.l.#.2 = Z ) y.b b m P m I.I.I.f.'.).J.M t P y h.t P t P I.b.K.L.h.P I.I.m P b s b x.) ! ] ! ! ] ! R T ~ ",
"N N N N N h x x N Z j $.d.3.A Z C _ ) x.b b b M P P M y ).~.v.I.I.y m f.h.y P I.I.v.n.v.q m P P s s a 6.p.J R R Y ~ Y Y Y T Y D ",
"C Z N Z Z Z Z N N C F F 6.F G C H ! ! ) x.6.b b b b 2.>.>.u.M I.Q.W.W.D.I.C.W.W.g.>.y.y.&.d p s a 6.p.) { ! ! R R ~ R Y R ~ I D ",
"% = = = = % = = # = - = = = g N z = z = = 3 e i i i *.-.=.d M I.W.Q.W.C.D.A.Q.W.7.#.O.$.0 8 e e 9 F { ! ! ! ~ R R Y I Y Y Y D Y ",
"@ = = = = $ = * * * @ * # - = = @ % - - * = @ ; @ O @ + 8 u u K I.Q.W.V.C.C.W.I.i 8 ; @ ; @ @ O O 2 W R Y Y Y Y Y Y I Y D A Y D ",
"% @ $ @ $ * # @ $ * # % % = = % @ = = $ % $ @ @ @ $ $ @ # q u P P P I.D.I.D.K m d u 8 $ * $ @ $ O N ! Q E W Y R R R Y Y Y D D D ",
"@ $ = * $ @ $ $ $ O ; @ $ # $ @ % = # = % @ $ @ @ @ @ ; + 8 u M P K P f.f.f.P P I.u q # * % @ $ O Z ' R R ~ Y R Y Y R Y Y Y D U ",
"# * $ $ $ $ $ = - = z = = h g Z Z Z B S Z h h h g = = z n e p I.I.P m f.f.h.M I.I.a.d i F N h B n C Y H D D Z C A A Z A U C A A ",
"N x = = N = N g g N Z S Z S B B N Z h N V h Z Z Z Z Z n 3 r p I.I.I.I.I.D.I.h.I.I.Q.9.a 3.B A C D Z N h = N N N N N n N = = = = ",
"Z N Z N Z Z N N Z N N N Z N N Z Z V Z Z N Z N Z N Z Z N r p a.W.W.W.W.Q.S.D.D.W.Q.W.W.8.a :.f Z N Z N A V Z N h = N N g N = = = ",
"= = N N h = h h x = = = N h g N N 2 N x = h h = 2 z N V i p I.W.W.W.Q.W.f.A.S.f.Q.W.I.m : , <.( U U Y A A A A Z N Z A D N N N N ",
"Z N = = N N h N h N Z N N 2 = = h N N N N x N = x x z x $.: M I.W.W.Q.W.W.Z.I.D.K X o X   : < 8.7./ R Y Y D C D C A V C A A A S ",
"R Y Y Y Y D L Y Y T R ~ ! Y Y Y R ! R ! ! R R ! R ~ W l <.,   X   m I.I.K h.f.  X o   o y T.F.M.2.5.R Y D L Y I D Y Y D Y D D D ",
"Y Y Y Y Y R Y R W R I Y ! T ! ! ! ! ! ! R ~ T T Y I ( 8.: : X .   X X   X X o X X   X h.Y.P.(.P.y.<.J H R R W H D Y Y Y A S A C ",
"Y D L H Y Y Y D Y R R L Y ! R Y ! R Y Y D Y R Y R U 7.: : O X X X   X X o X X X X o y R.^._._.(.m.e.6.H Y R Y H Y U D C U D D V ",
"D D Z D Y D A D Y Y R D D ! ~ ! ~ T ~ R R Y Y R Q ) 9.2.f.    X X X X X o X X X t M.M.d.>.i.L.S.o > 8.l R I D H Y Y Y Y Y D D D ",
"D I Y R Y D I Y D Y I R Y Y Y Y I R D I Y D Y Y A 6.d.l.T.T.A.f.y X   X X   y d.d.&.8.6.9.>.d.X . > : 4.L Y Y U A A D C Z N Z C ",
"U D Y D D D D D D Y D H D L D D D D D D H L D D H =.2.1.y h.f.Y.T.E.T.B.h.l.l.2.5.5.^ U / 4.,   X   , 4.D Z D D Z B C Z C N = = ",
"D D A H D D D H L R Y Y R Y Y Y H D D D D Y D Z A / ;.d.y A.y y y 1.&.o.1.&.4.3.F D D S D :.< X o o > ;.D D D Z C D C Z D = @ = ",
"D D Y D L I U D D L D D H Y Y I Y Y Y Y Y H D D D ;.M.1.f.k b.!.~.,.=.5.3.5.^ D D F W Y Y ;.> X X X , ;.( I I A C Z Z D Z = $ = ",
"Y D U Y R R Y Y I H Y ! ~ Y Y R ~ Y R ! R Y W Y Y 7.M.y M.>.N.(._.u.9.Y R R ! ! ] ! ) ' { 8.< X   X < , 8.( R R Y Y U D H = = = ",
"A A D D D D A D H Y Y R Y L D H D D D D H D A D D =.l.2.M.=.N.(.(.d.3.V Z A D D D D D D H 4.:   X   o : > =.V Z Z Z N N 2 = = $ ",
"% = = = * $ = % z N = g N N = x N h h N N N = N V 4 -.l.l.-.s.A.V.> -.= N N n x N Z N N 2 9 w.: X   . X : $.= = = = = = = = = = ",
"= - = = = = = = = = = N N N Z Z Z N Z Z Z Z Z N Z Z f -.=.:.:   X : :.Z N z N Z N Z V C B F i s.>   X : o.#.2 x h = x 2 = = = = ",
"N n = = = = = = Z Z N Z N N = h N h g g N = N N g N = g z $.: .   : $.4 = h g z h N h = 2 2 3 #.k.k.w.%.#.6 % = = = = $ = @ = = ",
"= = * = = n N = = = = = = = $ $ $ * = = = = = N n N n - x $.: X X : , $.N N h g x N Z n N N h f -.-.w *.6 g = = = N = = = = * $ ",
"R W R W ! ! ! Q D H ! ! ! ! Y I R R R ~ ~ Y Y R Y Q Y Q Y 8.<   X X < 8.( W W ! V = = N N N N h x N h N h z = = = = = = = $ # $ ",
"{ { { | } } { { } } ` { } } ) { } | { { | { } } } | | } } r.1     X < < r.' ' | U = h Z N n N h N z n N N N N 2 N = = = = = = = ",
"! ! ! R R ! Q ' { { ! _ } { [ _ { { { { ` { { { { ! [ { ) 9.< X X   o , r.( ! ! A = n N 2 g = = = = = z g n = N = = = = * $ @ @ ",
"{ { ! ! W ) _ _ { { { { } [ [ | { { { ! ! { { ! [ ` ! { ' 8.< o   X o , > r.] | U % n h N g N n N N N N x N x N x N = z = = * $ ",
"! ! R ! ! { { _ { ! ! R [ [ _ _ { ! ! ! { { { { { { { { } r.< X X X o . > 8.] { D h Z N N Z Z N N N N N N z n = = = = = = $ $ * ",
"x N N N N N N N x = = * = g = h N N N g N N N = N N N h Z =.o.> X X o : l.$.= h h N g h = N N g = z 2 = N = = = * $ $ @ @ @ $ $ ",
"N Z N x = = g = = N N g N = N N = 2 N = z N g x h N N h N 5 *.@.d.m.l.l.-.4 N Z Z N N Z N N N x N z N 2 x = = = = = = @ # @ @ $ "
};
