/* XPM */
static char *Layer_221677303408[] = {
/* columns rows colors chars-per-pixel */
"64 64 183 2 ",
"   c #1B1F25",
".  c #1C1F28",
"X  c #1B2025",
"o  c #1A2029",
"O  c #172226",
"+  c #2D2D2D",
"@  c #353535",
"#  c #393936",
"$  c #373739",
"%  c #373939",
"&  c #3C3C3C",
"*  c #383737",
"=  c #33342F",
"-  c #451E23",
";  c #491F24",
":  c #452123",
">  c #492126",
",  c #4A2229",
"<  c #403E3F",
"1  c #4D3D3C",
"2  c #483433",
"3  c #5A3937",
"4  c #5A3B3B",
"5  c #583636",
"6  c #4F2F2F",
"7  c #742525",
"8  c #762826",
"9  c #762B2B",
"0  c #7A2C2B",
"q  c #7C2525",
"w  c #7A312F",
"e  c #6F233C",
"r  c #7B2E31",
"t  c #72233C",
"y  c #732838",
"u  c #7C3233",
"i  c #76333B",
"p  c #7A343D",
"a  c #783639",
"s  c #673D3E",
"d  c #3E413E",
"f  c #41413E",
"g  c #744A2E",
"h  c #744931",
"j  c #3E3E40",
"k  c #413F41",
"l  c #5E3E41",
"z  c #712440",
"x  c #6E3A40",
"c  c #3F4141",
"v  c #3E4B56",
"b  c #3F4B5A",
"n  c #434343",
"m  c #494546",
"M  c #464846",
"N  c #464549",
"B  c #494748",
"V  c #4C4C4C",
"C  c #484947",
"Z  c #514E4E",
"A  c #574847",
"S  c #4D504E",
"D  c #51514E",
"F  c #414B56",
"G  c #4F4E51",
"H  c #414B5A",
"J  c #524E52",
"K  c #4F5151",
"L  c #535353",
"P  c #595555",
"I  c #565856",
"U  c #575659",
"Y  c #595759",
"T  c #565A59",
"R  c #5B5B5B",
"E  c #585956",
"W  c #664746",
"Q  c #754849",
"!  c #635858",
"~  c #735554",
"^  c #5F615E",
"/  c #60615E",
"(  c #5E5E60",
")  c #615F61",
"_  c #5F6160",
"`  c #636363",
"'  c #696969",
"]  c #676868",
"[  c #AC1919",
"{  c #AA1617",
"}  c #B01C1C",
"|  c #88201F",
" . c #881F2E",
".. c #851E2F",
"X. c #891F31",
"o. c #861F31",
"O. c #B61F21",
"+. c #832525",
"@. c #8A2524",
"#. c #822827",
"$. c #86212D",
"%. c #89202E",
"&. c #852A2A",
"*. c #8B2B2C",
"=. c #8D2927",
"-. c #922B2B",
";. c #8B3D2C",
":. c #863729",
">. c #872032",
",. c #8A2232",
"<. c #852F32",
"1. c #952E34",
"2. c #8E3433",
"3. c #853A3A",
"4. c #8C3A3B",
"5. c #863735",
"6. c #933434",
"7. c #9A3233",
"8. c #943C3B",
"9. c #98373B",
"0. c #B52323",
"q. c #B92526",
"w. c #A7233E",
"e. c #A9243E",
"r. c #A23A39",
"t. c #CC2435",
"y. c #A74E39",
"u. c #AA523C",
"i. c #9B3B42",
"p. c #AB2542",
"a. c #A92643",
"s. c #A52C5E",
"d. c #A82B5E",
"f. c #A52C61",
"g. c #A82C61",
"h. c #CF3F5A",
"j. c #CE3E55",
"k. c #D23E5B",
"l. c #884342",
"z. c #904542",
"x. c #9F6F4A",
"c. c #9E714B",
"v. c #A16F4B",
"b. c #A06F47",
"n. c #A1704B",
"m. c #BE6753",
"M. c #CF425C",
"N. c #D2415C",
"B. c #C56D59",
"V. c #C46A58",
"C. c #DC546E",
"Z. c #DF5176",
"A. c #DF517A",
"S. c #D8486F",
"D. c #E14F76",
"F. c #E24F7A",
"G. c #E15077",
"H. c #E2507A",
"J. c #CD7167",
"K. c #D1736B",
"L. c #CD9F7E",
"P. c #D09F7F",
"I. c #CEA07E",
"U. c #D1A17D",
"Y. c #646F8D",
"T. c #63718C",
"R. c #637090",
"E. c #FC77A6",
"W. c #FB79A6",
"Q. c #FC77A9",
"!. c #FB79A9",
"~. c #F57AA6",
"^. c #9AA4B5",
"/. c #99A4B7",
"(. c #CD9F81",
"). c #CEA181",
"_. c #EBC9B6",
"`. c #EAC9B8",
"'. c #EEC7B6",
"]. c #FDE9D6",
"[. c #FDE9D9",
"{. c #FEE7D9",
"}. c #FCFCFC",
/* pixels */
"n n & n n & n M n n j d n n n f M n M m n B V B V L I I I I L n M D G L I U L G <.o.a.e.e.k.C.k.*.M M M M & < k M M B B & $ n f ",
"& & n & & & & & & & & & & & & & & & n & & M L L I E R V L R L N f n V L U ! _ L h 2.p 9 7 w.!.C.+.f f & f d B I V V V V n & & & ",
"& * * $ $ & * * * & $ & & & < & k n k k n M B V G Z L Z B L B V V n M n N G V M n M M c +. .H.C.q j < j & k & & & & * $ @ + + + ",
"c n n n n n & n n n n n n n M M M m n M M n c f < f M n f & n d n f & & & & & & d k * 5 +.%.Z.k.@.& & & @ * & @ + + + + + + + + ",
"n M < n M n n d n m N n M M k B M n j f n n k n n k k 5 #.*.&.#.#.&.&.&.&.l n & 4 +.q &...w.h.w.8 j & $ % $ % * + @ @ + + + + + ",
"& & n c k & & & < & k & & & & n < k n & & d k N 4 #.#.#.>.%.>.%.%.%.%. .%.&.+.&.&...%.w.e.f.w.+.+.+.5 & * & $ * $ $ * * @ + @ + ",
"n < & & & & & & * $ 2 8 7 7 7 8 8 2 k & j N 4 #.&.X. .>.w.f.f.s.t t t s.w.p.>.>.%.p.f.f.e t >.%... .&.4 d c d f & & @ * @ * @ @ ",
"& & & * % * & * 2 7 +.w.p.w.p.p.p.8 0 1 n 4 &. . .%.s.A.Z.F.G.f.f.f.H.Z.H.H.G.H.H.s.e t t t s.s.s.e.>.+.6 & d $ = @ @ @ @ @ + + ",
"@ % * * * % * 2 7 p.k.j.s.t e t e.e.w.8 5 +.X.>.t G.H.H.G.s.g.G.W.W.W.W.H.W.!.A.A.A.H.s.t e e t t s.j.%.+.& & < @ * & % * @ * @ ",
"& & # & $ & j 0 w.h.f.t e e t t t t e.p.<...>.e Z.A.W.W.H.H.W.!.!.W.W.!.W.H.W.!.D.f.D.W.H.t t t f.A.H.>.#.< & & & & & * @ + @ & ",
"@ = @ % * & # 8 w.!.F.f.e t t e t g.G.e. .%.t f.G.W.!.G.!.W.W.W.!.H.W.W.W.!.W.W.!.D.f.H.E.H.t s.D.D.s.p.#.4 m B j & & % @ * $ % ",
"n n n B G B A -.h.!.!.W.W.E.E.Q.H.F.s.e t t f.D.!.!.H.W.!.W.~.!.D.s.!.W.W.W.~.G.!.W.G.f.!.W.s.t e z s.N.,.2.U I c & $ * * @ @ = ",
"R U I I R T 4.p.N.W.W.!.W.W.G.A.D.A.s.t t z G.W.E.W.W.W.W.~.W.H.A.f.W.!.W.W.W.f.W.W.W.f.G.!.G.s.t f.G.H.,.8.I V & & & & @ * @ + ",
"I R T U D J 3.e.s.H.E.W.W.G.A.D.H.s.e t t f.W.W.W.!.W.W.W.W.G.H.s.s.W.W.W.W.W.s.D.W.Q.A.s.!.W.F.t s.F.f.,.2.T E M d & & & $ $ $ ",
"V V L L V V 5.p.f.s.s.A.D.H.H.s.f.s.t e t D.W.W.W.W.W.Q.W.A.f.n.I.s.D.E.W.W.!.f.A.W.W.W.s.W.W.W.f.e s.f.>.6.L E B M n n d n n & ",
"I L V V J L 6.k.H.s.t t f.f.f.f.f.t t t f.H.W.!.W.!.W.W.A.s.L.I.L.n.G.!.W.W.H.s.s.E.Q.~.g.H.!.W.H.t f.e >.&.n f & * @ @ @ @ @ @ ",
"G B B V B M *.k.W.W.H.g.t t t t t t e t s.E.W.W.W.W.W.W.s.P.t z L.I.H.W.W.!.D.L.d.H.W.W.s.A.W.W.W.s.t t e.0 & & * & $ % % * * * ",
"f n M M n d *.k.!.W.!.!.!.G.s.s.t t t t F.!.W.W.W.W.!.H.n.I.I.s.e I.s.!.W.E.s.I.t t W.W.s.F.F.W.W.H.f.t e.9 & & & * * * * @ @ = ",
"B B V B V V 6.k.W.W.!.W.H.H.s.s.t t t f.D.W.~.W.W.W.!.s.I.I.I.I.).t f.W.W.A.f.t I.s.E.W.f.A.s.D.!.!.H.e p.0 n n n n k n & & & & ",
"B V M M n n <.p.H.W.W.H.H.s.f.t t   t s.Z.W.W.W.W.W.D.s.L.I.).P.I.L.f.D.!.G.I.L.).s.H.E.f.F.Z.e s.D.W.A.X.#.4 c n & n & & & & & ",
"& & & * $ $ 8 w.s.f.G.H.Z.f.t e X X X d.~.W.Q.W.W.W.f.c.I.I.n.c.).I.I.f.W.f.I.n.I.I.A.W.t H.A.f.t t t t >. .#.& & & & & & & & & ",
"* * * * * * +.h.f.t t s.f.f.z e t.X X d.!.W.W.W.!.F.f.c.I._._._.v.P.I.s.!.s.c._._.v.f.W.e H.H.s.e t e t s.e.9 c n n n d & & d j ",
"& c k k n & @.h.W.D.f.t t t t t t.X X t W.!.W.W.W.s.s.n..     o _.'.L.I.D.s.L.X X   s.H.e G.H.p.>.>.t s.s.e.&.5 k & n n j n & & ",
"& & & & & & +.h.W.W.Q.A.s.s.t t t.t.X t H.W.E.W.W.s.n.X T.t y t X '.`.I.s.s.. t e T.X s.t H.G...*.%.s.s.s.e.%.&.n n & & n & & & ",
"M M M f N M *.k.W.W.W.H.H.s.t [ t.t.o X s.W.W.W.W.f.. /.}.s.}.t e `.`._._.s.n./.t /.g t f.G.H.%.&.%.X.s.s.t %.&.n B M n N f n M ",
"V G G S K L 3.p.N.W.H.D.s.s.e 0.O.t.X X s.W.W.W.F.g.g }.}.g.e t t _.`.'.`.`.c.e e }.g t s.G.e.%.&.*.>...e t p.*.W B n N M n k j ",
"V V Z L L L W 3.p.s.f.f.s.t t q.} t.t.. e H.W.W.H.f.I.}.}.f.t e f._.].[.].'.).t t }.n.t f.H.%.2.A 4 &.%.%.p.e.%.&.n n N n n & f ",
"K V L G K K L 5.p.s.t e t e 0.2.4.q.t.X . f.E.!.f.n.'.P.}./.s.s.I.[.[.].].].'.L.d.I.I.y f.Z.>.&.M n 4 &.&.%. . .#.4 n & & j & & ",
"K D B S L V L 5.p.!.A.f.s.t 0.T L 2.0.0.X e D.W.s.x.].[.[.].[.].[.[.[.[.].[.].[.[._.).t s.w.%.+.& j & 6 q q q  ...+.& < & & & & ",
"B n n n n n c &.%.N.E.F.s.t [ k N L L 4.O.t s.Z.t n.].[.[.].[.[.[.].].{.[.[.[.[.[.`.b.t s.,.*.W B A a 5.V.J.3.2.*.W D B V V M N ",
"& $ $ % * @ = 6 q w.D.A.t t { { [ 8._ R 4.0.t s.z c.[.].].].]._.`.[.[.[.[.].[.[.[.B.;.,.a.1.9./ / l.K.B.;.;.7.P I R U E U J D L ",
"& & & & & < < & 8 e.p.f.t { { ].n.0.q.8.^ 8.q.t t h P.[.[.].[./.}.}.}.n.I.[.].[.B.;.i.,.,.9.~ ~ 9.K.B.g c.B.K.l.` R R ) T I I I ",
"n n k M n k d c 1 *.h.D.y } _.].g q._.q.8.] 8.q.t q.g n._.].[.{.I.'.'.).[.[._.n., 7.z.z.1.9.i.4.X.K.c.h n.h ;.6.I I L L L U L V ",
"B M n M M M M M B &.X.e.s.I.].I.g h _.I.q.8.q.q.q.I.c.H g n.I.`.[.].[.]._.c.X X ;.p.x 4.9.3.3.x p.v.c.h h u.B.4.E U E L E U G V ",
"* & & & & $ $ & * 6 q e.j.[.I.g g h I.).{ [ T.s.I.]._.(.t F h h h g g h t X   L.x.s.i i 1.9.9.Y.f.h c.I.;.;.6.W L I J L I L D Z ",
"@ & & & & * & $ $ & 2 7 p.B.U.g h c.I.c.v T./.T.f.]._.L.F t v e s.t v e F T.c.I.s.v T.T.R.R.Y.F F e u.y.;.2.Q L L L G L V B Z L ",
"* * * @ * $ * @ = @ @ 2 @.:.y.g h c.n.t T./.^.Y.s._.L.n.Y.T.e F s.f.e F T.T.c.c.s.H v H v v b b v p ,.8.6.Q L I E U I L L V V V ",
"@ * $ * * @ * @ * @ @ @ 6 @.:.w g h s.F b T.T.H v t c.H Y.^.^.^.H.T.H././.1.:.:. .i y b F b F i y i 8.Q I I I I L L L L L L V G ",
"* & $ % * * * & $ & & & & 3 =.X.,.s.v H F b b i i  .a v Y.^./.^.H.D.A././.9.@.+.&.r p x a i i a r w J D V G M B B B M B V V B B ",
"c f & & n & c n d n M N m B 4 *.i a v H i i a a r &.p F b Y.^.^.H.H.f.^.T.p u B n A u 5.u u u u A M n f & f f n n n d n & & & & ",
"M n M n M M n n M n n n n M n m a p p i i r r u l r i v b v H v f.F f.b F p <.n n M B M m B B n B B M B M M n n d n n d c d & & ",
"& & < n k & k k n & < & j k n f 1 9 r 0 9 k < k n 0 i T.T.b b v f.s.f.F Y.x 5.A V K D V V L I L S V G B B B m M M n B B n n n n ",
"M n n & n n n n k n n n n n & d d n k n n n c & 1 0 i T.T.T.T.T.s.D.G.f.T.i.p 3.W L L L I J Z L I L L L L B B V B B B V B B B M ",
"L L L L L V V L L U U E T L K L E R U R U U I E 4.x i.T.T.T.T.T.T.Z.T.A.T.R.i.p l.P I U U I U L L L I I L V L L V V L K L V V V ",
"G L L L I L L I U I G I ! U R R ( R R R E U E U 5.a T./.^.T.T.T.T.f.D.H.T.T./.i.i 3.L I I E U U I I L Z I T U Z V I L L B B V M ",
"L G V V L L L Z L I E Z L R U L U U L L J L I L 7.- H T.^.^.^.^././.A.H.f././.T.p 7.Q L L L L L L L L G L I L G L S V B S V V M ",
"Z Z M Z I V B V L L U V K T I T I U E P E L L Q 7.> X X H T.^.^./.^.H.T.H./.T.v - > 7.W D G V L V L L L L Z L S L L L L L V B S ",
"L V L I L V G L V L L I L L L L L E Z G L Z D 1.; >   X   X . X H F s.D.H.F X X X > ,.6.~ I I U T L L Z L V L V B B V B M n M B ",
"V S L V V B S V V L Z V V G Z V V V V V V V h ,.: . O . X   . X . X X X o   X X y G.p.,.6.G I L L I G L V m V V M B B M B n & & ",
"V B B L V V V L V I L L I L L L Z Z L V G L 2...; .   O X X . X   X o X   X . H.W.g.n.,.2.V V G V V Z B V B B B V V B N V c @ & ",
"V V S V L Z Z S G Z V V Z L L G L L L L L G -.N.f.X   O X . X X X X   o X t W.W.n.).`.;.-.A L D K L Z V L L L B M M M V M & * % ",
"L V G I T L L L L V I T E L I I T L I T L I 8.%.H.f.F.Q.!.F.s.s.t t y s.N.Z.p.,.u.`.).N.a.4.) / _ ! T I L I I I L L V V D & & & ",
"B B V V V V B V V I L I L L V V V V G S V V *.k.t e I.c.z >.e.k.k.k.k.e.,.*.5.-.;.y.H.X ; -.s D V V V M M B B M M M n n k & & * ",
"* & & & % * & * & k k & k n & n n f & n k n @.k.t D._.`.V.:.*.*.*.*.=.0 #.4 c 3 #.e.X X - - | n n n n c n & & & & & & & & & & & ",
"& % & & & & * & & n k n n k M M n B B m M M -.h.X.t !.'.m.=.s M M M n n n < n n -.- X o   ; =.5 n n j & k & & j k & f c & & & & ",
"n n & & & & d & n M n M n n & k n c c < f & 4 @.h...W.H.e.0 f d k & n & & f k < =.- : X . ; ; | & & & & & & & & & & & % & * & $ ",
"& & $ & & < M & & & & & & & * * $ & & & & & & 5 @.S.X X ; | 3 f k & < k n n n < 3 =.;     X - =.n & n f & n & & & k & & & & & * ",
"I T I L ! T U U G V R T ( T L L I T L U E I L L -.- + X ; ; r.E U U T T I I U I B | -     X - =.3 n j k n & & & & & & & & * * @ ",
"] ) ` ' ' ' ] ` ' ] ` ` ] ] R ` ' ] ` ] ] ' ' ' y.;   .   , r.~ / ` R ` ` R ) ] D @.- X   X - %.&.d n M n n n j n & & & $ & $ & ",
"T R ( T L R T R ` ` R ! ] ] _ ( R ` ` ` ) ! ` ] r.; X X . ; > 7.Q Z L R R I E R B | ; . X   : ..+.& & & k < & n & & & & & * * @ ",
"] ) R R T ! _ ^ ] ` ` ] ] ` _ ] ] R ` ^ R ` ` R r., . .   . > > 9.] ` ` / _ ` ' S 7 e.-   - p.q 4 n n n n f n f f n & d & & % * ",
"R R E U U ` ` ( R R U I ! _ ( _ ` R R T R ` ] ` r.; . . X     > r.` ` R ! R _ ` V 1 u p.k.h.*.l c n n n c < n & & & & & & @ * % ",
"n k n n n n n n n & & * & & j c k n n & n n n d &.X.- o   O X %.+.< f n n & c & n n 1 0 @.@.3 < j & & & c & & & * * % % @ @ @ * ",
"n M n n & & < & & n n n n & n n d f n & n n j c 3 &. .a.M.k.k.e.<.n n n d n c M B f n n n n M & n n n j c & & f & $ $ @ * @ @ * "
};
