/* XPM */
static char *Layer_81677303406[] = {
/* columns rows colors chars-per-pixel */
"64 64 182 2 ",
"   c #1B1F25",
".  c #1B1F28",
"X  c #1B2125",
"o  c #1A2029",
"O  c #2D2D2D",
"+  c #2E322C",
"@  c #353535",
"#  c #3A3536",
"$  c #363837",
"%  c #393937",
"&  c #363639",
"*  c #393638",
"=  c #3C3C3C",
"-  c #373939",
";  c #35312F",
":  c #461E23",
">  c #481F25",
",  c #462125",
"<  c #492125",
"1  c #4B282B",
"2  c #413E3E",
"3  c #4A3838",
"4  c #5D3534",
"5  c #5A3B3A",
"6  c #543637",
"7  c #4F2F30",
"8  c #6D2324",
"9  c #742626",
"0  c #7D2423",
"q  c #712529",
"w  c #7B2C2C",
"e  c #762B2A",
"r  c #79302D",
"t  c #6F243B",
"y  c #72233C",
"u  c #752F37",
"i  c #7C3131",
"p  c #75333B",
"a  c #79373E",
"s  c #7A383E",
"d  c #753336",
"f  c #653C3C",
"g  c #3E403E",
"h  c #41413F",
"j  c #48403E",
"k  c #744B2E",
"l  c #744931",
"z  c #3E3D40",
"x  c #413F41",
"c  c #513E40",
"v  c #722340",
"b  c #7C3942",
"n  c #3F4141",
"m  c #3F4B56",
"M  c #3F4B5A",
"N  c #434343",
"B  c #494545",
"V  c #454846",
"C  c #494947",
"Z  c #464648",
"A  c #494648",
"S  c #464949",
"D  c #4C4C4D",
"F  c #554949",
"G  c #4E504E",
"H  c #51514E",
"J  c #5E504F",
"K  c #414B57",
"L  c #4E4F51",
"P  c #414B5A",
"I  c #524F51",
"U  c #4F5150",
"Y  c #535453",
"T  c #595657",
"R  c #565956",
"E  c #595956",
"W  c #565659",
"Q  c #575958",
"!  c #5B5B5B",
"~  c #59575B",
"^  c #624342",
"/  c #6A4747",
"(  c #724647",
")  c #665555",
"_  c #5E605F",
"`  c #61605E",
"'  c #5D5E61",
"]  c #615E60",
"[  c #5F6062",
"{  c #636363",
"}  c #696969",
"|  c #686767",
" . c #AD1B1B",
".. c #AB1817",
"X. c #B01C1B",
"o. c #881F2E",
"O. c #851F2D",
"+. c #861F30",
"@. c #891E31",
"#. c #832524",
"$. c #8B2424",
"%. c #86222D",
"&. c #8A222C",
"*. c #852A2A",
"=. c #8C2B2C",
"-. c #882927",
";. c #932D2C",
":. c #94282A",
">. c #8A3E2C",
",. c #86392A",
"<. c #97312F",
"1. c #872131",
"2. c #8A2232",
"3. c #872E31",
"4. c #962E30",
"5. c #8D3233",
"6. c #863938",
"7. c #943334",
"8. c #9A3333",
"9. c #96383A",
"0. c #B52323",
"q. c #B92524",
"w. c #A6233D",
"e. c #A9243E",
"r. c #A13A38",
"t. c #CB2436",
"y. c #8C413E",
"u. c #A9523C",
"i. c #A74F38",
"p. c #883E42",
"a. c #973742",
"s. c #AB2542",
"d. c #AB2642",
"f. c #A52C5E",
"g. c #A82C5E",
"h. c #A93245",
"j. c #A52C61",
"k. c #A82C62",
"l. c #CE3E59",
"z. c #D13E5A",
"x. c #D03D57",
"c. c #8A4240",
"v. c #9E714A",
"b. c #9F6F4B",
"n. c #A16F4C",
"m. c #A1704B",
"M. c #CF415B",
"N. c #D2415C",
"B. c #C26857",
"V. c #DE4F7A",
"C. c #DF5275",
"Z. c #DF5079",
"A. c #E14F76",
"S. c #E24F7A",
"D. c #E15077",
"F. c #E1507A",
"G. c #E05870",
"H. c #CB6D63",
"J. c #CF7267",
"K. c #CD9F7D",
"L. c #D09F7E",
"P. c #CDA17E",
"I. c #D0A07C",
"U. c #63718C",
"Y. c #646F8B",
"T. c #FC77A5",
"R. c #FB79A6",
"E. c #FE77A9",
"W. c #FC79A9",
"Q. c #9AA4B5",
"!. c #9BA4B9",
"~. c #CE9F81",
"^. c #D09F81",
"/. c #CEA180",
"(. c #D1A080",
"). c #EBC9B6",
"_. c #EBC9B8",
"`. c #EAC8B7",
"'. c #FDE9D6",
"]. c #FDE9D9",
"[. c #FEE7D9",
"{. c #FCFCFC",
/* pixels */
"N N = N N N x Z N N = N N N h N N Z Z Z h C D D D R R Y Q Q / *.*.5.5.5.7.7.5.5./ S N 6 *.*.s.s.+.*.N C S h = = Z Z A A = $ N x ",
"= = N = = = = = = = = = 2 = = = = n g h = Z H Y W R ) F 5.9.5.2.&.2.2.2.2.2.2.1.=.5.=.*.%.o.e.e.*.*.6 x = x S R H D D D N = = = ",
"= = $ * * - $ $ @ = = = = = x = = N n z N V A D L ^ 5.5.2.&.2.e.j.j.f.t v y k.d.s.1.@.&.w.f.f.1.%.+.#.#.6 = = = = = $ $ @ O O O ",
"= N N N x N 2 N N h N N N N Z Z Z Z Z V A N g N 5 *.@.@.%.f.D.F.S.Z.j.j.j.F.F.F.A.Z.S.C.f.t y t f.e.e.@.0 7 = @ O O O O O O O O ",
"N Z = N A Z N x N Z n 5 r =.$.=.i w w 6 N N h 5 #.+.%.j.C.W.W.Z.f.f.F.W.R.R.R.R.F.T.F.F.V.S.j.y y y t w.+.0 7 @ @ O @ O O O O O ",
"= = N N g = = = = 3 i $.e.N.x.z.w.s.e.w e 3 5 *.2.o.f.F.T.W.R.F.F.W.T.W.R.R.R.R.R.D.R.D.j.D.R.F.t f.F.y O.o.0 = * = * $ @ O @ O ",
"N = = = = = = = 3 q w.x.l.j.y y y j.w.e.s.w *.%.+.j.F.W.T.R.F.R.R.R.R.D.R.R.R.W.R.C.R.T.S.f.W.R.S.y y y j.l.-.x = = $ * @ $ @ @ ",
"= = = % % = $ $ 9 w.z.f.y y y y y y y f.s.e.@.o.y S.T.T.R.F.R.T.R.D.D.f.R.R.W.R.W.f.R.R.T.j.C.F.W.j.y f.F.z.-.7 O @ @ @ @ @ O O ",
"@ @ % $ * * @ 3 #.x.W.W.S.f.j.t y y f.F.F.f.y y f.W.R.R.W.T.W.R.F.D.j.f.R.W.W.R.R.f.F.R.R.F.f.Z.W.D.t y S.M.1.#.* $ = = @ O * $ ",
"= $ = = - z = w w.x.T.T.T.R.T.Z.F.C.F.D.j.y t v D.R.R.R.T.W.W.C.F.f.(.m.Z.R.R.R.W.m.f.R.R.W.f.D.W.R.f.t j.F.%.#.= = = $ $ @ & = ",
"+ @ @ % * = = 9 w.j.A.T.T.W.R.R.T.F.f.y y y v f.R.W.R.W.R.W.F.S.j.P.P.P.C.W.R.R.F.P.j.R.W.W.f.F.R.T.Z.v y t 2.3.x = = - * * * & ",
"N Z N A G A D =.z.f.f.Z.R.R.F.F.f.j.y y y y y Z.W.R.T.R.T.T.F.f.P.P./.(.f.R.W.R.F.P.v.F.R.T.j.S.D.T.W.j.y k.d.7.6 = % * @ $ @ O ",
"! Q Q Q ! R J 7.G.F.f.y j.j.f.f.f.y t y y y y R.T.R.W.R.R.F.f.P.t y P.K.m.R.T.W.f.P.K.f.R.E.j.V.F.W.R.F.t f.M.&.#.= - = @ $ $ O ",
"T ! Q E U U 6.s.C.R.F.f.y y t y y t t y y y f.R.W.W.R.R.R.f.m.P.P.j.y P.P.Z.R.T.f./.y y T.R.j.D.F.Z.W.T.A.y f.2.*.n z = = - * = ",
"D D Y Y D D <.N.W.R.W.W.F.j.f.f.t y y t y y j.W.R.R.R.R.F.m.P.P.P.P.P.y P.f.R.R.f.y K.f.W.C.y F.F.j.F.R.T.F.y 2.3.Z B N n N g = ",
"Y Y A L H Y <.N.R.R.R.T.T.F.F.j.v y y t X y j.R.R.R.R.R.j.I.P.P.I.P./.P.L.n.R.W.L.P./.j.R.f.y F.F.Z.y f.F.R.F.%.#.* $ O @ @ @ @ ",
"I D D C A B i e.F.R.R.Z.F.Z.D.j.y t v y X X f.T.R.R.W.F.I.I.P.P.m.m.I.P.P.I.F.T.P.m.K.v.F.f.y F.D.F.f.y y v y o.0 = - - * @ $ $ ",
"= N N Z N h *.2.f.j.S.F.S.F.j.y y y y X X X j.R.R.R.R.F.P./.P.)._.P.m.P.P.P.f.F.n.P.P.P.j.y f.F.F.D.j.y y j.j.w.#.7 $ * @ $ @ O ",
"S A A D D D 5.&.d.y j.j.j.f.f.y y t  .t.X X y R.R.R.T.j.P.P.)._._.).).P.)._.P.g.P.`.`.P.f.y f.F.D.D.y t y f.f.d.@.*.2 N z = x = ",
"A D V Z N V f =.l.f.y y j.j.f.y y  .X.t.o   y D.W.T.D.j.(.P.P.I.P.`.`._.)._.).I.).P.(.L.y y j.F.F.F.y  .y y j.t o.*.n = = = = x ",
"= = = * * - - #.l.W.S.j.v y y y y ..X.t.t.X X j.R.W.Z.f.P.v.X o o X v.`.).`._.`.K.o o X k y f.S.F.F.t X.y y y y w.w z = = = = = ",
"$ $ - $ % @ * #.l.T.T.W.D.j.y y .. .0 ..t.X   f.D.R.j.m.P.X X X X X X v._.].]._.X   X o X y f.F.F.F.y  . .y t _.o.$.N = = = x = ",
"2 = n 2 h g = w s.C.W.S.D.j.y t ]./. ...v.t.o t Z.R.j.v.`.].].].].].'.'.].'.].].].].].).P.k y Z.A.f.y X.K.y _.P.,.H.r N g 2 = = ",
"= = = = = = = #.o.j.Z.C.f.f.y ..m.'.P.k `.k X   f.D.y m.].'.].].'.'.].'.].].'.].'.'.].].).v.y f.F.j.t X.`.k L.b._.n.w 2 2 = = z ",
"B C N N N Z N *.@.&.j.f.f.j.P.]._.m._.m.].m.0.X j.f.y v.].'.[.'.].'.'.].'.].].'.].].].'._.n.y f.D.y ..k `.k m.).y.&.-.Z N Z N N ",
"D D D U H Y R / 5.d.D.y v y m.).'.).P.K.].m.0.0.t j.y k `.'.'.].].P._.].].'.].'.].[.'.'._.n.t y D.y X.y `.b.k b.B.H.d A B h N = ",
"L D Y Y Y Y Y R 6.d.F.F.j.y q.k v./.P.P._.l 0.9.q.j.q.l n.[.].].].m.{.{.{.{.{.P.].].].'.P.l X.y f.y P f.n.K.k B.H.r B N N N = h ",
"D I H D H D H L 5.2.d.j.d.&.B.J.J.P.K.I.v.t m 0.0.y 0.q.k (.].[.'.P.{.{.{.{.m.].'.'.].P.l  .0.t m U.P j.l v.i.,.$.N N 2 = n = = ",
"Y H A G Y U Y Y / 5.s.A.2.7.6.8.>.i.m.l f.U.Q.U.P 0.0.0.0.k b.`.].].I.{.{.P.'.'.'._.n.X  . . .P U.U.U.U.f.k ,.#.4 = = = = = = = ",
"S N N h N n z N n *.%.x.@.*.h 4 =.2.d.f.P U.Q.!.!.U.f./.K.b.M k m.I.`.].].].]._.n.X o n.y U.U.U.U.U.U.U.P 2.&.7.D H H D D D N Z ",
"* % % * % - & # $ 7 0 w.e.9 * * 5 9.b a P m U.Q.Q.Q.U.f.'.`.~.y P l k l l k l y o X v.P.f.U.U.U.U.U.m M b a 8.) W Q Q E Y Y Y Y ",
"= = = = = = = = = = 0 o.z.#.2 = N ) y.b b m P m U.U.U.f.]._.P.M t P y j.t P t M U.n.I.P.j.m U.U.m P b a s p.) Q ] ! ! ] Q R T T ",
"N N N N N h 2 x N N 5 $.s.3.C Z D _ ) c.b b b P P P M y _.(.v.U.U.y m j.j.t P U.U.v.m.v.y m P P s s s 6.c.Y T W R W Y I Y T Y D ",
"C Z N Z Z Z Z N N V D F 6.F D D D Q ! ) p.6.b b b b 2.>.>.u.M U.Q.Q.!.F.U.Z.Q.Q.r.y.y.,.-.s p s s 6.6.) [ _ ! E T Q R Y R T U D ",
"% = = = = % = = * - % = = = g h z = = = = 3 r i i i *.-.=.p M Y.Q.!.Q.C.F.S.!.Q.5.#.#.O.0 8 e e 9 F { ' Q ) ~ Y R Y Y Y Y Y Y L ",
"@ = = = = % = * * = @ * $ = = = @ % = $ = = @ O + O @ O 8 u u K U.Q.Q.D.F.Z.Q.U.d 8 1 @ ; @ @ O O N W Y Y Y Y Y Y Y I Y D A Y D ",
"* $ $ @ # * $ @ @ @ @ $ % = = * @ = = % % $ @ @ * $ $ @ ; q u P P K U.F.U.F.m m d u q @ & * @ @ O N ' R R W R R R R R Y Y D D D ",
"@ @ = * $ $ $ $ * @ + @ $ * $ @ % = * = % % $ @ * $ $ O + 9 u P M K P f.f.f.P P Y.u q # * - @ @ O N _ E R T Y R Y Y Y Y Y Y D U ",
"% * $ $ $ $ $ = = = z = = h g Z A Z B V N h h h g = = = = w d U.U.P P f.f.j.M U.U.9.d i F N N Z N A Y D D D Z Z D Z Z A D D A A ",
"N x = = z 2 N h = N Z Z Z S B B N Z h N V N Z Z Z Z A N 2 i p U.U.U.U.U.F.U.f.U.U.Q.a.a 3.B Z A D Z N N = N N N N 2 g N = = = = ",
"Z N Z Z N C Z h Z N N N Z N N V Z Z A Z Z Z N N N Z N N r p a.Q.Q.Q.Q.!.C.S.S.Q.Q.Q.Q.9.p :.l Z V B N S V Z N h z N N g n g = = ",
"= = g N h = 2 n x = = = N h z N h h x x = g h h N z N S i p U.Q.Q.Q.!.Q.f.V.C.f.Q.Q.Y.P > < 4./ L D Y A D A A Z Z N A C N N N N ",
"Z N h = x N n N x N N N h x = = h N N N N x N = n N z z $.: M U.Q.Q.Q.Q.Q.C.U.Z.K o .   X < < <.7./ R Y D D A D A A A D A D A V ",
"Y Y Y Y Y D D R R W T T Q R Y Y R ! R ! Q R R Q Y W W l <., .     m U.U.m j.f.  X .   . y T.G.N.2.5.R Y H L Y I D G Y G Y D D D ",
"Y Y Y Y R Y Y R W R I R ! Q ! ! ] ! T ! T Q T Q Y I ( 8.: : X o   X       X   X X   X j.T.P.).I.y.<.J H R R W H H Y Y G V A A D ",
"Y I D D Y Y Y I I R R L Y ! W Y Q Y R R I Y Y Y E D 8.> : O   X o .     X X X X X . y T./.).`.).M.e.6.H Y R Y H Y G D D D D D V ",
"D D Z I Y D Z D Y Y R D L Q T ! T Q T W R Y R Y Q ) 7.2.f.    X X X O   X X o o t N.N.d.>.i.P.D.X , 8./ R I D U Y I H Y Y D A G ",
"Y D Y R Y D H Y I Y I R Y Y Y Y I R D I Y L Y Y D 6.d.M.R.R.S.j.y X     X   t d.d.2.8.6.9.>.d.X   < < :.L Y Y D D A D D Z N Z V ",
"D D Y D D D D D D Y I D D I D D D D D D D D D D D 3.&.1.y k.g.T.W.W.T.V.j.N.z.2.5.5.^ U / <.,   X X , 4.D B D D Z B A V S N = = ",
"D A A Y G A D U H R Y Y R Y Y Y I D Y D D Y D Z A ( ;.d.y A.t y y %.2.&.1.%.4.4.F D D S D :., X X   > ;.D D D Z D D A C D h @ = ",
"D D U G I Y G G D D D D D Y Y Y Y Y Y Y Y I D D D =.N.2.f.k n.~.L.,.=.5.3.5.c I D D W Y I 4.> X X X > ;.( I L D Z V B D Z = $ * ",
"G D Y Y Q Y Y Y I L R Q T Y Y R Q Y R Q R Y T R Y 9.M.y N.>.B.).).u.9.Y Y R ! ! ' ) ) ' { 8.< X   X < < 8.( Y R H Y G D D z = = ",
"A D D D D D A D D Y Y R R I D L D D D D D D A D D =.z.2.z.=.B.`.`.d.r C A S D D D D D D H 4.:   X   o : > =.V Z Z Z N N N = % $ ",
"$ = = = * $ = * g N 2 = x N = N N h 2 N N Z = N N 4 -.N.z.-.s.S.C.< $.x N x h x N Z N N 2 9 e.: X     X : $.= = = = = 2 = = = = ",
"= = = = = = = = = = = Z h N Z Z N Z C Z Z N S N B Z f -.*.$.>   X : :.Z N n N Z V N V C B F i s.: X X , o.#.2 x h = N = = = = = ",
"N = = = = = = = Z Z N Z N N = h N N g = N h N N h N = h x :.: .   : $.4 = N = z h N N = 2 2 3 #.l.z.e.O.#.6 % = = = = * = $ = = ",
"= = * = = 2 Z = = = = = = = * $ & - = = = = z n z N h = N $.: X   : , $.N N N = N N Z N N N h f $.#.w 3.6 g = = = = = = = = * $ ",
"R T R T ' Q E T D H Q Q ] Q Y Y Y W Q Q W R Y Y R Q Y Q Y 8.< o X   < 8.( W Q Q V = = n N N N h N N 2 n h z = = = = = = = $ $ $ ",
"{ { { } } } | { } } { { } } ) { } | { | | | | } | { { } } r.< o   o < < r.] ] } U = N N N N N 2 N N n N Z g N g N h = = = = * = ",
"! ! ! R R Q Q ! { { Q ` | { _ _ _ _ | | _ { _ | { ! _ { ] 8., X X   X < r.( Q ! A = g N = g = = = = = x = h = N = = = = = * @ $ ",
"{ { ! Q Q { ! { { { { | } { _ | | _ { ) ! { { ! { { ! ) ) 8.1 o   X . , > r.] } G * g N N h N n N N N N N N x N N N = 2 = = * $ ",
"' ! T T Q { { ! { ! T R _ [ _ _ { ! Q Q ` { { { { { { | } r.< o X o o . > 8.{ { D N Z N N Z N Z N N N N z z g = = = = = * $ @ = ",
"h h Z N N z N N z = = $ = = z n z N N = N N N n n N N N Z *.%.> X   . > z.#.= 2 N h n N = N N = = z = = N = * = $ $ * $ @ @ @ $ ",
"N Z N N = = N = = N N N N = N N N = N = N N = N N N n n Z 5 *.o.d.N.N.z.-.4 x V V N N N N N N N N x N 2 N 2 = 2 = * * $ * @ @ $ "
};
