/* XPM */
static char *Layer_31677303405[] = {
/* columns rows colors chars-per-pixel */
"64 64 179 2 ",
"   c #1C1F25",
".  c #1B1F28",
"X  c #1B2025",
"o  c #1A2029",
"O  c #172123",
"+  c #2C2C2C",
"@  c #32312E",
"#  c #2E2F31",
"$  c #2F3131",
"%  c #353535",
"&  c #3A3535",
"*  c #363836",
"=  c #393936",
"-  c #363739",
";  c #373939",
":  c #3C3C3C",
">  c #3A3739",
",  c #2E302E",
"<  c #451E1F",
"1  c #7A1E1F",
"2  c #68211F",
"3  c #451E23",
"4  c #491F25",
"5  c #462124",
"6  c #492126",
"7  c #4A252A",
"8  c #413E3E",
"9  c #4B3636",
"0  c #553635",
"q  c #5C3C3A",
"w  c #593635",
"e  c #6E2424",
"r  c #732624",
"t  c #7E2423",
"y  c #7A2B2B",
"u  c #752B2A",
"i  c #7D312E",
"p  c #6F243B",
"a  c #72233C",
"s  c #732E34",
"d  c #673C3B",
"f  c #76333B",
"g  c #7A363D",
"h  c #7A393E",
"j  c #773235",
"k  c #3E413E",
"l  c #41413F",
"z  c #52423F",
"x  c #744A2E",
"c  c #744A31",
"v  c #3E3E41",
"b  c #423F41",
"n  c #493F40",
"m  c #7C3940",
"M  c #7A3740",
"N  c #732242",
"B  c #3F4141",
"V  c #3F4B57",
"C  c #3F4C59",
"Z  c #434343",
"A  c #4A4545",
"S  c #494947",
"D  c #464649",
"F  c #464949",
"G  c #4D4D4C",
"H  c #474847",
"J  c #564949",
"K  c #4E504F",
"L  c #51504E",
"P  c #414B56",
"I  c #4E4E51",
"U  c #414B5A",
"Y  c #514F51",
"T  c #4F5052",
"R  c #535453",
"E  c #565856",
"W  c #595956",
"Q  c #565658",
"!  c #5B5B5B",
"~  c #575759",
"^  c #6A4A49",
"/  c #684545",
"(  c #724647",
")  c #655A59",
"_  c #5E605E",
"`  c #60605D",
"'  c #5E5E60",
"]  c #615F61",
"[  c #5F6062",
"{  c #636363",
"}  c #696969",
"|  c #676868",
" . c #AD1B1B",
".. c #B01B1C",
"X. c #871D2E",
"o. c #891E2E",
"O. c #871F30",
"+. c #832525",
"@. c #8B2525",
"#. c #832927",
"$. c #85232C",
"%. c #8A212E",
"&. c #842A2A",
"*. c #8C2B2B",
"=. c #932C2B",
"-. c #932828",
";. c #8A3D2B",
":. c #863B29",
">. c #96322F",
",. c #862131",
"<. c #8A2231",
"1. c #882E32",
"2. c #962E32",
"3. c #823333",
"4. c #8D3334",
"5. c #873C3A",
"6. c #933335",
"7. c #9A3333",
"8. c #983939",
"9. c #B82524",
"0. c #A6233E",
"q. c #AA243E",
"w. c #A43C39",
"e. c #CC2435",
"r. c #CC2338",
"t. c #A54E39",
"y. c #A8513B",
"u. c #9B3A42",
"i. c #90384A",
"p. c #AB2542",
"a. c #A82642",
"s. c #A52C5E",
"d. c #A82C5E",
"f. c #B02947",
"g. c #A52C61",
"h. c #A92C60",
"j. c #CE3D59",
"k. c #D23E5A",
"l. c #8C4243",
"z. c #934145",
"x. c #9F6F4A",
"c. c #9E714B",
"v. c #A16F4B",
"b. c #A1704B",
"n. c #A07147",
"m. c #BF6854",
"M. c #CE405B",
"N. c #D3415D",
"B. c #C26A56",
"V. c #DF5275",
"C. c #DF5179",
"Z. c #DF4E76",
"A. c #E04F76",
"S. c #E24F7A",
"D. c #E15176",
"F. c #E1507A",
"G. c #CA6C64",
"H. c #D16E69",
"J. c #CD9F7D",
"K. c #D09F7E",
"L. c #CDA07D",
"P. c #D1A07E",
"I. c #646F8C",
"U. c #63718C",
"Y. c #FB77A6",
"T. c #FB79A6",
"R. c #FB79A9",
"E. c #FC77A8",
"W. c #9AA4B6",
"Q. c #9BA4B8",
"!. c #97A4B4",
"~. c #CE9E80",
"^. c #CFA180",
"/. c #EBC9B6",
"(. c #EBC9B9",
"). c #EBC7B7",
"_. c #FDEAD6",
"`. c #FDE9D9",
"'. c #FFE7DA",
/* pixels */
"Z Z : Z Z b Z Z Z Z b l H 8 Z l H Z H Z H H G G G ^ 4.4.<.<.<.p.d.s.g.p a p s.p.p.<.,.%.q.d.p.O.*.&.q D D 8 : 8 Z S S H : : k Z ",
": : Z : : : : : : : : : : : : : : : B 8 : H I R ^ 6.1.<.,.g.F.F.F.C.g.s.s.C.C.C.D.F.C.F.d.a $.&.&.&.@.0 : 8 H Q Y G G G 8 : > : ",
": : * - * > * * % : ; : v : : : B Z k b l H G / 6.<.<.a d.F.S.S.F.s.C.T.T.R.Y.S.T.R.S.F.C.C.p.O.$.X.O.+.t 0 8 8 : - - > % + + + ",
": Z Z Z Z Z v Z Z Z Z Z Z l H H A Z H D H Z 0 #.$.o.N s.F.T.T.F.d.T.R.Y.T.R.Y.T.S.R.T.T.Z.F.T.A.a p p.0.X.+.9 @ @ + $ + + + + + ",
"Z H Z Z H Z Z 8 H A H Z D A &.&.&.&.y w b q #.<.X.p d.F.T.T.T.C.T.T.T.T.E.T.T.T.C.S.T.T.T.g.C.T.A.N a a q.X.t 9 $ @ @ @ + + + + ",
": : b Z : : : v : 8 8 9 u @.a.p.p.o.%.+.#.#.O.%.a s.D.Y.T.T.C.T.R.R.S.E.T.T.T.T.F.s.T.R.T.E.g.T.Y.s.a g.A.j.o.t - : * > * @ % # ",
"Z : : : : : : : * - 9 r a.j.k.Z.A.S.a.q.O.&.%.a a S.E.Y.T.T.C.T.T.D.g.S.R.Y.T.T.T.d.F.T.R.T.s.S.T.D.a g.Z.s.O.#.0 - % > % % % $ ",
": : : * : > * * * = r 0.j.a a p a a a a p.O.O.a s.S.T.R.T.T.Y.T.S.s.c.C.T.T.Y.T.T.b.F.T.T.T.C.S.R.T.g.a s.a q.X.1 % % % % % $ # ",
"% * : > * > * = - * +.j.Y.s.a p p a g.d.g.a a a V.T.T.T.T.T.T.D.s.c.^.s.T.T.T.T.S.^.d.T.T.T.T.g.R.T.S.a a d.S.o.t * : - * % % * ",
": * * : : : v : : 9 +.V.T.T.A.s.g.S.A.F.s.a a a Z.T.T.T.T.T.R.s.p a L.g.T.T.R.T.d.^.g.C.T.T.T.g.C.R.T.d.p g.A.O.+.: : * - $ * & ",
"$ % % - * : : > = r 0.j.T.T.Y.T.T.T.A.s.a a p g.R.R.T.Y.T.T.s.x.L.g.p g.R.T.T.R.s.L.p a R.T.R.s.A.E.T.F.g.p h.<.+.: : > * - - > ",
"Z A Z H G H S G G 3.p.s.D.T.T.C.C.g.d.a a a p S.R.T.T.Y.R.C.v.L.P.L.L.p S.T.T.V.^.a J.s.T.T.S.s.C.S.T.T.S.a a <.#.: ; - > % $ % ",
"! ~ Q ~ ! ~ Q Q E 7.N.s.g.S.V.S.s.a a a N p p D.R.T.T.T.T.g.L.L.L.~.^.K.S.Y.T.C.J.L.^.d.V.Y.V.g.F.s.V.T.R.s.a <.+.: : : % % % $ ",
"~ ! ~ W G L R G K ;.V.T.S.d.p a a p p a   p d.T.Y.T.R.Y.T.g.L.L.b.c.~.L.d.R.T.d.K.c.J.b.C.T.C.p D.F.a g.Z.R.s.<.#.k : v : = * * ",
"G G R R G G R R J 8.V.T.R.R.S.F.d.g.p X X   d.T.T.T.T.R.C.v.L.K.L.L.b.L.g.D.R.s.b.J.^.L.g.E.g.a F.F.g.a h.d.<.<.1.Z Z Z b Z Z : ",
"R R G G R L R R 5.a.V.T.R.T.T.F.F.a a r.O X g.T.T.T.T.T.d.L.^.(./././.J.P.F.E.d.^././.L.s.S.s.p C.S.g.a a a %.#.0 ; % % % * $ % ",
"G G G G A H Z S 3.p.F.T.T.S.C.F.g.p a e.e.  p E.T.T.T.T.g.L.P.L./.(.(.(./.g.C.g./.(.L.L.b.g.a s.V.S.d.p p g.o.t ; : : * * % * * ",
": Z H Z l B H A y 0.d.S.S.V.g.g.d.a p r.e.  a F.R.Y.T.R.L.L.o   X b././.(.L.s.s.L.c X X x a p g.S.F.g.a s.g.X.t : * > - - & % @ ",
"G G G G G I Y G =.N.s.g.g.g.d.a a c.`.e.e.X O g.T.R.T.S.L.. X O X o x /././.(.g.X X   X   c.a d.D.V.g.a s.g.%.#.j n : 8 : : v : ",
"H S H Z Z Z S H *.M.T.D.s.a a p _.x c.`.e.e.. d.F.T.T.A./.. b./.(./.L./.`._.`./.^.)./.b.X b.a g.S.F.g.a a a <.&.G.u B k : 8 : : ",
": : : * * - = : @.j.R.Y.T.D.F.s.c.'.x J./.e.X a F.T.T.V././.`.'.`.`._.`.`.`.`.`._.'.`._.L.b.a g.F.F.p a d.d.X.G.t.t u 8 : : : : ",
"- * % % * * * - r 0.C.T.T.C.g.g.p c.b.c x.x O   g.C.R.s.(.`.`._.`.`._.`.`.`.`.`.`.`.'._.(.c.p d.S.C.a a s.p c.L.:.t.G.u : : v : ",
"v b l Z 8 v v 0 #.q.s.V.T.C.d.a N _./.c _._. .  a d.R.g./.`._.`.`.`.`._.`.`.'._._.`.`._.`.b.p g.C.d. .p p (.J.v.L.G.s 8 v Z : : ",
": : : : : : : +.X.j.S.s.g.d.a O.X.H.J.c x ). . .p d.F.p L._.`.'.`.`.e.e.e.e.e.r.`.`._.`.`.x  .a S.a  .p /.x /.x t.:.@.b 8 : : : ",
"Z H Z Z H Z H &.$.S.R.T.F.g.a $.&.B.t.v.c.~.d. ...a g.a b.'._.`._.`.e.r.e.e.e.e.`.`.`._.L.c  .a s.a  .N J.c c v.G.*.q Z H H Z Z ",
"G Y I L L L ^ 6.p.g.D.F.d.s.,.<.4.4.t.y.L.g.U.U 9.9.a a x ^._.`._.`.e.e.e.e.e.L.`.'.`.L.c  .&. .p V C U.s.x x J.G.i Z D A B Z : ",
"L G Y R R Q 6.<.a.S.S.g.g.<.<.4./ ^ 6.<.g.U.W.!.U.P 9.a 9.c v./.'.'.`.e.e.r.L.`.'.(.b.X  ...9.P C I.U.I.s.c x.m.B.y Z H Z Z k : ",
"G Y G G L J 5.p.a h.h.$.<.<.6.^ E E 5.m M P U.W.Q.W.U.C 9.9.P c c.^.(._._.`.`.(.b.X X ..c g.V U.U.I.U.I.P p ;.:.*.q Z : 8 : b : ",
"L R F L Y 3.p.N.d.<.<.o.8.6.^ E R T J 5.M C P U.Q.W.W.U.g.~.c.V a C x c x x c a o X c b.L.g.U.U.U.U.I.V j f X.#.w : : : : : : k ",
"D Z Z Z H y q.a.,.%.#.*.q Z k k F T Q 5.g g C P C C U.U.d._./.^.P a C C a a V C p U n.^.L.c.s.U.U.C g g g 3.4./ L G L G G G Z D ",
"= ; * * * 9 r r t t 9 * % * ; > Z ! { ) 5.m m h C U V P s._.(.~.U.C p U.p s.a U.h.U.n.P.L.v.g.C m m M l.5.) ! ~ ~ W W W Q R R T ",
": : : : : b : > : : > 8 : : : v Z E ! ! ) l.i.h M h h a L./.L.c.U.U.U.d.F.F.C.d.U.U.c.y.;.:.f.m m l.l.) ! ! ~ ! ` ! W { ~ R ! E ",
"Z Z Z Z Z 8 B 8 Z Z H A G G H Z G ' ' ! [ | ) l.l.l.m <.;.y.v.U U.!.W.W.F.U.F.W.Q.u.;.;.w.8.u.l.5.W G R E Q E Q R E R R R E R G ",
"H H Z H H H H Z Z H G G G G L G K W ! ! ! ! ! ) { ) l.8.8.m M C U.W.W.W.F.C.F.W.Q.u.8.7.^ R G Q T Q W ! ) ! ! ! Q ! Q R Q W L G ",
"> : : : : > > : > * - : : - : Z : : : : k B Z D Z D A Z A y f C U.W.W.W.F.F.C.W.Q.8.d - > - : b - G { ) ! ] ! R R Q R R R R T G ",
"% : : : : * : : * : % > - : : : % = : - : * @ @ % + $ % # e s s U U.W.W.F.U.F.Q.I.s 2 & % @ % + + B Q Q R R R R R R I R G G G R ",
"* % - % % - - % % * % - - : : * % = : & * * $ % * - * % $ & r f C P P V h.d.s.C C 4.f e * * % % % Z _ W W E R R Q W Q G R G G G ",
"% % : - * % - > % $ % % * * * > : : = : : - - - * % & $ @ % e s U.U.U.V s.g.d.V U.I.s e 9 > % % # Z ! ~ W Q Q Q R R Q R R R G I ",
"* ; > * * * * : - : : : : Z 8 Z H D H F H v Z Z 8 : : : : v i f U.U.U.I.g.S.C.U.I.I.8.f j n Z H v H R G G G F S G H H G G G G A ",
"Z 8 : : Z : b Z 8 Z H A H H D H Z H k B A Z Z F Z H H Z : z g g U.Q.U.U.U.S.U.g.I.Q.Q.u.g =.=.=.=.-.d b : 8 b Z Z 8 k B : : : : ",
"H Z H H Z H H b H Z Z Z H Z Z F H H G Z H H Z Z Z Z H Z k u f 8.Q.!.!.W.W.S.C.S.U.W.W.W.g 4 < 3 6 4 -.A H Z Z Z : Z b : Z Z : : ",
": 8 B Z 8 : Z : l : : : Z b 8 Z Z : Z : : 8 Z : k Z Z H A j g U.W.W.Q.W.W.g.S.A.g.Q.I.C X X   X T.N.q.3.G G F Z H Z H G H : Z Z ",
"Z Z 8 : l Z B Z l Z Z H l l : : b Z Z H Z Z Z : l l B 8 8 @.3 P U.W.Q.W.W.W.C.U.S.C     X X o T.d.6 4 2.G G G G G G H G A G H H ",
"Q R R R R G G Q R Q Q W ~ Q R R Q ! W ~ W Q Q ~ Q W R G Q 7.6   X   C U.U.C g.g.  X X X X X T.g.X 4 7.( Y G R T G G L G R G G G ",
"G Q R R Q R R Q Q R L Q _ ~ ~ ! ` ! W ! W E ~ W R Y R Q ( 7.5 X X X         O     X   o . T.F.c.J.:.7./ R ! E G I R R G D G H G ",
"R L G G R R R L R Q W K L ! W Q ~ R Q Q L R R R E T R Q 7.6 4   X X +       . O       . s.C.c.(./.B.:.>.^ R R R R Y G G G G G Z ",
"G R H L Q G S G R R Q G R W W ~ W Q W Q Q R Q Q W ! ~ W 7.6 X O X   X o   . . . . X X a k.a.y.B.(./.B.p.>.( G G R R Y R R G G G ",
"K G R Q R G G R L R L Q R R R R L Q G L R G R R G T Y G =.3 o X . o X X   O . . a d.N.N.<.8.6.:.y.L.D.5 5 =.( G H G G G H Z Z H ",
"G G R G G G G G G R G L G L K G G G G G G G G G G G G G 3.q.a X X O X X a a s.N.N.k.q.=.4./ ( 7.a.N.    4 3 =.d G H F F H Z : : ",
"G G H R G G G R G Q R R Q R R R L G R G G R G S G L G L 1.<.g.S.F.F.N.a.p.,.,.p.*.*.3.J G G G J =.4 5 X O 6 3 -.d G F F G B % : ",
"G G L I R G G G G Y G G G R R K R R R R Q L G G K G G T 6.%.a a J.^.:.*.3.4.4.3.J Y Q R R I R L / 2.6   X X 4 4 -.d H G Z : * = ",
"R G L R ~ R R R R G Q ~ W R Q Q ~ R Q ~ R Q Q R R R ~ W 7.N.a S.(.B.:.>.R Q ! ! _ ) ] ] ! ! ! ' ) 7.6 6 o X X 5 3 7.M F R k : : ",
"H G G G G G G G G R R Q Q L G Y G G G G G G F G G A G G *.k.a S.^.y.*.d H S S G G G I G G I G I G c =.3 O   . X < 4 @.v B : * > ",
"* : : : : - : ; : Z k 8 l Z : Z Z : b Z Z Z : Z Z Z l k @.k.q.S.D.p.y b Z v Z B Z H Z Z Z : Z Z b Z @.< . X     X 3 @.k : : : : ",
": - : : : : = : : Z : Z B Z H H H H H H H H H Z Z Z H Z q *.M.A.  3 @.D b Z Z H H F H S H H Z : v Z u p.4     X 3 %.&.8 : : : : ",
"b b : : : : : : Z H Z H Z Z 8 : Z Z : 8 Z : Z Z Z Z k 8 v @.3 .   4 @.w : l : b l : Z : 8 Z : : v : 9 u 0.k.j.p.o.+.0 * : % : = ",
": : = : v B Z : : : : : : : * = * : : : : : B B : Z 8 : b @.3 X . 3 4 @.l l l 8 b H Z Z b Z Z Z Z B H 9 y @.@.r @.0 k : : : : * ",
"Q W Q R ! ! E E Y G ~ ~ ` ~ Q R R Q Q W W R R R Q Q R W R >.5 .     4 8.( W Q ~ H : : Z Z Z Z Z B Z : B v : : : : : : = = : - * ",
"| ` | | } } } { } } ` { } } ! { } } { | } } } } } | | } } w.3     X 6 6 w.! { | G : Z Z Z Z Z k Z Z B Z Z Z Z b Z : : ; : : : > ",
"~ ! ! Q Q ~ E ' { { ! ' | { { ! ! { { | ) ' ' } { ! ] { ! 8.3 .   o O 6 8.( W ! G : : Z : B : : : : v v B B : Z : : : : : * % % ",
"| { ! ~ ~ { ! ) { { { } } { ` | } ! { ` ~ { | ! ) ' ! ' ! 7.6 . X o o 7 6 w.{ | L : : Z v Z Z 8 Z Z Z l b Z Z Z b Z b b : : - - ",
"! ! W ~ W { { ! ` ! Q Q ! { ! { { ! ! ~ ` { { { | { | | } w.6 + X . O X 6 7.) { G v H Z H H Z H Z Z Z Z Z b v : : : : > ; % * : ",
"Z l Z Z Z Z Z Z Z : : * : 8 : Z : Z Z : Z Z Z B 8 Z 8 Z H &.o.3 X X X < p.y B B Z Z b : : l Z k 8 B : : Z = = : * % * % % % % * ",
"Z H Z Z : : k : : Z Z v Z B : Z Z : Z Z : Z : Z l Z Z k H q &.q.N.k.M.p.y 9 Z Z H Z Z H Z Z Z : Z Z Z 8 B 8 : l - : : % - % % * "
};
