/* XPM */
static char *Layer_181677303407[] = {
/* columns rows colors chars-per-pixel */
"64 64 186 2 ",
"   c #1C1F25",
".  c #1B1F28",
"X  c #1B2025",
"o  c #1B2029",
"O  c #2C2C2C",
"+  c #32312F",
"@  c #353535",
"#  c #393636",
"$  c #363837",
"%  c #383936",
"&  c #363638",
"*  c #393739",
"=  c #363A3A",
"-  c #3C3C3C",
";  c #2F302F",
":  c #461E1F",
">  c #791F1E",
",  c #7F211F",
"<  c #451E23",
"1  c #481F26",
"2  c #7E1F23",
"3  c #462125",
"4  c #492125",
"5  c #4B282C",
"6  c #413E3E",
"7  c #4B3B3B",
"8  c #473333",
"9  c #533433",
"0  c #5B3A3A",
"q  c #583738",
"w  c #4F312F",
"e  c #6D2321",
"r  c #732625",
"t  c #7D2324",
"y  c #742C2B",
"u  c #7B2C2C",
"i  c #722628",
"p  c #6F243C",
"a  c #72233C",
"s  c #792E33",
"d  c #7D3332",
"f  c #74323A",
"g  c #78363B",
"h  c #653839",
"j  c #3E403E",
"k  c #41413E",
"l  c #754A2E",
"z  c #744A31",
"x  c #3E3E41",
"c  c #413E41",
"v  c #493F40",
"b  c #593F40",
"n  c #7B3A40",
"m  c #3F4141",
"M  c #3F4B57",
"N  c #3F4C59",
"B  c #434343",
"V  c #4A4545",
"C  c #494947",
"Z  c #464648",
"A  c #494649",
"S  c #474949",
"D  c #4C4C4C",
"F  c #454946",
"G  c #504E4E",
"H  c #574646",
"J  c #4E504F",
"K  c #51514E",
"L  c #414B57",
"P  c #4E4E50",
"I  c #414B5A",
"U  c #524F51",
"Y  c #4F5251",
"T  c #535453",
"R  c #585656",
"E  c #595957",
"W  c #565659",
"Q  c #5B5B5B",
"!  c #575858",
"~  c #674848",
"^  c #74484A",
"/  c #675657",
"(  c #61605E",
")  c #5E5E60",
"_  c #615F62",
"`  c #636363",
"'  c #696969",
"]  c #686866",
"[  c #9D1D1D",
"{  c #B31F1F",
"}  c #861E2E",
"|  c #891E2E",
" . c #891F31",
".. c #861E31",
"X. c #822525",
"o. c #8B2323",
"O. c #822827",
"+. c #86222D",
"@. c #8A212E",
"#. c #852A2A",
"$. c #8B2B2C",
"%. c #8E2826",
"&. c #942C2C",
"*. c #9E2222",
"=. c #8A3D2C",
"-. c #89382A",
";. c #872031",
":. c #8A2232",
">. c #882D30",
",. c #932E32",
"<. c #833534",
"1. c #8D3333",
"2. c #863C3D",
"3. c #893A3A",
"4. c #933334",
"5. c #9B3333",
"6. c #933B3B",
"7. c #99373A",
"8. c #B92525",
"9. c #B42323",
"0. c #A6233D",
"q. c #AA243E",
"w. c #A33B3B",
"e. c #A52828",
"r. c #C92332",
"t. c #C62331",
"y. c #C8242F",
"u. c #A54E39",
"i. c #A9513A",
"p. c #9B3A42",
"a. c #AA2542",
"s. c #AA2742",
"d. c #A52C5E",
"f. c #A52C61",
"g. c #A92C61",
"h. c #CF3F59",
"j. c #CE3F57",
"k. c #D13E5B",
"l. c #D13E57",
"z. c #884243",
"x. c #9F6F49",
"c. c #9E714B",
"v. c #A16F4C",
"b. c #A06F47",
"n. c #A0704A",
"m. c #A17147",
"M. c #D2415B",
"N. c #CF405C",
"B. c #C26A56",
"V. c #C26855",
"C. c #DC556E",
"Z. c #DE4F7A",
"A. c #DF5177",
"S. c #DF517A",
"D. c #D54060",
"F. c #E14F76",
"G. c #E14F79",
"H. c #E25077",
"J. c #E2507A",
"K. c #E0586E",
"L. c #CB6E65",
"P. c #CE7169",
"I. c #D3756D",
"U. c #CE9E7D",
"Y. c #D09F7E",
"T. c #CDA07E",
"R. c #D0A07D",
"E. c #63718C",
"W. c #656F8E",
"Q. c #FB77A6",
"!. c #FB79A6",
"~. c #FD77A9",
"^. c #FB79A9",
"/. c #F77AA6",
"(. c #9AA4B6",
"). c #9BA3B9",
"_. c #CE9F81",
"`. c #D19F81",
"'. c #CFA180",
"]. c #EBC9B6",
"[. c #EBC9B9",
"{. c #EAC9B9",
"}. c #FDE9D6",
"|. c #FDE9D9",
" X c #FDE7D8",
".X c #FCFCFC",
/* pixels */
"B B - B c B c Z B B x B B B x B B Z Z Z B C D G D T R R ! R T Z Z T D T R T T D Y Z B c k B B 7 &.k.A.#.D - - x B Z C C - * B k ",
"- - B - - - - - - % - - - - * x - 6 k - m F Y T R W ! D Y Q T S - B D Y E ( ) T D T D - = - - 0 o.h.M.O.- c C R G D D D 6 - - - ",
"- % $ & $ $ $ $ $ - - - - - 6 - j x m B 6 Z D D K P T D A Y D P ~ O.$.$.$.1.1.#.O.#.b B - 9 #.#.+.l.q.u x - x - - $ $ & @ O O O ",
"c B B B B B c B B B B B B B Z Z Z Z F B A B c 6 6 B S B k 9 O.X.X.} | } } }  .;.;.} X.X.O.O. .| a.d.} X.t w $ @ ; ; ; O O O O O ",
"B Z B B Z B c x Z Z Z B Z B k C Z c - c B B j Z B - c q u $.@. .| a.d.d.f.p a a a q.q.|  .| q.d.d.p } } } t w @ + + ; O O O O O ",
"- - k B 6 - 6 - - - j - - k 7 u u u u O.9 x B B B B q O.| | @.d.F.J.H.J.f.d.f.d.H.J.H.J.G.d.d.a a a f.f.q.+.2 9 * - * $ @ ; @ ; ",
"B - - - - - - - % & = - 8 t X.0.q.q.0.} X.#.0 c B 0 #.;.| d.J.H.G.G.d.d.d.G.J.J.H.J.H.^.^.A.d.G.f.a p a f.j.@.O.6 & $ $ O @ @ @ ",
"- - - $ $ - $ $ $ - $ 8 r 0.l.C.A.J.J.a.q.@.O.O.q #...@.d.J.J./.^.G.F.^.Q.Q.^./.^.J./.^././.H.g.Q.G.a d.J.Z.| t 5 + @ # $ @ @ O ",
"$ & * & $ % $ % $ & 8 r 0.k./.d.a a a a d.0.q.} X.| @.d.H.!.^.^.J.^.^.!./.^.^.!.!.!.J.!.H./.^.H.d.^.F.a d.d.@.| X.$ - = $ & @ & ",
"- & * - - % B - - 8 u 0.k.^.^.^.H.d.p a a f.d.a.+.} a H.!.!.!.G./.^.!.Q.^.Q.H.^.!.!.^.^.d.!.Q.^.d.H.^.F.a a f.@.O.- * # $ ; $ * ",
"@ @ @ $ $ - - = - r q.0.F.^.!.!.^.!.J.d.a a d.g.a a d.!.!.^.!.!.!.!.^.!.^.G.d./.!.!./.!.d.H.!.^.G.J.^.Q.d.p J.q.u - - & $ * & & ",
"B V B C G F F D H &.k.f.d.F.!.!.^./.^.G.G.d.d.a a a H.^.!.!.!.!.!.!.!.Q.G.d.f.Q.!.!.!.^.d.g.Q././.d.^.!.Z.d.a s.u - - $ @ $ @ + ",
"! R R ! Q R R T 6.s.K.F.a d.d.J.J.H.J.J.d.d.d.a a d.Q.^.!.!.^./.!.!.A.J.f.b.f./.^.Q.^.^.m.f.!.^.^.d.F.Q.^.H.d.:.X.- - & @ & @ ; ",
"E Q E ! D T T H &.M.!.^.d.a a d.d.d.d.f.d.d.a a a F.^./.!.!.^.!.^.H.d.b.'.'.d.J./.!.^.J.T.d.G.Q.^.g.J./.!.^.F.q.u O.X.9 % - & * ",
"D D T T G D T 3.s.D./.^.^.d.a a a d.d.d.d.a a a a ^.!././.Q.^.!.G.d.v.T.T.T.T.A.!.!.!.d.T.n.f.^./.d.G.F.^.!.^.M.s.:. .#.k Z m - ",
"T Y D D D T T <.s.A.^.Q.^.^.J.f.a a a p a a a a d.!.!.!.!.!./.J.d.m.`.a p U.T.J.!.^.H.d.T.m.g./.^.a G.G.d.J.!.^.^.k.} > @ @ + @ ",
"G D D D S Z H u q.g.J.!.^.J.J.J.A.f.a a a a p a d.^.!.!.^.!.J.d.c.'.T.T.f.a U.d./.^.F.c.T.a a ^.J.a G.F.G.a d.h...@.t 9 * @ $ & ",
"- B B Z m k <.a.k.a f.A.J.J.f.f.a p a a a a X a d.Q.Q.!.!.!.J.g.T.T.T.'.Y.T.p d.^.^.d.T.a R.d./.G.a J.J.G.a } } X., w * $ $ @ ; ",
"D D A G D D &.h.^.d.a p d.f.a a p a | :.;.<   o d./.Q.!.!.J.d.m.T.U._.T.Y.T._.d./.F.U.Y.R.R.v.J.f.a G.G.H.p  .+.q B B m x - 6 - ",
"C A F B Z Z $.k./.^.H.f.a a p a ..| ;.#.*.y.X X d.!././.!.H.d.R.`.U.'.b.b.T.T.d.F.d.T.T.n.T.T.f.a d.H.H.g.a a.u B m x - - - - - ",
"- - - * @ 8 X.j.^.^.!.G.d.a | } } O.#.0 *.t.X   a /.^.Q.J.G.c.U.T.T.].[.].c.Y.d.g.T.Y.b.].].c.d.a d.G.A.f.n a.i - - 6 - - - - - ",
"$ @ $ $ $ r 0.j.^.Q.H.H.p | } X.t 9 - - [ r.r.  a H.^.^.J.d.'.`.c.X X   X ].T.d.Y.].T.{.X o X a a f.A.A.a p 0.u c B B 6 - - c - ",
"x c 6 c 6 u 0.f.f.G.F.d.} } #.q x j B j [ y.t.o X f.^./.G.d.T.m.X E.a a a X {.R.[.[.].X a p E.X p d.G.d.p } } X.m - B B c B 6 - ",
"- - 6 - - X.l.^.J.d.f.a  .X.9 - - - - - y *.r.X X d.F.^.S.d.T.  (..Xf..Xa a ].[.].[.].v.(.a (.z a d.J.p f...+.q B B x - - - - - ",
"Z F B B Z %.k.^./.J.d.| | O.x c Z B B B m *.t.r.X a J.J.J.f.'.l .X.Xf.a a a ].].{.].{.c.a a .Xl a f.f.p q.:.$.Z Z C Z B Z B B Z ",
"D D G G T <.s.J.G.d.a :.1.~ T G J T Y T Y p.e.y.5 3 d.J.H.p ].T.]..X(.a a d.].|.}.}.].T.p f.{.n.p d.a n :.#.0 D D Z B F Z j k - ",
"G D T T Y 3.s.d.f.f.:.:.1.T ! R U R W T ! Q z.e.7.3 a H.f.a ].].|.|.|. X X|.}.|.|. X}.|. X X].m.d.d.a a.@.#.B B B k B B B - 6 - ",
"D T G D ~ 4.M.H.d.:.:.4.~ T T T T W R R Q / 4.=.P.I.p A.p a {.|.|. X X X|.}.|.|.|.|.|.|. X}.].n.f.a p :.#.0 X.y 7 B B x - B c - ",
"T D D D $.:.a.f.:.:.1.~ Q R R ! T K D W ~ 3.B.P.l m.z d.a z c. X}.|.}.}.|.|.}.}.}.|.}.}. X X_.v.a a d.} O.u v.L.y 6 = - 6 % - x ",
"F B B B d a.k.} @.O.0 B B B c k S T T W 1.B.I.R.z l 9.a 9.8.z _.}.|.|.}.{.].|.}. X X|.}. X_.v.a a a d.{ P.B.5.i.1.H Y J G D B S ",
"& - # $ X.} | 2 t w $ @ @ $ % $ j ) ( ( ^ I.].m.z [.|.8.6.6.8.z '.{.}.|.'..X.X.Xc.U. X{._.c.z n 8.a p {.m.z m.P.B.6.E R T T K K ",
"- - - - 9 X.X.9 - - - - j - - - B ! Q Q z.I.Y.l l v.`.9.6.8.8.c.N c.T.}.|.|.}.|. X{.{._.c.. 8.8.8.x a U.n.l z =.7./ Q ( Q R E ! ",
"Z k B B B k c k k Z Z Z D D C Z D ( Q ( 7.=.i.l z n.z 9.9.v.T.].T.p z c.T.'.'.T.x.z   X X x.p E.E.E.d.c.n.z z B.I.p.T T R W T D ",
"C C B Z Z Z Z B B C C D D D D D Y E Q Q ^ 7.=.z z z a E.d.T.|. XT.M p L a d.a N p X X x.T.f.E.E.E.E.d.z m.z i.i.=.1.R K R ! K D ",
"$ - - - - % - - & % & - - * - B - - - - j #.} | d.d.L (.E.f.}.{.c.E.E.a I d.d.a N E.E.x.c.d.N W.W.W.L a z =.=.5.1.~ T T T T K P ",
"@ - - - - & - % & - @ @ - - - - @ $ - $ $ w > f I N L E.).d.{.U.N E.(.(.(.J.E.G.).).,.-.u.a I I N L g g :.;.4.~ T T T T J D G Y ",
"& @ & @ $ & & @ @ @ @ & - - - $ @ - - $ $ & e f f I L N N M f.b.L E.).(.(.J.Z.J.(.(.4.X.-.} f f f f f z 7.p.~ R R R R T J D D D ",
"@ @ - % $ @ & @ @ @ + @ $ $ @ @ $ - * - - $ 8 e f f M f f f } f f L E.(.(.A.H.f.(.E.f i X.t i e e s p./ W T R W T T T T R T D P ",
"$ $ & & $ @ $ - - - - - - k k B C Z Z C B k c 7 y f f f y y #.u f M N I I d.L d.M I f d H B B B j F T G S P S S D Z F D D D D Z ",
"B k - 6 B c c k - B Z C Z C Z Z B B k B A B C C V s d u 7 B P <.g E.E.L N f.d.f.N I 7.g <.V D D D F B B j m m k B - k - - - - $ ",
"Z k Z Z B Z B B Z B B B Z B B Z Z Z C Z B Z B Z B Z Z B k x V d g W.E.W.E.d.f.f.M E.E.7.f d H S D C B S Z Z B k B j k - B x - - ",
"- 6 k B k - B k m - - - B k B m B k B - - k k k - B B F A B 3.g p.E.E.E.E.E.J.E.d.E.E.E.p.g 2.H D D J D C C Z Z Z B Z D B B B B ",
"B B x - - B - B m B Z B k B - 6 - B B Z B m B - k k x m 6 - 2.g (.(.(.E.W.E.A.G.S.E.E.).W.p.g 2.T T T T K D S P D D Z D F D C Z ",
"R T T T T Y D R T R R E ! R T J E Q W Q E R R E R ! T D T R ^ p.(.(.(.(.(.(.f.A.A.d.(.(.(.E.g 5.^ T R R K D T T D D G K T D D D ",
"T T T R R R T R W R Y W Q Q ! Q ( ) E Q W R E W T Y T W E ^ &.3 N N E.(.(.(.).J.W.G.(.E.I . 4 4 &.5.^ D W ! E P D T T K A D Z C ",
"T J D D T T T D T R R D Y Q E W E T T R Y T T T Q P T R R 5.3 3 X   X X X M N d.J.f.X X X .   4 4 3 ,.~ T R T Y T K D D D D D Z ",
"D D Z D T D S D T T W D Y ! E ! W E W R R R R T R Q ! ! ^ &.3 o   X X X . X   X X o X . o X X X   :.:.1.T T D D T T T T T D D D ",
"T D R W T D Y T D T T R T T T T Y T D Y T D T T D G G D &.< :     X . . X X X X     X X     X f.^.d.:.1.~ K Y D D D D D B B B Z ",
"D D T D D D D D D T D P D J G D D D D D D T D D D D D H $.:.d.G./.^.G.  X o   . X X X X X d.G.G.d.T.P.i.1.b D P Z D C Z C B - - ",
"D D S U D D D Y P R T R R T T T T D J D T D D Z H 3.<.<.s.M.J.d.g.f.f.A.A.f.p p d.g.J.^.C.M.a.i.Y.[.].L.q.&.h S D D C Z D j @ - ",
"D D J G D T P D D Y D D D T T T T T T T T D D D <.s.q.s.:.| s.5.x.b.z :. .:.+.a.M.M.q.@.:.,.4.=.i.B.Y.J.1 1 &.D Z Z Z D Z - $ * ",
"P D T T R R T T T D T ! E T T R ! T R ! T R W R 3.s.:.p ,.D.5.i.T.T.c.=.4.4.6.6.7.7.z.7.7./ ^ 7.6.s.G.  X 1 5.T J T G D G - - - ",
"D D D D D D D D J T T R T Y D P D J D D D D D D H &.k.k.M.%.1.v.].].V.-.&.D C D D D D G G G D D &.4 X X < < *.Z Z Z B B B - $ $ ",
"$ - - - * $ * $ - m x 6 B B - B k 6 6 B B B - k B 0 O.o.o.q u V.].].V.O.0 j B x k C B Z - - B h o.< X   : %.9 - - - - - - - - - ",
"- - - - - - - - - B k B - B Z Z Z Z C Z Z B Z Z Z Z B Z Z Z <.q.].T.u.#.k k B Z B Z V A D Z B o.1 <   X < o.q 7 k - B 6 - - - - ",
"6 - - - - - - - B Z B B Z B k - B B - j B - B B 6 B k m - B o.< G.G.0.u - B - j m k k - - k - o.< X   X < 3 o.9 - - - & - @ - - ",
"- - $ - - B Z - - - - - - - $ & $ - - - - - - B m m j = c k %.3 X . < %.0 B 6 6 6 Z k B c Z B %.<   X     : < o.- 6 - - - - * $ ",
"R ! W W ( Q ! ! D G ! ! ( ! R T R ! R R W T T T W ! E W T T 5.4 X   3 1 5.T W ! Z - k m B B V s q.< o   X   < o.- - - - - $ * $ ",
"` ` ` ] ] ] ` ` ' ' ` ` ' ' Q ` ' ` ` ' ] ] ' ' ] ` ] ' ' ] w.4 X     3 w.^ ` ` D - B B B B B 7 u a.q.1 o < @.X.B - - - - - - * ",
"Q Q Q R R ! ! Q ` ` ! ( ` ` ` Q ` ` ` ` ) ` ` ` ` ) / ( _ ^ 5.4 X X X 3 4 5.E Q D - m B - c - $ 7 u X.h.j.a.X.0 - - - - * $ @ $ ",
"` ` Q ! ! ) ( ( ` ` ` ` ' ( ` ` ` ` ( Q Q ` ` Q ` ` ! ` ( 5.4 4 .   X . 4 w._ ] Y $ c B m B B B 6 B 0 %.X.u 7 B B k 6 6 - - $ @ ",
") Q ! ! R ` ` Q ` Q ! R ` ` Q ` ` Q Q ! ` ` ` ` ` ` ` ` ' w.4 o   o .   $.7.Q ` G - Z B B B B B B B c B m c B - - - - - - $ $ * ",
"B k Z B B B B B B - - $ - 6 - B B B B - B k B m k j B Z B o.< X X X   < q.u B j B B j j m m B k - x - x k - - - $ @ & @ @ @ @ & ",
"B Z B k c - - - - B B m B - m B - B B - x B - B c B B x Z #.:.q.j.N.k.q.u 7 B B F B B Z Z k B c B m B x c - - 6 - * - @ & @ $ & "
};
