/* XPM */
static char *Layer_111677303406[] = {
/* columns rows colors chars-per-pixel */
"64 64 192 2 ",
"   c #1C1F25",
".  c #1B1F28",
"X  c #1B2025",
"o  c #1B2129",
"O  c #172123",
"+  c #2D2D2D",
"@  c #353535",
"#  c #383636",
"$  c #363837",
"%  c #393836",
"&  c #363938",
"*  c #3C3C3C",
"=  c #383639",
"-  c #33342F",
";  c #46201F",
":  c #451E23",
">  c #481D24",
",  c #472123",
"<  c #492125",
"1  c #4A2229",
"2  c #413E3E",
"3  c #4D3B3B",
"4  c #473533",
"5  c #593B3B",
"6  c #583636",
"7  c #542E2D",
"8  c #752525",
"9  c #7D2323",
"0  c #752926",
"q  c #752C2C",
"w  c #7B2C2C",
"e  c #792927",
"r  c #6F233C",
"t  c #71233C",
"y  c #7A2D31",
"u  c #643839",
"i  c #7B3233",
"p  c #76343B",
"a  c #79353D",
"s  c #7A3637",
"d  c #762B2A",
"f  c #3E403E",
"g  c #41413E",
"h  c #4D423C",
"j  c #744A2E",
"k  c #744A31",
"l  c #3E3E41",
"z  c #413F41",
"x  c #4F3C40",
"c  c #5C3C41",
"v  c #702440",
"b  c #763940",
"n  c #3F4141",
"m  c #3E4C57",
"M  c #3F4B59",
"N  c #434343",
"B  c #494545",
"V  c #464847",
"C  c #464648",
"Z  c #494749",
"A  c #4C4C4C",
"S  c #474949",
"D  c #544343",
"F  c #504E4E",
"G  c #5C4845",
"H  c #4E504F",
"J  c #51514E",
"K  c #4E4E50",
"L  c #414B5A",
"P  c #414B57",
"I  c #514F51",
"U  c #4F5151",
"Y  c #535353",
"T  c #5A5555",
"R  c #585856",
"E  c #565659",
"W  c #595759",
"Q  c #565859",
"!  c #5B5B5B",
"~  c #565955",
"^  c #6A4C4B",
"/  c #654746",
"(  c #774949",
")  c #645657",
"_  c #745353",
"`  c #6F5050",
"'  c #5C605F",
"]  c #62615F",
"[  c #5E5E60",
"{  c #635F62",
"}  c #5E6162",
"|  c #636363",
" . c #69696A",
".. c #686766",
"X. c #9A1E1D",
"o. c #83211F",
"O. c #9D201E",
"+. c #861E2D",
"@. c #881F2E",
"#. c #861F23",
"$. c #891F31",
"%. c #871E31",
"&. c #822524",
"*. c #8B2424",
"=. c #852927",
"-. c #86222D",
";. c #8A212E",
":. c #852A2B",
">. c #8C2B2B",
",. c #8A2827",
"<. c #942C2B",
"1. c #863A29",
"2. c #8A3D2C",
"3. c #863729",
"4. c #872031",
"5. c #8B2232",
"6. c #8B2F31",
"7. c #8D3334",
"8. c #843B3A",
"9. c #873737",
"0. c #9B3434",
"q. c #93353A",
"w. c #953A3B",
"e. c #9A3B3C",
"r. c #953638",
"t. c #932F36",
"y. c #A82A2A",
"u. c #A6223D",
"i. c #A9243E",
"p. c #AC283F",
"a. c #A33939",
"s. c #C92332",
"d. c #C52434",
"f. c #C9232F",
"g. c #87423D",
"h. c #A54D38",
"j. c #A9523C",
"k. c #843F40",
"l. c #9C3A43",
"z. c #A72441",
"x. c #AB2541",
"c. c #AD2944",
"v. c #A52C5E",
"b. c #A52C61",
"n. c #AA2B60",
"m. c #CF3E59",
"M. c #CE3E57",
"N. c #D13E5A",
"B. c #9F6F4B",
"V. c #9E714B",
"C. c #9D7047",
"Z. c #A16F4B",
"A. c #A06F47",
"S. c #A1704B",
"D. c #BC6551",
"F. c #8A4444",
"G. c #CE4059",
"H. c #D3415C",
"J. c #C46C59",
"K. c #C26855",
"L. c #DC536D",
"P. c #DE4F7A",
"I. c #DE5176",
"U. c #DF517A",
"Y. c #E04F76",
"T. c #E24F7A",
"R. c #E25076",
"E. c #E1507A",
"W. c #C96C65",
"Q. c #CE7166",
"!. c #CE726A",
"~. c #D2736E",
"^. c #CD9F7D",
"/. c #D09F7F",
"(. c #CEA07E",
"). c #D0A07D",
"_. c #646F8D",
"`. c #63718C",
"'. c #637287",
"]. c #FB77A6",
"[. c #FB79A6",
"{. c #FB79A9",
"}. c #FB78A8",
"|. c #9AA4B5",
" X c #99A4B8",
".X c #CEA181",
"XX c #EAC9B6",
"oX c #ECC9B9",
"OX c #FCE9D6",
"+X c #FDE9D9",
"@X c #FEE7D7",
"#X c #FCFCFC",
/* pixels */
"N N * N N N N N N N g N g N N N N V V V N V K A A Y W Y ~ Q Y V C I A Y Y ~ Y A Y D w i.m.L.L.:.c B C B V z * 2 V V Z Z * * 2 N ",
"* * N * * * * * * * * % * * * * * 2 z * 2 B K Y E W ! A U ! Y V * V A Y ! [ ' Y D 9.x.m.N.N.L.L.&.5 * 2 z N Z Y I A A A z * * * ",
"* * $ = = % $ $ $ * = * * * l * * N N 2 N N A A F F Y F A K A A A z Z N V A A Z w x.x.,.*.i.N.L.N.&.z f * * l l * * $ $ @ + + + ",
"* N N N N N 2 N N N N N N N V V C V N V V V l n l N V N z * 2 l * N * * * * * * 3 e e 3 3 0 i.].N.&.* * = = $ - + + + + + + + + ",
"N V N N V N N * V V N N N N N Z Z z 2 g N N N N N * l z * g N l N l N N V V N * N l n l 6 =.-.T.m.*.* % & * @ @ - - @ + + + + + ",
"* * z N * * n * * 2 z z * f g g N * g 2 * * N N V N z l g 5 =.=.=.=.=.=.&.,.&.c z N 5 &.9 +.i.m.z.0 * * & = $ * = % $ $ @ + @ + ",
"N 2 * * * * * * = = % 4 8 &.&.8 8 e y 3 n V N z N N 5 :.>.&.5.%.$.%.-.@.5.4.4.=.=.:.:.$.-.x.v.x.e w w =.5 f n l * = = $ @ @ @ + ",
"* * * $ * $ = % $ % 4 8 u.M.N.u.u.x.i.w y 3 N 2 6 :.&.-.@.+.x.v.b.b.t t r b.i.x.-.+.+.i.b.v.t +.i.u.x.$.&.7 l * + - @ @ @ @ @ + ",
"@ = & $ $ % $ & % 4 8 u.N.b.t t t r x.u.i.0 3 5 =.+.$.-.b.E.Y.E.U.v.v.b.I.E.E.E.I.T.E.b.t t t t t t v.z.+.=.* * = = * * $ - @ = ",
"* $ * * = * n * * 8 i.m.].t t t t t t r x.i.y =.+.@.t I.T.T.T.Y.v.U.[.].}.[.E.[.}.R.E.E.E.b.t t t t t b.M.&.6 * * l = = @ - $ = ",
"@ + @ % $ * * * 4 &.M.}.[.T.b.t t t t b.Y.N.i.5.@.v E.{.[.[.E.b.[.[.[.[.[.}.[.E.[.{.Y.b.E.}.E.t t t b.I.N.$.7.V l * * $ @ = = = ",
"N V N Z F Z V A 9.x.N.}.[.{.].Y.v.b.U.T.R.n.t t r U.{.}.}.[.Y.[.[.[.{.U.[.[.[.[.[.[.{.Y.n.E.[.E.t b.U.E.b.5.q.Y n * * $ = @ - - ",
"! W W Q ! ~ Y Y 9.c.E.[.[.[.[.[.}.{.R.E.v.t v t b.[.[.{.[.E.[.[.[.{.I.v.{.{.[.[.{.E.[.[.E.v.[.[.b.t r t b.5.r.J * * * * @ = @ - ",
"W ! R Q H H Y U 9.c.b.E.[.[.Y.U.E.Y.T.n.t t t t E.[.{.].[.E.[.[.[.Y.E.v.[.[.[.[.[.v.[.[.[.v.U.[.E.r b.v.R.c.8.T V l * l * & @ = ",
"A F Y Y H A Y / 6.H.b.t b.Y.T.E.T.b.v.r t t t b.[.[.[.[.[.[.{.[.[.E.b.b.[.[.[.[.[.v.Y.[.[.E.v.[.{.v.t U.E.p.q.^ A N N N l N n l ",
"Y I A A H Y Y 9.p.R.Y.v.t t b.b.v.b.t t t t t R.[.[.[.{.[.[.[.[.b.S..Xn.R.[.{.[.E.S.b.{.[.[.v.}.[.Y.t v.E.z.4.=.* = @ @ @ @ @ - ",
"K A A A A B V >.H.[.[.}.R.v.t t t t t r r r v.[.[.[.[.[.[.[.{.v.(.^.^.b.U.[.[.[.v.(.v.[.[.{.b.T.}.[.v.t v.r $.&.& * * % # = = $ ",
"f z N N z z V >.N.[.[.[.[.}.E.v.v.b.r t t t v.[.[.[.{.[.[.}.v./.r r (.^.E.[.[.[.b.^.S.R.[.{.n.Y.[.].Y.t t b.u.0 * % $ & = $ @ + ",
"A A A A A K G 9.i.E.[.[.}.R.E.E.b.t t t t t Y.[.[.}.[.[.{.v.S.).(.v.t (.P.[.[.{.(.(.t t [.[.b.E.E.[.}.E.t b.H.,.N N * 2 l * * * ",
"N Z V V N C y i.x.v.E.[.E.R.b.b.t t r t t v.R.[.[.[.[.}.v.S..X(.^.^.(.t b.[.}.E.(.t (.v.[.[.b.Y.b.R.[.[.b.r z.w N z N n * * * * ",
"* * * % = # *.m.b.t r v.v.b.t t t t t   t b.{.{.}.[.[.E.b./.(.).(.(.(./.v.].[.E.(.).(.b.[.E.t U.E.t b.Y.].b.@.&.6 * l * * * * * ",
"% % @ $ $ # o.M.].E.v.r t t r t +.@.>   O b.[.[.{.[.[.b.V.(.(./.V.S.^.(.B.Y.[.Y.(.C.(.b.[.v.t Y.Y.b.r v.E.Y.@.4.w N N g * * * 2 ",
"2 l f z z 2 &.N.[.[.{.T.U.b.v.-.-.X.s.. X v.[.[.{.[.P.v.)..X(.XXoXoXV.).^.v.].v.B.XXXXS.E.v.t R.E.b.t t r t t u.e g g N g l * 2 ",
"* * * * * * &.N.[.{.[.[.R.E.%.$.&.X.s.X X t [.[.[.[.v.V.^.Z.X . O O oX/.^.B.P.v.XX  + O b.t b.E.E.x.-.@.t t b.x.w N * z l * * * ",
"Z V B z N V w x.Y.].{.Y.U.i.@.=.5 O.s.s.  r P.].].P.v.^.Z.O `.v t t X XXXX).v.^.O t t `.O t b.E.E.+.=.5.x.v.v.i.w A V N N V z N ",
"A A H K Y Y 9.c.b.v v.n.v.5.7./ J y.s.s.  + v.].].b.b.^.O |.#Xb.#Xt t oXXXXXoX(.V.|.t |.j v v.E.E.5.:.=.-.b.v.@.:.c N V B z N z ",
"A A I Y I Y 9.x.E.v.t t 5.5.q.R Y 8.y.d.. . v.E.[.b.Z.oXk #X#Xv.t t t XXoXXXXXXXS.t t #Xk t v.Y.i.-.,.:.@.5.r 5.5.=.V V N N * l ",
"A Y I F F K 8.x.[.R.b.v.5.7.^ Y Y W y.s.s.O t E.}.v.S.XX.X#X#Xv.t t b.XX+X+XOXoX(.t t #XZ.t n.R.5.:.5 5 :.@.-.v.i.:.5 * * f g & ",
"Y H V A Y A 7.5.E.[.U.v.5.q.J R Y Y s y.f., , v.U.r Z.+XoX/.#X|.b.v.(.@X+XOX+XOXXX(.v.).(.t b.c.@.&.* = 6 9 +.+.i.+.=.* * * l * ",
"B N N N N N :.+.i.E.E.i.-.=.z N V Y Y a y.0.; c.b.t S.+XOX+X+X@X+X@X+X+XOX@X+X+X+X+X+XoX^.t v.5.6.G A Y A G t.7.5.$.7.A A A V V ",
"* & & % % * 7 9 u.v.t $.9 7 & $ N R { [ Y ( 0.5.c.5.2.oX+X@X+X@XOX@X+X+X+XOX+X+X+X@X+XoXV.t c.5.e.! ` e.w.g.) ^ q.q.` W Y Y F Y ",
"* * * * * 2 * 0 i.L.E.+.&.* l 2 i ( w._ } ' ` w.c.0.2.j.+X+X+X+X+XOX+XOX+XOX+X+X+X+XOXJ.2.5.5.w._ w.a.2.J.!.g.R ] ! R | R Y W Q ",
"N N N N N n 2 x *.N.b.5.6.S D :.Q.~.J.g.F.| } l.5.q.0.2.J.OX+X+X+X(.OX@X+X+X+X+X+X+XJ.2.e.5.l.` q.j.Q.Q.k J.!.k.E ~ Y Y Y R Y A ",
"Z V N V V V B B y u.N.x.9.K 7.K.~.).2.0.~.g.! _ g._ w.e.2.V.XX@X+X+XS.j j .XOX+XXXV.1 0.e.;.6.7.4.!..Xk j 2.e.8.T R W Y Y ! Y A ",
"% * * * * % * & 4 &.M.u.e = q W.+X).1.1.W.q z u p :.h.K.h.L j Z.(.XX+X+X+X+XXXZ.  X 3.&.8 9 0 b i.(.Z.k k J.Q.Q.8.Y Y Y Y Y U K ",
"@ * * * * = = % * 7 #.z.e & q J..Xj k k K.9 7 t.t.u.W.@XoXZ.t L k j k j j k t O X Z.D.u.p q 7.t.b.j S.(.1.j.J.9.Y Y F Y H Z Y K ",
"= $ $ @ $ = % @ $ @ 4 8 4 * 9 h.(.k j V.h.+.t.y.|.`.b.+XXX(.m r P t b.t L t L `.V..X.Xv.`.`.`.`._.t j j.j.7.q.^ R R Y I U H A A ",
"@ $ = % $ @ $ = @ - @ - = $ &.1.h.j j V.t L _.|.`.`.b.XX^.B.`.`.r M b.n.t L `.`.S.V.r L L `.`.`.M M 5.5.w.^ W Y Y Y Y Y J Y A J ",
"$ $ = $ $ $ $ * * * * * 2 g 6 ,.-.4.t v.L M M `.'.L 5.1.h.M `.|. X|.T._.T.|.|.w.1.1.5.s a L M L M p a 7.h F Z Z A V V Z A A A V ",
"N n * 2 N * N 2 l N N V B Z Z 5 =.p p P M L m L p s -.=.p L `.|.|.|.Y.T.Y. X|.q.,.<.6.s a a s a a p i 3 N z N N g N N z * * * * ",
"V z V N V B V z V N N N V N N V D s p p p p p p p y =.w p M P `.|.|.E.U.v.|.e.p y C C D i s i y w s h B V V N N 2 N N * N f * * ",
"* 2 N N z * N l z * 2 * N z N N N 3 w w e q q q q 3 D i p L L m M v.L v.M P a 9.D K U A F Y Y Y A A Y A V S V Z V N A Z N N N N ",
"N N N * 2 N * N N N V V * N l * l N N V N N z * g N q p q.`.L L L v.b.v.L `.a 8.G Y U Y W Y A Y Y Y W Y J A Z A Z V Z Z Z Z Z V ",
"Y Y Y Y Y A Y Y Y W Y Y R Y Y Y Y ! Y ! R Y Q ! Y ) 8.a `.`.`.`.`.v.U.R.b.`.l.a k.) W ~ R Y Q Y Y Y Y Y Y H Y A A Y J U Y A A A ",
"A Y Y Y Y Y Y R R Q Y Y [ R R ! ! ! R [ Q Q Q W Y s a l.`.`._.`.`.`.E.`.E.`.`.l.a 9.J R W ~ W R W Y Y Y ~ ! ~ I A Y Y J A V Z A ",
"Y Y A A Y Y Y U Y Y Y Y I ! W Q ! Y Q Y I Y Y Y ~ 8.a `.|.`._.`.`.`.b.T.P.`.`.`.l.b 8.H J Y Y Y Y Y Y J Y Y Y Y Y J A Z A A A V ",
"K H V Y Y A Z A Y Y R A U W R R Y W W Q Y E Y Y ( 0.1 L _.|.|.|.|.|.|.E.E.v.|.|._.a 0.( Y Y A Y A Y Y Y Y Y U A Y Y Y Y Y F Z H ",
"K F Y Y Y A Y Y K Y Y Y Y Y Y Y Y Y A U Y A Y ( <.> 1 X o L `.|.|.|.|.Y.`.U.|.`.L 1 , 0.( ! Y R Q Y Y H A Y Y A A Z A A V N N V ",
"A A Y A Z A A A A Y K A A Y U A A A K A A I A <.> > X X o o   X   P L v.E.Y.m . X   , , <./ Y Y Y Y Y Y A V A A V Z Z V Z N * * ",
"A A Z Y Y Z A H Y Y Y Y Y Y Y Y U F U A A Y G >.> O o O X O   . X o X   X X   O X X X 5.5.>.Y A A A A Z A Z Z V A A Z V A g @ * ",
"A A H H U Y H H A Y A A Y Y Y F Y Y Y Y Y Y 9.x.H.t . o X X X X X o o X X .       v.I.c.5.7.H F Y Y J A Y Y F A B V B A V * $ = ",
"F A Y Y R Y Y Y Y A Y R R Y Y Y ! Y Y W Y Y 7.5.v.E.{.}.v.t o O . X X X X X r b.[.T.b.5.w._ ! | ! [ R ~ Q W Y Y Y Y H A F f * * ",
"Z A A A A A Z A I Y Y Y Y Y A A A A A K A J :.c.t [.r E.[.{.E.v.v.t t t t b.Y.[.v.Z.S.2.t.G A H A A A Z V Z V V V V N N z * & $ ",
"$ * * * * $ * = * f N l N N * N N g l f n N q i.t [.S.^.S.+.x.x.-.x.N.N.N.i.$.1.h.).(.h.i.=.g n z V N * N g * * * * * * * * * * ",
"* * * * * * % * * N z N N N V V N C Z B V V >.N.t [.oXoXK.1.>.:.:.:.<.>.,.w =.>.x.N.R.b.1 *.u g N N * n * * N * z * z z * * * * ",
"N * * * * * * * N V N N N N * z N g n f N * ,.G.-.[.E.E.z.>.6 g N * 2 * * N z 3 *.> . O ; > *.7 * * * * * * * * * * * % * $ * * ",
"* * * * * l N * * * * * l * $ $ @ * * * * * 6 ,.L.N.X   , *.u n n l l N N N N 2 *.> > O   , : *.g n g N 2 l * * * N * * * * = $ ",
"Q R Y Y ! ! ! Q A F R R ! ! Y I E Q E ~ Q Y Y / 0., X   , < 0.) Y Q R ! W Y R Y u *.;   O . 1 *.u N n f 2 n * * * * * * * $ % $ ",
"| | |  . . ...|  . .| |  . .[ |  . .| |  . . . .a.1 X X O 1 a.( | [ ! | | ! | ..J *.,   .   : : *.N N N N N N z N * * * * * = * ",
"! ! [ W Y R R ! | | R }  .| } ) ) | ..| } [ | ..a.1 X X X 1 , 0.Y Y Y ! } E Q [ S *.: o   X O : &.6 * l f 2 * N * * * * % $ = $ ",
"| } ! R R | ! | | | | .. .] | | | | | ! [ } ..( a., O X . X 1 a._ ..] | ! } |  .K #.> O o O X > @.=.N N N g N N z N * 2 * = % $ ",
") } Q ! R | | ! | ! R Y } | ! | | ! ! ! ! ..| a.1 1   O   X 1 1 a.| | ! ! ! ] | A =.4.: X     , ;.=.z V N * n * * * * * * $ $ = ",
"z N N N N l N N n * * * * N * N g N n n n n N =.%.> +   O X O : *.g N n N * * N N 5 :.z.N.N.i.5.&.6 * * z * * * $ $ $ $ @ @ $ % ",
"N N V n * * N * * N N * N * n N z g N * N N * 5 =.+.u.M.N.N.i.$.:.B N N 2 N N N V N x :.>.,.w &.5 2 N z N * * g * = = @ $ @ = = "
};
