/* XPM */
static char *rin_21677301850[] = {
/* columns rows colors chars-per-pixel */
"64 64 242 2 ",
"   c #0C121B",
".  c #191A1D",
"X  c #070614",
"o  c #2E1B1C",
"O  c #30281D",
"+  c #0A1323",
"@  c #1B1D22",
"#  c #151A24",
"$  c #040D21",
"%  c #341F23",
"&  c #1B2124",
"*  c #2D2C2D",
"=  c #282A27",
"-  c #362823",
";  c #353535",
":  c #3C3C3C",
">  c #383839",
",  c #302F2E",
"<  c #551E1C",
"1  c #731B1B",
"2  c #4C3216",
"3  c #702C17",
"4  c #581C21",
"5  c #491E21",
"6  c #6A1E21",
"7  c #423E3D",
"8  c #483A39",
"9  c #583A3A",
"0  c #513226",
"q  c #772929",
"w  c #6A3535",
"e  c #783536",
"r  c #712E2C",
"t  c #3E413D",
"y  c #5B401A",
"u  c #7A4D05",
"i  c #724C0B",
"p  c #41413E",
"a  c #49453C",
"s  c #5A4536",
"d  c #5C4126",
"f  c #664C27",
"g  c #6A5429",
"h  c #74512E",
"j  c #76662F",
"k  c #3E3E41",
"l  c #343842",
"z  c #413E41",
"x  c #483F40",
"c  c #683F45",
"v  c #3F4141",
"b  c #374246",
"n  c #434343",
"m  c #4A4344",
"M  c #454945",
"N  c #494947",
"B  c #464549",
"V  c #494649",
"C  c #4C4C4C",
"Z  c #46494B",
"A  c #554949",
"S  c #53514D",
"D  c #4C4E52",
"F  c #544E51",
"G  c #4E5254",
"H  c #535353",
"J  c #595555",
"K  c #565955",
"L  c #595856",
"P  c #555559",
"I  c #5A5659",
"U  c #565959",
"Y  c #5B5B5B",
"T  c #4D504D",
"R  c #684647",
"E  c #754748",
"W  c #655959",
"Q  c #6E5251",
"!  c #796547",
"~  c #595C65",
"^  c #585F71",
"/  c #6A5E62",
"(  c #5C646B",
")  c #5D6573",
"_  c #626363",
"`  c #6A6A6A",
"'  c #65666A",
"]  c #676C74",
"[  c #74757B",
"{  c #756C6F",
"}  c #951B1D",
"|  c #891F18",
" . c #AB1C1B",
".. c #A51C17",
"X. c #B11F1D",
"o. c #96390D",
"O. c #963116",
"+. c #AD211B",
"@. c #A7251A",
"#. c #B2261E",
"$. c #A23715",
"%. c #A91D20",
"&. c #842827",
"*. c #9B2324",
"=. c #962928",
"-. c #863636",
";. c #953531",
":. c #A92826",
">. c #B32422",
",. c #B72A27",
"<. c #A83437",
"1. c #B63736",
"2. c #AB332C",
"3. c #9B1F21",
"4. c #C13D28",
"5. c #8A490A",
"6. c #93490D",
"7. c #835405",
"8. c #855409",
"9. c #8A5506",
"0. c #954312",
"q. c #91580E",
"w. c #AF5319",
"e. c #99630C",
"r. c #9B6614",
"t. c #A56B16",
"y. c #B6771C",
"u. c #B16D13",
"i. c #855D24",
"p. c #8E4F2D",
"a. c #B04E32",
"s. c #976929",
"d. c #98633B",
"f. c #8F6D34",
"g. c #AD7425",
"h. c #BA7A21",
"j. c #A97637",
"k. c #AF6E2B",
"l. c #C87D1A",
"z. c #CC752C",
"x. c #C04234",
"c. c #8F3D43",
"v. c #874343",
"b. c #8F4F4D",
"n. c #B54944",
"m. c #896847",
"M. c #926F4E",
"N. c #AE754E",
"B. c #907871",
"V. c #AF7776",
"C. c #9D5F62",
"Z. c #C9534C",
"A. c #D36E63",
"S. c #BD853D",
"D. c #B1832E",
"F. c #D5881E",
"G. c #C5801B",
"H. c #CA8526",
"J. c #D58B28",
"K. c #DA952A",
"L. c #D99635",
"P. c #CD8931",
"I. c #E7972B",
"U. c #E69B36",
"Y. c #DAA537",
"T. c #EAA937",
"R. c #F2A839",
"E. c #F7B93C",
"W. c #FCC33D",
"Q. c #B68358",
"!. c #AC9173",
"~. c #968478",
"^. c #C99054",
"/. c #FBBC44",
"(. c #F4B942",
"). c #F3AE56",
"_. c #CD8F64",
"`. c #CC9368",
"'. c #CF976F",
"]. c #D4A46F",
"[. c #E5AE67",
"{. c #FEC444",
"}. c #FECB4A",
"|. c #FEC947",
" X c #FBCA53",
".X c #F7C873",
"XX c #717987",
"oX c #7C8389",
"OX c #7E8796",
"+X c #87888B",
"@X c #8C9397",
"#X c #95979A",
"$X c #8D8D93",
"%X c #AE9390",
"&X c #B1A290",
"*X c #989DA3",
"=X c #9BA2A8",
"-X c #98A5B5",
";X c #A7AAAB",
":X c #B9A7A8",
">X c #A9AFB8",
",X c #ACB2B3",
"<X c #B3B7B9",
"1X c #ADAEB1",
"2X c #AD9CA2",
"3X c #D5AA8E",
"4X c #E4AA89",
"5X c #E8B79B",
"6X c #EFAF8F",
"7X c #C7B6B0",
"8X c #EDBBA8",
"9X c #E59B99",
"0X c #EBC3A9",
"qX c #F2C4AA",
"wX c #EEC8B7",
"eX c #F7CBB5",
"rX c #FCD1B8",
"tX c #FFE8AE",
"yX c #E4D292",
"uX c #B3BDC7",
"iX c #BBC2C3",
"pX c #C4CACA",
"aX c #D8DCDC",
"sX c #CBD1D2",
"dX c #F9D9CA",
"fX c #E3DAD1",
"gX c #FEE6DB",
"hX c #FEE9DC",
"jX c #FCE3D6",
"kX c #FAE2CC",
"lX c #D6DBE2",
"zX c #EBECEB",
"xX c #E4E5E6",
"cX c #FEECE2",
"vX c #FCE9E4",
"bX c #FAF4E7",
"nX c #EAEBF1",
"mX c #EEF1F2",
"MX c #FDFDFD",
"NX c #F7F7F6",
"BX c #ECF1ED",
"VX c #DFE4E3",
/* pixels */
"n n : n n n 7 B n n : n n n v n n B N B n N C C C U L H Y P H B N H C H P H H D H B n v n n n n m N B C B 7 : : B B C B : > p n ",
": : : : : : : : : : : : : : : : : : p : p B H H H H Y C T Y H B 7 n C S Y Y _ H C S C : > k : t v t : : t p C H T C C C n : > : ",
": : : : ; > ; ; ; : : : : : : : : n n p n n C C T C H C C C V V C n B B C C C C n n B v : : n B k 7 v : z k k : : : ; ; ; * * = ",
": n n : n n n n n n n n n n B B N B n B B n t p 7 n N n z k x k t v : : > > > : n : : k 7 : n : : : : : > ; > ; , , * * * * * = ",
"n N v n B n n p n B n B n B p B B n : n n n t B n 9 } %... .3.r 8 x n n n N n : n n : : k x 8 > : k : > > : ; ; , ; , ; * * = * ",
": : n n n : : : : : p : p t p p p k n : : t n n a &.%XzXNXzX7X2.>.9 7 t n : v B z v n 9 q :.%.q : : : : > > ; : > : ; ; ; ; ; , ",
"n : : : : : : : : > : ; ; > ; > : : p t z B n : 9 2.7XMXMXMXMXxX3Xn.X.8 n n N z x n q <.n.pX7X<. .: m n : k t : : ; ; ; ; ; ; ; ",
": : : ; ; : ; > ; > : ; > : : 7 : : : : n n n t &.V.zXMXMXMXMXMXMXlXV.>.m C B p l r 1.7XMXMXmX%X:.8 k : : : k : , ; ; ; ; ; , * ",
"; ; > ; ; > ; > ; > > ; > : : 7 : > : : : : v n q C.xXMXMXMXMXMXMXMXxX1.c z D C e <.iXMXMXMXBXV.&.9 7 : : : : : > ; : ; ; ; ; ; ",
": ; : : : : p : : : p : p n n : z B B n C n n n q v.aXMXMXMXmXxXMXNXMX8X=.w m 9 <.%XMXMXMXMXmX$Xb.q v B t t > : : : : ; ; ; ; ; ",
"; ; ; ; ; : : > > > > : : t : : n z N M n B t t q b.<XNXMXMXxX>XxXMXMXMX%XX.n e b.lXMXMXsXMXNX=X+X .B 7 B B V C v : : : ; ; : ; ",
"n B n C C N C C C C C C C C H C T H H H J H H J -.v.] xXMXMXMXpX@XxXMXMXnX,.E ;.%XMXMXsXzXNXiX*XW >.K K H H L H n : ; ; ; ; ; , ",
"L P L L Y Y H P H H Y H Y L Y H H L L W ' Y L _ c.-.` ,XbXMXMXzX$X#XzXMXMX:X<.n.aXMXMX#XzXNXuX#XI :.P P _ L H H : : : : ; ; ; , ",
"L Y Y P C F H C H H H H P H H H L H Y Y H Y I Y Q ,.e XX<XmXMXMXxXXXoXmXNX2X<.+XaXMXpXoXmXiX>Xb.,.v.C P H H L H n k k : : : > ; ",
"C C H H C C H H C Y Y H Y Y H L ( _ Y H Y Y Q ,.2.w.g ] oXXX<XzXNXuXI $X1X$X@X[ 1XsX[ <XzX<X*Xc ,.W W ~ K H H L C B n n v n n k ",
"H H C C T H H H H H H C C C H P S H Y P K Q -.0.u.H.H.f.) ] [ oX;X<X1X_ _ <XaX@X*XD #XxXiX;X' -. .n B B n B n p : ; ; ; ; ; ; , ",
"C C C C N B B N C C B N B N B n : > : v 9 q o.t.D.K.J.G.s.f ' ' ~ oX>X$X) ) =XaX;X^ VXsX=X( -.q 7 n k 7 t v : : ; : : > ; ; : ; ",
": n B n p n n B : n n C C C C N m n M n  .o.t.y.y.y.y.y.i.! _ ] ~ G ^ ) ) j ] >X) OX*XoXm.@.q : : k p : : : : > : > ; ; ; ; ; ; ",
"C N C C C C S C C C C N N N C B n M n w  .7.y.y.h.h.e.M.@XuX-X[ f.s.s.i.j.T.^.D.s.j.f.k.H.w.q C n n B B n n n p n n : n : : : : ",
"B C B n B n N B N n B B v B C B t n B =.5.y.y.y.y.t.j =XiX+XS.P.K.I.l.F.W.}.W.E.H.t.F./.U.J.@.w M M M B n n n v n n n : : : : : ",
": : : ; ; > : : : : : : : : : ; ; k N ..9.y.y.t.9.g ] ,X+XL./.|.(.l.!.zX.X|.}.E.s.s.J./.}.kXu.*.N N B k 7 z : : : : : : : : : : ",
"> ; ; : > ; ; ; > : ; > ; : ; : : > r  .5.8.7.7.7./ XXg.U.{.}./.H.H.W.7XmX XW.D.N.P.J. XhX7Xz.+. .N N p B B B n n n n v : : 7 : ",
"p : n : n : p p 7 : : : : : n : : : 3.7.7.7.8.9.h ) j.I.|.}.E.l.G.Y.Y.W.3XnXS.z.'.^.z.xX7XT./.j.#.m n B p t : : n : n n : n : : ",
": : : : : : : : : : k p n : : : : : *.5.8.7.9.u f.f.F.U.(.(.l.^..XD.9.K.K.%X~.`._.].! &XI.E.tX7X>.m p B p 7 n n n p : : n k : : ",
"C B B p n B B n t : n : : n : : N v =.5.8.7.7.u e.I.R.T.H.H.H. XfXbX.Xk.e.z.'._._.Q.t.l.[.tXlXN.>.8 : n n N N B B N n n N n n n ",
"C C H C H H H H H H S H H H H H H e $.9.7.7.7.7.e.r.t.h.H.H./.E.Y.yXmX&Xj._._.'.4XN.^.B.uX3X^.w.+.N N n N N B C B C n B B p n t ",
"S C T H H H H H H H H G H H H Y F <.0.8.7.7.u u 8.r.y.Y.(./.}.}.E.I.Y.!.`._.`.8X3X`.'.f.Q.F.T.w. .m B B B n n n n p n B n : : p ",
"C D F T S C H H C C C C H H H H P ;.6.u u 7.q.y.K.T.{.}.}.}.{.T.I.g.N._.`.5X5XwX4X`.N.u K.W.W.z.#.m n v n n n 7 n n n : : n : : ",
"H D C C C F H H H F H H Y H H H H ;.0.u 8.8.( M.q.t.L.T.I.U.g.0 = & 0 Q.5XqXqXeX'.h % i U.{./.z. .8 : : : : : : : : : : : : z : ",
"N n n n n v : n v n n n n n n n B ;.0.8.9.i @X,X) g 9.y.l.g.2 ( #X> & 0 Q.qX8XeX!.O # i K.{./.z.#.A T C C C H C C C H C C C B B ",
": : ; ; > : ; ; ; ; ; : ; ; : ; 7 ;.6.8.7.8.OXpX+Xi.I.T.U.r.k mX1X<X] l f 8X8XrXB.( G 3 K.|./.z.,.W Y _ Y L L L Y Y Y H H H S H ",
": : : : : : : : : : : : n : : : 9 #.6.8.7.i ) iX!.u.{.}.U.g.m.MX;X' > l N.eXeXrX&X+ 2 8.J.}.E.z.,.W Y _ Y Y Y Y ~ Y Y _ Y H K K ",
"B p n n n n z t p B N N C C N n -.0.7.7.u e.s oX!.H./.}.U.^.'.bXsX= X { dXhXhXhX3X; Q q.T.{.R.w.#.W C S L S L H L L H H H Y H C ",
"N B n B N n B n n n C N C C C R @.5.7.7.u y.r.g s.l.(.}.(.0XjXdXbX:X%XdXjXhXhXhXkX3X'.i.E.}.h.6.,.J K Y ( Y Y Y H Y H H H Y C C ",
"> : : : : : : : > ; > : > > : q o.9.7.7.t.D.y.u 9.t.K./. XvXhXhXgXbXbXcXgXgXhXhXcXgX4Xq.E.T.t.....S _ Y Y Y Y H H L H H H G H C ",
"; > : : : ; : : > : ; ; 7 > 7 } 5.o...7.J.y.9.u u r.h.E.}.wXvXgXgXgXcXgXgXgXhXhXvX8Xm.i E.D.5.} = n K H H H H H H H H H C C F H ",
"> ; > ; > : ; ; ; > > > : : : q ....o.u.I.y.5...7.7.t.K./.^.vXhXhXgXgXgXkXgXgXvXdXN.} 5.L.8...6 , m Y U K P P H H Y H C S D C C ",
"; ; > > ; ; ; ; ; , ; ; ; ; ; > 8 ..w.J.y.5.} 9.7.7.o i.I.U.5XdXgXhXgX8XZ.dXdX4Xm.| } 5.t.5.} ; , m Y Y J P P H H H L H H H C H ",
"> > > ; ; ; > : : : > t k : p B e w.y.6.#.3.o.7.2 # . + t.J.^.d.Q.5X`.1.Q.A.0.-. .e ..5.5.:.w n z B H C C C N N C B B C C C C B ",
"p p : p n : n : v n m N N B N n x r *.*.w +.6.3 + &   O d.9X6X7Xo 5 3 3 3 *.*.q m N -.o.#.w N C C B B v 7 n v n n p p p : : : > ",
"B p B n B N n n B n n n n B n B x Z B n B w =...5 X t f.'.gXA.9XQ.< 1 1 1 6 1 #.q 9 s &.x A B N B N B N B n n n p n p : n v : : ",
": n p n p : v 7 n : p : p p n z B k n 7 t n 9 *.E oXsXm._.dXjX9X.Xf $   @ # O g.Z.a.=.E D F H H T C G C C N B B B n B C n n n n ",
"n n n : z n n n n n n B n t : : k z n n z k r =.;XMXMX=Xd.3XdXrX).h 0 h.@ + 5 ).8XdX9Xx.Q H F H H H H H S C N C C C B C B C N B ",
"H H H H H T C H H H L P Y H H H L Y P Y Y W :./ aXMXMXMXB.d.N.^.i.& = r.Y.j.- ).wXrXA.,.J L H H H H H H H C H H C C C S S C C C ",
"F H H H H L H L L P F K Y Y Y Y Y Y Y Y L Q <.+XaXMXMXMXmX;XXXM.2 . # . - 0 L.].wX3Xx.E U U L P L H H H P Y L C C H H T C N N C ",
"H T F T H H H D H L P C H Y P H Y G P H D R :.~ %XxXNXMXMXNXiX;X{ 8 o & & - z.d.].Z.X.P H H J H H H H F H H H H H H C C C C C n ",
"C F B T H C C C H H L C D L Y L L L U L U P -.=.p.&X7XhXMXbXxX7X@XM.*.< - u. .:.,.-.P C H H D H G C H H H H C C H H H H S C C D ",
"C G H Y H C C H T H H H H H H H H H C T H R -.o.  8 m.B.~.B.d.i.0 R 2.-.2.;.E G ~ H P P U Y H L L H H H F T H C C C C C B B n B ",
"C C H C C C C C T H D T F F C G C C C C R -.o.i 9.g h j j j ( a a.=.c T C C F F G C H T S H H H H H H H C B C C B N N B B n : : ",
"C C C H C C C D F H F J H H H H H C T F +.o.- @ y i.h y.K.f.( S 0.-.C C B C T C C C C C C C H C C C C C C C B N N C C B C p ; : ",
"C C C C F H T C H T T C D H H S H P T H #.i # @ $ $ d Y.2 $     4 -.C C C C C C C C H H H C H C G F C C H H C C B N B C B : ; > ",
"H C H H L H H H D T H Y Y H H H I H L Y >.r.# $ 0 Y.|.j @ . @ @ o &.E H K H Y Y _ Y Y W ( Y Y _ W Y Y L Y K H H S H T C C 7 : : ",
"N C C C C C C C C H H H H S C D C C C C #.,.s.L.}.f.* & @ . * k + 6 e N B N N T C C C C S C C C C C C B B N C B B N k p p : > ; ",
"; : : : : > > > n n k v n n : p n v z p 8 } o * T Y ] G Z @ & = s 2.r p n p n v 7 B n n p : v n v n n v p : : : : : : n : v : : ",
": ; : : : : > : : : 7 n n n B B n B N N m e %.- t N 7 o % O s 6X5Xa.w M n n n n B B N C B B B : n n : v n : : : n : n : : : : : ",
"n : : : : : : : n B n n n n t p n t v : x 8 X.N.rXMX4X@.*.q M.qXeXA.r : : p 7 t p n : : p n : : t : : : : : : : : : : ; : ; : : ",
"> : > : p p n : : : : : : : > ; ; > : 7 r &.w..XvXeXp.@.w X.i '.qXZ.r z B x b n : B n n : B n n n : n : : n : : : : : : : : : ; ",
"K Y K K Y Y U L T S Y Y Y Y H H H W -.;.6 4 2 Y.tX).4.E #.6 0 L.).a.e ~ P P H L N : p n n n n n n v n n z : : : : : : : ; : ; ; ",
"_ _ ' ' ` ` ' _ ` ` _ _ ` ` _ _ { v.q 5 @ @ # 2 f f ;.b.,.# @ 0 0 } p./ ' Y _ ' C : p B n n n : n : n n B p n t n p : : : : : : ",
"Y Y W H H Y L Y _ _ Y Y ` _ Y Y v.1 . @ @ @ # #   < :.<.5 @ @ +   . ;.c._ H K Y C > n n : t : : : : : n : p : n : : : : > ; ; ; ",
"_ _ Y Y Y Y W _ _ _ _ ` ` _ _ _ c.6 @ C G D @ . < ,.Q ,.@ @ # > $X>X+X1.Q _ _ ` G > 7 p n p n p n n n p n t n B n n v 7 : : > ; ",
"_ U L L Y _ ( Y _ Y Y H W ( Y _ v.6 l =XmXMX;Xc ,.Q ` <.5 @ * +XaXMXpXn.Q Y Y _ C p B n B n B B n B n n n : : : : : : : : ; ; : ",
"n p B n n n n n n : : > : k t p 8 &.r ] ;XxXxX%X=.n n w *.% % { :X2XB.:.9 : n : n n t 7 : p n t : n : : n : : : ; ; ; ; ; ; ; ; ",
"n B n t : : : : : n n t n 7 p n z 8  .E [ +X,Xb.&.n p p r  . . .>.>.:. .t p z B B n n B n n n : n : n n k : : 7 > : : ; > ; ; ; "
};
