/* XPM */
static char *rin_51677301849[] = {
/* columns rows colors chars-per-pixel */
"64 64 240 2 ",
"   c #0C131D",
".  c #1B1C1D",
"X  c #17181E",
"o  c #040913",
"O  c #27221D",
"+  c #3A291D",
"@  c #050E22",
"#  c #0C1422",
"$  c #041221",
"%  c #1B1D22",
"&  c #141A24",
"*  c #160F21",
"=  c #261D24",
"-  c #381B21",
";  c #1D2328",
":  c #2C2C2D",
">  c #222228",
",  c #353535",
"<  c #3C3C3C",
"1  c #373738",
"2  c #352924",
"3  c #3D1A18",
"4  c #4B181A",
"5  c #6C191C",
"6  c #4D3314",
"7  c #6F3C07",
"8  c #591722",
"9  c #6B1E23",
"0  c #4A3522",
"q  c #423D3D",
"w  c #483C3A",
"e  c #5C393A",
"r  c #502E28",
"t  c #662929",
"y  c #7A2A2A",
"u  c #782F30",
"i  c #683938",
"p  c #7B3537",
"a  c #79322E",
"s  c #3E403E",
"d  c #774906",
"f  c #7D5209",
"g  c #68491A",
"h  c #734F15",
"j  c #41413E",
"k  c #5A4730",
"l  c #674926",
"z  c #725130",
"x  c #6E572A",
"c  c #3E3F41",
"v  c #232D47",
"b  c #423F41",
"n  c #533F41",
"m  c #6A3E41",
"M  c #3E4142",
"N  c #3D404F",
"B  c #434343",
"V  c #46464A",
"C  c #4C4C4C",
"Z  c #484747",
"A  c #524D4C",
"S  c #5A4A46",
"D  c #4D504E",
"F  c #53514E",
"G  c #4D4D53",
"H  c #524E52",
"J  c #4D5152",
"K  c #535353",
"L  c #5A5656",
"P  c #595856",
"I  c #555559",
"U  c #595759",
"Y  c #5B5B5B",
"T  c #565857",
"R  c #694848",
"E  c #744544",
"W  c #645958",
"Q  c #6D544D",
"!  c #5D605E",
"~  c #6E6759",
"^  c #595D65",
"/  c #505868",
"(  c #615D61",
")  c #5D6265",
"_  c #5C6572",
"`  c #636263",
"'  c #6A696A",
"]  c #67676A",
"[  c #6A6C73",
"{  c #6E7378",
"}  c #73787B",
"|  c #797268",
" . c #941B1B",
".. c #841C1E",
"X. c #AC1C1C",
"o. c #A51C18",
"O. c #B01C1D",
"+. c #95380D",
"@. c #972719",
"#. c #9B3416",
"$. c #8B2F12",
"%. c #A7271A",
"&. c #A53517",
"*. c #B6331D",
"=. c #AB1F21",
"-. c #862726",
";. c #992626",
":. c #8A3837",
">. c #993536",
",. c #92302D",
"<. c #AA2724",
"1. c #B42322",
"2. c #B42B2A",
"3. c #A43333",
"4. c #B63736",
"5. c #AD3229",
"6. c #981F24",
"7. c #CB172E",
"8. c #894A08",
"9. c #835405",
"0. c #845309",
"q. c #8B5704",
"w. c #945B09",
"e. c #874D10",
"r. c #855615",
"t. c #944B12",
"y. c #9A6514",
"u. c #9B640B",
"i. c #A66C16",
"p. c #AD7218",
"a. c #B3751B",
"s. c #B8771B",
"d. c #B06713",
"f. c #93502F",
"g. c #B04930",
"h. c #896129",
"j. c #996625",
"k. c #9A683A",
"l. c #907239",
"z. c #AB7325",
"x. c #B97822",
"c. c #AA7232",
"v. c #C27914",
"b. c #C47E24",
"n. c #C17D32",
"m. c #C84A3C",
"M. c #873F42",
"N. c #864545",
"B. c #914B46",
"V. c #B3514F",
"C. c #8E6D51",
"Z. c #B77B56",
"A. c #AD764B",
"S. c #8F7968",
"D. c #AC6E68",
"F. c #CB5548",
"G. c #CB6D58",
"H. c #D06669",
"J. c #BC8229",
"K. c #B48438",
"L. c #D1891E",
"P. c #C78525",
"I. c #D58A28",
"U. c #DA922C",
"Y. c #DD8D32",
"T. c #DB9434",
"R. c #C89039",
"E. c #E79C36",
"W. c #E5952C",
"Q. c #DFAC38",
"!. c #E9A936",
"~. c #F2A739",
"^. c #F9B83B",
"/. c #E7AF37",
"(. c #FDC33E",
"). c #BD834E",
"_. c #958878",
"`. c #B08C6F",
"'. c #9B815C",
"]. c #CE9255",
"[. c #F7B741",
"{. c #EAAD4B",
"}. c #D89C76",
"|. c #CD9169",
" X c #D6A877",
".X c #E9B176",
"XX c #D3AA5A",
"oX c #FEC445",
"OX c #FEC945",
"+X c #FECA4A",
"@X c #FCC547",
"#X c #F6CB53",
"$X c #F8CC6B",
"%X c #787B83",
"&X c #677888",
"*X c #5C6A85",
"=X c #917E85",
"-X c #7C8288",
";X c #8D9499",
":X c #939498",
">X c #8C8B8E",
",X c #AB8F88",
"<X c #B0A293",
"1X c #989DA3",
"2X c #9AA4B0",
"3X c #A7ABAC",
"4X c #AAB4BA",
"5X c #B8BABA",
"6X c #B1AFAE",
"7X c #CF988D",
"8X c #D9B18D",
"9X c #E9A894",
"0X c #E6B799",
"qX c #E7AF8B",
"wX c #ECBDA3",
"eX c #F8AFA8",
"rX c #E88C8F",
"tX c #FCD18F",
"yX c #F2C4AC",
"uX c #F6CAB6",
"iX c #F0CFB3",
"pX c #DAC1AD",
"aX c #B3BAC3",
"sX c #BDC3C3",
"dX c #D5D8D8",
"fX c #CACDCE",
"gX c #FAD9C9",
"hX c #F6D5CE",
"jX c #FFE9DC",
"kX c #FDE5D7",
"lX c #FAE5CD",
"zX c #DADDE3",
"xX c #E6E7E9",
"cX c #FFECE2",
"vX c #F9F3EA",
"bX c #E8EDF2",
"nX c #FDFDFD",
"mX c #F9F9F5",
"MX c #EDF3F1",
"NX c #DFE0E2",
/* pixels */
"B M q B B < B B B B < B B B B B B B C B B C C C C K T U U K K u X.1.<.:.K I K A H A w n n b B V B B B C C < < B B B C B q 1 B s ",
"< < M < < j < < < < < < < < < < < < j c b B K K K P Y C H Y :.H.dXmXdX4.Q ^ Y K m 1.4.2.2.X.< B B b B < < B C K K C C C B < < < ",
"1 < 1 1 1 1 1 1 1 < < < < B < < < B B B B B C C K D K J C :.H.nXnXnXnXV.O.Z D m X.,XbXnXmXO.b b < < < < j < < < < < 1 1 , : : : ",
"j B B B B B < B B B B B B B B B C B B B B B B j q M B B =.V.nXnXnXmXnXdXO.q q <.,XvXnXnXmXO.b c < < < < 1 1 1 , : : : : : : : > ",
"B Z B B B B B s B Z B B B B B B C M < B B B B B M B s w X.dXmXnXnXnXnXnXD.X.i V.bXMXvXnXdXO.q 1 < B < < 1 1 , , , : : , : : : : ",
"< < b B B < < < < < B < < B B B < < B < < < B B B b M y D.nXnXnXnXNXbXnXxXO.2.,XnXfXdXnX5XX.< < < < < < 1 1 1 < , < < , , : , , ",
"B < < < < < < < < 1 < 1 1 1 1 1 < < < B < Z B s B B M X.5XnXnXnXnXfXxXnXnX1.2.bXnX5XdXnX1XO.Z B < b B B j < q M s , , , , , , : ",
"< < < 1 1 < 1 1 1 1 1 1 1 < < < B < < < B B B q < B s o.>XmXmXnXnXdX4XmXnX,X=XnXbX[ fXdX%XO.b 1 < M B < < < B 1 : , , , , , , : ",
", 1 1 1 1 1 1 < 1 1 1 1 < < < c < < < c < c q B b c b ;.{ sXnXnXnXmX1X3XmXxX-XxX5XK 4X5X3.X.q < < B M < < < < < 1 1 < 1 , , , 1 ",
"< 1 1 < 1 < < < 1 < < < j j j < b V B B C B B B < b B =.H >XnXnXmXnX3X{ 5XxX[ 3X3X%X5X>X<.w c b B < M B < < < < < j < , 1 : 1 1 ",
": , , 1 1 < < 1 < 1 1 < < M < < M b C B B B B b b n i -.:.} aXnXnXnXxX^ 1X5X{ _ V >X>X3.p C Z Z Z C B B B B V C j < < 1 1 1 1 1 ",
"B Z B C D Z C C C C F C C C K C F K K K K K I L p 2.&.&.&.k { 4XdXNXmX>X) 5XbX1X%X/ Q <.Q Y ( Y K Y T K P P P K j < 1 1 1 , : , ",
"Y Y K Y Y U K K K U Y K Y U Y K P P U ! ` Q M.2.&.p.p.x.i.y.C N Y -X1X3X[ _ 1XsXC.p 2.N.^ Y ` ` Y Y K K ` U K H < < < < , , , , ",
"P Y Y P D C K H D K K K P K C K P K T Y E 3.&.d.P.E.~.U.x.z.I { / / ) ^ _ l h.z 7 2.M.W Y ^ P P ` Y K K D K Y K B B < s < < , , ",
"C C K K C C K K H T Y D U Y Y K ) ! Y E 3.e.p.E.~.~.I.x.a.z ] ~ z g g h.c.L.I.v.a.v.2.N.Y ' ` Y ` Y Y Y P U K Y C B B B j B j q ",
"K C C C K K K K K K K C C C K Y A I E >.t.p.x.P.x.s.x.w.S.2X2X~ v.W.s.L.!.oXoX~.{.~.v.O.p C C B B B Z V B B B j < 1 , , , , , : ",
"K C C C C B Z V C C B C B C B B < < -.8.p.x.a.s.s.a.u.| 4X6XJ.!.+X(.J.T.oXOX+X!.U.+X~.v.%.y < c < B < j B B < < 1 < 1 1 1 1 1 , ",
"< s Z B c B B V < B B C C C C C B i X.8.a.x.a.a.y.9.~ 4X4X_.!.OX+XL.`.MX$XOX+X!.x.^.#X{.s.O.q < < B c < < < < 1 < 1 1 1 1 , , : ",
"C C Z C C C F C C C C B B B C C B ,.+.p.s.p.i.f 9.d ,XaX_.!.OX+X^.x.!.8XzX$X/.b.h.!.vX$Xb.X.V Z B B B Z B B B B B B M B < < j < ",
"Z C B Z B Z V Z C Z B B B C C B s -.t.y.i.9.9.9.q.k 2X>XU.OXOXOXP.L.L.s.'.1XP.].A.<XfX#X~.*.y Z B C B C B B B B M q B < < < < < ",
"< < < 1 1 1 < < < < < < < < < 1 r %.8.f 9.9.8.9.f '.2XQ.^.+X@XL.XXtXR.u.a.C.R.}.'.L R.(.OXs.O.B B C C B B < < < < < < < < q < < ",
"1 1 1 1 1 1 , 1 < < 1 1 1 1 1 < y +.q.9.9.9.0.9.d `.<XP.OX{.P.I.$XfXcXtXs.u.}.|.|.r.s.(.^.a.%.B B C B B B B B B B B B B < < < s ",
"< j B s b s s s M < < < < < b M y +.0.9.0.9.9.9.9.| ].~.!.b.U.@X(.{..XbX`.c.j.|. Xj.v. XlXI.<.B B C B B B B < < j < B B < B < c ",
"< < < < < < < < < < q M q < q < y +.9.9.9.9.9.9.f j.T.i.a.U.@X@X+X^.U.R.`.yX7X].|.'.,XMXtXY.6.B B B B B B j B B B B < < B < < < ",
"B Z B B B B B B M q q M c j < b -.+.9.9.9.0.9.9.9.9.q.P.^.oX+X^.!.P.).].|.wXuXqX|.k.j.{.^.Y.<.c B < < B B B C B B C Z B B B B B ",
"H C K D K K K Y K K F D K K K F 1.t.q.9.9.9.9.8.q.i.T.oXoXoXT.i.6 ; > 0 Z.}.yX0XZ.h u.^.+XY.o.Z Z C V B C C B C Z V B Z V B B s ",
"C H H K K K K K D K K F K K P E &.9.f 9.9.9.q.x J.W././.U.U.p.6 N fX} B k 7XyXwX).f d /.+XY.<.Z C B B Z B B B B B B B B B < < B ",
"D D D C C K K C C C C C H K K p #.9.9.9.9.9.C.4X| g d y.s.v.a.r._.nXK fX[ A.wXyX}.h d /.+XY.<.B B B B B B B B < B B B < < s < < ",
"K H V D K C K K K K K P Y K K N.#.q.9.9.9.f 2XnXsX*Xh W.[.W.R.G.`.nXK C I qXhXgXuXB.7 Q.@XY.6.c < < < < < < < < < < < < < < b < ",
"Z B B B B B j B B M B B B j M u #.9.9.0.0.f } MXMX&Xh.!.@XU.R.0XpXmX>Xo S.kXcXkXvX`.d Q.OXb.<.C C C F C C C K K C A C C D C B B ",
"1 < , 1 1 1 1 , 1 1 1 1 1 , < t +.q.9.9.0.f / 3XzX'.w.(.@X!.K.uXhXlXhX6XgXcXkXkXvX0Xe.!.@Xx.2.) ` Y Y ) Y K Y P Y Y P P K K K K ",
"< < < < < < < < 1 q 1 < q < < y &.9.9.f 0.9.x _ ;X~ 9.U.+XoX].yXuXkXcXvXcXcXkXkXvXwXr.!.+Xw.2.! Y ) ! W Y Y U Y ) Y Y ) Y K U Y ",
"B B B B B B j B B B B Z V G k %.0.q.9.9.q.9.9.h / x f p.oXOX#XuXjXcXkXkXjXkXkXjXvXwXt./.!.8.5.^ U P A K Y K U K K Y K K K T K C ",
"C Z B B Z B Z B V Z C C C G :.#.9.8.%.t.9.q.9.8.9.9.9.f U.oX^..XvXjXwX9XhXkXjXcXlXD.d /.~.1.p P K K P Y Y ) Y P K Y U K K Y H C ",
"1 < < < < < 1 < 1 1 1 < < < ;.8.#.o.@.8.q.a.9.8.9.9.q.q.p.W.(.$XkXnXH.7.7.G.9X9X.Xf.7 /.E.o.q q 1 D ` Y ^ W P P K P K K K D D D ",
", < < < < 1 < 1 1 < , 1 1 < t  .t r %.r.x.i.+.o.9.q.d 6 g r.z.p.A.8XV.7.7.7.7.<.@. .7 U.d.o.t 8 r B K K T D K K K K D K H C H K ",
"1 , 1 , 1 1 1 , , 1 1 1 < 1 < 1 , @.$.a.i.+.o.+.q.d O # & @ = C.D.|.'.g.F.F.&.0 5 8 3 6 6 +.V.F.4.i W Y P P K U Y Y K D D H C C ",
", , 1 1 1 , 1 , , : , , , 1 , 1 t @.9.u.+.y o.q.d ; & % % + A.uXeXF.9XiXiXtXx.@ 0 j.K.g . R.uXhXhX4.M.U P K K K K K K K K K C D ",
"1 1 1 1 1 , 1 < 1 < 1 < q B B j e &.#.&.-.%.8.7 9 & . % X k.yXcXgXrXhXmXvXXX0 & 2 l x 0 O +XgXkX8XZ.1.A C D V C C B B C C C C V ",
"B j < s B q B j B j Z Z B C B B M e t i Z O.%.@.= . & . ` k.uXjXcXmXgXqX Xz.$ % % & & & > E.8XgXZ.<.u b M < B j B b s B < < < < ",
"B B B B C B B B B B B B B B B C Z V C B B Z i ..% ; > % 3Xk.}.uX0XA.k.k.l f X % % % % ; . a.k.0X7Xu B Z Z B B B < B B < B < < < ",
"< B s B < c B B M < B < B B B < B c B j < q b y y fXmXmXnX6XC.|.A.h S h O % . % % & & . O t.%.Z.}.,.J C C C Z B B B Z C B B B B ",
"B B B < b B j B B B Z B B M < c c j B j b B b o.B.bXnXmXnXnX6Xh.z H h 6 % % % . X O 0 - $.>.:.5.F.:.K K J C V A C C B C C C C B ",
"K K K K K D C K K T T K U K F K U ^ K ^ U I E >.%XxXnXnXnXnXnXaX%X_ h q.% % . ; # g 5.;.3.z K R M.S U P D C K D C K K C H C C C ",
"K K K K K U K K Y U H U Y Y T Y W ! P Y U P E ,.} mXmXnXnXnXnXxX-X[ S 9.6 ; ; . $ h j.#.:.Q U T L U I A K Y U H C K K D Z V C C ",
"K C D C K K K K K T K D D Y T U P K K K G I E ,.[ aXnXnXnXnXnXMX4X;X_ h q.t %   2 c.j.A.g.1.P K H H K C K U K F K K C C C C C B ",
"C A V K K C Z C D K K C K U T T P I U P U K L <.>.V.`.8X0XlXgX0X|.S.J #.&.,.8 O 0.].|.A.Z.2.C K H K K K K K H C K K K K K K C D ",
"D D K K K H D K H K K U K K K K K T C G K A I S m ,.t 2 2 w 1 2 : . p :.E A :.<.5.f.|.k.4.1.K P U K K D D K D C Z C C C B B B B ",
"H C K C C C C C C K C K C D D D H C C C C H C A O.8 6 y.y.J.R.Q. X-X3.E V C C R R X.f.G.2.A K K K K D K C Z C C Z Z Z B C B < < ",
"C C C D C C C K K K K K K K K K D K H C C H D 1.#.$ % > > = g j.# = -.i C C D C C z O.f.1.S F C C C C C C C C Z C C C V C s , < ",
"C C H C D K C A C H C C D K K D D K J K K D R *.h.% # # X 0 !.l.$ ; ..i V D D A C A E >.E A D K K D H C K D K C V B V C B < , 1 ",
"D H D K P K K K K C K Y U K K U U K U Y K K E &.P.z.l x x ~.l.@ ; & y E U I Y Y ! W ) ! W Y Y ` ^ Y Y T P U K K H K D D K < < < ",
"C C C C C C C C C K K K K D D D D H C D C C p 5 O c..X$XXXg @ . & - @.n C Z V C C C G C A H D C C C C B Z C Z B Z B B B B < < , ",
"1 < < < 1 1 1 < B B M q b B b b M M < b M b i -.. @ v v ; $ X . + ..i q M s B b M Z B B < B M s B B B B M < < < < < < < < < < < ",
"< 1 < < < < < 1 < < c B B B V B B Z C B V B i %.h._.6XS.0 6 l '.).,.a j M B B B V B B C V B Z < B B < q q < B s B < B < < < < < ",
"M c < < < < < < B B B B B B b b B B < c j b u *.}.kXjX).6.i }.uX}.#.u q < B q b B b M c s c < < < < < < < < 1 < < < < 1 < 1 < 1 ",
"< < 1 < < < B < < < < < < < 1 1 1 < < < q y  .u.tXlXqX2.=.f. XuXD.o.q < j B s B < B B B B B B B B < B < B < < < < M < < < < < 1 ",
"P Y K P ! Y Y P K K Y Y Y Y K D K P P :.%.6.%   x #XT.*.1.e..XqXF.:.Y Y P K Y K C < B < B B B B M b B B < < < < < < < < 1 1 1 , ",
"` ` ` ' ' ] ` ] ' ' ` ` ' ' Y ` [ ' N.<.= % % % X * *.B.;.> i.c.t.B.W ) ` ! Y ' C < B B B B < B B B B B B B B B B < < < < < < 1 ",
"Y Y Y P K P P ) Y ` Y ` ] ` ) W ` E ;.= X X X % % 5 B.2.. .   # 8 :.U Y ! K P ! C 1 B B < B < < < < < B < B < B < < < < 1 1 , 1 ",
"` ` Y Y Y Y Y W ` ` ` ] ' ` ` ` ] 3.- & : > =   - ;.Q 2.= % %   - ;.Q ` W ! ` ' D < c B B B B B B B B j s B B B j B s j q < 1 1 ",
") Y K P P ` ` ) ! Y Y K ! ! ! ` ` 3.4 , >X5X4XI t B.` 2.= X = K c :.B.P ) P ` ` C B B B B B B B B B B B B < < < < < < < < , 1 1 ",
"B B B B B B B B B q < < < B < B q i  .A ;XxXnXNXD.u b =.% ; } aX;XQ ;.e b < s s B q < B s B B < q < < < B < < < 1 1 , , 1 , , 1 ",
"B B B B < < c < < B B < B < j B < b u 6.Y >XfX3XE -.b y  .= [ 1XsX%X,.i B B j B C B B B B B B M B M B b M < < q < 1 < , , , , , "
};
