/* XPM */
static char *rin_71677301849[] = {
/* columns rows colors chars-per-pixel */
"64 64 246 2 ",
"   c #080D17",
".  c #1B1C1D",
"X  c #15171C",
"o  c #040B12",
"O  c #2C1C16",
"+  c #352819",
"@  c #0C1324",
"#  c #141B22",
"$  c #1B1C22",
"%  c #121626",
"&  c #000721",
"*  c #301C24",
"=  c #1A2026",
"-  c #122136",
";  c #2D2D2D",
":  c #262426",
">  c #2B2D33",
",  c #353535",
"<  c #343539",
"1  c #3C3C3C",
"2  c #383837",
"3  c #332F2E",
"4  c #701B1D",
"5  c #472C17",
"6  c #4B341B",
"7  c #563619",
"8  c #6C281D",
"9  c #641E23",
"0  c #423E3D",
"q  c #4A3D3C",
"w  c #583838",
"e  c #542E27",
"r  c #692728",
"t  c #78292A",
"y  c #663637",
"u  c #783536",
"i  c #6D2E30",
"p  c #401D21",
"a  c #3E403C",
"s  c #574013",
"d  c #7E5206",
"f  c #664919",
"g  c #774B0D",
"h  c #5A452B",
"j  c #41413E",
"k  c #4E403F",
"l  c #7B4D27",
"z  c #78572A",
"x  c #6E4F34",
"c  c #79602A",
"v  c #3C3D41",
"b  c #353D45",
"n  c #2E3A4A",
"m  c #423F42",
"M  c #6D3D43",
"N  c #3F4241",
"B  c #3D444C",
"V  c #3F4751",
"C  c #434343",
"Z  c #494545",
"A  c #464946",
"S  c #464649",
"D  c #494649",
"F  c #4C4C4C",
"G  c #484947",
"H  c #534848",
"J  c #4D514D",
"K  c #52524E",
"L  c #4D4D51",
"P  c #514E52",
"I  c #4E5152",
"U  c #4B525C",
"Y  c #535353",
"T  c #595555",
"R  c #585957",
"E  c #55565A",
"W  c #595659",
"Q  c #5B5B5B",
"!  c #565959",
"~  c #694747",
"^  c #764645",
"/  c #635B5B",
"(  c #71564F",
")  c #61615F",
"_  c #736A5B",
"`  c #5E5D61",
"'  c #535566",
"]  c #4E5769",
"[  c #645E62",
"{  c #59616C",
"}  c #636363",
"|  c #6A696A",
" . c #65686A",
".. c #696D77",
"X. c #777579",
"o. c #716C71",
"O. c #5A605C",
"+. c #941E1B",
"@. c #AB1B1B",
"#. c #A31C1A",
"$. c #B21D1C",
"%. c #943012",
"&. c #A72519",
"*. c #AC331C",
"=. c #921D21",
"-. c #AB1E21",
";. c #892625",
":. c #982525",
">. c #983726",
",. c #883939",
"<. c #933335",
"1. c #A82625",
"2. c #B52726",
"3. c #A73334",
"4. c #B53837",
"5. c #AF3627",
"6. c #C91228",
"7. c #CC2435",
"8. c #CB2837",
"9. c #C82B2F",
"0. c #C6021A",
"q. c #8A4A08",
"w. c #845305",
"e. c #885508",
"r. c #945909",
"t. c #8C5C15",
"y. c #944812",
"u. c #AE4F1A",
"i. c #99620A",
"p. c #9C6415",
"a. c #A76B16",
"s. c #B8771B",
"d. c #AD6D14",
"f. c #91542C",
"g. c #AB5032",
"h. c #966627",
"j. c #916431",
"k. c #B87927",
"l. c #AE7331",
"z. c #C27C16",
"x. c #C76B1E",
"c. c #C57525",
"v. c #C14124",
"b. c #B03F43",
"n. c #D03A46",
"m. c #904345",
"M. c #B74C4B",
"N. c #916E4E",
"B. c #B2734B",
"V. c #8A7573",
"C. c #B3686B",
"Z. c #945D62",
"A. c #CA5350",
"S. c #C6754F",
"D. c #CA706B",
"F. c #B98134",
"G. c #B88225",
"H. c #CA881A",
"J. c #C98827",
"K. c #D58D28",
"L. c #D9952B",
"P. c #D58C35",
"I. c #DC9736",
"U. c #C78D30",
"Y. c #E29B34",
"T. c #E49D2F",
"R. c #D7A233",
"E. c #EAA737",
"W. c #F3AE35",
"Q. c #F9B739",
"!. c #F0B030",
"~. c #F19F1F",
"^. c #FCC43B",
"/. c #B9865B",
"(. c #B8844D",
"). c #8C8172",
"_. c #AF8C6E",
"`. c #C78956",
"'. c #CF9147",
"]. c #D3A545",
"[. c #FBBD42",
"{. c #F8B544",
"}. c #EBAC4C",
"|. c #C98D63",
" X c #CC9368",
".X c #D3976C",
"XX c #D39B77",
"oX c #CF9171",
"OX c #D9A27B",
"+X c #D2A96B",
"@X c #EEAE7B",
"#X c #FCC444",
"$X c #FDCA45",
"%X c #FECB4A",
"&X c #FCC449",
"*X c #FBD04E",
"=X c #FDCF67",
"-X c #757B84",
";X c #7C8388",
":X c #738295",
">X c #878889",
",X c #8A9396",
"<X c #979B9B",
"1X c #928B8A",
"2X c #B28F89",
"3X c #BBA897",
"4X c #939CA5",
"5X c #9CA3A7",
"6X c #A6ACB2",
"7X c #B5B7B9",
"8X c #AEACAD",
"9X c #D7AC8E",
"0X c #E8B696",
"qX c #E6AF8E",
"wX c #CFB8AF",
"eX c #EEB0A8",
"rX c #C29389",
"tX c #FCCE98",
"yX c #CEC4B3",
"uX c #EDC6A9",
"iX c #F3C4AD",
"pX c #F3C7A8",
"aX c #F5C9B6",
"sX c #F9D5BC",
"dX c #EAC8B6",
"fX c #E4D6A2",
"gX c #B8BCC0",
"hX c #D5BFC1",
"jX c #BCC4C9",
"kX c #C7C9CA",
"lX c #CDD2D2",
"zX c #D6D8D9",
"xX c #D1CDCC",
"cX c #F7D9CA",
"vX c #ECD3CE",
"bX c #FDE6D9",
"nX c #F5E1CB",
"mX c #DDE7EB",
"MX c #E7E8E8",
"NX c #FEF4E7",
"BX c #E8EDF4",
"VX c #F3F4F4",
"CX c #FDFEFD",
"ZX c #F8F8F7",
"AX c #F8E9E4",
"SX c #C9D9EB",
/* pixels */
"C C 1 C C C m C C C 1 C C C C C S C A C D G H 2.C.MXlXA.4.<.H C S P F Y Y W K P W D m w M w M B C D C D C a 1 1 C G G G v 2 C v ",
"1 1 1 1 1 1 1 1 1 1 1 1 1 1 1 1 1 1 C 1 v S M M.zXCXCXCXlXA.4.,.m C F Y Q Q } Y H M 4.4.M.b.3.i m 0 C j m C F E L F F F N 1 1 1 ",
"1 1 1 1 , 2 , , , 1 1 1 1 1 1 1 j C C m C C ~ b.MXCXCXZXCXVXxXM.u j D C D L F u 2.A.hXVXCXVXxXA.1.i 2 a 1 1 0 1 1 , , 2 , ; ; : ",
"1 C C 1 C C C C C C C C C C A C C A C S C Z 1.rXZXCXCXCXCXCXCXbXM.t 1 1 1 e @.C.wXMXCXCXCXCXCXVX8X3.w 1 1 , 2 , ; , 3 ; ; ; ; ; ",
"C G C C C C C N C G C C C C C D S C m v j w M.lXCXCXCXzXzXmXCXCXAX4.i C y ;.2XMXCXCXMXxXkXCXCXCXZXD.i 1 2 1 , , , 3 , 3 ; ; ; ; ",
"1 1 m C C 1 1 v v 1 C 1 C 1 j C 0 0 a N 1 w :.7XCXCXZXMX8X;X6XMXCXhX3.t @.Z.VXCXlXgX-XlXMXCXCXCXBXD.r 1 2 , , 1 < 2 < 2 , 3 , 3 ",
"C 1 1 1 1 1 1 1 1 2 1 , , 2 , 2 1 1 N a a M :.X.MXCXCXCXVXzX,X} 8XBX<X#.@.7XCX5X` ,XkXCXZXCXCXMX2X2.C C 0 0 C 1 a < , 2 , , , 3 ",
"1 1 1 2 2 2 2 2 , 2 2 , 1 1 1 v v 1 1 a N C #.<.<XMXCXCXCXCXZX7XL 7X>XH X.7XX...xXVXCXCXCXVXgX2X@.w m 1 1 2 a 2 3 3 , , , , 3 > ",
", 2 1 , , 2 , 2 , , 1 , 1 1 1 v 1 1 1 1 1 1 y :.` ,XmXZXZXCXCXVX>Xv lX,X5XX...lXZXZXZXjX6XV.V.@.y j v 1 1 1 1 1 2 < 1 2 2 3 , < ",
"1 2 2 1 1 1 v 1 1 1 1 1 1 C j 1 a C C D F C Z t :._ ..5X8XmXZXZXkXU ).vX).' 6X6X6X6X-Xo.~ -.;.M 0 1 C S 1 m 1 1 a a 2 2 < , 2 2 ",
", > , , , 1 1 1 1 1 , 1 1 a 1 1 m C D C C C w @.*.g.Y {  . .,X,X:X} F.H.K.x c V.N.f.y 1.1.y G C G D N N C C G F N 1 N 2 < < 2 2 ",
"C D C G P G S F F F F F F P Y F P Y Y Y T ~ 2.y.a.s.j.z [ { ' z x F.%X%X$XT.K.L.x.*.3.^ Q Q } Q W Q Y R W R T ! N 2 2 < 2 , , 3 ",
"Q Q R R Q W R R R T E R Q R E R R R E [ ( 3.y.d.s.s.t._.;XN.'.H.H.!.*X$X$X*XL.J.{.R.x.*.x [ } } ` Q R Y ) R R F 1 1 1 2 , , , 3 ",
"R Q W E F Y Y F F Y Y Y R R F P E I E Q 2.y.d.s.z.h.:X4X/.W.#XK.(.nX=X^.%X^.s.l.{.*X^.d.2.,.! Q ` Q L Y P P T Y C N N 1 1 2 2 2 ",
"G F Y Y F G Y Y F W Q Y Q E E T [ [ [ x 2.e.s.G.j.{ _.&X^.%XY.k.R.yXBX*X$XY.j.(.K.!.sXbXl.9.} Q [ Q Q Q R R R E F C S C N N N N ",
"R Y F G Y I Y P Y R Y F G F R R P P T 3.r.d.G.a.h N.^.$X$XY.s.E.#X^.wXMX}.s.oX XP.pXmX+XY.$.u C C C G A C C C a 1 1 , , , , , 3 ",
"L F F F G C G G A F A D D G C G 1 2 0 #.q.d.w.f N.W.#XY.s.G.I.l.d K.E.3X).|. X XN.,X+XQ.=Xl.#.0 a C 1 C a C 1 1 2 1 1 2 2 2 2 2 ",
"1 m D C C m C D m C C F F F F S C C u &.w.w.w.p.s.I.K.G.T.}.wXMXyXs.i.s. X X.Xl.t.d.K.=XVXvX#.0 1 m 1 1 1 1 1 2 2 2 2 , , , , > ",
"G G F F F L Y F P F F S D G F S C C :.q.w.w.i.J.R.[.%X%X$X%XW.=XyX+Xk.(. X9X0XB.OX(.5XMX9XL.&.u G C A S C C C C C C v C 1 1 1 1 ",
"G F D C C C G C C A C C j D F S C C :.q.w.p.T.&X*X%X%X%X%XQ.W.T.J.B./.OX9XpXeX0X XN._.E.^.^.a.1.C G C A C C C m C N C 1 m 1 1 1 ",
"1 1 1 1 2 1 1 1 N 1 1 1 1 1 1 , 2 j :.q.e.p.G.R.E.{.{.R.I.h.5 5 h B.OXpXiXiX0Xl.z + s.^.%X[.c.:.D D F N m v 1 1 1 1 1 1 1 1 1 1 ",
", , , , 2 , , , , 1 , 2 2 2 , r t i %.w.w.d w.r.i.i.s.s.g : ..B 2 e .XpXpXaX9X5   $ h.#X$X$XP.:.Z A C N C C N C C a C C 1 1 v a ",
"C 1 C a m a v m v 1 1 1 1 a y D.D.+.%.w.w.d K x w.r.d.s.3 5XkXo.5Xo 6 9XpXpXrXS ..O p.Y.%X$X!.A.&.u C S A m 1 a C 1 C C 1 C 1 0 ",
"1 1 1 1 1 1 1 1 1 1 0 N 1 t $.M.qXg.y.w.w./ -X .h J.%XQ.x CXzXb * n x qXpXaX2Xn ] 6 s.K.&X%X!.'.oX5.@.;.a C C C C C 1 1 C 1 1 1 ",
"D A C C C C C C v 1 N 0 t 9.+XB.B.qXf.e.d -X7X..h L.*X$X.XCXMX[ < V.0XcXbXbXbX2X> _.j.p.{.&X^.'.B.B.qX@.C Z F A C G C C G C C C ",
"F F F Y Y Y R Y Y Y P I $.vXcXaX X/.(.U.: : 6X5Xw H.*X^.0XbXbXNXNXNXNXNXNXNXNXNXNXbX_.a.K.&X*XR.j..XoX$.A D D A F G C S S C C 0 ",
"F F Y Y Y R Y R Y P Y Y <.y./.dXaX@X].; # X > ).f s.#X%X'.AXbXaXeXeXeXeXeXeXeXeXbXNX0Xr.d.[.$X!.(.`.XX1.C C C C C m C C C 1 1 N ",
"P Y F F L F Y F F F G Y u <.>.g.S.K.+ X $ = @ . g i.Q.*XJ.cXsX9.6.6.0.6.6.6.0.A.ZXNX0Xt.p.P.*XE.l.f.2.y C C j j C C C 1 1 C 1 1 ",
"P P G F Y F Y Y Y I Y E Q ~ ,.m.u.f . $ $ $ . % 5 d U.$X[.9XvX0.7.7.7.7.7.7.7.oXZXbXqXi.w.p.[.{.u.@.r b 1 1 1 1 1 1 1 1 1 1 v 1 ",
"A C C C C C m C a C C C N C j q &.8 % $ $ $ $ # O s a.#X$X'.dX6.7.7.7.7.7.7.n.eXcX0XB.e.+ 6 K.{.k.&.~ F F F Y J F F L F F F D A ",
"2 1 , 2 , 2 , , , , , 2 2 2 2 2 r 1.* # $ $ $ $ @ f i.!.$X].eXA.6.7.7.7.7.7.oXaXqX_.<Xh.. : i.K.L.*.,.[ W Q E R Q Q R R R Y P P ",
"a 1 1 1 1 N 1 1 1 0 1 1 a 1 v a w <.y.w.: . $ $   j.s.J.&X[.OX0XA.7.7.7.7..XiXwXX.5X5X3 X 5 5.i.G.p.*.^ Q Q R Q } Q Q ) Q Y R R ",
"C C C C C C C v C C D A F G G D $.%.w.q.&.g . . l @XdX'.L.Q.G.OXpXeXpXpXiXpX9X4XMX,XQ : O 2.f.2.5.q.*.~ Q Y ! R Y R Y Y Y R Y G ",
"A D C A D C C C C C F F L L J u *.r.q.5.2.e.e.r.U.0XuXaXF.L.I.k.`.OX9XqX9XB.l Y V.o.z r.1.,.F R ,.1.,.W ` / ` T R Q R Y R E P F ",
"2 1 1 1 1 1 1 1 2 1 2 2 1 1 N N i +.+.@.w.q.%.$.m.OXiXaX9Xc.J.h.l f.l l 5 5 7 l `. Xj.#.r 2 1 1 2 L } ` Q Q W E Y Y Y Y R Y Y F ",
", 1 1 1 1 , 1 1 2 1 , , 1 2 1 1 , 2 2 t %.=.r r &.g.XXiXiXXXf 6 = l.S.l $ . ( `.|.g.#.r , 3 , ; : m R R Y P Y Y Y Y L Y F G L Y ",
"1 , , , 2 1 , , , , 2 , 1 1 1 , , 1 a 2 8 0 3 3 t %.(.OXiXwXU $ o 3 3X2X: % 4X_.l.@.r < , , , , 3 C ) Y R R Y Y R E R Y L F F F ",
", , 1 2 2 , , , , 3 , , , , < 2 2 1 2 2 1 , , , q &.f.|.OXiXzXX.. o N V $ -XBX1X>.t < , , 1 , , > C O.Y E R R R P Y Y Y R Y F P ",
", 1 , , , , , 1 1 1 1 1 1 C C C D G A G C C N C j i 1.g.|.kXCXMXzX>X@   @ F.{.OXm.1.t A G C C D C A R F F F G G G D C G F F G G ",
"C 1 1 m C 1 C j m C C S G G C S C C C C A C C Z C Z :.H j.gXCXCXBX+XE.G.F.s.s.R.&XE.v.$.G L C L F G C C 1 v 1 C C N C m 1 1 1 1 ",
"C C C C S C C C C C C C C C C C A D C C G C C D C D ;.M X.kXCXCXfXW.L.!.yX}.*XE.J.&XW.5.M A G C S S C C D C C C m j C v C 0 1 1 ",
"1 C j C C 1 C C v 1 C 1 j C C j C 0 C C 1 C a m a j y &.X.CXCXMX+XW.&X}.MXBX8X}.=X}.W.9.H Y Y Y Y F Y F F G G C C C G G C C C C ",
"C m N 1 j v j C m C C C C N 1 a a C C C C v C 1 C N 0 #.o.VXCXsX~.*X!.wX7XwX3X7XSXM.>.^ Y Y L Y Y Y Y Y Y F G F F G D F G F D C ",
"R Y Y Y Y Y F Y Y R R R Q Y P Y E Q R Q W R R Q E W Y 2.P 5XBXwX!.!.}.0XiX0XS.c -XC.,.W R R ! Y Y Y R Y Y F Y Y F I Y F Y F F F ",
"P Y Y R R R Y R R R F R Q E Q W Q Q Q Q Q R E T Y J Y ,.,.) _.9XtXtXnXNXsXl.@XXX( 3.~ T Q T R E R Y Y L R Q R F J Y Y P G G F D ",
"Y P F F Y Y Y F Y R E P Y Q R R Q R Y Y F Y Y Y R F Y Y ,.,.f.a P E ] I H + 1 ( g.u Y Y Y Y Y Y Y Y Y P Y R P L P P F F F F F C ",
"F J C L R F S F P Y E G P R E Q W R R E R R R Y Q / R T H 1.; d t.p.U.R.<XkX_ p.9 ,.T P J P P K J P Y Y R P J F Y K Y Y Y P F L ",
"J P Y R Y F L Y P Y Y R Y Y Y Y Y Y F L Y F Y Y F L J F ,.#.d s 7 z.x ; 3 1 ; : % 4 M / Q Q Y R R Y Y P F Y Y F F F F F C C C A ",
"F F Y F F G J F F P P J F P P J F F F F F F F F F G F ,.&.. = s H.x @ . $ X $ # . 9 $.T Y L R Y Y Y P Y F C F L D D A D D C 1 1 ",
"F F D Y P F J P P R Y Y Y Y Y K P F P J F Y F S F Y F 1.e.h c ^.c o . $ $ $ $ $ X # ;.y F L F J F F J F F G G G F F F C F j , 1 ",
"F F P J P P J L P J J F J Y Y P Y Y Y Y Y P F G F F L 1.f.].].x n b = . $ $ $ v v : 4 ^ Y F Y Y P Y J F Y Y L F C D C F C 1 , 2 ",
"P F P Y E Y Y Y J P Y Q R Y Y R Q Y Y Q R Y R R Y Y T 2.@ @ - < U V 1 : X $ : F S # =.( / Q Q ` ) Q Q R E Y R R Y Y Y F Y a 1 1 ",
"G F F F F F F F F Y Y R R Y F F F F F L P F D F F C I ,.4 h V.).N.h 3 = r $   < V.N.3.M F Y F F G F F C G G C G D C C N v 1 2 , ",
"2 1 1 1 1 2 2 2 C C 1 1 1 C 1 C m C C a j C 1 C C C a y @.(.NXZXeX>.;.4 t 4 6 N.bXpX5.i 0 0 m 0 C C C C C v 1 1 1 1 1 0 1 j 1 1 ",
"1 , 1 1 1 1 2 1 1 1 C C C C C D C C D A C A D C A C y :.g.cXbXuXl.@.y y C ;.=.j.0XsXB.1.H C C m C C 1 1 m 1 1 j C 1 C v 1 1 1 1 ",
"C a 1 1 1 1 1 1 C C C C C C 1 C C C a 1 C 0 C C C C ;.u.`.bXsXS.$.w N 1 1 C t :.|.aX.X5.w a 1 2 1 1 1 1 1 1 1 1 1 1 1 2 1 , 1 1 ",
"1 1 , 1 j 1 C 1 1 1 1 1 1 1 2 , , 2 1 1 1 1 m v 1 i @.O F.P.G.%.=.v 1 m C 1 y %.t.k.t.&.w C C C C 1 C C 1 C 1 1 1 a 1 1 1 1 1 , ",
"R W R R Q Q R R P Y Q Q Q Q R Y Y R R ! W R Y P T 1.p = # # $ 9 ,.E Q ! W R ^ ;.# % X 4 @.C C C C C 1 C C 1 1 1 1 1 1 1 1 , 1 , ",
"} } }  .| | }  .| | } } | | Q } | | }  . . .| | m.9 . . $ = p 3.( [ ` } } [ 2.9 $ $ $ $ @.q 1 v C 1 C C C C 1 C C 1 1 1 1 1 1 2 ",
"Q Q Q R R Q Q ` } } Q Q  .} ` Q ) } } } ) ) ) _ 1.p X     X * 3.E Y E R / ~ =.$ $ $ $ X 9 @.1 1 1 1 1 1 C 1 1 C 1 1 1 1 2 2 , , ",
"} } Q Q Q Q ` Q } } }  .| } } } | [ ) ` Q } } m.r X > | ..< * 3.} } [ } } ( :.$ $ X = > < -.w C C C C C C 1 C C C C 1 v v 1 , 2 ",
"` Q R Q W } } ) [ Q Q R ) } Q } ) ` Q Q Q }  .m.r , gXZXkX| ;.m.} } } Q Q ( :.$ X < 7XxX<XZ.;.C C C C C C 1 C 1 1 1 1 1 1 , , 1 ",
"C C C C C C C C C 1 1 2 1 C a C j v a 0 C N m q #.M gXCXZXV.#.m N 1 C 0 m 1 #.9 >  .gXCXCX-X$.C 1 C 1 1 C 1 1 1 , , , , , , , , ",
"C C C v a 1 1 1 1 C C 1 C 1 a C j v C 1 C C m m t u o.>X| 1.u S C G C C m m q @.#.^ o.>X| 1.t 1 C 1 C C j 1 1 v 1 1 1 2 2 , , 2 "
};
