/* XPM */
static char *rin_61677301849[] = {
/* columns rows colors chars-per-pixel */
"64 64 248 2 ",
"   c #080C15",
".  c #0C131A",
"X  c #1A1B1E",
"o  c #15181E",
"O  c #01050B",
"+  c #281E0A",
"@  c #27241E",
"#  c #372914",
"$  c #0B1524",
"%  c #151B22",
"&  c #1B1C22",
"*  c #151924",
"=  c #071125",
"-  c #261C22",
";  c #3E1920",
":  c #1E2328",
">  c #2D2D2D",
",  c #282526",
"<  c #353535",
"1  c #3C3C3C",
"2  c #393638",
"3  c #332F2D",
"4  c #6C1919",
"5  c #442919",
"6  c #4C3618",
"7  c #533811",
"8  c #6E3019",
"9  c #483927",
"0  c #413E3C",
"q  c #4A3B3B",
"w  c #573838",
"e  c #4F2B27",
"r  c #692728",
"t  c #7D2C2C",
"y  c #782627",
"u  c #683737",
"i  c #763737",
"p  c #732F31",
"a  c #591D1E",
"s  c #3E413E",
"d  c #7B4D05",
"f  c #734E0E",
"g  c #42413E",
"h  c #4B413D",
"j  c #534433",
"k  c #6B4B2D",
"l  c #685433",
"z  c #755232",
"x  c #75612E",
"c  c #3F3E41",
"v  c #353944",
"b  c #2A354B",
"n  c #413F42",
"m  c #5C3E40",
"M  c #603642",
"N  c #3E4141",
"B  c #434343",
"V  c #4A4544",
"C  c #464945",
"Z  c #464649",
"A  c #49464A",
"S  c #4C4C4C",
"D  c #494A48",
"F  c #524243",
"G  c #524E4D",
"H  c #574A44",
"J  c #4E514D",
"K  c #56514D",
"L  c #4C4D52",
"P  c #524E52",
"I  c #4B5253",
"U  c #535353",
"Y  c #595555",
"T  c #5A5956",
"R  c #55565A",
"E  c #5B5B5B",
"W  c #575858",
"Q  c #694849",
"!  c #774949",
"~  c #765847",
"^  c #655759",
"/  c #6D544E",
"(  c #6E6457",
")  c #5C5D61",
"_  c #545B6A",
"`  c #5E6267",
"'  c #636263",
"]  c #6A696A",
"[  c #666668",
"{  c #686C75",
"}  c #737579",
"|  c #706C70",
" . c #606162",
".. c #841B1C",
"X. c #971C1C",
"o. c #AC1C1B",
"O. c #A71A16",
"+. c #B01C1B",
"@. c #99350E",
"#. c #9A3816",
"$. c #912A14",
"%. c #A72619",
"&. c #B3271D",
"*. c #A33618",
"=. c #A92B14",
"-. c #AE1E21",
";. c #872728",
":. c #992829",
">. c #873838",
",. c #973738",
"<. c #8B2F2E",
"1. c #A82727",
"2. c #B32422",
"3. c #B62A29",
"4. c #B73434",
"5. c #AC3931",
"6. c #971C21",
"7. c #C91528",
"8. c #CC2535",
"9. c #CB2733",
"0. c #835405",
"q. c #875507",
"w. c #935A08",
"e. c #845818",
"r. c #975A16",
"t. c #8D490D",
"y. c #B6451D",
"u. c #9B640D",
"i. c #996513",
"p. c #A66C15",
"a. c #AD721A",
"s. c #B8781A",
"d. c #B06E10",
"f. c #875729",
"g. c #8D5433",
"h. c #B74C2F",
"j. c #9B6626",
"k. c #986234",
"l. c #8D6A38",
"z. c #BD7D21",
"x. c #B57925",
"c. c #A56A39",
"v. c #AB732F",
"b. c #C57C1A",
"n. c #C64C27",
"m. c #C87B29",
"M. c #E07B2B",
"N. c #B03D40",
"B. c #8B4644",
"V. c #8B5050",
"C. c #B14D4A",
"Z. c #907151",
"A. c #B77A46",
"S. c #AD724C",
"D. c #8B7168",
"F. c #B66F6E",
"G. c #CA7452",
"H. c #E3777C",
"J. c #CD595A",
"K. c #BC8433",
"L. c #B38E3B",
"P. c #CB8B1B",
"I. c #C78626",
"U. c #D58B2A",
"Y. c #DB952B",
"T. c #CC9235",
"R. c #E5982B",
"E. c #E39A33",
"W. c #E38D38",
"Q. c #D6A539",
"!. c #E9A538",
"~. c #F2AB35",
"^. c #E8B23B",
"/. c #F8B73A",
"(. c #F3AB2B",
"). c #FEC63C",
"_. c #B88458",
"`. c #B38746",
"'. c #B18D6F",
"]. c #96855F",
"[. c #C98F51",
"{. c #DCB05B",
"}. c #FCBC44",
"|. c #F8BA45",
" X c #E8B14F",
".X c #CC8B65",
"XX c #CB9367",
"oX c #D69567",
"OX c #CE9575",
"+X c #D4A771",
"@X c #F0B569",
"#X c #E08B77",
"$X c #FDC444",
"%X c #FECC4B",
"&X c #FDC946",
"*X c #FED34B",
"=X c #F6CC52",
"-X c #FCC865",
";X c #747A85",
":X c #B07F83",
">X c #E67D84",
",X c #7B838B",
"<X c #88888B",
"1X c #878E93",
"2X c #8E9398",
"3X c #969495",
"4X c #A79E89",
"5X c #BEA48A",
"6X c #949CA3",
"7X c #9AA1A6",
"8X c #96A7BA",
"9X c #B4B9BA",
"0X c #A9ADAF",
"qX c #CB9388",
"wX c #DBA884",
"eX c #CCB097",
"rX c #E9B99A",
"tX c #E9AD90",
"yX c #C9B5AB",
"uX c #EEBEA4",
"iX c #E39C88",
"pX c #B8C1BE",
"aX c #D8C389",
"sX c #FEDE89",
"dX c #D2C2B1",
"fX c #EBC5A9",
"gX c #F1C2AC",
"hX c #F5C8B5",
"jX c #F9D7B9",
"kX c #F1D3B7",
"lX c #FFEB98",
"zX c #AEB8C7",
"xX c #BCC2C6",
"cX c #C6C8CA",
"vX c #D6D9DA",
"bX c #CFD3D1",
"nX c #FCD8C5",
"mX c #E8D5CD",
"MX c #FDE9DC",
"NX c #FCE7CB",
"BX c #DBDEE1",
"VX c #DBE5ED",
"CX c #E6E8E9",
"ZX c #FDF7EC",
"AX c #FEFEFD",
"SX c #F5F7F7",
"DX c #F0ECEB",
"FX c #E4E0DE",
/* pixels */
"B B 1 B B s B B B B 1 B B B N B B B B C B D P -.F.AXAXcX9X9.>.n A Y L J W W U Q 3.4.4.4.;.N B B B B B D B B 1 n B C D Z 1 2 B s ",
"1 1 1 1 1 s 1 1 1 1 1 1 1 1 1 1 1 c N g n Z ! C.FXAXAXAXAXSXh.i n Z S U E E B.4.qXBXAXAXC.o.1 B B B 0 c N N D W U S J D B 1 1 1 ",
"1 1 1 1 2 2 2 2 2 1 1 1 1 1 1 1 s B B B N V 3.:XAXSXAXAXAXAXFXN.u c A N A <.H.vXAXAXAXAXzX+.V g c 1 1 N s s 1 1 1 1 2 2 2 > > > ",
"1 B B 1 N B s B B B B B B B D B D B B B A w 5.bXAXAXAXBXBXAXSX5X:.c 1 q y qXAXSXAXAXAXAX9X+.n 1 1 1 1 1 2 2 2 < > > > > , > > , ",
"B D B B B B B 1 B B B B B B B D A N 1 g n w 5.bXAXAXAXBX1XvXAXmXC.u n t F.AXAXAXCXCXAXAXcXO.1 1 1 B 1 2 2 2 < < > < < > > > > > ",
"1 1 N B B 1 1 s s s s s B 1 B n N 1 B s c w 5.9XAXAXAXAXbX1XBXAX:Xy m O.vXAXAX9X0XSXAXBX2XO.0 1 1 1 1 1 2 2 2 1 s 2 2 < 2 > < < ",
"B 1 1 1 1 1 1 1 1 2 s 2 < 2 2 2 1 1 c s c m 1.1XCXAXAXAXAX7X1XCXmXC.;.:XSXAX0X2XDXAXvX9X,.+.N B 1 B B C s s s s 1 < < 2 < < < > ",
"1 1 1 2 2 1 2 2 < 2 2 < 2 1 1 1 c 1 1 B n w :.} 9XCXAXAXAXCX} 3XzXF.o.:XAXCX` vXAXvX9X<Xo.q B 2 1 1 n 1 1 1 B 2 > < < < < < < > ",
"< < 1 2 2 2 2 2 2 < 2 < 1 1 s c 1 s 1 1 1 1 t <.6X9XCXSXAXAX7X{ <X2X;XE vX] cXCX9X9X<X1.o.B B 1 1 B 1 1 1 1 1 1 2 < 1 2 < < < < ",
"s < 2 2 2 1 N 1 1 1 1 1 N N N 1 g g B C S u ;.$.) 1X0X9XDXDX0X{ Z 0XzXCX[ ;X9X0X2XY :.p s V n N B 1 B B 1 1 1 1 s s 1 < < < < < ",
"< < < 2 < 1 1 1 1 2 2 1 1 B 1 1 g B D D ;.=.y.s.v.J R 1X2X1X{ ;X_ K eXeXR ` ] B.M :.t L S D A Z B D B B V B C D s 1 1 2 2 < 1 < ",
"N B B D J D D S D J J S S S U S K U Y >.#.i.x.R.s.~ _ ) _ l z x ~ K.Y.P.l.].f.3.,.! R R E E  .E W E U W W R W W s 1 2 2 < < < > ",
"E W W W W W W Y U W W Y W W Y W W T ,.*.u.I.s.i.( 8X8X,X_.U.P.s.(.&X*X/.P./.Y.I.n.B.` ' ^ ) ' '  .E W W ' W W P 1 1 1 1 < < < > ",
"W E E W S U U S P W U U W W S U E >.#.i.a.s.a.( xX8X'.[.R.E.E.I.).).&X%Xb.I.$X&X!.n.g.E ) ) W W ' W S U G U W U B B 1 N s 1 < 1 ",
"D S U U S S U U S W W U W T W W ^ ,.t.a.s.a.] 8X'.[.^.).$X|.s.`.BXsX).&Xz.j.!.~.lXwX5.! ^ ] ' E ^ E E E W W W T D B B B N N s s ",
"W U S D U S U U U W U S S S U W i #.p.s.x.e.,X].~.).%X%X&XE.s.~.aXVXsX!.c._.b.@XVX+Xy.u A L S Z B n D D B B n N 1 1 < < < < < 3 ",
"J S S S D Z C D S S Z D D C D B y @.p.w.q.R { Z.&X}.$XE.s.s.E.).).eXDX[.[.oX'.2XaX&Xy.o.B 0 s s N N 1 B B B 1 1 2 2 2 2 2 2 < 2 ",
"1 B B B B B Z B N B B S D S S F &.t.0.q.q.H ~ R.Y.I.s.x.R.{._.f P.).(..X.X.X[.d.R.=X{.&.F 1 n 1 1 B N 1 1 1 1 2 1 2 2 2 < < < > ",
"D A D P S G J S S S S D A D S p @.0.0.d d w.u.K.I.Q.~./.!.eXMXbXK.d _.XX.XOXc.i.U.FXMXh.+.D Z V D B B A B B B B B B s B 1 1 s s ",
"D S Z B B Z D B C B C N N D D i @.0.0.r.s.Q.E.).*X).-X@X$X(.|.fX'.K._..XwXrXv.oXdXvXQ.I.%.m Z Z A D B C B B B B N B s N 1 1 1 s ",
"1 1 1 2 2 2 1 1 1 1 c 1 s 1 s r @.0.d u.U.E.$X*X%X).kXqX@X XI.m.K.'..X+XhXuXoXz Z.|.*XI.2.V V B B D D B B 1 1 1 1 1 1 1 1 s 1 1 ",
"2 < 2 2 2 2 < < 2 1 < 2 < < < r @.0.0.d w.u.I.I.E.(.jX+XmXOX'.9 c.+XrXgXgXuXk # d.).*XP.&.0 B B B D B B B B B B B B B 1 1 1 s 1 ",
"s s B n N s s N s 1 1 1 1 1 N p @.q.0.l H 0.i.I.a.d.hXuXnX+XyXO 5 _.uXgXuX'.. # s.|.*XI.&.m Z C A D Z B V B 1 1 B 1 C B N B 1 1 ",
"1 1 1 1 1 1 1 1 1 1 s N N 1 1 p @.0.k } ;XK u.*X&Xa.OXMXMXuXSX0XO 5 qXhXfXS.,X+ u.!.*XI.&.F C B B B B B c N B B B B 1 1 n 1 1 1 ",
"C C B B B B B B n n 1 n 0 0 c p *.0.d 4X1XJ p.*X*Xx z ^.NXNXwXI , z wXhXgXZ._ # u.E.*X!.&.m B N B N 0 B D B A C B D D B Z B B B ",
"S S S U U G W W U J J J P U U i *.0.0.0.4XT I.&X=Xl o . [.x.f : l tXMXMXMXfX0 g.i.m.}.!.&.V B C Z B D B C A D C A D B B B B B B ",
"P S U U U W U W U J U U P Y Y 2.@.0.0.q.d l K./.l.O P.6     2 0XjXZXMXMXMXMXZXrX0.x.$X!.&.F S S D D B B D B B B B B B B B B 1 0 ",
"S U S S S S U U J S S G P G ! #.0.0.0.0.0.w.s./.L.k x., X . 0 ZXSXZXZXZXZXZXMXnXc.u.|.|.&.F S w <.w B 0 B B g n B B B 1 1 1 c 1 ",
"J U D J U S U U U G U R W R ! =.0.q.0.q.0.q.s.a.< f 6 $ & > 0XMXiXH.H.H.>XiXMXuXv.w.^.%X&.q p 3.C.%.;.e 1 1 1 1 1 1 1 c 1 1 1 1 ",
"Z B B N B N 1 B B B C B B B p =.0.0.q.q.0.q.p.f.= @ @ & % > ZXOX7.7.7.7.7.J.nXwXe.0.T.$X3.,.2.tX`.S.#X:.S I U J S S P S S S B C ",
"2 1 2 2 2 1 < < < 2 2 2 < 9 O.t.0.q.q.0.q.d u.e.. % & & % eXnX7.7.8.8.8.8.rXuXF.#.#.p.}.3.5 j..Xg.g.S.3.E W W W W E W T U U U U ",
"1 1 1 1 1 s 1 1 1 1 1 1 1 w $.q.0.#.t.q.0.0.w.a.6 % & & , MXuX7.8.9.8.8..XrX.Xf.#.*.d Y.3 @ a.k.f.S.wX3.T E W E ' E W  .W W W T ",
"B B B B B B N s B B Z D D i @.0.#.*.t.a.w.0.0.t.j.b.6 o  XuXuXG.8.8.8..XrXF.g.H z 6 7 d.@ @ K.f.j.g.C.,.E R T W R W U U U W U D ",
"D D B B C B C C C Z D D J 1.t.#.<.*.a.s.t.0.0.e._.wXA.r.b.z [.A._._.A._.g.l 6X7Xz 5 7 0.@ , j.j.l.wXC.~ ` ^ E W W T W U W W P S ",
"2 1 1 1 1 1 2 1 2 2 2 1 2 r X.<.%.r.a.t.o.0.r.S.uXgXhXtXq.X 6 k k 7 e 5 q 6X7X'.T.# = 7 @ % 3 f + h.g.^ W E T W U W U U W U U S ",
"< 1 1 1 1 2 1 1 1 1 2 < 1 s 2 w $.@.%...O.0.=.J.jXuXjXS.7 % & z A.k.@ $ K 5X'.XXk.f , $ X % @ 7 8 %.! Y U U W U U U S U S D S U ",
"2 < 2 < 2 2 2 < < < < 1 1 2 1 2 e ..w < O.@.O.C.uXkXtX~ : . o o ~ eXC   f.XXA.k.#.*.y 4 4 4 4 4 =.p E T W Y U U W Y W U P S D S ",
"< < 1 2 < < < < < > < < 2 2 < 2 0 0 2 1 1 r O.#.OXrX5XbXcX,X>   $ ,XL Z D.c.%.%.r r 4 r r r r r e N ) W T W U W U U U U W U S U ",
"2 2 < < 2 2 2 1 1 1 1 s 1 Z B B D B B D B B w %.A.[.3XSXAXSXvX2XN $ . 2X<X%.y w B C n C D B C B c C J U D L D D D Z B S S D D A ",
"N N 1 N B 1 s B c N Z B B D C B B Z N B B g D o.5.( 7XSXAXAXSX5XI.i.m.I.} +.2.u Z D D P D S Z S D Z B N s g N B V 1 N B 1 1 1 1 ",
"C B B B A B B B B D B B B D B Z D A C C V B N i <.[ vXAXAXSX5XU.E.}.T.x.b.I.U.2.u Z Z Z C D A C D D B Z Z B B B N B B c n c 1 1 ",
"1 N N B B 1 s B 1 1 1 1 0 n B 0 B 0 N c 1 N 1 u ;.<XSXAXSXNX^.Y.^.kXVXXX/.&X}.M.:.L P L G J U U S S U D S D Z B B B D D B B B B ",
"B B g 1 s n B B B B B B B c 1 1 s n B V g B c c t V.CXAXSX~.%X).aXSXAXVX+XM.W.n.g.K J R W R S U U U U U U S S S S D D D D D C B ",
"W U U U U U S U W W W W W W U U W ) W E T W U T >.V.xXAXAX|.&X/.wXjXmXdX2X3.,.>.P T U R W W W U W U W U U S U J S S U P U S P S ",
"J R U U W W U W W W S Y E E W W E ) T E T T W R ,.V.D.qXuX X@X{.oXoXG.r.D 2.Y U L P Y W Y Y U U U U U P W E W S J U R J D D D S ",
"J S P S U U U S W W W S U E T W T U U U J U U R / 6.g.e 2 v e < < 9 # @ ;.2.U G P L U P U W W U U W R G U W U P J P S D S S S V ",
"P J V P U S D S U U W S P W W W W T W W W U W J >.r - f.r.x.K.Q.T.aXzXx 5 +.S S U U W P J U S U S P U J W P S P U U U U J P D P ",
"J S W T U S S U S P U W U U U U U Y S P U G U 2.$.6 0.5 , 9 x.3 3 9 b , X -.Y U R U R U E W W T W U U U J J U S D S S S Z B B Z ",
"P S J P S D S S S U J S G S J P J S S S P P u =.7 $ % , < ~.L.. * o & * - o.G P U S P S S U U U U W G U S A S S B D D Z Z B 1 1 ",
"S S D J P D S U S W U U W U U U S P J S S J Q =.f j j Y.Q.`.o & & X * % & -.S S S S D D S D U U S S S D D D D D S S D C S B < 2 ",
"S S J P P U J J J P S S P U U J U U U U U S i #.j.[.{.{.Z   & & X > v > - 2.G G S S W U U S P S U U J P P U P D Z B D S B 1 2 2 ",
"P P J U W U U I U S R W W U U W W R R W W U ^ 6.# > % b I 1 X * * > > v e 2.T E ' E ' E ' E E ' E E W W W W W W U U P S U s 1 1 ",
"D S D S S S S J J U U R R J S U J S G G J P C i h.Z.D.D.~ 2 X % . 0 D.k o.H A P S S S S J S S S S S S B D D B D B D N B s 1 2 2 ",
"< 1 1 1 2 2 2 1 s B 1 c 1 B 1 0 1 B 1 B N B s p h.nXMXnXh.....r z OXjXS.%.h n 0 B B B B B 1 B B B B B B B c 1 1 1 1 1 1 1 g 1 1 ",
"1 2 1 1 1 1 1 2 1 c 1 B B B Z C Z Z Z Z C B t X.OXZXZXwX2.u u o.n.rXjXXX2.q B B D B D D B Z B s B B 1 1 1 1 B 1 B 1 N N 1 1 1 1 ",
"N N 1 c 1 1 1 1 B B V B B B 1 B B N N s N w X.5 +XZXnX4.o.n B t ;.OXjXOX2.q B c B c B 1 B B 1 2 1 1 1 1 1 1 1 1 1 1 s 2 1 < 1 2 ",
"1 1 2 1 N 1 B 1 1 1 1 1 1 1 2 2 2 2 1 1 1 y ... k  Xi.O.w n u ..# x.rXoX&.q n g c B B B B B B B B 1 B 1 B 1 1 1 0 c 1 1 1 1 2 2 ",
"T W T U E E W W G U W W  .W W J R T R T +.;.& @ X $ - 1.Q P 1.4 . k p.f &.K Y R D 1 B 1 B B B B n B g B 1 1 1 1 1 1 1 1 1 2 2 < ",
"[ ' [ [ ] ] ' [ ] ] ' ' ] ] E ' ] [ ' [ 9.X X X o X :.B.{ ( 1.o & % $ o 1.^ ' [ S 1 N V B B 1 B B B B B B B B B B 1 1 1 1 1 1 1 ",
"W E E W W W W  .' ' W ' ' [ E  . . .[ ,.y X .     X ;.! ^ 3.r & o . . X 2.Y E E D 1 n B 1 B 1 1 1 1 1 B 1 B 1 n 1 1 1 1 2 2 < < ",
"[ ' E E W ' E  .' [ ' [ ] ' ' [ ] E ' 3.X o R } [ > y ! ^ 1.- o , A S 1 1.^ ' [ U 2 1 C B C B B B B B s B N B C B N s s s 1 < < ",
"E E T T W ' ' ^  .E W W  . .^  .[ E E 3.- [ xXAXBX| <.V.] 3.r , ) 2XvX1X3.^ ) ' S N B B V B B B B B N V B 1 1 1 1 1 1 1 1 < < 1 ",
"B B B B B B B C g 1 1 2 1 N s s 0 N n t .. .6XDXvX! o.V A n ;.r [ 7XAX7X1.q n 0 B B 1 B 1 N B 1 1 1 1 1 B 1 1 1 2 < < < 2 < < < ",
"B B B B 1 1 1 1 1 B B g B 1 B g c c g 0 ;.:.) <X| <.p c V V n O.>.{ <X` o.q 0 Z A B B B B B B c B B B c s 1 1 N 1 2 s < < < < < "
};
