/* XPM */
static char *rin_31677301849[] = {
/* columns rows colors chars-per-pixel */
"64 64 236 2 ",
"   c #1B1B1D",
".  c #181A1D",
"X  c #080D13",
"o  c #311A18",
"O  c #25231D",
"+  c #362B1D",
"@  c #393114",
"#  c #0C1523",
"$  c #131A23",
"%  c #1B1C22",
"&  c #131723",
"*  c #281F20",
"=  c #1D2127",
"-  c #2D2D2D",
";  c #262626",
":  c #372628",
">  c #353535",
",  c #3C3C3C",
"<  c #373738",
"1  c #2D2D33",
"2  c #1E201D",
"3  c #4E3712",
"4  c #491D24",
"5  c #581E21",
"6  c #611D24",
"7  c #4A2125",
"8  c #423D3D",
"9  c #4C3A39",
"0  c #57342B",
"q  c #692425",
"w  c #782727",
"e  c #673636",
"r  c #733334",
"t  c #69352E",
"y  c #651F1C",
"u  c #3D403E",
"i  c #5A441A",
"p  c #794E09",
"a  c #734E14",
"s  c #41423E",
"d  c #564434",
"f  c #61473A",
"g  c #725130",
"h  c #3E3E41",
"j  c #423F42",
"k  c #7E3D43",
"l  c #3E4241",
"z  c #434343",
"x  c #494545",
"c  c #454648",
"v  c #4C4C4C",
"b  c #484848",
"n  c #514E4E",
"m  c #574746",
"M  c #4E504E",
"N  c #52514F",
"B  c #5C5345",
"V  c #4D4E51",
"C  c #4E5152",
"Z  c #4C535E",
"A  c #535353",
"S  c #595655",
"D  c #565855",
"F  c #5B5956",
"G  c #555559",
"H  c #595659",
"J  c #565A5A",
"K  c #5B5B5B",
"L  c #514F51",
"P  c #684848",
"I  c #744747",
"U  c #655959",
"Y  c #735B4A",
"T  c #5F615D",
"R  c #726552",
"E  c #515966",
"W  c #635E62",
"Q  c #596168",
"!  c #5C6675",
"~  c #626262",
"^  c #69696A",
"/  c #65676A",
"(  c #666B72",
")  c #77767B",
"_  c #716C71",
"`  c #971D1D",
"'  c #AB1C1C",
"]  c #A51A19",
"[  c #B11E1D",
"{  c #993512",
"}  c #943614",
"|  c #A9251A",
" . c #AF2B1B",
".. c #A91E22",
"X. c #892928",
"o. c #992828",
"O. c #863636",
"+. c #983434",
"@. c #80302F",
"#. c #AD2423",
"$. c #A52A28",
"%. c #B42B2A",
"&. c #B52624",
"*. c #AC3731",
"=. c #841C23",
"-. c #C2382B",
";. c #8A4909",
":. c #93440D",
">. c #845405",
",. c #8A5404",
"<. c #835409",
"1. c #8B5908",
"2. c #974312",
"3. c #985D14",
"4. c #905C0B",
"5. c #AF5819",
"6. c #98620B",
"7. c #9B6412",
"8. c #8A621D",
"9. c #A66816",
"0. c #AD7419",
"q. c #B4761C",
"w. c #B8781A",
"e. c #AC6711",
"r. c #8D4F33",
"t. c #B44F30",
"y. c #956839",
"u. c #916730",
"i. c #BB7B21",
"p. c #B67723",
"a. c #A56938",
"s. c #AD7531",
"d. c #C27D1D",
"f. c #C07A22",
"g. c #8D494A",
"h. c #AC585A",
"j. c #B64D4D",
"k. c #946F4B",
"l. c #A56D43",
"z. c #AA7548",
"x. c #B6764F",
"c. c #827B79",
"v. c #8D726A",
"b. c #B56E6C",
"n. c #D16453",
"m. c #CA6E6F",
"M. c #B69139",
"N. c #D18C1B",
"B. c #CE8A2B",
"V. c #C88526",
"C. c #D58A2B",
"Z. c #D9942C",
"A. c #DD9832",
"S. c #C88F33",
"D. c #E5982C",
"F. c #E59A36",
"G. c #E28E34",
"H. c #EBA437",
"J. c #F3AA3A",
"K. c #EDB137",
"L. c #F4B73B",
"P. c #EFA82D",
"I. c #DD9A22",
"U. c #FFC738",
"Y. c #B18B47",
"T. c #978771",
"R. c #AF8772",
"E. c #C68956",
"W. c #CF9455",
"Q. c #F8BC43",
"!. c #E9AC50",
"~. c #D59667",
"^. c #D69B75",
"/. c #CA9269",
"(. c #EBBB77",
"). c #D1A574",
"_. c #FDC444",
"`. c #FECA46",
"'. c #FEC64A",
"]. c #FECA4A",
"[. c #F8C84E",
"{. c #FBCD75",
"}. c #FEED7B",
"|. c #7A7D81",
" X c #637081",
".X c #837E84",
"XX c #7C8187",
"oX c #87878B",
"OX c #8C9397",
"+X c #93979B",
"@X c #8C8A8F",
"#X c #A99C96",
"$X c #B5AB9C",
"%X c #AAA29E",
"&X c #979CA3",
"*X c #8B93A0",
"=X c #9DA2A5",
"-X c #9AA6B3",
";X c #A4A7A9",
":X c #B3B5B8",
">X c #B2AEAD",
",X c #D4A98E",
"<X c #E1AB8A",
"1X c #E7B798",
"2X c #ECB492",
"3X c #CDBBB2",
"4X c #EBBBA2",
"5X c #DC8F8C",
"6X c #BCC0BF",
"7X c #D5C18F",
"8X c #EEC48D",
"9X c #D8C5B8",
"0X c #F5CAB5",
"qX c #F2C9AC",
"wX c #B7BEC8",
"eX c #D1BEC0",
"rX c #BCC4CB",
"tX c #C6C8C8",
"yX c #CDD4D7",
"uX c #D7D9D9",
"iX c #CFCECB",
"pX c #F9D8C7",
"aX c #DEE0DF",
"sX c #FFE5DC",
"dX c #FFEADD",
"fX c #FBEAD9",
"gX c #FFF7D0",
"hX c #DCE3E5",
"jX c #E7E9EA",
"kX c #FFEDE3",
"lX c #FAEEE9",
"zX c #F3F4F4",
"xX c #FDFEFD",
"cX c #FAFBF5",
"vX c #F6F1ED",
"bX c #D9D8E6",
/* pixels */
"z , z z z l z c z s , z z z j z z c c c z v v v v G G A J A G x z A N A G A A n A c z s s z c c z c c x b 8 , z z c v c , < z 8 ",
", , , , , , , , , , , , , , , , , 8 s , 8 c A A A F K v A K M b u s V A F K ~ A b A v , < , , l s s s , , z v A A v M v s , , , ",
", < , < > < > > > , , , , , , , u s s u s c b v M N A v v v v v v z z s c b v v z z b z , , z s , , , h , , , , , , > > > - - ; ",
"s z z z z z z z z z z z z z c c x c c c b z u s s z b z l , u z l z u , , , , , j h , , j , z , , , , , , > , > - - - - - - - - ",
"z c z z c z z 8 c c z c z x s b c z , j z z s c z , h l u z l w ' ' w s c c s , j , 8 9 8 8 , , , z , , > < > > > - > 1 - - - - ",
", , s z s , , , , , s , s , z u , z z s , , z z z 8 l u 8 z X.h.uXaXh.w j j , x h h r $.%...w , , , , , , > > , < , > < > - > > ",
"z , , , , , , , < < , > > , > < , , u 8 , b z , c z z z z ' j.uXxXxXuXm.w x x u h r ..3XzX) ..c , z z z , , z u u > > < 1 > > - ",
", , , > < < , > > < , > > , , , , , , , z c z j s s , z 8 ' uXxXxXcXxXxXm.@.b l 9 %.>XcXcX@X] < , , z , , , s < - > > > > > > - ",
"> > < > < > > > < < > > , , 8 u , , , , , , , c l z 8 8 ] b.xXxXxXxXxXxXxXm.O.x O.5XzXxXxX>X..< u z s , , , , , < > , < > > > > ",
", > , , , , l , , , , , s s z , 8 z z c v z c z , , z z ..rXxXcXxXxXuXzXxXzXh.r *.eXxXbXcX:X..j l , 8 z , , , , , s , > > > > > ",
"> > > > > , , , , < > , , , , , l z b c z z u z s z z j | 6XxXxXxXxXtXjXxXxX9Xo.^.vXxX=XvX.X$.x x v c z z c v v s , , < > , , > ",
"z z z v V x v v v v N v v v A v V A A A D A A J H K W U &.+XxXxXcXxXiXtXcXxXjXh.h.xXhXQ :X) %.K D K A H A A A A s < , > > > - 1 ",
"K H A K K A A A A A K A K A K H A F F T ~ T U T W K K U %.|.iXxXxXxXuXoX:XrXcX6X#XxX@X/ >XH %./ K K A A T F A A , , , , > > > - ",
"D K K F A v A N A A A A K A v A H A F K F K J K T U g.&.$.D oXiXxXxXxX+X) >XyXyX|.zX@X&XoXP $.J ~ K A A N A K A z s s , u , < < ",
"v v A A v v A A v K K A K K D K ~ T W G J K U U I %. .3.p R ) XXiXxXxXuX( ) :X=XQ 6X.X*X|.%.g.K ~ K K K H D A A v z x s s s s s ",
"A C v v A L A A A A A v v v A A C A J G F K f [ t.5.w.V.N.0.R ! |.rXjXzXrXQ ) ;X|.Z b W P ..v j z z x c c z c z , > > > > > > 1 ",
"v v v v b b b b b v b x b b b z , , , , , 0 ' } 0.H.J.H.C.i.N.f Z E ) &X=XXXK +XjX;X/ O.X.0 u u , l , z 8 z , , > , , < > > < < ",
", z z x z s z c 8 s c v v v v b z z b z e X.;.0.V.B.V.V.w.6.g Y ( ( Z E Q ! T f &X-XR 5.X.e u , h l 8 , , , , < , < < > > > > 1 ",
"v b v v v N N v v v v c b b v b z x c c [ :.0.w.0.0.0.V.6._ &XOX( R a a a u.u.V.z.s.q.B.5.o.e b b z c z c c z s z z , z , , s , ",
"c v c z z z b c b c z c s b v z s s z r ' 1.w.q.0.V.6.1.B ;XrX$Xs.V.N.C.0.w.A.J.'.].F.Q.G.5.o.x x b x b z l z z z l z , , , , , ",
", , , > > , , , , , , , , , , > < 8 z o.:.0.w.p.7.<.>.p ) wX$Xd.K.'.'.H.q.p.H.U.].].S.L.'.C.[ e s b b u l s , , , , , , , 8 , , ",
"< > > , > > > > , , > > > > > , , , < ] ;.q.9.>.>.>.1.f >X;XT.J.].`.`.V.0.9XvX`.U.].V.B._.'.5.&.x b x z c z z j z z z j , , , u ",
"s , z , l 8 u s l , , , , , , z h , r | ,.p >.>.>.>.p T.-XT.H.'._.'.F.V.K.`.tXfX].P.s.7.{.jXC. .b b x s z z 8 u l , z z z , , , ",
", , , , , , , , , , 8 u z h , , , , ` ,.>.<.>.>.>.>.p $XT.D.J.'.`.A.w.N.S.A.`.iXiXp.E.k.tX7XH. .@.s l z l l s u z z , , s s , , ",
"b x c z c c z c s , 8 u , z , z z l o.;.>.<.>.>.1.>.>.@XF.H.[.Q.H.w.<X7XV.6.N.S.T.R.^.k.T.U.K.w.' 8 u z b z b c c b c z x z z z ",
"v V N v A A A A A A v A v A A A A N o.:.>.<.>.>.>.<.p y.F.J.!.d.w.D.{.hXgX).e.7.W./.^.4.N.(.qXS.' b c z b b c v b b z x z z z s ",
"v v A A A A A A A A A A A A K A C G $.;.>.>.>.>.>.>.1.1.9.7.f.B.F.`.L.!.8XjXT.0.s./.~.v.$XzX{.A.#.z b z x z z z z s z c z , , u ",
"M A v v v N A v v v v n A A A A K P *.;.>.1.>.>.>.>.>.7.9.B.L.Q.'._.`.L.Z.W.R.E./.<X~.u.Y.!.U.G.| z z s z z z , z z z , , l 8 , ",
"A v v v A v A A A v A A K A A F A O.2.>.>.>.>.>.>.6.S.Z.Q.[.`.'.].J.F.p.E.E.^.qXqX<Xz.<.e._.L.G.] , , , , , , , , , , , , , l , ",
"x c z z z z z z z z z c z z z s x +.:.>.>.>.>.>.k.OXu.p 0.Z.G.F.B.6.+ 1 - i /.^.0X<Xa.<.1.'._.F...v V V v L A v v v A v v v c c ",
"< , > > > < > > > > < > > < < < j +.2.>.>.<.>.g rXzX*XE >.7.i.i.e.@ E tXW c g 4X0X<Xa.p <.'.Q.F.%.K K ~ K K K A K K K A A A n A ",
", , , , , u , , , , , , z , , , z +.2.>.>.>.,.a -XxXaX! 0.F.J.Z.9.p %XxXh jXL Y.0X<Xy.t >._.Q.F.%.Q K T K K K K T K K T K A H F ",
"x s z z z s , z l x x b v v b c L +.:.>.>.>.>.a ! yXbXR 0.K._.N.E.z.9XxX1 Q D 4XpX4Xx.t >._.Q.B.&.A N A F A H A A K A G A F A v ",
"b b z b c c c z z z v v v v v v L +.:.>.>.>.>.p B XX=X8.q.`.'.Z.~.,X4XcXl X ,XfXkXsXqXk.>.'.L.p.#.G A K Q T F K D F A A A K C v ",
"< , , , , , , , < , < , , , s z t { ;.>.>.p >.0.7.N ! a 6.J.`.K.~.0X0XkXiX$XfXfXsXkXpXl.>._.A.3.] v ~ T K K F A A A A A A A A v ",
"> < < , , < , , < < > > , < , , w { >.>.{ ,.q.f.9.p a p >.V.`._.A.<XcXdXdXkXsXsXkXsXpXl.<.Q.B.,.] z G A A A A A A A A A v v C N ",
"< > < > , < > > > > > > , , < > ] ;.{ ] ;.p.Z.q.7.>.>.>.>.4.J.`.P.2XkXsXsXsXdXsXsXlX2Xg <.D.e.] y x K D F K F G K K A v n v v v ",
"> > , < > > > > > > > > > > > > w ] ` ;.w.G.C.9.>.>.>.,.p ,.w.!.U.(.pXkXkXdXdXfXkX2Xl.p q.C.;.] : j K F G A A A A A A N A A v A ",
"< > < > > > > , , , , , , z s z c f | 9.B.e.:.| } >.,.p 0 a p f.L.I./.pXpXpXpXqX^.a.| :.q.9.:.' x x G n v v b v v c c v M x v c ",
"z s , s s l s u u z z x x b c c z w } 5.:.o.] { 1.p a 2 & & 2 p 3.f.s.k.l.z.l.} *.o.o.;.q.,.' f v c z z u s , z z , z z , , , , ",
"c s c z x c z z z c z z z x z b c m @.X.X.e | ;.3 + # & % % & % k.,X1Xk.X.X.o.X.t x o.;.7.2.O.l b b c b c z z z s z s 8 z , , , ",
", s s z z , , s z , , , , z z , z , z j 8 s e ` # % % % %   % a 1XxXdXm.*.O.m M v v $.,.} O.P G v v N v v v c b c z b c z z z z ",
"c z s , l z z z z z z c z z , z , l z z l h e X.; X X X X $ R E.2XsXlX2X%.[ I A D A O.| O.P M A A A A A N v v x v b b v c v v c ",
"A A A A A v N A A D F H K A v A H F D K G G O.+.=XiXuX=X+X+X@XE.z.1X0X0X2X:.+.D D D G I H G D A A A A A A v A A x A M A N v v v ",
"A A A A A A A K K A A A K K K K K K K K J P $.^ jXxXxXxXxXzX#Xu.r.z.4XqX^.0.#.A C N A D G D H F F A A A G K K v v A A M v b b v ",
"A v A n A A A n A H A M A K A A K A A H C P +._ uXxXxXxXxXxXzX=X( C g E.s.* #.V V A A A C A A A A A G N A A A M A N v v v v v z ",
"v v c v A v v v A A K v M K F K G K F G D P $.U oXyXzXxXxXxXzX=X|.( i 7.* 4 X.v C A H N C N M N v N A N A A v v A A N A A N v v ",
"n C A K A v v A v A A A A M A A A A V C G A r #.z.$X#X>XjXhXaXOX) Q 1 X 4 o.I A D A G A K K D J K A A C v A A v v v v v c z z b ",
"v v A v v v v v v A v A v A v v n v v v v P #.} f g z.E.9X9X,XR.Y k q 5 +.e V A A v v v A n A A A G M A v c x v b b b z b s , , ",
"v v v A v v v A A A A A A A A A M M n V P o.5 3 3 3 d ^ R F 0 d w O.O.O.m v v v v v v v v v A C v v v v v v v b v v b b N u > , ",
"v v v v A L v v v v L v v A A A A A A n [ :.& 2 3 3 3 ;.8.M.Y.Z r X.v v v x v v v v A A A v A v A N v v A A v v z b c v c , > , ",
"A v A A D A A A A v A K K A A A K A S H &.p $   # # + @ 6.0.s 1 q O.F A H S K K ~ K ~ ~ K K K ~ T K K H D H A A A A N v n , , , ",
"c v v v v v v v A A A A A A v v M v v v &.p % % $ % # M.q.2 . . % w r x b v b v v v v n n v v v v v v c c b v c c c z l s , , > ",
"> , , , , > , > 8 , z u z z , z u j 8 z @.| 3.< K Y.[.S.: = .   ; w r 8 z u z h , c z c z , z s z z z z s 8 , , , , , 8 , , , , ",
", > , , , , < , , h 8 z z s c c c c v c j @. .G.F.i.9 E ( v : f /.j.[ x s l z z c c b b c z c l l z , , z , , , s , z , , , , , ",
"z 8 , , , , u , z c z c z z , s s z , h j j r  .x.c.G m o 7 a.^.0X1Xt.t , z , s s s s , z s , < , , , , , , , , , , , > , > , , ",
", , < , , , c , , , , , , , > > < 8 , 8 9 w ' { ^.sXcX/.] X.q r.^.qXj.t 9 z j , 8 c z z z z z z z , z z l 8 , , , 8 , , , , , > ",
"H K A D T K K K M N K K K K A A N S O.+.+.6 4 <.8XkX1Xt.[ +.q <.W.!.t.I G A A K c , u s z z z z z z , l , , , , , , , , , > < > ",
"~ ~ ~ ^ ^ ^ ~ ~ ^ ^ ~ ~ ^ ^ ~ ~ ~ g.w 7 4 % $   Y.8X!.-.*.4 2 3 3 0 | I ~ K T ^ v , z z z z z 8 z , z z c z u z z , , , , , , , ",
"K K K A G F K K ~ ~ K K ~ ~ T K g.w   %   % % & ; i t.%.7 % $ & & & X.I ~ A K K v , s z , , , , , , , 8 l 8 , z , , , , < > > > ",
"^ T K K K K K W ~ ~ ~ ^ ^ ~ ~ ~ +.q $ % % % . & = 5 &.%.  * % % . q &.( T ~ ~ ^ v , , z s z z z z z z s z , z z z z , u , , > , ",
"K K F K K ~ ~ T ~ K K A ~ ~ K ~ g.q % v .X@XF * q %.~ *.: & < oXXXh.%.U K K T ~ v z c z c z z c z c z z z , z , , , , , , > > > ",
"z s z z z z z z z u , > , s u z 9 @.r _ ;XjXjXv.X.9 s r o.: ( :X:XOX+.e u h s , z z 8 s , z z u , j , , z , , , > > > > > > > > ",
"z c z z , , , , , z z h z , j z j 9 ..P |.@Xc.I X.u z u r ` U .Xc.) +.e z s z z c z z z z z z , z u z j j , , , , , , > > > > , "
};
