/* XPM */
static char *rin_11677301850[] = {
/* columns rows colors chars-per-pixel */
"64 64 250 2 ",
"   c #04080E",
".  c #040816",
"X  c #08121D",
"o  c #181A1D",
"O  c #2C1D1A",
"+  c #382C19",
"@  c #27231A",
"#  c #0C1424",
"$  c #1A1D22",
"%  c #141923",
"&  c #291A22",
"*  c #1B2228",
"=  c #2D2D2D",
"-  c #282526",
";  c #352A24",
":  c #353535",
">  c #353539",
",  c #3C3C3C",
"<  c #383937",
"1  c #2D3033",
"2  c #1C201F",
"3  c #571B1C",
"4  c #4F3414",
"5  c #6C3116",
"6  c #413D3D",
"7  c #493C39",
"8  c #573A3B",
"9  c #4F3329",
"0  c #6C2A2B",
"q  c #782B2A",
"w  c #663B26",
"e  c #673635",
"r  c #753536",
"t  c #712F30",
"y  c #651F21",
"u  c #3D413D",
"i  c #5C411A",
"p  c #7B4D06",
"a  c #7B5206",
"s  c #6A501E",
"d  c #7A541C",
"f  c #6D4613",
"g  c #41413F",
"h  c #4C413C",
"j  c #5A4930",
"k  c #6A4628",
"l  c #765B37",
"z  c #6E4F30",
"x  c #786537",
"c  c #3D3E41",
"v  c #353F41",
"b  c #283143",
"n  c #423E41",
"m  c #4D3B41",
"M  c #573D42",
"N  c #713E43",
"B  c #3E4241",
"V  c #3D424B",
"C  c #434343",
"Z  c #494545",
"A  c #464945",
"S  c #494946",
"D  c #454548",
"F  c #4C4C4C",
"G  c #48474A",
"H  c #554949",
"J  c #4E504F",
"K  c #51524E",
"L  c #5B544C",
"P  c #4E4D51",
"I  c #554E51",
"U  c #4C5155",
"Y  c #535353",
"T  c #595656",
"R  c #555856",
"E  c #5A5956",
"W  c #565659",
"Q  c #5B5B5B",
"!  c #585759",
"~  c #6A4747",
"^  c #744748",
"/  c #7B5354",
"(  c #6A5751",
")  c #5E615D",
"_  c #756850",
"`  c #5B5D64",
"'  c #585F71",
"]  c #615C60",
"[  c #5C636D",
"{  c #636363",
"}  c #696A6A",
"|  c #666668",
" . c #676C77",
".. c #6C7377",
"X. c #76777C",
"o. c #776C6B",
"O. c #9A1A1A",
"+. c #8E1E1A",
"@. c #AC1B1B",
"#. c #A71A18",
"$. c #B11E1C",
"%. c #A11F0F",
"&. c #9A2717",
"*. c #9B3814",
"=. c #8C380E",
"-. c #A9241A",
";. c #B2231E",
":. c #A63719",
">. c #A71D20",
",. c #872727",
"<. c #9A2425",
"1. c #883536",
"2. c #9A3534",
"3. c #922F2C",
"4. c #A92526",
"5. c #B52725",
"6. c #A43626",
"7. c #B5352A",
"8. c #B63333",
"9. c #AA3536",
"0. c #811F20",
"q. c #C70017",
"w. c #894908",
"e. c #92420B",
"r. c #845304",
"t. c #8A5506",
"y. c #93580D",
"u. c #8C5518",
"i. c #AC5115",
"p. c #97610C",
"a. c #986313",
"s. c #A66B18",
"d. c #B3651B",
"f. c #B67719",
"g. c #AC6C10",
"h. c #88592E",
"j. c #AA4E2E",
"k. c #98683A",
"l. c #93682C",
"z. c #B87929",
"x. c #B1702F",
"c. c #C5772A",
"v. c #C77C16",
"b. c #873D42",
"n. c #8C4E4B",
"m. c #B44443",
"M. c #866A4A",
"N. c #906F4C",
"B. c #A87548",
"V. c #B37849",
"C. c #AA7652",
"Z. c #855E61",
"A. c #86756C",
"S. c #AB6F72",
"D. c #CA5453",
"F. c #CB6A6C",
"G. c #D26160",
"H. c #B88639",
"J. c #D4851D",
"K. c #C88626",
"L. c #D58C29",
"P. c #D9962C",
"I. c #CE9134",
"U. c #E5962A",
"Y. c #E69B36",
"T. c #DBA332",
"R. c #F6AC2D",
"E. c #EAA837",
"W. c #F3A836",
"Q. c #FBB93B",
"!. c #EBAA32",
"~. c #E1901D",
"^. c #FFCB39",
"/. c #9C855A",
"(. c #BB8753",
"). c #B28B6F",
"_. c #928565",
"`. c #D69447",
"'. c #CA8B59",
"]. c #C99452",
"[. c #F6AC45",
"{. c #FBBD43",
"}. c #F9B641",
"|. c #EBAD51",
" X c #CA8D64",
".X c #CD9369",
"XX c #D39A76",
"oX c #D39568",
"OX c #DAA17C",
"+X c #D3A061",
"@X c #E5AD5C",
"#X c #FDC345",
"$X c #FECB4B",
"%X c #FCC646",
"&X c #FDD44B",
"*X c #FCD252",
"=X c #F7CC69",
"-X c #797D84",
";X c #6A7887",
":X c #7C8187",
">X c #7C8692",
",X c #878B91",
"<X c #8C9298",
"1X c #959699",
"2X c #87888A",
"3X c #AD928C",
"4X c #B9A898",
"5X c #9098A1",
"6X c #9BA5AB",
"7X c #A5A9A9",
"8X c #B5B8B9",
"9X c #A8AEB4",
"0X c #A29CA0",
"qX c #DAA787",
"wX c #CFB18E",
"eX c #EBB492",
"rX c #E9BCA7",
"tX c #D99C9F",
"yX c #D0C7B0",
"uX c #EDC1AA",
"iX c #F1C3AB",
"pX c #F1C8AC",
"aX c #F7CAB6",
"sX c #F8D3B3",
"dX c #FFE192",
"fX c #B9BCC1",
"gX c #BCC4C5",
"hX c #C4C7C9",
"jX c #C8CDD3",
"kX c #CCD3D8",
"lX c #D6D7D8",
"zX c #D6D0CA",
"xX c #FADAC3",
"cX c #F7D6D0",
"vX c #FEE6DC",
"bX c #FEEADC",
"nX c #FEE6D4",
"mX c #FFE0CB",
"MX c #D5DDE5",
"NX c #CFDCED",
"BX c #DEE1E2",
"VX c #E6E7E8",
"CX c #FAEBE4",
"ZX c #FCF4E8",
"AX c #EBF1F4",
"SX c #F3F4F5",
"DX c #FDFDFD",
"FX c #F7F9F6",
"GX c #E9EEF2",
"HX c #DEE0DD",
/* pixels */
"C C , C C n C C C C , C C C c C C C S D D Z H F F Y Q Y E T K A C Y J K W T Y F Y D C n C C C C D Z C G C u c 6 C G G C , , C , ",
", , , , , , , , , , , , , , , , , g , C c A J Y T W Q F U Q Y G c C P Y ! ` Q Y G I F , < , c n , C u 6 B c G Y K F F F C , , , ",
", , , , < < < < < , , , , , , , c g g 6 C G F P J K J U G Y G K F 6 S C G G J F n D G n < , n C B , 6 6 c , c , , < : < < = = - ",
", C C , C n c C C C C C C C G C G G m m h h m 7 m 7 S g C , C , C C , , , , , , n 6 0 <.@.#.#.,.9 , , , < < < : = : = = - 1 - = ",
"C G C C C C C , C D C C C C C G Z e 4.8.8.8.8.8.8.4.4.M 8 C C 6 c B C C C S C 8 #.5.8.4XSXDXCX3X$.n , < : , < : 1 1 : = : = = = ",
", , g C C , , c , , n c g , g C n ,.3XSXFXDXDXDXDXlXF.m.9.,.C g B C C B g 7 ,.9.tXHXDXDXSXSXSXyXm.,., , < < < : < < < : < = : = ",
"C , , , , , , , , < , < < < < < , 0.S.VXDXDXFXDXDXDXDXDXlXD.q C C D C n Z ,.S.lXDXDXFXDXDXDXDXVXgX@.C D c , B n , < < < : < < : ",
", , , < < < < < < < < : < , , , 6 ,./ VXDXDXDXDXDXDXDXDXDXDXF.q g C u h $.S.BXDXDXDXVXSXDXDXDXVX5X#.n , , c C < = : : : : : = = ",
"> < < < : : : < < : < : < , , c , ,.Z.hXFXFXDXDXDXDXDXDXDXDXDXS.1.C D M ;.VXDXDXFX8X7XGXDXDXSX8XX.#.B , , , , , < < , < : : : : ",
", < < , , , g , , , c , n C n , n 3.Z.:XSXDXDXDXVXhXkXzXDXDXDXVXj.<.<.<.n.DXDXFX9X:XjXDXDXDXFX1X| #.C u , 6 , , , , < : < 1 : < ",
"1 : : < : , , , < < < , , B , , c ,.^ } hXDXDXDXFXjX2X:X1XhXDXDXqXg.d.d.7XDXDX9X} 8XDXDXDXDX8XZ.<.1.D B C C F D n , , < < < < < ",
"C C C S K G G G F F P F F F Y F H ~ 5.o.:XgXDXDXDXFXSX<X..| jXFXjXd N.X.2XFX9X..<XBXDXDXFXgX7X^ 5.Q T T R R T T n , , < < : 1 1 ",
"Q T W W Q T Y T T R Q R Q T W R W R 2.^ ..:XhXSXFXDXDXDXgXX.{ jXBX2XkXjXAX9X..,XHXDXDXDXgX9XZ.5.^ Q Y R { R T U , , , , : : : 1 ",
"Q Q Q E F Y Y U F Y Y Y T T F Y ! T ^ 2.^ ..X.,X9XhXGXSXAXgX:X) ,X:XjXDXFX:X1XVXDXDXDXfX7XZ.2.^ { Q Y Y U K T Y C n , , < 6 : < ",
"F F Y Y F F Y Y F Q Q K Q W W R Q { ) b.-.z ....-X..1X7X6X7X6X:XU D ..kX<X..7XMXkXkX6Xn.~ 9./ E ) Q Q E W T T T F C C C 6 Z n 6 ",
"Y Y F G K Y Y U T Y Y F F F T W Y Y ! 5.t.r.k L  .| Q ` ' ' ' ' | l h.N.M.l x M.N.C._ i.,.~ F C C g A G D D B u , , : : : : : 1 ",
"K G F F F C S S G F G C G S S C c < t *.w.r.t.a U ;X5X;Xl l x.k.s.~.R.Q.R.L.s.K.!.Q.R.L.#.e c 6 n c , C C C , , < , < < < : < > ",
"u C C C C C C D 6 C A F F F F S C C 4.w.r.r.a L <X6X).(.P.R.R.(.zX=XQ.*XY.K.C.a.P.%X^.sXd.@.n , , C , , , , , < < < < < : : : 1 ",
"G G S F F K U F F F F G G G F G C 8 <.w.r.t.d ;X_.I.L.Q.#X&X{.L.wXGX=XR.Y.'..XB.z.U.dXNX`.@.e S S C C G C C C C C C c C , , 6 , ",
"G F S A C C G Z G C C C C A F C C ,.e.r.r.a ' _.K.U.[.$X%XQ.E.{.W.4XAX@Xf. X.X Xz.eXNX+X{.d.<.C D S S G C C C g C n C , , , , , ",
", , , < < < , , , , , , , , , < < ,.e.r.r.d o.g.Y.[.$X#X$X|.z.t.g.U.wX2X(.XX.X(.r.k.:X|.*XzX-.t C S G C C u , , , , , , , , , , ",
"< : < < < < : : < , < < < < : , , ,.=.r.r.r.t.L.W.Y.L.U.4XCXCX=Xz.p.f.]..X Xx.l.OX(.J.*XSXA.w.>.C G C C C C C C C C C g , , , n ",
", c C n B n c , g , , , , , C u , ,.e.r.r.r.p.E.K.L.f.T.!.Y.wXGXyXs.(. X X.X(.OX X.X+XkX4XY.y.<.S S D C C C , c C , C C , C , , ",
", , , , , , , , , , c n c , , , < ,.e.t.s z g.c.K.I.E.$X$X&XR.|.4X). XXXqXpXaXpXOXoX)._.W.{.d.<.D C B C C , C C C C , , C c , , ",
"C C C C C C C C B , , g , C , u e :.w.k [ d Y.E.$X&X&XQ.{.T.c.`.V.OXeXrXiXiXiXOXV..Xc.~.$X{.d.,.C C u C G C G S C G G C C C C C ",
"F Y F Y Y Y T W Y Y U K U Y T J 3.e.t.} 6X_ g.E.}.[.T.l.4 + 7 B.eXrXpXiXiXrXoXk O j x.P.#X{.d.<.C G C C S G A G S G C A Z C C u ",
"J F Y Y Y T Y T I J Y Y Y Y T T 1.e.t.o.8X9X_ t.s.K.u.O :Xc X ; B.eXpXiXuXeXw - b # u.U.#X{.d.<.G A C G C C C C C C C C C 6 , C ",
"F Y F F F P Y J J F F J Y K U T 2.e.t.L 9X8XA.f.Y.K.4 >XSX..8X$ 8 ).sXrXuXuX2XP -X. d U.#X{.d.<.C C C C C C C , C C C , , c , , ",
"Y J G J J J Y Y Y U I T W R T R 1.e.r.j -X7Xt.K.}.T.5 lXDX| <X% ( XXaXiXiXaXkX1 U 9 x.P.{.{.d.+., , , , , , , , , , , , , , B , ",
"G C C n C n , C g g C Z C C g 7 5.e.r.t.L ..f.P.&XP.a.zXDX]   = 3XnXCXnXvXsXzXc c N.s.P.%X{.d.4.F F J K F F Y K F F U F F F Z C ",
"< , < < < < < : < < < > : < , 0 *.r.r.r.y.l g.W.*XP.].iXZXyX] 4XnXbXCXvXvXnXwX8X4XeXz.L.%X[.w.2.{ Q Q { Q W Q Q Q Q Q T Y Y Y Y ",
", , , , , n , , , , , , u , , 0 &.r.r.a K.f.t.!.&X!.eXbXvXCXFXZXCXnXvXvXvXvXCXZXbXXXx.I.%XP.w.7.Q ) Q ] Q Q T Q ) Q Q ) Q T W R ",
"C C C C C C n n C C D D F G C r *.a a p.!.f.r.P.&XW.@XcXbXbXvXbXZXZXZXbXvXvXvXZXmXN.p L.W.K.6.n.Y ! J Y W R Q R T W U Y T Q Y F ",
"G D C D S C C D C C F G F K F <.w.*.e.c.%Xf.a f.{.%Xx.rXCXCXvXnXeXG.D.xXbXvXCXnX(.( d K.Y.y.-.Y I Y ! Q Q Q Q W R Q T Y Y W K F ",
"< , , , , , < , < < < , , , B <.w.@.i.E.$Xy.&.t.E.*XH.l.OXsXZXxXD.q.G.cXCXvXaXV.~ ' s L.K.w.#., < F { Q Q ) W Y T Y Y Y T Y U K ",
": , , , , < , < : , : < < , , 0 #.#.c.{.K.#.%.r.p.E.Q.y.w N.OXpXeXtXrXpXXXN.z | } 1.=.f.f.#.0 = - C T Y T Y R Y Y Y K Y F G Y F ",
": : < : : < < : : : : < < , , > 0 i.d.y.#.#.r.r.a p.W.!.; o 9 k k k e f p w.I I r 0.=.g.w.#.< : : C Q T Q T T Y R R T Y K F F F ",
"< < < < < : > : < : : 1 < < : < 9 0 >.>.0 &.r.r.w.).c.`.I.+ % ; k.x.k & - #.O.O.0 &.e.w.#.0 : : : C Q E W Y Y T Y Y Y Y Y Y F Y ",
"< < < < < : < , < < , , , n u C S G D D >.e.=.:.7.xXtXcXnX].    H eXZ   [ x.#., C q *.;.r Z C C , D T U F F S G G S C F F F G G ",
"n c , , C , C n n C S G S A S D B C C B e <.3.q j.eXFXiX3XA.X.H # 5XG c lXqX4.G Z H q H S F S F F C C C u C c C C B B g , , , , ",
"D C C C S C C C C C C C C C C Z D G C Z A C D t ,.S.eXa   2XxX).( 9 * kXDXrX>.Z n C S F C A G C S G C D A C C C 6 C C , C g , , ",
", B c C C , n C u , C , C C C , C u g C c g B t 1.M.g.o i xXXXqXeXo.x +XDXqX>.I F P J F P Y R W U F U S F G A C C C S G C C C C ",
"C C B , g g C C C C C C C C , C n g C C n c B 0 1.I ; l.p..X.X Xh.H.K.!.].V.4.z W T Y Y Y Y K Y T Y T Y Y F G K F S G G S F S C ",
"T Y Y Y Y U F Y R W W Y T Y U K W Q R Q ! W W h.b...b T.9 l.XXpXqX3X=XK.W.z.u.;.^ T T W T T E K T Y Y T Y F Y P F U K Y U F F P ",
"U Y Y T T T Y T W T U T Q Q W Q ) Q Q Q W W W ^ 2.o.b c.; o 2 4 /.AXMX@X$X- # 0 ;.5.~ ^ Q W W R Y Y T K T Q T K K Y Y Y G S G G ",
"Y F K F Y Y Y P Y T T K Y Q R T Q Y Y K I I Y W h.r * h.i + 4 g.].zXZXgXH.o % z g.G.8.7.;.T T Y Y Y U K Y T U K U F K G J F F S ",
"J J C U Y F S F Y Y R F U E T W W ! T T T T Y Y b.y + i s d i h.z k M.W # % i [.uXuXk.V.5.I F K F Y T U T U K K Y Y T Y Y P F F ",
"J J T R Y F Y U K U Y T T K Y Y Y T I J Y J T N &.4 p.d s x x _ >X' k s * @ J.@XwXC.B.5.n.R T W T Y Y K F Y Y F G G F F C C C S ",
"P F Y F F F F F J K J J J J J I I F F J F J r 5.5 # h i d %XP.x 2X..l d y ; Y.C.'.B.V.7.~ K Y Y Y Y Y Y F A F F A G S A G C , , ",
"H G G K F F F U Y T Y Y Y Y Y Y J J J F J ~ -.f 2 X . s H.a.@ X   X X # -.- x.$ l j.6.$.H S U Y F F F G F G G S G F G G F g : , ",
"F F Y F U K P F F F J F J Y Y J Y Y Y Y Y ~ -.p u.T.T.*Xz @ % $ $ & $ $ O.,.r.f =.@.~ L K U J F Y Y K F Y Y U F S C G F C , < < ",
"U F K T T T Y Y Y F Y Q ! Y Y T E Y Y E Y ~ 7.f.!.h.= : $ $ $ $ $ $ $ % -.2.;.5.5.^ { ) ) Q ] { Q Q Q W R T T T Y Y K F Y , , , ",
"S G G F F F F F F T T Y Y Y F J U F J J K F $.;.j.* V `  .G % & o 1 P * <.M H H K J F P K F F F F F G C G G D C C G B n c , < < ",
"< , , , : , < < B B , n n C , n c C , g C B , t 6.z C n ; O 3 O.; 6 7 : #.h C n C C Z C c B g C C C C C g g , , , , , , , 6 , , ",
", < , , , , , , , c u C C C Z D C Z S C C D G r 6.qXFXcXj.<.1.r 6.eXxXeX5.7 g C A C C S S C G , C C , u C , u , C , C c , , , , ",
"C g , , , , , , C C C C C C , C C c C n C , m #.j.vXCXeX@.e c t :.(.aXaX@.8 B n C n n , g 6 , , , , , , , , , , , , , < , < , < ",
", , : , , , C , , , , , , , < < : , , , < u t +.l.dXdX|.5.8 n e 0.u.@X@Xy #.C n g C C C c C C C C , C , , C , , , C , , , , < < ",
"T Q T T ) Q Q R F Y Q Q Q Q Y J Y L R R Y n.@.& - s s i 4.T ~ +.& + i 4 & 5.^ W G , g C C C C C C u C C B , , , , , , , < , < : ",
"| ) | | } } | | } } { { | } ] { } | { | n.5.; $ o X # # 4.o.n.,.% % % % $ 3 2.} F , C C C C C , C n C C C C C g C , , , , , , < ",
"Q Q Q T Y Q Q Q { { Q ) | | { Q ] { | { ;.& o $ $ o $ +.5.T ^ ,.% 2 $ $ * - 4.] G , C C , g , , , , , C , n , C , , , , < < : : ",
"| { ) Q W ) Q ) { | | | } { { | | ] { ] 5.$ $ > | B o <.( ` / 3.$ & - ;X8X8X8.n.F , u C C C C C C C C C C 6 C C C n c n c , < < ",
"Q Q R W Q { { ] Q Q R T ) ) ] ) { ` E E 5.= X.9XlX8XU <./ } | 1.0.P 6XVXFXVX0X5.F C C C C C C C C C C C C , c , , , , , < : > < ",
"C C C C C C C C C , , < , 6 , C n n n n @.^ 8XVXSXVX0X2.8 C n n q ,.Z.S.3X3Xn.,.C C , C , C C 6 u , , , C , , , < : < : : : : > ",
"C C C C , , , , g C C B C , C g c c n c e >.-X3XfX1X-X6.M G G D n @.@.$.>.5.>.M G C C C C C C c C C C , c , , n < < < : < : : < "
};
