/* XPM */
static char *rin_91677301848[] = {
/* columns rows colors chars-per-pixel */
"64 64 243 2 ",
"   c #0C121A",
".  c #16191D",
"X  c #05080E",
"o  c #241B1A",
"O  c #28241C",
"+  c #34251D",
"@  c #1B1C22",
"#  c #141823",
"$  c #0B1423",
"%  c #281C22",
"&  c #1E2326",
"*  c #2D2D2D",
"=  c #252528",
"-  c #353535",
";  c #3C3C3C",
":  c #383738",
">  c #322D2B",
",  c #4E1B1E",
"<  c #721A1D",
"1  c #583C19",
"2  c #493017",
"3  c #6B301B",
"4  c #463826",
"5  c #563823",
"6  c #483C3A",
"7  c #563333",
"8  c #6A2928",
"9  c #792A2C",
"0  c #673435",
"q  c #773838",
"w  c #74322E",
"e  c #5A1E22",
"r  c #3E403D",
"t  c #764B06",
"y  c #7D5104",
"u  c #704912",
"i  c #41423E",
"p  c #594934",
"a  c #765838",
"s  c #6F4B2E",
"d  c #3F3E41",
"f  c #343A45",
"g  c #423F42",
"h  c #4A3E42",
"j  c #593F42",
"k  c #6B3C41",
"l  c #3E4143",
"z  c #3F4249",
"x  c #434343",
"c  c #4A4444",
"v  c #454649",
"b  c #4C4C4C",
"n  c #484848",
"m  c #514D4E",
"M  c #594A48",
"N  c #4D514D",
"B  c #55514D",
"V  c #4D4E51",
"C  c #404855",
"Z  c #524E51",
"A  c #4E5152",
"S  c #4D545B",
"D  c #535353",
"F  c #595656",
"G  c #595856",
"H  c #55565A",
"J  c #59565A",
"K  c #57595A",
"L  c #5B5B5B",
"P  c #565955",
"I  c #664948",
"U  c #764544",
"Y  c #63595B",
"T  c #705753",
"R  c #5E605F",
"E  c #64625E",
"W  c #776651",
"Q  c #5A5D64",
"!  c #545C6C",
"~  c #655E63",
"^  c #5E6262",
"/  c #5C6778",
"(  c #626263",
")  c #69696A",
"_  c #696667",
"`  c #676B74",
"'  c #74767C",
"]  c #6D7172",
"[  c #9B1B19",
"{  c #89191A",
"}  c #AC1C1B",
"|  c #A71C19",
" . c #B11D1D",
".. c #983313",
"X. c #A82518",
"o. c #A63519",
"O. c #B32C1C",
"+. c #A51E20",
"@. c #B01E21",
"#. c #852A2A",
"$. c #942A2A",
"%. c #963528",
"&. c #873738",
"*. c #963737",
"=. c #8C2D30",
"-. c #A82826",
";. c #B52727",
":. c #A53533",
">. c #B2342B",
",. c #9D1C20",
"<. c #C9162A",
"1. c #CD1B2E",
"2. c #884E06",
"3. c #835405",
"4. c #885506",
"5. c #945E0C",
"6. c #875914",
"7. c #965C17",
"8. c #904810",
"9. c #B8401A",
"0. c #97630C",
"q. c #966216",
"w. c #8B601C",
"e. c #A66717",
"r. c #B9781A",
"t. c #B17011",
"y. c #845835",
"u. c #92592A",
"i. c #B54730",
"p. c #91632D",
"a. c #A76C29",
"s. c #AB7426",
"d. c #BA7C27",
"f. c #A57B3C",
"g. c #A26A39",
"h. c #C17D23",
"j. c #CA752E",
"k. c #C76C19",
"l. c #953F41",
"z. c #8C4E4C",
"x. c #B14B4B",
"c. c #8F7151",
"v. c #A97744",
"b. c #B17649",
"n. c #8C756A",
"m. c #B07675",
"M. c #DB5C65",
"N. c #D66267",
"B. c #C96155",
"V. c #7E807F",
"C. c #B48835",
"Z. c #D18919",
"A. c #C68324",
"S. c #D78B28",
"D. c #DA942A",
"F. c #CD8F35",
"G. c #E59C34",
"H. c #EB9B26",
"J. c #E9A736",
"K. c #F3AA38",
"L. c #FAB83A",
"P. c #ECAE34",
"I. c #E19A27",
"U. c #FEC339",
"Y. c #BC8449",
"T. c #BA8455",
"R. c #B19655",
"E. c #998973",
"W. c #AF8D6C",
"Q. c #99815D",
"!. c #C58949",
"~. c #C68859",
"^. c #D1954E",
"/. c #EAA946",
"(. c #F9B843",
"). c #EDB256",
"_. c #C68C65",
"`. c #CB9469",
"'. c #D5966C",
"]. c #C79575",
"[. c #D79A73",
"{. c #D5A96F",
"}. c #E4B16F",
"|. c #DA995F",
" X c #FECB4A",
".X c #FDC745",
"XX c #FED34C",
"oX c #FFD143",
"OX c #F8C755",
"+X c #FCD356",
"@X c #F9CC66",
"#X c #777C81",
"$X c #807E85",
"%X c #7A828A",
"&X c #798794",
"*X c #84888B",
"=X c #868C94",
"-X c #959799",
";X c #908F91",
":X c #979DA5",
">X c #8B97A2",
",X c #9BA3A9",
"<X c #99A6B2",
"1X c #A3A8AA",
"2X c #A7ADB2",
"3X c #B7BBBB",
"4X c #B2AFB1",
"5X c #B0A199",
"6X c #D3AC8F",
"7X c #E6B495",
"8X c #E6AF8E",
"9X c #CCB6B1",
"0X c #EABBAA",
"qX c #D4998A",
"wX c #EDC1AA",
"eX c #F1C4AB",
"rX c #F8CBB5",
"tX c #F4CFB3",
"yX c #F3DBA0",
"uX c #B4BBC2",
"iX c #9BA9C3",
"pX c #BCC3C4",
"aX c #C8C8C9",
"sX c #CDD2D5",
"dX c #D6D7D7",
"fX c #DCD1CB",
"gX c #FBD9C9",
"hX c #E8D8D2",
"jX c #FEE6DB",
"kX c #FEEADC",
"lX c #FDE7D8",
"zX c #F5E1D2",
"xX c #DBDEE2",
"cX c #CEDCEA",
"vX c #E5E8E9",
"bX c #FFECE2",
"nX c #FDEEE9",
"mX c #FCF7EB",
"MX c #EEF3F3",
"NX c #FDFDFD",
"BX c #F7F7F7",
"VX c #EAEDF5",
"CX c #E5E1ED",
/* pixels */
"x x ; x x r x x x x ; x x x x x l v x n x n Z b V D J D J F D x n D Z Z F D S N D c g g x x v x n n x n n ; ; l x n n n ; : x l ",
"; ; ; ; ; r ; ; ; ; ; ; ; ; ; ; d d h 6 h h M B D F L b Z L D n ; x m D Y *.;. . . .@.} } [ 8 x d g x ; d x b F m b N b x ; : ; ",
"; ; ; ; : : - - - ; ; ; ; ; ; ; d 0 ;.>.>.;.:.@.k k D m n A b b m l x q ;.x.3XsXNXBXBXBXBXjX,.g ; ; ; d ; ; ; ; ; ; : : : * * * ",
"; x x ; x x l x x x x x x x n x j >.9XNXNXaXaX9Xx.i.X.0 0 ; x r r x 9 -.aXBXNXNXNXNXNXNXNXhX,.; ; ; ; ; - ; : - * * * * * * = * ",
"x n l x x x x r x n x x x x x n #.m.VXNXNXNXNXNXNXCXqXN.x.9 l r r 0 -.4XNXNXNXNXvXMXNXNXNX4X[ ; ; x ; ; - ; - - - * - * * * * * ",
"; ; x x l 6 ; l ; ; x ; x ; x g =.m.vXNXNXNXNXNXNXNXNXNXdXx.#.g x { n.nXNXNXdX1X:XvXNXNXNX-X| ; ; ; ; ; : - - ; : ; : : - > - * ",
"x ; ; ; ; ; ; ; ; : ; : - - - - 9 z.CXNXNXBXNXNXNXNXNXNXNXxXx.9 0 *.4XBXNXdX*X-XxXNXNXNXxX~ } x ; x x x d ; i x r : - : - : : - ",
"; ; ; : : : : : - : : - ; ; ; l #.q 1XNXNXNXNXVX2X-XpXNXNXNXsXz.9 z.dXNXsX*X2XBXNXNXNXNX-X$.9 : ; ; x ; ; ; x - - * - - - - * * ",
"- : ; - : : : : : : : - ; ; ; ; 7 $.T 9XNXNXNXBXvX3X*X*XaXNXNXn.$.U xXxX*X*XBXNXNXNXNXdXY } 6 ; r x ; ; f ; ; ; : : r : - - - - ",
"; : : ; : ; l ; ; ; r ; r x x ; x $.k ' uXNXNXNXNXNXMX-XK ] pX1Xl.l.4X=X#X3XNXNXNXNXdX*X$.} x d l ; x x ; ; ; ; ; r : : : - - : ",
"- * - - : r ; : ; : : ; ; l ; ; l 7 } k ' uXBXBXNXNXNXNXpX#XF -X-XF ' Q #XBXBXNXMXsX*X-.&.n n x n n x x x n n n r ; ; : : : : - ",
"x n x n N n n b b b b b b b D b N S U *.s ` #X2XpXVXBXMXBXuX%X%XcXBX=XV 1X<X:X<X=XI :.z.L L ( L L L F G G D F F r ; : : - - * - ",
"L K F P L J F F D F K F L F K F D K K l.o.a n.` ` -X1X1X,X1X>XA Q.vX&X/ E.Q.a s :.:.z.~ L Y ( E L L D F L L F A ; ; ; : - - - - ",
"L L L K b D D b b F D D F F N A P D *.o.5.A.r.a p ^ Q Q / ^ a f.I.^.c.a U.oXK.S.9.;.U J Y L K K ( L b D D D F D x l r ; r : - - ",
"b b D D b n D D N K L D K K F H L z.9.y A.t.0.y.] :X` / y.w.Z..XXX.XZ.e.A.L.oX XL.h.O.T ^ _ _ K ^ L L L P K F P b x n x r x l r ",
"F D n n D A D A F D D b n b F P m *.2.y 5.4.B &X2XE.!.!.C.6XyXU.U.XXD.b.w.C.K. X+XL.i.q n V n n x x n n x x x x ; : - - - : - * ",
"A n b b n x n n n b n n n n n c 8 ..3.3.3.B #XE.C.J..XK.r.|.cXyXU.L.a.~._.!.h.L.U.yXaXO.9 ; r 6 6 l ; l x x ; ; ; ; ; - - : : : ",
"d x n x x g x n r x x b b b b n #...4.3.y H ' d.P.XXP.d.D.L.@XdXyXZ.b.`.`._.u.A.yXcX{.r.-.6 r ; ; l x ; ; ; ; - ; - - ; - - - - ",
"n b b b b D D b b b V v n n N n 9 ..4.3.P I A.K.U.(.Y./.0.0.D.{.:XW.`.`.`.!.4.y.-X}.L.+XO.6 n n n n x x x x x x x x x ; ; ; ; ; ",
"n n x n x x n x n v z x r n b c X.8.4.4.p A.J..XP.].dXBXyXG.0.t.!.`.`.[.b.7.[.!.r.L.@XmX>. .n x x n x n x x x l x ; ; x ; ; ; ; ",
"; ; : ; - ; ; ; 6 ; ; r ; ; ; 8 ..4.3.3.4.J.S.A.h.D.H.{.hXdXY.a.'.~.'.eXf.{.'.~.r.4XfX6Xd. .x x n n n g g l ; ; ; ; ; ; ; ; ; ; ",
"; - - - - : - - : ; - - - : : 8 ..y 0.0.0.A.A.D.G..XXXL.H.7XE.`.`.qX0XeXrXeX8Xb.c.E.C.I.d.} n x x n n x x x x x x x x r ; ; ; l ",
"; r x g x ; ; x ; ; ; ; ; r i w ..3.0.r.D.J.(.+XXX.XU.D.C.F.[.8X7XrXeX0X0X8XT._.^.r.P. XA.@.n n n n n x x l ; r x ; x x d r ; 6 ",
"; ; ; ; ; ; ; ; ; ; d x r ; f 8 ..4.p w.e.D.(.K.P.s.1 2 > z.[.rXeXwXeXeX8Xy.o 2 a.S.L. Xr. .x x x x x x 6 l x x x l ; ; l l ; ; ",
"n n x x x x x x d d ; l d 6 7 X.2.s ] G u 3.0.h.e.o ` !   % y.8XeXeXeXeXy.o S z 1 D.(.oXh.@.n g x x g x n n b x x n x x n x x x ",
"b b V Z D A F F D D N Z V H U o.2.a 2X=X6.D.D.J.6.! BX' aX* c c.rXwXeXeX: ;Xz >X. d.(.oX0.} x n x n x x n n x n n n x n x x x g ",
"m b D D D F D F D D D D D D U o.3.a <XpXw.G. XoXs.:XNX) -X& B T.gXkXbXrX^ ^ z 4X3 a..XoX5.} c b n x x n x x x x n x x x l l ; x ",
"N D b b A b D A b b b m H S U X.4.p >XpX6.G..XoXA.6XNX*X  & E.gXbXkXjXkXW & *XlXv.s.(..X7.| m x n x x x x x g x x x x ; ; 6 ; ; ",
"D b n V D b D A D A D F P F s o.4.u ^ <Xy J. X XF.qXmXxX_ ;XgXbXkXjXlXkX7X;XfXrX].7.J./.8.} i ; ; ; ; ; ; ; ; ; ; ; ; ; ; ; l ; ",
"n x x x x x l x l g x x x l 7 X.3.5.p T y G. X.X/.wXnXkXmXbXbXkXjXjXjXjXnXnXbXkX_.7.(.G. .I b N b b D V b b D b b b A b b b n x ",
"; ; - - - : - - - : : : - 6 [ 8.3.y p.y 6.J. X.X/.wXmXlXlXkXmXmXmXmXmXkXkXkXlXkXW.8.J.t.O.T R Y ( L L Y L P L F L L L F D D D D ",
"; ; ; ; ; 6 ; ; ; ; ; d ; 7 X.3.y t t.t.6.A. XoX^.qXkXkXkXgXN.M.N.N.M.gXkXkXbXgXc.u.K.5.;.~ _ ^ L R L ^ L L K L R L L ^ K D F F ",
"x x x x x x r d x n n n b &.X.t R.tXF.t.4.q. XoXd.s 8XkXkXgX<.1.1.1.<.0XjXbXgXm.7 Y.S.o.;._ ~ l.-.l.S S P D L F F F S m P P D b ",
"n n x x n x x x x x n n b X.2.t v.W.s qXq.4.J.XXJ.u y._.eXlXB.1.1.1.'.lXjX0Xn.E ( f.t.o.Y M =.B.0XB.;.&.E Q L F F K F D F K m b ",
": ; ; ; ; ; ; ; : ; : ; ; 8 | >.gX].u.~.> 3.A.XXJ.5.t 1 y._.7X6X7X7X7X].y.s 2X>Xp r.0.| [ [ 9.7Xv._.tX;.L L K D D D D D D D D b ",
"- ; ; ; ; ; ; ; ; : - - ; : 0 i.].y.5 3.O u q./.(.d.4 # # 1 w 1 p 1 @ $ + 6.U #...t.{ { o % !.!.v.qXT.@.D D D F D D A D b n D A ",
": - : - - ; - - * : : : f ; 8 B.rXqXu.u = . 4.t.G.^.!.4 # @ y.!.p.+ $ . W b.;.X.8.y O @ # # 4 +X`.].qX:.Y J F H F K F A D b b b ",
"- - - ; : - : - : * - - : - 6 O.j.s.t . # o 5.q.r.S.^.;X.   = n.6XM   & *XY._.g.t O . . & . 5 /.b.g.i.U F J D D D D D D F D b N ",
"- - ; - - - - ; : ; ; ; d 6 6 w %.1 . @ @ . 5.`.a.e.7.hX%X= X X %X^ X ) dXc.[.!.2   & . @ # 4 j.%.i.>.M m V v n n n x b b b n n ",
"x x ; ; i d x r x x n n n n v c [ + # $ o 1 !.[.`.p.c.VXBXsX&X` * $ ! VXNX1Xv.!.1 # # & @ . + 8.$.q j g 6 d d g x l g x ; ; ; ; ",
"x x x x n x x x x x x x x n x n 0 | 3 t t !._.g.z.u ;XBXNXaX).@Xa.f.^.!.).CXn.u . @ @ @ @ @ [ X.0 n n x x c x x ; x x ; x x ; ; ",
"; x l x x ; 6 x l ; r ; ; x x ; l 8 } X.| ;.-.| } k 1XMXNXOXL.S.D..XA.P.A.(.F.;.| +.-.+.| @.l.Z m b D b b n n n x x n n x x x x ",
"x x l ; d x l x x x x x x x ; x d x 6 i j 6 6 6 #.z.:XBX).(.G.P.P.yXcX^.(.K.L.j.=.I M F F B b D D F S D Z b n b b n n n n b x n ",
"F D D D D N A D D K K F L D b D H L H Q G D F G *.q *XVX+XU..X).R.sXkXpXC.@X).b.*.Q D J D F G D H D D F Z A D A b D Z D D b b b ",
"D D D F F D D K F D A F L K K L L L J L G G P K *.s ` >X{.(.{.9XqX[.~.~.'.>X>Xz.&.D D P G L H D P F D V D L G N b D D D n n n b ",
"D N V b D D D b D F K b D L F F L F D D N D A F U =.~ n.E.7XgXtXtX'.~.8X[.) x.&.m Z D D D B H D D D D A D P D m D m b b b b b x ",
"b b x A D b n b D D D b A F P G P L P H D H D F K *.q u.v.~ R L T > 2 L M g +.m D F B m A A b D m D D D F b m V D D D D D V b Z ",
"b Z F P D b V F A D D F F A D D D D b Z D m D D V $.e + @ u s.C.p.#XpXR.s.6.-.I J D D H L L F P P D D A m D D N n n b b x x x n ",
"N b D b b b b b b D m N b A b Z b b m b b A N b M $.3 t q.0.q.p i ; S p p + , *.I A b V b N D F D F b D b n b b n n n n n x ; ; ",
"b b n D b b b A A F D D F D D D A Z N V A N b x @.9 o O + r.s.$ . # . # . . & , =.b b b b V A N b b b b b n n n b b n n b d - : ",
"b b Z b b D D b b A b b b D D D D D D D D m b q o.2   O > L.6.$ . @ # & . * & , $.N D D D A N N A D V b D D b b n n x b x ; - ; ",
"D b V F F D D D D b D L L D D D G D D L D F F U 9.t.1 C.OXs.$ # . @ @ = * _ f , *.R ( L ( L Y ~ Y L L F P F H F Z D D b D d ; ; ",
"n n b b b b b b b D D F D m b A A b V m N b n b &...a.C.S f x * O , @ f f   4 8 $.A b b b m N N b b n n n n x n x n i d ; ; - - ",
"; ; ; ; - ; : : x l d ; l x ; i 6 i f i i x i z q 3 6 4 p S L : { $.< + p n.}.%.$.x x x ; g l l l x x l x g ; ; ; ; ; x ; x ; ; ",
"; - ; ; ; ; ; ; ; ; x x x r n x x x n n n x x x #.%.'.tX7X5 e { 9 x =.o.'.rXwXi.#.n x b n x x d x x r r ; ; x ; x ; x ; ; ; ; ; ",
"x ; ; ; ; ; ; ; x x x x x x g x x l r l l 6 v x 9 i.wXmXrX-.#.7 v ; l ,.g.eXwX!.O.0 g ; l x ; ; ; ; ; ; ; ; ; ; ; ; ; : ; - ; ; ",
"; ; : ; l ; x ; ; ; ; ; ; ; - : : ; ; ; ; ; 6 0 o.^.jXgX[.} l r l ; d | 2.F./.u.e #.c i x x v g x ; x ; d i ; ; d 6 ; ; ; ; : : ",
"P K P D L L L P D D L L R K D D D H P P L D D &.< f.OX/.4 ;.P L J H J >.+ = > o , | ; g x x x x r g x x ; ; ; ; ; ; ; ; ; : : : ",
"_ ^ _ _ ) ) _ ( ) ) ( ( _ ) R ( ) ) ( _ _ _ _ ;.8 @ % & @ ;._ ^ R E L ;.& @ . @ @ < w x x x g x x x x x x x d x l l ; ; : ; ; : ",
"L L L F D L G R R ( L Y _ _ R L R E _ E Q R T $.@ @ @ @ @ ;.Y P D D D *., @ . . & e | c i ; ; ; ; ; ; x ; x ; x ; ; : ; : : : - ",
"_ ^ L L L L Q R ( _ ( ) ) ^ ( _ _ R ( Q L ~ @.8 @       % ;.^ R ^ ( ^ z.;.. @ L #Xn < 0 l x x r x x x x x ; x x x l r r l r : : ",
"L L F L G ( ( Y L L K F R ^ L R ( L L G ~ T $.. = S Q v # ;.~ ~ ^ ( ^ Y ;.@ ` BXVX4X:.k x x x x x x x x x r x ; ; ; ; r ; - - : ",
"x x x x x x x x x ; ; : ; g ; x d r x ; g 7 { = #XvXNXvXQ | g x x d x x } e %XaXvX3Xx.0 g x x x d ; ; ; l ; : ; : : : - - - - : ",
"x x x l ; ; ; ; l x x r x ; i x 6 g x ; x c | 8 ' -X4X-Xx.} x x x n x 6 6 #.#.x.x.l.X.c x x x ; x i x d r r r x : : : - : - - : "
};
