/* XPM */
static char *rin_81677301849[] = {
/* columns rows colors chars-per-pixel */
"64 64 248 2 ",
"   c #0B121B",
".  c #18191D",
"X  c #04090F",
"o  c #271A1D",
"O  c #28231C",
"+  c #39291A",
"@  c #3C2A0B",
"#  c #0D1424",
"$  c #1B1D22",
"%  c #141A24",
"&  c #0A0D20",
"*  c #251E24",
"=  c #361C23",
"-  c #1D2025",
";  c #1D293A",
":  c #2C2C2D",
">  c #242424",
",  c #252B33",
"<  c #2C3137",
"1  c #353535",
"2  c #36393A",
"3  c #3C3C3C",
"4  c #393737",
"5  c #382D27",
"6  c #561A1C",
"7  c #6D1C1D",
"8  c #4F3115",
"9  c #6C331A",
"0  c #521D21",
"q  c #6E1E22",
"w  c #423D3D",
"e  c #4A3938",
"r  c #593837",
"t  c #512D27",
"y  c #682B2A",
"u  c #792829",
"i  c #653636",
"p  c #783435",
"a  c #6D322D",
"s  c #3E413D",
"d  c #7B4C06",
"f  c #6D4A14",
"g  c #41413E",
"h  c #4D403E",
"j  c #57462E",
"k  c #6A4529",
"l  c #785737",
"z  c #704D32",
"x  c #645326",
"c  c #3E3E41",
"v  c #363948",
"b  c #423F41",
"n  c #4B3F41",
"m  c #533D40",
"M  c #733F41",
"N  c #3E4141",
"B  c #3B424C",
"V  c #3D4854",
"C  c #434343",
"Z  c #4A4545",
"A  c #494946",
"S  c #464649",
"D  c #46494A",
"F  c #4C4C4C",
"G  c #474748",
"H  c #564A49",
"J  c #4E524C",
"K  c #53514D",
"L  c #4D4D51",
"P  c #424D53",
"I  c #534E52",
"U  c #535353",
"Y  c #5A5955",
"T  c #555659",
"R  c #5A5659",
"E  c #56595A",
"W  c #5B5B5B",
"Q  c #585755",
"!  c #4D5357",
"~  c #684848",
"^  c #774647",
"/  c #65544A",
"(  c #655758",
")  c #725354",
"_  c #5E615E",
"`  c #68615A",
"'  c #595D63",
"]  c #515C6D",
"[  c #615F62",
"{  c #5D636B",
"}  c #636363",
"|  c #69696A",
" . c #65656B",
".. c #6A6C74",
"X. c #79767A",
"o. c #79676A",
"O. c #961B1C",
"+. c #831D19",
"@. c #AC1C1C",
"#. c #A71A19",
"$. c #B2191B",
"%. c #9B211E",
"&. c #973613",
"*. c #8D2F15",
"=. c #A9251A",
"-. c #B3251F",
";. c #A33818",
":. c #971E22",
">. c #8A1F20",
",. c #AC1E22",
"<. c #882727",
"1. c #962525",
"2. c #883937",
"3. c #993939",
"4. c #92302C",
"5. c #A72626",
"6. c #B32423",
"7. c #B42A2A",
"8. c #AF362F",
"9. c #C81429",
"0. c #CC2634",
"q. c #C43031",
"w. c #C7051F",
"e. c #894B07",
"r. c #845305",
"t. c #875408",
"y. c #974712",
"u. c #875714",
"i. c #955507",
"p. c #B4591A",
"a. c #986414",
"s. c #9B630C",
"d. c #A66C17",
"f. c #B9781C",
"g. c #AA6F15",
"h. c #86572A",
"j. c #934C31",
"k. c #BA5922",
"l. c #B64933",
"z. c #966426",
"x. c #8E6431",
"c. c #B77A25",
"v. c #AB7236",
"b. c #C37B16",
"n. c #C67D24",
"m. c #D87D2E",
"M. c #823D40",
"N. c #CE3C47",
"B. c #884D49",
"V. c #BA4C4A",
"C. c #967350",
"Z. c #AA7346",
"A. c #B77A45",
"S. c #AF734B",
"D. c #8D796C",
"F. c #A5796E",
"G. c #C5554B",
"H. c #C86957",
"J. c #CA7469",
"K. c #B7852E",
"L. c #CB861C",
"P. c #CB8625",
"I. c #D8942A",
"U. c #DA9734",
"Y. c #D2872F",
"T. c #E5952F",
"R. c #E5A62C",
"E. c #E9A837",
"W. c #EBB23C",
"Q. c #F7B93C",
"!. c #F4A936",
"~. c #DEA730",
"^. c #FDC635",
"/. c #B88853",
"(. c #B9864A",
"). c #958375",
"_. c #B18A6C",
"`. c #CA8B5B",
"'. c #CB9450",
"]. c #D8A84E",
"[. c #E4A74C",
"{. c #FABA44",
"}. c #EFB54C",
"|. c #C78D65",
" X c #C99469",
".X c #D49569",
"XX c #D69B76",
"oX c #CF8B6F",
"OX c #DBA37C",
"+X c #E5B672",
"@X c #FEC445",
"#X c #FEC549",
"$X c #FECA4A",
"%X c #FBC947",
"&X c #FBD44B",
"*X c #F8CB6E",
"=X c #797D84",
"-X c #6E7C89",
";X c #7C8388",
":X c #7087A9",
">X c #858489",
",X c #858C94",
"<X c #939597",
"1X c #B0938D",
"2X c #939BA5",
"3X c #9FA0A2",
"4X c #A4A8AA",
"5X c #A9ACB4",
"6X c #B5B8B9",
"7X c #AFB0AB",
"8X c #B1A389",
"9X c #CE9D93",
"0X c #DBA785",
"qX c #CEAC92",
"wX c #E7B499",
"eX c #EAB190",
"rX c #D1BAAE",
"tX c #EBBAA5",
"yX c #F0A9A6",
"uX c #EB8F93",
"iX c #B7C0BF",
"pX c #EFC690",
"aX c #F3C4AC",
"sX c #F7CAB2",
"dX c #F1D0AE",
"fX c #ECE2B0",
"gX c #B8BDC6",
"hX c #BCC5C6",
"jX c #C5C8C9",
"kX c #CAD2D5",
"lX c #D5D9D9",
"zX c #CED0D0",
"xX c #FAD8C6",
"cX c #EFDDD0",
"vX c #FEEADC",
"bX c #FBE6D9",
"nX c #F1E9D3",
"mX c #D8DEE1",
"MX c #CED9EB",
"NX c #DCE2E4",
"BX c #DCE5F6",
"VX c #E9EAEA",
"CX c #FEF2E6",
"ZX c #F4F4F4",
"AX c #FEFEFD",
"SX c #FAF8F6",
"DX c #F3EFEC",
"FX c #DBE0DC",
/* pixels */
"C b s C C g C C C C 3 C C C C c C A C C C 2.6.,.$.-.6.6.2.H I F A U L I U E U L I G b n n n Z w Z G C Z G 3 3 w C G A A 3 4 N C ",
"3 3 3 3 3 c 3 3 3 3 3 3 3 3 3 3 3 3 C g e 7.jXSXSXAXzX6XV.N.7.p e C F I W ( } U H M 6.7.7.7.7.7.6.i w N 3 C G Q U F L F C 3 4 3 ",
"3 2 3 4 1 1 1 1 1 3 3 3 3 3 3 3 g C C b w 5.hXAXSXAXAXAXAXSXrXV.7.i D C F L F i 6.V.rXVXAXAXZXiX9XV.7.w c s 3 3 3 3 1 4 1 : : : ",
"3 C C C C C C C C C C C C C G C G C C C H @.>XSXAXAXAXAXAXAXAXDX1X7.r 3 3 e u V.9XNXAXAXAXAXAXAXAXSXJ.y 4 4 4 1 : : : : : : : : ",
"C G C C C C C g C G C C A C C C G N w C n @.^ hXAXAXAXlXNXlXDXAXZX1X5.i r 2.F.DXAXAXZXFXFXNXAXAXAXVXV.r v < 2 1 1 : 1 : : : : : ",
"3 3 N C C 3 3 3 3 3 C 3 3 C C C N 3 g s 3 r :.>XZXAXAXNX7X4X,XhXAXSX9X@.<.^ VXlXVX7X;X;X4XlXAXAXAXkXV.y 4 4 1 4 2 2 2 4 1 : 1 : ",
"C w 3 3 3 3 3 3 3 3 3 1 1 3 1 1 3 3 C 3 c Z ,.2.5XZXAXAXVXNX,X[ =XjXzX) #.=XlX3X..=X6XlXNXAXAXAXVX1X7.m 3 c g g s 4 4 4 1 4 4 1 ",
"3 3 3 1 2 4 3 1 1 1 3 1 1 3 3 3 c 3 3 w C C r 4. .4XZXAXAXAXZXzX..{ 6X .o.,X4XT 3XVXAXAXAXAXSX5XF.,.r v 3 3 b 2 1 : 1 1 1 1 : : ",
"1 4 2 4 1 4 4 4 1 1 3 1 3 3 3 3 3 3 3 3 3 3 w @.p { 5XZXAXAXAXAXNX=XD zX,XE ' 3XAXAXAXAXZX6X=X^ @.i b s 3 3 3 3 2 4 3 4 1 < 1 1 ",
"3 4 4 3 2 3 s 3 3 3 3 3 3 C C 3 C G C C F C C Z u 2. .4X6XDXZXAXSXkX{ <XcXY ;XjXZXVXhX=XX.) @.@.r 3 C C 3 3 3 3 2 s 3 4 1 1 4 2 ",
"< 1 1 4 4 3 3 3 3 3 1 3 3 C 3 3 w C C Z C C N i $.-.x.P ....X.4X,XY / c.L.K./ D.D.) z ~ 6.1.p G F Z C C C C G F g 3 3 4 4 4 2 4 ",
"C A C A L G A F F F F F F F U F J U U U T U ~ 6.y.g.L.l z ' ] Y / z.T.$X$X%XI.L.T.k.8.5.^ _ [ W T W Y U Y U Q U g 3 4 4 1 1 1 : ",
"Y Y E Y W Q U Q Q Q R E R E R Q U E R [ } ) 6.y.d.f.f.a._.=XD.(.L.b.!.$X%X$X#XY.I.W.~.p.3./ W } ' R U R _ E U U 3 3 3 3 1 4 1 : ",
"E W R E L U U L L U U U Q U L U Y U R W Y -.y.g.f.b.x.;X2X/.R.Q.L./.fX$X@X$XQ.c.g.@X&X!.p.3.) W } W J U ! U R U C s s 3 2 3 4 2 ",
"F F U U F F U U L Q W J R R Q Q _ } _ Y ^ 6.t.L.K.x.]  X].^.$XU.b.[.zXnX$X@XU.x.A.I.Q.fXcXk.3.R _ W W W U R U Q F C C A g C g g ",
"U U G F J U U L Q U U F F F U E U U R Y 6.y.g.L.g.h C.%X%X$XU.n.E.&X%XhXvXE.K.|. XY.dXmX+XP.-.i C C G Z A C N C 3 4 1 1 1 1 1 : ",
"U G F F G A C G G F G G A G A C 2 3 3 3 $.t.g.t.k C.W.$XR.K.n.U.d.d ~.[.6X).|. X.X).5X].Q.}.p.<.s s c C C b 3 3 2 3 3 4 4 1 4 4 ",
"s C C C C C C G N C S D F F F F C C g p =.r.r.r.a.c.I.P.f.T.U.zXNXOXg.d.c. X X Xv.u.z.U.*XZXaX%.w w 3 3 3 3 3 2 3 4 4 1 1 1 1 < ",
"G F G F F F U F F F L G D G F A C A N 5.r.r.r.s.P.I.{.$X$X%X@XR.pXlX'.d.`.`.0X0Xv.XXK.5XnXqXY.=.i S Z Z C C C C C C C C 3 3 3 3 ",
"A G G A C A G C A C A C N A F C C N A =.e.r.d.U.#X&X%X%X%X&XQ.Q.R.L.A.|.XX0XaXaXeX'.C.8XE.%X{.p.4.A C A C C C C C 3 g 3 3 3 3 3 ",
"3 3 3 1 4 3 3 3 3 3 c 3 3 3 3 1 4 w Z @.e.r.g.P.E.}.Q.{.E.E.d.8 8 l Z.OXaXaXaX0XZ.z 8 n.$X$XQ.k.1.C G C C N 3 3 3 3 3 3 3 s 3 3 ",
"3 1 1 1 4 1 1 1 2 3 1 1 1 1 4 3 3 3 a &.r.r.d t.i.s.g.n.g.f > ] B : z 0XaXtXsX9X8 X * d.#X#X@XY.<.D C C C C C N C w C C 3 3 w c ",
"3 C C C c s 3 C s 3 3 2 3 3 N s 3 w O.e.r.r.r.K x r.t.d.d.: 4X5X;X,XX k tXaXsX_.L ! + d.E.$X#XT.4.S S C C g 3 c C 3 C C b N 3 3 ",
"3 3 3 3 3 3 3 3 3 s g s N 3 3 y u r :.e.r.r.Y =X .f I.Q.[.z AXjX3 < < k wXaXsXF.V ! t c.T.#X#Xm.1.h s C c g C C C N 3 3 N s 3 3 ",
"C A C C C C Z C b w c N 3 C i H.J.@.1.e.r.d ;X5X{ f ~.&X@XXXAXmXc , F.eXbXbXbXxXD.; /.h.d.@X$XR.G.@.u h G Z D G C G C C G C C C ",
"F L L J U U U T J U U L J 3.7.V.eXV.7.i.d u.,XjX:Xl !.$X@XaXvXbXbXbXbXbXbXbXvXvXbXbXxXC.g.{.$XR..X_.8.7.<.D A Z G F C A C C C C ",
"L J U U U U U U U U U U 3.G.0X/./.0X{.t % f ;XhX;Xx Q.%X#XsXvXbXbXCXCXCXCXCXCXCXCXbXCXOXu.I.&XW.c.Z.A.wX,.C g S C C C C C C 3 C ",
"J L J F J L U J F F G I 6.rXxXxX_./.].5 % # : ;XA x.!.^.@XtXbXbXcXtXyXyXyXyXyXtXxXvXCX0Xu.n.{.W.t.v.XXXX@.C b 3 C C C 3 3 3 N 4 ",
"I J G U L J U U U J U U 3.y.S.rXsX*X8   - > . % x i.Y.@X%X/.vXCXyX0.w.9.9.w.w.q.dXSXvXOXt.d.!.Q.s.Z./.J.<.4 4 w s 3 3 s 3 3 3 3 ",
"Z C C b C b c C b g C S m u ;.8.S.P.j # $ $ -   8 r.g.^.#XY.bXSXuXw.0.0.0.0.0.oXsXxXeXA.t.i.U.!.f.a.A.8.~ L U J F L L F F F Z C ",
"4 3 1 4 4 3 1 1 4 1 4 4 2 4 y y ;.9 O % $ $ $ $ O f r.W.$X}.0XCXuXw.0.0.0.0.q.dXdXeX).3Xu.8 g.!.c.&.l.7.Y Q W Q Q R R Q U U U U ",
"c 3 3 3 3 3 3 3 3 3 3 3 b 3 4 e $.9   . $ $ . - # 8 d I.#X^.c.wXwXN.9.0.9.0..XsXqXX.3X2Xd # r !.f.;.B.( Q _ Y R } W R } W U Q T ",
"C C C C C C 3 N C Z G G F F G C z 6.9 + $ $ . % . 8 '.K.{.@Xd.Z.0XaXtXwXyXtXaXqX7XlX,X' > % 5 I.k.6.F I Q U E Q U R U J U R U F ",
"G A C C Z C G C C C G F F F J F L 4.y.r.e.> O # @ `.xXz.I.%Xz.9 v.0XtXtXwXwX/.z { =X .u.+ = O.s.k.4.E ( _ W W R Q W Q U E R L F ",
"3 3 3 3 3 3 3 3 3 2 4 3 3 3 N C c u &.e.#.#.d O 8 '.sXv.s.Q.v.$ j h.z.h.l 8 8 9 9 h.|.v.e.>.u ;.&.2.} ' W _ E U U Q U U U U U L ",
"1 3 3 3 3 2 3 3 1 3 1 1 3 4 3 3 : e u >.y #.r.y.y.x.0XOXu.g.K.%   5 h.v.f % - ^ `.XX|.j.#.q < 0 7 e Q U Q U U U U U L U F F J J ",
"1 1 1 1 4 3 1 1 1 1 1 1 3 3 4 1 1 4 c 1 1 #.&.+.>.%.v.|.S.u.x.B . X O ).F.- U <X|.`.j.$.t 4 1 1 < g _ R R R Q U E R U U U F F F ",
"1 1 2 3 1 1 1 1 1 1 1 1 1 1 1 1 3 w 2 3 3 e q 1 1 u O.Z..XS.f 4X3XE   , D , gXNX4Xj.$.t 3 2 1 1 : C W R E U Q U U U U U U U F U ",
"4 4 4 1 1 1 1 3 3 3 3 3 N C C C G G C A C w b C b w u =.v.oX7XAXAXVX4X] # $ pXAXVX3.p D F n C G C G Q J F F A G F A C F F F G A ",
"C C 3 3 C 3 C C c C C C C G A C C C C C Z C S C C Z Z 1.H v.kXAXAXBXpX[.z.c.P.}.fX5X3.i L Z Z F J C C C 3 C s C C 3 3 C 3 3 3 3 ",
"C C C C G C C C C C C C C A C G G G A C C C C C C C G O./ =XjXAXdXW.!.L.T.rXR.f.{.}.l.@.C D D Z A G G C G C C b N C C w C s 3 3 ",
"3 C s C C 3 c C c 3 g 3 c C w C C g C C s C C C s C C p @.=XlXxX!.Q.P.W.[.SXrX&X#X%X!.7.~ I U U F F U F F G Z Z C C G G C C C C ",
"C C C 3 b C C C C C A C C C 3 s b C C C C C N 3 N C w C $.T hXnX^.@XW.T.7XbXnX7X_.[.{.l./ U ! U U U U U U F F F F G G F G F Z G ",
"U U U U U J F U U E Q R Q U L U U W R W R E U R E R U I 6.M 2XFX+X].Y.XXXX.X|..X).:Xl.j.Q U E U U U U U U F U L F F U J U F F F ",
"L U U U U U U R Y Q L U _ R W W [ W R W Y Y E U U J U U ^ 6.o.8XrXqXxXCXvXsX(.eXqX) 8.) T T R U R U U U U W Q J L U U U G G G G ",
"U F U F U U U L U R E J L W Q U E U Q U L U U U R J U U R ,.j.h.h / ..| | / + z B.8.z U I I U U U U U L U R U L U J F G F F F A ",
"L J A L U F A F J U Q L U Q E R E Y T Q Y U U Q Q W E T U H 5.+ f f u.K.K.<X5X/ h.+.^ J I T L U F U U U Q J J F U U U U J L F L ",
"J J U Q U F U U L U U U U U U U U U F U U L U U F J L I p 5.%.r.f f L.z j P ! s 5 O %.~ W R U E R U J U U L U F F G F F A C C A ",
"J F L J F F F F F U L L J J J I F F F F F F F L F F F p @.d * . x ^.x   . . . % . $ u -.J I U U U U U U F C F F G G G A G g 3 3 ",
"F F Z I F F F J U U I U R U U L J F U F F U F G F U L =.c.a.> l &Xl # . $ . . % * : . :.~ J I F F F F F F F G G F F G A L g 1 3 ",
"F J L U L U L F L J J F J U U I U U U U U U F F L L F 4.Y.~.].}.l ; $ . $ $ . . P ' - 1.~ G J L L U L F U U U F A C A F C 3 1 3 ",
"L F L U Y U U U J L U W R U U Q W U U R U U R U U R R ^ 6.    , V E v $ $ $ . ; w e h 5.) W W } } W Y Q R U U U U U L F U 3 3 3 ",
"F F F F F F F F U U U U U L J J F F F L J F G F H G F D -.0 t o./ + 3 - 0 0 - + C.sXaX7.~ F F L F F G G A G G C G Z s C s 3 4 1 ",
"1 3 3 3 3 1 1 3 3 3 C 3 b C w b C C 3 C C C 3 C C N N s i #. XCXvX X6 7 <.<.q *.S.sXsXH.<.i b w g C C N C g 3 3 3 3 3 3 3 c 3 3 ",
"3 4 3 3 3 3 3 4 3 C C C C C C G C C G C G C C C A C Z i >.j.xXCXdXV.=.p w C a =.4.OXxXOXy.$.n b C C 3 s 3 3 C 3 C 3 C 3 3 3 3 3 ",
"b w 3 3 3 3 3 3 C C C C C C 3 b C g C 3 C b C C N w N 1.p. XAXsXH.@.r 3 3 b b y &.c.'.d.+ @.3 3 3 3 3 3 3 3 3 3 3 3 3 3 3 1 3 3 ",
"3 3 1 3 3 s C 3 3 3 3 3 3 3 1 4 4 3 3 3 3 3 C C 3 C i #.5 U.[.K.y.u c g C C b a 7 O O O $ @.p b C 3 C b s w c 3 3 c 3 3 3 3 3 1 ",
"E W U E W W W R F U W R _ R U U U U U R E Q U U U ^ 5.= $ * > - y 2.W R U T Q M.7 $ . $ % = %.b N N b N C c 3 3 3 3 3 3 3 1 2 1 ",
"} } } | | | } } | | } } | | _ } | | } | | | | | | 3.0 % . $ - 0 4.` [ }  .W ( B.q $ $ % $ o O.a C b C C C C C 3 C 3 3 3 3 3 3 3 ",
"W W W Q Q R E _ } } R _ | } ' W _ } } } _ W } } ) 5.0 .     # 0 4.K R W _ U ' B.7 $ $ . $ > 5 O.3 3 c g 3 N 3 C 3 3 3 3 3 1 1 1 ",
"| } W W R } _ [ | } } | | [ } } } } } _ W } } W j.0 % 1 ' ' : 0 8.} } } W } [ B.q $ . v 4X3XX.8.a C C C s C C C 3 C C 3 3 3 1 1 ",
"W W Q R R } } W _ W R U [ [ _ } } W R R } } } } 3.0 2 gXVXhX( +.^  .} W ' W } ) :.= : X.VXAXNXo.1.C b C C N 3 3 3 3 3 3 3 1 1 3 ",
"C C C C C 3 C C N 3 3 4 3 w 3 g C C C C C C C c r O.) zXAXVXo.:.N C C C g 3 g s a O.<.[ =X4X>X5.a 3 b 3 N 3 4 3 4 1 1 1 1 1 1 1 ",
"C C C C 3 3 C 3 3 C C s C s C g 3 3 C 3 3 C b b c <.M =X<XX.7.a C G g C C C w Z Z m p 1.5.5.1.u C w C w N 3 3 w 3 3 3 1 3 1 1 1 "
};
