/* XPM */
static char *rin_41677301849[] = {
/* columns rows colors chars-per-pixel */
"64 64 248 2 ",
"   c #1B1B1E",
".  c #15171C",
"X  c #080C12",
"o  c #2F1A1C",
"O  c #28241E",
"+  c #36281D",
"@  c #3B2C11",
"#  c #0C1424",
"$  c #141A24",
"%  c #1B1C22",
"&  c #121625",
"*  c #060E23",
"=  c #2D2D2D",
"-  c #282627",
";  c #342C26",
":  c #3C3229",
">  c #353535",
",  c #3C3C3C",
"<  c #353739",
"1  c #292C32",
"2  c #261F23",
"3  c #4D191B",
"4  c #6D1B1D",
"5  c #493113",
"6  c #6F2817",
"7  c #521D24",
"8  c #443328",
"9  c #413D3D",
"0  c #4C3C3B",
"q  c #583837",
"w  c #502D23",
"e  c #772828",
"r  c #683636",
"t  c #7A3737",
"y  c #72322C",
"u  c #711F21",
"i  c #3E413E",
"p  c #5E4217",
"a  c #774C07",
"s  c #7D5107",
"d  c #794B16",
"f  c #775317",
"g  c #694714",
"h  c #41413E",
"j  c #5D4E2F",
"k  c #704D30",
"l  c #7F6834",
"z  c #3E3E41",
"x  c #3C3F48",
"c  c #423F42",
"v  c #4B3F41",
"b  c #523D43",
"n  c #703F42",
"m  c #3F4141",
"M  c #3F4249",
"N  c #434343",
"B  c #494545",
"V  c #454846",
"C  c #494846",
"Z  c #454449",
"A  c #4C4C4C",
"S  c #49474A",
"D  c #514E4E",
"F  c #544646",
"G  c #4E514D",
"H  c #585349",
"J  c #4D4D51",
"K  c #514E51",
"L  c #4E5254",
"P  c #535353",
"I  c #595655",
"U  c #555856",
"Y  c #595956",
"T  c #555659",
"R  c #59565A",
"E  c #56595A",
"W  c #5B5B5B",
"Q  c #69494A",
"!  c #794848",
"~  c #665A47",
"^  c #625959",
"/  c #755550",
"(  c #6F6556",
")  c #5D5C61",
"_  c #555A66",
"`  c #4E596E",
"'  c #615E62",
"]  c #5C6267",
"[  c #5B6778",
"{  c #636363",
"}  c #69696A",
"|  c #64656A",
" . c #6A6C72",
".. c #77777B",
"X. c #747373",
"o. c #5E605F",
"O. c #9F1B1B",
"+. c #831C1F",
"@. c #AD1C1C",
"#. c #A51B19",
"$. c #B11C1D",
"%. c #96380D",
"&. c #913417",
"*. c #A82519",
"=. c #AC301B",
"-. c #A91D20",
";. c #892828",
":. c #962828",
">. c #872E31",
",. c #873536",
"<. c #973535",
"1. c #92382C",
"2. c #AA2322",
"3. c #A72A28",
"4. c #B42323",
"5. c #B52A28",
"6. c #AC3626",
"7. c #AE3531",
"8. c #894A09",
"9. c #94440D",
"0. c #835405",
"q. c #845309",
"w. c #8A5808",
"e. c #945111",
"r. c #AF5319",
"t. c #98610C",
"y. c #9D6413",
"u. c #98621E",
"i. c #8E611F",
"p. c #A56C16",
"a. c #AE741A",
"s. c #B3741C",
"d. c #B8781A",
"f. c #A9660E",
"g. c #915C30",
"h. c #B24B31",
"j. c #8B6838",
"k. c #97693A",
"l. c #98662A",
"z. c #AC7422",
"x. c #B97A23",
"c. c #A46938",
"v. c #B27C3C",
"b. c #A86C2E",
"n. c #C27E1C",
"m. c #C35638",
"M. c #C37B23",
"N. c #864647",
"B. c #8B4E4E",
"V. c #AF534C",
"C. c #91704D",
"Z. c #A46C42",
"A. c #AB7448",
"S. c #B47357",
"D. c #897871",
"F. c #B17274",
"G. c #935F61",
"H. c #D16455",
"J. c #B0881E",
"K. c #C98726",
"L. c #D48A29",
"P. c #D9932B",
"I. c #DB9537",
"U. c #C99534",
"Y. c #E59A35",
"T. c #E3982B",
"R. c #D4A334",
"E. c #EBA339",
"W. c #F2AC3B",
"Q. c #F2A736",
"!. c #F6B639",
"~. c #EEB230",
"^. c #D98919",
"/. c #FDC43C",
"(. c #BB8654",
"). c #AB8A47",
"_. c #97876E",
"`. c #AD896D",
"'. c #C78958",
"]. c #CD9356",
"[. c #F8BA43",
"{. c #EAB353",
"}. c #D69769",
"|. c #CD9270",
" X c #D3A578",
".X c #F0B574",
"XX c #E59D45",
"oX c #FEC544",
"OX c #FEC64A",
"+X c #FFCB4A",
"@X c #FECA47",
"#X c #FBCB54",
"$X c #FCCC75",
"%X c #FFE66B",
"&X c #767B85",
"*X c #6D7783",
"=X c #5E6D80",
"-X c #7A8288",
";X c #86888C",
":X c #8E9093",
">X c #B59090",
",X c #B0A89B",
"<X c #9399A2",
"1X c #9CA2A7",
"2X c #99A4B4",
"3X c #B5B8B9",
"4X c #A9ACAC",
"5X c #A69DA2",
"6X c #DDAB88",
"7X c #CDA790",
"8X c #E1AA88",
"9X c #E7B490",
"0X c #E9BBA4",
"qX c #EFAEAE",
"wX c #DBA5A8",
"eX c #D8C18D",
"rX c #CEC7BC",
"tX c #E8C4A9",
"yX c #F7CAB6",
"uX c #E7CAB1",
"iX c #B8BDC2",
"pX c #DABDC2",
"aX c #BCC4C6",
"sX c #BDC5D5",
"dX c #C6C9CA",
"fX c #D2C9C7",
"gX c #CACDD1",
"hX c #CED3D5",
"jX c #D5D9DA",
"kX c #D3CED2",
"lX c #FAD9C8",
"zX c #FFDFD2",
"xX c #DBE1DD",
"cX c #FEE9DB",
"vX c #FDE6D8",
"bX c #FBF5D7",
"nX c #D7DBE3",
"mX c #DAE1E2",
"MX c #DDECF3",
"NX c #E6E8E8",
"BX c #FEECE2",
"VX c #FAEAE7",
"CX c #FDF3E9",
"ZX c #ECEEF3",
"AX c #FDFDFD",
"SX c #F6F7F6",
"DX c #EDF2EE",
"FX c #FCDFE4",
/* pixels */
"N , N N N , N C N N , N N N z N N C Z C C C A A A T P U T Y P C N P D P T P U A P A m h N N C N N Z C C C , , 9 N Z A B , < N i ",
", , , , , 9 , , , , , , , , , , , , z , z N J P Y Y W A P W P Z , N A P R W ' P S J J , < , , h m m z , N h A U P A A A N , , , ",
", , , , > < > > > , , , , , , , , N N z N N S A K A P A A A S D K h C N C A A A c C Z N , , i N , , , h 9 , , , , , > > > = = - ",
", N N , N N N N N N N N N N C C C C N C C N m N i c S N h , m 9 q e @.#.e , < , c 9 9 b 0 z N , , , , , < < , > = = = = = = = = ",
"N C z N C N N i N C N C N C z C C m , N N N z C m h , h i N N 0 @.F.NXAX7.$.N 9 C r *.7.5.e , < , N , < < , > > = > > = = = = = ",
", , N N N , , z , , N , , z N z c , N , , , N N N N c m h 9 b @.F.NXAXAXgX@.m Z q 3.>XSXgX3.e , , , , , < < > , , , > > > = > = ",
"N , , , , , , , < < , > > , > > , , , N z C N , N C , Z h 9 *.F.NXAXAXAXSXV.t c ;.F.ZXAXAX:X@.c , N N N 9 , h 9 , > > , = > > > ",
", , , > > , > > > , , > > , , , m , , , , C N c m N m c , q 5.gXAXSXAXAXAXgX@.0 e F.ZXNXSX3X#.< , , N , , , N < = > > > > > > = ",
"> , < > < < < < > > < > , , 9 , , , , , , , c N 9 m z N h 4.>XNXAXAXAXjXSXVXS.t 7.pXAXiXZX:X@.z , N , , , , , , < < , , > = > > ",
", < < , , , 9 , , , , , h h N , , C N B A N N N , , N N F 5.dXAXAXAXAXiXSXAXpX:.F.nXAX1XZX..-.9 N , c N , , , , , , , > > > > , ",
": > > < > 9 , < , < < , , c , , m h h V N N c i N N B N 0 2.1XAXAXAXAXaXdXAXZXV.V.SXNX| 3XD.-.N S A N N C N S S h , , > > > , > ",
"m C N C D B A S A A D A A A P A D I U P Y P U I E Y W ^ I 5.;XhXAXAXAXAX;XaXAXdX5XAX:X| 4X) 5.W Y Y R P U U U U 9 , , > < > > = ",
"Y Y T Y Y Y T U U T R U Y U R Y P E U o.| ' ^ ' ) ^ N.5.4.6.T 4XAXAXAXAX:X..hXkX&XNX&X<X;XQ 7.' W W T U { U U D , , , , > > > = ",
"E W Y T J K U A A P P P T U A P U T W W R Y Y ^ ! 5.5.t.w.q.^ &XhXAXAXAXgXE 3X1X .| A ....=.! E { Y J P K P R P N m , , , , > , ",
"A J P P A A P P A Y W P Y R R U W { ^ Y Y W / 4.=.r.d.K.L.K.a.~ *XiXjXNXDX....1X..&X} [ Q 5.| W { Y W W P U U R A C N N 9 C N , ",
"U P S A P P P K P U P A A A P Y L T Y R W Q 4.9.d.E.XXQ.P.P.J.~ Z J _ :X1X1X_ <XnXiX*X1.:.r A C N N C S C N N z , > > > > > > = ",
"A A S A A C C Z A A C Z C S S C < < , , q +.9.p.M.L.K.K.d.t.k [  . .E _ [ _ ) j 2X1X/ r.+.q , 9 c i z h i c , , > , , < < < > , ",
", N C N m m N C m N C S A A A V C Z C B $.9.s.d.x.d.a.d.t.( 1X1X=X~ f g g l.l.K.v.).d.K.r.;.r , , c z , , , , < , < < > > > > ; ",
"A S A A A A J A S S A C C S A S N C N y $.0.d.x.J.d.y.w.H 4XsX,Xz.L.L.L.s.n.I.E.!.oXE.[.Y.r.:.Z C Z C C N N m N N N , N , , , , ",
"C A C N N C Z C C N N C m C A N m m Z :.9.a.d.d.y.0.q.q...iX,XK.W.+XOXE.d.x.E.OX+X+XL.W.OXT.$.t N Z N C C c C N N h N , i , , , ",
", 9 , < > , , , , , , , , , , > < , N #.8.s.p.0.0.q.0.j 4X4X_.Q.+XOXOXK.d.3XbXOXoX+XK.K./.#Xs.$.B C C c m N , , , , , , , , , , ",
"< > < < > > > > > , > , > > > , , z y *.0.q.0.0.0.0.0.D.2X_.Y.OX+X+XI.K.~.@XrXbX+XQ.c.y.$XNXM.4.N S N N N N i c N N N z , , , N ",
"h 9 N , c i , N N , , , , , z N , z O.8.0.0.0.0.q.0.0.,X_.E.[.OX@XI.d.^.P.R.#XgXkXz.}.j.gXeXY.r.>.C C N N N , c N , N N 9 N , , ",
", , , , , , , , , , , N N , , , , , :.8.q.0.0.q.0.0.0.:XY.E.OX[.E.a.$X6XJ.f.K.U._.`.}.C.C./.~.d.@.N N N z h N N N m , , N , , , ",
"C C C m N C C N , , z 9 , N , 9 M h :.8.0.0.0.w.q.s s k.Y.W.E.M.x.T.$XnXbX Xf.y.'.}.|.w.^.eXyXL.#., , N C N A C C S N N Z C z N ",
"A A K A K P P P U P A P P P P P D P 3.9.0.q.0.0.0.w.0.w.y.y.M.K.Y.+X!.{.9XMX_.z.v.}.}.C.,XZX$XY.2.A Z N C A N Z C A N C C m N , ",
"K A K P P U P U D P P P P P P U P Q :.e.q.0.0.0.s q.0.p.f.K.[.[.oX+X@XW.T.].`.].|. X}.j.).{.!.Y.@.N C N C N N N N 9 N C N , , N ",
"A P A G J A P K G A A J P K P U T <.9.0.0.0.0.0.s t.L.P.[.OXoXOX@XW.Y.J.'.'.}.tXyX9XZ.q.a./.[.Y.2.N N z N m N N m N N , , z , , ",
"K K A G D G P P P P P U Y P P U T :.9.0.0.0.0.s C.-Xl s a.U.Y.P.L.t.+ 1 = w ].8XyX6Xc.q.w.OX[.Y.O., , , , , < , , , , , , , N , ",
"C V N N C h , C N z N C N N N c Z <.9.q.0.0.0.k sXSX1X_ q.t.M.M.t.@ ] dXE Z k 0XuX6Xk.q.0.oX[.I.2.S K K J K P A A A P A A A C C ",
"< < < < > < > > > > > < > > , > m <.9.q.0.0.0.f 2XAXxX] z.Y.W.P.p.d ,XAXz NXH (.yX9XS.y q.oX[.Y.5.W o.o.W Y R Y Y W Y R U P A P ",
", , , , , , , , , , , , c , , , N <.9.q.0.0.0.f [ jXnX( a.W.OXK.].Z.rXAX> ] ^ 0XyXlX9Xk s oX[.L.5.o.W o.Y W Y W ] W Y ' Y P E T ",
"N N z C N z N , N N C C A S C C G <.9.0.0.0.0.a H -X1Xi.a.+X@XP.].9XtXAXx X 7XvXBXCXtXg.q.OX!.x.3.Y D P W P E T U R P K U Y P A ",
"Z C N C C C C N N N A A A A A A ! =.8.8.q.q.q.f.s ~ ` f t.W.+X~.}.lXyXBXrX,XvXvXvXBXlXA.q.OXI.t.2.P Y W ' W Y Y T Y U P P R K A ",
", , , , , < , , < , > , , , c N e %.0.0.*.0.d.p.s s f s 0.K.@XoXXXtXVXvXBXBXVXvXvXBXlXZ.q.oXL.8.#.A { W W ) Y T U U P P P K P A ",
"> , , , , > , , > , > > , , , , O.0.%.*.#.w.x.f.s q.w.s 0.a.W.+XP.6XCXcXvXvXBXvXcXVX9Xk 0.Y.f.O.4 N U P P P P P P P K P G A K K ",
"> > > > > , > > > > > , , , < > u #.e e #.x.P.y.0.0.0.0.q.w.K.W.!.{.zXVXBXBXBXBXBX9Xc.d a.P.8.#.: Z W E Y Y P P U R U A K G A A ",
"> > > , > > > > > = > > > > > < , , < O.y.L.p.&.*.0.w.a 8 a a u.'.a.6XlXlXlXlXtX}.c.-.9.a.f.%.@.= N W R U U U U P P P P U P A K ",
"> > > < > > > , , , , , , z z N C C r *.L.p.%.$.9.a g O $ $ & # O g.S.A.Z.A.c.&.6.:.O.8.s.0.@.q c B P D A J A B A C C A A A S V ",
"N N , 9 N z N z , N N C C C C C h V e %.r.%.>.%.a O # $ %     y }.lX8XC.1.:.>.:.r A :.8.y.%.t S J S N N , z , N N , m m i , , , ",
"C N C C N C N N C N N N C N N C A C F t ;.y b *.6 *   .   . 8 '.tXAXqXm.V.;.j Z N Z 2.8.%.>.B C C A B N C N N m c c m i N , , , ",
", m , N z , N z c , , , N z N i h , h i , 9 i e <.1 X X . X : }.8XvXAXqX9X9.>.n A K t *.,.Q P P A A K A A A Z C C N C S N N N N ",
"N c N , m N , N c N C N m N , c , c N N N h q :.X.dXkXhX<X:XX.(.A.0XyXBXyXu.7 1.Q P U Q U P J P P P P P A A S A A A C A S A A C ",
"U P P P P K A U P U T Y Y P J P Y o.Y W R T 4.<.3XAXAXAXAXSX,Xi.g.g.(.0XXX= $ 6 4.^ P U U U Y P U P U U P A P P S G J K K A A S ",
"K P P U U P P Y Y U K U W W R W W W U W Y Q 3. .mXAXAXAXAXAXNX.. .T l l.u.; u.+ 9.<.P Y R R U U P P P K U W Y A G P P K V A S A ",
"P A D J P P P J P U T A P Y T U W P U T K Q <. .jXAXAXAXAXAXDX1X&X| p a   O 5 8 m.>.P P P P P K P T P P P U P K P J G A G A A N ",
"A P C A U A B A P P U A P T E Y U Y E Y U Q 2.Q -XhXAXAXAXAXAX1X.. .:   $ # & f r.k R D G P J T G K P K U J G A P K P P P A A G ",
"A A P R P A A U K K P U P P P P P T D G L P t 3.t B.tXmXmXmXnX1X*X[ f w 5 5 p r.3.P P R W R P R E P P K G K P A A A A S C N N C ",
"P A P A A A A A A P G A K K G K G J A D A D D t #.o g.|.uXuXrX7X`./ k.c.e.).i.6.! A J K K K P U P U G P A C A A C C C C N N , , ",
"A A A A G A G J G U P P P P P P G K D A G D t #.5 a 8 8 F A b 8 5 +.m.k.S.Z.3.,.C A A A A A D D A A A A A A C Z A S A S A m > , ",
"A A A P K K K D K A K A G P P K L T K P P ,.2.g % + 5 t.J.U.U.).` >.,.=.6.=.>.A A A P P P G P G P P A A P P A A Z C C A C , > < ",
"P A A P U P P P P A P W E P P U Y U U Y ~ 2.d % $ & O + + L.{.- - u 4.Q Q / ) W o.) ] ^ o.W W ] ) W Y R R U U P P P A A J , , , ",
"A A A A A A A A J P P U P P A A G A A J F 5.u.* % $ 2 ; I.U.% & # . u r B V A A A A D A A D A G A A A C C C Z C C C N N N , < < ",
"> , , , , > > > N N , , m N , N c , i i B *.y.+ j H z.{.{.1 %   ; ; +.r N h N m N C N N , , m N N N N N m , , , , , , , , , 9 , ",
", > , , , , , , , , , C N N C C N C S C V t $.m.XXU.J.' ` M # j  X'.6.r h N m C N C C C C C C 9 N N , , z , N h z , h h , , , , ",
"N , , , , , , , N C N N N N z , N N h , 9 q >.7.|.D.| 8 3 3 j }.lX8Xh.y , c , m z N , , N , , < , , , , , , > , , , 9 < , > , < ",
", , < , z z N , , , , , , , < > > , , , q +.9.|.zXCXyXh.;.@.g.8XyXH.4.q h N N m , C N N N N N N N , N z , N , , , , , , , , , > ",
"T Y U T W Y Y Y A K Y Y ) Y U P P Y R ! <.3 p $XBX0XA.5.n $.k 8XuXm.! Y U U Y U C , z z N N N N z N h h c , , , , , , , < < < > ",
"| { { } } } | { } } { { } } W { } | G.<.3 % # j.%X[.h.5.5.3 e.I.XXh.N.] { ' o.} D , m N N N N h N N N N C m N h N z , , , , , , ",
"W W ^ U U Y Y o.{ { W o.} | W ' ) / 5.7 % % % %   h.5.N.4.% O - ; u ,.o.W U Y W A < N N , , , , , , , c m , , N , , , , , < > > ",
"| o.W W Y { W ) | { { } } { { | / 5.7 % & % % % . ;.k 5.- % % . . e N.{ ' { { } K , , N N m N , N N N h z N N N h h 9 9 9 , < > ",
"^ W Y Y Y { { ) ^ W R U ^ o.o.o.<.7 % % - - %   u N.| 5.2 % % > < ;.B._ ^ W o.{ A i C N N N C C N N N N N , , , , , , , > > > , ",
"N m C N N N N N m i , > , , , h r 4 2  .3X4X;Xt ;.Z c $.    M 3XiXG.2.0 h z 9 i N N , z , N i c , , , , N , , , < > > > > > > > ",
"N C N z , , , , i N N N N h h N c e ;.:XkXZXmXD.:.N c e 4 7  .4X1X-X<.r N z m C S N N C N N N N N c N m i , , 9 , , , > , > > > "
};
