/* XPM */
static char *exit1677153726[] = {
/* columns rows colors chars-per-pixel */
"64 64 253 2 ",
"   c #1B1416",
".  c #0F0B0A",
"X  c #2B1C1D",
"o  c #271A17",
"O  c #341C18",
"+  c #260E13",
"@  c #2D231B",
"#  c #2A2117",
"$  c #34251D",
"%  c #37271B",
"&  c #372F11",
"*  c #0E1A29",
"=  c #261D22",
"-  c #371E27",
";  c #1C252D",
":  c #1E2533",
">  c #1E2D35",
",  c #2C2C2C",
"<  c #292527",
"1  c #322423",
"2  c #352C2A",
"3  c #3A2C2B",
"4  c #382824",
"5  c #39332B",
"6  c #252C38",
"7  c #352D35",
"8  c #2E3238",
"9  c #353535",
"0  c #3B3433",
"q  c #35353A",
"w  c #3C343A",
"e  c #3C3C3C",
"r  c #373937",
"t  c #2F3020",
"y  c #1A2119",
"u  c #472A1B",
"i  c #522917",
"p  c #532B18",
"a  c #52361C",
"s  c #481E26",
"d  c #462926",
"f  c #443329",
"g  c #4B3429",
"h  c #56392B",
"j  c #433D3D",
"k  c #4A3734",
"l  c #5A3D34",
"z  c #522624",
"x  c #623C34",
"c  c #4A1A18",
"v  c #3E413F",
"b  c #304131",
"n  c #28442B",
"m  c #42413E",
"M  c #494339",
"N  c #594437",
"B  c #594325",
"V  c #764729",
"C  c #68493A",
"Z  c #7A4C38",
"A  c #6B4E38",
"S  c #514A1C",
"D  c #1C2E52",
"F  c #292D41",
"G  c #262C46",
"H  c #2A3549",
"J  c #363542",
"K  c #3E3E41",
"L  c #35384B",
"P  c #293854",
"I  c #363A54",
"U  c #382C4E",
"Y  c #2A2A54",
"T  c #413F41",
"R  c #482A4A",
"E  c #7C3640",
"W  c #3E4243",
"Q  c #36414B",
"!  c #2A4553",
"~  c #374356",
"^  c #2D5350",
"/  c #3C4664",
"(  c #284565",
")  c #434343",
"_  c #4A4344",
"`  c #484947",
"'  c #454649",
"]  c #454A49",
"[  c #4C4C4C",
"{  c #464847",
"}  c #4C504E",
"|  c #51514E",
" . c #494D55",
".. c #534E52",
"X. c #4E5151",
"o. c #545454",
"O. c #5B5B5B",
"+. c #575757",
"@. c #524E4E",
"#. c #7B5446",
"$. c #644F4A",
"%. c #464C67",
"&. c #495468",
"*. c #595A65",
"=. c #4A5674",
"-. c #525977",
";. c #514E6D",
":. c #566476",
">. c #5A656A",
",. c #636363",
"<. c #696969",
"1. c #666669",
"2. c #6E7076",
"3. c #61605F",
"4. c #9E3B3E",
"5. c #A63932",
"6. c #A63A3C",
"7. c #A93834",
"8. c #AE382F",
"9. c #8A5A3A",
"0. c #96623C",
"q. c #A44031",
"w. c #9B3B42",
"e. c #9D3B52",
"r. c #A23B44",
"t. c #A13852",
"y. c #8B5D4A",
"u. c #845949",
"i. c #90594D",
"p. c #AC4951",
"a. c #8A6448",
"s. c #9C6A4A",
"d. c #966646",
"f. c #8A6855",
"g. c #976B53",
"h. c #9A7257",
"j. c #A9764D",
"k. c #AB7656",
"l. c #A97758",
"z. c #B47B5B",
"x. c #B67857",
"c. c #A86D4E",
"v. c #B67F61",
"b. c #B97B64",
"n. c #A77B62",
"m. c #9A7660",
"M. c #C17C5C",
"N. c #38AA3B",
"B. c #3EA550",
"V. c #469E47",
"C. c #499F48",
"Z. c #499A54",
"A. c #479E55",
"S. c #559556",
"D. c #47A24A",
"F. c #41A256",
"G. c #4CA151",
"H. c #43A159",
"J. c #4BB153",
"K. c #5BA56A",
"L. c #CA9C3B",
"P. c #CC9C3A",
"I. c #D29D35",
"U. c #D49A37",
"Y. c #D89F2C",
"T. c #DEA930",
"R. c #B4825B",
"E. c #BA855C",
"W. c #BA9E5B",
"Q. c #B79F5B",
"!. c #BE9F4F",
"~. c #B7A157",
"^. c #B58062",
"/. c #BD8A61",
"(. c #BA836A",
"). c #AF8163",
"_. c #B2A060",
"`. c #C89C4C",
"'. c #D99645",
"]. c #D2AA4C",
"[. c #C48864",
"{. c #CB926C",
"}. c #C49765",
"|. c #CA9474",
" X c #C98D74",
".X c #D4B160",
"XX c #ECC067",
"oX c #3F519B",
"OX c #375498",
"+X c #364E8D",
"@X c #3F5EB2",
"#X c #3D61B4",
"$X c #585992",
"%X c #585893",
"&X c #4E5886",
"*X c #586585",
"=X c #566A8B",
"-X c #656987",
";X c #677395",
":X c #70738F",
">X c #485EAE",
",X c #4665AE",
"<X c #4766AA",
"1X c #4365B2",
"2X c #707CA5",
"3X c #4F78C8",
"4X c #954C96",
"5X c #994A9D",
"6X c #8A5594",
"7X c #895696",
"8X c #935291",
"9X c #914EAD",
"0X c #9B49A4",
"qX c #914EAD",
"wX c #A146A3",
"eX c #A94DA0",
"rX c #AB53B1",
"tX c #9C599C",
"yX c #EB7990",
"uX c #3CBCBA",
"iX c #718796",
"pX c #7684A7",
"aX c #738EAC",
"sX c #4EAFB5",
"dX c #4EAFB8",
"fX c #4CB4B6",
"gX c #51B3B2",
"hX c #50B6BA",
"jX c #4FB4AB",
"kX c #58A4A0",
"lX c #4DCDBC",
"zX c #3BBDC9",
"xX c #46BBC5",
"cX c #48B7D6",
"vX c #58CCCA",
"bX c #8993AF",
"nX c #8FA5B6",
"mX c #B9B7BC",
"MX c #AFB1B0",
"NX c #878993",
"BX c #DAA7A4",
"VX c #BEBAC1",
"CX c #B4B3C1",
"ZX c #B4B8CD",
"AX c #8CA3C3",
"SX c #C3B9C7",
"DX c #B8C3D8",
"FX c #ADC7E3",
"GX c #CAC6D6",
"HX c #C9C7D9",
"JX c #CCD1D6",
"KX c #ECF0FC",
"LX c #D0D0E8",
/* pixels */
") ) e ) ) e ) { ) ) e ) ) ) ) m ) { { { ) { [ [ [ o.O.o.+.+.| ` { | [ o.o.+.o.[ o.] ) T ) ) { ) _ { { { ' T e v _ { ` ' e r T j ",
"e e ) e e j e e e e e e e e e e e j e ) e { o.o.o.+.O.[ @.O.o.` e _ ` o.O.O.,.o.` X.[ e e e e ) e W T e v v ` o.X.[ @.[ ) e e e ",
"e e r r r q 9 r r e q e e e j e e T W j T ) [ [ @.3., ,.' o.[ [ [ ) { ) ' [ [ ` ) _ ` ) e e ) ) K e e j m j ' 8 < T w r r , , < ",
"e ) ) T ) ) T ) ) ) ) ) ) ) { { { { { { ' { j m 0 _ i.s +.K v e K ) e e e e e e ) e e e e e ) e e e e e q J T l i.+ T , , , , , ",
") ` T ) { ) ) e { { _ ) { { T ` ` ) K ) ) ) ) ) + z BXz $.R T ) e m ) ) { { ) e ) e e K e e e e e K e w r e = w.yXs [ 2 , , , , ",
"e e ) T T e e j e e T e e e ) T e e ) e e K m ) O.= s T +.R ) T ) ) ) W T j e { ) ) ) m e e e e e e e e q K ..+ s T ) r q 9 9 7 ",
") e e e e e e e r r j r r q r r e e j T e { ) K ) o.[ o.+.` ) ) { _ ) j ) { { ) K ) ) ) ) m ) ) e j { ) X.O.,.[ ' e 9 r 9 r 9 , ",
"e e e r e r r r 0 q q r r e e e W e e e m { ) m T ) W K O.m | ) W K T T { { { T e e e ) e ) m r e K j ] o.` o.r 8 9 9 9 9 9 r , ",
"9 r r r r r r r r r e 9 e e e e e e e e e e W ) e W j m ) | 2.v ` ` { ' ) ` [ ` ' ` ) ` { ) ) e K ) | ,.<.[ K e r r e r r 9 9 r ",
"e r q e e e j j e e e e e ) j e W ) ) ) [ ) ) ) e e ) ) { [ 3.3.O.` j ) { ` ` ) ' [ { ) m m W T T | O.+._ e e e e e q 9 r 2 r q ",
"9 7 9 r r e e q q r r e e e e e ) ) ] ) ) { j ) ) { ) { ) ) ) O.,.` { { ) ) ) _ ` { T ` } { { { o.o.O.X.) { ' ` j e e r r r w r ",
") { _ ' [ { ' [ [ @.@.[ [ [ o.X.[ o.o.o.+.o.o.+.o.O.,.+.+.+.+.+.<.' *.O.+.,.*.O.O.O.+.+.+.3.3.O.` o.O.o.+.o.+.+.v e e r r r 9 , ",
"O.+.+.+.O.+.o.o.o.o.+.o.O.O.+.o.+.+.+.3.,.3.O.3.3.O.O.O.O.1.1.3.,.+.2.+.,.3.3.o.o.+.+. .*.O.2.,.<.,.o.+.3.+.+.X.e e e r 9 r 9 2 ",
"+.O.O.+.X...o.X.| o.o.o.+.o.X.o.+.o.O.O.+.O.+.O.,.O.O.,.3.O.O.O.+.O.X.2.w  .1.' [ o.:.m.r e <.+.*.O.o.o.| o.+.o.) ) e e w e r r ",
"[ [ o.@.[ [ | o.[ O.O.o.O.O.o.O.3.3.O.+.+.O.O.O.3.*.3.,.,.,.o.O.3.,.,.+.1.:XMXZXLXKXKXKXGX1.Q ,.O.O.O.O.+.+.+.o.[ { ) _ K ) T e ",
"o.o.` [ o.| o.o.o.O.O.o.o.o.O.O.O.O.3.3.,.3.3.,.,.,.O.O.3.o.o.o.o.[ +., bXbX-XNXbXnXMXbXmXDX .W [ [ @.| [ [ [ ) e r 9 9 9 9 9 9 ",
"o.[ [ [ ` ` ' @.{ 1 2 3 3 2 2 2 2 4 4 3 2 4 5 3 3 3 3 5 5 5 5 0 5 0 1 < 0 1 4 5 1 2 3 1 4 2 5 # 5 0 0 f 2 5 5 _ ' e q e r 9 r r ",
"e ) { ) T ) +.d u.c.s.s.d.d.d.d.s.d.s.s.d.d.d.s.d.d.s.z.x.x.x.x.x.x.z.[.z.^.z.x.l.l.x.x.x.).R.(.x.z.z.x.b.x.b.f.5 _ r r 9 9 9 2 ",
"` [ ` [ [ v u  Xb.u.y.d.0.d.d.d.d.d.0.d.0.d.d.d.d.a.s.s.s.d.s.d.s.s.s.s.s.s.k.x.x.x.x.M.c.0.s.c.g.c.s.s.s.s.l.|.BXC M e e e K K ",
"] [ ' ' X.4 n.[.C 1 < X $ w 0 0 r q e w k w j 9 w w 9 8 9 9 r 9 q 9 , X ; < 0 f.(.x.).C , 9 3 7 7 7 q w 8 r $ y.{.[.$ ` e e e e ",
"e e r r @.l n.A < &.;X;X2XP G P Y I H H G I I U I L Q L Q P I / ! I %.2X:X;X%.1 f.(.N ) &.D H G H I L Q P / -.7 a.{.#.[ r K e j ",
"r 9 r 9 j i k.O J =XpX-Xq o.N N S B ^ ^ ^ ! n n b b w R R R s c d 4 H L :X2X-X> a R., &XJ % 1 2 3 k k f 3 4 :.( d {.V 0 e e v e ",
"T j W ) ` i ^.g P ;X~ Q :XBXXX].T..XvXvXvXvXJ.J.J.K.rXrXrXeXp.8.p.p.$XY G %.:XD h ^.w G $ c.g.$.@ 5 g g.z.0.t L h [.V j e T e e ",
"e e e e ' p z.u ~ -.; MXKXGXL.L.].}.sXzXvXfXH.B.N.D.4XqX7X6Xt.6.8.w.1X3X+X; 2.P l R.q P - 0.x q iX;X8 u a.0.0 P k }.V j m T e e ",
"' { _ ) [ i v.d Q ~ >.JXFXmXP.L.`._.jXzXzXjXA.Z.D.S.6XwX7X4Xt.6.8.4.>X#X<XD  .P B ^.J P , #.  AXFXkXnXb f g.q P k {.V j { { T ) ",
"[ @.X.[ } u ^.f ; J VXJXDXSX`.I.Y.~.jXuXzXsXD.N.C.S.6XwX0X4Xr.8.6.w.%X>X<X&XG > B ^.j F 4 Z 8 nXiXiXaX:.4 g.f L k {.V j { T ) e ",
"[ [ X.o.[ p ^.f : J CXHXDXVX`.L.I.W.gXuXxXdXB.D.G.Z.6X5XqX5X6.5.6.w.$X#X,XoXF > l R.0 H u u.  :.nXiXAX:.% d.f ! h {.V M ) m j W ",
"| o.[ } [ i v.f : J mXJXDXVX`.L.I.W.jXuXxXdXB.V.G.Z.6XwXqX4Xw.5.6.4.$X#X1XoXF > l R.q P 4 d.4 ; :.iX;X: A d.5 P k {.V j e e v e ",
"X.o.` @.[ p v.f : J CXGXZXVX`.L.I.W.gXuXxXsXB.V.G.Z.6XwX9X4Xr.5.6.4.%X@X,XoXF > l R.r D 4 0.a.% y , & $.s.0.5 P h {.V j e e e e ",
"{ ) ) m ] i v.f : q CXHXDXVX`.L.I.W.gXuXxXjXA.V.G.Z.6XeX9X4Xr.5.6.4.%X@X,XoXF > x R.0 H 1 i.#.u.#.#.h.s.0.9.r P h {.V _ } [ { { ",
"r e 9 r ] i v.f : J CXHXDXVX`.L.I.W.gXuXxXsXA.C.G.Z.6XwX9X4Xw.5.6.4.%X#X,XoXF > l E.0 H 1 0.f.C o # u d.s.9.q P k {.V _ o.o.X.o.",
"e w e e ] i v.f : J CXHXDXVX`.`.I.Q.gXuXxXdXB.V.G.Z.6XwX9X4Xr.5.6.w.%X#X,XoXF > l R.q P 1 0.B o ~ iX>.g s.9.7 I k {.V _ O.o.+.o.",
"_ ) W _ ` p v.f : J CXGXDXSX`.L.I.W.sXuXxXdXH.V.C.Z.6XwX9X4X6.5.6.4.$X#X,XoXG > B R.w P 1 u.. >.nXaXLX:.u a.w P k {.V l +.+.o. .",
"] { ) { ] p v.f : J mXGXDXVX`.L.I.~.gXuXxXdXB.V.Z.Z.6XwX9X4Xr.5.6.4.%X#X,X&XG > l R.0 H 0 #.; iXiXpXaXkX@ f.q P h {.V _ o.O.@.[ ",
"r e e e ] i ^.f : J CXGXDXVX`.L.I.~.sXuXxXdXF.V.G.Z.6XwX9X4Xr.5.6.4.%X1X,XoXG > l R.9 P 3 Z y nXaXiXnX~ % g.q P h {.V _ o.o.o.[ ",
"7 e e e ] p v.f : J CXGXDXVX`.L.I.W.sXuXxXdXH.V.G.Z.6XwX9X4Xw.5.6.4.%X#X,XoXF > l R.9 H s i.d P aXiX%.* #.d.7 P k |.V T X.` o.[ ",
"r 9 r 9 { i R.f : J CXGXDXVX`.L.I.W.hXuXxXdXA.V.G.Z.6XwX9X4Xr.5.6.4.%X@X,XoXF > x R.r 6 $ h.a.f 8 W % u.v.s.7 P h {.V M @.[ [ [ ",
"r r r r { p v.f : J CXGXDXVX`.L.I.W.hXuXxXdXB.V.G.Z.6XwX9X4X6.5.r.w.%X1X,XoXF > l E.7 %.2 & t u & % p h g & I / g {.V _ o.o.[ | ",
"r r q r ) p z.5 : J CXGXDXVX`.L.I.W.gXuXxXdXB.V.G.Z.6XwX9X4Xr.7.6.6.%X#X,XoXF > l z.1 ;X-.F L H H J 8 U U I pX%.g {.V M [ [ ` ` ",
"T j e j { p ^.f : J CXGXDXCX`.L.I.W.gXuXxXdXB.V.G.Z.6XwX9X4Xr.7.6.4.%X@X,XoXF > N E.1 -.2X-X*XpX2X2XaXaX-XNXAX/ u {.V j e e e e ",
"{ ) ) { ] i ^.f ; J CXHXZXSX`.L.I.~.fXuXxXfXB.V.D.Z.6XwX9X4Xr.7.6.4.$X1X<X+X6 6 N z.< *X*XX.} >.:X:X:X=.*.O.iX%.g {.V j T T T e ",
"e T W j ] i ^.5 ; J CXHXDXSX`.P.I.Q.jXuXxXsXA.D.D.S.6X0X9X4Xr.5.5.w.%X1X<XOXF 6 x ).< :XI +.2.8 -X2X-XL iX' -X&.d |.V T _ T _ T ",
") ) ) e { i v.f ; 7 ZXHXDXSX!.P.U.~.gXuXxXfXF.V.G.S.6X0X0X4Xt.5.7.w.%X#X>XoXG 6 B R.< *X:XQ 6 -X:X2XbX-X8 1.bX/ g |.V T ' [ ` ' ",
"o.o.o.o.} i v.f 6 L CXSXHXCX`.`.U.~.gXuXxXfXA.C.G.S.7XwX7X4Xt.5.6.w.%X@X>X&XG F B z.: -X$X%.;.%./ ;.=.=.-.=.pX%.g  XV _ @.X.[ [ ",
"| o.o.o.} p ^.5 I T *.KXZXVX`.P.I.~.jXuXfXsXF.D.D.S.6X0X9X4Xw.5.5.4.%X#X1XD +.P h E.7 *X&XR %.%.%.%.%.%.%.%.pX/ d |.V M ` [ ' [ ",
"..[ X.[ [ p v.f Q :.< MXKXSX`.U.Y.~.hXuXzXxXF.V.B.S.4XwX9X0Xw.5.8.w.%X3X+X: -XP h v.< *X=X&.=.&.%.&.&.-.=.-.aX~ a  XZ j X.[ [ { ",
"X.X.` | X.p v.4 H ;X/ J :.mXXX].]..XgXlXxXvXG.D.J.K.7X4XtXeXp.5.8.p.&XG : ;.2XH h z.= -X*X~ %.%.%.;.-.&.&. .pX&.u {.C ) o.[ ` @.",
"[ @.+.+.[ p s.O 7 -XbX;XL } N N M M ^ ^ ) ^ n n n 5 q U R R d 4 s d U ;.:XbX=X> x E.= -X;X&.-.-.-.-.-X-.-.-.bXI z {.A j { _ ) { ",
"X.[ | X.W d a.A < Q *X*X=XQ G P Y P U U U R I I U U I P ! P ! ! ( P ~ -X*X:.~ 2 l.(.A 6 =.=.&X-.=.-.-.&X&X*XI , h.[.#.5 { T e e ",
"[ [ [ | 3.O Z f.A 4 = o o # 1 = - , 3 < < - = - 7 < t 2 5 t 2 2 2 5 , @ @ o 0 m.x.l.E.#.= o = 1 1 $ X X - O % f.[.l.h +.[ T 9 e ",
"[ [ @.X.@.$ p y.a.u.Z u.f.d.a.a.d.a.d.f.f.d.i.d.a.d.h.j.j.j.k.k.j.j.k.k.j.k.v.z.x.c.x.E.z.j.j.k.l.k.k.k.n.k.R.R.[.c.. @.' e 9 r ",
"X.X.....+.+.O x #.y.s.l.l.j.l.l.c.l.l.l.l.l.l.n.l.l.z././././././.[./.[.E.[.E.E.R.E.E.R.E.[./.[.[./.E.[.[.[.[.x.h.l 3.@.} j e e ",
"` ` [ [ [  .O.  u N #.Z #.#.#.#.#.#.#.Z #.#.#.Z #.Z Z f.y.y.y.y.a.y.y.y.y.i.y.y.y.y.y.y.y.y.y.y.a.y.y.a.a.g.a.N O @.K ) T e r r ",
"r e K e r 9 e r 3.6 . o o         o +     + o o o o o X X X @ < X X X X = = X o X X X X = X X X @ X X o o . q *.r e ) e e T e e ",
"e r e e e w e e v v   C A o.$.l N N M N k l C $.$.C C C Z #.#.#.u.u.u.#.u.#.u.u.#.u.u.u.u.#.u.f.y.i.f.#.$.  j m ) e e W j e e e ",
") ) e e e e e e W { | & O o   X O . # # # # @ @ O @ # # X % 4 $ 1 $ $ 4 % $ 1 4 1 $ $ 4 % #   @ @ # O X # _ r e r e j r r r e r ",
"e e r e e e { e e e e [ _ < * /   ; ` { ` ` ] [ ' [ ` ` [ ` ` ` ' ' { ` [ [ [ [ [ [ [ [ [ o.6 .  .* * ` ` m e e W e e e e e q r ",
"+.+.+.o.O.O.O.o.} } O.O.,.Q &.Q X 1.o.+.O.o.o.o.o.+.+.o.o.o.O.O.+.+.O.+.+.o.+.+.' e W K ) W X.  F &X6 } K K e e e e e e e r r r ",
",.,.1.1.<.<.1.,.<.<.,.,.8 I Q 8 2.<.,.<.1.<.<.<.<.1.1.<.<.<.1.3.3.3.O.1.,.3.3.1.| e ) ) ) ) m ` 6 P H v { m ) K ) e e e e e w e ",
"O.O.3.o.o.O.O.O.3.,.O.2.W G . ,.O.3.1.,.3.3.3.1.,.O.,.3.O.O.O.+.o.o.o.O.3.+.+.O.` e v _ e e e e ' . :  .o.e e ) e e e e r r 9 9 ",
",.3.O.O.O.O.3.3.1.,.,.e . ] 1.1.1.3.,.O.O.,.1.O.,.3.O.3.O.O.,.1.O.1.,.,.3.3.,.<.X.e e v ) ) ) ) W [ ' . . ) ) ) ) ) e j j e r 9 ",
"3.O.+.+.+.,.,.O.O.O.+.o.; 1.O.3.,.O.O.O.3.,.,.,.1.3.,.1.<.<.,.O.,.,.,.O.O.O.O.,.[ ) { ) ) ) ) { W ' [ ; { e T e e e e e e r 9 r ",
") ) ) ) ) ) ) ) m j e r e ) j v e ) { e ) ) ) e e ) m ) { { ) j m e ) W ) e ) e ) e v K e ) ) T e ) e e m e e e r 9 r r 9 9 9 r ",
") ) _ m e e v e e ) ) v W e ) m W j ) e ) m e ) ) ) m ) ) ) { ) { { ) ) j ) T { { ) ) _ ) ) ) e ) e ) j m e e T e q w 9 r 9 9 9 "
};
