/* XPM */
static char *miku_11677691822[] = {
/* columns rows colors chars-per-pixel */
"64 64 219 2 ",
"   c #060608",
".  c #1D1514",
"X  c #1A1319",
"o  c #140D0A",
"O  c #2B1C1C",
"+  c #261A17",
"@  c #341B1B",
"#  c #290A10",
"$  c #2D231B",
"%  c #2A2116",
"&  c #33241D",
"*  c #38271A",
"=  c #1B1D22",
"-  c #111822",
";  c #071727",
":  c #261D22",
">  c #371E27",
",  c #0D3F3C",
"<  c #1B2530",
"1  c #2C2C2C",
"2  c #292526",
"3  c #362D2A",
"4  c #342626",
"5  c #32342A",
"6  c #292C37",
"7  c #342E35",
"8  c #353535",
"9  c #3A3436",
"0  c #35353A",
"q  c #3B343A",
"w  c #3C3C3C",
"e  c #373937",
"r  c #2F3030",
"t  c #4C2B1B",
"y  c #512917",
"u  c #5E361D",
"i  c #481E27",
"p  c #442A25",
"a  c #473428",
"s  c #5B3025",
"d  c #53372F",
"f  c #423D3D",
"g  c #4E3734",
"h  c #563C35",
"j  c #522624",
"k  c #633C34",
"l  c #3E413F",
"z  c #29442B",
"x  c #42413E",
"c  c #484339",
"v  c #574539",
"b  c #5B462B",
"n  c #684939",
"m  c #7A4B38",
"M  c #74482C",
"N  c #524A1C",
"B  c #262C47",
"V  c #3E3E41",
"C  c #343748",
"Z  c #2A3656",
"A  c #353855",
"S  c #332F4B",
"D  c #413F41",
"F  c #502E44",
"G  c #7C3640",
"H  c #3A4246",
"J  c #2B4752",
"K  c #384254",
"L  c #29534C",
"P  c #3B4A61",
"I  c #197065",
"U  c #434343",
"Y  c #4A4343",
"T  c #484846",
"R  c #464649",
"E  c #454949",
"W  c #4C4C4C",
"Q  c #484847",
"!  c #524D4E",
"~  c #4C504E",
"^  c #51504E",
"/  c #484C55",
"(  c #514F51",
")  c #4F5151",
"_  c #545454",
"`  c #52555B",
"'  c #5B5B5B",
"]  c #595756",
"[  c #664842",
"{  c #7A5243",
"}  c #795448",
"|  c #615956",
" . c #485367",
".. c #52587A",
"X. c #4C5268",
"o. c #5B6166",
"O. c #586374",
"+. c #636363",
"@. c #696969",
"#. c #777A7E",
"$. c #747374",
"%. c #9E3B3E",
"&. c #A63831",
"*. c #A6393C",
"=. c #A73733",
"-. c #A63A2E",
";. c #CC2435",
":. c #81523E",
">. c #9D3B40",
",. c #A13C42",
"<. c #A3394C",
"1. c #8C5E4B",
"2. c #855949",
"3. c #895C53",
"4. c #94574B",
"5. c #8B6449",
"6. c #956542",
"7. c #996443",
"8. c #976748",
"9. c #8B6955",
"0. c #966C55",
"q. c #AD6348",
"w. c #A87657",
"e. c #B47C59",
"r. c #A4754E",
"t. c #A87B62",
"y. c #B67F61",
"u. c #BF7E68",
"i. c #3CA73D",
"p. c #3EA650",
"a. c #469E47",
"s. c #499F48",
"d. c #499A55",
"f. c #459F54",
"g. c #559556",
"h. c #47A24A",
"j. c #41A256",
"k. c #4CA151",
"l. c #40A259",
"z. c #44B04A",
"x. c #629E6E",
"c. c #CA9C3B",
"v. c #CB9B3D",
"b. c #D29D35",
"n. c #D49A37",
"m. c #D89F2C",
"M. c #ECB234",
"N. c #BE865D",
"B. c #BA9F5B",
"V. c #B69F5B",
"C. c #BE9F4F",
"Z. c #B8A158",
"A. c #BB8664",
"S. c #C79C4C",
"D. c #D99645",
"F. c #DAAF4A",
"G. c #C58564",
"H. c #CA936B",
"J. c #CD937A",
"K. c #C89173",
"L. c #CF8D75",
"P. c #C7B563",
"I. c #E2AD5E",
"U. c #ECC067",
"Y. c #3E61B3",
"T. c #575D83",
"R. c #585992",
"E. c #575891",
"W. c #4E5A85",
"Q. c #5B6986",
"!. c #687595",
"~. c #6E718B",
"^. c #954C96",
"/. c #944B9A",
"(. c #895594",
"). c #895696",
"_. c #965297",
"`. c #8A578B",
"'. c #914EAD",
"]. c #9D48A4",
"[. c #944BB0",
"{. c #A146A3",
"}. c #B24CB9",
"|. c #965A9C",
" X c #EB7990",
".X c #2EAD91",
"XX c #3CBCBB",
"oX c #3ABBB7",
"OX c #7485A7",
"+X c #4EAFB5",
"@X c #4EAFB8",
"#X c #4CB4B6",
"$X c #51B3B2",
"%X c #50B6BA",
"&X c #51B4AF",
"*X c #64A1A5",
"=X c #4BDDB2",
"-X c #4DCDBC",
";X c #32BDC4",
":X c #46BBC4",
">X c #47BBC7",
",X c #5FC3C3",
"<X c #828EAE",
"1X c #A7ADAF",
"2X c #BBB9B9",
"3X c #AFB1B0",
"4X c #91ABB8",
"5X c #E5B9A4",
"6X c #E7A1A9",
"7X c #BEBAC0",
"8X c #B6B4C2",
"9X c #BABFD7",
"0X c #C5BACC",
"qX c #B8C2D9",
"wX c #C8C6D7",
"eX c #D4DCDF",
"rX c #FDE6D3",
"tX c gray99",
"yX c #E6EBF9",
/* pixels */
"U U w U D D U Q U V w U U U U D Q Q R Q Q Q W W W _ ] _ ] ] _ R Q _ W _ ] ] _ W _ Q w U U U Q U Q Q U R R f w x U T Q Q w e D U ",
"w w U w w D w w w w w w w w w w w w w w w Q ( ] ] ] ' W W ' _ Q w U W _ ] ' o._ W _ W w w w w U w x f V H l R _ ( W W W U w w w ",
"w w e e e e e e e w w w w w w w w D U w U R W W ! +.1 +.Q ( W W W U Q U R W W T U U T U w w U U V w = = f f W e 2 U 0 w e r 2 2 ",
"D D U U U U w U U U U U U U Q Q Q Q Q Q Q U w w 9 F 3.p ] V V = = U w w w w w w U w w w w w U w w = = ;.= e H h 4.# U 2 1 r 1 1 ",
"U Q U U Q U U D U R U U Q Q U Q W U w U U U x U + j 6Xj F R = s = f U U U , , , , , , , , , , I I I , = ;.= O G  X> W r 1 r 1 1 ",
"w w D U w w w D f V D D w w U D w w U w w f U U ] O p F ' D = ;.= U U , , , , , , I I .X.X.XI , , I I I , s = , i g Q e 9 r 7 r ",
"U w w w w w w w e e w e 8 e e e w w w U w Q U H U _ , I I , : ;.= Q , , , , I .X.X.X.XI I I I .X=X=X.X.X.XI , = , V e e r 8 e 8 ",
"w w w e w e e e 8 e e e e w w w U w w w D Q U w D , .X=X=X.X= ;.= , , , I .X=X=X=X.XI .X=X=X=X=X=X=X=X.X.X.X.X, = 8 8 e 8 8 7 1 ",
"e e e e e 9 e e e e 9 e w w w w w w w w w w w Q V I =X=X=X=X= ;.= , , I =X=X=X=X.X.X=X=X=X=X=X=X=X.X=X=X.X.X=X.XI = w e 0 8 8 8 ",
"q e q w e w V w q w H w f U l w U U U Q W U U U , .X=X=X=XI = ;.= , I =X=X=X=X.X=X=X=X=X=X=X=X=X=X.X=X=X.X.X.X=X.XI e 8 9 8 e e ",
"8 8 8 e e w w w w w e q w w w w V U Q Q U U V U I =X=X=X.X, = ;.= , .X=X=X=X.X=X=X=X=X.XI I =X=X=X=X.X=X=XI .X=X=X.XI e e e e e ",
"U R U Q ( Q E W W W W W W W _ ( W _ _ ( ] _ ] ] I =X=X.XI = ;.s , I =X=X=X.X=X=X=X.XI I q.I =X=X=X=X.X=X=X.XI =X=X=X.X, e 8 7 r ",
"] ] ` ' ' ] ] _ ] ` ] ] ' ] ] ] _ ] ] +.+.o.' +..X=X.X.X, = ;.= , .X=X=X=X=X=X=X.XI q.J.J.I =X=X=X=XI .X=X=XI .X=X=X=X.X, 9 8 r ",
"] ' ] ] W _ _ W ~ _ _ _ ' _ ( _ ] _ ' ' ] ' ] , =X=X.XI , = s , I =X=X=X=X=X=X.XI q.J.J.J.I =X=X=X.XI I =X=X.XI =X=X=X.XI e e e ",
"W W _ _ W W _ _ W ' ' ) ] ] _ ] ' +.o.] ] ] ' , =X.X.XI = s = , .X=X=X=X=X=X.XI q.J.J.J.J.I =X=X=X.Xq.I .X=X=XI .X=X=X.X.X, D V ",
"_ ) W W ) _ _ W ] ' ' _ _ ] ' o.] ' +.' +.+.' I =X.X.X, = s = , .X=X=X=X=X=X.XI , , , J.J.I =X=X=XI q.q.I =X=XI I =X=XI .XI 8 r ",
") W ! W T Q R W U 4 3 3 3 3 3 3 3 3 3 3 3 3 , I =X.XI , = s = , .X=X=X=X=X.XI J.5X5XJ., J.I =X=X.Xq.q., , .X=XI , =X=XI .X.X, 9 ",
"l U U U U U ] p 4.0.8.7.7.8.8.8.8.7.8.7.7.7., .X=X.XI e.= = = I .X=X=X=X=X.XI 5X5X5X5X5X5XI =X=XI J., q.q.I =XI , =X=X.XI .X, r ",
"E R W W W l t L.u.2.5.7.7.6.6.8.6.7.7.7.7.7.I =X.X.X, 8.r.= = I .X=X=X=X.X.XI 5X5X5X5X5X5XI =X.Xq.J.J.J.J.I =XI , =X=X=X, .X, V ",
"W Q R R W 3 t.A.n 4 2 2 & q 9 9 9 w 9 f f , I =X.XI , 6 = = = I .X=X=X=X.X.XJ.J.J.5X5X5X5XJ.=XI J.J.J.J.J.I .XI , .X=X=X, I , w ",
"w w e e ! h t.M 2  .!.~.OXA B Z Z S C C S I I .X.XI K C = = = I .X=X=X.X.XI = = = = q.5X5X5X.Xq.J.J.J.q.q.q..XI , .X=X=X, I , w ",
"e 9 e e x y w.* S Q.OXQ.6 _ v c N b L L , I .X.XI , q F = = = , .X=X=X.X.X= , , , , s q.5X5XI J.J.J.q.s = = I I , .X=X.X, , w w ",
"D D H f T t A.p Z !.K H #.5XU.F.M.P.-X, I .X.X.XI x.|.}.= = = , I =X=X.X.X= I , tX, 1Xs 5X5X5XJ.J.q.s , , 1X= I , I =X.X, , D w ",
"w w w f Q y e.p A W.< 3XyX9Xc.b.D.H., I .X=X.XI , s._.[.= = = = I =X=X.XI s I , 1X, tXq.5X5X5X5XJ.q., tX, tX= , , I =XI , D w w ",
"Q R U U W y y.p C K o.eXqX2XS.c., I .X=X=X.XI , h.g.`.{._.= ;.= I .X=X.XI q., I , , tXJ.rXrXrXrX5XJ., 1X, tXs , , I .XI , U U Q ",
"W ! ( ( ) y y.a < C qXwXqX, I .X=X=X=X.X.XI , i.d.g.`.{.[.= ;.s , I =X.Xq.J.1X, , q.tXrXrXrXrXrXrX5XI , , tXs , , , .XI , U U w ",
"W W W _ W t A.a < e 3X, I .X=X=X=X.X.X.XI , f.i.k.d.).{.'./.= s = I .XI q.5XrXrXrXrXrXrXrXrXrXrXrXrX, , I J.q., , , .XI , f w V ",
"~ _ ^ ~ W y t.a < , I .X=X=X=X=X.X.X.XI , +Xl.s.k.d.).{.'.^.,.= = , .XI q.5XrXrXrXrXrXrXrXrXrXrXrXrXrXrXrX5Xq., , , I , w H x w ",
"_ W W W W y y.a I .X=X=X=X=X.X.X.X.XI XX>X+Xj.h.k.d.(.{.'.^.,.&.*., I I q.5XrXrXrXrXrXJ.;.;.;.;.;.J.rXrXrX5Xq., , , I , w w w l ",
"Q Q U D E y y.I =X=X=X=X.X.X.X.XI , $XXX:X$Xj.a.k.d.(.{.'.^.,.&.*.%., I , q.rXrXrXrXrX;.;.;.;.;.;.rXrXrXrXJ.s , d , , Y W W Q Q ",
"e e e 8 E y I =X=X=X=X.X.X.X.XI , Z.$XXX>X+Xj.s.h.d.(.{.'._.,.=.*.>.R., , s J.rXrXrXrX;.;.;.;.;.J.rXrXrXJ.s = , d , M c _ _ W _ ",
"w w w w E I =X=X=X=X.X.X.X.XI , c.Z.%XXX:X+Xj.a.k.d.(.{.'.^.,.=.*.>.R.Y., , s q.5XrXrXJ.;.;.;.J.rXrX5Xq.s = = Z g H.M Y ' _ ' ] ",
"Y U U U I =X=X=X=X.X.X.X.XI , c.b.B.+XXX:X+Xl.a.d.d.(.{.'.^.,.-.*.%.R.Y., , , ` s q.J.5X5X5X5X5XJ.q.s = = = 0 Z g H.M c ] ] ( W ",
"W R U , .X=X=X=X.X.X.X.X.X, S.v.b.B.$XXX:X+Xl.a.s.d.(.{.'.^.,.&.*.%.R.q.J.J.q., ` ` s s s s s ` , s OX= = 9.0 A d H.M Y ] ' _ W ",
"e e w I =X=X=X=X.XI .X.XI 7XS.v.b.B.$XXX:X+Xl.a.d.d.(.{.'.^.,.&.*.%.q.5X;.rX5X, , #.#., I , I s , OX4XK * 0.e Z g H.M Y _ ~ ! W ",
"8 w w .X=X=X=X.XI .X.X.X, 7XS.c.b.B.$XXX:X+Xp.a.k.d.(.{.'.^.*.=.*.%.J.5X;.rXrXI #.I , I .X, #.s 7.q. .= m 5.e A d H.M c ( W _ ( ",
"9 8 , .X=X=X=XI I .X.XI qX2XS.c.b.B.$XXX:X+Xj.a.k.d.(.{.'.^.,.=.*.%.J.J.5X5XJ.I 1X1X#.#.I I q.5X5X5Xq.5.y.8.1 q.5X5X5XY ( W W W ",
"e e , =X=X=X.XI .X.X.X, qX0XS.c.b.Z.$XXX:X+Xj.a.k.d.(.{.'.^.,.=.*.%.q.J.J.J.I , 1X1X1X#.= , 5XrXrXrX5Xu = , 5X5Xs s q.c _ _ W ^ ",
"e e I =X=X=X.XI .X.XI wXqX2XS.c.b.B.$XXX:X+Xj.a.k.d.(.{.'.^.,.=.,.*.R.q.I I = = = #.= = = I 5XrXrXrX5X= = , q.5Xq.5X5Xc W W W T ",
"D w I =X=X=XI I .X.X, wXqX2XS.c.b.B.$XXX:X+Xj.s.k.d.(.{.'.^.,.-.*.%.R., = = = = = = = = = .X5XrXrX5Xq.. = I s 5Xs s q.f f w w e ",
"Q U I =X=X=XI .X.XI , 0XqX0XS.S.n.Z.&XXX:X#Xp.a.k.d.(.].'.^.<.=.*.>.E.= = = = = = = = = = .Xq.5X5Xq.s = = I q.s q.5X5Xg U H f w ",
"w D I =X=X=X, .X.XI 8XwX9X0XC.n.v.Z.#XXX:X#Xf.a.a.g.).].'.I I -.&.%.` ` = = = = = = ` ` ` .XI q.q.s = = = I q.s s q.s f R D U D ",
"U H I =X=X=X, .X.X, 8XwX9X7XC.n.n.Z.$XXX:X#Xj.h.h.g.).]..X, , I , ` #.#.= = = = ` ` q.` q., .Xs s = = = = I s q.s s M D W W T R ",
"] _ , .X=X=X, .XI , 2XwXqX7XS.S.n.Z.$XXX:X$Xf.s.k.g.)..X, ^.<.= , #.1X1X1X= = = ` ;.` ;.= = I , = = = = = , , P a L.M Y ! W W W ",
"! _ , I =X=X, I I D ..yXqX2XS.v.b.Z.$XoX:X+Xf.a.k.g.(.=X, _.= = , ` 1X1X1X#.= = = = = = = = , , = = = = = = ,  .p K.M c W Q W W ",
"_ ^ ! I .X=XI , I @.< 3XyX0XS.n.m.Z.%XoX>XXXj.h.z.g._.=X, = = = = I #.1X1X1X1X#.#.#.#.` , I = = = = = = X ..OXP a H.m x W W W U ",
"W ^ R , .X.XI , I ~.P e O.2XU.D.F.P.,X-X,X>Xk.z.z.x.`._.=X, = = = = I I 1X1X1X1X1X#.` , , I I ,  .X.X.X. .X.OXX.t H.n Y _ W W W ",
"! ~ _ , I .XI , , T.<X!.K ~ v h c c L L H J z z z 5 0 q I =X=X.X.XI , , I 1X1X1X#.#., = , , I , ..T.Q.Q.....<XD j H.n c R U U R ",
"W W ) W I .XI , $ K Q.Q.Q.C B Z Z Z A S S S Z A F S Z Z I = = = = = = = = I I #.#.#., = = , , ..X.....W.W.T.K r 0.G.{ 8 Y U w w ",
"( W W _ , .XI , n 4 : X + 2 $ 2 > 2 > > : i 4 4 6 2 5 5 , , = = = = = = = = = I I , = = = = = , > O O O @ @ 4 9.A.e.d ' W D 8 w ",
"W W W ^ ^ , I 1.5.2.{ 2.0.8.5.5.8.8.8.1.9.4.7.4.8.8.r.w.w.I .XI = = = = = = = = = = = = = , I , w.w.w.w.t.e.e.A.N.r.o T R w 8 9 ",
"^ W _ _ _ _ , k { 6.7.w.w.r.w.w.w.w.w.w.w.t.w.t.w.r.e.A.N.A.I =X=X, I I I , = = = = = , I I I A.N.N.N.G.A.G.G.e.0.n | ! W l w w ",
"T W W ( W W +.. * v } m [ } } } { { { m { { { m { m m 5.1.3.1., , I .X=X=X=X, .X.XI , q.J.q.5.1.5.5.1.1.5.8.5.h @ ^ U U U w e e ",
"e w w w e e 0 w +.r o + % + X X + + X X X X O O + + + O O > : $ O q.5X5XJ.q., , , s J.J.J.q.: @ O O O O + o 0 o.e w w f w w w w ",
"w 9 w w w w w e l l . n n [ v v v v b v d g n [ [ [ n n n } 2.} } s 5XrXrXq.2.2.} , I I I , 3.9.3.3.5.{ [ . V l U w l H q w w w ",
"U H w w w w w w U U ] * % + + : % o . $ $ $ $ % + $ $ $ % * 4 * 4 , I .X.XI 4 * 4 = = = = X o 2 $ % & @ $ Q e w w w w e w e w w ",
"w w 0 w w w U w w l w W Q 2 ; P X = W E E E W W Q W W Q W W T W W = = = = = W W E = = = I = 1   / ; - W W x w w l w w w w w e e ",
"] ' _ ] ' ' ' ' W ~ ' ' +.C  .K : +.] ] ] ] _ _ _ ] _ ] _ _ ' ' _ = = = I = ] ] Q w = = = = = X B W.6 ^ V V w w w w w w w e e 8 ",
"+.+.+.@.@.@.+.+.@.@.+.+.0 C H 6 $.@.+.+.@.@.@.@.@.+.+.@.+.@.+.+.+.= = = = = = +.! w = = = = = = 6 Z B x U x U w U l w w w w e q ",
"' ' ' ] ] ' ] +.+.+.' $.E B   @.' +.@.+.' o.+.+.+.' +.+.' ' ' ] ( = = = = = = ' W w = = = = .X= <   < / _ w w U w w w w e e e e ",
"+.+.' ' ] +.' ' +.+.+.w   / @.+.+.+.+.' ' +.+.' +.+.' ' ' ' +.+.+.= = = = =X= = W w = = = = = = = = E   o H U U V U f D D w e e ",
"' ' ] ] ' +.+.' ' ' ] ] = @.' +.+.' ' ' ' +.@.+.+.+.+.+.@.@.+.o.+.= = = = = = = = l , = = = = = = = ~ 2 Q w U w w w w w e 9 e q ",
"H x R H U U U U H w w 9 w V l l U U U w U U U w w U Q R Q U U w w , I = = = = = = U w , , I I I I , w w f w w w e e e 0 8 8 8 e ",
"U Q U x w w w w x U U l U f U x w U U l U U w U U U U w U Q Q U R Q , I .X.X.X.XI U U Q U U U f x H U l U w w D e e e 8 8 8 0 e "
};
