/* XPM */
static char *result[] = {
/* columns rows colors chars-per-pixel */
"64 64 206 2 ",
"   c #22262D",
".  c #22252C",
"X  c #24272F",
"o  c #272C34",
"O  c #2A2F38",
"+  c #2B303B",
"@  c #2B313C",
"#  c #2A303A",
"$  c #2B313B",
"%  c #2A2F39",
"&  c #292E38",
"*  c #282D37",
"=  c #282D36",
"-  c #272C35",
";  c #262B34",
":  c #252B33",
">  c #242931",
",  c #242930",
"<  c #24282F",
"1  c #242830",
"2  c #242831",
"3  c #252932",
"4  c #2B323C",
"5  c #2B303A",
"6  c #252931",
"7  c #23262E",
"8  c #21242A",
"9  c #22262C",
"0  c #272B34",
"q  c #292E37",
"w  c #282E37",
"e  c #272D36",
"r  c #262A33",
"t  c #262A32",
"y  c #23272E",
"u  c #24272E",
"i  c #2A303B",
"p  c #282D35",
"a  c #292F39",
"s  c #292F38",
"d  c #282C36",
"f  c #282C35",
"g  c #21242B",
"h  c #272B33",
"j  c #262B33",
"k  c #262A31",
"l  c #252930",
"z  c #23272F",
"x  c #21252C",
"c  c #21252B",
"v  c #2C323D",
"b  c #2C333E",
"n  c #272D35",
"m  c #262A34",
"M  c #252A32",
"N  c #22272E",
"B  c #2C323C",
"V  c #2E343F",
"C  c #252A33",
"Z  c #22262E",
"A  c #23272D",
"S  c #2D343F",
"D  c #2A3039",
"F  c #20242A",
"G  c #202329",
"H  c #1F2228",
"J  c #1F2328",
"K  c #2E3440",
"L  c #313845",
"P  c #2F3540",
"I  c #2C323E",
"U  c #2D333F",
"Y  c #202228",
"T  c #1F2128",
"R  c #1F2127",
"E  c #1E2126",
"W  c #1D2025",
"Q  c #1D1F24",
"!  c #1D2024",
"~  c #252830",
"^  c #2F3541",
"/  c #333A48",
"(  c #303743",
")  c #2D333E",
"_  c #202229",
"`  c #1E2026",
"'  c #1C1E23",
"]  c #1D1F23",
"[  c #1E2025",
"{  c #2F3642",
"}  c #333B49",
"|  c #313744",
" . c #272C36",
".. c #2C333D",
"X. c #1F2227",
"o. c #1E2125",
"O. c #1E2024",
"+. c #1F2126",
"@. c #2E3541",
"#. c #323A47",
"$. c #23262D",
"%. c #22252B",
"&. c #202328",
"*. c #2D343E",
"=. c #23282F",
"-. c #20232A",
";. c #1F2329",
":. c #232830",
">. c #262C34",
",. c #2A2F3A",
"<. c #1C1E22",
"1. c #1E2227",
"2. c #303844",
"3. c #252A31",
"4. c #1E2127",
"5. c #1C1F23",
"6. c #1B1E22",
"7. c #313946",
"8. c #252B32",
"9. c #343C4A",
"0. c #343C49",
"q. c #333B48",
"w. c #313945",
"e. c #282E38",
"r. c #282E36",
"t. c #2C313C",
"y. c #2A313A",
"u. c #303744",
"i. c #2E3540",
"p. c #2D333D",
"a. c #262B32",
"s. c #2A313B",
"d. c #252831",
"f. c #323A48",
"g. c #323946",
"h. c #313844",
"j. c #2F3743",
"k. c #2F3643",
"l. c #2D3440",
"z. c #343B49",
"x. c #333A47",
"c. c #21242C",
"v. c #2F3641",
"b. c #323A46",
"n. c #303843",
"m. c #242A31",
"M. c #22252D",
"N. c #353D4C",
"B. c #343D4A",
"V. c #333C4A",
"C. c #323B48",
"Z. c #262C35",
"A. c #363E4C",
"S. c #373F4E",
"D. c #363E4D",
"F. c #353E4C",
"G. c #343D4B",
"H. c #333C49",
"J. c #323947",
"K. c #293039",
"L. c #292D37",
"P. c #303643",
"I. c #363D4C",
"U. c #2B323D",
"Y. c #2E3641",
"T. c #353C4B",
"R. c #353D4B",
"E. c #333B47",
"W. c #2F3742",
"Q. c #2E3642",
"!. c #313A46",
"~. c #353F4D",
"^. c #353E4D",
"/. c #363F4E",
"(. c #363F4D",
"). c #2D323E",
"_. c #313A47",
"`. c #313745",
"'. c #2D3540",
"]. c #323945",
"[. c #303845",
"{. c #353D4A",
"}. c #2F3542",
"|. c #2D323D",
" X c #2C323B",
".X c #2B313A",
"XX c #2E3542",
"oX c #303642",
"OX c #22242B",
"+X c #303742",
"@X c #313846",
"#X c #343C4B",
"$X c #212429",
"%X c #343B48",
"&X c #343B4A",
"*X c #2E333F",
"=X c #20242B",
"-X c #202429",
";X c #24282E",
":X c #1B1D22",
">X c #272B35",
",X c #282D38",
"<X c #1D1F25",
"1X c #353E4B",
"2X c #292E39",
"3X c white",
/* pixels */
"    . X o O + @ # # # # $ $ # % & & * = - - ; : > , < < 1 2 3 - # 4 @ $ 5 % % & * = = o 6 7 8 9 0 q w w e - ; ; r t 6 6 1 1 y y ",
"  . . u o % @ 4 $ i # # $ 5 % % & q = p - - ; r 6 , < < < 1 6 ; * a s q = d - - 0 f s & - 1 g . h q w = - ; ; j t k 6 l 1 z y y ",
"x c 8 y f 5 v b v @ $ $ # # % s & w e n o 0 m r 6 l 1 < z z < 1 6 M 6 , 1 z y N z ; B V $ - 9 . j = = - - ; C M M 6 l < < y Z   ",
"c 8 8 A f + b S b v @ $ # D s s w w e n o 0 r r 3 6 1 1 y y y   9 . c g F G H J F M K L P O y . r = - - ; j M M 6 l < < y y     ",
"g 8 8 A f + I U I v @ $ # # s s w w = p o 0 r r 3 6 1 1 z y   c G Y T R E W Q ! E ~ ^ / ( 5 y . r = - - ; ; t t 6 l < < y A   9 ",
"g g 8 y f + I ) v B $ $ # D s s w w = p o 0 r t 6 6 1 < y     g _ R E ` W Q ' ] [ 1 { } | + y . t = - - ; j t t 6 6 1 < z y   9 ",
". x g y  .# v ..v @ $ # # % s q w = = - o j t 6 6 1 < y y     x g G X.E o.W Q O.+.1 @.#.( # z x M n - o ; r t 6 6 6 l 1 1 z y A ",
"1 < X 6 = # $ $ $ # a s & q = p - o ; r M , < z y $.9 c g x y > t 6 %.&.J H &.G 8 6 ..{ *.s =.  6 ; j t 3 6 1 1 l 3 j 0 r M 6 6 ",
"e e - f q s O O & w = p - o j t 3 6 1 < 7 . g -.G _ H +.o.;.2 & S v M . . Z :.1 , j s D q >.1 y 1 6 1 < z y     < r & # ,.a & w ",
",.% s & & & q = = - o j j M 6 , 1 =.y   g -.H R R ` [ Q <.1.M v #.2. .y z > ; - >.o - o j 3., < 1 z y     . c x y j # b v @ $ $ ",
"+ # % O & & * = - - ; j M M > , =.=.y . 8 G H 4.` [ Q 5.6.1.M ) } 7.= y =.3.o = - o ; j M 6 , 1 =.z Z   . x 8 c y j + ) b v B B ",
"+ + ,.% & q = = - o j j M 3., , =.=.y . 8 H 4.E [ [ Q ' 6.1.8.*.9.#.* y =.M - = - o j t 6 6 , , z y     . c F c y ; + ) b b v B ",
"+ + ,.% & q = = - o j j M 3., , =.=.y . 8 H 4.E [ [ Q ' 6.1.8.*.0.#.* y z 3 - = - o j t 6 6 , , z y     . c F c y ; + ) b b v B ",
"+ # % O & & * = - - ; j M M > , =.=.y . 8 G H 4.` [ Q 5.6.1.M b q.7.e 7 z 6 0 f o o ; j M 6 , 1 =.z Z   . x 8 c y j + ) b v B B ",
",.% s & & & q = = - o j j M 6 , 1 =.y   g -.H R R ` [ Q ' 1.M v #.2.-   z 6 ; - ; ; - o j M , < 1 z y     . c x y j # b v @ $ $ ",
"e e - f q % % % s q = n - ; j M 3 6 1 z $.. g -.G Y X.+.[ G M @ w.2.a r ; - * e.* e.% % r.j < y 1 6 1 < =.y     < r & # ,.a & w ",
"1 1 X 6 = 5 t.B $ y.% s e.w e - - 0 j t 6 1 X y $.  . c 8 . M # u.7.i.p...b b b I U @.i.@ n y 9 6 ; j a.M 6 1 1 l 3 j 0 j C 3 3 ",
"x c g 7 0 & 5 $ # # i $ @ s.# D % s q r.p - 0 j t M 3., < d.o $ u.f.g.L h.u.j.k.{ ( L ( ) w y . M - o o j t 6 6 6 , 1 < X y 7 Z ",
"F G G g z M 0 0 j - + ) i.@.l.S ) b v 4 $ $ 5 D s s w = - = % U g.9.z.q.x.#.g.7.w.L L k.) q 1 y t o o j M M > , 1 =.y     . . c.",
"8 -.G -.x 7 y y 7 M $ v.w.b.w.2.u.j.{ v.^ i.V *.) ..v @ + $ v @.7.q.q.f.b.7.w.h.n.( { K v s j M o n o >.j : M m., < z 7 $.M.. . ",
"9 . x c c c g 8 -.1 t.L 9.N.B.V.} C.#.#.g.L h.u.( { v.@.K K @.{ ( u.u.k.{ @.i.K V ) ..v $ # s & s s w r.e n Z.>.j t 6 d.1 X z y ",
"t M 6 > 1 z A   . r ) x.A.S.D.F.G.B.V.H.q./ J.g.L L u.( { { { { { v.@.i.l.S ) p.v B $ $ @ v ) S ) ..B 4 $ s.# K.s & L.= f - ; ; ",
"@ + 5 % a & w = d 5 P.z.I.D.F.G.B.0.H.q./ #.g.w.L 2.u.j.{ ^ ^ @.^ ^ v.@.i.l.S ) b U.4 4 ) @.L J.7.L 2.( j.{ Y.@.i.V *.) v t.@ $ ",
"( P.{ ^ @.K S ) ) K L z.T.R.9.H.q.E.#.b.7.7.w.2.n.j.W.Q.@.K K K K i.{ ( ( k.{ @.i.S S S K ( #.} q.#.#.7.w.2.2.j.W.v.^ i.S U S S ",
"H.H.q.C.#.!.w.L | h.g./ / x.J.g.L h.u.u.2.2.( { v.@.i.l.S ) ) v B ) j.7.#.#.b.w.h.u.( j.j.2.w.g.L h.u.( { v.@.i.S *.b v @ 4 v b ",
"~.^.F.G.B.9.H.q.x.#.#.#.g.w.L u.( { { { { W.{ v.i.i.S ) b v B $ $ b ( f.9.9.0.q.x.g.g.L L 2.h.( ( { { @.i.S S b ..B @ $ # # @ v ",
"/.(.D.F.R.B.9.0.q.x.#.#.7.L 2.u.k.{ @.@.{ { v.v.i.i.S ) v v @ $ + ).u.q.9.R.0.0.q.x.b.g.L h.u.( { { @.@.l.S b b v B $ + # # @ v ",
"/./.D.D.N.R.9.9.} q.#.b.w.L u.( { { @.@.{ { v.v.i.K ) ) v v @ @ + ).2.q.9.R.9.0.q.q.#.b.w.L ( ( { { @.i.S S b ..B B $ 5 % # t.v ",
"/./.D.D.N.R.9.9.} q.#.b.w.L u.( { { @.@.{ { v.v.i.K ) ) v v @ @ + ).2.q.9.R.9.0.q.q.#.b.w.L ( ( { { @.i.S S b ..B B $ 5 % # t.v ",
"/.(.D.F.R.B.9.z.q.x.#.#.7.L 2.u.k.{ @.@.{ { v.v.i.i.S ) v v @ $ + ).u.q.9.R.0.0.q.x.b.g.L h.u.( { { @.@.l.S b b v B $ + # # @ v ",
"^.^.F.G.B.9.} / x.#.#.#.g.w.L u.( { { { { W.{ v.i.i.S ) b v B $ $ b ( f.9.9.0.q.x.g.g.L L 2.h.( ( { { @.i.S S b ..B @ $ # # @ v ",
"H.H.q.f._.7.L `.u.h.g.#./ x.#.g.L h.u.u.2.2.( j.v.Y.i.'.S *.) v B ) j.7.#.#.b.w.h.u.( j.j.2.w.].L h.u.( { { Y.i.S S b v @ 4 v ) ",
"( j.{ Y.i.l.U ) ) i.w.} T.R.9.0.q.E.#.b.7.7.w.[.2.j.W.{ v.i.i.K K i.{ ( ( k.{ @.i.S S S K P.#.} q.#.J.g.7.w.2.n.j.{ @.i.l.S S V ",
"i.i.S S b v @ @ $ ) L 9.N.A.R.{.0.0.q.q.#.g.7.L 2.( ( { v.@.@.@.^ ^ v.@.i.l.S b b v 4 4 ) { f.9.H.} / x.g.w.2.( k.{ @.i.l.S S V ",
"Q.Y.@.i.V ) ).v B S L } R.R.{.0.0.q.q.#.g.L L u.( { { @.i.i.K @.}.{ @.@.l.S b b v B $ $ |.^ J.H.H.q.x.g.( v.i.S ) ..v 4 $ @ v ) ",
"7.w.h.2.( { ^ i.i.v.7.q.0.0.q.E.#.b.7.L u.( k.{ @.i.l.S b b U K v.{ @.@.S S b b B  X$ $ v i.L f.#.b.w.P.) .Xs * = p - ; j - % $ ",
"R.G.B.0.q./ #.g.L L 7.b.!.7.w.h.2.u.( { ^ @.K S ) b v U.@ $ 4 ) @.{ XX@.l.S ) ) v B $ $ B S ( L L u.j.U w 3.y . %.g g -.Y . 0 & ",
"R.G.B.H.#.w.2.( { ^ i.i.S S @.{ 2.2.( oX^ @.K S ) b v 4 @ $ 4 ..K @.K S S ) b v B $ $ $ $ b ^ u.h.h.( S & M y M.. OXg -.Y . 0 & ",
"w.w.[.j.S v # a & & * = - w @ @.7.q.#.g.h.( { @.@.l.S ) ) v v v ..v v v v v v @ + # % % D $ K ( b.E.#.2.K 4 ,.& q = f 0 r - a + ",
"$ $ $ @ 4 $ # a & q * = - w @ { #.0.q.g.+Xi.) v U.@ $ # # % s q = = s # v S S U b v B t.B p.P | x.0.q.#.2.k.@.K ) $ & = f f * e.",
"    y o b ( ( ( { ^ i.V U S { 2.#./ #.( v & o r M 3 6 ~ < u $.. g 9 3.& V u.w.g.L | ( oXW.( h.].#.#.#.7.L u.u.}.) D j < y y y y ",
"! [ X., S q.0.9.q./ #.g.w.L w.7.#.g.@X@.% t y 9 x c g 8 G Y X.E W X.y w ^ / 9.{.9.} / #.#.b.#.J.#.#.7.w.L h.u.{ b w =.8 G &.H X.",
"<.] o.< i.9.F.F.R.9.z.} / f.#.#.7.7.L K q l 9 8 F G G H X.E E W Q X.z s ( 9.F.D.F.G.9.9.H.q./ x.J.g.7.L 2.( ( @.v =   H X.E o.[ ",
"<.5.[ < @.G././.^.N.#X9.} } f.#.7.7.[.K = 1 . $XG G H X.E E W Q Q X.< a ( 9.^.(.F.R.G.9.0.%X/ J.g.L L u.( W.{ K @ - . 4.E o.W ! ",
"' 5.[ < @.G././.^.N.#X9.} } f.#.7.7.[.K = 1 . $XG G H X.E E W ! Q R X & oX} G.F.G.9.&X} / x.g.7.L 2.( j.{ v.i.) 5 0 x 4.E E W W ",
"' Q [ < i.9.^.^.N.#X9.} q.f.#.#.7.7.L K q l 9 8 F G G H X.E E W Q X.z * *X2.7.7.[.u.u.P.{ ^ @.i.V S ) ..B 4 $ D = 6 g X.E E W W ",
"Q Q E < S q.9.#XH.q.#.#.7.7.7.!.b.g.@X@.O t y . x c =XF G Y X.E W H y 0 % @ 4 4 s.# % % s & & & * = f - 0 j t 6 < $.$XX.X.E E E ",
"[ ` R 7 % K ^ @.i.S *.) ..b Y.2.#.q.#.( |.s - j j M M 6 l <   g H J   6 j 0 ; j M 3.~ ~ , 3.j ; j t 3 6 d.1 z y $.. 8 -XG &.H X.",
";.J J g 1 t t M 3.> , ;XA > a @.q.F.{.q.L P.@.l.S ) b v v $ q C 9 F x   $.$.9 . c 8 G G c y j - o o j r t 3 6 1 X y $.9 x c g g ",
"F F F -.8 8 -XG J H X.E ! G ; S H.(.A.R.9.} f.#.7.w.L h.2.{ b w < c c 8 8 G &.H X.E [ [ Y $.h * = n - 0 ; r M 6 6 1 < y y     . ",
"c c F G G H X.4.E W [ Q <.R C ) z.S.D.N.G.9.0.q.q.#.#.g.7.( S s 1 c F F G &.H X.E [ Q [ H   0 & * = - - ; j t t 6 l < < y y     ",
"c c F F H X.E E W W Q ' :X4.3 ).z.S.(.F.G.G.9.0.q.q.#.#._.2.K % 1 g F -X&.&.X.R ` [ Q [ X.  >X& ,X*  .- ; ; r t 6 6 1 < y y     ",
"c c F F H X.E E W W Q ' :X4.3 ).z.S.(.F.G.G.9.0.q.q.#.#._.2.K % 1 g F -X&.&.X.R ` [ Q [ X.  >X& ,X*  .- ; ; r t 6 6 1 < y y     ",
"c c F G G H X.4.E W [ Q ' T C ) z.S.D.F.G.9.0.q.q.#.#.g.7.( S s 1 c F F G &.H X.E ` <X[ H   0 & * = - - ; j t t 6 l < < y y     ",
"F F F -.8 8 -XG J H X.E W -.; S H.(.A.R.9.} C.#.7.w.L h.2.{ b w < c c 8 8 G G H X.E [ E &.$.0 w * = - o ; r t 6 6 1 < y y     x ",
"J H H g 1 t t M 3.> , < y 6 a @.q.1XB.q.w.j.@.l.S ) b v v $ q C 9 F x   $.$.. c 8 F G G g y r  .- o j t 3 6 1 < z y   9 x c =XF ",
"W [ 4.$.% i.v.v.i.V U ) v ) ^ h.#.q.#.( v & - j j M M 6 l <   g H ;.$.6 r j t 6 ~ 1 X y =.1 3 t 3 6 1 < z y   9 x c 8 -.G H X.1.",
"H H G 6 v h.g.g.L | ( P.{ v.{ { { { @.v = 6 y 9 x c =XF G Y X.E W 4.. 6 o = p - 0 r t M 6 > 6 1 1 z y     . c c c c . . x g F G ",
"1 1 1 0 @ K i.K S U b v 4 @ $ y.# K.s e M y . 8 8 G G H X.E E W Q [ &.9 3.- p = - 0 j t M 6 > 1 z z Z   . x g c 9 z t 0 m C 3 6 ",
"e e d q # $ $ + # % s & w * e - >.j M > z 9 c 8 G G H X.E E W W Q Q [ G < ; p = - o j j M M 1 1 z y     . c F c   6 q # ,.2X& w ",
"# D O s O s & q = p - o ; j M 6 2 1 z y   . g 8 G G H X.E E W W Q ] ] E N : - = - o j j M M 1 1 z y     . c F c y j # b v t.$ .X",
"$ $ # % & q = p - o j j M 6 , 1 z y Z   . . g g G G H H E E W W ] ] <.`   C - = - o j j M M 1 1 z z     . c F c y ; $ S *.p.v B ",
"# # D % & q = = - o j j M 3., 1 < z y $.. . g g G G H H E E W ! ] ] <.E $.r - = - o j j M M 1 1 z z     . c F c y ; $ *.) ..B 4 ",
"# # % % & & = = - - j j M M , , < < y y . . g g G G H H E E W ! ] ] ' E 7 r - = - o j j M M 1 1 z z     . c F c y ; + ) ....4 4 "
};
