/* XPM */
static char * micfloor_xpm[] = {
"64 64 234 2",
"  	c #22262D",
". 	c #22252C",
"+ 	c #24272F",
"@ 	c #272C34",
"# 	c #2A2F38",
"$ 	c #2B303B",
"% 	c #2B313C",
"& 	c #2A303A",
"* 	c #2B313B",
"= 	c #2A2F39",
"- 	c #292E38",
"; 	c #282D37",
"> 	c #282D36",
", 	c #272C35",
"' 	c #262B34",
") 	c #252B33",
"! 	c #242931",
"~ 	c #242930",
"{ 	c #24282F",
"] 	c #242830",
"^ 	c #242831",
"/ 	c #252932",
"( 	c #2B323C",
"_ 	c #2B303A",
": 	c #252931",
"< 	c #23262E",
"[ 	c #21242A",
"} 	c #22262C",
"| 	c #272B34",
"1 	c #292E37",
"2 	c #282E37",
"3 	c #272D36",
"4 	c #262A33",
"5 	c #262A32",
"6 	c #23272E",
"7 	c #24272E",
"8 	c #2A303B",
"9 	c #282D35",
"0 	c #292F39",
"a 	c #292F38",
"b 	c #282C36",
"c 	c #282C35",
"d 	c #21242B",
"e 	c #272B33",
"f 	c #262B33",
"g 	c #262A31",
"h 	c #252930",
"i 	c #23272F",
"j 	c #21252C",
"k 	c #21252B",
"l 	c #2C323D",
"m 	c #2C333E",
"n 	c #272D35",
"o 	c #262A34",
"p 	c #252A32",
"q 	c #22272E",
"r 	c #2C323C",
"s 	c #2E343F",
"t 	c #252A33",
"u 	c #22262E",
"v 	c #23272D",
"w 	c #2D343F",
"x 	c #2A3039",
"y 	c #20242A",
"z 	c #202329",
"A 	c #1F2228",
"B 	c #1F2328",
"C 	c #2E3440",
"D 	c #313845",
"E 	c #2F3540",
"F 	c #2C323E",
"G 	c #2D333F",
"H 	c #B1B1B1",
"I 	c #A8A8A8",
"J 	c #5A5A5A",
"K 	c #B5B5B5",
"L 	c #1D1F24",
"M 	c #1D2024",
"N 	c #1E2126",
"O 	c #252830",
"P 	c #2F3541",
"Q 	c #333A48",
"R 	c #303743",
"S 	c #2D333E",
"T 	c #A7A7A7",
"U 	c #5C5C5C",
"V 	c #ADADAD",
"W 	c #BBBBBB",
"X 	c #1C1E23",
"Y 	c #1D1F23",
"Z 	c #1E2025",
"` 	c #2F3642",
" .	c #333B49",
"..	c #313744",
"+.	c #272C36",
"@.	c #2C333D",
"#.	c #D6D6D6",
"$.	c #EDEDED",
"%.	c #E9E9E9",
"&.	c #1F2126",
"*.	c #2E3541",
"=.	c #323A47",
"-.	c #9F9F9F",
";.	c #6B6B6B",
">.	c #727272",
",.	c #E0E0E0",
"'.	c #F0F0F0",
").	c #2D343E",
"!.	c #23282F",
"~.	c #20232A",
"{.	c #CFCFCF",
"].	c #262C34",
"^.	c #2A2F3A",
"/.	c #1F2127",
"(.	c #DFDFDF",
"_.	c #737373",
":.	c #252A31",
"<.	c #1E2127",
"[.	c #D9D9D9",
"}.	c #606060",
"|.	c #C8C8C8",
"1.	c #C3C3C3",
"2.	c #23262D",
"3.	c #282E38",
"4.	c #282E36",
"5.	c #2C313C",
"6.	c #2A313A",
"7.	c #6F6F6F",
"8.	c #2E3540",
"9.	c #262B32",
"0.	c #2A313B",
"a.	c #2D3440",
"b.	c #313945",
"c.	c #2F3643",
"d.	c #21242C",
"e.	c #2F3641",
"f.	c #323A46",
"g.	c #303844",
"h.	c #303744",
"i.	c #2F3743",
"j.	c #D0D0D0",
"k.	c #303843",
"l.	c #242A31",
"m.	c #22252D",
"n.	c #343C4A",
"o.	c #353D4C",
"p.	c #343D4A",
"q.	c #333C4A",
"r.	c #323B48",
"s.	c #323946",
"t.	c #313844",
"u.	c #626262",
"v.	c #262C35",
"w.	c #252831",
"x.	c #333A47",
"y.	c #363E4C",
"z.	c #373F4E",
"A.	c #363E4D",
"B.	c #353E4C",
"C.	c #343D4B",
"D.	c #333C49",
"E.	c #333B48",
"F.	c #323947",
"G.	c #4D4D4D",
"H.	c #293039",
"I.	c #292D37",
"J.	c #303643",
"K.	c #343B49",
"L.	c #363D4C",
"M.	c #343C49",
"N.	c #4E4E4E",
"O.	c #C6C6C6",
"P.	c #2B323D",
"Q.	c #313946",
"R.	c #2E3641",
"S.	c #353C4B",
"T.	c #353D4B",
"U.	c #333B47",
"V.	c #2F3742",
"W.	c #313A46",
"X.	c #353F4D",
"Y.	c #353E4D",
"Z.	c #363F4E",
"`.	c #363F4D",
" +	c #A3A3A3",
".+	c #818181",
"++	c #7B7B7B",
"@+	c #323A48",
"#+	c #313A47",
"$+	c #313745",
"%+	c #323945",
"&+	c #303845",
"*+	c #353D4A",
"=+	c #2E3642",
"-+	c #2D323E",
";+	c #2D323D",
">+	c #2C323B",
",+	c #2B313A",
"'+	c #22252B",
")+	c #202228",
"!+	c #303642",
"~+	c #22242B",
"{+	c #7D7D7D",
"]+	c #2D333D",
"^+	c #909090",
"/+	c #8B8B8B",
"(+	c #2F3542",
"_+	c #1F2227",
":+	c #313846",
"<+	c #8F8F8F",
"[+	c #202328",
"}+	c #1C1E22",
"|+	c #1E2125",
"1+	c #1D2025",
"2+	c #1C1F23",
"3+	c #343C4B",
"4+	c #343B48",
"5+	c #212429",
"6+	c #959595",
"7+	c #343B4A",
"8+	c #20242B",
"9+	c #989898",
"0+	c #1E2026",
"a+	c #202429",
"b+	c #1F2329",
"c+	c #24282E",
"d+	c #1B1D22",
"e+	c #272B35",
"f+	c #282D38",
"g+	c #1F2128",
"h+	c #1D1F25",
"i+	c #353E4B",
"j+	c #1E2227",
"k+	c #292E39",
"    . + @ # $ % & & & & * * & = - - ; > , , ' ) ! ~ { { ] ^ / , & ( % * _ = = - ; > > @ : < [ } | 1 2 2 3 , ' ' 4 5 : : ] ] 6 6 ",
"  . . 7 @ = % ( * 8 & & * _ = = - 1 > 9 , , ' 4 : ~ { { { ] : ' ; 0 a 1 > b , , | c a - , ] d . e 1 2 > , ' ' f 5 g : h ] i 6 6 ",
"j k [ 6 c _ l m l % * * & & = a - 2 3 n @ | o 4 : h ] { i i { ] : p : ~ ] i 6 q i ' r s * , } . f > > , , ' t p p : h { { 6 u   ",
"k [ [ v c $ m w m l % * & x a a 2 2 3 n @ | 4 4 / : ] ] 6 6 6   } . k d y z A B y p C D E # 6 . 4 > , , ' f p p : h { { 6 6     ",
"d [ [ v c $ F G F l % * & & a a 2 2 > 9 @ | 4 4 / : H I J J I H K I J J I H L M N O P Q R _ 6 . 4 > , , ' ' 5 5 : h { { 6 v   } ",
"d d [ 6 c $ F S l r * * & x a a 2 2 > 9 @ | 4 5 : : K T J U V W W V J J I K X Y Z ] `  ...$ 6 . 5 > , , ' f 5 5 : : ] { i 6   } ",
". j d 6 +.& l @.l % * & & = a 1 2 > > , @ f 5 : K K K I J U #.$.%.#.U J I K K K &.] *.=.R & i j p n , @ ' 4 5 : : : h ] ] i 6 v ",
"] { + : > & * * * & 0 a - 1 > 9 , @ ' 4 p ~ { i T T T -.;.>.,.'.'.,.>.;.-.I T T [ : @.` ).a !.  : ' f 5 / : ] ] h / f | 4 p : : ",
"3 3 , c 1 a # # - 2 > 9 , @ f 5 / : ] { < . d ~.J J J ;.{.,.'.'.'.'.,.{.;.J J J ~ f a x 1 ].] 6 ] : ] { i 6     { 4 - & ^.0 - 2 ",
"^.= a - - - 1 > > , @ f f p : ~ ] !.6   d ~.A /.J J U >.,.'.'.'.'.'.'.(._.U J J ].@ , @ f :.~ { ] i 6     . k j 6 f & m l % * * ",
"$ & = # - - ; > , , ' f p p ! ~ !.!.6 . [ z A <.I V [.,.'.'.'.'.'.'.'.'.,.[.V I , @ ' f p : ~ ] !.i u   . j [ k 6 f $ S m l r r ",
"$ $ ^.= - 1 > > , @ f f p :.~ ~ !.!.6 . [ A <.N I V #.(.(.,.$.'.'.$.(.(.,.[.V I , @ f 5 : : ~ ~ i 6     . k y k 6 ' $ S m m l r ",
"$ $ ^.= - 1 > > , @ f f p :.~ ~ !.!.6 . [ A <.N U J }.}.}.>.(.'.'.,.>.U }.}.U J , @ f 5 : : ~ ~ i 6     . k y k 6 ' $ S m m l r ",
"$ & = # - - ; > , , ' f p p ! ~ !.!.6 . [ z A <.J U }.}.}.>.(.'.'.,.>.U }.U J U @ @ ' f p : ~ ] !.i u   . j [ k 6 f $ S m l r r ",
"^.= a - - - 1 > > , @ f f p : ~ ] !.6   d ~.A /.I V [.,.(.,.$.'.'.%.{.|.|.1.V I ' ' , @ f p ~ { ] i 6     . k j 6 f & m l % * * ",
"3 3 , c 1 = = = a 1 > n , ' f p / : ] i 2.. d ~.I V [.,.,.,.$.'.'.$.|.|.|.1.I I ; 3.= = 4.f { 6 ] : ] { !.6     { 4 - & ^.0 - 2 ",
"] ] + : > _ 5.r * 6.= a 3.2 3 , , | f 5 : ] + 6 J U }.}.}.>.(.'.'.(.7.U }.U J J F G *.8.% n 6 } : ' f 9.p : ] ] h / f | f t / / ",
"j k d < | - _ * & & 8 * % 0.& x = a 1 4.9 , | f J J J J }.>.,.'.'.(.7.J J J J J ` R D R S 2 6 . p , @ @ f 5 : : : ~ ] { + 6 < u ",
"y z z d i p | | f , $ S 8.*.a.w S m l ( * * _ x I I I V #.,.$.'.'.$.{.1.V I I I b.D D c.S 1 ] 6 5 @ @ f p p ! ~ ] !.6     . . d.",
"[ ~.z ~.j < 6 6 < p * e.b.f.b.g.h.i.` e.P 8.s ).I I I V %.'.,.(.(.(.[.j.V I I I k.R ` C l a f p @ n @ ].f ) p l.~ { i < 2.m.. . ",
"} . j k k k d [ ~.] 5.D n.o.p.q. .r.=.=.s.D t.h.J J J 7.,.,._.}.}.>.|.|.u.J J J s S @.l * & a - a a 2 4.3 n v.].f 5 : w.] + i 6 ",
"5 p : ! ] i v   . 4 S x.y.z.A.B.C.p.q.D.E.Q F.s.J U U >.,.,.}.G.G.U |.|.7.U J J l r * * % l S w S @.r ( * 0.& H.a - I.> c , ' ' ",
"% $ _ = 0 - 2 > b _ J.K.L.A.B.C.p.M.D.E.Q =.s.b.I V [.,.'.(.u.N.G.}.O.#.|.O.V I m P.( ( S *.D F.Q.D g.R i.` R.*.8.s ).S l 5.% * ",
"R J.` P *.C w S S C D K.S.T.n.D.E.U.=.f.Q.Q.b.g.I V [.,.$.(.}.G.G.U O.#.|.O.I I 8.w w w C R =. .E.=.=.Q.b.g.g.i.V.e.P 8.w G w w ",
"D.D.E.r.=.W.b.D ..t.s.Q Q x.F.s.D t.h.h.g.g.R ` J J }.>.,.(.}.G.G.U |.|.7.U U J t.h.R i.i.g.b.s.D t.h.R ` e.*.8.w ).m l % ( l m ",
"X.Y.B.C.p.n.D.E.x.=.=.=.s.b.D h.R ` ` ` ` V.` e.U J J ;.(.,.>.U U 7.|.|.u.U J U x.s.s.D D g.t.R R ` ` *.8.w w m @.r % * & & % l ",
"Z.`.A.B.T.p.n.M.E.x.=.=.Q.D g.h.c.` *.*.#.#.#.j.V I T H %.$.|.O.|.O.#.j.V I I  +.+++++++D t.h.R ` ` *.*.a.w m m l r * $ & & % l ",
"Z.Z.A.A.o.T.n.n. .E.=.f.b.D h.R ` ` *.*.#.#.#.j.V I T V #.(.[.[.[.#.|.1.V I I  +.+++++++b.D R R ` ` *.8.w w m @.r r * _ = & 5.l ",
"Z.Z.A.A.o.T.n.n. .E.=.f.b.D h.R ` ` *.*.#.#.e.e.U J J J }.7.|.#.#.|.7.U J U J U E.E.++++b.D R R ` ` *.8.w w m @.r r * _ = & 5.l ",
"Z.`.A.B.T.p.n.K.E.x.=.=.Q.D g.h.c.` *.*.[.[.e.e.J J }.}.}.7.|.#.[.|.;.U U U J J E.x.++++D t.h.R ` ` *.*.a.w m m l r * $ & & % l ",
"Y.Y.B.C.p.n. .Q x.=.=.=.s.b.D h.R ` ` ` $.$.` e.I V [.(.(.[.#.#.#.j.|.|.O.1.V I x.s.++++D g.t.R R ` ` *.8.w w m @.r % * & & % l ",
"D.D.E.@+#+Q.D $+h.t.s.=.Q x.=.s.D t.h.h.'.'.R i.I V [.,.(.(.[.#.#.#.|.|.O.1.V I t.h.++++i.g.b.%+D t.h.R ` ` R.8.w w m l % ( l S ",
"R i.` R.8.a.G S S 8.b. .S.T.n.M.E.U.=.f.'.'.b.&+J U }.}.}.7.|.[.[.O.;.U U }.J J 8.w ++++C J.=. .E.=.F.s.Q.b.g.k.i.` *.8.a.w w s ",
"8.8.w w m l % % * S D n.o.y.T.*+M.M.E.E.'.'.Q.D J U }.}.}.7.|.#.[.|.7.U U U J J m l ++++S ` @+n.D. .Q x.s.b.g.R c.` *.8.a.w w s ",
"=+R.*.8.s S -+l r w D  .T.T.*+M.M.E.E.=.'.'.D h.I V [.(.(.[.#.#.#.j.|.O.O.1.V I l r ++++;+P F.D.D.E.x.s.R e.8.w S @.l ( * % l S ",
"Q.b.t.g.R ` P 8.8.e.Q.E.M.M.E.U.=.f.Q.D '.'.c.` I V [.,.$.%.[.#.#.#.[.#.|.1.V I r >+++++l 8.D @+=.f.b.J.S ,+a ; > 9 , ' f , = * ",
"T.C.p.M.E.Q =.s.D D Q.f.W.Q.b.t.g.h.R ` '.'.C w U J }.7.{.[.#.#.#.#.[.|.7.U U J l r ++++r w R D D h.i.G 2 :.6 . '+d d ~.)+. | - ",
"T.C.p.D.=.b.g.R ` P 8.8.w w *.` g.g.R !+'.'.C w J J U u.W |.j.[.#.#.|.W u.J J J r * ++++* m P h.t.t.R w - p 6 m.. ~+d ~.)+. | - ",
"b.b.&+i.w l & 0 - - ; > , 2 % *.Q.E.=.s.'.'.` *.T I I  +u.7.|.#.#.O.7.u. +I I T $ & ++++x * C R f.U.=.g.C ( ^.- 1 > c | 4 , 0 $ ",
"* * * % ( * & 0 - 1 ; > , 2 % ` =.M.E.s.$.$.S l K H K T J U 1.j.j.1.J J T K K H m l ++{+r ]+E ..x.M.E.=.g.c.*.C S * - > c c ; 3.",
"    6 @ m R R R ` P 8.s G w ` g.=.Q =.R [.[.#.#.p / K T J J V W W V J J T K b.s.^+/+{+++V.R t.%+=.=.=.Q.D h.h.(+S x f { 6 6 6 6 ",
"M Z _+~ w E.M.n.E.Q =.s.b.D b.Q.=.s.:+*.#.#.#.#.j k H I J J I H H I J J I H n.*+<+<+{+++=.f.=.F.=.=.Q.b.D t.h.` m 2 !.[ z [+A _+",
"}+Y |+{ 8.n.B.B.T.n.K. .Q @+=.=.Q.Q.D C 1 h #.#.#.#.z A _+N N 1+L _+i a R n.^+<+{+{+n.n.D.E.Q x.F.s.Q.D g.R R *.l >   A _+N |+Z ",
"}+2+Z { *.C.Z.Z.Y.o.3+n. . .@+=.Q.Q.&+C > ] #.#.#.#.A _+N N 1+L L _+{ 0 R n.<+<+{+++C.n.M.4+Q F.s.D D h.R V.` C % , . <.N |+1+M ",
"X 2+Z { *.C.Z.Z.Y.o.3+n. . .@+=.Q.Q.&+C > ] . 5+#.#.#.#.#.{.6+<+^+^+^+^+^+<+{+{+C.n.7+ .Q x.s.Q.D g.R i.` e.8.S _ | j <.N N 1+1+",
"X L Z { 8.n.Y.Y.o.3+n. .E.@+=.=.Q.Q.D C 1 h } [ #.#.#.#.#.{. +6+^+^+^+^+<+<+{+++&+h.h.J.` P *.8.s w S @.r ( * x > : d _+N N 1+1+",
"L L N { w E.n.3+D.E.=.=.Q.Q.Q.W.f.s.:+*.# 5 6 . j k 8+y #.#.{.O.9+^+^+^+= % ( ( 0.& = = a - - - ; > c , | f 5 : { 2.5+_+_+N N N ",
"Z 0+/.< = C P *.8.w ).S @.m R.g.=.E.=.R ;+a , f f p p : #.#.#.{.9+<+^+^+f | ' f p :.O O ~ :.f ' f 5 / : w.] i 6 2.. [ a+z [+A _+",
"b+B B d ] 5 5 p :.! ~ c+v ! 0 *.E.B.*+E.D J.*.a.w S m l l * #.{.9+<+j   2.2.} . k [ z z k 6 f , @ @ f 4 5 / : ] + 6 2.} j k d d ",
"y y y ~.[ [ a+z B A _+N M z ' w D.`.y.T.n. .@+=.Q.b.D t.g.` [.{.9+<+k [ [ z [+A _+N Z Z )+2.e ; > n , | ' 4 p : : ] { 6 6     . ",
"k k y z z A _+<.N 1+Z L }+/.t S K.z.A.o.C.n.M.E.E.=.=.s.Q.R #.{.9+<+y y z [+A _+N Z L Z A   | - ; > , , ' f 5 5 : h { { 6 6     ",
"k k y y A _+N N 1+1+L X d+<./ -+K.z.`.B.C.C.n.M.E.E.=.=.#+g.#.{.9+<+y a+[+[+_+/.0+Z L Z _+  e+- f+; +., ' ' 4 5 : : ] { 6 6     ",
"k k y y A _+N N 1+1+L X d+<./ -+K.z.`.B.C.C.n.M.E.E.=.=.#+g.#.{.9+<+y a+[+[+_+/.0+Z L Z _+  e+- f+; +., ' ' 4 5 : : ] { 6 6     ",
"k k y z z A _+<.N 1+Z L X g+t S K.z.A.B.C.n.M.E.E.=.=.s.Q.R #.{.9+<+y y z [+A _+N 0+h+Z A   | - ; > , , ' f 5 5 : h { { 6 6     ",
"y y y ~.[ [ a+z B A _+N 1+~.' w D.`.y.T.n. .r.=.Q.b.D t.g.` #.{.9+<+k [ [ z z A _+N Z N [+2.| 2 ; > , @ ' 4 5 : : ] { 6 6     j ",
"B A A d ] 5 5 p :.! ~ { 6 : 0 *.E.i+p.E.b.i.*.a.w S m l l * [.{.9+<+j   2.2.. k [ y z z d 6 4 +., @ f 5 / : ] { i 6   } j k 8+y ",
"1+Z <.2.= 8.e.e.8.s G S l S P t.=.E.=.R l - , f f p #.#.#.#.[.{.9+<+{+++++++5 : O ] + 6 !.] / 5 / : ] { i 6   } j k [ ~.z A _+j+",
"A A z : l t.s.s.D ..R J.` e.` ` ` ` *.l > : 6 } j k #.#.{.{.{.O.6+/+{+++++++9 , | 4 5 p : ! : ] ] i 6     . k k k k . . j d y z ",
"] ] ] | % C 8.C w G m l ( % * 6.& H.a 3 p 6 #.#.#.#.#.j.-.6+6+6+.+{+++++++++++++++++f 5 p : ! ] i i u   . j d k } i 5 | o t / : ",
"3 3 b 1 & * * $ & = a - 2 ; 3 , ].f p ! i } #.#.#.#.#.{.9+^+<+<+{+++++++++++++++++++f f p p ] ] i 6     . k y k   : 1 & ^.k+- 2 ",
"& x # a # a - 1 > 9 , @ ' f p : ^ ] i 6   . d [ z z A _+N N 1+1+L Y Y N q ) , > , @ f f p p ] ] i 6     . k y k 6 f & m l 5.* ,+",
"* * & = - 1 > 9 , @ f f p : ~ ] i 6 u   . . d d z z A A N N 1+1+Y Y }+0+  t , > , @ f f p p ] ] i i     . k y k 6 ' * w ).]+l r ",
"& & x = - 1 > > , @ f f p :.~ ] { i 6 2.. . d d z z A A N N 1+M Y Y }+N 2.4 , > , @ f f p p ] ] i i     . k y k 6 ' * ).S @.r ( ",
"& & = = - - > > , , f f p p ~ ~ { { 6 6 . . d d z z A A N N 1+M Y Y X N < 4 , > , @ f f p p ] ] i i     . k y k 6 ' $ S @.@.( ( "};
